<svg id="Layer_1" data-name="Layer 1" xmlns="http://www.w3.org/2000/svg" viewBox="0 0 844.9 246.2"><title>alphabet</title><path d="M193.79,102.6V142c0,6,1.34,13.54,13.05,13.54,5.74,0,11.1-1.95,14.4-6.83,2.56-3.66,2.56-8.42,2.56-11.47V102.6h11.83v49.77c0,1.22.25,8,.37,11.47H224l-.24-10.49c-2.2,4.27-6.34,11.1-19.52,11.1-15.13,0-22.2-8.66-22.2-20.74V102.6Z"/><path d="M258.2,109.67l-.12-7.07h11.47l.12,9.88c1.34-2.56,5.74-11.1,19.64-11.1,5.49,0,22.21,2.07,22.21,20.86v41.6H299.8V124.92c0-4-.48-7.68-3.29-10.49a15.75,15.75,0,0,0-10.86-4.15c-8.29,0-16,6-16,18.3v35.26H258.2Z"/><path d="M331.28,76h13.79V88.57H331.28Zm1.22,26.6H344v61.24H332.5Z"/><path d="M359.44,102.6h12.81l19.51,48.55,19-48.55h12.68l-26.84,61.24H385.06Z"/><path d="M443.49,135.29c-.24,12.69,5,22.08,17.57,22.08,7.44,0,13.42-3.9,14.4-12.68h11.46c-.36,3.05-.85,8.05-5.24,12.81-2.69,3-8.79,8.17-21.11,8.17-19.27,0-28.42-12-28.42-31.35,0-12.08,2.44-22.08,12.08-28.79,5.85-4.15,13.17-4.52,16.71-4.52,27.45,0,26.84,24.28,26.59,34.28Zm32.33-8c.12-5.86-1-18-15.13-18-7.44,0-16.46,4.51-16.71,18Z"/><path d="M505,115c0-4.15-.24-8.42-.61-12.44H516l.25,11.83c2.19-8.54,9.51-11.34,14.63-12.08a37.15,37.15,0,0,1,7.93-.24v11.22a9.92,9.92,0,0,0-2.19-.48,24.1,24.1,0,0,0-3.3-.13c-13.54,0-16.71,8-16.71,18.55v32.57H505Z"/><path d="M560.83,145.66c-.12,4.64,2.32,11.1,13.42,11.1,4.76,0,8.29-.85,10.73-3.9a9.58,9.58,0,0,0,2-5.73c0-6-4.27-7.08-13.42-9.15-12.81-2.93-23.55-5.49-23.55-18.3,0-11.23,9.76-18.55,23.91-18.55,7.69,0,18.42,2.2,22.08,9.52a19.39,19.39,0,0,1,1.59,8.91H585.84c.36-9.28-7.69-10-11.84-10-1.7,0-12.44,0-12.44,8.79,0,5.61,5.49,7,8.66,7.8,17,4,20.62,5,24.28,8.42a15.17,15.17,0,0,1,4.64,11.35,18.57,18.57,0,0,1-8.3,15.49c-5.37,3.29-11.83,4.15-18.18,4.15-12.44,0-24-5.13-23.91-19.89Z"/><path d="M622.2,135.29c-.25,12.69,5,22.08,17.56,22.08,7.44,0,13.42-3.9,14.4-12.68h11.47c-.37,3.05-.86,8.05-5.25,12.81-2.68,3-8.78,8.17-21.11,8.17-19.27,0-28.42-12-28.42-31.35,0-12.08,2.44-22.08,12.08-28.79,5.85-4.15,13.17-4.52,16.71-4.52,27.45,0,26.84,24.28,26.6,34.28Zm32.32-8c.13-5.86-1-18-15.12-18-7.45,0-16.47,4.51-16.72,18Z"/></svg>