<svg id="Layer_1" data-name="Layer 1" xmlns="http://www.w3.org/2000/svg" viewBox="0 0 700 700"><title>alphabet</title><path d="M424.34,514.44q-28.11,23.88-54.11,33.73a156.6,156.6,0,0,1-55.8,9.83q-49.18,0-75.61-24T212.4,472.55a81.61,81.61,0,0,1,10-40.05,82.51,82.51,0,0,1,26.14-29.09,122.91,122.91,0,0,1,36.4-16.59q14.9-3.93,45-7.59,61.28-7.31,90.23-17.42.28-10.41.28-13.21,0-30.93-14.34-43.57-19.4-17.14-57.62-17.15-35.7,0-52.7,12.51t-25.16,44.27l-49.47-6.75q6.75-31.76,22.21-51.29T288,256.54Q317.25,246,355.75,246q38.24,0,62.12,9T453,277.62q11.24,13.63,15.74,34.43,2.52,12.93,2.53,46.67v67.46q0,70.54,3.23,89.24a112.52,112.52,0,0,0,12.79,35.84H434.45Q426.59,535.51,424.34,514.44Zm-4.22-113q-27.56,11.25-82.64,19.11-31.2,4.5-44.13,10.12a44,44,0,0,0-20,16.45,43.21,43.21,0,0,0-7,24q0,20.24,15.31,33.73t44.84,13.49q29.24,0,52-12.79t33.45-35q8.14-17.14,8.15-50.6Z"/></svg>