<svg id="Layer_1" data-name="Layer 1" xmlns="http://www.w3.org/2000/svg" viewBox="0 0 844.9 246.2"><title>alphabet</title><path d="M57,156.79a37.79,37.79,0,0,1-10.89,6.79,31.47,31.47,0,0,1-11.23,2q-9.91,0-15.23-4.84a16,16,0,0,1-5.32-12.36,16.46,16.46,0,0,1,2-8.07,16.64,16.64,0,0,1,5.27-5.85A24.45,24.45,0,0,1,29,131.1,72.31,72.31,0,0,1,38,129.57q12.33-1.47,18.17-3.51c0-1.4.05-2.28.05-2.66q0-6.23-2.88-8.77c-2.61-2.3-6.47-3.45-11.61-3.45q-7.19,0-10.61,2.51t-5.06,8.92l-10-1.36a24.56,24.56,0,0,1,4.47-10.33,19.51,19.51,0,0,1,9-6,40,40,0,0,1,13.64-2.13,36.21,36.21,0,0,1,12.5,1.81,16.52,16.52,0,0,1,7.08,4.56A16.09,16.09,0,0,1,66,116a57.38,57.38,0,0,1,.51,9.4V139q0,14.21.65,18a22.58,22.58,0,0,0,2.57,7.21H59.07A21.89,21.89,0,0,1,57,156.79ZM56.19,134q-5.55,2.27-16.64,3.85a38.71,38.71,0,0,0-8.89,2,8.93,8.93,0,0,0-4,3.32,9,9,0,0,0,1.67,11.62c2.06,1.82,5.07,2.72,9,2.72A21.1,21.1,0,0,0,47.81,155a15.83,15.83,0,0,0,6.73-7q1.65-3.45,1.65-10.19Z"/><path d="M121.66,164.2v-8.83q-7,10.2-19.07,10.19a24.24,24.24,0,0,1-9.93-2,16.23,16.23,0,0,1-6.85-5.12,19.08,19.08,0,0,1-3.14-7.55,52.26,52.26,0,0,1-.62-9.51V104.1H92.23v33.33a58.81,58.81,0,0,0,.63,10.76,10.64,10.64,0,0,0,4.07,6.31,12.62,12.62,0,0,0,7.7,2.29,16.74,16.74,0,0,0,8.6-2.35,13.09,13.09,0,0,0,5.69-6.39q1.67-4.05,1.67-11.75V104.1h10.18v60.1Z"/><path d="M169,155.09l1.48,9a38.09,38.09,0,0,1-7.7.9q-5.55,0-8.6-1.75a9.83,9.83,0,0,1-4.3-4.61q-1.24-2.87-1.25-12V112h-7.47V104.1h7.47V89.22l10.13-6.11v21H169V112H158.73v35.15q0,4.35.54,5.6a4.24,4.24,0,0,0,1.75,2,6.77,6.77,0,0,0,3.48.74A32.33,32.33,0,0,0,169,155.09Z"/><path d="M175.14,134.15q0-16.7,9.28-24.73a28,28,0,0,1,18.91-6.68q12.39,0,20.26,8.12t7.86,22.44q0,11.61-3.48,18.25a24.61,24.61,0,0,1-10.13,10.33,29.5,29.5,0,0,1-14.51,3.68q-12.63,0-20.41-8.09T175.14,134.15Zm10.47,0q0,11.55,5,17.29a16.76,16.76,0,0,0,25.3,0q5-5.78,5-17.6,0-11.15-5.06-16.89a16.8,16.8,0,0,0-25.27,0Q185.61,122.61,185.61,134.15Z"/><path d="M252.79,164.2h-9.45v-83h10.18v29.6a20.15,20.15,0,0,1,16.47-8.1,25.23,25.23,0,0,1,10.5,2.24,21.41,21.41,0,0,1,8.15,6.28,30.47,30.47,0,0,1,5,9.76,40.51,40.51,0,0,1,1.81,12.23q0,15.45-7.64,23.88t-18.34,8.43a19.13,19.13,0,0,1-16.69-8.88Zm-.12-30.5q0,10.81,3,15.62,4.8,7.86,13,7.87,6.67,0,11.55-5.81T285,134.1q0-11.77-4.66-17.38t-11.29-5.6q-6.69,0-11.55,5.8T252.67,133.7Z"/><path d="M307.91,93V81.24h10.18V93Zm0,71.25V104.1h10.18v60.1Z"/><path d="M329.81,134.15q0-16.7,9.28-24.73a28,28,0,0,1,18.9-6.68q12.39,0,20.26,8.12t7.87,22.44q0,11.61-3.48,18.25a24.61,24.61,0,0,1-10.13,10.33A29.54,29.54,0,0,1,358,165.56q-12.62,0-20.4-8.09T329.81,134.15Zm10.47,0q0,11.55,5,17.29a16.76,16.76,0,0,0,25.3,0q5-5.78,5-17.6,0-11.15-5.07-16.89a16.8,16.8,0,0,0-25.27,0Q340.29,122.61,340.28,134.15Z"/><path d="M396.19,169.18l9.9,1.47q.63,4.59,3.46,6.68c2.52,1.89,6,2.83,10.35,2.83q7.08,0,10.93-2.83a13.94,13.94,0,0,0,5.2-7.92q.8-3.12.74-13.07a21,21,0,0,1-16.64,7.86q-12.39,0-19.19-8.94t-6.79-21.45a39.84,39.84,0,0,1,3.12-15.87,24.93,24.93,0,0,1,9-11.24,24.39,24.39,0,0,1,13.9-4,21.53,21.53,0,0,1,17.54,8.61V104.1h9.39v52q0,14-2.85,19.9a21,21,0,0,1-9.06,9.25Q429,188.59,420,188.59q-10.75,0-17.37-4.83T396.19,169.18Zm8.43-36.1q0,11.82,4.7,17.26a15.5,15.5,0,0,0,23.54,0q4.75-5.42,4.76-17,0-11-4.9-16.64a15.12,15.12,0,0,0-11.8-5.6,14.71,14.71,0,0,0-11.54,5.51Q404.63,122.21,404.62,133.08Z"/><path d="M462.4,164.2V104.1h9.17v9.11q3.51-6.39,6.48-8.43a11.3,11.3,0,0,1,6.54-2A19.89,19.89,0,0,1,495.06,106l-3.51,9.45a14.59,14.59,0,0,0-7.47-2.21,9.69,9.69,0,0,0-6,2,10.89,10.89,0,0,0-3.79,5.57,39.77,39.77,0,0,0-1.7,11.89V164.2Z"/><path d="M540.33,156.79a37.79,37.79,0,0,1-10.89,6.79,31.52,31.52,0,0,1-11.24,2q-9.9,0-15.22-4.84a16,16,0,0,1-5.32-12.36,16.74,16.74,0,0,1,7.27-13.92,24.51,24.51,0,0,1,7.33-3.34,72.31,72.31,0,0,1,9.06-1.53q12.33-1.47,18.16-3.51c0-1.4.06-2.28.06-2.66q0-6.23-2.89-8.77-3.9-3.45-11.6-3.45-7.18,0-10.61,2.51t-5.06,8.92l-10-1.36a24.56,24.56,0,0,1,4.47-10.33,19.53,19.53,0,0,1,9-6,40,40,0,0,1,13.64-2.13A36.31,36.31,0,0,1,539,104.55a16.48,16.48,0,0,1,7.07,4.56,16,16,0,0,1,3.17,6.93,57.38,57.38,0,0,1,.51,9.4V139q0,14.21.65,18A22.6,22.6,0,0,0,553,164.2H542.37A21.44,21.44,0,0,1,540.33,156.79ZM539.48,134q-5.55,2.27-16.64,3.85a38.59,38.59,0,0,0-8.88,2,8.83,8.83,0,0,0-4,3.32,9,9,0,0,0,1.67,11.62c2.06,1.82,5.07,2.72,9,2.72A21.1,21.1,0,0,0,531.11,155a15.89,15.89,0,0,0,6.73-7c1.1-2.3,1.64-5.7,1.64-10.19Z"/><path d="M565.57,187.24V104.1h9.28v7.81a22.81,22.81,0,0,1,7.42-6.87,20.32,20.32,0,0,1,10-2.3,23.8,23.8,0,0,1,13.59,4,24.39,24.39,0,0,1,8.88,11.18,40.79,40.79,0,0,1,3,15.82,40.12,40.12,0,0,1-3.31,16.61,25,25,0,0,1-9.62,11.32,24.72,24.72,0,0,1-13.27,3.93,19.18,19.18,0,0,1-9.14-2.15,20.65,20.65,0,0,1-6.65-5.43v29.26Zm9.23-52.75q0,11.61,4.69,17.15a14.41,14.41,0,0,0,11.38,5.55q6.79,0,11.63-5.75t4.84-17.8q0-11.49-4.73-17.2t-11.29-5.72q-6.51,0-11.52,6.09T574.8,134.49Z"/><path d="M630,164.2v-83h10.19V111a22.75,22.75,0,0,1,18-8.27,24.2,24.2,0,0,1,11.6,2.64,15.35,15.35,0,0,1,7.05,7.27q2.11,4.63,2.12,13.47V164.2H668.8V126.12q0-7.65-3.31-11.12t-9.37-3.48a16.57,16.57,0,0,0-8.52,2.34,13.33,13.33,0,0,0-5.69,6.37q-1.7,4-1.69,11.09V164.2Z"/><path d="M694.55,93V81.24h10.18V93Zm0,71.25V104.1h10.18v60.1Z"/><path d="M761.38,144.85l10.53,1.3a25.71,25.71,0,0,1-9.23,14.32q-6.73,5.09-17.2,5.09-13.18,0-20.91-8.12t-7.73-22.78q0-15.16,7.81-23.54t20.26-8.38q12.06,0,19.7,8.21T772.25,134c0,.6,0,1.51-.06,2.72H727.37q.57,9.9,5.6,15.16a16.68,16.68,0,0,0,12.56,5.27,15.61,15.61,0,0,0,9.57-2.95Q759.06,151.3,761.38,144.85Zm-33.45-16.47h33.56q-.68-7.59-3.84-11.38A15.64,15.64,0,0,0,745,111.12a16.14,16.14,0,0,0-11.8,4.7Q728.45,120.52,727.93,128.38Z"/><path d="M780.62,146.26l10.08-1.58a14.06,14.06,0,0,0,4.72,9.28q3.87,3.22,10.84,3.23t10.41-2.86a8.57,8.57,0,0,0,3.4-6.71,6.18,6.18,0,0,0-3-5.43q-2.1-1.37-10.42-3.45-11.21-2.84-15.53-4.9a14.79,14.79,0,0,1-8.8-13.78,15.42,15.42,0,0,1,1.84-7.44,16.4,16.4,0,0,1,5-5.69,20.86,20.86,0,0,1,6.48-3,30.83,30.83,0,0,1,8.8-1.22,34.77,34.77,0,0,1,12.42,2,16.88,16.88,0,0,1,7.89,5.52,21.5,21.5,0,0,1,3.51,9.31l-10,1.36a10.89,10.89,0,0,0-3.93-7.25q-3.25-2.59-9.2-2.6-7,0-10,2.32a6.76,6.76,0,0,0-3,5.43,5.64,5.64,0,0,0,1.24,3.57,8.93,8.93,0,0,0,3.91,2.71c1,.38,4,1.25,9,2.61a126,126,0,0,1,15.09,4.72,15.34,15.34,0,0,1,6.7,5.35,14.94,14.94,0,0,1,2.44,8.72,17,17,0,0,1-3,9.59,19.15,19.15,0,0,1-8.57,7,31.21,31.21,0,0,1-12.68,2.46q-11.71,0-17.85-4.87T780.62,146.26Z"/></svg>