<svg id="Layer_1" data-name="Layer 1" xmlns="http://www.w3.org/2000/svg" viewBox="0 0 844.9 246.2"><title>alphabet</title><path d="M63.3,101.29a34.52,34.52,0,0,1,19.5,5.5c5.3,3.5,8,7.9,8,13.1a11,11,0,0,1-3.7,8.7,12,12,0,0,1-8.4,3.2,9,9,0,0,1-7.8-3.7,38.35,38.35,0,0,1-2.4-6c-1.1-3.5-3.2-5.2-6.4-5.2a6.85,6.85,0,0,0-5.7,3,11.19,11.19,0,0,0-2.3,7.3,18.94,18.94,0,0,0,5.3,13.2,14.29,14.29,0,0,0,10.9,4.7,24.72,24.72,0,0,0,5.2-.5,47.41,47.41,0,0,0,5.5-2.1,4.06,4.06,0,0,1,1.9-.4,4.81,4.81,0,0,1,3.7,2,7.06,7.06,0,0,1,1.6,4.7,10.27,10.27,0,0,1-2.3,5.9,22.62,22.62,0,0,1-6,5.4,35.65,35.65,0,0,1-19,5,33.45,33.45,0,0,1-21.8-7.4c-7.7-6.3-11.5-14.3-11.5-24a29.4,29.4,0,0,1,10.7-23.2C45.3,104.29,53.6,101.29,63.3,101.29Z"/><path d="M129.9,101.29c7.2,0,13.3,1.8,18.3,5.5a16.81,16.81,0,0,1,5.6,6.7c1.1,2.5,1.6,5.9,1.6,10.3l-.1,9.2c0,6.4.5,10.6,1.4,12.5a4.28,4.28,0,0,0,1.3,1.7,9.77,9.77,0,0,0,2.6.7,2.31,2.31,0,0,1,2,2.6,10.34,10.34,0,0,1-2.4,6.2,19.23,19.23,0,0,1-6.2,5.4,19,19,0,0,1-9.7,2.7,12.78,12.78,0,0,1-10.3-4.5c-.9-1.1-1.7-1.6-2.4-1.6a6,6,0,0,0-3.3,1.6,23.26,23.26,0,0,1-14.1,4.5c-5.4,0-9.8-1.2-13.1-3.5a16,16,0,0,1-5.2-6,16.25,16.25,0,0,1-1.9-7.7,15.2,15.2,0,0,1,5.2-11.4c5.4-5.2,13.5-7.8,24.3-7.9,2.4,0,3.9-.2,4.5-.7s.9-1.6.9-3.3c0-4.4-.5-7.6-1.4-9.5a4.53,4.53,0,0,0-4.5-2.9,5.68,5.68,0,0,0-3.3,1.1,17.4,17.4,0,0,0-3.6,4.1c-3.7,5.3-7.5,7.9-11.5,7.9a7.14,7.14,0,0,1-5-1.8,6.11,6.11,0,0,1-1.9-4.7,9.61,9.61,0,0,1,2.4-6,21.58,21.58,0,0,1,6.5-5.2A47.85,47.85,0,0,1,129.9,101.29Zm-4.2,35.9a6,6,0,0,0-4.7,2.2,7.94,7.94,0,0,0-2,5.3,7.82,7.82,0,0,0,1.4,4.8,4.65,4.65,0,0,0,3.8,1.8c3.3,0,5-2.8,5-8.4,0-2.3-.2-3.8-.7-4.6A3.47,3.47,0,0,0,125.7,137.19Z"/><path d="M196.5,101.69c2.5,0,4.1.2,4.7.7s.9,1.5.9,3.3c0,1.5.5,2.3,1.5,2.3q.6,0,4.2-2.4a23.93,23.93,0,0,1,6.8-3,26.53,26.53,0,0,1,7.5-1.2,20.57,20.57,0,0,1,14.1,5.5,28.33,28.33,0,0,1,7.3,10.5,36.74,36.74,0,0,1,2.7,14c0,10.4-3.5,19-10.5,25.7-5.4,5.3-11.6,7.9-18.5,7.9a26.47,26.47,0,0,1-10.9-2.5,4.93,4.93,0,0,0-1.8-.5c-1.2,0-1.9,1.2-1.9,3.7,0,3.3,1.1,5.6,3.3,7.1a23.29,23.29,0,0,1,3.6,2.8,3.84,3.84,0,0,1,.6,2.4q0,3.75-4.2,5.7c-2.8,1.3-6.7,2-11.7,2-9,0-16.8-1.8-23.6-5.4-3.4-1.8-5.1-4.1-5.1-6.8a4.45,4.45,0,0,1,.8-2.8,9,9,0,0,1,3-2,6.82,6.82,0,0,0,3.9-5.4c.5-2.6.8-10.1,1.1-22.5-.3-10.2-.7-15.9-1.1-17.1-.2-.4-.4-.7-.7-.8a21.77,21.77,0,0,0-3.1-.7,5.41,5.41,0,0,1-3.2-1.8,5.31,5.31,0,0,1-1.2-3.5,6.56,6.56,0,0,1,1.7-4.4,17.45,17.45,0,0,1,5.6-3.7C182.5,104.09,190.5,101.69,196.5,101.69Zm6.1,23.4-.9,17.1c0,.7-.1,1.4-.1,2a3.68,3.68,0,0,0,1.7,3.1,7.51,7.51,0,0,0,4.5,1.2c5.7,0,8.6-4.7,8.6-14.1,0-6.1-1.2-10.4-3.6-12.8a7.36,7.36,0,0,0-5.3-2.3C204.5,119.29,202.9,121.19,202.6,125.09Z"/><path d="M279.2,101.69c2.2,0,3.5.3,4,.9s.9,2.6,1.3,6c.2,1.8.8,2.7,1.9,2.7q1.2,0,2.4-1.8c3.3-5.2,7.6-7.8,13-7.8a12.06,12.06,0,0,1,9.2,3.7,14,14,0,0,1,2.9,4.6,15.76,15.76,0,0,1,1.1,5.4,15.35,15.35,0,0,1-1.4,6,17.09,17.09,0,0,1-3.5,5.1,13.6,13.6,0,0,1-9.7,3.8,11.89,11.89,0,0,1-5.3-1.1,27.7,27.7,0,0,1-5.6-4.5,3.61,3.61,0,0,0-2.4-1.3c-1.2,0-1.9.7-2.3,2s-.5,4-.5,8.2c0,6.2.2,10.5.7,12.8a5.73,5.73,0,0,0,1.2,2.6,8.47,8.47,0,0,0,3.3,1.5c3.7,1.1,5.6,3.1,5.6,5.8a6,6,0,0,1-1.8,4.4,8.57,8.57,0,0,1-4.8,2.5c-4,.8-9.8,1.2-17.5,1.2-7.3,0-12.9-.6-16.7-1.9q-5.1-1.8-5.1-6c0-2.1,1.2-4.1,3.7-5.8a11.74,11.74,0,0,0,2.5-2.1,4.72,4.72,0,0,0,.9-2.6c.7-3.8,1-10.7,1-20.9a9.52,9.52,0,0,0-.6-4,4.38,4.38,0,0,0-2.5-2c-2.9-1.2-4.4-2.8-4.4-5a6.11,6.11,0,0,1,3-5.1q3-2.1,10.2-4.2A55.55,55.55,0,0,1,279.2,101.69Z"/><path d="M353.1,105.59v36a19.21,19.21,0,0,0,.8,6.3,9.44,9.44,0,0,0,3.1,3.7,12.82,12.82,0,0,1,2.6,2.3,4.53,4.53,0,0,1,.7,2.4c0,5.3-6.8,8-20.3,8a71.71,71.71,0,0,1-17.3-1.7,6.79,6.79,0,0,1-3.5-2.2,5.08,5.08,0,0,1-1.3-3.5,4,4,0,0,1,.7-2.6,21.84,21.84,0,0,1,3.5-3,7.77,7.77,0,0,0,2.7-4.7,45,45,0,0,0,.8-9.6c0-1.4-.1-3.9-.3-7.7s-.3-5.9-.4-6.5c-.2-1.7-1.4-3-3.5-3.9-2.6-1.1-3.8-2.8-3.8-5,0-2.6,1.7-4.5,5-5.8a104,104,0,0,1,14.9-4.5,61.67,61.67,0,0,1,12.3-1.9Q353.1,101.84,353.1,105.59Zm-12.3-27.1a16.58,16.58,0,0,1,8.6,2,6.22,6.22,0,0,1,3.2,5.4c0,3.2-1.6,5.7-4.8,7.6-5,2.9-11.1,4.4-18.3,4.4a13.69,13.69,0,0,1-7.2-1.7,7,7,0,0,1-3.6-6.2c0-3.6,2.5-6.3,7.6-8.4A38.66,38.66,0,0,1,340.8,78.49Z"/><path d="M398.9,101.29a34.52,34.52,0,0,1,19.5,5.5c5.3,3.5,8,7.9,8,13.1a11,11,0,0,1-3.7,8.7,12,12,0,0,1-8.4,3.2,9,9,0,0,1-7.8-3.7,38.35,38.35,0,0,1-2.4-6c-1.1-3.5-3.2-5.2-6.4-5.2a6.85,6.85,0,0,0-5.7,3,11.19,11.19,0,0,0-2.3,7.3,18.94,18.94,0,0,0,5.3,13.2,14.29,14.29,0,0,0,10.9,4.7,24.72,24.72,0,0,0,5.2-.5,47.41,47.41,0,0,0,5.5-2.1,4.06,4.06,0,0,1,1.9-.4,4.81,4.81,0,0,1,3.7,2,7.06,7.06,0,0,1,1.6,4.7,10.27,10.27,0,0,1-2.3,5.9,22.62,22.62,0,0,1-6,5.4,35.65,35.65,0,0,1-19,5,33.45,33.45,0,0,1-21.8-7.4c-7.7-6.3-11.5-14.3-11.5-24a29.4,29.4,0,0,1,10.7-23.2C380.8,104.29,389.1,101.29,398.9,101.29Z"/><path d="M464.5,105.59v36a19.21,19.21,0,0,0,.8,6.3,9.44,9.44,0,0,0,3.1,3.7,12.82,12.82,0,0,1,2.6,2.3,4.53,4.53,0,0,1,.7,2.4c0,5.3-6.8,8-20.3,8a71.71,71.71,0,0,1-17.3-1.7,6.79,6.79,0,0,1-3.5-2.2,5.08,5.08,0,0,1-1.3-3.5,4,4,0,0,1,.7-2.6,21.84,21.84,0,0,1,3.5-3,7.77,7.77,0,0,0,2.7-4.7,45,45,0,0,0,.8-9.6c0-1.4-.1-3.9-.3-7.7s-.3-5.9-.4-6.5c-.2-1.7-1.4-3-3.5-3.9-2.6-1.1-3.8-2.8-3.8-5,0-2.6,1.7-4.5,5-5.8a104,104,0,0,1,14.9-4.5,61.67,61.67,0,0,1,12.3-1.9C463.3,101.79,464.5,103.09,464.5,105.59Zm-12.3-27.1a16.58,16.58,0,0,1,8.6,2,6.22,6.22,0,0,1,3.2,5.4c0,3.2-1.6,5.7-4.8,7.6-5,2.9-11.1,4.4-18.3,4.4a13.69,13.69,0,0,1-7.2-1.7,7,7,0,0,1-3.6-6.2c0-3.6,2.5-6.3,7.6-8.4A38.66,38.66,0,0,1,452.2,78.49Z"/><path d="M513.3,101.29a34.34,34.34,0,0,1,19.9,5.9,31.81,31.81,0,0,1,9.9,11,29.94,29.94,0,0,1,3.8,14.8c0,9-4.1,16.6-12.3,22.9a43.26,43.26,0,0,1-27,9q-14.85,0-24-8.4c-6-5.5-8.9-12.6-8.9-21.3,0-9.8,3.6-17.7,10.9-23.9C493.2,104.59,502.4,101.29,513.3,101.29Zm-5,14.3a5.56,5.56,0,0,0-4.4,2,8.09,8.09,0,0,0-1.6,5.4,51.86,51.86,0,0,0,1.4,10.1,70.81,70.81,0,0,0,3.3,11.4q2,5.1,6.3,5.1c3.7,0,5.5-2.3,5.5-7a59.66,59.66,0,0,0-1.4-11.8A49.31,49.31,0,0,0,514,120C512.7,117.09,510.8,115.69,508.3,115.59Z"/><path d="M585,104.89v33.6c0,7.2,2.4,10.8,7.1,10.8a6.43,6.43,0,0,0,3.5-1,5.22,5.22,0,0,0,2.4-2.5c.9-2,1.4-6.4,1.4-13.3s-.2-11.4-.7-13.9a5.51,5.51,0,0,0-.9-2.3,7.49,7.49,0,0,0-2.4-1.6c-2.4-1.2-3.5-2.8-3.5-4.7,0-2.6,2-4.3,6.1-5.3a95,95,0,0,1,22.8-2.9q6.3,0,6.3,6.6c0,.5,0,1.4-.1,2.8-.1,2-.1,4.4-.2,7.3v27.4c0,1.4,1.2,2.7,3.6,3.8,2,1,3,2.4,3,4.3,0,3.7-4.4,6.6-13.2,8.6a66.68,66.68,0,0,1-15,1.8,8.11,8.11,0,0,1-4.1-.7,3.65,3.65,0,0,1-1.3-2.7c-.2-2.6-1-3.8-2.4-3.8a3.19,3.19,0,0,0-1.4.3c-.4.2-1.7,1.1-3.8,2.5a23.27,23.27,0,0,1-13.5,4.3q-11.85,0-16.8-6.9c-2.8-3.8-4.2-10.3-4.2-19.4,0-3.4,0-6.3.1-8.7v-2.9c0-3.6-.3-6.2-1-7.8a7,7,0,0,0-3.5-3.9,12.61,12.61,0,0,1-3.1-2,3.22,3.22,0,0,1-.7-2c0-3.1,2.4-5.2,7.1-6.3a111.71,111.71,0,0,1,24.3-2.7C583.7,101.79,585,102.79,585,104.89Z"/><path d="M661.5,101.29a62.39,62.39,0,0,1,10.1,1.4,11,11,0,0,0,2.4.2,16.64,16.64,0,0,0,4.1-1.1,6.91,6.91,0,0,1,2.4-.6c1.9,0,3.8,1.2,5.8,3.7a23.06,23.06,0,0,1,3.8,6.4,15.46,15.46,0,0,1,1.5,6,5.5,5.5,0,0,1-1.7,4.1,6,6,0,0,1-4.3,1.6,7.65,7.65,0,0,1-3.9-1.1,43.34,43.34,0,0,1-5.5-4.7c-2.6-2.6-4.8-3.8-6.6-3.8a3.8,3.8,0,0,0-3,1.3,4.34,4.34,0,0,0-1.3,3c0,2,1.9,3.9,5.8,5.7,7,3.1,12.3,6.6,16.1,10.3a15.77,15.77,0,0,1,4.7,11.5c0,5.7-2.5,10.5-7.6,14.4a25.57,25.57,0,0,1-15.9,5c-1.6,0-4.5-.3-8.8-.8-4-.5-6.3-.7-6.8-.7a15.41,15.41,0,0,0-1.9.2,14.93,14.93,0,0,1-2.6.2,6.7,6.7,0,0,1-4.6-1.5,19.92,19.92,0,0,1-4.7-7.2,22.71,22.71,0,0,1-2.2-8.5q0-5.7,4.5-5.7a5.39,5.39,0,0,1,3.2,1.1,80.75,80.75,0,0,1,6.1,6.1,25.33,25.33,0,0,0,4.2,3.8,6.53,6.53,0,0,0,3.6,1,4.86,4.86,0,0,0,3.3-1.1,3.7,3.7,0,0,0,1.2-2.9q0-2.85-4.8-5.1c-6.7-3.3-11.5-6.6-14.4-10.1a17.82,17.82,0,0,1-4.4-12,19,19,0,0,1,4.5-12.7C648.2,103.89,654.1,101.29,661.5,101.29Z"/><path d="M732.2,113.89v19.9c0,8.8.1,13.9.4,15.4a4.61,4.61,0,0,0,3.1,3.3,9.81,9.81,0,0,1,3.1,1.9,3.74,3.74,0,0,1,.8,2.5,5.3,5.3,0,0,1-1.5,3.7,8.61,8.61,0,0,1-3.9,2.4c-3,.9-8,1.4-15.1,1.4q-12,0-16.8-1.8a8.7,8.7,0,0,1-3.7-2.5,5.13,5.13,0,0,1-1.4-3.6,3.2,3.2,0,0,1,.8-2.3,10.48,10.48,0,0,1,3.4-1.9c1.6-.7,2.6-2.6,3-5.8a191.54,191.54,0,0,0,1-22.9q0-15.15-.9-19.5a9.23,9.23,0,0,0-4.3-6.4,12.81,12.81,0,0,1-3.6-2.8,5.86,5.86,0,0,1-1-3.3,6.72,6.72,0,0,1,2.9-5.3q2.85-2.25,9.3-4.2a95.18,95.18,0,0,1,11.1-2.5,64.77,64.77,0,0,1,9.9-1.2c3.3,0,4.9,2,4.9,6.1,0,1.3-.2,4.4-.6,9.1C732.6,101,732.3,107.79,732.2,113.89Z"/><path d="M800,131.89l-8.2,22.5a91.54,91.54,0,0,1-6.1,13.7,40,40,0,0,1-7,9,27.2,27.2,0,0,1-19.4,7.7c-6.1,0-11.1-1.6-14.9-4.8a12,12,0,0,1-4.4-9.5,10.85,10.85,0,0,1,3.1-8,9.86,9.86,0,0,1,7.5-3.3,9.21,9.21,0,0,1,7.2,3,7.65,7.65,0,0,1,1.7,2.4,45,45,0,0,1,1.3,4.7c.5,1.8,1.5,2.7,3.1,2.7a3.85,3.85,0,0,0,3.2-1.7,6.39,6.39,0,0,0,1.3-4.2c0-1.9-1.1-5.2-3.2-9.7l-14.9-31.8a35.16,35.16,0,0,0-3.5-6.2,19,19,0,0,0-5.2-3,4.44,4.44,0,0,1-2.1-2,5.41,5.41,0,0,1-.9-2.8c0-3.7,3.7-6.2,11-7.5a92.84,92.84,0,0,1,16.7-1.3,32.18,32.18,0,0,1,10.4,1.4c3.4,1.2,5.1,3.2,5.1,6.1a7.46,7.46,0,0,1-1.4,3.7,6.58,6.58,0,0,0-1.4,3.5,7.3,7.3,0,0,0,.7,3.1,57.47,57.47,0,0,0,2.8,5.5c1.6,2.9,3,4.3,4.2,4.3s2.6-1.3,4-3.8a14.92,14.92,0,0,0,2-7.3,6.71,6.71,0,0,0-1.6-4.7q-2.4-2.85-2.4-4.8,0-3.15,4.2-5.1c2.8-1.3,6.6-1.9,11.3-1.9,8.8,0,13.1,2.1,13.1,6.3a5.08,5.08,0,0,1-1.3,3.7,12.73,12.73,0,0,1-4.9,2.6,9.13,9.13,0,0,0-4.7,3.7C804.4,120.89,802.3,125.49,800,131.89Z"/></svg>