<svg id="Layer_1" data-name="Layer 1" xmlns="http://www.w3.org/2000/svg" viewBox="0 0 844.9 246.2"><title>alphabet</title><path d="M107.5,103v65.3c0,11.8-2.4,21.3-7.5,26.4-4.7,4.7-10.6,7.7-12.7,7.7a2.38,2.38,0,0,1-2.3-2.1c0-3.8,12.5-4.8,12.5-26.2V107.9h-11V103Zm-.3-20.8a6.5,6.5,0,1,1-6.5-6.5A6.49,6.49,0,0,1,107.2,82.2Z"/><path d="M185.2,159.7h10.9v4.8H175.3v-7.4c-8.1,6.3-14.8,9.2-21.6,9.2-10.3,0-18.7-6.3-18.7-19.9V107.8H123.4V103H145v42.5c0,10.1,7.1,14.8,13.3,14.8,5.3,0,10.4-2.3,17-7.2V107.9H164V103h21.3v56.7Z"/><path d="M252.2,70.2H240.7V65.4h21.4v94.4h11.5v4.8H237.7c-22,0-33.8-14-33.8-31.5,0-17.2,13.7-31.8,29.9-31.8,6.5,0,11,2,18.4,7.5Zm0,47.2c-4.7-6.6-11-10.4-17.8-10.4-11.3,0-19.6,10.7-19.6,25.2,0,12.1,6.8,27.6,25.2,27.6h12.2V117.4Z"/><path d="M300.4,159.7h11.9v4.8H278.5v-4.8h11.9V107.8H278.5V103h21.9Zm.2-77.5a6.5,6.5,0,1,1-6.5-6.5A6.49,6.49,0,0,1,300.6,82.2Z"/><path d="M370.9,119.5h-2.4c-2.6-9.2-8.9-14.2-17.5-14.2-12.5,0-19.3,10.1-19.3,24.6,0,17.3,9.4,29.6,22.5,29.6,14.8,0,17-6.9,19.2-6.9.8,0,1.2,1.1,1.2,2.6,0,2.7-9.2,11.3-22.2,11.3-22.2,0-31.5-18.9-31.5-33.9,0-15.7,9.5-31.2,30-31.2,6.8,0,11.6,1.5,16,4.8l.8-4.5H371v17.8Z"/><path d="M435.6,162c-4.5,3-7.5,4.4-10.4,4.4-4.2,0-7.7-2.4-11-8.6-10.1,6.9-14.2,8.6-18.6,8.6-7.5,0-14-7.7-14-16.7,0-8.4,5-13.4,15.1-16l16-4.1v-8.3c0-8.9-3.2-12.7-10.9-12.7-5.9,0-11.3,2.9-17,6.2l-1.1-3.5c7.4-7.1,13.6-10.1,20.8-10.1,9.8,0,18.1,6,18.1,20.4v25.9c0,6.3,3.3,12.1,7.8,12.1,1.4,0,2.6-.5,5.1-1.8V162Zm-23-26.8c-15.1,2.1-21.7,6.3-21.7,13.6,0,5.1,4.5,9.2,10,9.2,3.3,0,7.1-1.7,11.8-5.1V135.2Z"/><path d="M474.2,103v4.8H456.9v36.8c0,9.4,3.3,14.9,8.9,14.9,5.3,0,7.4-3.9,9.8-3.9a1.2,1.2,0,0,1,1.1,1.2c0,1.4-5.9,9.5-13.7,9.5-8.4,0-16-5-16-19V107.8h-7.7l17.6-20.2V103Z"/><path d="M515.9,101.2c19.2,0,33.3,13.9,33.3,32.6s-14.2,32.6-33.3,32.6-33.3-13.9-33.3-32.6S496.8,101.2,515.9,101.2Zm0,61.1c13.3,0,22.5-11.8,22.5-28.4,0-16.9-9.2-28.7-22.5-28.7-13.1,0-22.5,11.8-22.5,28.5S502.8,162.3,515.9,162.3Z"/><path d="M568,107.9H556.7V103H578v11.2h.3c3.8-6.8,11.3-13,15.8-13,5,0,9.4,4.8,9.4,6.5,0,2-1.7,7.7-3.5,11.2-3.6-5.7-6.2-7.7-9.5-7.7-4.2,0-9.2,3.9-12.5,10.3v38.3h12v4.8H556.7v-4.8H568Z"/><path d="M633.7,159.7h11.9v4.8H611.8v-4.8h11.9V107.8H611.8V103h21.9v56.7Zm.2-77.5a6.5,6.5,0,1,1-6.5-6.5A6.49,6.49,0,0,1,633.9,82.2Z"/><path d="M665.4,128.2c-1.2,13.3,5.6,32.1,24,32.1,6.6,0,12.2-2.1,20.2-7.2l-1.1,5.6c-7.7,5.4-14.3,7.7-22.6,7.7-18.4,0-31.4-14.5-31.4-34.7,0-18.2,10.9-30.5,27.1-30.5,14.3,0,25,10.7,26.8,27Zm32.3-4.8c-.8-11.9-8.7-18.1-17.5-18.1-8.1,0-14.5,8.6-14.8,18.1Z"/><path d="M722.7,165.8h-3.5V147.6h2.6c1.8,10.4,9.7,14.8,16.7,14.8,6.6,0,12.5-4.7,12.5-10.1,0-13.9-32-13.7-32-33.9,0-9.7,7.7-17,17.9-17,4.5,0,8.3,1.1,13.9,4.1l1.2-3.6h2.7v15.7H752c-2.7-8.1-7.1-12.1-13.9-12.1-6.5,0-10.9,4.4-10.9,9.8,0,14.3,32.4,14.9,32.4,33.5,0,10.1-7.5,17.8-19.9,17.8-5.1,0-9.4-1.4-16.1-5Z"/></svg>