<svg id="Layer_1" data-name="Layer 1" xmlns="http://www.w3.org/2000/svg" viewBox="0 0 700 700"><title>alphabet</title><path d="M366,134a192.41,192.41,0,0,1,82.83,18.8q18.8,8.8,26.14,8.81,5.28,0,17-2.64a37.85,37.85,0,0,1,8.52-.89q15.27,0,26.73,14.1,28.2,34.08,28.2,84.59,0,35.55-24.38,52a52.24,52.24,0,0,1-29.67,8.81q-15,0-24.38-6.46T458.82,288.2q-12.63-23.2-20.56-33.34a94,94,0,0,0-19.38-18.35q-28.5-20-59.63-20-30.25,0-48,21.89T293.46,297q0,50.52,25.55,92.52,34.67,56.1,99.28,56.1a145.65,145.65,0,0,0,47.14-7.93q23.35-7.92,36.28-20.56,11.16-10.58,18.21-10.57,10.27,0,17.62,9.55t7.34,23.05q0,17-10.28,38.19t-24.67,33.19q-6.17,5-25.55,8.81-11.16,2.05-29.67,10.87a206.75,206.75,0,0,1-90.46,20.85q-49.06,0-97.81-22a200.27,200.27,0,0,1-89.59-78.42q-32.31-51.4-32.31-107.5,0-65.2,40.54-119Q220.32,177.48,277,152.8A220.85,220.85,0,0,1,366,134Z"/></svg>