<svg id="Layer_1" data-name="Layer 1" xmlns="http://www.w3.org/2000/svg" viewBox="0 0 844.9 246.2"><title>alphabet</title><path d="M342.3,150.3a25.33,25.33,0,0,1-7.5,9,21.6,21.6,0,0,1-5.9,2.9,28.74,28.74,0,0,1-12,1.4,30.56,30.56,0,0,1-6-1.3,25.37,25.37,0,0,1-11.7-7.6,25.89,25.89,0,0,1-4.2-6.5,36.85,36.85,0,0,1-2.8-9.1,11.53,11.53,0,0,1-.3-2.6c0-2-.5-3.9-.1-5.9a2.15,2.15,0,0,0,0-.8,24.44,24.44,0,0,1,.9-6.6,35.3,35.3,0,0,1,3.6-9,29.92,29.92,0,0,1,7.9-8.7,26.89,26.89,0,0,1,5.5-3.1,34,34,0,0,1,7.1-2,30.57,30.57,0,0,1,7.4-.2,16.74,16.74,0,0,1,4.3,1c1.3.5,2.5,1,3.7,1.6a22.43,22.43,0,0,1,6.2,4.8,32.89,32.89,0,0,1,3.3,4.1l.5.5a13.92,13.92,0,0,0,.1-3.5V102a71.12,71.12,0,0,1,9.5-.1c.3.4.1.9.1,1.4V160a44.77,44.77,0,0,1-.6,6.4,26.42,26.42,0,0,1-1.9,6.8,25.35,25.35,0,0,1-3.5,6.2,39.74,39.74,0,0,1-2.8,3,24.23,24.23,0,0,1-6.6,4.3,35.08,35.08,0,0,1-8.4,2.4,52.51,52.51,0,0,1-11.9.5,30.41,30.41,0,0,1-11.1-2.9A19.67,19.67,0,0,1,296,178a21.81,21.81,0,0,1-2.3-7.9c-.1-.4.1-.7.6-.7h.1l9-.3a2,2,0,0,1,.7.1c.2.9.5,1.8.7,2.7a12.2,12.2,0,0,0,9.2,8.6,21,21,0,0,0,5.6.8,29.36,29.36,0,0,0,10.2-1.5,17,17,0,0,0,9.4-8.1,24.8,24.8,0,0,0,2.4-7.1,44,44,0,0,0,.8-8.9v-4.4C342.4,150.9,342.3,150.6,342.3,150.3Zm.1-20.2a47.48,47.48,0,0,0-.6-5.1,21.31,21.31,0,0,0-2.1-5.8,18.52,18.52,0,0,0-9.6-8.9,21.64,21.64,0,0,0-11-1.3,19.87,19.87,0,0,0-4.8,1.2,17.94,17.94,0,0,0-10,9.5,25.7,25.7,0,0,0-2,7.2,29.66,29.66,0,0,0-.3,4.2c0,1,.1,2.1.2,3.2a29.85,29.85,0,0,0,2.8,11.3,15.74,15.74,0,0,0,8.9,8.1,18.16,18.16,0,0,0,4.6,1.1,20.77,20.77,0,0,0,8.6-.5,19.11,19.11,0,0,0,9.6-6.2,21.24,21.24,0,0,0,4-7A29.93,29.93,0,0,0,342.4,130.1Z"/><path d="M449.3,112.3c1.1-1.3,2.1-2.7,3.2-3.9a21.77,21.77,0,0,1,6.7-5,25.41,25.41,0,0,1,7.7-2.3c1.3-.2,2.7-.1,4.1-.2a25.57,25.57,0,0,1,7.3.8,29.48,29.48,0,0,1,8.1,3.6,27.9,27.9,0,0,1,9.1,9.6,27.41,27.41,0,0,1,3,7.8c.4,1.8.6,3.6,1,5.4.1.3,0,.6.1.9,0,2.3.2,4.7,0,7-.1,1.5-.4,3-.6,4.5a23.93,23.93,0,0,1-1.2,4.6,28.11,28.11,0,0,1-4.1,8.1,29.06,29.06,0,0,1-9.3,8.5,30.21,30.21,0,0,1-17.8,3.5,17.73,17.73,0,0,1-5.4-1.3c-5.1-1.9-8.7-5.6-11.4-10.1a4.35,4.35,0,0,1-.4-.7.31.31,0,0,1-.2-.1c-.3.2-.2.6-.2.9v9.6h-9.4a.1.1,0,0,1-.1-.1V70.8c0-.1.1-.1.2-.3,3,.1,6.1-.1,9.4.1v41.6A.31.31,0,0,0,449.3,112.3Zm40,20.6a23,23,0,0,0-.7-7.4c-.9-3.8-2.3-7.4-5.2-10.2a30.71,30.71,0,0,0-3.4-2.9,19.58,19.58,0,0,0-7.1-2.6,21.61,21.61,0,0,0-8.4.2,19.2,19.2,0,0,0-10,6,21.08,21.08,0,0,0-4.7,9.3,30.36,30.36,0,0,0-.9,8.5,28.83,28.83,0,0,0,2,10.1,19.75,19.75,0,0,0,9.6,10.7,20.1,20.1,0,0,0,8,2,20.67,20.67,0,0,0,4.3-.2,17.82,17.82,0,0,0,9.2-4.3c3.6-3.3,5.5-7.5,6.6-12.2A19.87,19.87,0,0,0,489.3,132.9Z"/><path d="M243.1,144.8c3.3.5,6.5.9,9.7,1.5a14.62,14.62,0,0,1-1.4,3.1,33.25,33.25,0,0,1-6.9,8.9,29.21,29.21,0,0,1-7,4.6,35.39,35.39,0,0,1-8.3,2.3,15.06,15.06,0,0,1-3,.1h-4a39.67,39.67,0,0,1-4.8-.7,41.62,41.62,0,0,1-5-1.6,24.48,24.48,0,0,1-7.6-5,27.88,27.88,0,0,1-7.1-10.8,26.82,26.82,0,0,1-1.7-6.9,47.78,47.78,0,0,1-.2-10,39.14,39.14,0,0,1,1.4-7.6,41.89,41.89,0,0,1,2.6-7,28,28,0,0,1,11.1-12,26.57,26.57,0,0,1,7.7-2.9,31.09,31.09,0,0,1,10.1-.5,30.58,30.58,0,0,1,11,3,25.53,25.53,0,0,1,10.6,10,35.82,35.82,0,0,1,3.6,9.6c.3,1.2.4,2.5.6,3.8a47.06,47.06,0,0,1,.3,7.5c0,.8-.1.9-.9.9H206.3a5.36,5.36,0,0,0-.1,2.8,24.73,24.73,0,0,0,.5,3.8,20.3,20.3,0,0,0,1.7,4.9,18,18,0,0,0,11.3,9.5,19.53,19.53,0,0,0,6.8.8,18.8,18.8,0,0,0,10.9-3.9,19.24,19.24,0,0,0,5.3-6.7A2.28,2.28,0,0,1,243.1,144.8Zm.9-17.7a8.62,8.62,0,0,0-.1-1.7,26.92,26.92,0,0,0-3.1-8.6,16.08,16.08,0,0,0-8.5-6.9,20.37,20.37,0,0,0-8.8-1.1,17.89,17.89,0,0,0-14.9,9.8,21.14,21.14,0,0,0-2.2,6.4c-.3,2.1-.4,2.1,1.7,2.1H244Z"/><path d="M420.8,163.7h-9.5V128.1a56.33,56.33,0,0,0-.3-5.8,15,15,0,0,0-3.7-8.9,10.38,10.38,0,0,0-6.1-3.4,15,15,0,0,0-3.7-.5,16.33,16.33,0,0,0-12.7,5.9,18.91,18.91,0,0,0-4.1,9.1,34.41,34.41,0,0,0-.4,6.4v32.5a56.15,56.15,0,0,1-9.4.1l-.1-.1-.1-.1V70.8c0-.1.1-.2.1-.3a4.33,4.33,0,0,1,.5-.1h7.9c1,0,1,.1,1,1.1v39.1a2.2,2.2,0,0,0,.2,1.4c.8-1.2,1.6-2.4,2.4-3.5a18.21,18.21,0,0,1,7.9-6.1,21,21,0,0,1,7-1.6c1.3,0,2.6-.1,3.8,0a20.28,20.28,0,0,1,13,5.2,18.21,18.21,0,0,1,5.3,8.8,24.85,24.85,0,0,1,.8,6.6v41.1A2.74,2.74,0,0,1,420.8,163.7Z"/><path d="M543.4,165.3h-1.6a32.07,32.07,0,0,1-11.4-2.2,26.75,26.75,0,0,1-10.3-6.9,30.29,30.29,0,0,1-5.5-8.5,22.86,22.86,0,0,1-1.8-5.6c-.4-2.1-.8-4.2-1-6.4a31.26,31.26,0,0,1,0-5.3,31.16,31.16,0,0,1,.5-4.4,33.8,33.8,0,0,1,1.8-6.2A32.7,32.7,0,0,1,522,108a29,29,0,0,1,9-5.6,43.45,43.45,0,0,1,8.6-2.2,33.81,33.81,0,0,1,4.5-.1,33.62,33.62,0,0,1,15.2,3.4,27.39,27.39,0,0,1,7.7,5.8,30.13,30.13,0,0,1,4.9,7.3,35.33,35.33,0,0,1,2.8,8.5,36.49,36.49,0,0,1,.7,9.3,42.09,42.09,0,0,1-.9,6.2A32.32,32.32,0,0,1,569,153a29,29,0,0,1-16.3,11.1A24.59,24.59,0,0,1,543.4,165.3Zm-21.3-32.4a27.3,27.3,0,0,0,1.1,8.2,21.34,21.34,0,0,0,7.7,11.8,20.58,20.58,0,0,0,11.2,4,24.32,24.32,0,0,0,4.7-.2,20,20,0,0,0,6.2-1.8,20.24,20.24,0,0,0,7.5-6.1,18.56,18.56,0,0,0,2.5-4.6,22.28,22.28,0,0,0,1.5-5.2c.2-1.7.5-3.4.6-5.1a28.4,28.4,0,0,0-1.3-10,21.76,21.76,0,0,0-2.5-5.6,20.21,20.21,0,0,0-4.3-4.9,17.56,17.56,0,0,0-5.1-3,22.22,22.22,0,0,0-10.2-1.4,25.54,25.54,0,0,0-5.5,1.1c-5.9,2-9.8,6.2-12.2,11.8A28.63,28.63,0,0,0,522.1,132.9Z"/><path d="M130,101.9c.4,0,.7-.1,1-.1h8.2c.2.1.4.3.4.4a2.72,2.72,0,0,1,0,.9v9c.1,0,.1.1.2.1.3-.5.7-1,1-1.6a19.74,19.74,0,0,1,11.5-8.9,25.82,25.82,0,0,1,8.7-.9,20.52,20.52,0,0,1,10.7,3.4,17.61,17.61,0,0,1,7.6,10.7,28.47,28.47,0,0,1,.9,7.7v40.9c-.3,0-.5.1-.8.1h-8.3a.53.53,0,0,1-.6-.6V127.2c0-1.4,0-2.7-.1-4.1a17.1,17.1,0,0,0-2.5-8.2,11.44,11.44,0,0,0-7.6-5.2,16,16,0,0,0-13.8,3.3,15.83,15.83,0,0,0-5.5,7.9,26.35,26.35,0,0,0-1.3,8.4v34.1a72.35,72.35,0,0,1-9.5.1l-.1-.1-.1-.1V101.9Z"/><path d="M655.3,102a78.32,78.32,0,0,1,10.9-.1l18.9,51c.4-.1.5-.5.7-.9,1.3-3.7,2.7-7.3,4-11,1.2-3.3,2.5-6.6,3.7-10,1.2-3.2,2.4-6.3,3.5-9.5,2-5.3,3.9-10.5,5.9-15.8.4-1,.7-2.1,1.1-3.1a4.05,4.05,0,0,1,.5-.9H715a8.4,8.4,0,0,0-.4,1.2c-1.2,2.9-2.3,5.8-3.5,8.6-1.2,3-2.5,5.9-3.7,8.9-1.7,4.1-3.3,8.1-5,12.2-1.1,2.7-2.2,5.3-3.3,8s-2.2,5.3-3.2,7.9-2.1,5-3.1,7.5c-.9,2.2-1.7,4.3-2.6,6.5-1,2.4-2,4.8-3.1,7.3-1.1,2.7-2.3,5.5-3.4,8.3-1.1,2.6-2.1,5.2-3.2,7.8-.4,1-.8,2-1.2,3.1a1,1,0,0,1-1,.7h-9.7c.1-.4.2-.8.3-1.1,1.6-3.7,3.3-7.5,4.9-11.2,1.2-2.7,2.3-5.5,3.5-8.2.8-1.9,1.7-3.8,2.5-5.6a2.33,2.33,0,0,0,0-2c-2.6-6.2-5.2-12.5-7.8-18.7l-4.2-10.2c-1.4-3.4-2.8-6.7-4.2-10.1-1.2-2.8-2.3-5.6-3.4-8.4s-2.3-5.4-3.4-8.1C656.3,104.7,655.8,103.4,655.3,102Z"/><path d="M634.8,70.7a4.33,4.33,0,0,1,.5-.1h7.9c1,0,1,.1,1.1,1v91.9a72.4,72.4,0,0,1-9.4.1l-.1-.1V71C634.6,70.9,634.7,70.8,634.8,70.7Z"/><path d="M621.6,101v9.9c-.4,0-.7.1-1,.1h-3.3a22,22,0,0,0-6.2,1.2,14.61,14.61,0,0,0-6.7,5.3,21.83,21.83,0,0,0-3.2,8.1,41.73,41.73,0,0,0-.8,8.6v29.4h-9.5c-.2-1.1-.3-60-.1-61.7.2,0,.5-.1.7-.1h7.7c.9,0,1,.1,1,1v12.5a3,3,0,0,0,.9-1.5,30,30,0,0,1,3.3-5.8,16.26,16.26,0,0,1,10.6-6.8,53.34,53.34,0,0,1,5.7-.2C620.9,100.9,621.2,101,621.6,101Z"/><path d="M276.8,163.7h-9.7c0-.5-.1-1-.1-1.4V103.5c0-1.9-.1-1.7,1.7-1.7h7.7c.1.1.1.1.2.1l.1.1v.7Q276.85,133.15,276.8,163.7Z"/><path d="M279.2,78a7.3,7.3,0,1,1-14.6-.1,7,7,0,0,1,7.3-7.2A7.15,7.15,0,0,1,279.2,78Z"/></svg>