<svg id="Layer_1" data-name="Layer 1" xmlns="http://www.w3.org/2000/svg" viewBox="0 0 844.9 246.2"><title>alphabet</title><path d="M88.8,81.5c0-7.3-1.8-11.2-8-13.7v-.3H100v82.1c0,7.3,1.8,11.2,8,13.7v.3H88.8V146.3c-2.6,9.9-11.2,18.6-23.2,18.6C49.8,164.9,37,153.1,37,133s12.8-33,28.6-33c12.1,0,20.7,8.7,23.2,18.6Zm0,55.7v-9.4c0-14-10.3-22.3-19.5-22.3-12.2,0-19.9,10.9-19.9,27.5,0,16.4,7.7,26.4,19.9,26.4C78.6,159.4,88.8,151.2,88.8,137.2Z"/><path d="M171.4,129.9H126.5c0,17.1,8.6,29.1,23,29.1,9.6,0,17.8-5.1,21.6-15.8l.8.3c-2.4,13.7-12.4,21.4-26.6,21.4-16.4,0-30.3-11.9-30.3-32.5,0-19.2,13.7-32.5,29.9-32.5C163.4,100,171.4,112.3,171.4,129.9Zm-12.1-2.7c0-13.1-2.3-24.6-14.5-24.6-9.1,0-17.3,9.5-18,24.6Z"/><path d="M193.1,131.7c0,17.3,9.4,27.5,21.3,27.5,10.1,0,18.2-5.3,21.9-15.9l.8.3c-2.4,13.7-12.6,21.4-26.4,21.4-14.9,0-30-11-30-31.3,0-20.9,15.1-33.6,32.5-33.6,13.9,0,22.6,7.4,22.6,15.8a9.16,9.16,0,0,1-9.5,9.6c-4.5,0-7.8-2.8-7.8-5.9a7,7,0,0,0,2.3.4c3.6,0,5.9-2.6,5.9-6.9,0-5.6-4-10.4-13.5-10.4C201.1,102.6,193.1,114.9,193.1,131.7Z"/><path d="M307.7,159.3c-2.2,3.1-6.3,5.4-11.5,5.4-6.9,0-10.8-4.5-11.4-11.3,0-.5-.3-4.7-.3-6.2-1.4,9-10.6,17.3-21.4,17.3-10.1,0-18.2-5.1-18.2-15.9,0-13.7,14.5-16.9,29.8-19.8l9.8-1.8v-7.3c0-9.4-4.4-17.3-14.9-17.3-9.5,0-13.1,4.9-13.1,10.5,0,4,2.3,6.8,5.9,6.8a3.53,3.53,0,0,0,1.7-.4c-.6,3.8-3.6,5.8-7.3,5.8-5.3,0-9.4-3.5-9.4-9.4,0-8.3,9-15.8,22.2-15.8,16.7,0,26.7,6.4,26.7,21.7,0,11.4-.4,19.9-.4,27.7,0,7.1,2.7,10.6,8.1,10.6a7.66,7.66,0,0,0,3.8-1v.4Zm-32-28.1c-12.7,2.4-18.9,7.1-18.9,16.2,0,8.5,4.7,11.5,10.9,11.5,8.1,0,16-6.8,16.3-18.7l.3-10.6Z"/><path d="M328.2,178.5c0,8.5,1.2,11.2,7.3,13.7v.3H309.6v-.3c6.2-2.6,7.3-5.3,7.3-13.7V115.3c0-7.3-1.8-11.2-8-13.7v-.3h19.2v17.3c2.6-9.9,11.2-18.6,23.2-18.6,15.8,0,28.6,11.8,28.6,31.9s-12.8,33-28.6,33c-12.1,0-20.7-8.7-23.2-18.6v32.2Zm0-50.8v9.4c0,14,10.3,22.3,19.5,22.3,12.2,0,19.9-10.9,19.9-27.5,0-16.4-7.7-26.4-19.9-26.4C338.5,105.5,328.2,113.7,328.2,127.7Z"/><path d="M406.6,149.6c0,8.5,1.2,11.2,7.3,13.7v.3H388v-.3c6.2-2.6,7.3-5.3,7.3-13.7V115.2c0-7.3-1.8-11.2-8-13.7v-.3h19.2v48.4Zm-6.4-78.2a8,8,0,1,1-8.1,8A7.92,7.92,0,0,1,400.2,71.4Z"/><path d="M460.2,143.5c-1,12.3-5.6,21.4-17.2,21.4-10,0-16.3-6.3-16.3-18.7V104.6h-9v-.8c10.8-2.2,17.4-11.9,19.2-24.6h1v22.1h20l-.6,3.3H438v41.2c0,8.3,3.1,12.6,8.9,12.6,6.3,0,10.6-5.3,12.3-14.9Z"/><path d="M530.3,159.3c-2.2,3.1-6.3,5.4-11.5,5.4-6.9,0-10.8-4.5-11.4-11.3,0-.5-.3-4.7-.3-6.2-1.4,9-10.6,17.3-21.4,17.3-10.1,0-18.2-5.1-18.2-15.9,0-13.7,14.5-16.9,29.8-19.8l9.8-1.8v-7.3c0-9.4-4.4-17.3-14.9-17.3-9.5,0-13.1,4.9-13.1,10.5,0,4,2.3,6.8,5.9,6.8a3.53,3.53,0,0,0,1.7-.4c-.6,3.8-3.6,5.8-7.3,5.8-5.3,0-9.4-3.5-9.4-9.4,0-8.3,9-15.8,22.2-15.8,16.7,0,26.7,6.4,26.7,21.7,0,11.4-.4,19.9-.4,27.7,0,7.1,2.7,10.6,8.1,10.6a7.66,7.66,0,0,0,3.8-1v.4Zm-32-28.1c-12.7,2.4-18.9,7.1-18.9,16.2,0,8.5,4.7,11.5,10.9,11.5,8.1,0,16-6.8,16.3-18.7l.3-10.6Z"/><path d="M572,143.5c-1,12.3-5.6,21.4-17.2,21.4-10,0-16.3-6.3-16.3-18.7V104.6h-9v-.8c10.8-2.2,17.4-11.9,19.2-24.6h1v22.1h20l-.6,3.3H549.7v41.2c0,8.3,3.1,12.6,8.9,12.6,6.3,0,10.6-5.3,12.3-14.9Z"/><path d="M597.1,149.6c0,8.5,1.2,11.2,7.3,13.7v.3H578.5v-.3c6.2-2.6,7.3-5.3,7.3-13.7V115.2c0-7.3-1.8-11.2-8-13.7v-.3H597v48.4Zm-6.4-78.2a8,8,0,1,1-8.1,8A7.92,7.92,0,0,1,590.7,71.4Z"/><path d="M611.3,132.5c0-18.7,13.1-32.5,31.4-32.5s31.4,13.7,31.4,32.5S661,165,642.7,165,611.3,151.2,611.3,132.5Zm50.2,0c0-16.7-6.9-29.9-18.7-29.9S624,115.8,624,132.5s6.9,29.9,18.7,29.9S661.5,149.1,661.5,132.5Z"/><path d="M700.8,101.3v17.8c3.5-12.1,11.5-19.1,22.6-19.1,11.8,0,20,7.6,20,22.3v27.3c0,8.5,1.2,11.2,7.3,13.7v.3H724.8v-.3c6.2-2.6,7.3-5.3,7.3-13.7V123.3c0-9.1-3.5-16.9-13.6-16.9-10.3,0-17.7,9.8-17.7,24.4v18.9c0,8.5,1.2,11.2,7.3,13.7v.3H682.2v-.3c6.2-2.6,7.3-5.3,7.3-13.7V115.3c0-7.3-1.8-11.2-8-13.7v-.3Z"/><path d="M768.6,113.6c0,6.3,2.4,9.4,15.5,12.4,17.1,4,23,9.8,23,20,0,12.7-11.3,18.9-23.2,18.9-8.9,0-14.2-3.3-18.2-3.3-2.4,0-4,1.5-5.5,3.3l-1.4-24.4h.3c5.5,13.3,13.1,21.8,24.9,21.8,7.7,0,14-4.7,14-12.8,0-7.6-6.9-10.3-18.1-12.8-14.8-3.5-20-9.6-20-19.2,0-11.3,10-17.4,21-17.4,8,0,11.9,3.5,16.3,3.5,2.4,0,4.2-1.5,6.4-3.5v21.2h-.3c-4.6-10.3-12.2-18.6-22.5-18.6C772.9,102.6,768.6,107.7,768.6,113.6Z"/></svg>