<svg id="Layer_1" data-name="Layer 1" xmlns="http://www.w3.org/2000/svg" viewBox="0 0 700 700"><title>alphabet</title><path d="M227,248.33c2,0,3.44-.49,4.92-.49h40.35c1,.49,2,1.48,2,2,.49,1.48,0,2.95,0,4.43v44.28c.49,0,.49.49,1,.49,1.48-2.46,3.44-4.92,4.92-7.87,13.28-21.65,32-36.41,56.58-43.79,14.27-4.43,28.54-4.92,42.81-4.43,19.19.49,36.41,6.4,52.65,16.73,19.68,12.79,31.49,30.51,37.39,52.65C473,324.6,474,337.39,474,350.19V551.43c-1.48,0-2.46.49-3.94.49H429.23a2.62,2.62,0,0,1-3-2.95V372.82c0-6.89,0-13.29-.49-20.17-1-14.27-4.43-28-12.3-40.35-8.86-13.78-21.16-22.14-37.39-25.59-25.1-5.41-47.73.5-67.9,16.24a77.86,77.86,0,0,0-27.07,38.87,129.89,129.89,0,0,0-6.39,41.33V550.93c-4.92,1-35.92,1.48-46.75.5l-.49-.5-.49-.49V248.33Z"/></svg>