<?xml version="1.0" encoding="utf-8"?>
<!-- Generator: Adobe Illustrator 21.1.0, SVG Export Plug-In . SVG Version: 6.00 Build 0)  -->
<svg version="1.1" id="Layer_1" xmlns="http://www.w3.org/2000/svg" xmlns:xlink="http://www.w3.org/1999/xlink" x="0px" y="0px"
	 viewBox="0 0 1205.1 199.3" style="enable-background:new 0 0 1205.1 199.3;" xml:space="preserve">
<style type="text/css">
	.st0{fill:#92CBF7;}
	.st1{fill:#C4E9FF;}
</style>
<g>
	<path class="st0" d="M1177.5,12.1c-10-0.4-19.9-1-29.9-1.2c-19.8-0.4-39.6-0.5-59.3-0.9c-10.2-0.2-19.8,1.5-28.4,7.6
		c-18,12.8-38,21.7-58.3,30.3c-13.9,5.9-28.5,7.6-43.2,8.4c-32.1,1.8-64.3,2.9-96.4,4.7c-36.2,2.1-72.5,4.5-108.7,6.9
		c-28,1.8-56,3.7-84,5.5C613,77.2,556.8,81,500.6,84.7c-43.4,2.8-86.8,5.5-130.3,8.2c-55.6,3.3-111.2,6.7-166.8,9.7
		c-53,2.8-106,5.3-159,7.8c-29.5,1.4-59.1,2.5-88.7,3.7c-1.4,0.1-2.9,0.3-4.9,0.6c0.8,2.3,1.3,4.1,2.1,5.8
		c12.8,28.1,25.8,56.1,38.3,84.2c2,4.4,4.4,5,8.5,4.6c32-3.3,64-6.6,96-9.7c39.6-3.8,79.2-7.5,118.8-11.2
		c39.4-3.7,78.8-7.6,118.2-11.3c34-3.2,68-6.2,101.9-9.4c35.3-3.3,70.6-6.7,105.8-10c39.6-3.7,79.2-7.2,118.8-11
		c32.5-3.1,64.9-6.1,97.3-9.6c35.9-3.9,71.7-8.1,107.5-12.6c29.7-3.8,59.4-8.2,89.1-12.3c6-0.8,12.1-1.3,18.2-1.8
		c8.2-0.6,15.3,1.2,22.4,6.4c16,11.8,36.8,10.9,53-0.8c1.6-1.1,3.2-2.1,3.3-2.2c6.2,4.3,11.3,10.2,17.2,11.3
		c6.4,1.2,13.8-1.7,20.5-3.8c2.6-0.8,4.3-4.6,6.5-6.8c1.5-1.5,3-3.4,4.9-4c6.1-1.9,10.4-5.6,10.5-11.8c0.1-7.5,4.8-11.1,9.6-15.1
		c2.5-2.1,5.3-3.9,7.4-6.4c7.3-8.4,6.3-16.5-2.2-23.8c-4-3.4-7.6-7.4-11.9-11.5c15.7-3.1,30.1-6.3,44.6-8.5
		c7.7-1.1,15.6-0.3,23.4-0.4c8.4-0.1,15.1-5.5,15.4-12.9c0.1-2.3-1.9-4.6-2.9-7c-1.1,3.8,0.3,9.1-6.2,9.4
		C1179.2,23,1177.3,21.1,1177.5,12.1z"/>
</g>
<path class="st1" d="M1177.5,12.1c-0.1,9,1.7,10.9,9.4,10.5c6.6-0.3,5.1-5.6,6.2-9.4C1187.9,12.8,1182.7,12.5,1177.5,12.1z"/>
</svg>
