<?xml version="1.0" encoding="utf-8"?>
<!-- Generator: Adobe Illustrator 21.1.0, SVG Export Plug-In . SVG Version: 6.00 Build 0)  -->
<svg version="1.1" id="Layer_1" xmlns="http://www.w3.org/2000/svg" xmlns:xlink="http://www.w3.org/1999/xlink" x="0px" y="0px"
	 viewBox="0 0 1035.9 488.4" style="enable-background:new 0 0 1035.9 488.4;" xml:space="preserve">
<style type="text/css">
	.st0{fill:#490017;}
	.st1{fill:#87183A;}
</style>
<g>
	<path class="st0" d="M15.5,165.9c-3.7-4-3.6-7.4,0.8-10.2c2.9-1.8,6.3-3.4,9.6-3.9c10.5-1.4,21.1-2.8,31.7-3
		c18.8-0.4,31.2-10.1,39.7-25.8c1.8-3.4,2.9-13.9-0.2-19.8c-3.1-5.8-10.2-11.3-13.1-12.7c-5.1-2.4-9.9-5.3-14.6-8.5
		c-2.8-1.9-5.3-2.9-8.7-2.4c-10,1.4-20.1,2.8-30.1,3.7c-4.4,0.4-8.9-0.3-13.4-0.8c-1.4-0.1-2.9-1-4-1.8c-2.3-1.8-2-3.6,0.7-4.8
		c4.6-2,9.1-4.1,13.9-5.4c9.9-2.7,20-4.9,30-7.3c1.3-0.3,2.5-1.2,3.8-1.8c-1.1-0.7-2.2-1.4-3.3-2c-5.9-3.1-11.8-6.2-16.4-11.2
		c-0.8-0.9-2.6-1-4-1.3c-3.2-0.8-6.7-0.9-9.5-2.3c-2.3-1.2-4.5-3.6-5.4-6.1c-1.8-4.7-0.1-6.8,5-6.6c4.3,0.1,8.6,0.6,12.9,0.8
		c1.3,0.1,2.6-0.1,4-0.2c-1-0.7-2-1.6-3.1-2.2c-3.2-1.7-6.5-3.4-9.8-5c-4.9-2.4-6.7-6.6-7.1-11.8c-0.2-2,0.3-3.3,2.7-2.9
		c1.1,0.2,2.3,0.2,3.4,0.6C48,16.9,64.9,22.7,81,30.8c6.7,3.4,12.2,6.9,16.8,13.1c4.4,6,8.9,12,13,18.2c3,4.7,6.9,9,11.1,12.7
		c6.6,5.7,11.2,12.5,14.9,20.3c4.5,9.4,9.7,18.5,14.6,27.8c5.3,9.9,13.8,16.4,23.3,22c11.6,6.8,24.4,10.5,37.3,13.8
		c45.6,11.4,835.4,188,832.9,191.3c38.5,19.2,81.2,154.9-10.9,131.9c-134.7-33.7-773.9-253.2-814.1-267.8
		c-13.1-4.8-26.3-9.4-39.4-14.3c-11.8-4.5-24-6.7-36.5-6.9c-11.5-0.2-21.8-4.3-31.6-9.8c-2-1.1-4.1-2.3-6-3.6
		c-12.5-8.5-26.2-12-41.2-10.6c-11.8,1.1-23.6,1.3-35.4-0.4c-0.1-1.8,0-3.6-0.2-5.5c-0.3-3.4-3-5.3-7.2-5.2c-4.1,0.1-5.4,1.3-5.9,5
		C16.4,163.9,15.8,164.9,15.5,165.9z"/>
	<path class="st1" d="M15.5,165.9c0.4-1,0.9-2,1-3.1c0.5-3.7,1.8-4.9,5.9-5c4.2-0.1,6.8,1.8,7.2,5.2c0.2,1.8,0.1,3.6,0.2,5.5
		C24.8,168.7,19.9,168.8,15.5,165.9z"/>
</g>
</svg>
