<?xml version="1.0" encoding="utf-8"?>
<!-- Generator: Adobe Illustrator 22.0.0, SVG Export Plug-In . SVG Version: 6.00 Build 0)  -->
<svg version="1.1" id="Layer_1" xmlns="http://www.w3.org/2000/svg" xmlns:xlink="http://www.w3.org/1999/xlink" x="0px" y="0px"
	 viewBox="0 0 33.4 1461.5" style="enable-background:new 0 0 33.4 1461.5;" xml:space="preserve">
<style type="text/css">
	.st0{fill:#362B9B;}
</style>
<g>
	<g>
		<g>
			<path class="st0" d="M16.5,7.5C15.1,7.5,14,6.4,14,5V0c0-1.4,1.1-2.5,2.5-2.5S19-1.4,19,0v5C19,6.4,17.9,7.5,16.5,7.5z"/>
		</g>
		<g>
			<path class="st0" d="M16.5,1439.2c-1.4,0-2.5-1.1-2.5-2.5v-9.9c0-1.4,1.1-2.5,2.5-2.5s2.5,1.1,2.5,2.5v9.9
				C19,1438,17.9,1439.2,16.5,1439.2z M16.5,1409.3c-1.4,0-2.5-1.1-2.5-2.5v-9.9c0-1.4,1.1-2.5,2.5-2.5s2.5,1.1,2.5,2.5v9.9
				C19,1408.2,17.9,1409.3,16.5,1409.3z M16.5,1379.5c-1.4,0-2.5-1.1-2.5-2.5v-9.9c0-1.4,1.1-2.5,2.5-2.5s2.5,1.1,2.5,2.5v9.9
				C19,1378.4,17.9,1379.5,16.5,1379.5z M16.5,1349.7c-1.4,0-2.5-1.1-2.5-2.5v-9.9c0-1.4,1.1-2.5,2.5-2.5s2.5,1.1,2.5,2.5v9.9
				C19,1348.6,17.9,1349.7,16.5,1349.7z M16.5,1319.9c-1.4,0-2.5-1.1-2.5-2.5v-9.9c0-1.4,1.1-2.5,2.5-2.5s2.5,1.1,2.5,2.5v9.9
				C19,1318.7,17.9,1319.9,16.5,1319.9z M16.5,1290c-1.4,0-2.5-1.1-2.5-2.5v-9.9c0-1.4,1.1-2.5,2.5-2.5s2.5,1.1,2.5,2.5v9.9
				C19,1288.9,17.9,1290,16.5,1290z M16.5,1260.2c-1.4,0-2.5-1.1-2.5-2.5v-9.9c0-1.4,1.1-2.5,2.5-2.5s2.5,1.1,2.5,2.5v9.9
				C19,1259.1,17.9,1260.2,16.5,1260.2z M16.5,1230.4c-1.4,0-2.5-1.1-2.5-2.5v-9.9c0-1.4,1.1-2.5,2.5-2.5s2.5,1.1,2.5,2.5v9.9
				C19,1229.3,17.9,1230.4,16.5,1230.4z M16.5,1200.6c-1.4,0-2.5-1.1-2.5-2.5v-9.9c0-1.4,1.1-2.5,2.5-2.5s2.5,1.1,2.5,2.5v9.9
				C19,1199.4,17.9,1200.6,16.5,1200.6z M16.5,1170.7c-1.4,0-2.5-1.1-2.5-2.5v-9.9c0-1.4,1.1-2.5,2.5-2.5s2.5,1.1,2.5,2.5v9.9
				C19,1169.6,17.9,1170.7,16.5,1170.7z M16.5,1140.9c-1.4,0-2.5-1.1-2.5-2.5v-9.9c0-1.4,1.1-2.5,2.5-2.5s2.5,1.1,2.5,2.5v9.9
				C19,1139.8,17.9,1140.9,16.5,1140.9z M16.5,1111.1c-1.4,0-2.5-1.1-2.5-2.5v-9.9c0-1.4,1.1-2.5,2.5-2.5s2.5,1.1,2.5,2.5v9.9
				C19,1110,17.9,1111.1,16.5,1111.1z M16.5,1081.3c-1.4,0-2.5-1.1-2.5-2.5v-9.9c0-1.4,1.1-2.5,2.5-2.5s2.5,1.1,2.5,2.5v9.9
				C19,1080.1,17.9,1081.3,16.5,1081.3z M16.5,1051.4c-1.4,0-2.5-1.1-2.5-2.5v-9.9c0-1.4,1.1-2.5,2.5-2.5s2.5,1.1,2.5,2.5v9.9
				C19,1050.3,17.9,1051.4,16.5,1051.4z M16.5,1021.6c-1.4,0-2.5-1.1-2.5-2.5v-9.9c0-1.4,1.1-2.5,2.5-2.5s2.5,1.1,2.5,2.5v9.9
				C19,1020.5,17.9,1021.6,16.5,1021.6z M16.5,991.8c-1.4,0-2.5-1.1-2.5-2.5v-9.9c0-1.4,1.1-2.5,2.5-2.5s2.5,1.1,2.5,2.5v9.9
				C19,990.7,17.9,991.8,16.5,991.8z M16.5,961.9c-1.4,0-2.5-1.1-2.5-2.5v-9.9c0-1.4,1.1-2.5,2.5-2.5s2.5,1.1,2.5,2.5v9.9
				C19,960.8,17.9,961.9,16.5,961.9z M16.5,932.1c-1.4,0-2.5-1.1-2.5-2.5v-9.9c0-1.4,1.1-2.5,2.5-2.5s2.5,1.1,2.5,2.5v9.9
				C19,931,17.9,932.1,16.5,932.1z M16.5,902.3c-1.4,0-2.5-1.1-2.5-2.5v-9.9c0-1.4,1.1-2.5,2.5-2.5s2.5,1.1,2.5,2.5v9.9
				C19,901.2,17.9,902.3,16.5,902.3z M16.5,872.5c-1.4,0-2.5-1.1-2.5-2.5v-10c0-1.4,1.1-2.5,2.5-2.5s2.5,1.1,2.5,2.5v9.9
				C19,871.4,17.9,872.5,16.5,872.5z M16.5,842.6c-1.4,0-2.5-1.1-2.5-2.5v-9.9c0-1.4,1.1-2.5,2.5-2.5s2.5,1.1,2.5,2.5v9.9
				C19,841.5,17.9,842.6,16.5,842.6z M16.5,812.8c-1.4,0-2.5-1.1-2.5-2.5v-9.9c0-1.4,1.1-2.5,2.5-2.5s2.5,1.1,2.5,2.5v9.9
				C19,811.7,17.9,812.8,16.5,812.8z M16.5,783c-1.4,0-2.5-1.1-2.5-2.5v-9.9c0-1.4,1.1-2.5,2.5-2.5s2.5,1.1,2.5,2.5v9.9
				C19,781.9,17.9,783,16.5,783z M16.5,753.2c-1.4,0-2.5-1.1-2.5-2.5v-9.9c0-1.4,1.1-2.5,2.5-2.5s2.5,1.1,2.5,2.5v9.9
				C19,752,17.9,753.2,16.5,753.2z M16.5,723.3c-1.4,0-2.5-1.1-2.5-2.5v-9.9c0-1.4,1.1-2.5,2.5-2.5s2.5,1.1,2.5,2.5v9.9
				C19,722.2,17.9,723.3,16.5,723.3z M16.5,693.5c-1.4,0-2.5-1.1-2.5-2.5v-9.9c0-1.4,1.1-2.5,2.5-2.5s2.5,1.1,2.5,2.5v9.9
				C19,692.4,17.9,693.5,16.5,693.5z M16.5,663.7c-1.4,0-2.5-1.1-2.5-2.5v-9.9c0-1.4,1.1-2.5,2.5-2.5s2.5,1.1,2.5,2.5v9.9
				C19,662.6,17.9,663.7,16.5,663.7z M16.5,633.9c-1.4,0-2.5-1.1-2.5-2.5v-9.9c0-1.4,1.1-2.5,2.5-2.5s2.5,1.1,2.5,2.5v9.9
				C19,632.7,17.9,633.9,16.5,633.9z M16.5,604c-1.4,0-2.5-1.1-2.5-2.5v-9.9c0-1.4,1.1-2.5,2.5-2.5s2.5,1.1,2.5,2.5v9.9
				C19,602.9,17.9,604,16.5,604z M16.5,574.2c-1.4,0-2.5-1.1-2.5-2.5v-9.9c0-1.4,1.1-2.5,2.5-2.5s2.5,1.1,2.5,2.5v9.9
				C19,573.1,17.9,574.2,16.5,574.2z M16.5,544.4c-1.4,0-2.5-1.1-2.5-2.5V532c0-1.4,1.1-2.5,2.5-2.5s2.5,1.1,2.5,2.5v9.9
				C19,543.3,17.9,544.4,16.5,544.4z M16.5,514.6c-1.4,0-2.5-1.1-2.5-2.5v-9.9c0-1.4,1.1-2.5,2.5-2.5s2.5,1.1,2.5,2.5v9.9
				C19,513.4,17.9,514.6,16.5,514.6z M16.5,484.7c-1.4,0-2.5-1.1-2.5-2.5v-9.9c0-1.4,1.1-2.5,2.5-2.5s2.5,1.1,2.5,2.5v9.9
				C19,483.6,17.9,484.7,16.5,484.7z M16.5,454.9c-1.4,0-2.5-1.1-2.5-2.5v-9.9c0-1.4,1.1-2.5,2.5-2.5s2.5,1.1,2.5,2.5v9.9
				C19,453.8,17.9,454.9,16.5,454.9z M16.5,425.1c-1.4,0-2.5-1.1-2.5-2.5v-9.9c0-1.4,1.1-2.5,2.5-2.5s2.5,1.1,2.5,2.5v9.9
				C19,424,17.9,425.1,16.5,425.1z M16.5,395.3c-1.4,0-2.5-1.1-2.5-2.5v-9.9c0-1.4,1.1-2.5,2.5-2.5s2.5,1.1,2.5,2.5v9.9
				C19,394.1,17.9,395.3,16.5,395.3z M16.5,365.4c-1.4,0-2.5-1.1-2.5-2.5V353c0-1.4,1.1-2.5,2.5-2.5s2.5,1.1,2.5,2.5v9.9
				C19,364.3,17.9,365.4,16.5,365.4z M16.5,335.6c-1.4,0-2.5-1.1-2.5-2.5v-9.9c0-1.4,1.1-2.5,2.5-2.5s2.5,1.1,2.5,2.5v9.9
				C19,334.5,17.9,335.6,16.5,335.6z M16.5,305.8c-1.4,0-2.5-1.1-2.5-2.5v-9.9c0-1.4,1.1-2.5,2.5-2.5s2.5,1.1,2.5,2.5v9.9
				C19,304.7,17.9,305.8,16.5,305.8z M16.5,275.9c-1.4,0-2.5-1.1-2.5-2.5v-9.9c0-1.4,1.1-2.5,2.5-2.5s2.5,1.1,2.5,2.5v9.9
				C19,274.8,17.9,275.9,16.5,275.9z M16.5,246.1c-1.4,0-2.5-1.1-2.5-2.5v-9.9c0-1.4,1.1-2.5,2.5-2.5s2.5,1.1,2.5,2.5v9.9
				C19,245,17.9,246.1,16.5,246.1z M16.5,216.3c-1.4,0-2.5-1.1-2.5-2.5v-9.9c0-1.4,1.1-2.5,2.5-2.5s2.5,1.1,2.5,2.5v9.9
				C19,215.2,17.9,216.3,16.5,216.3z M16.5,186.5c-1.4,0-2.5-1.1-2.5-2.5v-10c0-1.4,1.1-2.5,2.5-2.5s2.5,1.1,2.5,2.5v9.9
				C19,185.4,17.9,186.5,16.5,186.5z M16.5,156.6c-1.4,0-2.5-1.1-2.5-2.5v-9.9c0-1.4,1.1-2.5,2.5-2.5s2.5,1.1,2.5,2.5v9.9
				C19,155.5,17.9,156.6,16.5,156.6z M16.5,126.8c-1.4,0-2.5-1.1-2.5-2.5v-9.9c0-1.4,1.1-2.5,2.5-2.5s2.5,1.1,2.5,2.5v9.9
				C19,125.7,17.9,126.8,16.5,126.8z M16.5,97c-1.4,0-2.5-1.1-2.5-2.5v-9.9c0-1.4,1.1-2.5,2.5-2.5s2.5,1.1,2.5,2.5v9.9
				C19,95.9,17.9,97,16.5,97z M16.5,67.2c-1.4,0-2.5-1.1-2.5-2.5v-9.9c0-1.4,1.1-2.5,2.5-2.5s2.5,1.1,2.5,2.5v9.9
				C19,66,17.9,67.2,16.5,67.2z M16.5,37.3c-1.4,0-2.5-1.1-2.5-2.5v-9.9c0-1.4,1.1-2.5,2.5-2.5s2.5,1.1,2.5,2.5v9.9
				C19,36.2,17.9,37.3,16.5,37.3z"/>
		</g>
		<g>
			<path class="st0" d="M16.5,1464c-1.4,0-2.5-1.1-2.5-2.5v-5c0-1.4,1.1-2.5,2.5-2.5s2.5,1.1,2.5,2.5v5
				C19,1462.9,17.9,1464,16.5,1464z"/>
		</g>
	</g>
</g>
</svg>
