<svg id="Layer_1" data-name="Layer 1" xmlns="http://www.w3.org/2000/svg" viewBox="0 0 844.9 246.2"><title>alphabet</title><path d="M172.14,191.4V188c9.62-1.82,11.57-3.9,12.09-13.78l.91-16.9c-6.76,5.72-12,8.06-18.59,8.06-13.26,0-22.75-11.7-22.75-28.34,0-20.28,12.35-34.45,29.9-34.45a22.32,22.32,0,0,1,6.5.91c4.16,1.43,6.63,2.21,7.28,2.21,1.3,0,3-.91,6.37-3.12l2.86,2-1.82,24.05v45.76c0,10.14,1.43,12.35,9,13.65v3.38Zm13-68.12q0-14.43-11.7-14.43c-11.05,0-18.85,9.88-18.85,23.92s8.32,24,19.89,24c3.9,0,6.11-.52,10.66-3.12Z"/><path d="M255,166.31l-3.51-1.82.91-7.15c-8.19,6.24-12.61,8.06-18.72,8.06-9.49,0-15.34-6.89-15.34-17.94V119.64c0-7-1.82-9.88-7.28-11.18v-3.12L228.56,103l-.39,33.67L228,138.1c0,9.62.65,12.87,2.73,15.6,1.95,2.47,5.59,4,9.62,4,3.77,0,6.37-.91,12-4l.91-33.15c.26-7.28-1.95-9.62-9.88-12.09v-3.12L263.53,103l-1.3,44.46-.13.78c0,7.8,2.21,10.27,9.1,10.92v2.6Z"/><path d="M278,163.58v-3.12c7.15-1.17,8.58-3.25,9-13.91l.78-21.58a11.18,11.18,0,0,0,.13-2.08c0-9-1.3-11.83-6.37-14v-2.6l15.47-3.64,1.69,1.82-1,16.9v25.22c0,4.68.39,7.93.91,9.36.91,2.34,3.38,3.64,8.06,4.55v3.12Zm15.21-75.79A7.3,7.3,0,0,1,286,80.25c0-4.29,3.12-7.67,7.15-7.67a7.62,7.62,0,0,1,0,15.21Z"/><path d="M358.56,163.58H314.62l-1.7-2.6,35.76-48.49-.78-.91-12.61.39c-8.19.26-13.52,3.9-17,11.31l-2.73-.91,4.55-17.94,41.21,2.73,1.82,1.69-35.88,48.49.91.91,11.57-.91c11.05-.91,18.72-5.46,22.49-13.52l2.73.91Z"/><path d="M417.7,163.58H373.76l-1.69-2.6,35.76-48.49-.79-.91-12.61.39c-8.19.26-13.52,3.9-17,11.31l-2.73-.91,4.55-17.94,41.22,2.73,1.82,1.69-35.89,48.49.91.91,11.57-.91c11.06-.91,18.73-5.46,22.5-13.52l2.73.91Z"/><path d="M431.22,163.58v-3.12c7.15-1.17,8.58-3.25,9-13.91L441,125a11.18,11.18,0,0,0,.13-2.08c0-9-1.3-11.83-6.37-14v-2.6l15.47-3.64,1.69,1.82-1,16.9v25.22c0,4.68.39,7.93.91,9.36.91,2.34,3.38,3.64,8.06,4.55v3.12Zm15.21-75.79a7.3,7.3,0,0,1-7.15-7.54c0-4.29,3.12-7.67,7.15-7.67a7.62,7.62,0,0,1,0,15.21Z"/><path d="M491.15,164.88c-13.91,0-23.27-11.57-23.27-28.86,0-19.5,11.18-33,27.3-33,10.66,0,20.28,6.63,20.28,13.78,0,3.51-2.6,6.5-5.59,6.5a5.47,5.47,0,0,1-5.2-3.64l-1.82-5.33c-1.17-3.38-3.77-4.94-8.32-4.94-10,0-15.86,8.32-15.86,22.62,0,15.08,6.89,23.92,18.46,23.92,4.55,0,7.8-1,14.69-4.94l3.64,1.43C510.52,160.33,501.55,164.88,491.15,164.88Z"/><path d="M568.11,164.1a45.1,45.1,0,0,1-5.46.52c-5.33,0-7-1.43-8.58-6.63-7.8,5.59-11.44,6.89-18.33,6.89-8.58,0-13.91-4.68-13.91-12.35,0-6.5,3.51-10.14,13.39-13.78L555,131.47V120.55c0-8.45-2.08-10.92-9.23-10.92-6.5,0-9.1,2.34-12.35,10.92-.39,1-.91,2.47-1.82,4.42-4.81-.65-7.15-2.34-7.15-5.2,0-4.42,7.15-10.79,16-14.17a45.19,45.19,0,0,1,13.13-2.6c8.19,0,11.7,3.64,11.7,12v2.47L564,147.85v1c0,6.37,1.82,8.45,10.66,11.57v2.86Zm-26.39-22.75c-6,2.47-8.84,5.59-8.84,9.62a7.65,7.65,0,0,0,7.41,7.28,30.72,30.72,0,0,0,9.88-2.34c.91-.26,2.21-.78,3.9-1.3l.91-18.72Z"/><path d="M579.55,163.58v-3.12c7.15-1.17,8.58-3.38,9-13.91l.91-25.09v-25c0-13.52-1-16.51-6.24-18.85V73.88l16.12-2.6L601.13,73l-1.82,33.28v40.3c0,4.68.26,7.93.91,9.36.91,2.34,3.25,3.64,8.06,4.55v3.12Z"/><path d="M614.52,163.58v-3.12c7.15-1.17,8.58-3.38,9-13.91l.91-25.09v-25c0-13.52-1-16.51-6.24-18.85V73.88l16.12-2.6L636.1,73l-1.82,33.28v40.3c0,4.68.26,7.93.91,9.36.91,2.34,3.25,3.64,8.06,4.55v3.12Z"/><path d="M699.28,107.55Q696,109.7,693,116.91l-26.91,64.61c-2.86,6.89-6.37,9.88-11.44,9.88-4.16,0-6.5-2-6.5-5.33,0-2.73,1.95-5.07,5.33-6.37l4.55-1.82c3.12-1.3,6.24-5.2,10.92-13.65L651.7,113.4c-1.3-3.77-2.6-5.33-6.24-6.76v-2.21h24.18v2.21c-.91.39-1.82.65-2.6.91-3.12,1-4.55,2.6-4.55,4.94a16.69,16.69,0,0,0,.91,4.42l10.92,33.15L685,119.64a25.53,25.53,0,0,0,1.69-7.28c0-3-1.82-4.42-8.06-5.72v-2.21H701.1v2.21A7.51,7.51,0,0,0,699.28,107.55Z"/></svg>