<svg id="Layer_1" data-name="Layer 1" xmlns="http://www.w3.org/2000/svg" viewBox="0 0 700 700"><title>alphabet</title><path d="M343.81,263.1Q367.69,247,398.23,247q30.25,0,54.27,16.38t37.76,48.31Q504,343.61,504,388q0,43.57-13.88,81.76T447,531.85q-29.29,23.86-73.15,23.87-21.66,0-39.29-8.46t-27.34-22.35v72.73q0,23.05,13.6,32.07t41.09,9v11.94q-7.23-.27-32.34-1.39T280,648.17q-18.06,0-37.2,1.11t-24.16,1.39V638.73q20.82,0,29.15-7.63t8.33-27.62V317q0-26.37-9.58-38.31t-33.73-11.94V254.77q17.76,1.66,35.26,1.67,36.09,0,59.14-7.77v60Q319.94,279.2,343.81,263.1ZM330.76,532.82q15.27,9.85,36.65,9.85,81.34,0,81.35-146.86,0-131.88-66.08-131.87-25.81,0-46.22,18.46t-29.29,53.44V506A65.64,65.64,0,0,0,330.76,532.82Z"/></svg>