<svg id="Layer_1" data-name="Layer 1" xmlns="http://www.w3.org/2000/svg" viewBox="0 0 700 700"><title>alphabet</title><path d="M467,550.08v-17.8c40.05-4,47.47-6.92,47.47-54.89V363.66c0-48.46-16.81-78.63-59.83-78.63-24.23,0-50.44,13.35-76.16,35.11,1.49,7.91,2,15.82,2,28.68V481.35c0,43,5.94,47,43.52,50.93v17.8H278.55v-17.8c42-4,48.46-7.42,48.46-52.42V363.16C327,312.72,309.2,285,267.67,285c-27.2,0-53.9,18.3-74.18,35.11V479.86c0,44,5.44,48.46,38.57,52.42v17.8H88.66v-17.8c45-4,50.93-7.91,50.93-52.42V339.43c0-43.52-2-47-41.53-52.91V270.69c29.67-5.44,64.77-14.34,94.44-27.69v54.89c14.34-9.4,29.18-21.76,49.45-34.62C259.75,252.4,276.07,245,297.83,245c32.64,0,61.81,20.27,75.66,55.88,19.78-14.84,39.56-27.7,56.37-38.08C444.2,253.38,462,245,480.79,245c52.91,0,86.54,37.58,86.54,103.84v131c0,45.5,5.44,48.46,44,52.42v17.8Z"/></svg>