<svg id="Layer_1" data-name="Layer 1" xmlns="http://www.w3.org/2000/svg" viewBox="0 0 844.9 246.2"><title>alphabet</title><path d="M166,152.78V113.1H153.74V102.45H175.6v13.73a24.13,24.13,0,0,1,5.6-8.88,18,18,0,0,1,7.59-4.66,41.58,41.58,0,0,1,10.93-1.13h3.15V113.6h-2.39q-9.14,0-13.64,1.83a12.22,12.22,0,0,0-6.67,6.64Q178,126.89,178,139.36v13.42h13.29v10.64H153.74V152.78Z"/><path d="M204.45,132.94q0-14.11,9.32-23.15a31.41,31.41,0,0,1,22.74-9,31.81,31.81,0,0,1,22.61,8.91q9.45,8.93,9.45,23.28t-9.42,23.3a31.68,31.68,0,0,1-22.64,8.95,31.31,31.31,0,0,1-22.83-9.07Q204.44,147,204.45,132.94Zm12.66,0q0,9,5.64,14.79a19.29,19.29,0,0,0,27.58-.06,20.46,20.46,0,0,0,5.58-14.73,20.26,20.26,0,0,0-5.67-14.77,18.48,18.48,0,0,0-13.73-5.8,18.13,18.13,0,0,0-13.92,5.93A20.72,20.72,0,0,0,217.11,132.91Z"/><path d="M335.84,102.45v23.06H325.13a14.45,14.45,0,0,0-5.38-10.15,16.89,16.89,0,0,0-10.62-3.52,16.67,16.67,0,0,0-13.1,5.7q-5,5.7-5,15a25.2,25.2,0,0,0,4.79,15.21q4.79,6.58,13.86,6.58,12.6,0,18.26-12l9.89,4.66q-8.19,18.21-28.66,18.21-14.47,0-22.8-9.89A34.39,34.39,0,0,1,278,132.5q0-13.8,9.07-22.77t20.91-9a25.48,25.48,0,0,1,17.13,6v-4.28Z"/><path d="M354.8,152.78V86.45h-11V75.81h22.93v54.73l22.8-18.2H379.43v-9.89h33.7v9.89h-9.32l-22.87,19,21.48,21.42h10.71v10.64H397.44l-30.67-30.67v20h10.52v10.64H343.84V152.78Z"/><path d="M419.93,163.42V142.51h10.71v2a9.93,9.93,0,0,0,4.63,7.05,16.61,16.61,0,0,0,9.6,2.77,18.38,18.38,0,0,0,9.26-2,6.22,6.22,0,0,0,3.47-5.61,5.47,5.47,0,0,0-2.87-5.1q-2.87-1.63-11.37-3-12.6-2.13-18-6.89A15.68,15.68,0,0,1,420,119.41a16.32,16.32,0,0,1,5.86-12.77q5.86-5.13,15.43-5.13a29.54,29.54,0,0,1,14.87,3.55v-2.61h10.64v20.22H456.15V119q-4.86-7.49-14.11-7.49a13.66,13.66,0,0,0-7.78,2.05,6.25,6.25,0,0,0-3.05,5.44,4.77,4.77,0,0,0,2.8,4.76q2.81,1.29,12.06,2.73a63,63,0,0,1,13.42,3.24,16.79,16.79,0,0,1,7.52,6.18,17.14,17.14,0,0,1,3,10,16.16,16.16,0,0,1-6.52,13.51q-6.53,5-16.92,5-9.75,0-15.93-4.43v3.42Z"/><path d="M477.63,113.1V102.45h7.93V93.07l12-11v20.34h11.28V113.1H497.53v29.6q0,7.13.79,8.79c.52,1.11,1.84,1.67,3.94,1.67a17.81,17.81,0,0,0,6.55-1.26v10.89a27.08,27.08,0,0,1-9.2,1.64,15,15,0,0,1-8.88-2.42,10.31,10.31,0,0,1-4.28-6.08q-.88-3.66-.89-12.6V113.1Z"/><path d="M579.48,152.78v10.64H558.57V156q-8.7,8.44-19.4,8.44A21.16,21.16,0,0,1,524.71,159a18.62,18.62,0,0,1,.38-28,23.28,23.28,0,0,1,15.72-5.61,30.07,30.07,0,0,1,16.56,5.17v-6.05a22.66,22.66,0,0,0-.88-7.18,9.2,9.2,0,0,0-4.13-4.54,15.87,15.87,0,0,0-8.47-2q-9,0-13,7.18l-11.46-3q7.62-14.23,26.33-14.24a34.12,34.12,0,0,1,11.87,1.86,17.38,17.38,0,0,1,7.47,4.79,15.69,15.69,0,0,1,3.3,6.33,49,49,0,0,1,.85,10.83v28.22Zm-22.11-12q-7.74-6-15.68-6.05a12.26,12.26,0,0,0-8.32,2.9,9.48,9.48,0,0,0-3.34,7.49,9.74,9.74,0,0,0,2.93,7.19,10.85,10.85,0,0,0,8,2.89q8.7,0,16.44-7.3Z"/><path d="M596.23,152.78V113.1H584V102.45h21.86v13.73a24.13,24.13,0,0,1,5.6-8.88,18,18,0,0,1,7.59-4.66,41.58,41.58,0,0,1,10.93-1.13h3.15V113.6h-2.39q-9.13,0-13.64,1.83a12.22,12.22,0,0,0-6.67,6.64q-2.18,4.82-2.18,17.29v13.42h13.29v10.64H584V152.78Z"/><path d="M640.2,163.42V142.51h10.71v2a9.93,9.93,0,0,0,4.63,7.05,16.61,16.61,0,0,0,9.6,2.77,18.38,18.38,0,0,0,9.26-2,6.22,6.22,0,0,0,3.47-5.61,5.47,5.47,0,0,0-2.87-5.1q-2.87-1.63-11.37-3-12.6-2.13-18-6.89a15.68,15.68,0,0,1-5.39-12.32,16.32,16.32,0,0,1,5.86-12.77q5.86-5.13,15.43-5.13a29.54,29.54,0,0,1,14.87,3.55v-2.61h10.64v20.22H676.42V119q-4.86-7.49-14.11-7.49a13.66,13.66,0,0,0-7.78,2.05,6.25,6.25,0,0,0-3,5.44,4.77,4.77,0,0,0,2.8,4.76q2.81,1.29,12.06,2.73a63,63,0,0,1,13.42,3.24,16.79,16.79,0,0,1,7.52,6.18,17.14,17.14,0,0,1,3,10,16.16,16.16,0,0,1-6.52,13.51q-6.53,5-16.92,5-9.75,0-15.93-4.43v3.42Z"/></svg>