<svg id="Layer_1" data-name="Layer 1" xmlns="http://www.w3.org/2000/svg" viewBox="0 0 844.9 246.2"><title>alphabet</title><path d="M176.5,117.67a7.7,7.7,0,0,0,3.84,6.93q3.84,2.39,14,3.15,11,.88,16.7,5.23t5.73,12.66v.75a17.63,17.63,0,0,1-1.83,8.13,18.12,18.12,0,0,1-5,6.11,22.83,22.83,0,0,1-7.81,3.85,36.25,36.25,0,0,1-10,1.32,35.89,35.89,0,0,1-12.53-2,26.13,26.13,0,0,1-8.7-5.17,21.57,21.57,0,0,1-5.23-7.31,24.2,24.2,0,0,1-2-8.25l9.32-2.27a16.73,16.73,0,0,0,5.54,11.53q4.92,4.35,13.11,4.35,6.93,0,11.15-2.71a8.59,8.59,0,0,0,4.22-7.63q0-5.28-4.16-7.56t-13.48-2.89q-10.84-.76-16.63-5t-5.8-12.48v-.75a15.45,15.45,0,0,1,1.89-7.75,17,17,0,0,1,5.11-5.61,23.3,23.3,0,0,1,7.24-3.4,30.88,30.88,0,0,1,8.44-1.14,31.42,31.42,0,0,1,10.84,1.71,24.9,24.9,0,0,1,7.81,4.41,19,19,0,0,1,4.85,6.23,24.12,24.12,0,0,1,2.21,7.06L206,121.45a13.33,13.33,0,0,0-4.85-9.45q-4.22-3.41-11-3.41a22.55,22.55,0,0,0-5.11.57,15.18,15.18,0,0,0-4.34,1.7,9.4,9.4,0,0,0-3,2.84A7,7,0,0,0,176.5,117.67Z"/><path d="M299.1,141.86a32.29,32.29,0,0,1-3.47,9.57A27,27,0,0,1,280.57,164a33.67,33.67,0,0,1-11.21,1.77A36,36,0,0,1,257,163.66a30.11,30.11,0,0,1-10.27-6.24,29.6,29.6,0,0,1-7-10,33.58,33.58,0,0,1-2.59-13.61v-1.51a34.23,34.23,0,0,1,2.59-13.61,30,30,0,0,1,7-10.2A31.22,31.22,0,0,1,257,102a34.12,34.12,0,0,1,12.41-2.27,32.85,32.85,0,0,1,11,1.77,28.31,28.31,0,0,1,8.89,5,27,27,0,0,1,6.3,7.62,29.82,29.82,0,0,1,3.33,9.57L289,126a20.81,20.81,0,0,0-1.83-6.36,18,18,0,0,0-3.91-5.42,18.39,18.39,0,0,0-6-3.72,22.42,22.42,0,0,0-8.19-1.38,21.39,21.39,0,0,0-15.5,6.49,21.84,21.84,0,0,0-4.72,7.37,24.92,24.92,0,0,0-1.71,9.32v1.51a25.19,25.19,0,0,0,1.71,9.52,20,20,0,0,0,4.72,7.12,21.33,21.33,0,0,0,7.06,4.47,23.62,23.62,0,0,0,8.69,1.57,21.09,21.09,0,0,0,8.13-1.44,19.51,19.51,0,0,0,5.92-3.78,18.21,18.21,0,0,0,3.91-5.36,22.68,22.68,0,0,0,1.95-6.3Z"/><path d="M314.22,101.54H336.9v8.31h1.51a16.16,16.16,0,0,1,6.8-7.62,20.34,20.34,0,0,1,10.08-2.46q9.45,0,15.25,6.18t6.17,18l-10.33,1.51q0-8.7-4.16-12.54A14.47,14.47,0,0,0,352,109.1a14.09,14.09,0,0,0-6.74,1.51,13.59,13.59,0,0,0-4.73,4.16,17.84,17.84,0,0,0-2.77,6.17,31.09,31.09,0,0,0-.88,7.56V155h15.87V164H312.7V155h14.37V110.61H314.22Z"/><path d="M396.37,155h21.92V110.61H398.64v-9.07h29.48V155h20.41V164H396.37Zm17.89-72.07a8.81,8.81,0,1,1,2.58,6.24A8.53,8.53,0,0,1,414.26,82.89Z"/><path d="M479.53,164H469.7V75.83h9.83v35.54H481a21.62,21.62,0,0,1,9.07-8.63,27.23,27.23,0,0,1,12.6-3,28.29,28.29,0,0,1,11,2.15,27.45,27.45,0,0,1,9.14,6.17,29.51,29.51,0,0,1,6.3,10,36.72,36.72,0,0,1,2.33,13.49v2.52a37.86,37.86,0,0,1-2.27,13.6,28.45,28.45,0,0,1-6.24,10,26.34,26.34,0,0,1-9.26,6.11,30.25,30.25,0,0,1-11.21,2.08,28.67,28.67,0,0,1-6.17-.69,25,25,0,0,1-6-2.15,26.05,26.05,0,0,1-5.23-3.52,18.92,18.92,0,0,1-4-5h-1.51Zm20.91-7.56a21.41,21.41,0,0,0,8.32-1.57,19.82,19.82,0,0,0,6.61-4.47,20.18,20.18,0,0,0,4.42-7.06,26.37,26.37,0,0,0,1.57-9.32v-2.52a25.51,25.51,0,0,0-1.57-9.14,20.89,20.89,0,0,0-4.42-7,19.87,19.87,0,0,0-6.67-4.6,20.92,20.92,0,0,0-8.26-1.64,19.79,19.79,0,0,0-8.19,1.7,20.52,20.52,0,0,0-6.61,4.72,22.27,22.27,0,0,0-4.47,7.25,25.24,25.24,0,0,0-1.64,9.26v1.51a25.57,25.57,0,0,0,1.64,9.39,22,22,0,0,0,4.47,7.24,19.65,19.65,0,0,0,6.61,4.67A20.4,20.4,0,0,0,500.44,156.47Z"/><path d="M556.26,135.81q.38,9.33,5.8,15t15.12,5.67a26.26,26.26,0,0,0,7.68-1,17.74,17.74,0,0,0,5.61-2.78,15.24,15.24,0,0,0,3.78-4.09,23.12,23.12,0,0,0,2.33-5l9.33,2.52a27.63,27.63,0,0,1-9.77,14.18q-7.12,5.48-19.21,5.48a31.77,31.77,0,0,1-12.29-2.33,27.67,27.67,0,0,1-9.64-6.62,30.57,30.57,0,0,1-6.3-10.2,36.44,36.44,0,0,1-2.27-13.11v-3a31.88,31.88,0,0,1,2.33-12.22,29.15,29.15,0,0,1,6.49-9.77,30.38,30.38,0,0,1,9.77-6.42,31.26,31.26,0,0,1,12.16-2.34,29.14,29.14,0,0,1,13.29,2.84,29.58,29.58,0,0,1,9.2,7,27.66,27.66,0,0,1,5.29,9.07,28,28,0,0,1,1.7,9.08v8.06Zm20.92-26.71a22.29,22.29,0,0,0-7.75,1.32,19.58,19.58,0,0,0-10.71,9.33,20.58,20.58,0,0,0-2.21,7h40.32a18.25,18.25,0,0,0-2-7.31,17.78,17.78,0,0,0-4.41-5.54,20.24,20.24,0,0,0-6.17-3.53A20.71,20.71,0,0,0,577.18,109.1Z"/><path d="M639.17,117.67A7.7,7.7,0,0,0,643,124.6q3.84,2.39,14,3.15,11,.88,16.7,5.23t5.73,12.66v.75a17.63,17.63,0,0,1-1.83,8.13,18.12,18.12,0,0,1-5,6.11,22.74,22.74,0,0,1-7.81,3.85,36.25,36.25,0,0,1-10,1.32,35.89,35.89,0,0,1-12.53-2,26.13,26.13,0,0,1-8.7-5.17,21.57,21.57,0,0,1-5.23-7.31,24.68,24.68,0,0,1-2-8.25l9.32-2.27a16.69,16.69,0,0,0,5.55,11.53q4.9,4.35,13.1,4.35,6.93,0,11.15-2.71a8.59,8.59,0,0,0,4.22-7.63c0-3.52-1.38-6-4.16-7.56s-7.26-2.47-13.48-2.89q-10.83-.76-16.63-5t-5.8-12.48v-.75a15.45,15.45,0,0,1,1.89-7.75,17,17,0,0,1,5.11-5.61,23.3,23.3,0,0,1,7.24-3.4,30.88,30.88,0,0,1,8.44-1.14,31.42,31.42,0,0,1,10.84,1.71,24.78,24.78,0,0,1,7.81,4.41,19,19,0,0,1,4.85,6.23,24.12,24.12,0,0,1,2.21,7.06l-9.33,2.27A13.3,13.3,0,0,0,663.8,112q-4.21-3.41-11-3.41a22.55,22.55,0,0,0-5.11.57,15.18,15.18,0,0,0-4.34,1.7,9.4,9.4,0,0,0-3,2.84A7,7,0,0,0,639.17,117.67Z"/></svg>