<svg id="Layer_1" data-name="Layer 1" xmlns="http://www.w3.org/2000/svg" viewBox="0 0 844.9 246.2"><defs><style>.cls-1{isolation:isolate;}</style></defs><title>alphabet</title><g class="cls-1"><path d="M86.69,145.84a30.69,30.69,0,0,1-6.38,10.09,29.12,29.12,0,0,1-9.69,6.7A30.54,30.54,0,0,1,58.39,165a42.79,42.79,0,0,1-13.53-2,30.48,30.48,0,0,1-10.28-5.53h-.65l-3.13,7h-.91V83.45c-.78-.52-1.86-1.17-3.25-2s-2.82-1.56-4.29-2.34v-.78l17.56-7.94h1l-.39,46.32.26.13a19.47,19.47,0,0,1,3.51-5.33,31.31,31.31,0,0,1,5.38-4.75,28,28,0,0,1,6.68-3.45,22.49,22.49,0,0,1,18,1.3,25,25,0,0,1,7.92,7,32.11,32.11,0,0,1,4.93,10A41.22,41.22,0,0,1,89,133.42,33.76,33.76,0,0,1,86.69,145.84Zm-10.93-20A23.88,23.88,0,0,0,72,117.87a18.79,18.79,0,0,0-6.42-5.53,19.19,19.19,0,0,0-9.2-2.08,16.92,16.92,0,0,0-6.94,1.3,18.19,18.19,0,0,0-4.79,3,14.25,14.25,0,0,0-2.86,3.38,6.08,6.08,0,0,0-1,2.48c-.09,1-.13,2.56-.13,4.55v9.89c0,1.65,0,3.3.13,4.94A41.21,41.21,0,0,0,42,148.32a24.68,24.68,0,0,0,3.17,7.54,16.67,16.67,0,0,0,5.52,5.34,15.62,15.62,0,0,0,8.16,2,13.7,13.7,0,0,0,7.46-2.08,18.46,18.46,0,0,0,5.7-5.85,30.52,30.52,0,0,0,3.7-8.92A45.54,45.54,0,0,0,77,135.24,35.48,35.48,0,0,0,75.76,125.81Z"/><path d="M150.77,157A16.22,16.22,0,0,1,148,161.2a11.17,11.17,0,0,1-4,2.86,13.22,13.22,0,0,1-12.88-1.63q-3.45-2.6-3.45-9.1l-.26-.13a33.81,33.81,0,0,1-2.8,3.77,25.54,25.54,0,0,1-4.16,3.9,21.1,21.1,0,0,1-5.34,2.93,18,18,0,0,1-6.44,1.11,16,16,0,0,1-4.23-.59,10,10,0,0,1-3.9-2.08,11.24,11.24,0,0,1-2.86-3.84,13.31,13.31,0,0,1-1.11-5.73,10.68,10.68,0,0,1,2.93-7,32.72,32.72,0,0,1,7.22-6.12q4.29-2.73,7.61-4.68t5.79-3.32q2.48-1.36,4.36-2.34c1.26-.65,2.32-1.24,3.19-1.76V114a4.38,4.38,0,0,0-.46-1.24,6.69,6.69,0,0,0-1.56-2,10.51,10.51,0,0,0-3.06-1.89,12.93,12.93,0,0,0-5.07-.85,12.38,12.38,0,0,0-4.1.72,15,15,0,0,0-3.58,1.82,13.09,13.09,0,0,0-2.47,2.21,3.23,3.23,0,0,0-.91,1.89v5.86a4.07,4.07,0,0,1-1.89,3.25,6.57,6.57,0,0,1-4.09,1.43,4.87,4.87,0,0,1-3.58-1.5,4.7,4.7,0,0,1-1.5-3.44,5.5,5.5,0,0,1,.78-2.87,10.29,10.29,0,0,1,2-2.34,15.26,15.26,0,0,1,2.54-1.82c.91-.52,1.71-1,2.41-1.43q3.38-1.95,6.89-3.78t6.7-3.12c2.13-.86,4.08-1.56,5.86-2.08a16.28,16.28,0,0,1,4.36-.78,12.39,12.39,0,0,1,6.37,1.76,10.62,10.62,0,0,1,4.3,4.35,8.1,8.1,0,0,1,.65,3.19c.08,1.52.13,3,.13,4.49q0,4.68-.07,8.46c0,2.52-.06,4.94-.06,7.29s0,4.75-.07,7.22-.06,5.18-.06,8.13c0,3.9.67,6.49,2,7.74a6.54,6.54,0,0,0,4.61,1.89,6.64,6.64,0,0,0,4.43-1.24,6.21,6.21,0,0,0,1.95-3.19h.78A13.68,13.68,0,0,1,150.77,157Zm-23-27.46a50.53,50.53,0,0,1-5.86,3.58q-3.51,1.89-6.83,4.1a30.29,30.29,0,0,0-5.72,4.88,8.78,8.78,0,0,0-2.41,6.05,9.17,9.17,0,0,0,2.34,6.12,7.67,7.67,0,0,0,6.12,2.73,20.84,20.84,0,0,0,6-.78,11.52,11.52,0,0,0,4.82-3,4.74,4.74,0,0,0,1.56-3.65Z"/><path d="M195.73,154.69a17.4,17.4,0,0,1-5.4,6.05,22.94,22.94,0,0,1-7.75,3.39,39.52,39.52,0,0,1-9.17,1,53.93,53.93,0,0,1-10.8-1,44.31,44.31,0,0,1-9.37-3V144h1a68,68,0,0,0,2.6,6.57,32.82,32.82,0,0,0,3.75,6.37,18.68,18.68,0,0,0,5.32,4.82,13.92,13.92,0,0,0,7.38,1.89q6.22,0,9.92-3.58t3.69-11a9.37,9.37,0,0,0-2.52-6.7,12.87,12.87,0,0,0-6.94-3.58q-3.49-.65-6.74-1.43a59.48,59.48,0,0,1-5.83-1.69,16.1,16.1,0,0,1-8-5.86,16.48,16.48,0,0,1-3.05-10,15.66,15.66,0,0,1,1.69-7.29,17.86,17.86,0,0,1,4.56-5.6,20.36,20.36,0,0,1,6.63-3.57,25.64,25.64,0,0,1,8.07-1.24,42,42,0,0,1,9.63,1,63.34,63.34,0,0,1,7.94,2.4L194,121.58l-1,.26c-1.22-2.6-2.43-5-3.65-7.22a29.09,29.09,0,0,0-4-5.73,16,16,0,0,0-5-3.71,15.24,15.24,0,0,0-6.44-1.3,12.66,12.66,0,0,0-4.36.78,11,11,0,0,0-3.77,2.28,11.56,11.56,0,0,0-2.67,3.77,12.64,12.64,0,0,0-1,5.27q0,4.81,2.73,6.9a18.63,18.63,0,0,0,6.9,3.12c1.91.44,4,.89,6.24,1.37s4.21.93,5.86,1.36a19.29,19.29,0,0,1,9.95,6,16.1,16.1,0,0,1,4.1,11.19A18.16,18.16,0,0,1,195.73,154.69Z"/><path d="M240.94,111.3H221.16v34.22q0,6.63,2.86,9.63a9.82,9.82,0,0,0,7.42,3,13.86,13.86,0,0,0,6.25-1.24,11.66,11.66,0,0,0,4.29-3.83l.78.39a25,25,0,0,1-2.15,4.09,15.19,15.19,0,0,1-3.64,3.91,17.31,17.31,0,0,1-5.33,2.73,23.9,23.9,0,0,1-7.23,1,16.12,16.12,0,0,1-5.24-.85,13.58,13.58,0,0,1-4.44-2.47,15.19,15.19,0,0,1-3.15-3.64,7.88,7.88,0,0,1-1.22-4.1q0-12.24.13-23.23t.13-19.58h-9.5v-1.43L219.87,92h1v11.32H245Z"/><path d="M300.92,157a16,16,0,0,1-2.73,4.23,11.17,11.17,0,0,1-4,2.86,13.22,13.22,0,0,1-12.88-1.63q-3.45-2.6-3.45-9.1l-.26-.13a32.6,32.6,0,0,1-2.8,3.77,25.54,25.54,0,0,1-4.16,3.9,21.21,21.21,0,0,1-5.33,2.93,18.08,18.08,0,0,1-6.45,1.11,16,16,0,0,1-4.22-.59,10,10,0,0,1-3.91-2.08,11.37,11.37,0,0,1-2.86-3.84,13.31,13.31,0,0,1-1.11-5.73,10.68,10.68,0,0,1,2.93-7,32.72,32.72,0,0,1,7.22-6.12q4.29-2.73,7.61-4.68t5.79-3.32c1.65-.91,3.11-1.69,4.36-2.34s2.32-1.24,3.19-1.76V114a4.56,4.56,0,0,0-.45-1.24,6.91,6.91,0,0,0-1.57-2,10.45,10.45,0,0,0-3.05-1.89,13,13,0,0,0-5.08-.85,12.38,12.38,0,0,0-4.1.72,15,15,0,0,0-3.57,1.82,12.87,12.87,0,0,0-2.48,2.21,3.29,3.29,0,0,0-.91,1.89v5.86a4.08,4.08,0,0,1-1.88,3.25,6.62,6.62,0,0,1-4.1,1.43,4.88,4.88,0,0,1-3.58-1.5,4.7,4.7,0,0,1-1.5-3.44,5.5,5.5,0,0,1,.78-2.87,10.29,10.29,0,0,1,1.95-2.34,15.68,15.68,0,0,1,2.54-1.82c.91-.52,1.71-1,2.41-1.43q3.38-1.95,6.9-3.78t6.7-3.12c2.12-.86,4.07-1.56,5.85-2.08a16.28,16.28,0,0,1,4.36-.78,12.42,12.42,0,0,1,6.38,1.76,10.65,10.65,0,0,1,4.29,4.35,7.92,7.92,0,0,1,.65,3.19c.09,1.52.13,3,.13,4.49q0,4.68-.06,8.46c-.05,2.52-.07,4.94-.07,7.29s0,4.75-.06,7.22-.07,5.18-.07,8.13c0,3.9.67,6.49,2,7.74a7.37,7.37,0,0,0,9,.65,6.21,6.21,0,0,0,1.95-3.19h.78A13.26,13.26,0,0,1,300.92,157Zm-23-27.46a51.18,51.18,0,0,1-5.85,3.58c-2.35,1.26-4.62,2.63-6.84,4.1a30.29,30.29,0,0,0-5.72,4.88,8.78,8.78,0,0,0-2.41,6.05,9.17,9.17,0,0,0,2.34,6.12,7.69,7.69,0,0,0,6.12,2.73,21,21,0,0,0,6-.78,11.55,11.55,0,0,0,4.81-3,4.74,4.74,0,0,0,1.56-3.65Z"/><path d="M345.94,113.71a5.14,5.14,0,0,1-3.9,1.88,6.68,6.68,0,0,1-3.32-.71,10.57,10.57,0,0,1-2.15-1.63,13.17,13.17,0,0,0-1.95-1.63,5,5,0,0,0-2.86-.71,5.15,5.15,0,0,0-3.06,1.1,14.27,14.27,0,0,0-2.8,2.8,23.06,23.06,0,0,0-2.34,3.84c-.69,1.43-1.3,2.8-1.82,4.1v37.47a3.12,3.12,0,0,0,1.69,1.82,9.76,9.76,0,0,0,2.93.91,26,26,0,0,0,3.38.33,18.37,18.37,0,0,1,3.06.33v1.3H303.65v-1.3a17,17,0,0,0,5.14-1.18,3.09,3.09,0,0,0,2.15-3v-44a4.76,4.76,0,0,0-.19-1.56,2.92,2.92,0,0,0-1.11-1.17c-.78-.43-1.69-1-2.73-1.63a20.73,20.73,0,0,0-3.13-1.62v-.78l17.05-6.64h.78l-.26,18.09h.26c.43-1,1.13-2.56,2.08-4.56a39.71,39.71,0,0,1,3.65-6,22.8,22.8,0,0,1,5.33-5.27,12.11,12.11,0,0,1,7.16-2.21,8.23,8.23,0,0,1,5.53,2,6.25,6.25,0,0,1,2.27,4.95A6.84,6.84,0,0,1,345.94,113.71Z"/><path d="M396.43,165.3h-.78v-13h-.13a26.44,26.44,0,0,1-8.92,9.62c-3.42,2.09-7.7,3.13-12.81,3.13a23.8,23.8,0,0,1-9.31-1.89,22,22,0,0,1-8-5.86,29.47,29.47,0,0,1-5.59-9.75,39.29,39.29,0,0,1-2.09-13.34,32.94,32.94,0,0,1,2.41-12.62,30.58,30.58,0,0,1,17.24-17A35.77,35.77,0,0,1,382,102.06a40,40,0,0,1,7.36.65,57.09,57.09,0,0,1,6.31,1.56c-.09-1.3-.16-3.08-.2-5.33s-.06-4.56-.06-6.9V81l-10.67-4v-.78l20.69-5.73h1v84.45a29.62,29.62,0,0,0,3.9,1.82c1.91.78,3.68,1.52,5.33,2.21v.91Zm-.91-48.93a25.27,25.27,0,0,0-7.29-8.58q-4.43-3.26-8.2-3.26a15.45,15.45,0,0,0-8.65,2.34,19.09,19.09,0,0,0-5.92,6.25,29.58,29.58,0,0,0-3.45,9,48.53,48.53,0,0,0-1.1,10.41,40.81,40.81,0,0,0,1.3,10.34,28,28,0,0,0,3.9,8.85,20.73,20.73,0,0,0,6.44,6.18,16.78,16.78,0,0,0,8.91,2.34,12.86,12.86,0,0,0,9.18-3.64,16.64,16.64,0,0,0,4.88-9.24Z"/><path d="M419.72,164.91v-1.3q1.56-.13,3.12-.33a12.94,12.94,0,0,0,2.8-.65,6.22,6.22,0,0,0,2.08-1.24,2.55,2.55,0,0,0,.84-1.95V114.81a7.59,7.59,0,0,0-.19-1.82,2.58,2.58,0,0,0-1.11-1.43,23.2,23.2,0,0,0-2.79-1.56,36,36,0,0,0-3.45-1.43v-.78l17.56-5.73h.78v58.16a2.86,2.86,0,0,0,1.11,1.89,5.59,5.59,0,0,0,2,.84,14,14,0,0,0,2.53.33,16.8,16.8,0,0,1,2.67.33v1.3Zm18.67-78.4a7.09,7.09,0,0,1-12-5,6.57,6.57,0,0,1,2-4.94,7.41,7.41,0,0,1,10,0,6.6,6.6,0,0,1,2,4.94A6.8,6.8,0,0,1,438.39,86.51Z"/><path d="M505.59,165.3h-1.17c-.17-.26-.61-.39-1.3-.39s-1.49,0-2.41-.13-1.88-.13-2.92-.13H483.34q-4.93,0-9.56.06c-3.08,0-6.23.07-9.43.07h-10.8l-.39-.91L489.46,106H471.89a32.83,32.83,0,0,0-7.61.72,11.41,11.41,0,0,0-4.81,2.34,12,12,0,0,0-3.06,4.23c-.78,1.74-1.61,3.86-2.47,6.38l-1.3-.26,2.34-18,1.17-.13c.17.26.37.52.58.78a3.52,3.52,0,0,0,1.11.78,7.3,7.3,0,0,0,2.21.59,29.36,29.36,0,0,0,3.78.19h20.29c2.95,0,5.93,0,8.92-.06s6.31-.07,9.95-.07l.13,1.17-36.69,57.77h19.65a22.05,22.05,0,0,0,8.58-1.43,15.53,15.53,0,0,0,5.53-3.77,18.37,18.37,0,0,0,3.45-5.47q1.31-3.12,2.34-6.37l1.31.13Z"/><path d="M566.1,157a16.26,16.26,0,0,1-2.74,4.23,11.14,11.14,0,0,1-4,2.86,13.24,13.24,0,0,1-12.89-1.63q-3.43-2.6-3.44-9.1l-.26-.13A33.81,33.81,0,0,1,540,157a25.54,25.54,0,0,1-4.16,3.9,21.27,21.27,0,0,1-5.34,2.93,18,18,0,0,1-6.44,1.11,16,16,0,0,1-4.23-.59,10,10,0,0,1-3.9-2.08,11.39,11.39,0,0,1-2.87-3.84,13.46,13.46,0,0,1-1.1-5.73,10.63,10.63,0,0,1,2.93-7,32.72,32.72,0,0,1,7.22-6.12q4.29-2.73,7.61-4.68t5.79-3.32q2.47-1.36,4.36-2.34c1.26-.65,2.32-1.24,3.19-1.76V114a4.75,4.75,0,0,0-.46-1.24,6.69,6.69,0,0,0-1.56-2,10.65,10.65,0,0,0-3.06-1.89,12.93,12.93,0,0,0-5.07-.85,12.34,12.34,0,0,0-4.1.72,14.85,14.85,0,0,0-3.58,1.82,12.79,12.79,0,0,0-2.47,2.21,3.23,3.23,0,0,0-.91,1.89v5.86a4.07,4.07,0,0,1-1.89,3.25,6.6,6.6,0,0,1-4.1,1.43,4.88,4.88,0,0,1-3.58-1.5,4.73,4.73,0,0,1-1.49-3.44,5.5,5.5,0,0,1,.78-2.87,10.29,10.29,0,0,1,1.95-2.34,15.26,15.26,0,0,1,2.54-1.82c.91-.52,1.71-1,2.4-1.43q3.39-1.95,6.9-3.78c2.34-1.21,4.58-2.25,6.7-3.12s4.08-1.56,5.86-2.08a16.21,16.21,0,0,1,4.36-.78,12.39,12.39,0,0,1,6.37,1.76,10.62,10.62,0,0,1,4.3,4.35,8.1,8.1,0,0,1,.65,3.19c.08,1.52.13,3,.13,4.49,0,3.12,0,5.94-.07,8.46s-.06,4.94-.06,7.29,0,4.75-.07,7.22-.06,5.18-.06,8.13c0,3.9.67,6.49,2,7.74a7.39,7.39,0,0,0,9,.65,6.21,6.21,0,0,0,2-3.19h.78A13.68,13.68,0,0,1,566.1,157Zm-23-27.46a51.4,51.4,0,0,1-5.86,3.58q-3.51,1.89-6.83,4.1a30.68,30.68,0,0,0-5.73,4.88,8.81,8.81,0,0,0-2.4,6.05,9.17,9.17,0,0,0,2.34,6.12,7.67,7.67,0,0,0,6.12,2.73,20.89,20.89,0,0,0,6-.78,11.52,11.52,0,0,0,4.82-3,4.74,4.74,0,0,0,1.56-3.65Z"/><path d="M606.56,111.3H586.79v34.22q0,6.63,2.86,9.63a9.8,9.8,0,0,0,7.41,3,13.86,13.86,0,0,0,6.25-1.24,11.51,11.51,0,0,0,4.29-3.83l.79.39a25.79,25.79,0,0,1-2.15,4.09,15.37,15.37,0,0,1-3.64,3.91,17.25,17.25,0,0,1-5.34,2.73,23.88,23.88,0,0,1-7.22,1,16.12,16.12,0,0,1-5.24-.85,13.38,13.38,0,0,1-4.44-2.47,14.76,14.76,0,0,1-3.15-3.64,7.79,7.79,0,0,1-1.22-4.1q0-12.24.13-23.23t.13-19.58h-9.5v-1.43L585.5,92h1v11.32H610.6Z"/><path d="M609.55,164.91v-1.3c1.05-.09,2.09-.2,3.13-.33a12.94,12.94,0,0,0,2.8-.65,6.22,6.22,0,0,0,2.08-1.24,2.55,2.55,0,0,0,.84-1.95V114.81a7.59,7.59,0,0,0-.19-1.82,2.58,2.58,0,0,0-1.11-1.43,22.63,22.63,0,0,0-2.8-1.56,34.8,34.8,0,0,0-3.44-1.43v-.78l17.56-5.73h.78v58.16a2.86,2.86,0,0,0,1.11,1.89,5.59,5.59,0,0,0,2,.84,14,14,0,0,0,2.53.33,16.8,16.8,0,0,1,2.67.33v1.3Zm18.68-78.4a7.09,7.09,0,0,1-12-5,6.57,6.57,0,0,1,2-4.94,7.41,7.41,0,0,1,10,0,6.6,6.6,0,0,1,2,4.94A6.8,6.8,0,0,1,628.23,86.51Z"/><path d="M701.81,145.58a34.08,34.08,0,0,1-6.64,10.35,30,30,0,0,1-9.69,6.89,28.22,28.22,0,0,1-11.65,2.48,33.18,33.18,0,0,1-10.54-1.83,29.77,29.77,0,0,1-10.08-5.79,30.07,30.07,0,0,1-7.55-10.14A33.61,33.61,0,0,1,642.73,133,30.41,30.41,0,0,1,645,121.45a30.91,30.91,0,0,1,29.08-19.39,31.15,31.15,0,0,1,20.24,7.74,30.07,30.07,0,0,1,7.15,9.63,30.86,30.86,0,0,1,2.8,13.6A32.36,32.36,0,0,1,701.81,145.58ZM691.2,123.4A34.43,34.43,0,0,0,688,114a20.8,20.8,0,0,0-5.85-7.09,14.34,14.34,0,0,0-9-2.8,12.26,12.26,0,0,0-7.67,2.6,22.65,22.65,0,0,0-5.8,6.84,35.33,35.33,0,0,0-3.64,9.49,47.18,47.18,0,0,0-1.23,10.74,58.6,58.6,0,0,0,1,11.32,30.6,30.6,0,0,0,3.38,9.43,18.88,18.88,0,0,0,6,6.51,15.5,15.5,0,0,0,8.72,2.4,12.33,12.33,0,0,0,8.52-3.05,23.12,23.12,0,0,0,5.6-7.68,41.12,41.12,0,0,0,3.12-10,55.38,55.38,0,0,0,1-9.89A50.5,50.5,0,0,0,691.2,123.4Z"/><path d="M746.83,164.91v-1.44a29.33,29.33,0,0,0,5.59-.84A2.55,2.55,0,0,0,754.5,160V127.17q0-7.55-2.86-12.16T742,110.39a13.09,13.09,0,0,0-7.15,1.82,38.71,38.71,0,0,0-6.38,5.33v42.68a3.36,3.36,0,0,0,.91,1.89A3.8,3.8,0,0,0,731,163a9,9,0,0,0,2.08.33,16.45,16.45,0,0,1,2.48.33v1.3H710.39v-1.3a17,17,0,0,0,5.14-1.18,3.09,3.09,0,0,0,2.15-3V114.68a4.46,4.46,0,0,0-.2-1.56,3,3,0,0,0-1.1-1.17l-2.73-1.5a34.14,34.14,0,0,0-3.13-1.49v-.79l17.05-6.11h.78v14l.26.13a46.68,46.68,0,0,1,3.57-4.75,30.49,30.49,0,0,1,4.86-4.62,27.23,27.23,0,0,1,6-3.44,17,17,0,0,1,6.74-1.37q7.53,0,11.54,5.59t4,14.45v38.25a1.9,1.9,0,0,0,.85,1.56,5.76,5.76,0,0,0,2,1,19.45,19.45,0,0,0,2.53.52c.91.13,1.76.24,2.54.33v1.17Z"/><path d="M820.54,154.69a17.4,17.4,0,0,1-5.4,6.05,23,23,0,0,1-7.74,3.39,39.67,39.67,0,0,1-9.18,1,54,54,0,0,1-10.8-1,44.5,44.5,0,0,1-9.37-3V144h1.05a67.84,67.84,0,0,0,2.59,6.57,33.33,33.33,0,0,0,3.75,6.37,18.81,18.81,0,0,0,5.32,4.82,14,14,0,0,0,7.39,1.89q6.21,0,9.91-3.58t3.7-11a9.38,9.38,0,0,0-2.53-6.7,12.87,12.87,0,0,0-6.94-3.58q-3.49-.65-6.74-1.43a59.48,59.48,0,0,1-5.83-1.69,16.15,16.15,0,0,1-8-5.86,16.47,16.47,0,0,1-3-10,15.54,15.54,0,0,1,1.69-7.29,17.69,17.69,0,0,1,4.55-5.6,20.31,20.31,0,0,1,6.64-3.57,25.53,25.53,0,0,1,8.06-1.24,41.86,41.86,0,0,1,9.63,1,63.34,63.34,0,0,1,7.94,2.4l1.56,16.14-1,.26q-1.83-3.9-3.64-7.22a29.12,29.12,0,0,0-4-5.73,15.86,15.86,0,0,0-5-3.71,15.2,15.2,0,0,0-6.44-1.3,12.7,12.7,0,0,0-4.36.78,11,11,0,0,0-3.77,2.28,11.71,11.71,0,0,0-2.67,3.77,12.64,12.64,0,0,0-1,5.27q0,4.81,2.74,6.9A18.58,18.58,0,0,0,796.4,126c1.91.44,4,.89,6.25,1.37s4.2.93,5.85,1.36a19.32,19.32,0,0,1,10,6,16.14,16.14,0,0,1,4.09,11.19A18.16,18.16,0,0,1,820.54,154.69Z"/></g></svg>