<svg id="Layer_1" data-name="Layer 1" xmlns="http://www.w3.org/2000/svg" viewBox="0 0 844.9 246.2"><title>alphabet</title><path d="M120.1,131.4l-8.3,6.7V164H101.6V76.2h10.2v51.1l29.8-24.9h14.2l-28.4,23.1,29.8,38.6H144.7Z"/><path d="M176.9,87.8a6.52,6.52,0,0,1-4.8-1.7,7.07,7.07,0,0,1,0-9.2,6.43,6.43,0,0,1,4.8-1.7,7.38,7.38,0,0,1,5,1.7,6.25,6.25,0,0,1,1.9,4.6,5.75,5.75,0,0,1-1.9,4.6A7.07,7.07,0,0,1,176.9,87.8Zm-5,14.5H182v61.8H171.8V102.3Z"/><path d="M216.4,114.3c4-8.9,11-13.4,20.8-13.4q11,0,17.1,7.2c4.1,4.8,6.1,11.4,6.1,19.7V164H250.3V127.8c0-5.9-1.4-10.4-4.2-13.4s-6.8-4.5-11.9-4.5a15,15,0,0,0-12.5,6.3c-3.2,4.2-4.9,10.1-5,17.5V164H206.5V102.3h8.8Z"/><path d="M302.4,157.2c8.5,0,13.4-3.7,14.6-11.2h10.4a21.11,21.11,0,0,1-8.2,14.4q-6.75,5.1-16.8,5.1c-8.3,0-15-2.9-20.1-8.8s-7.7-13.7-7.7-23.5,2.6-17.6,7.8-23.5,12.1-8.8,20.8-8.8,15.1,3.4,19.4,10.1,5.7,14.9,4.5,24.5H284.9c0,6.4,1.5,11.6,4.6,15.7S296.8,157.2,302.4,157.2Zm7.5-46.7a16,16,0,0,0-7.2-1.5c-5.2,0-9.4,1.8-12.4,5.4s-4.8,8-5.4,13.4h32.9C317.8,119.1,315.1,113.4,309.9,110.5Z"/><path d="M376.6,162.3c-7.4,3.4-14.1,4.2-20.3,2.2a14.46,14.46,0,0,1-9.3-8.6,19.61,19.61,0,0,1-1.4-7.7V110.3h-9.9v-7.7h9.9V85.3h10.1v17.2H375v7.7H355.6V148c0,6.3,2.9,9.4,8.8,9.4a30.37,30.37,0,0,0,10.7-2.3Z"/><path d="M411.8,100.9c8.6,0,15.5,2.8,20.8,8.4s7.9,13.6,7.9,24-2.6,18.3-7.9,23.9-12.2,8.4-20.8,8.4-15.5-2.8-20.8-8.4-7.9-13.5-7.9-23.9,2.6-18.4,7.9-24S403.2,100.9,411.8,100.9Zm18.4,32.3c0-7.4-1.5-13.1-4.6-17.3s-7.6-6.3-13.6-6.3-10.6,2.1-13.7,6.3-4.8,9.9-4.8,17.3,1.5,13.1,4.5,17.3,7.5,6.3,13.5,6.3,10.6-2.1,13.9-6.3S430.2,140.5,430.2,133.2Z"/><path d="M460.1,105.4c4.3-3,10.2-4.5,17.6-4.5s13.2,1.5,17.4,4.6a14.76,14.76,0,0,1,6.5,11.7h-9.9c-.8-5.6-5.5-8.4-14.2-8.4-4.2,0-7.5.9-9.7,2.8s-3.4,3.9-3.4,6.1a7.06,7.06,0,0,0,2.6,5.5c1.7,1.5,4.5,2.8,8.3,3.9l12.4,4.1c5.2,1.6,9.3,3.7,12.1,6.3s4.2,6,4.2,10.4-2.3,8.4-6.8,12-10.9,5.4-19.1,5.4-14.5-1.8-19.1-5.5a18.21,18.21,0,0,1-7.2-14.1h9.8c.2,3.9,1.7,6.8,4.7,8.7a20.48,20.48,0,0,0,11.2,2.9c4.5,0,8.2-.9,11.1-2.8s4.4-4.1,4.4-6.8a7.36,7.36,0,0,0-2.6-6q-2.55-2.1-8.4-3.6l-12-4c-10.8-3.2-16.1-8.8-16.1-16.8C453.6,112.4,455.8,108.4,460.1,105.4Z"/><path d="M543.6,100.9c8.6,0,15.5,2.8,20.8,8.4s7.9,13.6,7.9,24-2.6,18.3-7.9,23.9-12.2,8.4-20.8,8.4-15.5-2.8-20.8-8.4-7.9-13.5-7.9-23.9,2.6-18.4,7.9-24S535,100.9,543.6,100.9Zm18.5,32.3c0-7.4-1.5-13.1-4.6-17.3s-7.6-6.3-13.6-6.3-10.6,2.1-13.7,6.3-4.8,9.9-4.8,17.3,1.5,13.1,4.5,17.3,7.5,6.3,13.5,6.3,10.6-2.1,13.9-6.3C560.4,146.3,562.1,140.5,562.1,133.2Z"/><path d="M598.5,114.3c4-8.9,11-13.4,20.8-13.4a22.36,22.36,0,0,1,13.4,3.9,22.76,22.76,0,0,1,7.9,10.9c3.9-9.9,11-14.8,21.5-14.8,7.4,0,13.1,2.4,17.2,7.2s6.1,11.4,6.1,19.7V164H675.3V127.8c0-5.9-1.4-10.4-4.2-13.4s-6.8-4.5-12.1-4.5a14,14,0,0,0-12.2,6.5c-2.9,4.3-4.3,10.2-4.3,17.8v29.9H632.4V127.9c0-5.9-1.4-10.4-4.2-13.4s-6.8-4.5-11.9-4.5a15,15,0,0,0-12.5,6.3c-3.2,4.2-4.9,10.1-5,17.5v30.3H588.6V102.4h8.8Z"/><path d="M727.3,157.2c8.5,0,13.4-3.7,14.6-11.2h10.4a21.11,21.11,0,0,1-8.2,14.4q-6.75,5.1-16.8,5.1c-8.3,0-15-2.9-20.1-8.8s-7.7-13.7-7.7-23.5,2.6-17.6,7.8-23.5,12.1-8.8,20.8-8.8,15.1,3.4,19.4,10.1,5.7,14.9,4.5,24.5H709.8c0,6.4,1.5,11.6,4.6,15.7S721.7,157.2,727.3,157.2Zm7.5-46.7a16,16,0,0,0-7.2-1.5c-5.2,0-9.4,1.8-12.4,5.4s-4.8,8-5.4,13.4h32.9C742.7,119.1,740.1,113.4,734.8,110.5Z"/></svg>