<svg id="Layer_1" data-name="Layer 1" xmlns="http://www.w3.org/2000/svg" viewBox="0 0 844.9 246.2"><title>alphabet</title><path d="M260.43,107.43a5.74,5.74,0,0,1-1.5,3.57l-18.88,21.18,18.77,21.76a5.58,5.58,0,0,1-4,9.1,5.14,5.14,0,0,1-4.15-2l-17.38-20.49-17.5,20.49a5.36,5.36,0,0,1-3.91,2,5.51,5.51,0,0,1-5.42-5.53,6.2,6.2,0,0,1,1.27-3.57l19-21.76L207.47,111a5.58,5.58,0,0,1-1.38-3.57,5.41,5.41,0,0,1,5.53-5.29,5.21,5.21,0,0,1,3.91,1.84l17.73,20.72L251,104a4.81,4.81,0,0,1,4-1.84A5.38,5.38,0,0,1,260.43,107.43Z"/><path d="M315.45,112.84H280.34c-4.49,0-6.79-1.84-6.79-5.41s2.3-5.29,6.79-5.29h36.15c5.29,0,9.78,5.18,9.78,10.24V163H277.92a5.39,5.39,0,0,1-5.3-5.41V138.52c0-5.64,3.69-9.56,9.1-10.71l33.73-6.91Zm0,39.49V131.26l-32.12,6.45v14.62Z"/><path d="M339.05,102.14h37.41c11.05,0,16.7,5.52,16.7,16.8v38.69c0,3.57-1.73,5.41-5.3,5.41s-5.41-1.84-5.41-5.41V118.94c0-4-2.07-6.1-6-6.1H349.75v44.79c0,3.57-1.84,5.41-5.41,5.41s-5.29-1.84-5.29-5.41Z"/><path d="M421.93,81.41v20.73h13c3.68,0,5.41,1.72,5.41,5.29s-1.73,5.41-5.41,5.41h-13v39.49h9c3.68,0,5.53,1.73,5.53,5.3S434.59,163,431,163H416.63c-3.56,0-5.41-1.84-5.41-5.41V112.84h-2.76c-4.26,0-6.33-1.84-6.33-5.41s2.07-5.29,6.33-5.29h2.76V81.41c0-3.56,1.85-5.41,5.41-5.41S421.93,77.85,421.93,81.41Z"/><path d="M461.3,102.14h22.1c14.62,0,22.11,6.79,22.11,20.6v34.43c0,3.22-2.19,5.87-5.41,5.87-3.57,0-5.3-2-5.3-5.87v-33.5c0-7.26-3.8-10.83-11.28-10.83H461.3v44.79a5.33,5.33,0,0,1-5.41,5.41,5.17,5.17,0,0,1-5.3-5.41V81.41c0-3.56,1.73-5.41,5.3-5.41s5.41,1.85,5.41,5.41Z"/><path d="M561.11,112.84H526c-4.49,0-6.79-1.84-6.79-5.41s2.3-5.29,6.79-5.29h36.15c5.3,0,9.79,5.18,9.79,10.24V163H523.58a5.39,5.39,0,0,1-5.3-5.41V138.52c0-5.64,3.68-9.56,9.09-10.71l33.74-6.91Zm0,39.49V131.26L529,137.71v14.62Z"/><path d="M584.7,102.14h37.42c11,0,16.69,5.52,16.69,16.8v38.69c0,3.57-1.73,5.41-5.29,5.41s-5.42-1.84-5.42-5.41V118.94c0-4-2.07-6.1-6-6.1H595.41v44.79c0,3.57-1.84,5.41-5.41,5.41s-5.3-1.84-5.3-5.41Z"/></svg>