<svg id="Layer_1" data-name="Layer 1" xmlns="http://www.w3.org/2000/svg" viewBox="0 0 844.9 246.2"><title>alphabet</title><path d="M190.09,109.71v-7.22H215.8v7.22h-8.91l15.45,44.77h1.47l15.34-44.77h-8.92v-7.22h25v7.22h-8L229,160.34c-.9,2.26-1.57,2.82-3.72,2.82H220.2c-2.26,0-2.93-.56-3.72-2.82L198.1,109.71Z"/><path d="M301,111.06c-1-1-2.25-1.47-6.32-1.47H283.84c-3.84,0-5.75.46-7,1.7-1.47,1.46-2,3.83-2.15,9.24h-8.12c.23-8.9,1.36-12.18,3.84-14.77s5.41-3.27,11.05-3.27h14.66c6.54,0,9.25,1,11.28,3.16,2.7,2.59,3.27,5.86,3.27,13.75v36.32h9.7v7.1H302.56v-7.67c-7.78,6.32-10.72,7.79-16.69,7.79h-7.11c-5.41,0-8.79-.91-11.27-3.39-2.15-2.14-3.61-5.63-3.61-13.31,0-7.21,1.35-11.5,3.72-13.87,2.59-2.59,6.77-4.06,17.25-4.06a108.06,108.06,0,0,1,17.71,1.36v-9.81C302.56,113.88,302.11,112.19,301,111.06Zm1.58,39.36V134.63h-18c-7,0-8.92.68-10.38,2.14s-2,3.39-2,8.35c0,5.3.57,7.78,1.81,9s3.15,1.69,6.65,1.69h6.54C292.52,155.83,295.91,154.59,302.56,150.42Z"/><path d="M336.08,159.44c-3.83-3.84-5.07-8.68-5.07-26.84s1.24-22.89,5.07-26.73c2.6-2.59,6.1-3.38,12.3-3.38h14.88c5.87,0,8.69.9,10.94,3.16,2.82,2.82,3.95,6.31,4.17,16.58h-8.11c-.12-7.45-.79-9.48-2.15-10.72s-2.82-1.69-6.65-1.69H349.28c-4.28,0-6,.45-7.33,1.81-1.8,1.8-2.71,4.73-2.71,21s.91,19.28,2.71,21.09c1.35,1.35,3.05,1.8,7.33,1.8h12.29c3.72,0,5.53-.45,6.88-1.69s1.92-4,2-11.39h8c-.12,11.17-1.24,14.32-4.17,17.25-2.15,2.15-5.19,3.16-10.95,3.16h-15C342.18,162.82,338.68,162,336.08,159.44Z"/><path d="M429.83,111.06c-1-1-2.25-1.47-6.31-1.47H412.69c-3.83,0-5.75.46-7,1.7-1.47,1.46-2,3.83-2.14,9.24h-8.12c.22-8.9,1.35-12.18,3.83-14.77s5.41-3.27,11.05-3.27H425c6.54,0,9.25,1,11.28,3.16,2.71,2.59,3.27,5.86,3.27,13.75v36.32h9.7v7.1H431.41v-7.67c-7.78,6.32-10.71,7.79-16.69,7.79h-7.1c-5.42,0-8.8-.91-11.28-3.39-2.14-2.14-3.61-5.63-3.61-13.31,0-7.21,1.36-11.5,3.72-13.87,2.59-2.59,6.77-4.06,17.26-4.06a108,108,0,0,1,17.7,1.36v-9.81C431.41,113.88,431,112.19,429.83,111.06Zm1.58,39.36V134.63h-18c-7,0-8.91.68-10.38,2.14s-2,3.39-2,8.35c0,5.3.57,7.78,1.81,9s3.16,1.69,6.65,1.69H416C421.38,155.83,424.76,154.59,431.41,150.42Z"/><path d="M475,110.5c7.89-6.43,10.71-8.13,17.14-8.13h7c5.64,0,8.12,1,10.38,3.16,2.36,2.37,3.15,5.64,3.15,12.07v38.12h9.82v7.1H495.05v-7.1h9.59V118.05c0-3.5-.57-5.3-1.81-6.65s-2.48-1.69-6.87-1.69h-6.21c-5.07,0-8.45,1.35-14.77,5.41v40.6h9.47v7.1H456.93v-7.1h9.93v-46h-9.93v-7.22H475Z"/><path d="M538.06,159.44c-3.84-3.84-5.08-8.68-5.08-26.84s1.24-22.89,5.08-26.73c2.59-2.59,6.09-3.38,12.29-3.38h14.89c5.86,0,8.68.9,10.93,3.16,2.82,2.82,4,6.31,4.18,16.58h-8.12c-.12-7.45-.79-9.48-2.15-10.72s-2.81-1.69-6.65-1.69H551.25c-4.28,0-6,.45-7.33,1.81-1.8,1.8-2.7,4.73-2.7,21s.9,19.28,2.7,21.09c1.35,1.35,3.05,1.8,7.33,1.8h12.29c3.73,0,5.53-.45,6.88-1.69s1.92-4,2-11.39h8c-.11,11.17-1.24,14.32-4.17,17.25-2.15,2.15-5.19,3.16-10.94,3.16h-15C544.15,162.82,540.65,162,538.06,159.44Z"/><path d="M622.45,151.88h.79l15.22-42.17h-8.79v-7.22h25.14v7.22h-8L623.24,173.2c-1.92,5.07-4.4,6.77-9.81,6.77-3.61,0-8.58-.46-12-.79v-6.66h11.39c2.15,0,2.82-.9,3.5-2.6l2.48-6.87-21.09-53.34h-8v-7.22h25.83v7.22h-8.8Z"/></svg>