<svg id="Layer_1" data-name="Layer 1" xmlns="http://www.w3.org/2000/svg" viewBox="0 0 700 700"><title>alphabet</title><path d="M531,475.65a105,105,0,0,1-16.85,29.65,116.12,116.12,0,0,1-23.24,21.75,106.63,106.63,0,0,1-25.57,13.67q-22.09,8.16-49.39,9.88t-52.88,1.75H162.61v-5.81a129,129,0,0,0,27.6-7.57,54.21,54.21,0,0,0,21.21-14.52c1.92-2.31,3.49-5.72,4.64-10.16s2.23-9.6,3.2-15.37a176.58,176.58,0,0,0,2-18.35q.59-9.57.58-18.87c0-5.43.09-12.76.29-22.08s.38-19.48.58-30.5.3-22.37.3-34v-90c0-8.56-.11-17.26-.3-26.15s-.28-19.19-.28-30.83c0-6.95-.2-14-.59-21.18s-1.07-14-2-20.62a163,163,0,0,0-3.48-17.73q-2-7.87-5.51-11.35-8.73-9.3-17.44-12.49c-5.82-2.12-14-3.78-24.4-4.91V134H364.82a324.48,324.48,0,0,1,42.12,2.6,172.5,172.5,0,0,1,38.65,9.6q29.63,11,48.81,33.67t19.17,57.55q0,38.37-24.69,61.9T424.66,331v2.32a166.6,166.6,0,0,1,41.26,10.17,128.79,128.79,0,0,1,36.32,21.23,104.18,104.18,0,0,1,25.57,31.68q9.59,18.3,9.58,41.52Q537.39,458.79,531,475.65Zm-99.07-290Q417.11,163.06,395,153.15q-26.16-11.62-66.83-11.63a193.47,193.47,0,0,0-22.09,1.18A80.57,80.57,0,0,0,291,145.59c-.41,2.36-.8,4.49-1.17,6.43a58.06,58.06,0,0,0-.88,7.23c-.19,2.93-.39,6.48-.58,10.74s-.48,9.88-.86,16.88q-.59,20.35-.88,44.73t-.29,46.49v55.79h32.54c8.91,0,16.07-.18,21.5-.61q52.3-2.83,79.32-29.6t27-66.25Q446.74,208.34,431.93,185.69Zm32,226.93a104.85,104.85,0,0,0-15.11-27.33,99.23,99.23,0,0,0-22.66-21.47,114.18,114.18,0,0,0-28.77-14.28,133.94,133.94,0,0,0-25.27-5.49,252.9,252.9,0,0,0-29.34-1.46H286.37v72.63q0,16.25.29,29.93T287,468.7q.58,22.07,2,36.32t8.43,23.5q5.23,6.39,15.69,10.78t30.21,4.35a323.77,323.77,0,0,0,36.62-2.31,108.14,108.14,0,0,0,38.35-12.25q24.39-12.76,37.77-34t13.36-50.89A90.14,90.14,0,0,0,463.89,412.62Z"/></svg>