<?xml version="1.0" encoding="utf-8"?>
<!-- Generator: Adobe Illustrator 22.0.0, SVG Export Plug-In . SVG Version: 6.00 Build 0)  -->
<svg version="1.1" id="Layer_1" xmlns="http://www.w3.org/2000/svg" xmlns:xlink="http://www.w3.org/1999/xlink" x="0px" y="0px"
	 viewBox="0 0 2929.2 36" style="enable-background:new 0 0 2929.2 36;" xml:space="preserve">
<style type="text/css">
	.st0{fill:#362B9B;}
</style>
<g>
	<g>
		<g>
			<g>
				<path class="st0" d="M1456.5,19.5c0-1.4,1.1-2.5,2.5-2.5h5c1.4,0,2.5,1.1,2.5,2.5s-1.1,2.5-2.5,2.5h-5
					C1457.6,22,1456.5,20.9,1456.5,19.5z"/>
			</g>
			<g>
				<path class="st0" d="M24.8,19.5c0-1.4,1.1-2.5,2.5-2.5h9.9c1.4,0,2.5,1.1,2.5,2.5S38.6,22,37.2,22h-9.9
					C26,22,24.8,20.9,24.8,19.5z M54.7,19.5c0-1.4,1.1-2.5,2.5-2.5h9.9c1.4,0,2.5,1.1,2.5,2.5S68.5,22,67.1,22h-9.9
					C55.8,22,54.7,20.9,54.7,19.5z M84.5,19.5c0-1.4,1.1-2.5,2.5-2.5h9.9c1.4,0,2.5,1.1,2.5,2.5S98.3,22,96.9,22H87
					C85.6,22,84.5,20.9,84.5,19.5z M114.3,19.5c0-1.4,1.1-2.5,2.5-2.5h9.9c1.4,0,2.5,1.1,2.5,2.5s-1.1,2.5-2.5,2.5h-9.9
					C115.4,22,114.3,20.9,114.3,19.5z M144.1,19.5c0-1.4,1.1-2.5,2.5-2.5h9.9c1.4,0,2.5,1.1,2.5,2.5s-1.1,2.5-2.5,2.5h-9.9
					C145.3,22,144.1,20.9,144.1,19.5z M174,19.5c0-1.4,1.1-2.5,2.5-2.5h9.9c1.4,0,2.5,1.1,2.5,2.5s-1.1,2.5-2.5,2.5h-9.9
					C175.1,22,174,20.9,174,19.5z M203.8,19.5c0-1.4,1.1-2.5,2.5-2.5h9.9c1.4,0,2.5,1.1,2.5,2.5s-1.1,2.5-2.5,2.5h-9.9
					C204.9,22,203.8,20.9,203.8,19.5z M233.6,19.5c0-1.4,1.1-2.5,2.5-2.5h9.9c1.4,0,2.5,1.1,2.5,2.5S247.4,22,246,22h-9.9
					C234.7,22,233.6,20.9,233.6,19.5z M263.4,19.5c0-1.4,1.1-2.5,2.5-2.5h9.9c1.4,0,2.5,1.1,2.5,2.5s-1.1,2.5-2.5,2.5h-9.9
					C264.6,22,263.4,20.9,263.4,19.5z M293.3,19.5c0-1.4,1.1-2.5,2.5-2.5h9.9c1.4,0,2.5,1.1,2.5,2.5s-1.1,2.5-2.5,2.5h-9.9
					C294.4,22,293.3,20.9,293.3,19.5z M323.1,19.5c0-1.4,1.1-2.5,2.5-2.5h9.9c1.4,0,2.5,1.1,2.5,2.5s-1.1,2.5-2.5,2.5h-9.9
					C324.2,22,323.1,20.9,323.1,19.5z M352.9,19.5c0-1.4,1.1-2.5,2.5-2.5h9.9c1.4,0,2.5,1.1,2.5,2.5s-1.1,2.5-2.5,2.5h-9.9
					C354,22,352.9,20.9,352.9,19.5z M382.7,19.5c0-1.4,1.1-2.5,2.5-2.5h9.9c1.4,0,2.5,1.1,2.5,2.5s-1.1,2.5-2.5,2.5h-9.9
					C383.9,22,382.7,20.9,382.7,19.5z M412.6,19.5c0-1.4,1.1-2.5,2.5-2.5h9.9c1.4,0,2.5,1.1,2.5,2.5S426.4,22,425,22h-9.9
					C413.7,22,412.6,20.9,412.6,19.5z M442.4,19.5c0-1.4,1.1-2.5,2.5-2.5h9.9c1.4,0,2.5,1.1,2.5,2.5s-1.1,2.5-2.5,2.5h-9.9
					C443.5,22,442.4,20.9,442.4,19.5z M472.2,19.5c0-1.4,1.1-2.5,2.5-2.5h9.9c1.4,0,2.5,1.1,2.5,2.5S486,22,484.6,22h-9.9
					C473.3,22,472.2,20.9,472.2,19.5z M502.1,19.5c0-1.4,1.1-2.5,2.5-2.5h9.9c1.4,0,2.5,1.1,2.5,2.5s-1.1,2.5-2.5,2.5h-9.9
					C503.2,22,502.1,20.9,502.1,19.5z M531.9,19.5c0-1.4,1.1-2.5,2.5-2.5h9.9c1.4,0,2.5,1.1,2.5,2.5s-1.1,2.5-2.5,2.5h-9.9
					C533,22,531.9,20.9,531.9,19.5z M561.7,19.5c0-1.4,1.1-2.5,2.5-2.5h9.9c1.4,0,2.5,1.1,2.5,2.5s-1.1,2.5-2.5,2.5h-9.9
					C562.8,22,561.7,20.9,561.7,19.5z M591.5,19.5c0-1.4,1.1-2.5,2.5-2.5h10c1.4,0,2.5,1.1,2.5,2.5S605.4,22,604,22h-9.9
					C592.6,22,591.5,20.9,591.5,19.5z M621.4,19.5c0-1.4,1.1-2.5,2.5-2.5h9.9c1.4,0,2.5,1.1,2.5,2.5s-1.1,2.5-2.5,2.5h-9.9
					C622.5,22,621.4,20.9,621.4,19.5z M651.2,19.5c0-1.4,1.1-2.5,2.5-2.5h9.9c1.4,0,2.5,1.1,2.5,2.5S665,22,663.6,22h-9.9
					C652.3,22,651.2,20.9,651.2,19.5z M681,19.5c0-1.4,1.1-2.5,2.5-2.5h9.9c1.4,0,2.5,1.1,2.5,2.5s-1.1,2.5-2.5,2.5h-9.9
					C682.1,22,681,20.9,681,19.5z M710.8,19.5c0-1.4,1.1-2.5,2.5-2.5h9.9c1.4,0,2.5,1.1,2.5,2.5s-1.1,2.5-2.5,2.5h-9.9
					C712,22,710.8,20.9,710.8,19.5z M740.7,19.5c0-1.4,1.1-2.5,2.5-2.5h9.9c1.4,0,2.5,1.1,2.5,2.5s-1.1,2.5-2.5,2.5h-9.9
					C741.8,22,740.7,20.9,740.7,19.5z M770.5,19.5c0-1.4,1.1-2.5,2.5-2.5h9.9c1.4,0,2.5,1.1,2.5,2.5s-1.1,2.5-2.5,2.5H773
					C771.6,22,770.5,20.9,770.5,19.5z M800.3,19.5c0-1.4,1.1-2.5,2.5-2.5h9.9c1.4,0,2.5,1.1,2.5,2.5s-1.1,2.5-2.5,2.5h-9.9
					C801.4,22,800.3,20.9,800.3,19.5z M830.1,19.5c0-1.4,1.1-2.5,2.5-2.5h9.9c1.4,0,2.5,1.1,2.5,2.5s-1.1,2.5-2.5,2.5h-9.9
					C831.3,22,830.1,20.9,830.1,19.5z M860,19.5c0-1.4,1.1-2.5,2.5-2.5h9.9c1.4,0,2.5,1.1,2.5,2.5s-1.1,2.5-2.5,2.5h-9.9
					C861.1,22,860,20.9,860,19.5z M889.8,19.5c0-1.4,1.1-2.5,2.5-2.5h9.9c1.4,0,2.5,1.1,2.5,2.5s-1.1,2.5-2.5,2.5h-9.9
					C890.9,22,889.8,20.9,889.8,19.5z M919.6,19.5c0-1.4,1.1-2.5,2.5-2.5h9.9c1.4,0,2.5,1.1,2.5,2.5S933.4,22,932,22h-9.9
					C920.7,22,919.6,20.9,919.6,19.5z M949.4,19.5c0-1.4,1.1-2.5,2.5-2.5h9.9c1.4,0,2.5,1.1,2.5,2.5s-1.1,2.5-2.5,2.5h-9.9
					C950.6,22,949.4,20.9,949.4,19.5z M979.3,19.5c0-1.4,1.1-2.5,2.5-2.5h9.9c1.4,0,2.5,1.1,2.5,2.5s-1.1,2.5-2.5,2.5h-9.9
					C980.4,22,979.3,20.9,979.3,19.5z M1009.1,19.5c0-1.4,1.1-2.5,2.5-2.5h9.9c1.4,0,2.5,1.1,2.5,2.5s-1.1,2.5-2.5,2.5h-9.9
					C1010.2,22,1009.1,20.9,1009.1,19.5z M1038.9,19.5c0-1.4,1.1-2.5,2.5-2.5h9.9c1.4,0,2.5,1.1,2.5,2.5s-1.1,2.5-2.5,2.5h-9.9
					C1040,22,1038.9,20.9,1038.9,19.5z M1068.7,19.5c0-1.4,1.1-2.5,2.5-2.5h9.9c1.4,0,2.5,1.1,2.5,2.5s-1.1,2.5-2.5,2.5h-9.9
					C1069.9,22,1068.7,20.9,1068.7,19.5z M1098.6,19.5c0-1.4,1.1-2.5,2.5-2.5h9.9c1.4,0,2.5,1.1,2.5,2.5s-1.1,2.5-2.5,2.5h-9.9
					C1099.7,22,1098.6,20.9,1098.6,19.5z M1128.4,19.5c0-1.4,1.1-2.5,2.5-2.5h9.9c1.4,0,2.5,1.1,2.5,2.5s-1.1,2.5-2.5,2.5h-9.9
					C1129.5,22,1128.4,20.9,1128.4,19.5z M1158.2,19.5c0-1.4,1.1-2.5,2.5-2.5h9.9c1.4,0,2.5,1.1,2.5,2.5s-1.1,2.5-2.5,2.5h-9.9
					C1159.3,22,1158.2,20.9,1158.2,19.5z M1188.1,19.5c0-1.4,1.1-2.5,2.5-2.5h9.9c1.4,0,2.5,1.1,2.5,2.5s-1.1,2.5-2.5,2.5h-9.9
					C1189.2,22,1188.1,20.9,1188.1,19.5z M1217.9,19.5c0-1.4,1.1-2.5,2.5-2.5h9.9c1.4,0,2.5,1.1,2.5,2.5s-1.1,2.5-2.5,2.5h-9.9
					C1219,22,1217.9,20.9,1217.9,19.5z M1247.7,19.5c0-1.4,1.1-2.5,2.5-2.5h9.9c1.4,0,2.5,1.1,2.5,2.5s-1.1,2.5-2.5,2.5h-9.9
					C1248.8,22,1247.7,20.9,1247.7,19.5z M1277.5,19.5c0-1.4,1.1-2.5,2.5-2.5h10c1.4,0,2.5,1.1,2.5,2.5s-1.1,2.5-2.5,2.5h-9.9
					C1278.6,22,1277.5,20.9,1277.5,19.5z M1307.4,19.5c0-1.4,1.1-2.5,2.5-2.5h9.9c1.4,0,2.5,1.1,2.5,2.5s-1.1,2.5-2.5,2.5h-9.9
					C1308.5,22,1307.4,20.9,1307.4,19.5z M1337.2,19.5c0-1.4,1.1-2.5,2.5-2.5h9.9c1.4,0,2.5,1.1,2.5,2.5s-1.1,2.5-2.5,2.5h-9.9
					C1338.3,22,1337.2,20.9,1337.2,19.5z M1367,19.5c0-1.4,1.1-2.5,2.5-2.5h9.9c1.4,0,2.5,1.1,2.5,2.5s-1.1,2.5-2.5,2.5h-9.9
					C1368.1,22,1367,20.9,1367,19.5z M1396.8,19.5c0-1.4,1.1-2.5,2.5-2.5h9.9c1.4,0,2.5,1.1,2.5,2.5s-1.1,2.5-2.5,2.5h-9.9
					C1398,22,1396.8,20.9,1396.8,19.5z M1426.7,19.5c0-1.4,1.1-2.5,2.5-2.5h9.9c1.4,0,2.5,1.1,2.5,2.5s-1.1,2.5-2.5,2.5h-9.9
					C1427.8,22,1426.7,20.9,1426.7,19.5z"/>
			</g>
			<g>
				<path class="st0" d="M0,19.5C0,18.1,1.1,17,2.5,17h5c1.4,0,2.5,1.1,2.5,2.5S8.9,22,7.5,22h-5C1.1,22,0,20.9,0,19.5z"/>
			</g>
		</g>
	</g>
	<g>
		<g>
			<g>
				<path class="st0" d="M2917.4,19.5c0-1.4,1.1-2.5,2.5-2.5h5c1.4,0,2.5,1.1,2.5,2.5s-1.1,2.5-2.5,2.5h-5
					C2918.5,22,2917.4,20.9,2917.4,19.5z"/>
			</g>
			<g>
				<path class="st0" d="M1485.7,19.5c0-1.4,1.1-2.5,2.5-2.5h9.9c1.4,0,2.5,1.1,2.5,2.5s-1.1,2.5-2.5,2.5h-9.9
					C1486.9,22,1485.7,20.9,1485.7,19.5z M1515.6,19.5c0-1.4,1.1-2.5,2.5-2.5h9.9c1.4,0,2.5,1.1,2.5,2.5s-1.1,2.5-2.5,2.5h-9.9
					C1516.7,22,1515.6,20.9,1515.6,19.5z M1545.4,19.5c0-1.4,1.1-2.5,2.5-2.5h9.9c1.4,0,2.5,1.1,2.5,2.5s-1.1,2.5-2.5,2.5h-9.9
					C1546.5,22,1545.4,20.9,1545.4,19.5z M1575.2,19.5c0-1.4,1.1-2.5,2.5-2.5h9.9c1.4,0,2.5,1.1,2.5,2.5s-1.1,2.5-2.5,2.5h-9.9
					C1576.3,22,1575.2,20.9,1575.2,19.5z M1605,19.5c0-1.4,1.1-2.5,2.5-2.5h9.9c1.4,0,2.5,1.1,2.5,2.5s-1.1,2.5-2.5,2.5h-9.9
					C1606.2,22,1605,20.9,1605,19.5z M1634.9,19.5c0-1.4,1.1-2.5,2.5-2.5h9.9c1.4,0,2.5,1.1,2.5,2.5s-1.1,2.5-2.5,2.5h-9.9
					C1636,22,1634.9,20.9,1634.9,19.5z M1664.7,19.5c0-1.4,1.1-2.5,2.5-2.5h9.9c1.4,0,2.5,1.1,2.5,2.5s-1.1,2.5-2.5,2.5h-9.9
					C1665.8,22,1664.7,20.9,1664.7,19.5z M1694.5,19.5c0-1.4,1.1-2.5,2.5-2.5h9.9c1.4,0,2.5,1.1,2.5,2.5s-1.1,2.5-2.5,2.5h-9.9
					C1695.6,22,1694.5,20.9,1694.5,19.5z M1724.3,19.5c0-1.4,1.1-2.5,2.5-2.5h9.9c1.4,0,2.5,1.1,2.5,2.5s-1.1,2.5-2.5,2.5h-9.9
					C1725.5,22,1724.3,20.9,1724.3,19.5z M1754.2,19.5c0-1.4,1.1-2.5,2.5-2.5h9.9c1.4,0,2.5,1.1,2.5,2.5s-1.1,2.5-2.5,2.5h-9.9
					C1755.3,22,1754.2,20.9,1754.2,19.5z M1784,19.5c0-1.4,1.1-2.5,2.5-2.5h9.9c1.4,0,2.5,1.1,2.5,2.5s-1.1,2.5-2.5,2.5h-9.9
					C1785.1,22,1784,20.9,1784,19.5z M1813.8,19.5c0-1.4,1.1-2.5,2.5-2.5h9.9c1.4,0,2.5,1.1,2.5,2.5s-1.1,2.5-2.5,2.5h-9.9
					C1814.9,22,1813.8,20.9,1813.8,19.5z M1843.6,19.5c0-1.4,1.1-2.5,2.5-2.5h9.9c1.4,0,2.5,1.1,2.5,2.5s-1.1,2.5-2.5,2.5h-9.9
					C1844.8,22,1843.6,20.9,1843.6,19.5z M1873.5,19.5c0-1.4,1.1-2.5,2.5-2.5h9.9c1.4,0,2.5,1.1,2.5,2.5s-1.1,2.5-2.5,2.5h-9.9
					C1874.6,22,1873.5,20.9,1873.5,19.5z M1903.3,19.5c0-1.4,1.1-2.5,2.5-2.5h9.9c1.4,0,2.5,1.1,2.5,2.5s-1.1,2.5-2.5,2.5h-9.9
					C1904.4,22,1903.3,20.9,1903.3,19.5z M1933.1,19.5c0-1.4,1.1-2.5,2.5-2.5h9.9c1.4,0,2.5,1.1,2.5,2.5s-1.1,2.5-2.5,2.5h-9.9
					C1934.2,22,1933.1,20.9,1933.1,19.5z M1963,19.5c0-1.4,1.1-2.5,2.5-2.5h9.9c1.4,0,2.5,1.1,2.5,2.5s-1.1,2.5-2.5,2.5h-9.9
					C1964.1,22,1963,20.9,1963,19.5z M1992.8,19.5c0-1.4,1.1-2.5,2.5-2.5h9.9c1.4,0,2.5,1.1,2.5,2.5s-1.1,2.5-2.5,2.5h-9.9
					C1993.9,22,1992.8,20.9,1992.8,19.5z M2022.6,19.5c0-1.4,1.1-2.5,2.5-2.5h9.9c1.4,0,2.5,1.1,2.5,2.5s-1.1,2.5-2.5,2.5h-9.9
					C2023.7,22,2022.6,20.9,2022.6,19.5z M2052.4,19.5c0-1.4,1.1-2.5,2.5-2.5h10c1.4,0,2.5,1.1,2.5,2.5s-1.1,2.5-2.5,2.5h-9.9
					C2053.5,22,2052.4,20.9,2052.4,19.5z M2082.3,19.5c0-1.4,1.1-2.5,2.5-2.5h9.9c1.4,0,2.5,1.1,2.5,2.5s-1.1,2.5-2.5,2.5h-9.9
					C2083.4,22,2082.3,20.9,2082.3,19.5z M2112.1,19.5c0-1.4,1.1-2.5,2.5-2.5h9.9c1.4,0,2.5,1.1,2.5,2.5s-1.1,2.5-2.5,2.5h-9.9
					C2113.2,22,2112.1,20.9,2112.1,19.5z M2141.9,19.5c0-1.4,1.1-2.5,2.5-2.5h9.9c1.4,0,2.5,1.1,2.5,2.5s-1.1,2.5-2.5,2.5h-9.9
					C2143,22,2141.9,20.9,2141.9,19.5z M2171.7,19.5c0-1.4,1.1-2.5,2.5-2.5h9.9c1.4,0,2.5,1.1,2.5,2.5s-1.1,2.5-2.5,2.5h-9.9
					C2172.9,22,2171.7,20.9,2171.7,19.5z M2201.6,19.5c0-1.4,1.1-2.5,2.5-2.5h9.9c1.4,0,2.5,1.1,2.5,2.5s-1.1,2.5-2.5,2.5h-9.9
					C2202.7,22,2201.6,20.9,2201.6,19.5z M2231.4,19.5c0-1.4,1.1-2.5,2.5-2.5h9.9c1.4,0,2.5,1.1,2.5,2.5s-1.1,2.5-2.5,2.5h-9.9
					C2232.5,22,2231.4,20.9,2231.4,19.5z M2261.2,19.5c0-1.4,1.1-2.5,2.5-2.5h9.9c1.4,0,2.5,1.1,2.5,2.5s-1.1,2.5-2.5,2.5h-9.9
					C2262.3,22,2261.2,20.9,2261.2,19.5z M2291,19.5c0-1.4,1.1-2.5,2.5-2.5h9.9c1.4,0,2.5,1.1,2.5,2.5s-1.1,2.5-2.5,2.5h-9.9
					C2292.2,22,2291,20.9,2291,19.5z M2320.9,19.5c0-1.4,1.1-2.5,2.5-2.5h9.9c1.4,0,2.5,1.1,2.5,2.5s-1.1,2.5-2.5,2.5h-9.9
					C2322,22,2320.9,20.9,2320.9,19.5z M2350.7,19.5c0-1.4,1.1-2.5,2.5-2.5h9.9c1.4,0,2.5,1.1,2.5,2.5s-1.1,2.5-2.5,2.5h-9.9
					C2351.8,22,2350.7,20.9,2350.7,19.5z M2380.5,19.5c0-1.4,1.1-2.5,2.5-2.5h9.9c1.4,0,2.5,1.1,2.5,2.5s-1.1,2.5-2.5,2.5h-9.9
					C2381.6,22,2380.5,20.9,2380.5,19.5z M2410.3,19.5c0-1.4,1.1-2.5,2.5-2.5h9.9c1.4,0,2.5,1.1,2.5,2.5s-1.1,2.5-2.5,2.5h-9.9
					C2411.5,22,2410.3,20.9,2410.3,19.5z M2440.2,19.5c0-1.4,1.1-2.5,2.5-2.5h9.9c1.4,0,2.5,1.1,2.5,2.5s-1.1,2.5-2.5,2.5h-9.9
					C2441.3,22,2440.2,20.9,2440.2,19.5z M2470,19.5c0-1.4,1.1-2.5,2.5-2.5h9.9c1.4,0,2.5,1.1,2.5,2.5s-1.1,2.5-2.5,2.5h-9.9
					C2471.1,22,2470,20.9,2470,19.5z M2499.8,19.5c0-1.4,1.1-2.5,2.5-2.5h9.9c1.4,0,2.5,1.1,2.5,2.5s-1.1,2.5-2.5,2.5h-9.9
					C2500.9,22,2499.8,20.9,2499.8,19.5z M2529.6,19.5c0-1.4,1.1-2.5,2.5-2.5h9.9c1.4,0,2.5,1.1,2.5,2.5s-1.1,2.5-2.5,2.5h-9.9
					C2530.8,22,2529.6,20.9,2529.6,19.5z M2559.5,19.5c0-1.4,1.1-2.5,2.5-2.5h9.9c1.4,0,2.5,1.1,2.5,2.5s-1.1,2.5-2.5,2.5h-9.9
					C2560.6,22,2559.5,20.9,2559.5,19.5z M2589.3,19.5c0-1.4,1.1-2.5,2.5-2.5h9.9c1.4,0,2.5,1.1,2.5,2.5s-1.1,2.5-2.5,2.5h-9.9
					C2590.4,22,2589.3,20.9,2589.3,19.5z M2619.1,19.5c0-1.4,1.1-2.5,2.5-2.5h9.9c1.4,0,2.5,1.1,2.5,2.5s-1.1,2.5-2.5,2.5h-9.9
					C2620.2,22,2619.1,20.9,2619.1,19.5z M2649,19.5c0-1.4,1.1-2.5,2.5-2.5h9.9c1.4,0,2.5,1.1,2.5,2.5s-1.1,2.5-2.5,2.5h-9.9
					C2650.1,22,2649,20.9,2649,19.5z M2678.8,19.5c0-1.4,1.1-2.5,2.5-2.5h9.9c1.4,0,2.5,1.1,2.5,2.5s-1.1,2.5-2.5,2.5h-9.9
					C2679.9,22,2678.8,20.9,2678.8,19.5z M2708.6,19.5c0-1.4,1.1-2.5,2.5-2.5h9.9c1.4,0,2.5,1.1,2.5,2.5s-1.1,2.5-2.5,2.5h-9.9
					C2709.7,22,2708.6,20.9,2708.6,19.5z M2738.4,19.5c0-1.4,1.1-2.5,2.5-2.5h10c1.4,0,2.5,1.1,2.5,2.5s-1.1,2.5-2.5,2.5h-9.9
					C2739.5,22,2738.4,20.9,2738.4,19.5z M2768.3,19.5c0-1.4,1.1-2.5,2.5-2.5h9.9c1.4,0,2.5,1.1,2.5,2.5s-1.1,2.5-2.5,2.5h-9.9
					C2769.4,22,2768.3,20.9,2768.3,19.5z M2798.1,19.5c0-1.4,1.1-2.5,2.5-2.5h9.9c1.4,0,2.5,1.1,2.5,2.5s-1.1,2.5-2.5,2.5h-9.9
					C2799.2,22,2798.1,20.9,2798.1,19.5z M2827.9,19.5c0-1.4,1.1-2.5,2.5-2.5h9.9c1.4,0,2.5,1.1,2.5,2.5s-1.1,2.5-2.5,2.5h-9.9
					C2829,22,2827.9,20.9,2827.9,19.5z M2857.7,19.5c0-1.4,1.1-2.5,2.5-2.5h9.9c1.4,0,2.5,1.1,2.5,2.5s-1.1,2.5-2.5,2.5h-9.9
					C2858.9,22,2857.7,20.9,2857.7,19.5z M2887.6,19.5c0-1.4,1.1-2.5,2.5-2.5h9.9c1.4,0,2.5,1.1,2.5,2.5s-1.1,2.5-2.5,2.5h-9.9
					C2888.7,22,2887.6,20.9,2887.6,19.5z"/>
			</g>
			<g>
				<path class="st0" d="M1460.9,19.5c0-1.4,1.1-2.5,2.5-2.5h5c1.4,0,2.5,1.1,2.5,2.5s-1.1,2.5-2.5,2.5h-5
					C1462,22,1460.9,20.9,1460.9,19.5z"/>
			</g>
		</g>
	</g>
</g>
</svg>
