<svg id="Layer_1" data-name="Layer 1" xmlns="http://www.w3.org/2000/svg" viewBox="0 0 844.9 246.2"><defs><style>.cls-1{isolation:isolate;}</style></defs><title>alphabet</title><g class="cls-1"><path d="M52.56,134.23c0-18.6,8.59-33,23.09-33,11,0,18.34,9.62,20.65,26.56l-29.76,8.59c1.41,13.34,6.29,21,17.06,21a18.91,18.91,0,0,0,11-3.59v1.54a21.17,21.17,0,0,1-18.35,10.52C61.67,165.92,52.56,152.7,52.56,134.23Zm13.73-.64L82.45,126c-.51-12.57-2.82-21.16-7.31-21.16-6,0-9,9.87-9,22.44C66.16,129.49,66.16,131.54,66.29,133.59Z"/><path d="M128.24,194.14H101.05v-.77l6.16-6.41V111.53l-6.55-8.86v-.77h19.25v7.19c4.23-4.36,9.1-7.83,14.23-7.83,13.6,0,19,12.83,19,28.74,0,27.07-13.85,34.63-25.91,34.63h-6.93v21.68l8,7.06Zm11.29-60.93c0-16.55-4.1-24.38-11.54-24.38-2.44,0-4.75.9-7.7,2.82v46.18c2.31,1.93,4.62,3.08,7.18,3.08C134.53,160.91,139.53,150.78,139.53,133.21Z"/><path d="M159.41,164.63v-.77l6.16-5.64V110.76l-6.41-7.44v-.77h19.62v55.67l6,5.64v.77Zm4.88-84.4c0-5.39,3.59-9.11,7.82-9.11s7.83,3.72,7.83,9.11c0,5.77-3.59,9.1-7.83,9.1S164.29,86,164.29,80.23Z"/><path d="M215.85,194.14H188.66v-.77l6.16-6.41V111.53l-6.55-8.86v-.77h19.25v7.19c4.23-4.36,9.1-7.83,14.24-7.83,13.59,0,19,12.83,19,28.74,0,27.07-13.85,34.63-25.91,34.63H207.9v21.68l7.95,7.06Zm11.29-60.93c0-16.55-4.1-24.38-11.54-24.38-2.44,0-4.75.9-7.7,2.82v46.18c2.31,1.93,4.62,3.08,7.18,3.08C222.14,160.91,227.14,150.78,227.14,133.21Z"/><path d="M272,164.63h-25.4v-.77l6.16-6.28V77.53l-6.55-8.34v-.77h19.63v41.44l.26-.13c7.05-5.39,13.08-8.34,19-8.34,8.47,0,13,4.75,13,19.37v36.82l6.16,6.28v.77h-25.4v-.77l6.15-6.28V123.71c0-10.13-2.18-14.24-8.08-14.24-4.49,0-7.57,1.93-10.9,4.36l-.13.13v43.62l6.16,6.28Z"/><path d="M310,134.23c0-18.6,8.59-33,23.09-33,11,0,18.34,9.62,20.65,26.56L324,136.41c1.41,13.34,6.28,21,17.06,21,3.59,0,8.21-1.28,11-3.59v1.54a21.15,21.15,0,0,1-18.34,10.52C319.11,165.92,310,152.7,310,134.23Zm13.72-.64L339.89,126c-.51-12.57-2.82-21.16-7.31-21.16-6,0-9,9.87-9,22.44C323.6,129.49,323.6,131.54,323.73,133.59Z"/><path d="M384.53,164.63H359.14v-.77l6.15-6.28V111.91l-6.54-8.59v-.77h19.63V110l.38-.26c7.06-5.52,12.83-8.34,18.47-8.34,8.34,0,13,4.75,13,19.37v36.82l6.16,6.28v.77H391v-.77l6.16-6.28V123.71c0-10.13-2.31-14.24-8.09-14.24-4.23,0-7.31,1.67-10.51,4.11l-.13.13v43.87l6.15,6.28Z"/><path d="M422,134c0-20.65,12.7-32.71,26.17-32.71,14.37,0,25,13.09,25,32.07,0,20.53-12.7,32.59-26.29,32.59C432.51,165.92,422,153,422,134Zm37.2,1.42c0-15.78-3.85-30.41-13-30.41-7.31,0-10.26,10.78-10.26,26.3,0,16.29,4.11,30.92,12.83,30.92C455.73,162.2,459.19,151.42,459.19,135.39Z"/><path d="M504.6,164.63H479.46v-.77l6.15-6.28v-45.8l-6.54-8.46v-.77H498.7v6.28c6-5,12.06-7.44,18.34-7.44,6.8,0,10.14,2.57,11.55,8.21l.64-.51c6.16-5.13,12.44-7.7,18.73-7.7,11,0,12.7,6.54,12.7,22.32v33.87l6.16,6.28v.77H541.67v-.77l5.9-6.28V123.71c0-10.13-1.79-14.37-7.44-14.37a17.34,17.34,0,0,0-10.9,3.34,90.65,90.65,0,0,1,.51,11v33.87l5.78,6.28v.77H510.63v-.77l5.9-6.28V123.71c0-10.13-1.8-14.37-7.44-14.37a17,17,0,0,0-10.39,3.08v45.16l5.9,6.28Z"/><path d="M572.58,134.23c0-18.6,8.6-33,23.09-33,11,0,18.35,9.62,20.66,26.56l-29.76,8.59c1.41,13.34,6.28,21,17.06,21,3.59,0,8.21-1.28,11-3.59v1.54a21.15,21.15,0,0,1-18.34,10.52C581.69,165.92,572.58,152.7,572.58,134.23Zm13.73-.64L602.47,126c-.51-12.57-2.82-21.16-7.31-21.16-6,0-9,9.87-9,22.44C586.18,129.49,586.18,131.54,586.31,133.59Z"/><path d="M647.11,164.63h-25.4v-.77l6.16-6.28V111.91l-6.54-8.59v-.77H641V110l.38-.26c7.06-5.52,12.83-8.34,18.47-8.34,8.34,0,13,4.75,13,19.37v36.82l6.16,6.28v.77h-25.4v-.77l6.16-6.28V123.71c0-10.13-2.31-14.24-8.09-14.24-4.23,0-7.31,1.67-10.52,4.11l-.12.13v43.87l6.15,6.28Z"/><path d="M684.57,134c0-20.65,12.7-32.71,26.17-32.71,14.37,0,25,13.09,25,32.07,0,20.53-12.7,32.59-26.29,32.59C695.09,165.92,684.57,153,684.57,134Zm37.2,1.42c0-15.78-3.85-30.41-13-30.41-7.31,0-10.26,10.78-10.26,26.3,0,16.29,4.11,30.92,12.83,30.92C718.31,162.2,721.77,151.42,721.77,135.39Z"/><path d="M767.44,164.63H742v-.77l6.15-6.28V111.91l-6.54-8.59v-.77h19.63V110l.38-.26c7.06-5.52,12.83-8.34,18.48-8.34,8.33,0,13,4.75,13,19.37v36.82l6.16,6.28v.77h-25.4v-.77l6.16-6.28V123.71c0-10.13-2.31-14.24-8.08-14.24-4.24,0-7.32,1.67-10.52,4.11l-.13.13v43.87l6.16,6.28Z"/></g></svg>