<svg id="Layer_1" data-name="Layer 1" xmlns="http://www.w3.org/2000/svg" viewBox="0 0 844.9 246.2"><title>alphabet</title><path d="M184.3,163.5v-3.6c8.1-.8,9.6-1.4,9.6-11.1v-23c0-9.8-3.4-15.9-12.1-15.9-4.9,0-10.2,2.7-15.4,7.1a30.19,30.19,0,0,1,.4,5.8v26.8c0,8.7,1.2,9.5,8.8,10.3v3.6H146.2v-3.6c8.5-.8,9.8-1.5,9.8-10.6V125.7c0-10.2-3.6-15.8-12-15.8-5.5,0-10.9,3.7-15,7.1v32.3c0,8.9,1.1,9.8,7.8,10.6v3.6h-29v-3.6c9.1-.8,10.3-1.6,10.3-10.6V120.9c0-8.8-.4-9.5-8.4-10.7V107a86.27,86.27,0,0,0,19.1-5.6v11.1c2.9-1.9,5.9-4.4,10-7,3.6-2.2,6.9-3.7,11.3-3.7,6.6,0,12.5,4.1,15.3,11.3,4-3,8-5.6,11.4-7.7,2.9-1.9,6.5-3.6,10.3-3.6,10.7,0,17.5,7.6,17.5,21v26.5c0,9.2,1.1,9.8,8.9,10.6v3.6Z"/><path d="M264.2,165.1a11.28,11.28,0,0,1-6.5-2.6,13.86,13.86,0,0,1-3.3-6.2c-5.5,3.7-12.1,8.8-16.2,8.8a16.57,16.57,0,0,1-16.5-16.8c0-6.7,3.6-11,11.1-13.6,8.2-2.7,18.3-6.5,21.3-8.9v-2.5c0-9.9-4.7-15.5-11.5-15.5a8,8,0,0,0-6.2,2.7c-1.8,1.8-3,4.8-4.1,9.1a3.86,3.86,0,0,1-4,3.2c-2.5,0-6-2.7-6-5.9,0-2.1,1.8-3.6,4.4-5.5,3.8-2.7,12.8-8.1,20.6-9.6a18,18,0,0,1,11.3,3.7c4.8,4,6.2,9.6,6.2,16.8v25.6c0,6.2,2.5,8.2,4.8,8.2a10.42,10.42,0,0,0,4.9-1.5l1.4,3.6Zm-10-34.6c-2.9,1.5-9.5,4.4-12.4,5.8-5.4,2.5-8.4,5.1-8.4,10,0,7.1,5.5,10.6,9.8,10.6,3.6-.1,8.4-2.5,11-4.9V130.5Z"/><path d="M332.8,151.1c-6,8-15.3,14-23.4,14-17.3,0-27.5-14-27.5-28.7,0-10.6,4.5-19.8,13.7-26.9,7.1-5.5,15.4-7.7,20.8-7.7s10,1.8,12.2,3.6a5,5,0,0,1,2.2,4.3c0,2.9-3,5.9-4.5,5.9-.7,0-1.4-.4-2.6-1.5a20,20,0,0,0-13.7-5.6c-9.1,0-17,7.6-17,22,0,19.1,13.1,25.4,20.8,25.4,5.9,0,10.4-1.6,16.8-7.6Z"/><path d="M383.1,165.1a11.28,11.28,0,0,1-6.5-2.6,13.86,13.86,0,0,1-3.3-6.2c-5.5,3.7-12.1,8.8-16.2,8.8a16.57,16.57,0,0,1-16.5-16.8c0-6.7,3.6-11,11.1-13.6,8.2-2.7,18.3-6.5,21.3-8.9v-2.5c0-9.9-4.7-15.5-11.5-15.5a8,8,0,0,0-6.2,2.7c-1.8,1.8-3,4.8-4.1,9.1a3.86,3.86,0,0,1-4,3.2c-2.5,0-6-2.7-6-5.9,0-2.1,1.8-3.6,4.4-5.5,3.8-2.7,12.8-8.1,20.6-9.6a18,18,0,0,1,11.3,3.7c4.8,4,6.2,9.6,6.2,16.8v25.6c0,6.2,2.5,8.2,4.8,8.2a10.42,10.42,0,0,0,4.9-1.5l1.4,3.6ZM373,130.5c-2.9,1.5-9.5,4.4-12.4,5.8-5.4,2.5-8.4,5.1-8.4,10,0,7.1,5.5,10.6,9.8,10.6,3.6-.1,8.4-2.5,11-4.9Z"/><path d="M466.6,159.9c-3,.5-13.3,2.3-21.3,5.2v-8.9l-8.4,4.9c-5.4,3.2-9.1,4-10.7,4-11,0-25.4-10-25.4-29.3,0-19.1,16.8-34.1,35.5-34.1a32.15,32.15,0,0,1,9.1,1.5V83.9c0-9.1-.7-9.5-10.6-10.2V70.4c7.1-1,16.4-3,21.4-4.8v82c0,7.1,1,7.8,6,8.4l4.4.4Zm-21.3-46.1c-3.3-4.8-8.9-7-14.2-7-6.3,0-17.9,5.4-17.9,25.3,0,16.4,10,24.3,18.8,24.3a23.14,23.14,0,0,0,13.2-4.7V113.8Z"/><path d="M516.4,165.1a11.28,11.28,0,0,1-6.5-2.6,13.86,13.86,0,0,1-3.3-6.2c-5.5,3.7-12.1,8.8-16.2,8.8a16.57,16.57,0,0,1-16.5-16.8c0-6.7,3.6-11,11.1-13.6,8.2-2.7,18.3-6.5,21.3-8.9v-2.5c0-9.9-4.7-15.5-11.5-15.5a8,8,0,0,0-6.2,2.7c-1.8,1.8-3,4.8-4.1,9.1a3.86,3.86,0,0,1-4,3.2c-2.5,0-6-2.7-6-5.9,0-2.1,1.8-3.6,4.4-5.5,3.8-2.7,12.8-8.1,20.6-9.6a18,18,0,0,1,11.3,3.7c4.8,4,6.2,9.6,6.2,16.8v25.6c0,6.2,2.5,8.2,4.8,8.2a10.42,10.42,0,0,0,4.9-1.5l1.4,3.6Zm-10.1-34.6c-2.9,1.5-9.5,4.4-12.4,5.8-5.4,2.5-8.4,5.1-8.4,10,0,7.1,5.5,10.6,9.8,10.6,3.6-.1,8.4-2.5,11-4.9Z"/><path d="M607.8,163.5v-3.6c8.1-.8,9.6-1.4,9.6-11.1v-23c0-9.8-3.4-15.9-12.1-15.9-4.9,0-10.2,2.7-15.4,7.1a30.19,30.19,0,0,1,.4,5.8v26.8c0,8.7,1.2,9.5,8.8,10.3v3.6H569.7v-3.6c8.5-.8,9.8-1.5,9.8-10.6V125.7c0-10.2-3.6-15.8-12-15.8-5.5,0-10.9,3.7-15,7.1v32.3c0,8.9,1.1,9.8,7.8,10.6v3.6h-29v-3.6c9.1-.8,10.3-1.6,10.3-10.6V120.9c0-8.8-.4-9.5-8.4-10.7V107a86.27,86.27,0,0,0,19.1-5.6v11.1c2.9-1.9,5.9-4.4,10-7,3.6-2.2,6.9-3.7,11.3-3.7,6.6,0,12.5,4.1,15.3,11.3,4-3,8-5.6,11.4-7.7,2.9-1.9,6.5-3.6,10.3-3.6,10.7,0,17.5,7.6,17.5,21v26.5c0,9.2,1.1,9.8,8.9,10.6v3.6Z"/><path d="M644.6,163.5v-3.6c8.7-.8,9.6-1.6,9.6-11V120.6c0-8.5-.4-9.1-8.7-10.4v-3.3a84.71,84.71,0,0,0,19.5-5.4v47.4c0,9.3,1,10.2,9.8,11v3.6Zm7.3-80.7a7,7,0,0,1,7-7.1,6.9,6.9,0,0,1,6.9,7.1,7,7,0,0,1-7,7A7.21,7.21,0,0,1,651.9,82.8Z"/><path d="M725.3,165.1a11.28,11.28,0,0,1-6.5-2.6,13.86,13.86,0,0,1-3.3-6.2c-5.5,3.7-12.1,8.8-16.2,8.8a16.57,16.57,0,0,1-16.5-16.8c0-6.7,3.6-11,11.1-13.6,8.2-2.7,18.3-6.5,21.3-8.9v-2.5c0-9.9-4.7-15.5-11.5-15.5a8,8,0,0,0-6.2,2.7c-1.8,1.8-3,4.8-4.1,9.1a3.86,3.86,0,0,1-4,3.2c-2.5,0-6-2.7-6-5.9,0-2.1,1.8-3.6,4.4-5.5,3.8-2.7,12.8-8.1,20.6-9.6a18,18,0,0,1,11.3,3.7c4.8,4,6.2,9.6,6.2,16.8v25.6c0,6.2,2.5,8.2,4.8,8.2a10.42,10.42,0,0,0,4.9-1.5l1.4,3.6Zm-10.1-34.6c-2.9,1.5-9.5,4.4-12.4,5.8-5.4,2.5-8.4,5.1-8.4,10,0,7.1,5.5,10.6,9.8,10.6,3.6-.1,8.4-2.5,11-4.9V130.5Z"/></svg>