<svg id="Layer_1" data-name="Layer 1" xmlns="http://www.w3.org/2000/svg" viewBox="0 0 844.9 246.2"><title>alphabet</title><path d="M85.7,95.1a7.8,7.8,0,1,1,7.7-7.7A7.77,7.77,0,0,1,85.7,95.1Zm-6.1,69.6V103.1H91.7v61.6Z"/><path d="M147.1,164.7V129.9c0-12.4-4.7-16.9-12.7-16.9s-12.7,5.7-12.7,15.7v36H109.6V103.1h12.1V109c3-4.5,9.1-7.2,15.5-7.2,14.3,0,21.9,9.4,21.9,27.6v35.3Z"/><path d="M205.1,163.1a24.74,24.74,0,0,1-11.8,2.8c-8.6,0-13.8-5.3-13.8-16.3V114.1h-8.8v-11h8.8V85.5l11.8-6.3v23.9h15.2v11H191.3v33.4c0,5.7,1.9,7.4,6.3,7.4a19,19,0,0,0,8.9-2.5Z"/><path d="M269.8,138.2H229.1c1.3,11.8,8,16.9,15.5,16.9,5.2,0,9.3-1.9,13.4-4.9l7.2,7.7c-5.4,5.2-11.8,8.1-21.2,8.1-14.4,0-26.6-11.6-26.6-32,0-20.9,11-32.1,27-32.1,17.5,0,25.9,14.2,25.9,30.8C270.1,134.9,269.9,136.9,269.8,138.2Zm-26.4-25.5c-8.1,0-13,5.6-14.1,15.5h28.6C257.3,119.8,253.4,112.7,243.4,112.7Z"/><path d="M318.2,115.9a18.27,18.27,0,0,0-9.3-2.2c-7.6,0-12.1,5.4-12.1,15.8v35.2H284.7V103.1h12.1V109a17.14,17.14,0,0,1,14.1-7.2c4.9,0,8,.9,10.4,2.6Z"/><path d="M364.1,163.1a24.74,24.74,0,0,1-11.8,2.8c-8.6,0-13.8-5.3-13.8-16.3V114.1h-8.8v-11h8.8V85.5l11.8-6.3v23.9h15.2v11H350.3v33.4c0,5.7,1.9,7.4,6.3,7.4a19,19,0,0,0,8.9-2.5Z"/><path d="M428.8,138.2H388.1c1.3,11.8,8,16.9,15.5,16.9,5.2,0,9.3-1.9,13.4-4.9l7.2,7.7c-5.4,5.2-11.8,8.1-21.2,8.1-14.4,0-26.6-11.6-26.6-32,0-20.9,11-32.1,27-32.1,17.5,0,25.9,14.2,25.9,30.8C429.1,134.9,428.9,136.9,428.8,138.2Zm-26.4-25.5c-8.1,0-13,5.6-14.1,15.5h28.6C416.3,119.8,412.4,112.7,402.4,112.7Z"/><path d="M477.2,115.9a18.27,18.27,0,0,0-9.3-2.2c-7.6,0-12.1,5.4-12.1,15.8v35.2H443.7V103.1h12.1V109a17.14,17.14,0,0,1,14.1-7.2c4.9,0,8,.9,10.4,2.6Z"/><path d="M564,164.7V129.9c0-12.4-3.9-16.9-11.8-16.9-8.1,0-11.8,5.7-11.8,15.7v36H528.3V129.9c0-12.4-3.9-16.9-11.8-16.9-8.1,0-11.8,5.7-11.8,15.7v36H492.6V103.1h12.1V109c3-4.5,8.3-7.2,14.7-7.2,8.3,0,13.6,3.2,16.9,9,4.5-5.5,9.3-9,18.9-9,14.3,0,21.1,9.4,21.1,27.6v35.3Z"/><path d="M599.7,95.1a7.8,7.8,0,1,1,7.7-7.7A7.64,7.64,0,0,1,599.7,95.1Zm-6.1,69.6V103.1h12.1v61.6Z"/><path d="M661.2,164.7V129.9c0-12.4-4.7-16.9-12.7-16.9s-12.7,5.7-12.7,15.7v36H623.7V103.1h12.1V109c3-4.5,9.1-7.2,15.5-7.2,14.3,0,21.9,9.4,21.9,27.6v35.3Z"/><path d="M725.6,164.7v-6.1a24.29,24.29,0,0,1-16.9,7.4c-10,0-21.3-5.6-21.3-20.8,0-13.7,10.6-19.9,24.5-19.9,5.7,0,10.3.8,13.7,2.3V123c0-6.7-4.1-10.4-11.6-10.4a31.24,31.24,0,0,0-16.1,3.9l-4.7-9.1c5.9-3.6,12.4-5.5,21.1-5.5,13.7,0,23.1,6.7,23.1,20.6v42.2Zm0-26.3c-3.3-1.6-7.5-2.7-14.1-2.7-7.7,0-12.7,3.5-12.7,9.1,0,6.1,3.9,10.2,11.8,10.2,6.4,0,12.1-4,14.9-7.9v-8.7Z"/><path d="M755,164.7V85.5l12.1-6.3v85.5Z"/></svg>