<svg id="Layer_1" data-name="Layer 1" xmlns="http://www.w3.org/2000/svg" viewBox="0 0 844.9 246.2"><title>alphabet</title><path d="M408.19,77.42v24.94h21.35v7.09h3.52v46.36h-3.43v7.08H401.09v-7h-3.58V84.59h-7.14V77.42Zm.1,32.16v46.15h14.08V109.58Z"/><path d="M622.09,77.42v78.4h-3.52v7.05H590v-7h-3.48V109.53H590v-7.1H611.3V84.59h-7V77.42Zm-24.85,32.15v46.16h14.07V109.57Z"/><path d="M508,77.42v7.11h3.49v7H500.94V84.67H490.29v17.64h10.47v7.15H490.2v53.45H479.54V109.53h-7.11v-7.1h7V84.59h3.58V77.42Z"/><path d="M222.81,102.38h32V113h-3.4v10.71h-3.58v7.1h-3.59v10.71H240.7v7.15h-3.55v7.05h10.58V148.8h7.05V163h-32v-7.13h3.6V145.13H230V138h3.54v-7.15h3.58V120.16h3.59V113h3.39v-3.38H229.87v7h-7.06Z"/><path d="M319.08,116.67h-7v-7.1H319v-7.09h57.06v7h3.52V162.9H369.05V109.61H354.78v53.25H344.07V109.59H329.84v53.29H319.08Z"/><path d="M269.12,162.87v-7H265.7V109.53h3.42v-7h28.54v7h3.48v46.36h-3.43v7Zm7.27-53.29v46.15h14.08V109.58Z"/><path d="M540.2,109.47h3.43v-7h25v7h3.47v21.41H550.86v24.86h10.61v-7h10.6v7H568.7v7.09h-25v-6.95H540.2Zm21.22.14H550.91v14.08h10.51Z"/><path d="M461.56,162.91H451V109.56h-7.08v-7.11h17.63Z"/><path d="M525.73,162.91H515.18V109.56H508.1v-7.11h17.63Z"/><path d="M525.74,91.61H515.21V81.1h10.53Z"/><path d="M461.59,81.07v10.5H451.07V81.07Z"/></svg>