<svg id="Layer_1" data-name="Layer 1" xmlns="http://www.w3.org/2000/svg" viewBox="0 0 844.9 246.2"><title>alphabet</title><path d="M228.67,191.32q-3,0-6.24-.27c-2.17-.18-4.31-.43-6.39-.76v-6.8a91.67,91.67,0,0,0,11.28-1.59,30.13,30.13,0,0,0,8.69-3.21,23.13,23.13,0,0,0,6.67-5.83,39.84,39.84,0,0,0,5.26-9.45h-5.56l-19.59-51.88a4.51,4.51,0,0,0-1.25-1.89,5,5,0,0,0-2-1l-4.48-1.24V102l29.2,0v5.35L235,109l16.2,45,14.19-45-8.8-1.62V102h23.49v5.34l-4.43,1.24a6,6,0,0,0-2.08,1,4.22,4.22,0,0,0-1.21,2l-18.41,54q-4.53,13.13-10.23,19.36T228.67,191.32Z"/><path d="M307.7,102.41v51.07a3.43,3.43,0,0,0,.76,2.32,3.49,3.49,0,0,0,2.16,1.08l6.64,1v5.51H286.54V157.9l6.64-1a3.63,3.63,0,0,0,2.19-1.08,3.26,3.26,0,0,0,.78-2.27V113.31a3.47,3.47,0,0,0-.73-2.32,3.27,3.27,0,0,0-2.13-1.08l-7.5-1.08v-5.29a60.12,60.12,0,0,1,10.09-2.08,101.3,101.3,0,0,1,10.1-.78Zm.87-18.47a7.55,7.55,0,0,1-2.22,5.64,8.71,8.71,0,0,1-11.55,0,7.58,7.58,0,0,1-2.21-5.64,7.46,7.46,0,0,1,2.21-5.56,8.8,8.8,0,0,1,11.55,0A7.43,7.43,0,0,1,308.57,83.94Z"/><path d="M378.32,150a19.92,19.92,0,0,1-8.43,10.61q-6.25,4.08-15.54,4.08a29,29,0,0,1-12.07-2.35,23.21,23.21,0,0,1-8.53-6.51,27.89,27.89,0,0,1-5.05-9.93A45.3,45.3,0,0,1,327,133.34a43.63,43.63,0,0,1,2.05-13.87,29.36,29.36,0,0,1,5.83-10.4,25.17,25.17,0,0,1,9.12-6.48,30.56,30.56,0,0,1,11.88-2.24,29,29,0,0,1,9.18,1.38,20.14,20.14,0,0,1,7.13,4,18,18,0,0,1,4.61,6.64,24.07,24.07,0,0,1,1.65,9.24c0,1-.06,2.22-.16,3.64s-.26,2.69-.44,3.81H339.23v1.67a46.27,46.27,0,0,0,1.4,12.28,22.13,22.13,0,0,0,3.84,8,13.71,13.71,0,0,0,5.77,4.29,19.77,19.77,0,0,0,7.24,1.3,20.67,20.67,0,0,0,9.8-2.38,18.83,18.83,0,0,0,7.15-6.42Zm-24-43.51a12.77,12.77,0,0,0-9.66,4q-3.84,4-5,12.82h27.16c0-.39.07-.8.1-1.21s.06-.86.06-1.32a15.73,15.73,0,0,0-3.29-10.32Q360.39,106.51,354.29,106.51Z"/><path d="M409.9,68.07v85.51a3.2,3.2,0,0,0,.75,2.27,3.67,3.67,0,0,0,2.16,1l7.83,1.13v5.4H387.55V157.9l7.83-1a3.76,3.76,0,0,0,2.18-1,3,3,0,0,0,.78-2.21V78.81a3.12,3.12,0,0,0-.78-2.26,3.76,3.76,0,0,0-2.18-1l-8.21-1.13v-5q2.32-.7,5-1.24t5.48-.92q2.77-.37,5.48-.62c1.8-.16,3.47-.26,5-.3Z"/><path d="M482.51,164.33q-4.38,0-6.72-2.27a11.69,11.69,0,0,1-3.22-5.67,26.81,26.81,0,0,1-7.8,5.86,23.48,23.48,0,0,1-10.88,2.4,25.49,25.49,0,0,1-9.36-1.73,20.16,20.16,0,0,1-7.75-5.37,26.58,26.58,0,0,1-5.24-9.42,43.49,43.49,0,0,1-1.94-13.76,44.55,44.55,0,0,1,2.3-15,28.62,28.62,0,0,1,6.42-10.64,26,26,0,0,1,10-6.29,38.19,38.19,0,0,1,12.85-2.08,44,44,0,0,1,5.83.38,51.22,51.22,0,0,1,5.07.92V78.81a3.12,3.12,0,0,0-.78-2.26,3.7,3.7,0,0,0-2.13-1l-8.21-1.13v-5q2.32-.7,5-1.24t5.48-.92c1.86-.25,3.68-.46,5.48-.62s3.48-.26,5-.3l1.68,1.73v85.14a3.22,3.22,0,0,0,.89,2.62,4.3,4.3,0,0,0,2.24.89l6.21.54v5.12q-1.85.6-4.86,1.27A25.73,25.73,0,0,1,482.51,164.33Zm-24.4-7.56a21.31,21.31,0,0,0,7.61-1.35A22.25,22.25,0,0,0,472,151.8V109.37a20,20,0,0,0-5-1.94,25.69,25.69,0,0,0-6.51-.81,20,20,0,0,0-7.15,1.27,14,14,0,0,0-5.86,4.23,21.78,21.78,0,0,0-3.94,8,45.52,45.52,0,0,0-1.46,12.47,44.23,44.23,0,0,0,1.3,11.69,20.91,20.91,0,0,0,3.48,7.45,12,12,0,0,0,5.1,3.92A17,17,0,0,0,458.11,156.77Z"/><path d="M554,150a20,20,0,0,1-8.42,10.61q-6.27,4.08-15.55,4.08A29,29,0,0,1,518,162.36a23.29,23.29,0,0,1-8.53-6.51,27.89,27.89,0,0,1-5.05-9.93,45.3,45.3,0,0,1-1.67-12.58,43.63,43.63,0,0,1,2.05-13.87,29.36,29.36,0,0,1,5.83-10.4,25.12,25.12,0,0,1,9.13-6.48,30.47,30.47,0,0,1,11.87-2.24,29,29,0,0,1,9.18,1.38,20.14,20.14,0,0,1,7.13,4,17.81,17.81,0,0,1,4.61,6.64,24.07,24.07,0,0,1,1.65,9.24c0,1-.05,2.22-.16,3.64s-.25,2.69-.43,3.81H515v1.67A45.82,45.82,0,0,0,516.36,143a22,22,0,0,0,3.83,8,13.68,13.68,0,0,0,5.78,4.29,19.72,19.72,0,0,0,7.23,1.3,20.64,20.64,0,0,0,9.8-2.38,18.83,18.83,0,0,0,7.15-6.42Zm-24-43.51a12.8,12.8,0,0,0-9.66,4q-3.83,4-5,12.82h27.16c0-.39.07-.8.11-1.21s.05-.86.05-1.32a15.73,15.73,0,0,0-3.29-10.32Q536.11,106.51,530,106.51Z"/><path d="M619.42,164.33q-4.38,0-6.73-2.27a11.76,11.76,0,0,1-3.21-5.67,27.08,27.08,0,0,1-7.8,5.86,23.48,23.48,0,0,1-10.88,2.4,25.49,25.49,0,0,1-9.36-1.73,20.08,20.08,0,0,1-7.75-5.37,26.42,26.42,0,0,1-5.24-9.42,43.49,43.49,0,0,1-1.94-13.76,44.56,44.56,0,0,1,2.29-15,28.64,28.64,0,0,1,6.43-10.64,26,26,0,0,1,10-6.29A38.19,38.19,0,0,1,598,100.35a44,44,0,0,1,5.83.38,51.22,51.22,0,0,1,5.07.92V78.81a3.12,3.12,0,0,0-.78-2.26,3.7,3.7,0,0,0-2.13-1l-8.21-1.13v-5q2.32-.7,5-1.24t5.48-.92q2.77-.37,5.48-.62c1.8-.16,3.47-.26,5-.3l1.68,1.73v85.14a3.22,3.22,0,0,0,.89,2.62,4.3,4.3,0,0,0,2.24.89l6.2.54v5.12q-1.83.6-4.85,1.27A25.73,25.73,0,0,1,619.42,164.33ZM595,156.77a21.36,21.36,0,0,0,7.62-1.35,22.25,22.25,0,0,0,6.31-3.62V109.37a20,20,0,0,0-5.05-1.94,25.61,25.61,0,0,0-6.5-.81,20,20,0,0,0-7.15,1.27,13.88,13.88,0,0,0-5.86,4.23,21.78,21.78,0,0,0-3.94,8A45.52,45.52,0,0,0,579,132.58a44.23,44.23,0,0,0,1.3,11.69,20.91,20.91,0,0,0,3.48,7.45,12,12,0,0,0,5.1,3.92A16.91,16.91,0,0,0,595,156.77Z"/></svg>