<svg id="Layer_1" data-name="Layer 1" xmlns="http://www.w3.org/2000/svg" viewBox="0 0 844.9 246.2"><title>alphabet</title><path d="M66.6,79.9H76.9v31.2a28.3,28.3,0,0,1,6.6-6.5c3.3-2.2,7.4-3.2,12.4-3.2q13.35,0,18,9.3c1.7,3.4,2.6,8.1,2.6,14.1V164H106V125.5c0-4.5-.6-7.8-1.7-9.9-1.9-3.3-5.4-5-10.5-5A17.69,17.69,0,0,0,82.2,115c-3.5,2.9-5.2,8.5-5.2,16.6V164H66.6Z"/><path d="M163.9,127c2.4-.3,3.9-1.3,4.7-3a8.24,8.24,0,0,0,.7-3.9c0-3.5-1.2-6.1-3.7-7.6s-6-2.4-10.7-2.4c-5.3,0-9.1,1.5-11.4,4.4q-2,2.4-2.4,7.2h-9.6c.2-7.5,2.6-12.8,7.3-15.8a29.5,29.5,0,0,1,16.3-4.4c7.2,0,13,1.4,17.5,4.1s6.7,7,6.7,12.8v35.2a4.21,4.21,0,0,0,.7,2.6,3.34,3.34,0,0,0,2.8,1,7.57,7.57,0,0,0,1.5-.1,13.49,13.49,0,0,0,1.8-.3v7.6c-1.6.5-2.8.7-3.6.9a28.17,28.17,0,0,1-3.4.2c-3.5,0-6.1-1.3-7.7-3.8a16,16,0,0,1-1.8-5.6,26.52,26.52,0,0,1-9,7.1,27.85,27.85,0,0,1-12.9,3c-5.7,0-10.3-1.7-13.9-5.2a17,17,0,0,1-5.4-12.9c0-5.7,1.8-10,5.3-13.2s8.2-5,13.9-5.8Zm-21.6,27.7a12.14,12.14,0,0,0,7.7,2.6,23.16,23.16,0,0,0,10.5-2.5c5.7-2.8,8.6-7.3,8.6-13.6v-8.3a17.78,17.78,0,0,1-4.8,2,42.11,42.11,0,0,1-5.8,1.1l-6.2.8a26.09,26.09,0,0,0-8.4,2.3,9,9,0,0,0-4.8,8.5A8.58,8.58,0,0,0,142.3,154.7Z"/><path d="M195.8,102.9h9.7v8.7a27,27,0,0,1,9.2-7.7,23.78,23.78,0,0,1,10.8-2.3c8.7,0,14.5,3,17.6,9.1,1.7,3.3,2.5,8,2.5,14.2v39.2H235.2V125.6a20.92,20.92,0,0,0-1.7-9q-2.7-5.7-9.9-5.7a20.58,20.58,0,0,0-6,.7,16.54,16.54,0,0,0-10.7,11.2,42.06,42.06,0,0,0-.8,9.2v32H195.8V102.9Z"/><path d="M293.9,104.8a25.91,25.91,0,0,1,6.2,6V79.9H310v84h-9.2v-8.5a22.11,22.11,0,0,1-8.5,8.2,24,24,0,0,1-11.2,2.5c-6.8,0-12.6-2.9-17.6-8.6s-7.4-13.3-7.4-22.8c0-8.9,2.3-16.6,6.8-23.1s11-9.8,19.4-9.8A21.06,21.06,0,0,1,293.9,104.8ZM271,150.6c2.8,4.4,7.2,6.6,13.3,6.6,4.7,0,8.6-2,11.7-6.1s4.6-9.9,4.6-17.6-1.6-13.4-4.7-17.1a14.63,14.63,0,0,0-11.6-5.6,15.49,15.49,0,0,0-12.5,5.9q-4.8,6-4.8,17.4C266.9,140.7,268.3,146.1,271,150.6Z"/><path d="M324.7,80.2h9.9v48.6l26.3-25.9H374l-23.5,22.7L375.3,164H362.2L343,132.9l-8.4,8.2V164h-9.9Z"/><path d="M420.7,104.6a23.18,23.18,0,0,1,9.2,7.9,28.6,28.6,0,0,1,4.1,10.8,71.59,71.59,0,0,1,.9,13.5H390.5c.2,6.2,1.6,11.2,4.4,15s6.9,5.6,12.6,5.6c5.3,0,9.6-1.8,12.7-5.3a18.47,18.47,0,0,0,3.8-7.2h10.1a20.78,20.78,0,0,1-2.7,7.5,28.54,28.54,0,0,1-5,6.8,24.3,24.3,0,0,1-11.5,6.2,35.18,35.18,0,0,1-8.3.9,25.43,25.43,0,0,1-19.2-8.3c-5.3-5.5-7.9-13.3-7.9-23.2s2.6-17.8,7.9-23.9,12.2-9.2,20.7-9.2A24.34,24.34,0,0,1,420.7,104.6Zm3.7,23.9a27.25,27.25,0,0,0-2.9-10.7c-2.8-4.9-7.4-7.4-14-7.4a15.52,15.52,0,0,0-11.8,5.1c-3.2,3.4-4.8,7.7-5,13Z"/><path d="M447.9,102.9h9.7v10.5c.8-2.1,2.8-4.6,5.9-7.5a15.37,15.37,0,0,1,10.8-4.4,4.59,4.59,0,0,1,1,.1c.5,0,1.2.1,2.3.2v10.8a11.14,11.14,0,0,0-1.7-.2c-.5,0-1.1-.1-1.7-.1-5.2,0-9.1,1.7-11.9,5a17.36,17.36,0,0,0-4.2,11.5v35.1H447.8v-61Z"/><path d="M526.5,106.1c4.3,3.3,6.9,9.1,7.8,17.3h-10a18.09,18.09,0,0,0-4.2-9.4c-2.2-2.5-5.6-3.7-10.4-3.7-6.5,0-11.2,3.2-14,9.6q-2.7,6.15-2.7,15.3c0,6.1,1.3,11.3,3.9,15.4s6.7,6.3,12.2,6.3c4.3,0,7.6-1.3,10.1-3.9a21.6,21.6,0,0,0,5.2-10.6h10c-1.1,8.1-4,14-8.6,17.8s-10.4,5.6-17.5,5.6c-8,0-14.3-2.9-19.1-8.8s-7.1-13.1-7.1-21.9c0-10.7,2.6-19.1,7.8-25a25.12,25.12,0,0,1,19.9-9C516.5,101.1,522.1,102.8,526.5,106.1Z"/><path d="M544.1,79.9h10.3v31.2a28.3,28.3,0,0,1,6.6-6.5c3.3-2.2,7.4-3.2,12.4-3.2q13.35,0,18,9.3c1.7,3.4,2.6,8.1,2.6,14.1V164H583.5V125.5c0-4.5-.6-7.8-1.7-9.9-1.9-3.3-5.4-5-10.5-5a17.69,17.69,0,0,0-11.6,4.4c-3.5,2.9-5.2,8.5-5.2,16.6V164H544.2V79.9Z"/><path d="M608.7,80.2h10.4V91.8H608.7Zm0,23h10.4V164H608.7Z"/><path d="M672,104.6a23.18,23.18,0,0,1,9.2,7.9,28.6,28.6,0,0,1,4.1,10.8,71.59,71.59,0,0,1,.9,13.5H641.8c.2,6.2,1.6,11.2,4.4,15s6.9,5.6,12.6,5.6c5.3,0,9.6-1.8,12.7-5.3a18.47,18.47,0,0,0,3.8-7.2h10.1a20.78,20.78,0,0,1-2.7,7.5,28.54,28.54,0,0,1-5,6.8,24.3,24.3,0,0,1-11.5,6.2,35.18,35.18,0,0,1-8.3.9,25.43,25.43,0,0,1-19.2-8.3c-5.3-5.5-7.9-13.3-7.9-23.2s2.6-17.8,7.9-23.9,12.2-9.2,20.7-9.2A24.34,24.34,0,0,1,672,104.6Zm3.7,23.9a27.25,27.25,0,0,0-2.9-10.7c-2.8-4.9-7.4-7.4-14-7.4a15.52,15.52,0,0,0-11.8,5.1c-3.2,3.4-4.8,7.7-5,13Z"/><path d="M703.7,84.2c2.4-3.5,7-5.2,13.9-5.2a14.08,14.08,0,0,1,2,.1,19.53,19.53,0,0,1,2.3.2v9.4c-1.1-.1-1.9-.1-2.3-.1h-1.4c-3.2,0-5,.8-5.7,2.4s-.9,5.7-.9,12.3h10.3v8.1H711.6v52.7H701.5V111.4H693v-8.1h8.5V93.7C701.6,89.3,702.4,86.2,703.7,84.2Z"/><path d="M737.1,144.8a15.38,15.38,0,0,0,2.6,7.9c2.6,3.3,7.2,5,13.7,5a19.78,19.78,0,0,0,10.2-2.5,8.32,8.32,0,0,0,4.4-7.7,6.69,6.69,0,0,0-3.5-6,45.27,45.27,0,0,0-8.9-2.9l-8.3-2.1c-5.3-1.3-9.2-2.7-11.7-4.3-4.5-2.8-6.7-6.6-6.7-11.5a17.35,17.35,0,0,1,6.3-14c4.2-3.6,9.9-5.4,17-5.4,9.3,0,16,2.7,20.2,8.1a17.78,17.78,0,0,1,3.8,11.1h-9.7a11.55,11.55,0,0,0-2.5-6.3c-2.4-2.7-6.6-4-12.5-4-4,0-7,.7-9,2.2a7,7,0,0,0-3.1,5.9c0,2.7,1.3,4.8,4,6.4a24.11,24.11,0,0,0,6.9,2.5l6.9,1.7c7.5,1.8,12.5,3.5,15.1,5.2,4,2.6,6,6.7,6,12.4a18.86,18.86,0,0,1-6.3,14.1c-4.2,4-10.5,5.9-19.1,5.9-9.2,0-15.7-2.1-19.5-6.2a22.89,22.89,0,0,1-6.1-15.3h9.8Z"/></svg>