<svg id="Layer_1" data-name="Layer 1" xmlns="http://www.w3.org/2000/svg" viewBox="0 0 700 700"><title>alphabet</title><path d="M429.69,152.08c0-35.84-8.81-54.7-39-67.28V83.55H485V486c0,35.84,8.8,54.7,39,67.28v1.26H429.69V469.6C417.11,518,375,560.77,315.88,560.77c-77.34,0-140.21-57.84-140.21-156.56,0-98.08,62.87-161.59,140.21-161.59,59.1,0,101.23,42.76,113.81,91.17Zm0,272.88v-45.9c0-68.53-50.3-109.4-95.57-109.4-59.74,0-97.46,53.44-97.46,134.55,0,80.48,37.72,129.53,97.46,129.53C379.39,533.74,429.69,493.5,429.69,425Z"/></svg>