<svg id="Layer_1" data-name="Layer 1" xmlns="http://www.w3.org/2000/svg" viewBox="0 0 844.9 246.2"><title>alphabet</title><path d="M162.68,105.39a20.05,20.05,0,0,1,22,.06,22,22,0,0,1,7.64,9.77,39,39,0,0,1,2.78,15.44,48.08,48.08,0,0,1-2.81,16.54,28.32,28.32,0,0,1-8.73,12.55q-5.92,4.83-14.8,4.83a18.17,18.17,0,0,1-8-1.71,14,14,0,0,1-5.53-4.52v14.71q0,4.66,2.76,6.48t8.31,1.83v2.41c-1,0-3.16-.13-6.55-.28s-6.73-.22-10-.22q-3.64,0-7.52.22l-4.89.28v-2.41c2.81,0,4.77-.52,5.9-1.55s1.68-2.89,1.68-5.58V116.29c0-3.56-.64-6.14-1.94-7.75s-3.56-2.42-6.82-2.42v-2.41c2.4.22,4.77.34,7.13.34a38,38,0,0,0,12-1.58V114.6A20.82,20.82,0,0,1,162.68,105.39ZM160,160a13.34,13.34,0,0,0,7.41,2q16.45,0,16.45-29.7,0-26.68-13.36-26.68a13.57,13.57,0,0,0-9.35,3.74q-4.12,3.74-5.93,10.81v34.42A13.38,13.38,0,0,0,160,160Z"/><path d="M249.29,156.69a22.63,22.63,0,0,1-7.36,5.7,21.83,21.83,0,0,1-9.85,2.19,26.3,26.3,0,0,1-14.18-3.73,23.94,23.94,0,0,1-9.13-10.51,36.67,36.67,0,0,1-3.14-15.58,43.33,43.33,0,0,1,3.2-17.35,25.5,25.5,0,0,1,9.07-11.31,24,24,0,0,1,13.73-4q10.34,0,15.92,6.26t5.58,19H217.2a55.88,55.88,0,0,0-.4,7.35A32.7,32.7,0,0,0,219.3,148a21.34,21.34,0,0,0,6.54,8.71,14,14,0,0,0,8.54,3q11.56,0,16.9-11.51l2.3.9A23.16,23.16,0,0,1,249.29,156.69Zm-8.17-42a17.27,17.27,0,0,0-3.71-7.58,8,8,0,0,0-6.23-2.81,10.55,10.55,0,0,0-6.52,2.27,17.28,17.28,0,0,0-5,7A36.34,36.34,0,0,0,217,125.22h25A37.78,37.78,0,0,0,241.12,114.72Z"/><path d="M284.55,109.89a21.75,21.75,0,0,1,5.81-5.56,12.87,12.87,0,0,1,7.13-2.19,11.78,11.78,0,0,1,5.42,1.21,9.32,9.32,0,0,1,3.73,3.28,8.19,8.19,0,0,1,1.35,4.55,7.66,7.66,0,0,1-1.8,5.14,5.94,5.94,0,0,1-4.77,2.1,6.26,6.26,0,0,1-4.32-1.6,5.53,5.53,0,0,1-1.8-4.35q0-3.77,3.93-6.23a2.74,2.74,0,0,0-2.41-1.13,11.57,11.57,0,0,0-8.2,3.49,24.44,24.44,0,0,0-5.73,8.59,25.53,25.53,0,0,0-2.08,9.54V151.1q0,5.34,3,7.39c2,1.36,5.07,2,9.15,2V163q-14.14-.45-17.69-.45-3,0-13.59.45v-2.41a14.76,14.76,0,0,0,5.14-.73,5,5,0,0,0,2.75-2.53,11.69,11.69,0,0,0,.87-5v-36c0-3.56-.64-6.14-1.94-7.75s-3.56-2.42-6.82-2.42v-2.41c2.4.22,4.77.34,7.13.34a38,38,0,0,0,12-1.58v14.38A27.73,27.73,0,0,1,284.55,109.89Z"/><path d="M321.3,152.51a15.05,15.05,0,0,0,4.83,7.18q3.25,2.59,8.76,2.59a11.27,11.27,0,0,0,4.85-1.1,9,9,0,0,0,3.85-3.54,11.79,11.79,0,0,0,1.52-6.31,10.32,10.32,0,0,0-1.6-5.65,18.07,18.07,0,0,0-4.19-4.49q-2.58-2-7.24-4.91-5.67-3.6-8.68-5.9a21.18,21.18,0,0,1-5.08-5.61,14.44,14.44,0,0,1-2.08-7.81,14.09,14.09,0,0,1,2.31-8.22,13.78,13.78,0,0,1,6.14-5,21.71,21.71,0,0,1,8.57-1.63,19.46,19.46,0,0,1,7.27,1.29,20.4,20.4,0,0,1,5.25,2.92,3.65,3.65,0,0,0,2,1q2,0,2.58-5H353q-.45,5.61-.45,19.54h-2.63a28.57,28.57,0,0,0-4.89-12.52q-3.65-4.93-10.78-4.94a9.92,9.92,0,0,0-6.8,2.33,8.18,8.18,0,0,0-2.63,6.48,8.93,8.93,0,0,0,2.72,6.66,38.39,38.39,0,0,0,6.57,5.08c2.56,1.61,4.39,2.77,5.47,3.48a94.52,94.52,0,0,1,8.51,6.09,22.61,22.61,0,0,1,5.22,6.12,15.53,15.53,0,0,1,2,7.89,14.28,14.28,0,0,1-2.67,8.73,16.72,16.72,0,0,1-7.16,5.51,25.28,25.28,0,0,1-9.83,1.88,23.77,23.77,0,0,1-9.09-1.63,27.44,27.44,0,0,1-4.72-3.09,1.47,1.47,0,0,0-1.07-.45q-1.68,0-2.36,4.33h-2.64q.45-6.57.45-23h2.64A58.08,58.08,0,0,0,321.3,152.51Z"/><path d="M405.55,105.45a22.9,22.9,0,0,1,9.27,10.3q3.39,7,3.39,17.66t-3.39,17.64a22.74,22.74,0,0,1-9.27,10.24,29.14,29.14,0,0,1-26.9,0,22.67,22.67,0,0,1-9.26-10.24q-3.4-7-3.4-17.64t3.4-17.66a22.82,22.82,0,0,1,9.26-10.3,29,29,0,0,1,26.9,0Zm-24.37,6.07q-4,7.07-4,21.89t4,21.82q4,7.05,10.92,7.05T403,155.23q4-7,4-21.82t-4-21.89q-4-7.08-10.93-7.08T381.18,111.52Z"/><path d="M453.9,105.42a21,21,0,0,1,11.59-3.28q8,0,12.19,4.32a13.9,13.9,0,0,1,3.06,5.81,37.71,37.71,0,0,1,.92,9.3v30.71a11.69,11.69,0,0,0,.87,5,5,5,0,0,0,2.75,2.53,14.79,14.79,0,0,0,5.14.73V163q-10.56-.45-13.81-.45t-12.86.45v-2.41a11.08,11.08,0,0,0,4.46-.73,4.59,4.59,0,0,0,2.36-2.53,13.12,13.12,0,0,0,.76-5V119a32.35,32.35,0,0,0-.64-7,8.24,8.24,0,0,0-2.7-4.55,9,9,0,0,0-6-1.74,13.71,13.71,0,0,0-8.4,2.75,17.71,17.71,0,0,0-5.69,7.55,27.12,27.12,0,0,0-2,10.64v25.55a13.32,13.32,0,0,0,.76,5,4.61,4.61,0,0,0,2.39,2.53,11.31,11.31,0,0,0,4.49.73V163q-9.66-.45-12.91-.45T426.8,163v-2.41a14.76,14.76,0,0,0,5.14-.73,5,5,0,0,0,2.75-2.53,11.69,11.69,0,0,0,.87-5v-36c0-3.56-.64-6.14-1.94-7.75s-3.56-2.42-6.82-2.42v-2.41c2.4.22,4.77.34,7.13.34a38,38,0,0,0,12-1.58V116Q448.76,108.71,453.9,105.42Z"/><path d="M526.05,106.88q-2.77-2.44-7.89-2.44-8.14,0-11.4,4.1a7,7,0,0,1,5.39,7,5.88,5.88,0,0,1-1.82,4.57,7,7,0,0,1-4.92,1.66,5.65,5.65,0,0,1-4.57-2,7.74,7.74,0,0,1-1.66-5.17q0-4.48,5.39-8.2a26.47,26.47,0,0,1,6.94-3.09,32.06,32.06,0,0,1,9.18-1.23,27.22,27.22,0,0,1,8.31,1.15,13.67,13.67,0,0,1,5.61,3.17,14.22,14.22,0,0,1,3.62,6.26,38.57,38.57,0,0,1,1,9.86v32a8.08,8.08,0,0,0,.81,4.15,3,3,0,0,0,2.72,1.29,5.52,5.52,0,0,0,2.59-.61,14.93,14.93,0,0,0,2.58-1.8l1.29,2c-1.35,1-2.47,1.79-3.37,2.35a12.08,12.08,0,0,1-3.09,1.35,14.38,14.38,0,0,1-4,.51c-3.7,0-6.28-.93-7.72-2.78a11.81,11.81,0,0,1-2.16-7.44,20,20,0,0,1-8.09,7.89,21.48,21.48,0,0,1-9.6,2.33,18.8,18.8,0,0,1-7.3-1.38,11.81,11.81,0,0,1-5.31-4.27,12.45,12.45,0,0,1-2-7.21,12.77,12.77,0,0,1,2.14-7.47,19,19,0,0,1,6-5.42,85.28,85.28,0,0,1,10.39-5.08l5.5-2.25a21.34,21.34,0,0,0,6.32-3.59,5.32,5.32,0,0,0,1.94-3.93V116Q528.83,109.32,526.05,106.88Zm0,23.39q-2,1.13-8.2,4.16a35.63,35.63,0,0,0-5.61,3.22,14.08,14.08,0,0,0-3.93,4.47,13.5,13.5,0,0,0-1.63,6.9c0,3.34.84,5.85,2.53,7.56a9,9,0,0,0,6.68,2.55q7.64,0,13-8.7V127.86A8,8,0,0,1,526,130.27Z"/><path d="M571.7,157.28a5,5,0,0,0,2.75,2.53,14.76,14.76,0,0,0,5.14.73V163q-10.56-.45-13.93-.45c-2.24,0-6.89.15-13.92.45v-2.41a14.69,14.69,0,0,0,5.13-.73,4.94,4.94,0,0,0,2.76-2.53,11.69,11.69,0,0,0,.87-5V86.58c0-3.55-.65-6.13-1.94-7.72s-3.57-2.38-6.82-2.38V74.06q3.59.34,7.13.34a36.13,36.13,0,0,0,12-1.63v79.51A11.69,11.69,0,0,0,571.7,157.28Z"/><path d="M605.28,157.28a4.92,4.92,0,0,0,2.75,2.53,14.69,14.69,0,0,0,5.13.73V163c-7-.3-11.68-.45-13.92-.45s-6.89.15-13.93.45v-2.41a14.76,14.76,0,0,0,5.14-.73,5,5,0,0,0,2.75-2.53,11.69,11.69,0,0,0,.87-5v-36q0-5.34-1.93-7.75c-1.3-1.61-3.57-2.42-6.83-2.42v-2.41c2.4.22,4.78.34,7.13.34a38,38,0,0,0,12-1.58v49.81A11.52,11.52,0,0,0,605.28,157.28ZM602.1,76a7.67,7.67,0,0,1,2.7,2.7,7,7,0,0,1,1,3.65,7.12,7.12,0,0,1-1,3.67,7.44,7.44,0,0,1-2.7,2.7,7.16,7.16,0,0,1-3.65,1,7.28,7.28,0,0,1-3.67-1,7.07,7.07,0,0,1-2.7-2.7,7.19,7.19,0,0,1-1-3.67,7.06,7.06,0,0,1,1-3.65,7.29,7.29,0,0,1,2.7-2.7,7.12,7.12,0,0,1,3.67-1A7,7,0,0,1,602.1,76Z"/><path d="M654.49,103.82v2.3h-17v44.53c0,3.48.61,6,1.85,7.5a6.66,6.66,0,0,0,5.5,2.27,7.85,7.85,0,0,0,6.12-2.86q2.53-2.87,4.27-9.43l2.25.56q-2.82,15.88-14.94,15.89a18.74,18.74,0,0,1-6.4-.93,12.24,12.24,0,0,1-4.49-2.89,14,14,0,0,1-3.49-6.2,39.05,39.05,0,0,1-1-9.91V106.12H616.08v-2.3h11.06V86.25a32.78,32.78,0,0,0,10.34-1.63v19.2Z"/><path d="M704.29,104.05c3.41,0,6.33-.12,8.76-.34V106a6.9,6.9,0,0,0-4.1,2.08,17.21,17.21,0,0,0-3.37,6l-18.86,49.41-3.93,10q-2.19,5.67-4.94,8.08c-2.18,2-5.17,3-9,3a8.45,8.45,0,0,1-5.61-1.83,6.24,6.24,0,0,1-2.19-5.08,5.65,5.65,0,0,1,6.12-6.06,6.27,6.27,0,0,1,4.18,1.4,5,5,0,0,1,1.66,4,5.59,5.59,0,0,1-3.09,5.16,1.46,1.46,0,0,0,.67.12q6.35,0,9.77-9l4.1-10.5-20.89-50.2q-2-4-3.9-5.22a7.22,7.22,0,0,0-3.9-1.24v-2.41a83.46,83.46,0,0,0,11.29.73q4.93,0,14.93-.73v2.41a37.6,37.6,0,0,0-4.38.2,4.89,4.89,0,0,0-2.61,1.07,3.36,3.36,0,0,0-1,2.72,16.3,16.3,0,0,0,1.46,5.67l13.87,34.37L702,116.85a16.76,16.76,0,0,0,1.24-5.28,4.41,4.41,0,0,0-2.05-4q-2.05-1.29-6.54-1.57v-2.3C698.68,103.93,701.9,104.05,704.29,104.05Z"/></svg>