<svg id="Layer_1" data-name="Layer 1" xmlns="http://www.w3.org/2000/svg" viewBox="0 0 700 700"><title>alphabet</title><path d="M268.79,634.68q-12.75,0-26.77-1.16t-27.45-3.25V601.08A389.93,389.93,0,0,0,263,594.24a129.51,129.51,0,0,0,37.31-13.78,98.6,98.6,0,0,0,28.62-25q12.39-15.75,22.59-40.55H327.64L243.53,292.21a19.18,19.18,0,0,0-5.33-8.11,21.65,21.65,0,0,0-8.57-4.4l-19.23-5.33V251.43l125.35.24V274.6l-39.62,6.73,69.51,193,60.94-193-37.77-7V251.43H489.6v22.94l-19,5.33a24.8,24.8,0,0,0-8.92,4.4q-3.36,2.79-5.21,8.81l-79,231.94Q358,581.15,333.55,607.91T268.79,634.68Z"/></svg>