<svg id="Layer_1" data-name="Layer 1" xmlns="http://www.w3.org/2000/svg" viewBox="0 0 844.9 246.2"><title>alphabet</title><path d="M189,133.83q0,15.18-7.65,23.71t-21.12,8.52a28,28,0,0,1-14.79-3.91,25.78,25.78,0,0,1-10-11.21,39.1,39.1,0,0,1-3.51-17.11q0-15.18,7.59-23.64t21.07-8.47q13,0,20.7,8.66T189,133.83Zm-47.3,0q0,11.89,4.76,18.13t14,6.23q9.24,0,14-6.2t4.79-18.16q0-11.84-4.79-18t-14.13-6.15q-9.24,0-13.93,6.07T141.68,133.83Z"/><path d="M218.13,164.93l-23.56-62.08h10.08L218,139.67q4.53,12.92,5.33,16.76h.45A128.5,128.5,0,0,1,227.73,144q3.32-9.44,14.87-41.15h10.08l-23.56,62.08Z"/><path d="M287.94,166.06q-13.76,0-21.72-8.38t-8-23.28q0-15,7.4-23.85t19.85-8.83q11.67,0,18.46,7.67t6.8,20.25v6H268q.27,10.93,5.52,16.6t14.75,5.66a50.1,50.1,0,0,0,19.83-4.19V162a50.17,50.17,0,0,1-9.43,3.09A53.37,53.37,0,0,1,287.94,166.06Zm-2.55-56.47q-7.47,0-11.92,4.87t-5.24,13.48h32.46c0-5.92-1.32-10.47-4-13.62S290.3,109.59,285.39,109.59Z"/><path d="M354.19,101.72a36.27,36.27,0,0,1,7.42.68l-1.3,8.72a31.87,31.87,0,0,0-6.8-.85,16.52,16.52,0,0,0-12.88,6.12,22.31,22.31,0,0,0-5.36,15.23v33.31h-9.4V102.85h7.76l1.08,11.5h.45a27.26,27.26,0,0,1,8.33-9.35A18.7,18.7,0,0,1,354.19,101.72Z"/><path d="M423,164.93,411.6,128.51q-1.07-3.34-4-15.18h-.45q-2.26,9.92-4,15.29l-11.72,36.31H380.56l-16.93-62.08h9.85q6,23.4,9.15,35.63t3.6,16.48h.45c.42-2.15,1.09-4.94,2-8.35s1.73-6.13,2.41-8.13l11.38-35.63h10.2l11.1,35.63a120,120,0,0,1,4.31,16.37h.45a60,60,0,0,1,1.22-6.29q1-4.25,11.81-45.71h9.74l-17.16,62.08Z"/><path d="M504.08,164.93V124.77q0-7.59-3.46-11.33T489.8,109.7q-9.8,0-14.3,5.33T471,132.47v32.46h-9.4V76.8H471v26.67a56.77,56.77,0,0,1-.46,8h.57a19.18,19.18,0,0,1,7.9-7,25.69,25.69,0,0,1,11.7-2.58q11.39,0,17.08,5.41t5.69,17.19v40.5Z"/><path d="M558.09,166.06q-13.77,0-21.72-8.38t-8-23.28q0-15,7.39-23.85t19.85-8.83q11.67,0,18.47,7.67t6.79,20.25v6H538.15q.29,10.93,5.52,16.6t14.76,5.66a50.06,50.06,0,0,0,19.82-4.19V162a49.71,49.71,0,0,1-9.43,3.09A53.2,53.2,0,0,1,558.09,166.06Zm-2.55-56.47q-7.47,0-11.92,4.87t-5.24,13.48h32.45c0-5.92-1.32-10.47-4-13.62S560.45,109.59,555.54,109.59Z"/><path d="M605.42,164.93H596V76.8h9.4Z"/><path d="M703.56,164.93V124.54q0-7.41-3.18-11.13t-9.85-3.71q-8.79,0-13,5t-4.19,15.52v34.66H664V124.54q0-7.41-3.17-11.13t-9.91-3.71q-8.83,0-12.94,5.3t-4.11,17.36v32.57h-9.4V102.85h7.65l1.52,8.5h.46a18.44,18.44,0,0,1,7.5-7.08,22.94,22.94,0,0,1,10.85-2.55q14.55,0,19,10.53h.45a19.81,19.81,0,0,1,8.05-7.7,24.91,24.91,0,0,1,12-2.83q10.54,0,15.78,5.41t5.24,17.3v40.5Z"/></svg>