<svg id="Layer_1" data-name="Layer 1" xmlns="http://www.w3.org/2000/svg" viewBox="0 0 844.9 246.2"><title>alphabet</title><path d="M106.6,159.4l8.3-2.8V77l-8.4-2.5V70.3l19.6-4.6v91.1l8.9,2.6v4.5H106.6Z"/><path d="M144.6,150.4c0-10.5,7.6-15.3,21.2-18.8l13.6-3.6v-6.8c-.3-10.1-5.5-15.4-12.5-15.4a16.65,16.65,0,0,0-8.3,2.4l-.5,13s-3.3.4-5.3.4c-4.2,0-6.3-2.1-6.3-5.7,0-6.1,11.6-15.7,25.1-15.7,13.3,0,19.1,6.1,19.1,19.1v35.5c0,2.6.7,3.6,4.3,3.6h6.6v3.7s-7.6,3.3-12.5,3.3c-6.7,0-9.5-4.6-9.5-10.3h-.4c-7.4,7-10.5,10.7-18.8,10.7C153.4,165.8,144.6,161,144.6,150.4Zm34.7-.6V132.4l-12.6,4.2c-6.2,2.1-10.1,4.6-10.1,10.1,0,6.7,5.1,10.1,10.8,10.1C173.7,156.9,177.8,152.2,179.3,149.8Z"/><path d="M288,159.4l7.5-2.6V123.5c-.5-9.2-3.3-14.3-12.1-14.3-7.8,0-14.1,5.4-16.1,7.5v40.1l8.6,2.8v4.3H248.7v-4.5l7.5-2.6V123.5c-.5-9.2-3.3-14.3-12.1-14.3-8.6,0-16.1,7.2-16.1,7.5v40.1l8.7,2.6v4.5H208.5v-4.5l8.3-2.8V112.3l-8.8-2.1v-3.6l16.2-6.3h.7l2.9,12h.1c2.2-2.6,10.5-12,21.6-12,11.4,0,15.5,4.7,16.7,13h.3c1.3-1.7,10.3-13,22.5-13s17.8,5.3,17.8,22.1v34.3l8.6,2.8v4.3H288Z"/><path d="M323.3,135.3c0-19.6,12.6-35,31.1-35,14.6,0,23.2,9.9,23.2,27.9H334v1.3c0,16.3,9.3,26.5,23,26.5,11.2,0,18.3-9.9,18.3-9.9l2.6,1.6S371.7,166,352.1,166C330.3,166,323.3,146.6,323.3,135.3Zm11.3-12.2h29.7c-.1-8.9-4.2-17-12.9-17C343.2,106.1,336.6,113.3,334.6,123.1Z"/><path d="M388.8,159.4l8.3-2.8V112.3l-8.8-2.1v-3.6l16.2-6.3h.7l2.9,12h.1c2.2-2.6,10.5-12,21.6-12,12.2,0,17.9,5.3,17.9,22.1v34.3l8.6,2.8v4.3H429v-4.5l7.5-2.6V123.4c-.5-9.2-3.3-14.3-12.1-14.3-8.6,0-16.1,7.2-16.1,7.5v40.1l8.7,2.6v4.5H388.8Z"/><path d="M470.7,151l.4-42.4h-9.2v-5.5l9.6-2.4L477.3,85h4.5v17h17.6v7H482v36.7c0,10.5,3.8,11.3,8.8,11.3a78.09,78.09,0,0,0,9.9-.9l.8,3.3a31.12,31.12,0,0,1-17.5,5.9C473.6,165.3,470.5,159.1,470.7,151Z"/><path d="M509.6,150.4c0-10.5,7.6-15.3,21.2-18.8l13.6-3.6v-6.8c-.3-10.1-5.5-15.4-12.5-15.4a16.65,16.65,0,0,0-8.3,2.4l-.5,13s-3.3.4-5.3.4c-4.2,0-6.3-2.1-6.3-5.7,0-6.1,11.6-15.7,25.1-15.7,13.3,0,19.1,6.1,19.1,19.1v35.5c0,2.6.7,3.6,4.3,3.6h6.6v3.7s-7.6,3.3-12.5,3.3c-6.7,0-9.5-4.6-9.5-10.3h-.4c-7.4,7-10.5,10.7-18.8,10.7C518.4,165.8,509.6,161,509.6,150.4Zm34.8-.6V132.4l-12.6,4.2c-6.2,2.1-10.1,4.6-10.1,10.1,0,6.7,5.1,10.1,10.8,10.1C538.7,156.9,542.8,152.2,544.4,149.8Z"/><path d="M584.4,163.5l-4.9-2.1V77l-8.2-2.5V70.3l19.3-4.6v44.7c2.4-3.3,8.7-10.1,19.3-10.1,12.2,0,25,8.4,25,29.9,0,20.4-17.1,35.8-35,35.8C592.6,166,587.5,164.8,584.4,163.5Zm6.3-48.5v39.9s5.8,5.3,13.6,5.3c9.6,0,19.5-9.1,19.5-26.5,0-15.3-8-25-19.3-25C598,108.7,592.9,112.8,590.7,115Z"/><path d="M643.6,159.4l8.3-2.8V77l-8.4-2.5V70.3l19.6-4.6v91.1l8.9,2.6v4.5H643.6v-4.5Z"/><path d="M720,106v-4h22.1v4.1l-6.1,2.6-29.2,72.9c-4.1,10.4-7.2,15.5-13.9,15.5-4.3,0-8.2-3-8.2-7.4a6.24,6.24,0,0,1,6.6-6.6c3.2,0,5,2,6.4,4.7h.3l7.8-18.2-23.3-61.2-6.2-2.5V102h28.6v4.1l-9.6,2.5,16.3,46.1h.4l17.1-45.4Z"/></svg>