<svg id="Layer_1" data-name="Layer 1" xmlns="http://www.w3.org/2000/svg" viewBox="0 0 844.9 246.2"><title>alphabet</title><path d="M70.5,122.5c0-6.5,2.4-11.6,7.1-15.4s11.2-5.7,19.5-5.7h25.2v9.4H110a26,26,0,0,1,5,6.6,16.52,16.52,0,0,1,1.4,6.8,18.45,18.45,0,0,1-2.7,9.4,19.09,19.09,0,0,1-7,7.1c-2.9,1.6-7.5,2.9-14,3.9-4.6.7-6.8,2.2-6.8,4.7,0,1.4.9,2.6,2.6,3.5s4.8,1.8,9.3,2.8c7.5,1.6,12.3,2.9,14.4,3.8a18.85,18.85,0,0,1,5.8,4,15,15,0,0,1,4.4,11c0,5.8-2.6,10.4-7.7,13.9s-12,5.2-20.7,5.2-15.7-1.7-20.9-5.2-7.8-8.1-7.8-14c0-8.3,5.1-13.6,15.3-16-4.1-2.6-6.1-5.2-6.1-7.8a7.29,7.29,0,0,1,2.6-5.3,15.29,15.29,0,0,1,7.1-3.5C75,137.8,70.5,131.4,70.5,122.5Zm19.9,42.8a17.88,17.88,0,0,0-10,2.6q-3.9,2.55-3.9,6.6c0,6.3,5.7,9.4,17,9.4,5.4,0,9.5-.8,12.4-2.4s4.4-3.8,4.4-6.7-1.9-5.1-5.6-6.9S96.3,165.3,90.4,165.3Zm2.8-53.4a11.7,11.7,0,0,0-8.4,3.3,10.76,10.76,0,0,0-3.5,8,10.09,10.09,0,0,0,3.4,7.8,13.18,13.18,0,0,0,17.1-.1,10.16,10.16,0,0,0,3.4-7.9,10.6,10.6,0,0,0-3.5-8A11.56,11.56,0,0,0,93.2,111.9Z"/><path d="M144.2,101.4v14l.7-1.1c5.8-9.4,11.7-14.1,17.5-14.1,4.6,0,9.3,2.3,14.3,6.9l-6.4,10.6q-6.3-6-11.7-6c-3.9,0-7.3,1.9-10.1,5.6a20.72,20.72,0,0,0-4.3,13.2v31.9H132V101.3h12.2Z"/><path d="M223,125.7v26c0,2.1.7,3.1,2.1,3.1s3.7-1.1,6.8-3.3v7.4a32.21,32.21,0,0,1-6.6,3.6,15.48,15.48,0,0,1-5.2,1c-5.2,0-8.2-2-9.2-6.1a26.16,26.16,0,0,1-16.4,6,14.47,14.47,0,0,1-10.6-4.2,14.32,14.32,0,0,1-4.2-10.6,15.13,15.13,0,0,1,4.1-10.3,28.93,28.93,0,0,1,11.8-7.2l15.5-5.3v-3.3c0-7.3-3.7-11-11-11q-9.9,0-19.2,10.2V108.5c4.7-5.5,11.4-8.3,20.2-8.3,6.6,0,11.9,1.7,15.9,5.2a18.07,18.07,0,0,1,3.6,4.4,15.31,15.31,0,0,1,2,5.5A80,80,0,0,1,223,125.7Zm-11.9,24.7V132.3l-8.1,3.1a27.75,27.75,0,0,0-8.7,4.9,8.94,8.94,0,0,0-.2,12.4,8.52,8.52,0,0,0,6.3,2.4A15.16,15.16,0,0,0,211.1,150.4Z"/><path d="M239.3,158.1v-13a54.38,54.38,0,0,0,10.5,5.8,24.27,24.27,0,0,0,9,2.2,10.84,10.84,0,0,0,6.5-1.9,5.26,5.26,0,0,0,2.7-4.4,5.88,5.88,0,0,0-1.8-4.4,39.38,39.38,0,0,0-7.6-5.1q-11.7-6.45-15.3-11.1a16,16,0,0,1-3.6-10.1,14.07,14.07,0,0,1,5.5-11.5c3.7-3,8.4-4.4,14.1-4.4,6,0,12.1,1.7,18.4,5v11.9c-7.2-4.3-13-6.5-17.6-6.5a10.07,10.07,0,0,0-5.7,1.5,4.73,4.73,0,0,0-2.2,4,5.92,5.92,0,0,0,2,4.1,32.18,32.18,0,0,0,6.9,4.6l4.3,2.5c10.2,5.8,15.3,12.1,15.3,19.1a15.25,15.25,0,0,1-5.9,12.3c-3.9,3.2-8.9,4.8-15.1,4.8a35.76,35.76,0,0,1-9.7-1.2A62.33,62.33,0,0,1,239.3,158.1Z"/><path d="M291.2,158.1v-13a54.38,54.38,0,0,0,10.5,5.8,24.27,24.27,0,0,0,9,2.2,10.84,10.84,0,0,0,6.5-1.9,5.26,5.26,0,0,0,2.7-4.4,5.88,5.88,0,0,0-1.8-4.4,39.38,39.38,0,0,0-7.6-5.1q-11.7-6.45-15.3-11.1a16,16,0,0,1-3.6-10.1,14.07,14.07,0,0,1,5.5-11.5c3.7-3,8.4-4.4,14.1-4.4,6,0,12.1,1.7,18.4,5v11.9c-7.2-4.3-13-6.5-17.6-6.5a10.07,10.07,0,0,0-5.7,1.5,4.73,4.73,0,0,0-2.2,4,5.92,5.92,0,0,0,2,4.1,32.18,32.18,0,0,0,6.9,4.6l4.3,2.5c10.2,5.8,15.3,12.1,15.3,19.1a15.25,15.25,0,0,1-5.9,12.3c-3.9,3.2-8.9,4.8-15.1,4.8a35.76,35.76,0,0,1-9.7-1.2A62.33,62.33,0,0,1,291.2,158.1Z"/><path d="M345.8,69.7h12.1v39.7c5-6.1,11.3-9.2,18.8-9.2a19.87,19.87,0,0,1,11,3.1,18.51,18.51,0,0,1,7.2,8.4c1.6,3.6,2.4,8.9,2.4,16v34.8H385.2V124.7q0-6.75-3.3-10.8a10.71,10.71,0,0,0-8.7-4.1,14.16,14.16,0,0,0-7.5,2.1,39.88,39.88,0,0,0-7.8,6.8v43.7H345.8Z"/><path d="M442.8,101.2c9.3,0,17,3,23.2,9s9.2,13.5,9.2,22.6a28.46,28.46,0,0,1-9.4,21.9c-6.2,5.8-14.1,8.7-23.6,8.7-9.2,0-16.8-3-23-8.9s-9.2-13.3-9.2-22.1a29.58,29.58,0,0,1,9.3-22.3C425.6,104.2,433.4,101.2,442.8,101.2Zm-.7,10.9a19.13,19.13,0,0,0-14.3,5.7,20.07,20.07,0,0,0-5.6,14.5,19.13,19.13,0,0,0,5.7,14.3c3.8,3.7,8.7,5.5,14.7,5.5a20.15,20.15,0,0,0,14.6-5.6q5.7-5.55,5.7-14.4a19.3,19.3,0,0,0-5.9-14.4A20.87,20.87,0,0,0,442.1,112.1Z"/><path d="M487.4,193.6V101.4h21.1c10.8,0,19.3,2.7,25.3,8.1s9,12.9,9,22.6c0,9.2-2.8,16.7-8.5,22.6s-12.9,8.8-21.7,8.8a38.4,38.4,0,0,1-12.9-2.6v32.7Zm20.9-80.9h-8.5v37.6a25.32,25.32,0,0,0,11.7,2.9,18.05,18.05,0,0,0,13.9-5.9c3.6-3.9,5.4-9,5.4-15.2a21.61,21.61,0,0,0-2.6-10.6,15.11,15.11,0,0,0-7-6.7Q516.7,112.7,508.3,112.7Z"/><path d="M555,193.6V101.4h21.1c10.8,0,19.3,2.7,25.3,8.1s9,12.9,9,22.6c0,9.2-2.8,16.7-8.5,22.6s-12.9,8.8-21.7,8.8a38.4,38.4,0,0,1-12.9-2.6v32.7Zm20.8-80.9h-8.5v37.6a25.32,25.32,0,0,0,11.7,2.9,18.05,18.05,0,0,0,13.9-5.9c3.6-3.9,5.4-9,5.4-15.2a21.61,21.61,0,0,0-2.6-10.6,15.11,15.11,0,0,0-7-6.7Q584.35,112.7,575.8,112.7Z"/><path d="M675.3,133H632.4c.3,5.8,2.3,10.5,5.9,13.9s8.3,5.2,14,5.2a36.44,36.44,0,0,0,22-7.4v11.8a40.1,40.1,0,0,1-11.1,5.3,44.78,44.78,0,0,1-12.8,1.6c-6.7,0-12.2-1.4-16.3-4.2a30.13,30.13,0,0,1-10-11.2,34.52,34.52,0,0,1-3.8-16.4c0-9.3,2.6-16.8,7.9-22.7s12.1-8.7,20.5-8.7c8.1,0,14.6,2.8,19.4,8.5s7.2,13.3,7.2,22.8V133Zm-42.6-7.3h30.7c-.3-4.8-1.7-8.5-4.3-11.1s-6-3.9-10.4-3.9a15.16,15.16,0,0,0-10.7,3.9C635.3,117.2,633.5,120.9,632.7,125.7Z"/><path d="M701,101.4v14l.7-1.1c5.8-9.4,11.7-14.1,17.5-14.1,4.6,0,9.3,2.3,14.3,6.9l-6.4,10.6q-6.3-6-11.7-6c-3.9,0-7.3,1.9-10.1,5.6a20.72,20.72,0,0,0-4.3,13.2v31.9H688.9V101.3H701Z"/><path d="M738.4,158.1v-13a54.38,54.38,0,0,0,10.5,5.8,24.27,24.27,0,0,0,9,2.2,10.84,10.84,0,0,0,6.5-1.9,5.26,5.26,0,0,0,2.7-4.4,5.88,5.88,0,0,0-1.8-4.4,39.38,39.38,0,0,0-7.6-5.1q-11.7-6.45-15.3-11.1a16,16,0,0,1-3.6-10.1,14.07,14.07,0,0,1,5.5-11.5c3.7-3,8.4-4.4,14.1-4.4,6,0,12.1,1.7,18.4,5v11.9c-7.2-4.3-13-6.5-17.6-6.5a10.07,10.07,0,0,0-5.7,1.5,4.73,4.73,0,0,0-2.2,4,5.92,5.92,0,0,0,2,4.1,32.18,32.18,0,0,0,6.9,4.6l4.3,2.5c10.2,5.8,15.3,12.1,15.3,19.1a15.25,15.25,0,0,1-5.9,12.3c-3.9,3.2-8.9,4.8-15.1,4.8a35.76,35.76,0,0,1-9.7-1.2A65.66,65.66,0,0,1,738.4,158.1Z"/></svg>