<?xml version="1.0" encoding="utf-8"?>
<!-- Generator: Adobe Illustrator 22.0.0, SVG Export Plug-In . SVG Version: 6.00 Build 0)  -->
<svg version="1.1" id="Layer_1" xmlns="http://www.w3.org/2000/svg" xmlns:xlink="http://www.w3.org/1999/xlink" x="0px" y="0px"
	 viewBox="0 0 2244.9 1362.3" style="enable-background:new 0 0 2244.9 1362.3;" xml:space="preserve">
<style type="text/css">
	.st0{opacity:0.46;}
	.st1{fill:#824737;}
	.st2{fill:#B55232;}
	.st3{fill:#ED7C31;}
	.st4{fill:#F09B36;}
</style>
<g>
	<g class="st0">
		<path class="st1" d="M-344.1,2034c-19.8-41-36.4-85.6-48-133.7c-11.6-48-18-99.4-17.1-152.6c0.4-26.6,2.7-53.6,7-80.5
			c2.1-13.5,4.8-27,8-40.4s6.9-26.8,11.1-40c8.4-26.5,18.9-52.4,31.4-77.3c6.2-12.4,12.9-24.6,20.1-36.4s14.8-23.3,22.7-34.5
			c8-11.1,16.4-21.8,25.1-32.1c8.7-10.3,17.8-20.1,27-29.6c9.3-9.4,18.9-18.3,28.6-26.8c9.8-8.5,19.7-16.4,29.8-24
			c10.1-7.5,20.3-14.5,30.6-21.1c5.1-3.2,10.3-6.5,15.5-9.5l3.9-2.3c1.3-0.7,2.7-1.6,3.8-2.2l7.3-3.9c19.4-10.4,37.9-18.7,55.3-25.6
			c17.5-6.9,33.9-12.3,49.4-16.9c15.5-4.5,30-8,43.7-10.9s26.6-5.2,38.7-7.1c12.2-1.9,23.7-3.4,34.4-4.6c10.8-1.2,20.9-2.1,30.5-2.9
			s18.6-1.3,26.9-1.8c8.3-0.4,16.1-0.8,23.2-1l5.2-0.1l5-0.1l4.7-0.1c1.4,0,2.6,0.2,3.9,0.2c9.9,0.7,18,1.4,22.4,3.7
			c2.3,1.1,3.5,2.7,3.7,5.2c0.1,2.5-1,6-3.4,11.3c-1.1,2.6-2.7,5.8-4.3,9.5c-1.7,3.7-3.6,8.1-5.5,13c-2,5-3.8,10.6-5.5,16.7
			s-3.1,12.8-4,19.6c-0.4,3.4-0.8,6.8-1,10.3c-0.1,1.7-0.1,3.4-0.2,5.1v2.5c0,0.8,0,1.6,0.1,2.4c0.2,6.2,1,12,2,17
			c2.2,10.2,5.6,17,8.6,20.6c1.5,1.8,2.9,2.8,4.2,3.2c1.2,0.4,2.3,0.1,3.1-0.6c1.7-1.5,2.4-4.9,2.4-9.5c-0.1-4.6-0.9-10.3-2.5-16.8
			c-1.5-6.5-3.7-13.7-6.3-21.4c-5.2-15.5-12.3-32.9-20.4-52.1c-8-19.3-17.1-40.3-26.3-64.2c-4.6-12-9.3-24.8-13.7-38.6
			c-4.5-13.9-8.8-28.8-12.4-45.4s-6.5-34.7-7.6-54.8c-1.1-19.9-0.3-41.8,3.8-64l1.7-8.9c0.3-1.7,0.7-3.5,1.1-5.3s0.8-3.5,1.3-5.4
			c1.8-7.2,4.1-14.6,6.8-22.1c5.5-14.9,13.3-30,22.8-43.5s20.5-25.3,31.7-34.7c11.1-9.4,22.3-16.6,32.6-22.2
			c10.4-5.6,20.1-9.6,29-12.7c9-3.1,17.2-5.4,24.9-7.1c15.4-3.4,28.7-5,40.8-6c12.1-1,23-1.3,33.1-1.4c10.1-0.1,19.5,0,28.2,0.1
			l24.3,0.3c7.4,0,14.2,0,20.2-0.1l15.2-0.4c2.1-0.1,3.9,0,5.5,0c2.5-0.6,5-1.3,7.5-2.2c5.1-1.8,10.2-4.1,15.4-7.2
			c5.2-3.1,10.4-6.8,15.5-11.1c10.2-8.7,20-20,28.8-33s16.7-27.7,23.6-43.5c6.9-15.7,12.8-32.5,17.7-49.8s8.9-35.3,11.9-53.6
			c6-36.6,8.6-74.6,6.7-113.1c16.9,34.7,30.3,72,39.9,110.9c4.8,19.5,8.7,39.4,11.4,59.8c2.7,20.4,4.3,41.3,4.2,62.8
			c0,21.5-1.6,43.5-5.6,66s-10.4,45.7-20.6,68.9c-5.1,11.6-11.1,23.1-18.3,34.4c-7.1,11.3-15.4,22.4-24.7,32.9
			c-4.6,5.3-9.6,10.3-14.8,15.3c-6,5.5-12.2,10.6-18.4,15.1c-12.4,9.2-24.6,16.6-36.4,23s-23.2,11.8-34,16.7s-21.2,9.2-30.9,13.3
			c-9.7,4.1-18.9,7.9-27.3,11.6s-16,7.4-22.3,10.9s-11.2,7-13.6,10c-1.2,1.5-1.7,2.8-1.3,3.6c0.4,0.9,1.8,1.4,4.2,0.9
			c2.4-0.4,6-1.8,10.4-4.7c4.3-2.8,9.4-7.2,13.9-12.7c4.5-5.4,8.4-11.8,11.2-17.7c1.4-2.9,2.6-5.7,3.5-8.3l0.7-1.9l0.6-1.8l0.3-0.9
			c0.1-0.2,0.2-0.2,0.2-0.4c0.2-0.2,0.3-0.4,0.5-0.6c2.4-3.4,4.2-6.2,6.2-7.5c1.9-1.3,4-1.2,6.7,0.1s5.9,3.7,9.8,6.8
			s8.3,6.9,13.3,11.2c9.9,8.7,21.9,19.1,35.1,31.1c13.3,12,27.9,25.5,43.6,41.5c7.9,8,16,16.7,24.4,26.3c8.4,9.6,17,20.2,25.9,32.3
			c8.8,12.1,17.8,25.7,26.6,41.7c4.4,8,8.8,16.6,13,26s8.2,19.5,11.9,30.5c7.3,22,13.4,47.7,15.6,76.8c1.1,14.5,1.3,29.8,0.2,45.3
			l-0.5,5.9l-0.3,2.9l-0.3,3c-0.4,4-0.9,8-1.5,12.1c-1.2,8-2.6,16.1-4.4,24c-1.8,8-3.9,15.8-6.2,23.5s-4.9,15.3-7.7,22.6
			c-5.6,14.8-12.1,28.6-19.1,41.6c-7,12.9-14.5,24.9-22.1,35.9c-7.7,11-15.6,21.2-23.4,30.5c-15.8,18.7-31.5,34.2-46.7,47.9
			c-15.2,13.6-29.9,25.3-44.1,35.8s-28,19.7-41.3,28.2s-26.3,16.2-39,23.3l-18,10.1l-16.5,9.1l-30.7,16.7
			c-9.7,5.3-18.8,10.3-27.3,15.1c-8.5,4.8-16.4,9.5-23.7,14c-7.3,4.5-13.8,8.8-19.5,13s-10.7,8.1-14.7,11.9
			c-8.1,7.5-12.1,14.1-10.5,18.1c0.8,2,2.9,3.2,6.6,3.3c0.5,0,0.9,0,1.4,0c0.2,0,0.6-0.1,0.9-0.1l1-0.2c1.3-0.3,2.7-0.6,4.1-1.1
			c2.8-0.8,5.7-1.8,8.7-3.1c12-5,25.5-13.8,37.8-26c12.4-12.1,23.3-27.5,31.4-43.6c8.2-16.2,13.6-32.9,16.8-48.3
			c3.2-15.4,4.5-29.5,4.8-41.6c0.3-12.2,0-22.4-0.3-31c111.8,185.6,52,426.7-133.7,538.5S-232.3,2219.6-344.1,2034z"/>
	</g>
	<g class="st0">
		<path class="st1" d="M-80.4,1425.2c-5.8,4.6-9.9,9.9-12.4,14.7c-2.6,5-3.7,9.5-3.8,13.8c-0.1,1,0,2.1,0.1,3.1
			c0,0.5,0.1,1.1,0.2,1.5c0.1,0.5,0.1,1,0.2,1.5c0.3,1.9,0.9,3.8,1.6,5.5c0.4,0.9,0.7,1.7,1.1,2.6c0.2,0.4,0.4,0.8,0.6,1.2l0.3,0.6
			l0.3,0.6c0.2,0.4,0.5,0.8,0.7,1.2c0.2,0.4,0.4,0.8,0.7,1.2c0.3,0.4,0.5,0.8,0.7,1.2c0.2,0.4,0.5,0.8,0.8,1.2
			c0.4,0.7,1.1,1.5,1.6,2.3c0.2,0.4,0.6,0.8,0.8,1.1c0.3,0.4,0.5,0.7,0.8,1.1c1.1,1.5,2.4,3,3.5,4.5c0.2,0.2,0.3,0.4,0.5,0.6
			l0.4,0.6c0.3,0.4,0.6,0.8,1,1.1c0.3,0.4,0.6,0.8,0.9,1.1c0.2,0.2,0.4,0.4,0.5,0.6s0.3,0.4,0.5,0.6c0.3,0.4,0.7,0.8,1,1.1
			c0.3,0.4,0.6,0.8,1,1.2c0.4,0.5,0.7,0.4,1.1,0.5s0.8,0.1,1.3,0.2c3.4-0.1,7.3-3.5,10.8-10.5c3.5-7,6.5-17.4,9.1-30.7
			c2.5-13.3,4.5-29.4,6.5-48.1l3.1-29.8l1.7-16.3l2-17.3c2.9-25.2,7.1-51.6,13.8-79.6c3.4-14,7.4-28.4,12.2-43.1
			c4.9-14.8,10.7-30,17.7-45.4c3.5-7.7,7.3-15.6,11.4-23.4c2.1-4,4.2-7.9,6.5-11.8l3.5-5.9c1.1-1.9,2.4-3.9,3.6-5.9
			c9.8-15.7,21.1-31.3,34-46.2c6.5-7.4,13.3-14.7,20.6-21.6l5.5-5.2l5.6-5c3.8-3.4,7.6-6.4,11.5-9.5c3.9-3,7.7-6,11.6-9
			c4-2.8,7.9-5.5,11.9-8.1c8-5.5,16.1-9.9,24.2-14.5l3.1-1.7c1-0.5,2-1,3-1.5l6-2.9l6.1-2.9l3-1.4c1-0.5,2-0.9,3-1.3
			c3.9-1.6,7.9-3.2,11.8-4.8l5.9-2.3l5.7-2c3.8-1.3,7.6-2.5,11.5-3.8l1.4-0.5l1.4-0.4l2.8-0.8l5.5-1.5l5.5-1.5l2.7-0.7l2.6-0.6
			l10.5-2.3c1.7-0.4,3.5-0.8,5.2-1.1l5-0.9l9.9-1.6c3.2-0.5,6.3-0.8,9.5-1.2l4.7-0.6l2.3-0.3l2.2-0.2l8.9-0.8l4.4-0.4l4.2-0.2
			l8.4-0.4c1.4-0.1,2.7-0.1,4-0.1l4-0.1c2.6-0.1,5.3-0.2,7.9-0.2h7.5h3.7c1.3,0,2.4,0,3.6,0l7.1,0.1c2.4,0,4.6,0.1,6.8,0.2l6.7,0.2
			l12.5,0.6c16.1,0.9,29.9,1.8,41.5,2.6c11.7,0.8,20.6,1.4,27.3,2.2l2.5,0.3c0.7,0.1,1.4,0.2,2.2,0.3l2,0.3c0.6,0.1,1.3,0.3,2,0.4
			c0.5,0.1,1.1,0.2,1.7,0.4l0.9,0.2c0.3,0.1,0.5,0.1,0.8,0.2c0.5,0.1,1,0.2,1.6,0.4l0.4,0.1l0.3,0.1l0.7,0.1
			c0.5,0.1,1.1,0.3,1.6,0.3s1.1,0.1,1.6,0.1c1.1,0,2.3,0.1,3.5-0.2c2.4-0.3,5.1-1.1,8-2.8c5.8-3.4,12.4-9.9,18.8-19.6
			c3.2-4.8,6.3-10.2,9.4-16.2s6.1-12.6,9-19.5c5.9-13.9,11.5-29.4,17.4-46l4.5-12.6l4.7-12.9c3.2-8.7,6.6-17.6,10.3-26.8l0.7-1.7
			l0.7-1.7l1.5-3.5l2.9-6.9c2.1-4.5,4.1-9.1,6.3-13.6c4.4-8.9,8.9-17.7,13.8-26.2c9.7-17,20.3-33.2,31.8-48.5
			c11.5-15.2,23.9-29.6,36.9-42.9c26-26.8,55-49.5,85.5-68.1s62.9-32.7,95.6-42.3c-26.5,21.5-49.5,45.9-68.5,72.3
			c-19,26.4-34.3,54.4-45.5,83.3c-5.6,14.4-10.2,29-13.9,43.5c-3.6,14.6-6.2,29.2-7.8,43.6c-0.8,7.2-1.3,14.4-1.6,21.5
			c-0.2,3.6-0.2,7.1-0.3,10.6l0.1,10.6c0.1,7.2,0.5,14.8,0.8,22.5l1.3,24c0.9,16.5,1.8,34.2,1.9,53.2c0,9.5-0.2,19.4-0.7,29.7
			c-0.6,10.3-1.6,21.1-3.1,32.3l-0.6,4.2l-0.3,2.1l-0.4,2.2l-1.6,8.7l-1.9,8.9c-0.6,3-1.5,6-2.2,9.1c-3.2,12.2-7.4,24.8-12.8,37.6
			c-5.4,12.8-12.2,25.8-20.3,38.5c-8.1,12.6-17.4,25-28.1,36.2l-4,4.3l-2,2.1l-2.1,2c-2.8,2.7-5.6,5.3-8.4,8
			c-1.4,1.3-2.8,2.7-4.3,3.9l-4.3,3.7c-2.9,2.4-5.9,4.8-8.8,7.2c-3,2.2-5.9,4.4-8.9,6.6s-6.1,4.4-9,6.3c-3,2-6,3.9-9.1,5.9l-2.3,1.4
			c-0.8,0.5-1.5,0.9-2.2,1.3l-4.5,2.6c-24,14-47.3,24.2-68.2,32.4c-21,8.3-40.1,14.8-57.1,21l-12.3,4.5l-5.7,2.2
			c-1.9,0.7-3.9,1.5-5.6,2.2l-5.3,2.2c-0.9,0.4-1.8,0.7-2.6,1.1l-2.4,1.1l-4.9,2.1c-1.6,0.7-3,1.4-4.5,2.1l-2.2,1.1
			c-0.7,0.4-1.5,0.7-2.1,1.1l-3.9,2.1l-1.9,1c-0.6,0.3-1.1,0.7-1.7,1l-3.3,2.1l-0.8,0.5l-0.7,0.5l-1.4,1c-0.9,0.7-1.9,1.3-2.7,2
			l-2.1,2l-1,0.9c-0.3,0.3-0.5,0.6-0.8,0.9l-1.4,1.8c-0.1,0.1-0.2,0.3-0.3,0.4l-0.2,0.4l-0.3,0.8l-0.3,0.8l-0.2,0.4
			c0,0.1-0.1,0.1-0.1,0.2v0.2v1.4c0,0.2,0,0.4,0,0.6l0.4,0.6c0.2,0.4,0.5,0.7,0.7,1c0,0.1,0.1,0.1,0.3,0.2l0.3,0.2
			c0.2,0.1,0.5,0.2,0.7,0.4c0.2,0.1,0.4,0.2,0.7,0.3c0.1,0,0.2,0.1,0.3,0.1l0.5,0.1c1.3,0.3,2.3,0.3,4,0.3c0.8,0,1.5-0.1,2.2-0.3
			c0.8-0.1,1.7-0.2,2.5-0.4c0.8-0.2,1.5-0.4,2.5-0.7c0.4-0.2,0.9-0.3,1.3-0.5c0.4-0.1,0.9-0.3,1.3-0.5c1.7-0.7,3.4-1.3,4.9-2.1
			c3.1-1.4,5.8-2.6,8-3.4c0.6-0.3,1.1-0.3,1.6-0.5c0.5-0.1,1-0.2,1.5-0.3c1-0.1,1.8-0.1,2.7,0.1c1.7,0.4,3.1,1.4,4.5,2.9
			c1.4,1.6,2.7,3.8,4.1,6.4c2.7,5.2,5.8,12.4,9.3,20.6c0.1,0.3,0.2,0.5,0.3,0.8l0.4,1l0.7,2l1.4,4l3,8.8l1.6,4.7l1.6,4.9l0.8,2.5
			l0.8,2.7l1.7,5.4c4.5,14.7,9.4,31.9,14.1,52s9.1,43.1,12.1,69.5s4.4,56.4,2.4,89.4c-0.3,4.2-0.6,8.3-1,12.5s-0.6,8.2-1.3,12.8
			c-0.6,4.5-1.1,8.9-1.8,13.4c-0.6,4.4-1.4,8.8-2.2,13.3l-1.2,6.6c-0.4,2.2-0.9,4.4-1.3,6.6c-0.9,4.4-1.8,8.7-2.8,13.1
			c-1,4.3-2.1,8.6-3.2,13l-1.7,6.5l-1.8,6.4c-4.8,17.2-10.6,33.8-17,50.3c-1.6,4.1-3.3,8.2-5,12.2c-1.7,4.1-3.5,8-5.3,12.1
			c-3.6,8.1-7.5,15.9-11.4,23.7c-2,3.9-4.1,7.7-6.1,11.6c-2.1,3.9-4.2,7.7-6.4,11.5c-2.2,3.8-4.4,7.6-6.7,11.3
			c-2.3,3.7-4.6,7.4-7,11.1l-3.5,5.5l-3.7,5.5c-2.5,3.6-4.9,7.3-7.4,10.9c-5.1,7.1-10.3,14.3-15.7,21.1
			c-21.6,27.8-46.1,53.7-73.3,77.5c-3.4,3-6.9,5.9-10.4,8.8l-5.3,4.4l-5.4,4.3c-3.6,2.8-7.2,5.6-10.9,8.4c-3.7,2.7-7.4,5.4-11.2,8.1
			c-1.9,1.3-3.7,2.7-5.7,4l-5.8,3.9c-3.9,2.6-7.7,5.2-11.7,7.7c-8,5-15.9,9.9-24.2,14.6c-32.9,18.8-69,34.6-107.3,46.7
			c-174.5,38.8-347.5-71.2-386.3-245.7S-254.9,1464-80.4,1425.2z"/>
	</g>
	<g class="st0">
		<path class="st1" d="M-130.8,1810.4c-5.8,4.6-9.9,9.9-12.4,14.7c-2.6,5-3.7,9.5-3.8,13.8c-0.1,1,0,2.1,0.1,3.1
			c0,0.5,0.1,1.1,0.2,1.5c0.1,0.5,0.1,1,0.2,1.5c0.3,1.9,0.9,3.8,1.6,5.5c0.4,0.9,0.7,1.7,1.1,2.6c0.2,0.4,0.4,0.8,0.6,1.2l0.3,0.6
			l0.3,0.6c0.2,0.4,0.5,0.8,0.7,1.2c0.2,0.4,0.4,0.8,0.7,1.2c0.3,0.4,0.5,0.8,0.7,1.2c0.2,0.4,0.5,0.8,0.8,1.2
			c0.4,0.7,1.1,1.5,1.6,2.3c0.2,0.4,0.6,0.8,0.8,1.1c0.3,0.4,0.5,0.7,0.8,1.1c1.1,1.5,2.4,3,3.5,4.5c0.2,0.2,0.3,0.4,0.5,0.6
			l0.4,0.6c0.3,0.4,0.6,0.8,1,1.1c0.3,0.4,0.6,0.8,0.9,1.1c0.2,0.2,0.4,0.4,0.5,0.6s0.3,0.4,0.5,0.6c0.3,0.4,0.7,0.8,1,1.1
			c0.3,0.4,0.6,0.8,1,1.2c0.4,0.5,0.7,0.4,1.1,0.5s0.8,0.1,1.3,0.2c3.4-0.1,7.3-3.5,10.8-10.5s6.5-17.4,9.1-30.7
			c2.5-13.3,4.5-29.4,6.5-48.1l3.1-29.8l1.7-16.3l2-17.3c2.9-25.2,7.1-51.6,13.8-79.6c3.4-14,7.4-28.4,12.2-43.1
			c4.9-14.8,10.7-30,17.7-45.4c3.5-7.7,7.3-15.6,11.4-23.4c2.1-4,4.2-7.9,6.5-11.8l3.5-5.9c1.1-1.9,2.4-3.9,3.6-5.9
			c9.8-15.7,21.1-31.3,34-46.2c6.5-7.4,13.3-14.7,20.6-21.6l5.5-5.2l5.6-5c3.8-3.4,7.6-6.4,11.5-9.5c3.9-3,7.7-6,11.6-9
			c4-2.8,7.9-5.5,11.9-8.1c8-5.5,16.1-9.9,24.2-14.5l3.1-1.7c1-0.5,2-1,3-1.5l6-2.9l6.1-2.9l3-1.4c1-0.5,2-0.9,3-1.3
			c3.9-1.6,7.9-3.2,11.8-4.8l5.9-2.3l5.7-2c3.8-1.3,7.6-2.5,11.5-3.8l1.4-0.5l1.4-0.4l2.8-0.8l5.5-1.5l5.5-1.5l2.7-0.7l2.6-0.6
			l10.5-2.3c1.7-0.4,3.5-0.8,5.2-1.1l5-0.9l9.9-1.6c3.2-0.5,6.3-0.8,9.5-1.2l4.7-0.6l2.3-0.3l2.2-0.2l8.9-0.8l4.4-0.4l4.2-0.2
			l8.4-0.4c1.4-0.1,2.7-0.1,4-0.1l4-0.1c2.6-0.1,5.3-0.2,7.9-0.2h7.5h3.7c1.3,0,2.4,0,3.6,0l7.1,0.1c2.4,0,4.6,0.1,6.8,0.2l6.7,0.2
			l12.5,0.6c16.1,0.9,29.9,1.8,41.5,2.6c11.7,0.8,20.6,1.4,27.3,2.2l2.5,0.3c0.7,0.1,1.4,0.2,2.2,0.3l2,0.3c0.6,0.1,1.3,0.3,2,0.4
			c0.5,0.1,1.1,0.2,1.7,0.4l0.9,0.2c0.3,0.1,0.5,0.1,0.8,0.2c0.5,0.1,1,0.2,1.6,0.4l0.4,0.1l0.3,0.1l0.7,0.1
			c0.5,0.1,1.1,0.3,1.6,0.3s1.1,0.1,1.6,0.1c1.1,0,2.3,0.1,3.5-0.2c2.4-0.3,5.1-1.1,8-2.8c5.8-3.4,12.4-9.9,18.8-19.6
			c3.2-4.8,6.3-10.2,9.4-16.2s6.1-12.6,9-19.5c5.9-13.9,11.5-29.4,17.4-46l4.5-12.6l4.7-12.9c3.2-8.7,6.6-17.6,10.3-26.8l0.7-1.7
			l0.7-1.7l1.5-3.5l2.9-6.9c2.1-4.5,4.1-9.1,6.3-13.6c4.4-8.9,8.9-17.7,13.8-26.2c9.7-17,20.3-33.2,31.8-48.5
			c11.5-15.2,23.9-29.6,36.9-42.9c26-26.8,55-49.5,85.5-68.1s62.9-32.7,95.6-42.3c-26.5,21.5-49.5,45.9-68.5,72.3
			c-19,26.4-34.3,54.4-45.5,83.3c-5.6,14.4-10.2,29-13.9,43.5c-3.6,14.6-6.2,29.2-7.8,43.6c-0.8,7.2-1.3,14.4-1.6,21.5
			c-0.2,3.6-0.2,7.1-0.3,10.6l0.1,10.6c0.1,7.2,0.5,14.8,0.8,22.5l1.3,24c0.9,16.5,1.8,34.2,1.9,53.2c0,9.5-0.2,19.4-0.7,29.7
			c-0.6,10.3-1.6,21.1-3.1,32.3l-0.6,4.2l-0.3,2.1l-0.4,2.2l-1.6,8.7l-1.9,8.9c-0.6,3-1.5,6-2.2,9.1c-3.2,12.2-7.4,24.8-12.8,37.6
			c-5.4,12.8-12.2,25.8-20.3,38.5c-8.1,12.6-17.4,25-28.1,36.2l-4,4.3l-2,2.1l-2.1,2c-2.8,2.7-5.6,5.3-8.4,8
			c-1.4,1.3-2.8,2.7-4.3,3.9l-4.3,3.7c-2.9,2.4-5.9,4.8-8.8,7.2c-3,2.2-5.9,4.4-8.9,6.6s-6.1,4.4-9,6.3c-3,2-6,3.9-9.1,5.9l-2.3,1.4
			c-0.8,0.5-1.5,0.9-2.2,1.3l-4.5,2.6c-24,14-47.3,24.2-68.2,32.4c-21,8.3-40.1,14.8-57.1,21l-12.3,4.5l-5.7,2.2
			c-1.9,0.7-3.9,1.5-5.6,2.2l-5.3,2.2c-0.9,0.4-1.8,0.7-2.6,1.1l-2.4,1.1l-4.9,2.1c-1.6,0.7-3,1.4-4.5,2.1l-2.2,1.1
			c-0.7,0.4-1.5,0.7-2.1,1.1l-3.9,2.1l-1.9,1c-0.6,0.3-1.1,0.7-1.7,1l-3.3,2.1l-0.8,0.5l-0.7,0.5l-1.4,1c-0.9,0.7-1.9,1.3-2.7,2
			l-2.1,2l-1,0.9c-0.3,0.3-0.5,0.6-0.8,0.9l-1.4,1.8c-0.1,0.1-0.2,0.3-0.3,0.4l-0.2,0.4l-0.3,0.8l-0.3,0.8l-0.2,0.4
			c0,0.1-0.1,0.1-0.1,0.2v0.2v1.4c0,0.2,0,0.4,0,0.6l0.4,0.6c0.2,0.4,0.5,0.7,0.7,1c0,0.1,0.1,0.1,0.3,0.2l0.3,0.2
			c0.2,0.1,0.5,0.2,0.7,0.4c0.2,0.1,0.4,0.2,0.7,0.3c0.1,0,0.2,0.1,0.3,0.1l0.5,0.1c1.3,0.3,2.3,0.3,4,0.3c0.8,0,1.5-0.1,2.2-0.3
			c0.8-0.1,1.7-0.2,2.5-0.4c0.8-0.2,1.5-0.4,2.5-0.7c0.4-0.2,0.9-0.3,1.3-0.5c0.4-0.1,0.9-0.3,1.3-0.5c1.7-0.7,3.4-1.3,4.9-2.1
			c3.1-1.4,5.8-2.6,8-3.4c0.6-0.3,1.1-0.3,1.6-0.5c0.5-0.1,1-0.2,1.5-0.3c1-0.1,1.8-0.1,2.7,0.1c1.7,0.4,3.1,1.4,4.5,2.9
			c1.4,1.6,2.7,3.8,4.1,6.4c2.7,5.2,5.8,12.4,9.3,20.6c0.1,0.3,0.2,0.5,0.3,0.8l0.4,1l0.7,2l1.4,4l3,8.8l1.6,4.7l1.6,4.9l0.8,2.5
			l0.8,2.7l1.7,5.4c4.5,14.7,9.4,31.9,14.1,52s9.1,43.1,12.1,69.5s4.4,56.4,2.4,89.4c-0.3,4.2-0.6,8.3-1,12.5s-0.6,8.2-1.3,12.8
			c-0.6,4.5-1.1,8.9-1.8,13.4c-0.6,4.4-1.4,8.8-2.2,13.3l-1.2,6.6c-0.4,2.2-0.9,4.4-1.3,6.6c-0.9,4.4-1.8,8.7-2.8,13.1
			c-1,4.3-2.1,8.6-3.2,13l-1.7,6.5l-1.8,6.4c-4.8,17.2-10.6,33.8-17,50.3c-1.6,4.1-3.3,8.2-5,12.2c-1.7,4.1-3.5,8-5.3,12.1
			c-3.6,8.1-7.5,15.9-11.4,23.7c-2,3.9-4.1,7.7-6.1,11.6c-2.1,3.9-4.2,7.7-6.4,11.5c-2.2,3.8-4.4,7.6-6.7,11.3
			c-2.3,3.7-4.6,7.4-7,11.1l-3.5,5.5l-3.7,5.5c-2.5,3.6-4.9,7.3-7.4,10.9c-5.1,7.1-10.3,14.3-15.7,21.1
			c-21.6,27.8-46.1,53.7-73.3,77.5c-3.4,3-6.9,5.9-10.4,8.8l-5.3,4.4l-5.4,4.3c-3.6,2.8-7.2,5.6-10.9,8.4c-3.7,2.7-7.4,5.4-11.2,8.1
			c-1.9,1.3-3.7,2.7-5.7,4l-5.8,3.9c-3.9,2.6-7.7,5.2-11.7,7.7c-8,5-15.9,9.9-24.2,14.6c-32.9,18.8-69,34.6-107.3,46.7
			C-165,2480.5-338,2370.5-376.8,2196S-305.3,1849.3-130.8,1810.4z"/>
	</g>
	<g>
		<path class="st1" d="M61.6,1592.2c8.4,0.9,17.3,0.1,26.6-2.5s18.9-7,28.1-13c9.3-6,18.1-13.6,26.1-22.3c4-4.3,7.7-9,11.2-13.8
			c1.7-2.4,3.4-4.9,5-7.4s3.1-5,4.6-7.8c12.2-22,20.6-47.9,26.1-75.9c2.8-14,4.8-28.5,6.4-43.4c1.6-14.9,2.7-30.1,3.7-45.8
			c2-31.3,3.3-63.9,6.9-97.5c1.8-16.8,4.2-33.8,7.6-50.9c0.9-4.3,1.8-8.6,2.7-12.8l3.2-12.8l3.6-12.8c1.3-4.2,2.7-8.4,4.1-12.6
			c11.4-33.5,27.4-64.8,46.1-93.5s40.2-54.8,62.7-79.1s46.2-46.8,70.1-68.6s48.1-42.7,72-63.8c23.8-21,47.3-42.1,69.7-64.1
			s43.8-44.8,63-69.3c9.6-12.2,18.7-24.8,27.1-37.9c8.4-13.1,16-26.6,22.8-40.5s12.7-28.3,17.7-43.1s9.1-30.1,13.1-45.5
			s7.8-31,12-46.4c2.1-7.7,4.4-15.5,6.8-23.2c2.5-7.7,5.1-15.3,8.1-22.8c2.9-7.5,6.2-14.9,9.9-22.1c0.9-1.8,1.8-3.6,2.8-5.4l3-5.3
			c2.1-3.5,4.2-6.9,6.5-10.2l1.7-2.5l1.8-2.4l1.8-2.4l0.9-1.2l1-1.2l3.8-4.7l4-4.5c5.5-5.9,11.4-11.3,17.7-16.2
			c-5.9,5.4-11.4,11.2-16.3,17.4l-3.6,4.7l-3.4,4.9l-0.8,1.2l-0.8,1.3l-1.6,2.5l-1.6,2.5l-1.5,2.6c-2,3.4-3.7,6.9-5.5,10.5L736,438
			c-0.8,1.8-1.5,3.6-2.3,5.4c-3,7.3-5.7,14.7-7.9,22.3c-2.3,7.5-4.3,15.2-6.1,22.9c-1.8,7.7-3.4,15.4-4.9,23.2
			c-3,15.6-5.6,31.3-8.4,47.1c-2.8,15.8-5.8,31.6-9.8,47.5c-4,15.8-9.1,31.5-15.1,46.8s-13,30.2-20.8,44.7s-16.4,28.5-25.5,42.1
			c-18.3,27.2-38.7,52.8-60.1,77.2c-21.4,24.4-43.7,47.8-66,70.8s-44.7,45.6-66.4,68.6c-21.6,22.9-42.5,46.2-61.6,70.2
			c-19.1,24.1-36.4,49-50.6,74.9s-25.3,52.9-32.4,80.6l-2.5,10.4l-2.1,10.5l-1.8,10.6l-1.4,10.7c-1.7,14.4-2.7,29.2-3.1,44.2
			c-0.9,30.1,0.2,61.3,0.7,93.8c0.5,32.6,0.2,66.5-3.9,101.6c-2.1,17.5-5.1,35.4-9.6,53.3s-10.6,36-18.6,53.6
			c-1.9,4.4-4.1,8.9-6.5,13.4c-2.3,4.4-4.8,8.8-7.4,13.1c-5.2,8.6-10.8,16.9-17,24.9c-12.3,15.9-26.6,30.6-43.1,43.5
			c-16.5,12.8-35.2,23.9-56,31.8c-10.4,3.9-21.4,7.1-32.7,9.2s-23,3.2-34.7,3.2L61.6,1592.2z"/>
	</g>
	<g>
		<path class="st2" d="M131.7,1772.8c-4.6-12-7.9-24.6-9.8-37.2s-2.3-25.2-1.6-37.5c1.5-24.6,7.7-47.4,16.4-68s20-39.3,32.9-56.1
			c12.9-16.8,27.5-31.9,43.7-45.4c2-1.7,4-3.4,6.1-5l3.1-2.4c1-0.8,2.1-1.6,3.1-2.3c4-2.9,8.1-5.8,12.1-8.6l12.3-8l12.4-7.5
			c16.6-9.6,33.2-17.9,49.5-25.6c32.7-15.2,64.3-27.9,93.3-41.9c3.6-1.8,7.3-3.5,10.8-5.3s7.1-3.6,10.5-5.4
			c6.8-3.8,13.7-7.4,20.3-11.6l5-3l2.5-1.5l2.4-1.6l9.8-6.5c1.7-1,3.2-2.2,4.8-3.4l4.8-3.4l4.8-3.4c1.6-1.1,3.1-2.4,4.7-3.6l9.3-7.2
			l9.1-7.6c1.5-1.3,3.1-2.5,4.5-3.8l4.4-4l4.4-4c1.5-1.3,3-2.6,4.4-4l8.5-8.3l2.1-2.1l2.1-2.1l4.1-4.3c5.6-5.6,10.8-11.7,16.2-17.6
			c41.8-48.2,74.5-105.1,95.5-166.4l3.8-11.5c0.7-1.9,1.2-3.9,1.8-5.8l1.7-5.8l1.7-5.8c0.5-2,1-3.9,1.5-5.9l3-11.8l2.6-11.9
			c0.4-2,0.9-4,1.2-6l1.1-6l1.1-6c0.4-2,0.7-4,1-6l1.7-12.1l0.4-3l0.3-3l0.6-6.1c0.4-4,0.9-8.1,1.1-12.2l0.8-12.2
			c0.2-4.1,0.2-8.1,0.4-12.2l0.2-6.1l-0.1-6.1c-0.1-4.1,0-8.2-0.2-12.2c-0.4-8.1-0.7-16.3-1.5-24.5c-2.8-33.1-8.2-67.4-10.1-103
			c-0.9-17.8-0.9-36,1.1-54.2c1-9.1,2.6-18.3,4.8-27.3c2.2-9.1,5.1-18,8.7-26.7c3.6-8.7,8-17,13-24.9s10.6-15.2,16.6-22.1
			c5.9-6.9,12.3-13.3,18.7-19.4c6.5-6.1,13.1-11.9,19.9-17.4c13.4-11.2,27.1-21.5,40.2-32.2c13-10.7,25.5-21.9,36.6-34.2
			c5.5-6.2,10.7-12.6,15.4-19.5c4.6-6.8,8.7-14,12-21.5s5.7-15.4,7.4-23.4c0.4-2,0.6-4,0.9-6c0.2-2,0.4-4,0.4-6.1
			c0.1-4.1,0-8.2-0.5-12.3c-1.9-16.3-8.3-32.5-18.9-45.5c-5.4-6.4-11.8-12.1-19.2-16.1c-3.7-2-7.6-3.7-11.8-4.7
			c-4.1-1.1-8.3-1.7-12.6-1.9c4.3-0.1,8.6,0.2,12.8,1c4.3,0.8,8.4,2.2,12.4,4c8,3.5,15.1,9,21.1,15.3c3,3.2,5.8,6.6,8.3,10.2
			s4.7,7.5,6.7,11.4c3.9,7.9,6.8,16.4,8.4,25.1c0.9,4.4,1.3,8.8,1.5,13.3c0.1,2.2,0.1,4.5,0,6.8s-0.2,4.5-0.5,6.8
			c-1.2,8.9-3.2,17.6-6.3,26.1c-3.1,8.4-6.9,16.5-11.4,24.2s-9.6,15-15,22c-10.9,14-23.1,26.7-35.8,38.6
			c-12.7,12-25.5,23.2-37.7,34.9c-6.1,5.8-12,11.7-17.6,17.8s-10.9,12.3-15.7,18.7c-4.8,6.5-9.2,13.1-12.8,20s-6.8,14-9.2,21.4
			c-2.5,7.4-4.3,14.9-5.7,22.6c-1.3,7.7-2.1,15.6-2.4,23.5c-0.6,15.9,0.5,32.1,2.5,48.5c4.1,32.8,11.8,65.9,17.3,100.8
			c1.4,8.7,2.4,17.7,3.5,26.6c0.5,4.5,0.8,9,1.2,13.4l0.6,6.7l0.3,6.7c0.2,4.5,0.4,9,0.6,13.5l0.1,13.5c0.1,4.5-0.1,9-0.2,13.5
			l-0.2,6.8l-0.1,3.4l-0.2,3.4l-0.9,13.5c-0.1,2.3-0.4,4.5-0.6,6.7l-0.7,6.7l-0.7,6.7c-0.2,2.2-0.6,4.5-0.9,6.7l-1.9,13.4l-2.4,13.3
			c-0.4,2.2-0.8,4.5-1.2,6.7l-1.4,6.6l-1.4,6.6c-0.5,2.2-0.9,4.4-1.5,6.6l-3.3,13.2c-18.5,70-50.5,136.8-94.5,195.6
			c-5.6,7.2-11.1,14.6-17.1,21.6l-4.4,5.3l-2.2,2.7l-2.3,2.6l-9.2,10.3c-1.5,1.7-3.1,3.4-4.7,5l-4.8,5l-4.8,5
			c-1.6,1.7-3.3,3.2-5,4.9l-10,9.6l-10.3,9.3c-1.7,1.5-3.4,3.1-5.2,4.6l-5.4,4.5l-5.4,4.5c-1.8,1.5-3.6,3-5.4,4.4l-11.1,8.5
			l-2.8,2.1l-2.8,2l-5.7,4.1c-7.5,5.5-15.5,10.5-23.3,15.7c-3.9,2.5-7.9,4.8-11.8,7.3c-4,2.4-7.9,4.6-11.8,6.9
			c-31.6,18-62.7,33.1-91.2,49c-14.2,7.9-27.7,16-40.3,24.5l-9.2,6.5l-8.8,6.7l-8.4,6.9c-0.7,0.6-1.3,1.1-1.9,1.7l-1.8,1.7
			c-1.2,1.1-2.4,2.3-3.6,3.4c-9.5,9.3-18.2,19.6-25.3,30.6c-7.2,10.9-12.8,22.5-16.6,33.8s-5.5,22.3-5.2,32
			c0.3,9.8,2.4,18.2,6.2,25.8L131.7,1772.8z"/>
	</g>
	<g>
		<path class="st2" d="M169.4,1702.6c25.9-19.5,50.1-40.4,71.9-63.2c5.5-5.7,10.7-11.5,15.8-17.4c5.1-5.9,10.1-11.9,14.8-18.1
			c9.5-12.2,18.2-25,26.1-38.1s14.7-26.8,20.8-40.8c6-14,10.9-28.4,14.8-43.2c0.5-1.8,1-3.7,1.4-5.6l1.4-5.7
			c0.8-3.8,1.7-7.7,2.4-11.5c0.7-3.9,1.5-7.7,2.1-11.7l1-5.9l0.9-5.9c2.3-15.8,3.7-32,4.5-48.3c1.7-32.8,0.8-66.4-1-100.7
			c-1.9-34.2-4.7-69-7-104.4c-1.1-17.7-2.1-35.5-2.7-53.6s-0.7-36.3-0.1-54.5c1-36.4,4.5-73.2,11.9-109.6
			c7.4-36.3,19-72.4,36.4-106.1c4.3-8.4,9.1-16.6,14.1-24.6c5.1-8,10.5-15.8,16.3-23.3s12-14.8,18.4-21.7
			c6.5-6.9,13.2-13.4,20.1-19.6c13.8-12.4,28.3-23.6,42.8-34.1c14.6-10.5,29.3-20.3,43.7-30.1c14.5-9.8,28.7-19.5,42.4-29.6l5.1-3.8
			l5-3.9c3.3-2.6,6.5-5.2,9.7-7.9c6.4-5.4,12.6-11,18.5-16.9c11.9-11.7,22.8-24.4,32.2-38.1c9.3-13.7,17.1-28.3,22.4-43.8
			c5.2-15.4,7.9-31.7,7.1-48c-0.4-8.1-1.7-16.3-3.5-24.5s-4.3-16.4-6.9-24.7c-2.6-8.3-5.3-16.6-7.8-25.2c-1.3-4.3-2.4-8.6-3.5-12.9
			c-1.1-4.4-2-8.8-2.8-13.3c-1.5-8.9-2.3-18-1.9-27.1c0.3-9.1,1.7-18.3,4.8-26.9c1.5-4.3,3.4-8.5,5.8-12.5c1.2-2,2.4-3.9,3.8-5.7
			c1.4-1.9,2.9-3.7,4.5-5.3c6.6-6.6,14.8-11.1,23.4-13.6c8.7-2.5,17.9-3,26.6-0.8c4.3,1.1,8.5,2.9,12.1,5.4c3.7,2.5,6.7,5.8,9.1,9.5
			c-2.6-3.5-5.8-6.5-9.6-8.7c-3.7-2.2-7.8-3.7-12-4.4c-8.4-1.5-17.2-0.4-25.1,2.5c-7.9,2.9-15.2,7.7-20.6,13.9
			c-1.4,1.6-2.6,3.2-3.7,4.9c-1.1,1.8-2.2,3.6-3.1,5.4c-1.9,3.7-3.3,7.6-4.4,11.6c-2.2,8-2.9,16.4-2.6,24.8c0.3,8.4,1.6,16.8,3.5,25
			c1,4.1,2.1,8.2,3.4,12.2c1.3,4.1,2.7,8.1,4.2,12.1c3,8.1,6.3,16.1,9.5,24.4c3.2,8.2,6.3,16.6,8.9,25.3c2.6,8.7,4.7,17.8,5.8,27.1
			c2.2,18.6,0.5,37.7-4.3,55.7c-4.8,18.1-12.4,35.2-21.8,51.1c-9.4,15.9-20.4,30.7-32.5,44.4c-6.1,6.9-12.4,13.5-18.9,19.8
			c-3.3,3.2-6.6,6.3-10,9.4l-5.1,4.5l-5.1,4.4c-13.6,11.7-27.6,22.7-41.5,33.5c-27.7,21.6-54.9,42.5-77.8,66.2
			c-5.7,5.9-11.1,12-16.2,18.2s-9.8,12.7-14.3,19.3c-4.5,6.7-8.6,13.5-12.4,20.6s-7.3,14.3-10.5,21.7c-12.8,29.5-20.7,61.4-25.1,94
			c-4.3,32.6-5.2,66-3.8,99.5c0.7,16.8,1.9,33.6,3.6,50.4s3.8,33.9,6.1,51c4.6,34.2,9.8,69,14.2,104.4c4.4,35.5,7.9,71.7,8.6,108.9
			c0.4,18.6,0,37.4-1.4,56.4l-0.5,7.1l-0.7,7.1c-0.4,4.8-1,9.5-1.6,14.3s-1.3,9.5-2,14.3l-1.2,7.2c-0.4,2.4-0.8,4.8-1.3,7.2
			c-3.6,19.4-8.6,38.6-14.9,57.4c-6.4,18.7-13.9,37-22.7,54.7c-8.8,17.6-18.6,34.7-29.3,50.9c-5.3,8.2-11,16.1-16.7,23.9
			c-5.8,7.8-11.7,15.4-17.8,22.9c-24.5,29.8-51.5,56.9-79.7,81.7L169.4,1702.6z"/>
	</g>
	<g>
		<path class="st2" d="M-47.4,1567.6c13.9-11.5,28.2-21.6,42.6-30.7s28.8-17.3,43.1-24.8c28.6-15.1,56.5-27.7,82.7-40.5
			c13.1-6.4,25.8-12.8,38-19.5c12.2-6.7,23.7-13.7,34.6-21.1c10.8-7.4,20.9-15.3,30.2-23.9c4.7-4.2,9-8.7,13.2-13.3
			c2.2-2.2,4.1-4.7,6.1-7.1c2.1-2.3,3.9-4.9,5.9-7.4c15.3-20.1,27.6-43.4,36.9-68.5c4.6-12.6,8.5-25.5,11.6-38.8
			c0.8-3.3,1.4-6.7,2.2-10c0.7-3.3,1.3-6.7,1.9-10.1c1.2-6.8,2.2-13.7,3-20.6c3.4-27.7,4.2-56.2,3.2-85.1
			c-0.9-28.9-3.6-58.2-7.1-87.8c-3.4-29.8-7.3-60.1-9.9-91c-1.3-15.5-2.1-31.1-2.4-46.9c-0.3-15.8,0.1-31.7,1.5-47.6
			c1.4-16,3.7-31.9,7.3-47.7c3.7-15.8,8.6-31.4,15-46.3c6.5-14.9,14.2-29.4,23.3-42.6c9-13.3,19.1-25.7,29.8-37.3l4.1-4.3
			c1.4-1.4,2.7-2.9,4.1-4.2l8.4-8.2l8.7-7.9c1.4-1.3,2.9-2.6,4.4-3.8l4.4-3.8c11.9-10,24.2-19.4,36.8-28.2
			c12.6-8.8,25.5-17.1,38.5-25c6.5-4,13.1-7.8,19.7-11.7c6.6-3.8,13.2-7.6,19.9-11.2c53.4-29.2,109.4-53.3,167-71.8
			C625.4,541.8,572,570.1,521.9,603c-6.3,4.1-12.5,8.3-18.7,12.5c-6.1,4.3-12.3,8.6-18.3,13c-12.1,8.8-24,17.8-35.4,27.3
			s-22.4,19.3-32.9,29.6l-3.9,3.9c-1.3,1.3-2.6,2.6-3.8,3.9l-7.5,8l-7.1,8.2c-1.2,1.3-2.3,2.8-3.5,4.2l-3.4,4.2
			c-8.9,11.3-17,23.2-24,35.5c-7.1,12.3-12.5,25.2-17.1,38.4c-4.5,13.2-7.5,26.9-9.6,40.7c-2,13.9-2.9,28-3,42.2
			c0,14.2,0.8,28.5,2.2,42.9c1.4,14.4,3.4,28.8,5.8,43.3c4.8,29,11,58.2,16.9,88.2c6,30,11.4,60.7,14.9,92
			c3.6,31.3,5.4,63.3,4.1,95.9c-0.3,8.1-0.9,16.3-1.6,24.5c-0.4,4.1-0.8,8.2-1.3,12.3c-0.5,4.1-1,8.2-1.6,12.3
			c-2.4,16.4-5.8,32.8-10.3,49c-9,32.4-22.4,64.5-41.3,94.2c-2.4,3.7-4.7,7.4-7.4,11c-2.6,3.6-5.1,7.3-7.9,10.7
			c-5.4,7.1-11.1,13.9-17.1,20.4c-11.9,13-24.8,24.8-38,35.6c-13.2,10.8-26.9,20.5-40.5,29.6c-13.6,9-27.3,17.4-40.7,25.3
			c-26.9,15.9-53,30.5-76.7,45.6c-23.8,15.1-45.2,30.8-62.7,47.9L-47.4,1567.6z"/>
	</g>
	<g>
		<path class="st3" d="M-39.8,1578.5c20.1-20.2,39.7-40.1,58.2-60.2c18.6-20.2,36.1-40.6,51.9-61.7s29.9-42.8,41.2-65.3
			c11.4-22.5,20-45.8,25.2-69.7c1.3-6,2.4-12,3.2-18l1.1-9.1c0.2-1.5,0.3-3.1,0.4-4.6l0.3-4.7l0.3-4.7c0.1-1.6,0.1-3.2,0.2-4.8
			l0.3-9.6c-0.1-6.5,0-12.9-0.4-19.5l-0.2-4.9l-0.1-2.5l-0.2-2.5l-0.7-10c-0.3-3.4-0.6-6.8-1-10.1l-0.5-5.1l-0.6-5.1l-1.2-10.3
			l-1.3-10.4l-1.4-10.5l-1.4-10.6c-2-14.2-3.9-28.6-5.8-43.3l-1.3-11.1c-0.2-1.9-0.4-3.7-0.6-5.6l-0.5-5.6c-0.3-3.8-0.8-7.5-1-11.2
			l-0.8-11.4l-0.2-2.8l-0.1-2.9l-0.2-5.7c-0.2-3.8-0.4-7.6-0.4-11.5l-0.1-11.5l0.2-11.4c0-1.9,0.1-3.8,0.1-5.7l0.3-5.7
			c0.2-3.8,0.3-7.6,0.6-11.4l0.9-11.4l0.2-2.8l0.3-2.8l0.6-5.7c6.6-60.3,23.2-119,48.3-173.2c25.2-54.2,58.9-104.1,99.7-146.8
			c10.1-10.8,20.9-20.9,31.9-30.6l8.4-7.2c2.8-2.4,5.6-4.7,8.5-7c5.7-4.6,11.3-9.1,16.9-13.5c11.2-8.9,22.4-17.7,32.9-27
			s20.3-19.1,28.9-29.8c1.1-1.3,2.1-2.7,3.1-4.1c1-1.4,2.1-2.8,3.1-4.2l2.8-4.3l1.4-2.2c0.5-0.7,0.9-1.5,1.3-2.2
			c1.7-3,3.5-5.9,4.9-8.9c0.7-1.5,1.4-3.1,2.1-4.6c0.6-1.6,1.3-3.1,1.8-4.7c4.5-12.8,6.5-26.7,5.8-40.6
			c-0.7-13.8-4.2-27.7-11.2-39.8c-3.6-6-8-11.6-13.4-16.2s-11.6-8.2-18.4-10.7c6.9,1.9,13.6,5,19.5,9.2c5.9,4.3,11,9.7,15.3,15.6
			c4.2,6,7.6,12.7,10.1,19.6c2.6,6.9,4.3,14.2,5.3,21.5c2.1,14.7,1.2,29.9-2.6,44.5c-0.5,1.8-1,3.6-1.6,5.5
			c-0.6,1.8-1.2,3.6-1.9,5.4c-1.4,3.6-3,6.9-4.6,10.3c-0.4,0.8-0.8,1.7-1.2,2.5l-1.3,2.5l-2.7,4.9c-0.9,1.6-1.9,3.2-2.9,4.8
			s-1.9,3.2-3,4.7c-8.3,12.4-18,23.8-28.1,34.4c-10.1,10.6-20.8,20.6-31.2,30.4c-5.2,4.9-10.4,9.8-15.5,14.7
			c-2.5,2.5-5.1,4.9-7.5,7.4l-7.3,7.5c-9.6,10.2-18.9,20.5-27.6,31.5c-34.9,43.5-62.2,92.6-81,144.3S185.6,934.9,184.3,989l-0.1,5.1
			l-0.1,2.5v2.5l0.1,10.1c0,3.4,0.2,6.7,0.3,10.1l0.2,5c0.1,1.7,0.2,3.4,0.3,5l0.7,10.1l1,10c0.3,3.3,0.8,6.7,1.2,10l0.6,5l0.3,2.5
			l0.4,2.5l1.6,10c0.5,3.3,1.2,6.7,1.8,10.1l0.9,5c0.3,1.7,0.7,3.4,1,5.1l2.1,10.2c2.9,13.7,6,27.4,9.2,41.4l2.4,10.6l2.4,10.7
			l2.3,10.8l2.2,10.9l1.1,5.5l1,5.6c0.7,3.7,1.4,7.4,2,11.2l1.8,11.3l0.5,2.8l0.4,2.9l0.8,5.8c1.1,7.6,1.8,15.5,2.5,23.4
			c0.3,4,0.5,8,0.7,11.9c0.1,2,0.3,4,0.3,6l0.1,6.1l0.1,6.1c0,2,0.1,4,0,6.1l-0.4,12.3c-0.4,8.2-1.1,16.5-2.2,24.6
			c-4.1,32.7-13,64.6-25,94.4c-12,29.9-27,57.9-43.4,84.2c-16.4,26.3-34.3,51.1-52.7,74.8c-18.3,23.7-37.2,46.4-55.8,68.6
			L-39.8,1578.5z"/>
	</g>
	<g>
		<path class="st3" d="M24.4,1694.1c-5.3-11.1-9-22.9-11.2-34.8c-2.1-11.9-2.6-23.8-1.8-35c0.8-11.3,2.9-22,5.8-32.1
			s6.6-19.6,11-28.4c8.7-17.8,19.7-33.3,32.3-47.2c6.3-6.9,13.1-13.4,20.4-19.5l2.8-2.2c0.9-0.7,1.9-1.5,2.7-2.1l5.2-3.9
			c3.5-2.7,7-4.9,10.5-7.4c1.8-1.2,3.5-2.3,5.3-3.4l5.3-3.3c3.5-2.1,7-4.1,10.6-6.2c3.5-1.9,7-3.8,10.5-5.7
			c3.4-1.7,6.9-3.6,10.3-5.2c13.7-6.7,26.9-12.6,39.4-18.3c12.5-5.7,24.4-11.1,35.4-16.8c2.7-1.5,5.4-2.9,8.1-4.3l3.9-2.2
			c1.3-0.7,2.6-1.5,3.9-2.3c2.6-1.6,5.2-3.1,7.7-4.8l3.8-2.5c1.3-0.8,2.5-1.7,3.7-2.6c39.8-27.5,73.2-66.2,95.7-110.8
			c11.2-22.3,19.8-46.1,25.1-70.6l1.8-9.2c0.5-3.1,1.1-6.2,1.5-9.3c0.4-3.2,0.9-6.3,1.3-9.5s0.7-6.5,1.1-9.8c1.3-13.1,2.1-26.9,3-41
			c0.9-14.2,2-28.8,3.9-43.7c0.6-3.8,1-7.5,1.7-11.3l0.9-5.6l1.1-5.7l0.6-2.8l0.6-2.9c0.4-1.9,0.9-3.9,1.4-5.8c1-3.8,2-7.7,3.2-11.4
			c2.4-7.6,5.1-15.1,8.4-22.4c3.2-7.3,6.9-14.5,11.2-21.5c8.4-13.9,19.2-26.9,32.4-37.7c6.7-5.3,13.9-10,21.6-13.8
			c1.9-0.9,3.9-1.9,5.9-2.7c2-0.9,4-1.6,5.9-2.3c2-0.7,3.9-1.3,5.9-2c1.9-0.6,3.9-1.2,5.8-1.7c15.3-4.1,29.6-5.9,42.9-8.2
			c6.6-1.1,13.1-2.3,19-3.9c5.9-1.5,11.5-3.4,16.2-5.8c1.2-0.6,2.3-1.2,3.4-1.9c0.5-0.3,1-0.7,1.6-1l0.8-0.5l0.7-0.6
			c2-1.4,3.6-3.1,5.2-4.8l1.1-1.4c0.4-0.4,0.7-1,1-1.4c0.7-0.9,1.3-2,1.9-3.1c1.1-2.1,2.1-4.3,2.7-6.8c0.2-0.6,0.3-1.2,0.5-1.9
			c0.1-0.6,0.3-1.3,0.4-1.9c0.2-1.3,0.5-2.7,0.6-4.1c0.2-1.4,0.2-2.8,0.3-4.3c0-0.7,0-1.5,0-2.2s0-1.5,0-2.3c0-3-0.3-6.2-0.6-9.5
			c-0.4-3.3-0.7-6.6-1.2-10c-0.9-6.8-2.1-13.8-2.9-21.2c-0.8-7.4-1.3-15.1-0.6-23.3c0.1-2,0.5-4.1,0.8-6.1c0.4-2.1,0.8-4.1,1.4-6.2
			c0.5-2.1,1.3-4.1,2.1-6.1c0.9-2,1.7-4,2.9-5.8c2.1-3.8,4.8-7.3,7.7-10.4c3-3.1,6.3-5.7,9.6-8c6.8-4.5,13.8-7.4,20.6-10
			s13.4-4.7,19.7-7.1c6.3-2.4,12.2-5.1,17.3-8.6c2.5-1.8,4.8-3.7,6.8-5.9l1.4-1.7c0.5-0.6,0.9-1.2,1.3-1.8c0.5-0.6,0.8-1.3,1.2-1.9
			l0.6-1c0.2-0.3,0.4-0.6,0.5-1c2.6-5.4,3.9-11.7,4-18.2c0.1-3.3-0.1-6.6-0.3-10c-0.3-3.4-0.7-6.8-1.2-10.2
			c-0.9-6.9-2.1-13.8-2.8-21c-0.6-7.3-0.1-14.5,1.4-21.6c1.5-7,4.1-13.9,8.5-19.6c2.2-2.8,4.8-5.4,7.9-7.2c3-1.9,6.5-2.9,10-3.4
			c-3.4,0.7-6.7,2.1-9.5,4.1s-5.1,4.6-6.9,7.5c-3.6,5.8-5.5,12.5-6.4,19.2c-0.8,6.7-0.6,13.6,0.5,20.2c1.2,6.7,3,13.5,4.6,20.3
			c1.6,6.9,3,14,3.4,21.4c0.2,1.8,0.1,3.7,0.1,5.6c0,0.9-0.1,1.9-0.1,2.9c-0.1,1-0.1,1.9-0.3,2.9l-0.4,2.9c-0.1,1-0.4,1.9-0.6,2.9
			c-0.4,1.9-1.1,3.8-1.7,5.7c-0.1,0.5-0.3,0.9-0.6,1.4l-0.6,1.4c-0.4,0.9-0.8,1.8-1.3,2.7s-1,1.8-1.5,2.6l-1.7,2.5
			c-2.4,3.2-5.2,6.1-8.2,8.6c-6,5-12.7,8.7-19.3,11.9c-6.5,3.2-13,5.9-19.1,8.8c-6,2.9-11.7,6-16.3,9.7s-8,7.9-10.2,12.8
			c-0.6,1.2-1,2.5-1.4,3.7c-0.3,1.3-0.7,2.6-0.9,3.9c-0.3,1.3-0.4,2.7-0.6,4.1c-0.1,1.4-0.2,2.8-0.1,4.3c0,5.8,0.9,12.1,2.2,18.5
			c1.3,6.5,3,13.1,4.6,20.1c0.8,3.5,1.6,7.1,2.3,10.7c0.7,3.7,1.3,7.4,1.8,11.4c0.1,1,0.2,2,0.3,3s0.2,2,0.2,3
			c0.1,2,0.2,4.1,0.1,6.2c0,2.1-0.1,4.2-0.3,6.4c-0.1,1.1-0.3,2.2-0.4,3.3c-0.1,1.1-0.3,2.2-0.5,3.3c-0.7,4.4-2.2,8.8-3.9,13.1
			c-1,2.1-1.8,4.2-3,6.2c-0.6,1-1.1,2-1.7,3l-1.9,2.9c-5.4,7.6-12.5,13.9-19.9,18.4c-7.4,4.7-15,7.9-22.4,10.5s-14.6,4.6-21.6,6.5
			c-14,3.6-27.3,6.6-38.7,10.8c-1.5,0.5-2.8,1.1-4.2,1.6c-1.3,0.6-2.7,1.1-4,1.7c-1.3,0.6-2.5,1.2-3.7,1.9c-1.2,0.6-2.3,1.3-3.5,2
			c-4.6,2.8-8.8,6.2-12.8,10c-7.9,7.7-14.4,17.1-19.6,27.6c-2.6,5.2-4.8,10.8-6.8,16.4c-1.9,5.7-3.5,11.5-4.8,17.4
			c-0.6,3-1.2,5.9-1.7,8.9c-0.2,1.5-0.5,3-0.7,4.5l-0.3,2.3l-0.2,2.3l-0.5,4.7l-0.4,4.8c-0.3,3.1-0.4,6.4-0.6,9.6
			c-0.5,12.9-0.4,26.3-0.1,40.1c0.3,13.8,0.8,28,0.6,42.8c0,3.7-0.1,7.4-0.2,11.2c-0.1,3.7-0.3,7.6-0.5,11.4s-0.6,7.7-0.9,11.5
			c-0.4,3.8-0.8,7.7-1.3,11.5c-3.9,30.6-11.8,60.8-23.2,89.6c-11.5,28.8-26.6,56.3-44.8,81.7c-18.2,25.4-39.8,48.7-64.3,69.1
			c-1.5,1.3-3,2.6-4.6,3.8l-4.7,3.7c-3.1,2.5-6.4,4.8-9.6,7.2c-1.6,1.2-3.2,2.3-4.9,3.5l-4.9,3.4c-3.3,2.2-6.6,4.3-9.9,6.5
			c-13.2,8.4-26.2,15.7-38.6,22.7c-12.4,7-24.2,13.5-35.1,20.2c-2.8,1.7-5.3,3.3-8,5c-2.6,1.7-5.1,3.4-7.6,5
			c-2.4,1.7-4.8,3.4-7.1,5.1l-3.4,2.6c-1.1,0.9-2.3,1.7-3.3,2.6c-2.1,1.8-4.3,3.5-6.2,5.3l-3,2.7c-0.5,0.5-0.9,0.8-1.3,1.2l-1.2,1.2
			c-3.2,3.2-6.2,6.8-9,10.5c-5.5,7.4-10,15.5-12.8,23.2c-2.9,7.7-3.9,15-3.5,20.4c0.1,2.7,0.7,4.9,1.4,6.7c0.7,1.8,1.5,3.3,2.6,4.7
			L24.4,1694.1z"/>
	</g>
	<g>
		<path class="st3" d="M-50.2,1546.7c7-2.3,13.5-6,19.8-11.9c6.3-5.8,12.2-13.8,17.1-23.4s8.7-20.6,11.2-32.2
			c2.5-11.7,3.7-23.9,3.6-36c0-1.5,0-3-0.1-4.5l-0.1-2.3c0-0.8,0-1.5-0.1-2.3l-0.9-9.9l-1.3-10.1l-1.7-10.2
			c-2.5-13.8-6-27.9-10.1-42.5c-8.1-29.1-18.6-59.7-27.5-92.5c-1.1-4.2-2.2-8.2-3.2-12.4c-1-4.2-2.1-8.4-3-12.7
			c-1.8-8.6-3.7-17.2-5-25.8l-1.1-6.5l-0.5-3.2l-0.4-3.3l-1.6-13c-0.3-2.2-0.5-4.3-0.7-6.5l-0.6-6.5l-0.6-6.5
			c-0.2-2.2-0.2-4.3-0.4-6.5l-0.7-13l-0.2-13c0-2.2-0.1-4.3,0-6.5l0.1-6.5l0.1-6.5c0.1-2.2,0.1-4.3,0.2-6.5l0.8-12.9l0.2-3.2
			l0.3-3.2l0.6-6.4c0.7-8.6,1.9-17.1,3-25.6c10-68,33.1-133.3,67.4-191.8L21,860c2.2-3.6,4.6-7.1,6.9-10.7l3.5-5.3
			c1.2-1.8,2.4-3.5,3.6-5.2l7.3-10.4l7.6-10.1c1.3-1.7,2.5-3.4,3.9-5l4-4.9l4-4.9c1.3-1.6,2.6-3.3,4.1-4.9l8.3-9.5l2.1-2.4l2.2-2.3
			l4.3-4.6c2.9-3.1,5.7-6.2,8.8-9.1l9-8.8c3.1-2.9,6.2-5.7,9.3-8.5l4.7-4.2l4.8-4.1c3.2-2.7,6.4-5.4,9.7-8.1
			c6.6-5.1,13.2-10.4,20-15.2c26.8-19.3,53.7-36,78-54.8c12.1-9.4,23.5-19.2,33.6-30c5-5.4,9.7-11,13.9-16.9
			c4.2-5.9,8-12.1,11.2-18.5s5.9-13.1,8-20s3.6-14.1,4.8-21.5c1.2-7.4,1.7-14.9,2.1-22.6c0.4-7.7,0.4-15.4,0.2-23.3
			c-0.3-15.7-1.3-31.6-1.7-47.8c-0.4-16.2-0.1-32.7,2-49.1c1.1-8.2,2.6-16.4,4.7-24.4c2.2-8,5-15.9,8.6-23.5s8.1-14.7,13.2-21.3
			c1.3-1.7,2.7-3.2,4.1-4.8c1.5-1.5,2.9-3,4.5-4.4c3.1-2.8,6.4-5.4,9.8-7.8c6.9-4.7,14.4-8.4,22.2-11c3.9-1.3,7.9-2.4,11.9-3.1
			s8.1-1.1,12.2-1.3c8.2-0.1,16.4,1,24,4c3.8,1.5,7.4,3.3,10.8,5.6c3.3,2.3,6.4,4.9,9.1,7.8c-2.9-2.7-6.2-5.1-9.6-7
			c-3.4-2-7.1-3.5-10.9-4.6c-7.5-2.3-15.5-2.7-23.2-2c-15.5,1.6-30.3,8.1-42.3,17.5c-3,2.4-5.8,5-8.4,7.7c-1.3,1.4-2.5,2.8-3.7,4.3
			c-1.1,1.5-2.3,3-3.3,4.5c-4.1,6.3-7.7,13.1-10.4,20.2c-2.7,7.1-4.7,14.5-6.2,22c-1.4,7.5-2.2,15.2-2.6,22.9
			c-0.8,15.4,0.1,31,1.7,46.6s3.8,31.5,5.3,47.7c0.8,8.1,1.4,16.3,1.6,24.6s0.3,16.7-0.4,25.2c-0.7,8.5-1.7,17.1-3.7,25.6
			c-1.9,8.5-4.6,17-7.9,25.1s-7.3,16-11.8,23.5s-9.6,14.6-14.9,21.3c-10.6,13.6-22.6,25.6-35,36.8c-24.7,22.3-50.9,41.4-74.4,61.4
			c-5.9,5-11.4,10.1-17,15.2c-2.8,2.6-5.4,5.3-8.1,7.9l-4,4l-3.9,4.1c-2.6,2.8-5.2,5.5-7.8,8.3l-7.5,8.5c-2.5,2.8-4.9,5.8-7.2,8.7
			l-3.6,4.4l-1.8,2.2l-1.7,2.3l-6.8,9.1c-1.2,1.5-2.2,3.1-3.3,4.6l-3.2,4.6l-3.2,4.6c-1.1,1.5-2.1,3.2-3.1,4.7l-6.1,9.5l-5.8,9.7
			c-1,1.6-1.9,3.2-2.9,4.9l-2.7,5c-1.8,3.3-3.7,6.6-5.4,9.9L66,898.7c-26.4,54-42,112.8-46.1,171.8c-0.3,7.4-0.9,14.7-0.9,22.1
			l-0.1,5.5v2.8l0.1,2.8l0.2,11c0,1.8,0.1,3.7,0.2,5.5l0.3,5.5l0.3,5.5c0.1,1.8,0.3,3.6,0.5,5.5l1,10.9l1.4,10.8
			c0.2,1.8,0.4,3.6,0.7,5.4l0.9,5.4l0.9,5.4c0.3,1.8,0.6,3.6,1,5.4l2.2,10.6l0.5,2.7l0.7,2.6l1.3,5.3c1.6,7,3.8,13.9,5.7,20.9
			c1,3.5,2.2,7,3.3,10.4c1.1,3.5,2.4,7,3.6,10.5c10,28.2,22.5,57.3,34.1,89c5.8,15.8,11.3,32.3,15.9,49.7l3.3,13.2l2.9,13.5
			c0.8,4.6,1.6,9.2,2.4,13.8c0.2,1.1,0.4,2.4,0.5,3.6l0.5,3.7c0.3,2.5,0.5,4.9,0.8,7.4c1.8,19.8,1.5,39.6-1.1,59.5
			s-7.5,39.8-15.5,59.5c-8,19.6-19.2,39.2-34.7,56.7c-7.7,8.8-16.6,17-26.3,24.2c-9.8,7.3-20.5,13.5-31.7,18.5L-50.2,1546.7z"/>
	</g>
	<g>
		<path class="st1" d="M9.8,1567.8c14.7-6.4,28.7-12.5,41.6-18.7c12.9-6.3,24.8-12.7,35.2-19.8c5.2-3.5,10.2-7.2,14.6-10.8
			c4.4-3.7,8.6-7.7,12.4-11.8c7.7-8.2,13.6-17.1,17.6-25.8c0.4-1.1,1-2.2,1.4-3.3c0.4-1.1,0.8-2.2,1.2-3.3c0.3-1.1,0.6-2.2,1-3.2
			c0.2-0.5,0.3-1.1,0.4-1.6l0.4-1.6c0.3-1.1,0.4-2.1,0.6-3.2l0.3-1.6l0.2-1.7l0.2-1.7c0.1-0.6,0.1-1.3,0.1-1.9l0.1-1.9
			c0-0.6,0-1.4,0-2.1c0.1-5.6-0.3-12.2-1-19.7s-1.6-15.9-2.3-25.3c-0.7-9.3-1.1-19.7-0.4-30.9c0.2-2.9,0.5-5.7,0.8-8.6
			c0.4-2.9,0.8-5.9,1.3-8.8c0.6-2.9,1.2-5.8,1.9-8.7c0.3-1.5,0.7-2.8,1.1-4.2l1.2-4.2c3.4-11,7.9-21.1,12.8-30.3
			c4.9-9.2,10.3-17.4,15.8-25.1c2.7-3.9,5.5-7.5,8.2-11.1l4.1-5.2c1.4-1.7,2.7-3.4,4.1-5.1c5.5-6.6,10.8-13,16-19
			c10.2-12,19.6-23.3,26.5-33.8c3.4-5.2,6.3-10.2,8.3-14.8c2.1-4.6,3.3-8.8,3.9-12.8l0.2-0.8v-0.7c0-0.5,0.1-1,0.1-1.5
			c0.2-1,0.1-2,0.1-3v-1.5c-0.1-0.5-0.1-1-0.2-1.5c-0.1-1-0.1-2.1-0.3-3.1c-0.4-2.1-0.9-4.4-1.8-7c-0.9-2.6-2-5.5-3.3-8.5
			s-2.8-6.3-4.4-9.7l-5.3-10.9c-3.7-7.7-7.8-16.1-11.3-26.3c-1.8-5.1-3.4-10.6-4.5-16.6c-1.2-6-1.8-12.6-1.6-19.4s1.3-13.9,3.2-20.5
			c0.9-3.3,2.2-6.6,3.6-9.8c0.7-1.6,1.5-3.1,2.2-4.6c0.8-1.5,1.6-2.9,2.4-4.3c3.4-5.6,7.1-10.4,10.9-14.6c3.8-4.2,7.6-7.8,11.3-11.1
			c7.3-6.4,14.3-11.5,20.1-16.1c2.9-2.3,5.7-4.5,8-6.5c2.4-2,4.3-3.9,5.9-5.6c1.6-1.7,2.6-3.1,3.4-4.2c0.7-1.1,1.1-2,1.5-2.9
			c0-0.2,0.1-0.5,0.2-0.7s0-0.5,0.1-0.7c0-0.1,0.1-0.2,0.1-0.4c0-0.1,0-0.3,0-0.5c0-0.3,0-0.6,0.1-1c-0.1-0.4-0.1-0.8-0.1-1.3
			c0-0.2,0-0.4-0.1-0.7l-0.2-0.8c-0.1-0.5-0.2-1-0.3-1.6l-0.5-1.9c-0.1-0.6-0.4-1.3-0.7-2l-0.4-1.1l-0.2-0.5l-0.2-0.6l-0.9-2.3
			c-0.1-0.4-0.3-0.8-0.5-1.2l-0.5-1.3l-2.3-5.4l-1.2-3c-0.4-1-0.8-2-1.3-3.1l-1.3-3.3c-0.4-1.1-0.9-2.4-1.3-3.5
			c-0.9-2.3-1.7-5-2.4-7.6c-0.4-1.3-0.7-2.8-1.1-4.2l-0.5-2.1c-0.2-0.7-0.3-1.5-0.4-2.3c-0.3-1.5-0.5-3-0.7-4.6s-0.3-3.2-0.4-4.8
			c-0.4-6.5,0.3-13.2,1.8-19.5c0.7-3.2,1.8-6.2,2.9-9.2c1.2-2.9,2.5-5.7,4-8.4c2.9-5.3,6.4-10,10-14.3c3.7-4.2,7.6-7.9,11.6-11.3
			c4-3.3,8.2-6.3,12.5-8.9c4.3-2.6,8.7-5,13.2-7.1c2.2-1,4.5-2,6.8-2.9c1.2-0.5,2.2-0.8,3.3-1.2c1.1-0.4,2.2-0.8,3.2-1.2
			c4.3-1.5,8.5-2.8,12.6-4c8.2-2.4,15.9-4.4,23.2-6.6c3.6-1.1,7.1-2.2,10.5-3.3c3.3-1.2,6.5-2.4,9.5-3.8c3.1-1.3,5.8-2.8,8.5-4.4
			c1.3-0.9,2.7-1.7,3.9-2.6c1.2-0.9,2.6-1.8,3.8-2.8c4.9-3.9,9.4-8.5,13.3-13.8s7.4-11.1,10.4-17.4c5.9-12.7,9.9-27,12.4-41.8
			c2.6-14.9,3.8-30.3,4.3-46l0.1-5.9l0.1-6l0.1-12.1c0.1-8.1,0.3-16.3,0.6-24.6c0.7-16.5,2-33.2,5.2-49.8
			c3.1-16.6,8.2-33.3,16.5-48.6c4.2-7.6,9.1-14.9,14.8-21.4c5.7-6.6,12.2-12.4,19-17.5c13.6-10.2,28.3-17.6,42.4-25.2
			c7.1-3.8,14-7.6,20.8-11.8c1.7-1,3.3-2.1,5-3.2l2.5-1.6l2.4-1.7c3.3-2.3,6.2-4.6,9-7.3c5.7-5.3,10.7-11.3,14.8-18
			c4.2-6.6,7.5-13.8,9.6-21.4s2.9-15.6,1.6-23.4c-0.7-3.9-1.8-7.7-3.6-11.3c-1.8-3.6-4.1-6.9-6.8-9.9c3,2.7,5.6,5.9,7.6,9.4
			c2.1,3.5,3.6,7.4,4.6,11.4c2,8,1.8,16.5,0.2,24.6s-4.5,16-8.4,23.3c-3.9,7.4-8.7,14.2-14.4,20.4c-2.8,3.1-6,6-9.2,8.6l-2.4,2
			l-2.4,1.9c-1.6,1.3-3.3,2.5-4.9,3.7c-6.6,4.9-13.5,9.3-20.3,13.7c-13.6,8.7-27.2,17.1-38.8,27.1c-5.8,5-11,10.4-15.4,16.4
			s-8.2,12.4-11.2,19.2c-6.1,13.6-9.5,28.5-11.1,43.7c-1.7,15.2-1.8,30.8-1.2,46.6c0.3,7.9,0.7,15.8,1.2,23.8l0.8,12l0.4,6.1
			l0.3,6.2c0.8,16.6,0.7,33.4-0.9,50.5s-4.9,34.5-11.3,51.6c-3.2,8.6-7.3,17-12.5,25.1c-5.1,8.1-11.4,15.7-18.5,22.4
			c-1.8,1.7-3.7,3.3-5.6,4.9c-1.9,1.6-3.9,3-5.9,4.5c-4.1,2.8-8.2,5.5-12.4,7.7c-4.2,2.3-8.4,4.3-12.5,6.2c-4.1,1.8-8.3,3.5-12.3,5
			c-8,3.1-15.7,5.7-22.8,8.4c-3.6,1.3-6.9,2.7-10.2,4.1c-0.8,0.3-1.6,0.7-2.4,1.1c-0.8,0.4-1.6,0.7-2.3,1.1
			c-1.4,0.7-2.8,1.4-4.1,2.2c-5.4,3.1-10.4,6.7-14.5,10.7c-4.1,3.9-7.1,8.2-8.6,11.8c-0.8,1.9-1.2,3.6-1.4,5.1
			c-0.2,1.6-0.2,2.9,0.2,4.5c0.1,0.4,0.1,0.8,0.2,1.2c0.1,0.5,0.3,0.9,0.4,1.4c0.1,0.2,0.1,0.4,0.2,0.7l0.3,0.8
			c0.2,0.5,0.3,1,0.6,1.6c0.5,1.2,0.9,2.4,1.6,3.8c0.3,0.7,0.6,1.3,1,2.1l1.1,2.3l5.3,10.4l0.7,1.5c0.2,0.5,0.5,1,0.7,1.5l1.5,3.2
			l0.4,0.8l0.4,0.9l0.8,1.8c0.5,1.2,1,2.3,1.5,3.6l1.4,3.9c0.5,1.3,0.9,2.8,1.3,4.2l0.6,2.1c0.2,0.7,0.4,1.5,0.5,2.3
			c0.3,1.6,0.7,3.1,1,4.7c0.2,1.7,0.4,3.4,0.6,5c0.1,0.8,0.2,1.7,0.2,2.5l0.1,2.6c0,1.8,0,3.5-0.1,5.3s-0.3,3.5-0.5,5.3
			c-1,7-3.1,14-6,20c-2.8,6.1-6.3,11.4-9.8,16c-3.5,4.6-7.1,8.5-10.6,12.1c-3.5,3.5-6.9,6.6-10.1,9.5c-6.4,5.8-12.1,10.8-16.6,15.4
			c-4.4,4.5-7.4,8.6-8.6,11.4c-0.1,0.3-0.3,0.7-0.4,1s-0.2,0.6-0.3,0.9c-0.1,0.6-0.2,1-0.3,1.6c-0.1,1.1-0.1,2.1,0,3.4
			c0.1,1.2,0.4,2.7,1,4.5s1.4,4,2.5,6.5c2.2,4.9,5.5,10.8,9.3,17.4l6.1,10.5c2.1,3.7,4.3,7.6,6.5,11.8c2.2,4.2,4.4,8.7,6.4,13.6
			c2.1,4.9,4,10.2,5.5,16c0.8,2.9,1.4,5.8,2,8.8l0.8,4.4c0.2,1.5,0.4,3,0.5,4.5c0.3,3,0.7,6,0.6,9.1l0.1,4.6v2.3l-0.1,2.3
			c-0.6,12.1-3.1,23.8-6.7,34.3s-8.1,19.9-12.8,28.6c-4.8,8.6-9.8,16.6-14.8,23.9c-5,7.4-10,14.3-14.8,21c-4.8,6.6-9.4,13-13.8,19.1
			c-1.1,1.5-2.2,3.1-3.2,4.6l-3,4.5c-1.9,3-3.8,5.9-5.5,8.8c-3.4,5.8-6.5,11.3-8.7,16.6c-2.3,5.2-3.9,10.1-4.8,14.6l-0.3,1.7
			c-0.1,0.6-0.3,1.1-0.3,1.6c-0.1,1.1-0.2,2.1-0.4,3.2c0,1.1-0.1,2.1-0.2,3.2c0,1.2,0,2.3,0,3.5c0.1,4.9,0.8,10.6,1.8,17.3
			c1,6.7,2.4,14.2,3.9,22.7c1.4,8.5,2.9,17.9,3.6,28.4c0.1,1.3,0.2,2.6,0.3,4l0.1,4.1c0,1.4,0.1,2.7,0.1,4.2l-0.1,4.3l-0.1,4.3
			l-0.3,4.4c-0.2,2.9-0.5,5.9-0.9,8.8l-0.6,4.4c-0.2,1.5-0.4,2.9-0.7,4.3c-0.6,2.8-1.2,5.7-1.8,8.5c-0.7,2.8-1.5,5.6-2.3,8.3
			c-0.8,2.8-1.7,5.4-2.6,8.1c-7.6,21.4-18.6,40.4-31.6,57c-6.5,8.3-13.4,16.1-20.8,23.4c-7.5,7.3-15,13.8-22.7,19.9
			c-15.4,12.2-31.3,22.4-46.7,31.5c-15.5,9.1-30.6,17-44.9,24.5L9.8,1567.8z"/>
	</g>
	<g>
		<path class="st4" d="M204.9,1862.9c-3.9-15.7-8-32.2-11.6-49.8c-3.5-17.6-6.5-36.2-7.6-55.8c-0.6-9.8-0.7-19.7-0.2-30.2
			c0.5-10.3,1.7-20.7,3.6-31.1c3.7-20.7,10.6-41.6,21.5-61.5c1.4-2.5,2.8-5,4.3-7.4c1.6-2.4,3.1-4.8,4.7-7.2c1.7-2.4,3.4-4.7,5.2-7
			c0.8-1.2,1.8-2.3,2.7-3.4l2.8-3.4c1.8-2.3,3.9-4.4,5.9-6.5l3.1-3.2l3.2-3l3.2-2.9c1.1-0.9,2.1-1.8,3.2-2.7l3.2-2.6
			c1.1-0.9,2.1-1.6,3.1-2.4c8.4-6.5,16.4-11.6,23.6-16.2c7.3-4.6,13.9-8.5,19.5-12.2c5.7-3.7,10.4-7.1,14.1-10.2
			c0.9-0.8,1.8-1.6,2.6-2.3c0.7-0.8,1.5-1.5,2.3-2.2c0.7-0.8,1.4-1.6,2.1-2.4c0.4-0.4,0.7-0.9,1-1.3l1-1.4c2.7-3.7,5.3-8.2,7.7-13.3
			c2.4-5.2,4.5-11.2,6.6-17.6c1-3.2,1.9-6.6,2.9-10l1.3-5.3c0.5-1.8,0.9-3.6,1.3-5.4c1.7-7.3,3.4-15,5.1-23c1.8-8,3.6-16.4,5.8-25
			c2.2-8.6,4.7-17.7,8-27s7.4-18.9,12.8-28.6c5.4-9.6,12.5-19.3,21.1-27.8l1.6-1.6l1.7-1.5l3.4-3c2.3-2,4.7-3.8,7.2-5.6
			c1.2-0.9,2.5-1.8,3.7-2.6l3.8-2.3c2.6-1.5,5.1-3.1,7.8-4.4c5.3-2.7,10.6-4.8,15.6-6.5s9.8-3.1,14.4-4.2c4.6-1.2,9-2.1,13.2-3
			l11.9-2.4c7.4-1.5,14.1-3,19.2-4.6c2.6-0.8,4.7-1.7,6.5-2.5s3-1.6,4.1-2.3c1-0.7,1.8-1.4,2.5-2.2c0.4-0.4,0.7-0.9,1-1.3
			c0.1-0.3,0.3-0.5,0.5-0.8c0.1-0.3,0.3-0.6,0.5-1c1.3-2.8,2.4-7.6,2.8-14c0.5-6.4,0.4-13.9,0.5-22.6c0-4.3,0.1-8.9,0.4-13.9
			c0.3-5,0.9-10.3,1.9-16c1.1-5.7,2.7-11.8,5.4-18c2.6-6.2,6.4-12.4,11-17.8c1.2-1.3,2.4-2.6,3.6-3.9c1.2-1.2,2.6-2.4,3.9-3.6l2-1.7
			c0.7-0.5,1.4-1,2.1-1.5c1.4-1,2.8-2,4.2-2.9c1.4-0.8,2.8-1.6,4.1-2.4c0.7-0.4,1.4-0.8,2.1-1.1l2-1c1.3-0.6,2.7-1.3,4-1.8l3.8-1.5
			c1.3-0.5,2.5-0.9,3.7-1.3l1.8-0.6l0.9-0.3l0.9-0.3l3.4-1c0.6-0.2,1.1-0.3,1.6-0.5l1.6-0.4l11.3-3l2.4-0.7c0.8-0.2,1.5-0.5,2.2-0.7
			c1.5-0.4,2.6-0.9,3.9-1.3c0.6-0.2,1.1-0.5,1.6-0.7l0.8-0.3c0.3-0.1,0.4-0.2,0.7-0.3c0.4-0.2,0.8-0.4,1.3-0.6
			c0.3-0.2,0.7-0.4,1-0.6c1.4-0.8,2.4-1.7,3.5-2.9c1-1.2,2-2.6,2.9-4.4c1.7-3.6,2.9-8.7,3.1-14.3c0.3-5.6-0.3-11.8-1.7-17.9
			c-0.3-1.5-0.7-3-1.1-4.5c-0.2-0.7-0.5-1.6-0.7-2.4c-0.3-0.8-0.5-1.7-0.8-2.5c-1.1-3.4-2.3-6.8-3.7-10.4
			c-2.7-7.1-5.9-14.6-8.9-22.6c-1.5-4-3-8.2-4.4-12.5c-1.4-4.4-2.7-8.8-3.8-13.5c-1.1-4.6-1.9-9.5-2.5-14.4
			c-0.2-2.5-0.5-4.9-0.5-7.4s-0.2-4.9-0.1-7.4c0.3-9.8,1.7-19.6,4.4-28.7c2.6-9.2,6.2-17.9,10.4-26c8.6-16.2,19.4-30.2,31-42.8
			c11.7-12.6,24.2-23.8,37.1-34.3l4.9-3.9l4.8-3.8l9.5-7.4c6.3-4.9,12.5-9.9,18.6-14.9c12.1-10.1,23.7-20.5,34-31.9
			s19.1-23.8,25.2-37.4c3-6.8,5.4-13.9,6.9-21.2c1.6-7.3,2.1-14.8,2-22.4c-0.2-15.3-2.9-31-5.5-47c-1.3-8-2.5-16.1-3.3-24.3
			c-0.2-2-0.4-4.1-0.5-6.2l-0.2-3.1L766,668c-0.2-4.1-0.1-8.4,0.3-12.6c0.8-8.4,2.7-16.5,5.6-24.3c2.9-7.8,6.8-15.2,11.8-21.8
			s11.2-12.4,18.5-16.2c3.6-1.9,7.5-3.3,11.5-4.1s8.1-1,12.1-0.6c-4-0.1-8.1,0.4-11.9,1.5c-3.8,1.1-7.5,2.7-10.8,4.8
			c-6.7,4.2-12.1,10.2-16.4,16.7c-4.3,6.6-7.4,13.9-9.6,21.4c-2.2,7.5-3.4,15.3-3.5,23c-0.1,3.9,0.1,7.7,0.6,11.6l0.3,2.9l0.4,2.9
			c0.3,1.9,0.5,3.9,0.9,5.8c1.3,7.8,3.1,15.5,5,23.3c3.8,15.6,7.9,31.5,9.4,48.5c0.7,8.4,0.8,17.2-0.4,25.8
			c-1.1,8.6-3.2,17.1-6.1,25.3c-5.9,16.4-15,31.3-25.3,44.6c-10.3,13.4-21.9,25.5-33.7,37c-5.9,5.7-11.9,11.3-17.9,16.8l-9,8.2
			l-4.4,4l-4.3,4c-11.4,10.7-22,22-31.4,33.8s-17.4,24.3-23,37.1c-2.7,6.4-4.8,12.9-6.1,19.4s-1.7,12.9-1.4,19.1
			c0,1.6,0.3,3.1,0.4,4.7c0.2,1.6,0.5,3.1,0.7,4.6c0.7,3.1,1.4,6.1,2.4,9.3c0.9,3.1,2.2,6.3,3.5,9.6c1.4,3.3,2.8,6.6,4.5,10
			c3.2,6.8,6.9,13.9,10.5,21.7c1.8,3.8,3.6,7.9,5.4,12c0.4,1,0.9,2.1,1.3,3.2c0.4,1.1,0.8,2.1,1.3,3.3c0.9,2.3,1.6,4.7,2.4,7
			c1.4,4.7,2.6,9.6,3.5,14.6s1.5,10.1,1.7,15.3c0.2,5.2,0,10.6-0.7,16.2c-0.7,5.5-1.9,11.2-4,17c-1,2.9-2.2,5.7-3.6,8.5
			c-1.4,2.8-3,5.6-4.9,8.3c-3.7,5.4-8.3,10.3-13.4,14.4c-1.3,1-2.6,2-3.9,3c-1.3,0.9-2.6,1.7-3.9,2.5c-0.6,0.4-1.3,0.9-2,1.2l-1.9,1
			c-1.3,0.7-2.6,1.4-3.8,2c-2.4,1.1-5,2.3-7.3,3.2c-1.2,0.5-2.4,1-3.5,1.4l-3.3,1.2c-1.1,0.4-2.1,0.7-3.2,1.1l-3.1,1.1l-5.6,1.9
			l-1.3,0.5c-0.5,0.2-0.9,0.3-1.2,0.5l-2.4,0.9l-0.6,0.2l-0.5,0.2l-1,0.4c-0.7,0.3-1.4,0.6-2,0.9l-1.7,0.8c-0.6,0.3-0.9,0.6-1.4,0.8
			l-0.7,0.4c-0.2,0.1-0.4,0.3-0.5,0.4c-0.3,0.3-0.7,0.5-1,0.7c-0.2,0.3-0.5,0.5-0.7,0.7c-0.1,0.1-0.3,0.2-0.4,0.3
			c-0.1,0.1-0.1,0.2-0.2,0.3c-0.1,0.2-0.3,0.4-0.5,0.6c-0.1,0.2-0.3,0.4-0.4,0.6c-0.5,0.9-0.8,1.7-1.2,3s-0.7,3-0.9,5.3
			s-0.3,5-0.3,8.1c0.1,3.1,0.3,6.6,0.5,10.3c0.5,7.4,1.3,16,1.4,25.7c0,4.9-0.1,10.2-0.7,15.8c-0.6,5.6-1.7,11.6-3.6,17.9
			c-0.5,1.6-1.1,3.1-1.6,4.7c-0.6,1.6-1.3,3.2-2,4.7c-1.5,3.1-3.1,6.3-4.9,9.2c-3.7,5.9-8.2,11.4-13.2,16.1s-10.3,8.6-15.6,11.7
			s-10.5,5.6-15.4,7.7c-10,4.1-19,6.7-27.2,9.1l-11.6,3.3c-3.7,1.1-7.1,2.1-10.2,3.2s-6,2.1-8.5,3.3c-2.5,1.1-4.7,2.3-6.4,3.4
			c-0.9,0.5-1.7,1.2-2.5,1.8c-0.4,0.3-0.8,0.6-1.3,0.9l-1.1,1c-0.7,0.7-1.6,1.3-2.2,2.1c-0.3,0.4-0.7,0.7-1,1.1l-0.5,0.5l-0.5,0.6
			c-2.6,3.1-4.9,6.8-7,11.4s-3.9,10-5.5,16.1c-3.3,12.1-5.4,26.6-7.6,42.3c-1.1,7.8-2.2,16.1-3.5,24.6c-0.3,2.1-0.7,4.2-1,6.4
			l-1.2,6.6c-0.9,4.5-1.7,8.9-2.8,13.5c-2.1,9.2-4.6,18.7-8.2,28.5s-8.1,19.8-14.1,29.7l-2.3,3.7c-0.8,1.2-1.5,2.5-2.4,3.7
			c-1.7,2.4-3.5,4.8-5.2,7.2c-1.9,2.3-3.8,4.6-5.7,6.8c-1.9,2.1-3.9,4.2-5.9,6.3c-7.9,8-16,14.6-23.4,20.3
			c-7.4,5.7-14.4,10.6-20.4,15.1c-6.1,4.5-11.3,8.6-15.4,12.3c-0.5,0.5-1.1,0.9-1.5,1.4l-1.3,1.4c-0.4,0.4-0.9,0.9-1.3,1.3l-1.1,1.3
			l-1.2,1.3l-1,1.3c-0.7,0.9-1.4,1.6-2,2.6l-0.9,1.4c-0.3,0.4-0.6,0.9-0.9,1.4c-0.6,1-1.2,1.9-1.7,2.9s-1.1,2.1-1.6,3.1
			s-1,2.2-1.5,3.2c-3.8,8.8-6.5,19.1-7.5,30.3c-0.5,5.6-0.7,11.3-0.6,17.1c0.2,5.7,0.8,11.9,1.6,18.1c1.7,12.5,4.8,25.6,8.7,39.4
			c3.9,13.8,8.7,28.3,13.7,43.5L204.9,1862.9z"/>
	</g>
	<g>
		<path class="st1" d="M144.6,1678l11.6-1.8l5.8-0.9l5.8-1l11.6-1.9l11.5-2.1c7.7-1.3,15.2-2.9,22.8-4.5c3.8-0.7,7.5-1.6,11.3-2.5
			l5.6-1.3l2.8-0.6l2.8-0.7c7.4-1.8,14.9-3.6,22.3-5.7c3.7-1,7.4-2,11-3l10.9-3.3c1.8-0.6,3.7-1.1,5.4-1.7l5.4-1.8
			c3.6-1.2,7.2-2.4,10.8-3.6l10.6-3.9l5.3-1.9l5.2-2.1l10.4-4.2l10.2-4.6l5.1-2.3c1.7-0.8,3.3-1.6,5-2.4l10-4.9
			c3.3-1.7,6.5-3.5,9.8-5.3l4.9-2.6c1.6-0.9,3.2-1.9,4.8-2.8l9.5-5.7c1.6-0.9,3.1-2,4.6-3l4.6-3c3-2,6.2-4,9.1-6.2
			c1.5-1.1,2.9-2.1,4.4-3.2l4.3-3.3l2.2-1.6l2.1-1.7l4.2-3.4l4.2-3.5c1.4-1.2,2.8-2.3,4.1-3.6c10.9-9.6,21.2-20,30.6-31.1
			c4.8-5.5,9.2-11.3,13.6-17.1c4.2-5.9,8.4-11.9,12.2-18c7.7-12.3,14.3-25.2,19.8-38.4c0.7-1.6,1.3-3.3,2-5c0.6-1.7,1.3-3.3,1.9-5
			c1.1-3.4,2.4-6.7,3.4-10.2l1.6-5.1l1.4-5.2l0.7-2.6l0.6-2.6l1.2-5.2l1-5.2l0.5-2.6l0.4-2.6l0.8-5.3l0.6-5.3l0.3-2.6l0.2-2.6
			l0.4-5.3l0.1-5.3l0.1-2.6c0-0.9,0-1.8,0-2.6l-0.1-5.3c0-1.8-0.2-3.5-0.3-5.3s-0.2-3.5-0.4-5.3l-0.2-2.7l-0.3-2.7
			c-0.8-7.2-2-14.6-3.4-22.2c-2.8-15.2-6.3-31-9.4-47.6c-1.5-8.3-2.9-16.9-3.9-25.7c-1-8.8-1.6-17.9-1.6-27.2
			c0-9.3,0.8-18.8,2.5-28.2c0.8-4.7,2-9.4,3.2-14.1l2.2-6.9l1.1-3.4c0.4-1.1,0.9-2.2,1.3-3.3l2.8-6.6c1-2.2,2.1-4.3,3.2-6.4l1.6-3.2
			c0.6-1,1.2-2,1.8-3.1l3.6-6.1l4-5.8l2-2.9l2.1-2.7l4.3-5.4l4.5-5.1c0.8-0.8,1.5-1.7,2.3-2.5l2.3-2.4l4.7-4.8l4.8-4.5l2.4-2.3
			l2.5-2.2l4.9-4.3l5-4.1c3.3-2.8,6.7-5.3,10.1-7.9c27.1-20.3,55-36.7,80-55.3c12.5-9.3,24.2-19.1,34.5-29.9l3.7-4.1
			c0.6-0.7,1.3-1.4,1.9-2.1l1.7-2.1l3.5-4.3l3.2-4.4l1.6-2.2l1.5-2.3l2.9-4.6c0.9-1.6,1.7-3.2,2.6-4.8l1.3-2.4
			c0.4-0.8,0.8-1.6,1.2-2.4c6.2-13.1,10.1-27.5,12.1-42.4c1.9-15,2-30.6,1.3-46.3c-1.6-31.5-6.6-63.7-8.1-96.7l-0.2-6.2l-0.1-6.2
			c0-2.1,0-4.2,0-6.2c0-2.1,0-4.2,0.1-6.2l0.2-6.2l0.4-6.2l0.2-3.1l0.3-3.1c0.2-2.1,0.4-4.1,0.6-6.2c1-8.2,2.2-16.4,3.8-24.5
			c1.7-8.1,3.5-16.1,5.7-24.1c8.9-31.7,22.7-61.9,40.6-89.2c18-27.3,40.1-51.7,65.5-71.7c-24.2,21.5-44.6,46.9-60.7,74.7
			c-16.1,27.8-27.6,57.9-34.4,89c-1.8,7.7-3,15.6-4.2,23.4c-1.1,7.8-1.8,15.7-2.3,23.6c-0.1,2-0.2,3.9-0.2,5.9l-0.1,3v3v5.9l0.1,5.9
			c0,2,0.1,3.9,0.2,5.9c0.1,2,0.2,3.9,0.3,5.9l0.5,5.9l0.6,5.9c3.2,31.6,10.1,63.1,13.8,96.1c1.8,16.5,2.7,33.4,1.5,50.6
			c-1.2,17.2-4.7,34.7-11.5,51.3c-0.4,1-0.8,2.1-1.3,3.1l-1.4,3c-1,2-1.9,4.1-2.9,6.1l-3.2,5.9l-1.6,2.9l-1.8,2.8l-3.6,5.6l-3.9,5.4
			l-1.9,2.7c-0.7,0.9-1.4,1.7-2,2.6l-4.1,5.1c-11.3,13.3-23.9,25.1-36.7,35.9c-25.8,21.5-52.8,39.7-76.4,59.7
			c-2.9,2.5-5.9,5-8.6,7.6l-4.2,3.8l-4,3.9l-2,2l-1.9,2l-3.8,4l-3.5,4.1l-1.8,2c-0.6,0.7-1.1,1.4-1.6,2.1l-3.3,4.2l-3,4.3l-1.5,2.1
			l-1.3,2.2l-2.7,4.4l-2.3,4.5c-0.4,0.7-0.8,1.5-1.2,2.2l-1,2.3c-0.6,1.5-1.3,3-2,4.6l-1.6,4.7c-0.3,0.8-0.6,1.5-0.8,2.3l-0.6,2.4
			l-1.3,4.7c-0.6,3.2-1.2,6.4-1.6,9.7c-0.7,6.5-0.9,13.2-0.5,20.1c0.8,13.8,3.6,28.2,7.2,43.2c3.7,15,8.2,30.5,12.2,47
			c2,8.2,3.9,16.7,5.4,25.5l0.6,3.3l0.5,3.3c0.4,2.2,0.6,4.5,0.9,6.8c0.3,2.3,0.6,4.5,0.8,6.8l0.5,6.8c0.1,1.1,0.2,2.3,0.2,3.4
			l0.1,3.4c0.1,2.3,0.2,4.6,0.2,6.8v6.8v3.4l-0.2,3.4l-0.3,6.8l-0.6,6.8l-0.3,3.4l-0.4,3.4l-0.9,6.8l-1.1,6.7l-0.6,3.4l-0.7,3.3
			l-1.4,6.7l-1.6,6.6c-1,4.4-2.3,8.7-3.5,13.1c-0.6,2.2-1.3,4.3-2,6.5c-0.7,2.1-1.3,4.3-2.1,6.4c-5.9,17-13.2,33.5-21.7,49.2
			c-4.2,7.9-8.9,15.5-13.6,23c-4.9,7.4-9.9,14.8-15.3,21.9c-10.7,14.3-22.5,27.6-35.1,40.2c-1.6,1.6-3.2,3.1-4.8,4.7l-4.8,4.6
			l-5,4.5l-2.5,2.2l-2.5,2.2l-5.1,4.4c-1.7,1.4-3.5,2.8-5.2,4.2c-3.5,2.9-7,5.4-10.5,8.1l-5.3,4c-1.8,1.3-3.5,2.7-5.3,3.9l-10.9,7.4
			c-1.8,1.2-3.6,2.5-5.5,3.7l-5.6,3.5c-3.7,2.3-7.4,4.7-11.2,6.9l-11.4,6.5c-1.9,1.1-3.8,2.2-5.7,3.2l-5.8,3l-11.6,6L355,1707
			l-5.9,2.8l-5.9,2.6l-11.9,5.2c-4,1.6-8,3.2-12,4.8l-6,2.4c-2,0.8-4,1.5-6,2.2l-12.1,4.4c-4,1.5-8.1,2.7-12.1,4.1
			c-8.1,2.8-16.2,5.2-24.4,7.7l-3.1,0.9l-3.1,0.9l-6.1,1.7c-4.1,1.1-8.2,2.4-12.2,3.4c-8.2,2.1-16.3,4.4-24.5,6.3l-12.3,3l-12.3,2.8
			l-6.1,1.4l-6.1,1.3l-12.2,2.6L144.6,1678z"/>
	</g>
	<g>
		<path class="st4" d="M310.6,1692.8c-3,0.3-6.3,1.1-9,2.2c-2.8,1.1-5,2.5-6.5,3.8s-2.2,2.4-2.4,3.1c-0.2,0.7,0.1,1.1,0.7,1.1
			c1.2,0,3.4-1.5,5.5-3.7c1.1-1.1,2.1-2.4,3.1-3.7c0.5-0.7,0.9-1.3,1.4-2c0.2-0.3,0.4-0.7,0.6-1c0.1-0.1,0.1-0.1,0.2-0.3l0.2-0.5
			l0.4-0.9c2.2-4.9,4.3-11.3,6.5-18.9s4.3-16.3,6.9-26.1c2.6-9.8,5.6-20.6,9.9-32.2c1-2.8,2.2-5.8,3.4-8.8c1.1-2.9,2.6-6,3.9-9
			l1-2.2c0.3-0.7,0.8-1.5,1.1-2.3l2.3-4.6l1.2-2.3l1.3-2.2l2.7-4.4l2.7-4.4c0.9-1.5,1.9-2.8,2.9-4.2c2-2.8,3.9-5.6,6-8.2
			s4.2-5.2,6.4-7.7c1.1-1.3,2.2-2.5,3.3-3.6l3.4-3.5c9-9.3,18.6-17.4,28.4-24.2c9.8-6.8,19.8-12.8,29.7-17.7
			c10-4.9,20-9.3,29.9-12.8c9.9-3.6,19.8-6.7,29.7-9.2c1.2-0.3,2.5-0.7,3.7-1l3.6-0.9c2.4-0.6,4.8-1.2,7.1-1.7l7-1.5l6.9-1.4
			c18.4-3.6,35.8-6.4,52.3-9.4s32.1-6.3,46.7-10.7c7.3-2.2,14.2-4.8,21.2-7.7c6.9-3,13.7-6.3,20.4-10.1
			c26.6-15.1,50.7-36.7,69.5-62.9c9.4-13.1,17.4-27.3,23.8-42.5c6.5-15,11-31.9,16.8-49c2.9-8.6,6-17.2,9.9-25.6
			c1.9-4.2,4.1-8.4,6.4-12.4c2.4-4,5-7.9,7.8-11.5c2.8-3.7,5.8-7.2,9.1-10.4c1.6-1.7,3.4-3.2,5-4.7l2.7-2.2l1.3-1.1l1.4-1
			c3.7-2.7,7.7-4.9,11.7-6.8l3.1-1.3c1-0.4,2.1-0.7,3.2-1.1l1.6-0.5c0.5-0.2,1.1-0.3,1.6-0.4l3.2-0.8l-3,1.4c-0.5,0.2-1,0.5-1.5,0.7
			l-1.4,0.8c-0.9,0.6-1.9,1.1-2.8,1.7l-2.7,1.9c-3.5,2.6-6.7,5.4-9.5,8.6l-1.1,1.2l-1,1.2l-2,2.4c-1.2,1.7-2.6,3.4-3.7,5.2
			c-2.4,3.5-4.3,7.2-6.2,11c-1.8,3.8-3.4,7.7-4.7,11.6c-1.3,4-2.5,7.9-3.4,12c-0.5,2-0.9,4.1-1.3,6.2c-0.4,2.1-0.8,4.1-1.1,6.2
			c-0.7,4.2-1.3,8.4-1.8,12.7c-1,8.5-1.8,17.2-2.8,26.1c-0.5,4.5-1,9-1.7,13.5c-0.3,2.3-0.7,4.6-1.1,6.9c-0.4,2.3-0.9,4.6-1.4,6.9
			c-3.7,18.5-9.5,36.7-17.3,54.2c-15.6,35-38.9,67.2-68.8,93.6c-7.5,6.6-15.4,12.8-23.7,18.6c-8.3,5.8-17,11.2-25.8,16
			c-17.6,9.6-35.4,17.3-52.5,24.2c-17.1,6.9-33.7,13.1-48.9,19.5l-5.7,2.4l-5.5,2.4c-1.9,0.8-3.6,1.7-5.4,2.5l-2.7,1.2
			c-0.9,0.4-1.7,0.8-2.5,1.3c-6.7,3.3-13.1,6.9-19.1,10.6c-6.1,3.7-11.5,7.7-16.6,11.8c-5.1,4-9.4,8.3-13.3,12.5s-6.8,8.5-9.1,12.6
			l-0.8,1.5c-0.3,0.5-0.6,1-0.8,1.5c-0.4,1-0.9,2-1.3,3s-0.7,2-1,2.9c-0.2,0.5-0.4,0.9-0.5,1.4l-0.3,1.4c-0.1,0.5-0.2,0.9-0.4,1.4
			c-0.1,0.2-0.1,0.5-0.2,0.7l-0.1,0.8l-0.3,1.5c0,0.3-0.1,0.5-0.1,0.7l-0.1,0.8c-0.2,1.1-0.4,2.1-0.5,3.4c-0.1,1.2-0.3,2.4-0.5,3.8
			c-0.6,5.3-1,11.7-1.4,19.2s-0.8,16.1-1.5,25.9c-0.7,9.7-1.8,20.6-3.9,32.7l-0.4,2.3l-0.2,1.1c-0.1,0.3-0.2,0.9-0.3,1.3
			c-0.4,1.8-0.8,3.6-1.2,5.3c-0.9,3.5-1.8,7-2.8,10.4c-2.1,6.9-4.5,13.7-7.4,20.4c-5.8,13.4-13.2,26.8-23.6,39.9
			c-5.2,6.6-11.2,13.1-18.2,19.4s-15,12.3-24.3,17.6c-9.2,5.3-19.7,9.8-31,12.9s-23.3,4.8-35.1,4.8L310.6,1692.8z"/>
	</g>
	<g>
		<path class="st1" d="M-111.4,1644.1c-5-9.8-8.7-20.4-10.9-31.1c-2.2-10.7-3-21.4-2.6-31.6s2-19.9,4.3-28.9s5.3-17.5,8.8-25.3
			c7-15.8,15.8-29.4,25.7-41.7c4.9-6.2,10.2-12,15.7-17.5c2.8-2.8,5.6-5.4,8.5-8c1.4-1.3,3-2.6,4.5-3.8c0.8-0.7,1.4-1.2,2.1-1.7
			l2.1-1.6c11-8.8,22-16.3,32.4-23.1c10.4-6.8,20.3-13,29.4-18.9c9.1-6,17.4-11.8,24.7-17.6c1.9-1.5,3.5-2.9,5.3-4.4s3.3-3,4.9-4.5
			l1.2-1.1c0.4-0.4,0.7-0.8,1.1-1.1l2.2-2.3l1.1-1.1l1-1.2c0.7-0.8,1.4-1.5,2.1-2.4c10.7-12.8,18.9-29,24.3-47.4s8-38.9,8.5-60
			c0.3-10.6,0-21.3-0.7-32.1c-0.8-10.9-1.9-22.1-3.3-33.4c-2.7-22.6-6.4-45.9-9.6-69.8c-3.1-23.9-5.6-48.6-5.7-73.8
			c-0.1-12.6,0.6-25.3,1.9-37.9s3.3-25.1,6-37.3c10.8-49.1,32.1-95.1,61.6-134.5c14.7-19.7,31.6-37.7,50.1-53.5c2.3-2,4.6-4,7-5.9
			s4.7-3.8,7.1-5.6c4.8-3.7,9.6-7.2,14.4-10.7c9.6-6.9,19.3-13.6,28.6-20.5c18.6-13.8,36.3-28.7,49.3-47.7c3.2-4.7,6.3-9.6,8.8-14.8
			c1.4-2.5,2.4-5.2,3.6-7.8l1.5-4c0.3-0.7,0.5-1.3,0.8-2l0.6-2.1c1.8-5.5,2.9-11.2,3.7-17l0.4-4.4c0.1-1.5,0.1-2.9,0.1-4.4v-2.2
			c0-0.7-0.1-1.5-0.1-2.2l-0.3-4.4l0.8,4.4c0.1,0.7,0.3,1.5,0.4,2.2l0.2,2.2c0.1,1.5,0.3,3,0.4,4.4l0.1,4.5
			c-0.1,5.9-0.7,11.9-2,17.8l-0.4,2.2c-0.2,0.7-0.4,1.4-0.6,2.2l-1.2,4.4c-1,2.8-1.8,5.8-2.9,8.5c-2.1,5.7-4.7,11.1-7.6,16.4
			c-1.5,2.6-2.9,5.3-4.6,7.8c-1.6,2.6-3.3,5.1-5,7.6c-3.5,4.9-7.3,9.7-11.3,14.2l-1.5,1.7l-1.5,1.7l-3.1,3.3
			c-2.1,2.2-4.1,4.4-6.3,6.5c-4.2,4.3-8.6,8.4-13,12.4c-8.8,8.1-17.8,15.8-26.5,23.5c-4.3,3.9-8.7,7.8-12.8,11.7c-2.1,2-4.1,4-6.2,6
			c-2,2-3.9,4.1-5.9,6.2c-15.6,16.4-29.3,34.6-40.9,53.9c-23.1,38.6-37.6,81.8-42.4,125.4c-1.2,10.9-1.8,21.8-1.8,32.7
			s0.6,21.7,1.8,32.5c2.4,21.8,6.9,43.7,12.2,66s11.4,45.1,16.8,68.8c2.8,11.8,5.2,23.9,7.4,36.3c2.2,12.5,3.9,25.2,4.9,38.2
			c2.1,25.9,1.8,52.7-3.1,80.2c-2.4,13.7-6.1,27.6-11.3,41.3c-2.6,6.8-5.5,13.6-8.9,20.3c-3.4,6.7-7.1,13.2-11.3,19.6
			c-1,1.6-2.1,3.1-3.2,4.7l-1.6,2.3l-1.7,2.3l-3.4,4.5c-0.6,0.7-1.1,1.5-1.7,2.2l-1.8,2.1c-2.4,2.8-4.8,5.7-7.3,8.3
			c-2.5,2.6-4.9,5.4-7.4,7.8c-10,10.1-20.2,18.8-30,26.8s-19.2,15.3-27.8,22.4c-8.6,7-16.4,13.8-23.1,20.4l-1.3,1.2
			c-0.4,0.4-0.9,0.8-1.2,1.2c-0.7,0.7-1.3,1.4-2,2.2c-1.3,1.5-2.6,3-3.8,4.5c-2.5,3.1-4.8,6.3-6.8,9.6c-4.1,6.6-7.3,13.4-9,19.4
			c-1.8,6.1-2.1,11.3-1.5,14.4c0.3,1.6,0.8,2.6,1.2,3.4c0.5,0.7,1,1.2,1.6,1.7L-111.4,1644.1z"/>
	</g>
	<g>
		<path class="st4" d="M105.2,1589c0,0.9,0.7,1.8,2.7,2.1c2,0.3,5.1-0.2,8.7-1.8c3.6-1.5,7.7-4.1,11.5-7.3c1.9-1.6,3.8-3.4,5.5-5.3
			c0.9-0.9,1.7-1.9,2.5-2.9c0.4-0.5,0.8-1,1.2-1.5l0.3-0.4c0.1-0.1,0.2-0.3,0.3-0.5l0.6-1c3.5-5.1,6.7-11,9.6-17.8
			c2.9-6.8,5.4-14.4,7.6-22.7c2.2-8.3,4-17.3,5.5-26.7c1.5-9.5,2.8-19.4,3.9-30c2.3-21.1,4.1-44.1,7.6-68.6
			c1.8-12.2,4-24.8,6.9-37.6c0.8-3.2,1.6-6.4,2.4-9.6l2.7-9.7l3.1-9.7c1.1-3.2,2.2-6.4,3.4-9.5c9.5-25.3,22.4-48.6,37-69.3
			c14.6-20.8,31-39.3,47.8-56.1c16.8-16.8,34.2-32.1,51.6-46.6s34.7-28.3,51.7-42.1c17-13.7,33.6-27.4,49.4-41.6
			s30.9-28.9,44.5-44.7c13.6-15.7,25.8-32.6,35.7-50.8c5-9.1,9.3-18.5,13.1-28.2c3.8-9.8,7.1-20.1,10.3-30.5
			c6.4-20.9,12.3-42.7,21.4-63.4c2.3-5.2,4.8-10.3,7.5-15.2s5.8-9.7,9.1-14.3c3.4-4.5,7-8.9,11-12.8c4-3.9,8.3-7.5,12.7-10.7
			c-3.9,3.9-7.5,8-10.7,12.4s-6,9.1-8.4,13.8c-2.5,4.8-4.6,9.7-6.4,14.8c-1.8,5.1-3.4,10.2-4.7,15.4c-5.4,20.8-7.6,42.4-10.6,64.4
			c-1.5,11-3.1,22.2-5.5,33.5s-5.5,22.6-9.4,33.6s-8.4,21.8-13.6,32.3c-5.1,10.5-10.8,20.7-16.9,30.6
			c-12.2,19.8-25.9,38.4-40.3,56.2c-14.3,17.8-29.2,34.7-44.1,51.3c-14.8,16.6-29.6,32.8-43.6,49.1c-14,16.2-27.3,32.5-39.2,49
			c-11.8,16.5-22.2,33.2-30.3,50c-8.1,16.8-13.8,33.7-17.1,50.5l-1.1,6.3l-0.9,6.3l-0.7,6.5l-0.5,6.6c-0.5,8.9-0.6,18.2-0.4,27.9
			c0.4,19.4,2.1,40.4,3.3,63.2c0.6,11.4,1.1,23.5,1.2,35.9s-0.3,25.4-1.4,38.8s-3.1,27.4-6.3,41.7c-3.2,14.3-7.7,29.1-13.9,43.7
			l-1.2,2.7c-0.2,0.5-0.4,0.9-0.6,1.4l-0.7,1.4c-0.9,1.9-1.8,3.9-2.7,5.8c-1.9,3.8-3.9,7.5-6,11.2c-4.2,7.4-8.8,14.5-13.9,21.3
			c-10.2,13.7-22.1,26.5-36.2,38c-14.1,11.4-30.4,21.6-49.2,29.1c-9.4,3.7-19.4,6.8-29.8,8.9s-21.3,3.3-32.2,3.4L105.2,1589z"/>
	</g>
	<g>
		<path class="st2" d="M-137.5,1582c2.7-41.3,10.6-81.8,22.8-120.4s28.8-75.5,49.1-109.8s44.3-66.1,71.6-94.5
			c13.6-14.2,28.1-27.6,43.2-40c3.8-3.1,7.6-6.2,11.5-9.1c3.9-3,7.8-6,11.8-8.8c7.9-5.8,15.9-11.1,23.7-16.2
			c15.6-10.2,30.4-19.5,43.8-29.6c13.4-10,24.9-20.8,34-33.2c9-12.4,15.8-27.3,20.9-43.5c5.1-16.2,8.6-33.5,11.6-51.3
			c3.1-17.8,5.8-36.2,9.9-54.5c4.1-18.3,9.5-36.7,17.9-53.9c8.4-17.3,20-32.8,34.4-45.1c7.2-6.1,15.1-11.3,23.6-15.2
			s17.5-6.4,26.6-7.3c-8.9,2.1-17.3,5.7-24.8,10.5c-7.6,4.8-14.3,10.7-20.2,17.3c-11.8,13.2-20.4,28.9-25.9,45.3
			c-5.5,16.6-8.2,34-9.7,51.7s-1.8,35.7-2.4,54.2c-0.7,18.5-1.8,37.4-5.1,56.8c-1.7,9.7-3.9,19.4-7,29.1s-7,19.4-12,28.8
			c-10,18.7-23.6,35-37.7,48.9c-14.1,14-28.8,26.1-42.3,37.9c-6.8,5.9-13.3,11.6-19.4,17.5c-3.1,2.9-6.1,5.9-9.1,8.9
			s-5.9,6.1-8.8,9.2c-11.5,12.4-22.3,25.5-32.2,39.1c-19.9,27.2-36.3,56.6-49.2,87.3c-25.8,61.2-37.2,127.4-32.7,190.7L-137.5,1582z
			"/>
	</g>
	<g>
		<path class="st3" d="M188.6,1745.2c2.7-41.3,10.6-81.8,22.8-120.4s28.8-75.5,49.1-109.8s44.3-66.1,71.6-94.5
			c13.6-14.2,28.1-27.6,43.2-40c3.8-3.1,7.6-6.2,11.5-9.1c3.9-3,7.8-6,11.8-8.8c7.9-5.8,15.9-11.1,23.7-16.2
			c15.6-10.2,30.4-19.5,43.8-29.6c13.4-10,24.9-20.8,34-33.2c9-12.4,15.8-27.3,20.9-43.5s8.6-33.5,11.6-51.3
			c3.1-17.8,5.8-36.2,9.9-54.5c4.1-18.3,9.5-36.7,17.9-53.9c8.4-17.3,20-32.8,34.4-45.1c7.2-6.1,15.1-11.3,23.6-15.2
			s17.5-6.4,26.6-7.3c-8.9,2.1-17.3,5.7-24.8,10.5c-7.6,4.8-14.3,10.7-20.2,17.3c-11.8,13.2-20.4,28.9-25.9,45.3
			c-5.5,16.6-8.2,34-9.7,51.7s-1.8,35.7-2.4,54.2c-0.7,18.5-1.8,37.4-5.1,56.8c-1.7,9.7-3.9,19.4-7,29.1s-7,19.4-12,28.8
			c-10,18.7-23.6,35-37.7,48.9c-14.1,14-28.8,26.1-42.3,37.9c-6.8,5.9-13.3,11.6-19.4,17.5c-3.1,2.9-6.1,5.9-9.1,8.9
			s-5.9,6.1-8.8,9.2c-11.5,12.4-22.3,25.5-32.2,39.1c-19.9,27.2-36.3,56.6-49.2,87.3c-25.8,61.2-37.2,127.4-32.7,190.7L188.6,1745.2
			z"/>
	</g>
	<g>
		<path class="st1" d="M67.2,1700.8c3.2-51.1,15.7-100.5,35.6-145.9c20-45.4,47.3-86.9,80.4-122.8c2.1-2.2,4.2-4.4,6.3-6.6l3.2-3.3
			l3.3-3.2l6.5-6.4l6.7-6.2c1.1-1,2.2-2.1,3.4-3.1l3.5-3c2.3-2,4.6-4,6.9-5.9c4.7-3.8,9.4-7.7,14.3-11.3
			c9.6-7.4,19.7-14.3,29.9-20.8l7.7-4.8c2.6-1.6,5.3-3,7.9-4.6c5.3-3.1,10.5-5.8,15.7-8.5c20.8-10.7,40.9-19.5,59.7-28.8
			c9.4-4.6,18.5-9.3,27-14.3c4.3-2.5,8.4-5.1,12.4-7.7c4-2.7,7.9-5.4,11.5-8.2c1.9-1.4,3.6-2.9,5.4-4.3l2.6-2.2l1.3-1.1l1.2-1.2
			c3.3-3,6.3-6.3,9.2-9.6c5.7-6.7,10.6-13.9,14.4-21.8c3.9-7.9,6.9-16.7,9.2-26.1c2.3-9.4,4-19.4,5.3-29.8s2.2-21.1,3.2-32.1
			c0.5-5.5,1-11,1.6-16.7s1.3-11.4,2.2-17.2c1.7-11.5,4-23,7.4-34.5c3.3-11.4,7.7-22.8,13.6-33.6c5.9-10.8,13.5-20.9,22.8-29.4
			c2.4-2.1,4.6-4.2,7.1-6c2.4-1.9,4.9-3.6,7.4-5.3c5-3.3,10.1-6.1,15.1-8.8c10.1-5.3,20-9.8,29.3-14.8s18-10.3,24.9-17.3
			c3.4-3.5,6.3-7.3,8.5-11.5c2.2-4.3,3.7-8.9,4.5-13.8c0.9-5,1.1-10.3,1.3-15.7s0.2-11,0.7-16.6c0.1-1.4,0.3-2.8,0.5-4.2
			s0.4-2.8,0.7-4.2c0.2-1.4,0.6-2.8,0.9-4.2c0.2-0.7,0.4-1.5,0.6-2.2c0.3-0.7,0.5-1.4,0.8-2.1c2.3-5.5,5.9-10.2,10.2-14
			c2.2-1.9,4.5-3.6,7-4.9c2.5-1.3,5.2-2.4,8-2.9c1.4-0.3,2.8-0.3,4.3-0.3c1.4,0.1,2.8,0.3,4.2,0.7c2.7,0.8,5.1,2.3,7.1,4.3
			c-2.1-1.7-4.6-2.9-7.3-3.4c-1.3-0.2-2.6-0.3-4-0.2c-1.3,0.1-2.6,0.3-3.9,0.7c-5,1.5-9.4,4.7-12.9,8.6c-3.5,3.9-6.2,8.5-7.6,13.3
			c-0.2,0.6-0.3,1.2-0.5,1.8c-0.1,0.6-0.2,1.2-0.3,1.8c-0.1,1.3-0.4,2.6-0.4,3.9c-0.1,1.3-0.2,2.6-0.2,3.9c0,1.3,0,2.6,0,4
			c0.1,5.3,0.7,10.7,1.1,16.2c0.4,5.5,0.8,11.2,0.5,17.1c-0.3,5.9-1.5,12.1-3.7,17.8c-2.2,5.8-5.4,11.2-9.2,16s-8.1,9-12.6,12.9
			c-4.5,3.8-9.2,7.2-13.9,10.5c-9.4,6.4-18.8,12.1-27.6,18c-8.7,5.9-16.7,12.1-22.7,19.2c-6.2,7.1-11.1,15.3-14.7,24.2
			c-3.6,8.9-6.2,18.5-7.9,28.3c-1.7,9.9-2.6,20-3,30.3c-0.2,5.2-0.2,10.4-0.2,15.6c0,5.3,0.2,10.7,0.3,16.1
			c0.2,10.9,0.5,22.1,0.4,33.5c-0.1,11.5-0.7,23.3-2.3,35.5c-1.6,12.1-4.2,24.6-8.6,37c-4.3,12.4-10.5,24.3-17.8,35.3
			c-3.7,5.4-7.6,10.7-11.8,15.6l-1.6,1.9l-1.6,1.8l-3.2,3.6c-2.2,2.3-4.4,4.6-6.7,6.8c-4.5,4.5-9.2,8.5-13.9,12.6
			c-4.7,3.9-9.5,7.7-14.4,11.3c-9.7,7.2-19.4,13.7-29.1,19.9c-19.3,12.3-38.2,23.3-55.3,34.7c-4.3,2.8-8.4,5.7-12.3,8.6
			c-2,1.5-4,2.8-5.9,4.4l-5.8,4.5c-7.6,6.2-15,12.5-22.1,19.4c-3.6,3.3-6.9,6.9-10.4,10.3c-1.7,1.8-3.3,3.6-5,5.4l-2.5,2.7
			c-0.8,0.9-1.6,1.8-2.4,2.8l-4.8,5.5l-4.6,5.7l-2.3,2.8l-2.2,2.9l-4.4,5.8c-23,31.4-40.6,66.4-51.9,102.8
			c-11.2,36.4-16.1,74.2-14.2,110.7L67.2,1700.8z"/>
	</g>
	<g>
		<path class="st2" d="M259.1,1748.1c-2.9,0-5,0.5-6.2,0.9s-1.6,0.8-1.6,0.8c0.1,0.1,1.6-0.6,3.3-2c1.7-1.3,3.8-3.3,5.9-5.4
			c2.1-2.2,4.3-4.6,6.4-7.2c4.3-5.2,8.6-11.1,12.7-17.2s8-12.6,11.8-19.1c3.7-6.5,7.2-13.2,10.3-19.8c1.5-3.3,3-6.5,4.1-9.4
			c0.6-1.5,1.1-2.8,1.5-3.9l0.7-2.1c0.3-0.8,0.5-1.6,0.8-2.4c2-6.5,3.7-13.9,5.4-21.8c1.7-7.9,3.4-16.5,5.6-25.5s4.9-18.6,8.7-28.2
			c3.8-9.7,9.1-19.5,15.2-28.1c3.1-4.3,6.4-8.4,9.9-12.3s7.1-7.5,10.9-10.9c7.5-6.8,15.6-12.6,23.8-17.8
			c16.4-10.2,33.6-17.5,50.8-23.3c17.3-5.7,34.1-9.6,50.5-13.3c16.4-3.7,32.3-7.1,47.6-11.5c7.6-2.2,15.1-4.6,22.4-7.3
			c7.2-2.8,14.3-5.8,21.1-9.4c27.4-14.3,51.8-35.5,70.5-61.3c9.3-12.9,17.3-26.9,23.4-41.8c3.1-7.4,5.7-15,7.9-22.9
			c2.3-7.9,4.3-16,6.5-24.1s4.5-16.3,7.5-24.3c0.8-2,1.5-4,2.4-6c0.8-2,1.7-3.9,2.6-5.9c1.9-3.9,4-7.6,6.3-11.2
			c4.6-7.2,10.2-13.9,16.7-19.3c6.5-5.5,14.1-9.6,22.2-11.7c-7.8,2.9-14.8,7.8-20.5,13.6c-5.7,5.9-10.3,12.7-14,20
			c-1.8,3.6-3.4,7.4-4.8,11.2c-0.7,1.9-1.3,3.8-1.9,5.8c-0.6,1.9-1.1,3.9-1.6,5.9c-2,7.9-3.5,16-4.8,24.2s-2.5,16.5-4,24.9
			s-3.4,16.9-5.9,25.2c-4.9,16.6-11.9,32.7-20.7,47.9c-17.5,30.3-42.1,57-72,76.9c-7.5,5-15.4,9.5-23.3,13.5
			c-8,4-16.1,7.6-24.2,10.9c-16.3,6.5-32.6,11.9-48.3,17.2c-7.9,2.7-15.6,5.3-23.1,8.1c-3.7,1.4-7.5,2.8-11.1,4.3
			c-3.7,1.4-7.2,3-10.7,4.5c-13.9,6.3-27,13.7-38.1,22.4c-11.1,8.7-20.2,18.6-26,29.2c-1.5,2.7-2.8,5.4-3.8,8.1
			c-1.1,2.7-2,5.6-2.9,8.6c-1.7,6.1-2.9,12.8-3.8,20.2c-1,7.4-1.7,15.3-2.6,23.9c-0.9,8.5-2,17.7-3.9,27.4c-0.2,1.2-0.5,2.4-0.7,3.7
			l-0.4,1.8l-0.2,0.9l-0.3,1.1c-0.8,2.9-1.5,5.5-2.3,8c-1.6,4.9-3.2,9.5-5,13.9c-3.5,8.8-7.2,17.2-11.2,25.5s-8.3,16.4-12.9,24.5
			c-4.7,8.1-9.7,16.1-15.4,24.1c-2.9,4-6,8.1-9.4,12.1c-3.5,4.1-7.2,8.2-11.7,12.4c-4.5,4.2-9.7,8.5-16.9,12.6
			c-3.7,2.1-7.9,4.1-13.1,5.7s-11.5,2.8-18.6,2.7L259.1,1748.1z"/>
	</g>
</g>
</svg>
