<?xml version="1.0" encoding="utf-8"?>
<!-- Generator: Adobe Illustrator 22.0.0, SVG Export Plug-In . SVG Version: 6.00 Build 0)  -->
<svg version="1.1" id="Layer_1" xmlns="http://www.w3.org/2000/svg" xmlns:xlink="http://www.w3.org/1999/xlink" x="0px" y="0px"
	 viewBox="0 0 2244.9 1362.3" style="enable-background:new 0 0 2244.9 1362.3;" xml:space="preserve">
<style type="text/css">
	.st0{opacity:0.46;}
	.st1{fill:#824737;}
	.st2{fill:#B55232;}
	.st3{fill:#ED7C31;}
	.st4{fill:#F09B36;}
</style>
<g>
	<g class="st0">
		<path class="st1" d="M2444.7,7.2c7-2.4,15.3-5.2,25-9.2c9.6-4,20.5-9.2,32-16.5c11.4-7.3,23.2-16.7,33.7-28.1s19.5-24.9,25.5-38.5
			c6.1-13.6,9.1-27.1,9.4-38.3c0.1-2.8,0-5.4-0.2-7.9c-0.1-1.2-0.2-2.5-0.4-3.6l-0.1-0.9c0-0.3-0.1-0.6-0.2-0.8
			c-0.1-0.4-0.3-0.7-0.4-1.1c-1.2-2.9-2.9-4.2-4.7-4.3c-3.7,0-7.8,5.2-11.4,14c-1.8,4.4-3.5,9.6-5.1,15.4
			c-1.6,5.9-3.1,12.4-4.5,19.6s-2.7,15-4,23.2c-1.3,8.3-2.6,17.1-3.9,26.5l-4.1,29.7L2529,2.5l-2.6,17.5c-3.8,24.7-8.9,51-17,80.2
			c-4.1,14.6-9,30-15.3,46.3c-6.4,16.3-14.1,33.7-24.3,52c-5.1,9.1-10.9,18.6-17.4,28.1s-13.9,19.2-22.2,28.7
			c-8.3,9.6-17.4,19-27.6,28c-10.1,9-21.1,17.5-32.8,25.2c-5.8,3.8-11.8,7.5-17.9,10.8c-3.1,1.7-6.1,3.3-9.2,4.9l-2.3,1.2l-2.3,1.1
			l-4.6,2.1c-12.2,5.5-24.5,10.1-36.5,13.6c-24.1,7-46.5,10-66.4,10.7c-10,0.4-19.3,0.2-28.1-0.3s-17-1.4-24.8-2.5
			c-15.5-2.2-29.2-5.3-41.6-8.7c-24.7-6.9-44.7-14.8-62.4-22.6c-17.6-7.8-32.9-15.4-46.6-22.4c-13.6-7-25.7-13.4-35.7-18.8
			c-5-2.7-9.4-5.1-13.1-7.3c-3.7-2.2-6.6-4.1-8.4-5.8c-1.8-1.8-2.6-3.4-2.1-5.3c0.4-1.9,2.2-4.2,4.2-7.2c0.1-0.2,0.3-0.4,0.4-0.6
			c0.1-0.1,0.1-0.2,0.2-0.3l0.6-0.5c0.4-0.3,0.8-0.7,1.2-1c0.4-0.4,0.8-0.7,1.3-1.1c1-0.8,1.8-1.6,2.7-2.5c1-0.9,1.9-1.8,2.9-2.8
			c3.9-4,7.8-9.1,10.8-14.4c3-5.3,5-10.6,6-15s1-7.7,0.6-9.8s-1.2-3-2-3.1s-1.7,0.7-2.5,2.1c-0.8,1.4-1.6,3.4-2.2,5.8
			c-0.6,2.4-1.2,5.1-1.7,8.2c-0.5,3.1-0.9,6.4-1.2,9.9c-0.3,3.6-0.6,7.3-0.8,11.3c-0.4,7.9-0.7,16.4-1,25.5
			c-0.3,9.1-0.7,18.7-1.3,28.9c-0.6,10.2-1.5,21-3.1,32.4c-0.8,5.7-1.7,11.6-3,17.6c-1.2,6-2.7,12.2-4.5,18.6
			c-1.8,6.3-4,12.9-6.6,19.4c-2.4,5.7-5,11.2-7.8,16.5c-5.6,10.7-12,20.7-18.9,29.8c-6.9,9.2-14.4,17.5-22.1,25.1
			c-15.5,15.2-32.2,27.4-49.1,37.5s-34.1,18-51.3,24.6c-17.2,6.5-34.5,11.6-51.7,15.7c-17.2,4-34.4,7-51.5,9
			c-34.2,4.1-68.2,4.7-101.2,1.6c31.5-10.2,61.3-23.8,88.8-39.7c27.5-16,52.9-34.5,74.1-55.1c10.5-10.3,20-21.1,27.7-32.2
			c7.8-11.1,13.9-22.3,17.8-33.2c1.9-5.4,3.4-10.7,4.2-15.8c0.9-5.1,1.2-10,1.1-14.6c0-2.3-0.3-4.5-0.5-6.7
			c-0.5-1.4-1.1-2.8-1.7-4.5l-4.3-12.3c-3.4-9.6-8.1-21.7-13.6-35.6c-2.7-7-5.7-14.5-8.7-22.6c-1.5-4.1-3-8.4-4.5-12.8
			c-1.5-4.5-3-9.2-4.4-14.2s-2.8-10.3-4.1-16c-1.3-5.7-2.5-11.8-3.4-18.5s-1.6-14.1-1.9-22.2c-0.2-8.2,0.1-17.2,1.4-27.2
			s3.7-21.1,7.9-32.9c4.2-11.8,10.2-24.2,18.2-35.9c7.9-11.7,17.7-22.6,28-31.5c2.6-2.2,5.1-4.3,7.8-6.4c2.6-2,5.2-3.9,7.8-5.8
			c1.3-1,2.6-1.8,3.9-2.6l3.9-2.5l6.6-4.1c16.6-10,33.9-17.3,50.3-22.5s31.9-8.3,46.3-10.5c14.4-2.1,27.7-3.2,40.2-3.9
			c12.5-0.6,24.2-0.8,35.2-0.7c22,0.1,41.7,1,59.6,1.6s34.1,1,48.1,0.5c13.9-0.5,25.9-1.9,33.3-4.6c3.7-1.3,6.2-3,6.9-4.8
			c0.3-0.9,0.2-1.8-0.5-2.7s-1.9-1.7-3.9-2.4c-3.8-1.3-10.3-2-19.2-0.6c-4.3,0.7-9.3,1.8-14.3,3.5c-0.6,0.2-1.3,0.4-1.9,0.7l-2,0.7
			c-1.3,0.5-2.7,1.1-4,1.7c-2.7,1.2-5.4,2.5-7.9,3.9c-5.2,2.8-10.1,5.9-14.5,9.1s-8.3,6.4-11.7,9.5c-3.4,3-6.3,5.9-8.8,8.4
			s-4.6,4.7-6.3,6.4c-3.6,3.5-6,5.5-8.1,6.1s-3.7,0.1-5.3-1.4c-3.2-2.9-6.2-9.2-9.8-16.9c-0.4-1-0.9-1.9-1.4-3l-1.4-3.8l-1.4-4
			l-1.5-4.2c-2-5.8-4.1-12.1-6.3-19c-2.2-6.8-4.4-14.2-6.7-22.1s-4.6-16.4-6.9-25.4s-4.6-18.7-6.8-29c-2.2-10.4-4.2-21.4-6.1-33.3
			c-3.6-23.7-6.4-51-5.9-83.2c0.2-16.1,1.3-33.5,3.8-52.2l1-7c0.1-1.1,0.4-2.5,0.6-3.7l0.6-3.8c0.8-5.1,1.9-10.2,2.9-15.3
			c2.2-10.3,4.7-20.6,7.7-31s6.4-20.8,10.2-31.2c3.9-10.4,8.1-20.8,12.8-31.1c4.7-10.3,9.9-20.6,15.5-30.7s11.7-20.1,18.2-29.9
			s13.5-19.4,20.8-28.7c7.3-9.3,15.1-18.4,23.2-27.2c16.2-17.6,33.8-33.9,52.6-48.7c37.4-29.7,79-53,121.4-69.8
			c42.5-16.9,85.7-27.3,127.8-32.6s83-5.4,122-2c183,33.5,304.3,209,270.9,392S2627.7,40.7,2444.7,7.2z"/>
	</g>
	<g class="st0">
		<path class="st1" d="M2707.3-337.9c1.9,34.5,0.2,68.2-4.9,100.4c-5,32.2-13.3,63-24.1,92.1c-10.9,29.1-24.2,56.6-40,82.5
			c-3.9,6.5-8.1,12.8-12.2,19.1c-2.1,3.1-4.3,6.2-6.5,9.3l-3.3,4.6l-3.4,4.5c-2.3,3-4.5,6-6.8,9c-2.3,2.9-4.7,5.9-7.1,8.8
			c-2.4,2.9-4.8,5.8-7.3,8.6s-4.9,5.7-7.5,8.5c-5.1,5.6-10.2,11-15.6,16.4c-5.3,5.4-10.8,10.5-16.4,15.6
			c-11.3,10.1-22.9,19.9-35.2,28.9l-4.6,3.4l-4.7,3.3c-3.1,2.2-6.3,4.4-9.5,6.5s-6.5,4.2-9.7,6.2c-1.6,1-3.2,2-4.9,3l-5,3
			c-3.3,1.9-6.6,3.9-10,5.8s-6.8,3.7-10.2,5.5c-3.5,1.9-6.6,3.3-9.9,4.9l-9.7,4.6c-25.8,11.6-50.4,19.6-72.5,25.2
			c-22.2,5.6-42,9-59.5,11.4c-17.5,2.3-32.8,3.6-46,4.5l-4.9,0.3l-2.4,0.1l-2.2,0.1l-8.7,0.4l-8,0.3l-3.6,0.1h-1.8h-0.9
			c-0.3,0-0.5,0-0.7,0c-7.6-0.3-14.3-0.6-19.3-1.2l-1-0.1l-0.8-0.1l-1.7-0.3l-0.4-0.1c-0.1,0-0.2-0.1-0.3-0.1l-0.7-0.2l-1.4-0.4
			c-0.4-0.2-0.7-0.3-1.1-0.5l-0.6-0.3l-0.3-0.2l-0.2-0.2l-0.8-0.7c-0.1-0.1-0.3-0.3-0.4-0.4l-0.2-0.5c-0.2-0.3-0.4-0.6-0.6-1
			c-0.2-0.2-0.1-0.4-0.2-0.5c0-0.2-0.1-0.4-0.1-0.6c0-0.2-0.1-0.4-0.2-0.6l-0.1-0.3l-0.1-0.2v-0.2c0-0.5,0-1,0-1.5
			c0-0.3-0.1-0.5-0.1-0.8s0.1-0.6,0.1-0.8c0.1-0.6,0.1-1.2,0-1.8v-0.5l0.1-0.5c0.1-0.3,0.1-0.7,0.1-1c0.1-0.7,0-1.4,0-2.1
			c0.1-0.7,0.2-1.5,0.2-2.2c0-0.8-0.1-1.5,0-2.3c0.1-1.5-0.1-3.3-0.2-4.6c-0.1-0.7-0.2-1.4-0.4-2.1c-0.1-0.6-0.2-1.2-0.4-1.8
			c-0.5-1.3-0.8-2.1-1.4-3.1c-2.3-3.5-5.6-2.7-8.3,2.1c-0.2,0.3-0.4,0.5-0.5,0.9l-0.4,1.1l-0.9,2.3c-0.3,0.8-0.5,1.8-0.8,2.7
			l-0.4,1.4l-0.2,0.7l-0.2,0.8l-0.6,3.3c-0.1,0.6-0.2,1.1-0.3,1.7l-0.2,1.9l-0.5,3.8c-0.1,0.6-0.1,1.3-0.2,2l-0.2,2.1
			c-0.1,1.4-0.3,2.7-0.3,4.2l-0.2,4.6l-0.1,2.3c0,0.8,0,1.6-0.1,2.4l-0.1,4.9c-0.1,1.6,0,3.4-0.1,5.2v5.3l0.1,11.2
			c0.2,15.5,0.7,32.9,0.5,52.2c-0.3,19.3-1.4,41.1-5.3,64.6l-0.8,4.4c-0.1,0.7-0.2,1.4-0.4,2.2l-0.5,2.3c-0.6,3-1.3,6-2,9
			c-0.6,3-1.5,6.1-2.3,9.2s-1.7,6.1-2.6,9.2c-1,3.1-2.1,6.2-3.1,9.3l-1.6,4.6c-0.5,1.5-1.2,3.1-1.8,4.6c-1.3,3.1-2.5,6.1-3.8,9.2
			l-1,2.3l-1.1,2.3l-2.2,4.5c-5.8,12-12.9,23.2-20.6,33.6c-7.7,10.3-16.1,19.8-24.7,28c-17.4,16.5-35.4,28.7-52.5,38
			c-8.5,4.7-16.9,8.8-25,12.3c-8.1,3.6-16,6.7-23.7,9.6c-15.3,5.7-29.7,10.3-43.3,14.6l-19.7,6.3c-6.3,2.1-12.5,4.1-18.3,6.2
			c-11.5,3.9-22.7,8.8-33.8,14.4c-11.1,5.7-22.1,12.2-32.7,19.5s-20.9,15.5-30.8,24.3c-39.5,35.5-72,83-90.3,138.7
			c-2.3-29.2-0.7-59.5,4.9-89.6c5.7-30.2,15.2-60.3,28.8-89.4c6.8-14.5,14.5-28.8,23.3-42.7c8.8-13.9,18.5-27.3,29.3-40.3
			c10.7-12.9,22.5-25.4,35.2-37c6.2-5.8,12.3-11.2,18.4-16.4c6-5.2,12-10.3,17.7-15.1c11.5-9.8,22.2-19,31.6-28
			c4.7-4.5,9-8.9,12.9-13.1c3.9-4.3,7.3-8.5,10.2-12.5c5.9-8,9.1-15.3,10-21c0.5-2.8,0.3-5.3-0.2-7.3c-0.5-2.1-1.2-3.8-2.3-5.3
			l-0.3-0.5l-0.2-0.3l-0.2-0.3l-0.8-1.2c-0.1-0.2-0.2-0.3-0.4-0.6l-0.5-0.7c-0.3-0.4-0.6-0.8-0.8-1.2c-0.3-0.5-0.6-1-0.9-1.5
			l-0.9-1.5c-0.3-0.6-0.6-1.1-0.9-1.7l-1-1.9c-2.7-5.2-5.8-12.1-10.1-21.3c-4.2-9.1-9.2-19.9-14.7-32.6l-4.3-9.9l-2.2-5.3
			c-0.7-1.8-1.5-3.5-2.2-5.4l-2.2-5.6c-0.4-1-0.7-1.8-1.1-2.9l-1.1-3l-2.3-6c-0.8-2-1.5-4.2-2.2-6.4l-1.1-3.2
			c-0.4-1.1-0.7-2.1-1.1-3.3l-2.2-6.9l-1.1-3.4l-1.1-3.7l-2.1-7.4l-0.5-1.9l-0.5-2l-1-3.9c-0.6-2.7-1.3-5.2-1.9-8l-1.7-8.5l-0.8-4.3
			c-0.3-1.4-0.5-3-0.7-4.5l-1.4-9.1l-0.3-2.3l-0.3-2.4l-0.5-4.9l-0.5-4.9c-0.1-1.7-0.3-3.2-0.4-5c-0.2-3.4-0.3-6.9-0.5-10.4
			l-0.2-5.2l0.1-5.5c0.1-3.6,0.1-7.3,0.3-11c0-0.9,0.1-1.9,0.2-2.8l0.2-2.9l0.5-5.7l0.5-5.7c0.1-1,0.2-1.9,0.3-2.9l0.4-3
			c1.2-7.9,2.3-15.8,4.3-23.9c0.9-4,1.9-8,2.9-12.1c1.2-4,2.4-8.1,3.7-12.1c2.4-8,5.7-16.1,9-24.1c1.6-4,3.5-7.8,5.3-11.7
			c1.9-3.8,3.8-7.7,5.8-11.5c2-3.7,4.1-7.3,6.2-10.9l3.2-5.4l1.6-2.7l1.7-2.5c2.2-3.4,4.5-6.8,6.9-10.1c1.2-1.7,2.3-3.4,3.5-5
			l3.6-4.7c2.4-3.1,4.9-6.2,7.3-9.3l0.9-1.2l0.9-1.1l1.9-2.2l3.8-4.3l3.8-4.3c1.3-1.4,2.6-2.9,3.8-4.2c2.5-2.6,5.1-5.3,7.7-7.9
			l3.9-3.9l3.8-3.6c2.6-2.4,5.2-4.8,7.8-7.2l2-1.8l1.9-1.7l3.9-3.3c2.6-2.2,5.2-4.4,7.8-6.6l7.7-6.1l3.9-3l2-1.5l1.9-1.4l7.7-5.6
			l3.9-2.8l3.8-2.6c20.4-13.9,40.3-25.3,59.7-35.3l13.3-6.8l12.5-6.3l23-11.5c14.4-7.2,26.7-13.7,36.6-19.8
			c9.9-6.1,17.4-11.7,21.9-16.6c4.6-4.9,6.2-9.1,5.2-11.8c-0.2-0.3-0.3-0.7-0.5-1s-0.2-0.6-0.7-0.8c-0.4-0.2-0.8-0.3-1.2-0.5
			c-0.4-0.1-0.8-0.4-1.2-0.5c-0.2-0.1-0.4-0.1-0.6-0.2c-0.2-0.1-0.4-0.2-0.6-0.2c-0.4-0.2-0.8-0.3-1.2-0.4c-0.4-0.2-0.8-0.3-1.2-0.4
			l-0.6-0.2l-0.6-0.2c-1.6-0.5-3.2-1.1-4.7-1.5c-0.8-0.3-1.5-0.4-2.3-0.7c-0.7-0.2-1.6-0.4-2.3-0.6c-6.1-1.4-12.5-2.2-19.3,0.6
			c-3.4,1.4-6.7,3.7-10,7.3c-3.1,3.5-6,8.4-8,14.4c-21.8-152,83.8-292.8,235.7-314.6C2544.6-595.4,2685.5-489.8,2707.3-337.9z"/>
	</g>
	<g class="st0">
		<path class="st1" d="M3001.5-495.3c1.9,34.5,0.2,68.2-4.9,100.4c-5,32.2-13.3,63-24.1,92.1c-10.9,29.1-24.2,56.6-40,82.5
			c-3.9,6.5-8.1,12.8-12.2,19.1c-2.1,3.1-4.3,6.2-6.5,9.3l-3.3,4.6l-3.4,4.5c-2.3,3-4.5,6-6.8,9c-2.3,2.9-4.7,5.9-7.1,8.8
			c-2.4,2.9-4.8,5.8-7.3,8.6s-4.9,5.7-7.5,8.5c-5.1,5.6-10.2,11-15.6,16.4c-5.3,5.4-10.8,10.5-16.4,15.6
			c-11.3,10.1-22.9,19.9-35.2,28.9l-4.6,3.4l-4.7,3.3c-3.1,2.2-6.3,4.4-9.5,6.5s-6.5,4.2-9.7,6.2c-1.6,1-3.2,2-4.9,3l-5,3
			c-3.3,1.9-6.6,3.9-10,5.8c-3.4,1.9-6.8,3.7-10.2,5.5c-3.5,1.9-6.6,3.3-9.9,4.9l-9.7,4.6c-25.8,11.6-50.4,19.6-72.5,25.2
			c-22.2,5.6-42,9-59.5,11.4c-17.5,2.3-32.8,3.6-46,4.5l-4.9,0.3l-2.4,0.1l-2.2,0.1l-8.7,0.4l-8,0.3l-3.6,0.1h-1.8h-0.9
			c-0.3,0-0.5,0-0.7,0c-7.6-0.3-14.3-0.6-19.3-1.2l-1-0.1l-0.8-0.1l-1.7-0.3l-0.4-0.1c-0.1,0-0.2-0.1-0.3-0.1l-0.7-0.2l-1.4-0.4
			c-0.4-0.2-0.7-0.3-1.1-0.5l-0.6-0.3l-0.3-0.2l-0.2-0.2l-1-0.9c-0.1-0.1-0.3-0.3-0.4-0.4l-0.2-0.5c-0.2-0.3-0.4-0.6-0.6-1
			c-0.2-0.2-0.1-0.4-0.2-0.5c0-0.2-0.1-0.4-0.1-0.6s-0.1-0.4-0.2-0.6l-0.1-0.3l-0.1-0.2v-0.2c0-0.5,0-1,0-1.5c0-0.3-0.1-0.5-0.1-0.8
			s0.1-0.6,0.1-0.8c0.1-0.6,0.1-1.2,0-1.8v-0.5l0.1-0.5c0.1-0.3,0.1-0.7,0.1-1c0.1-0.7,0-1.4,0-2.1c0.1-0.7,0.2-1.5,0.2-2.2
			c0-0.8-0.1-1.5,0-2.3c0.1-1.5-0.1-3.3-0.2-4.6c-0.1-0.7-0.2-1.4-0.4-2.1c-0.1-0.6-0.2-1.2-0.4-1.8c-0.5-1.3-0.8-2.1-1.4-3.1
			c-2.3-3.5-5.6-2.7-8.3,2.1c-0.2,0.3-0.4,0.5-0.5,0.9l-0.4,1.1L2479-26c-0.3,0.8-0.5,1.8-0.8,2.7l-0.4,1.4l-0.2,0.7l-0.2,0.8
			l-0.6,3.3c-0.1,0.6-0.2,1.1-0.3,1.7l-0.2,1.9l-0.5,3.8c-0.1,0.6-0.1,1.3-0.2,2l-0.2,2.1c-0.1,1.4-0.3,2.7-0.3,4.2l-0.2,4.6
			l-0.1,2.3c0,0.8,0,1.6-0.1,2.4l-0.1,4.9c-0.1,1.6,0,3.4-0.1,5.2v5.3l0.1,11.2c0.2,15.5,0.7,32.9,0.5,52.2
			c-0.3,19.3-1.4,41.1-5.3,64.6l-0.8,4.4c-0.1,0.7-0.2,1.4-0.4,2.2l-0.5,2.3c-0.6,3-1.3,6-2,9c-0.6,3-1.5,6.1-2.3,9.2
			c-0.8,3.1-1.7,6.1-2.6,9.2c-1,3.1-2.1,6.2-3.1,9.3l-1.6,4.6c-0.5,1.5-1.2,3.1-1.8,4.6c-1.3,3.1-2.5,6.1-3.8,9.2l-1,2.3l-1.1,2.3
			l-2.2,4.5c-5.8,12-12.9,23.2-20.6,33.6c-7.7,10.3-16.1,19.8-24.7,28c-17.4,16.5-35.4,28.7-52.5,38c-8.5,4.7-16.9,8.8-25,12.3
			c-8.1,3.6-16,6.7-23.7,9.6c-15.3,5.7-29.7,10.3-43.3,14.6l-19.7,6.3c-6.3,2.1-12.5,4.1-18.3,6.2c-11.5,3.9-22.7,8.8-33.8,14.4
			c-11.1,5.7-22.1,12.2-32.7,19.5c-10.6,7.3-20.9,15.5-30.8,24.3c-39.5,35.5-72,83-90.3,138.7c-2.3-29.2-0.7-59.5,4.9-89.6
			c5.7-30.2,15.2-60.3,28.8-89.4c6.8-14.5,14.5-28.8,23.3-42.7c8.8-13.9,18.5-27.3,29.3-40.3c10.7-12.9,22.5-25.4,35.2-37
			c6.2-5.8,12.3-11.2,18.4-16.4c6-5.2,12-10.3,17.7-15.1c11.5-9.8,22.2-19,31.6-28c4.7-4.5,9-8.9,12.9-13.1
			c3.9-4.3,7.3-8.5,10.2-12.5c5.9-8,9.1-15.3,10-21c0.5-2.8,0.3-5.3-0.2-7.3c-0.5-2.1-1.2-3.8-2.3-5.3l-0.3-0.5l-0.2-0.3l-0.2-0.3
			l-0.8-1.2c-0.1-0.2-0.2-0.3-0.4-0.6l-0.5-0.7c-0.3-0.4-0.6-0.8-0.8-1.2c-0.3-0.5-0.6-1-0.9-1.5l-0.9-1.5c-0.3-0.6-0.6-1.1-0.9-1.7
			l-1-1.9c-2.7-5.2-5.8-12.1-10.1-21.3c-4.2-9.1-9.2-19.9-14.7-32.6L2215,77l-2.2-5.3c-0.7-1.8-1.5-3.5-2.2-5.4l-2.2-5.6
			c-0.4-1-0.7-1.8-1.1-2.9l-1.1-3l-2.3-6c-0.8-2-1.5-4.2-2.2-6.4l-1.1-3.2c-0.4-1.1-0.7-2.1-1.1-3.3l-2.2-6.9l-1.1-3.4l-1.1-3.7
			l-2.1-7.4l-0.5-1.9l-0.5-2l-1-3.9c-0.6-2.7-1.3-5.2-1.9-8l-1.7-8.5l-0.8-4.3c-0.3-1.4-0.5-3-0.7-4.5l-1.4-9.1l-0.3-2.3l-0.3-2.4
			l-0.5-4.9l-0.5-4.9c-0.1-1.7-0.3-3.2-0.4-5c-0.2-3.4-0.3-6.9-0.5-10.4l-0.2-5.2l0.1-5.5c0.1-3.6,0.1-7.3,0.3-11
			c0-0.9,0.1-1.9,0.2-2.8l0.2-2.9l0.5-5.7l0.5-5.7c0.1-1,0.2-1.9,0.3-2.9l0.4-3c1.2-7.9,2.3-15.8,4.3-23.9c0.9-4,1.9-8,2.9-12.1
			c1.2-4,2.4-8.1,3.7-12.1c2.4-8,5.7-16.1,9-24.1c1.6-4,3.5-7.8,5.3-11.7c1.9-3.8,3.8-7.7,5.8-11.5c2-3.7,4.1-7.3,6.2-10.9l3.2-5.4
			l1.6-2.7l1.7-2.5c2.2-3.4,4.5-6.8,6.9-10.1c1.2-1.7,2.3-3.4,3.5-5l3.6-4.7c2.4-3.1,4.9-6.2,7.3-9.3l0.9-1.2l0.9-1.1l1.9-2.2
			l3.8-4.3l3.8-4.3c1.3-1.4,2.6-2.9,3.8-4.2c2.5-2.6,5.1-5.3,7.7-7.9l3.9-3.9l3.8-3.6c2.6-2.4,5.2-4.8,7.8-7.2l2-1.8l1.9-1.7
			l3.9-3.3c2.6-2.2,5.2-4.4,7.8-6.6l7.7-6.1l3.9-3l2-1.5l1.9-1.4l7.7-5.6l3.9-2.8l3.8-2.6c20.4-13.9,40.3-25.3,59.7-35.3l13.3-6.8
			l12.5-6.3l23-11.5c14.4-7.2,26.7-13.7,36.6-19.8c9.9-6.1,17.4-11.7,21.9-16.6c4.6-4.9,6.2-9.1,5.2-11.8c-0.2-0.3-0.3-0.7-0.5-1
			s-0.2-0.6-0.7-0.8c-0.4-0.2-0.8-0.3-1.2-0.5c-0.4-0.1-0.8-0.4-1.2-0.5c-0.2-0.1-0.4-0.1-0.6-0.2c-0.2-0.1-0.4-0.2-0.6-0.2
			c-0.4-0.2-0.8-0.3-1.2-0.4c-0.4-0.2-0.8-0.3-1.2-0.4l-0.6-0.2l-0.6-0.2c-1.6-0.5-3.2-1.1-4.7-1.5c-0.8-0.3-1.5-0.4-2.3-0.7
			c-0.7-0.2-1.6-0.4-2.3-0.6c-6.1-1.4-12.5-2.2-19.3,0.6c-3.4,1.4-6.7,3.7-10,7.3c-3.1,3.5-6,8.4-8,14.4
			c-21.8-152,83.8-292.8,235.7-314.6C2838.8-752.8,2979.7-647.3,3001.5-495.3z"/>
	</g>
	<g>
		<path class="st1" d="M2427.5-234.1c7.2,18.9,10.5,38.8,10.5,57.9c0,19.2-3.2,37.5-8.5,54.7c-5.3,17.1-12.8,33.1-21.8,47.8
			c-4.5,7.4-9.5,14.4-14.8,21.2c-2.7,3.4-5.4,6.7-8.3,9.9c-2.9,3.2-5.9,6.4-8.8,9.3c-11.7,11.8-24.4,22.1-37.4,31.2
			s-26.4,16.9-39.9,23.9c-26.9,13.9-54.1,24.4-80.4,33.9c-26.2,9.5-51.7,18.1-75.6,27.9c-11.9,4.9-23.5,10.2-34.6,15.9l-8.2,4.4
			l-8,4.6l-7.8,4.9l-7.6,5.1c-20.1,14.1-38.4,31.2-54.9,50.5s-31.3,40.8-44.8,63.4c-13.5,22.7-25.9,46.5-37.7,70.8
			c-11.9,24.3-23.2,49.2-34.9,74.1c-11.7,24.9-23.7,50-36.8,74.6c-13.1,24.6-27.5,48.8-43.8,71.7c-8.2,11.5-16.8,22.6-26.1,33.2
			c-9.3,10.6-19.1,20.8-29.5,30.3s-21.5,18.3-33,26.3s-23.3,15.2-35.2,22.3c-23.6,14.1-47.4,27.4-68.9,44
			c-5.4,4.1-10.5,8.5-15.5,13.1c-1.2,1.2-2.5,2.3-3.7,3.5l-3.6,3.6c-2.3,2.5-4.6,5-6.7,7.6c-4.3,5.2-8.4,10.7-11.8,16.6
			c-3.5,5.9-6.5,12-9,18.4c2-6.6,4.6-13,7.6-19.2s6.7-12.1,10.7-17.8c2-2.9,4.1-5.6,6.3-8.3l3.4-4c1.1-1.3,2.3-2.6,3.5-3.9
			c4.7-5.1,9.6-10,14.8-14.6c5.2-4.6,10.5-9.1,15.9-13.4c5.4-4.3,11-8.4,16.5-12.5c11.2-8.1,22.5-15.9,33.7-23.8
			c11.2-7.9,22.1-15.8,32.5-24.3c10.3-8.5,20.1-17.6,29.2-27.3s17.7-19.9,25.6-30.6c7.9-10.7,15.3-21.8,22.2-33.3
			c13.8-22.9,25.7-47,36.5-71.6c10.8-24.7,20.7-50,30.3-75.5c9.7-25.5,19.2-51.3,29.4-77.2c10.2-25.8,21.1-51.7,33.8-77.2
			c12.7-25.5,27.1-50.6,44.5-74.4c17.3-23.8,37.7-46.1,61.1-65.4c2.9-2.4,5.9-4.7,8.9-7.1l9.2-6.8l9.3-6.4c3.2-2,6.3-4.1,9.5-6.1
			c12.7-7.9,25.6-15,38.6-21.5c25.9-13.1,51.7-24,76.2-35.1c12.3-5.5,24.2-11.1,35.6-16.9c11.5-5.8,22.5-11.9,32.9-18.3
			c20.8-12.9,39.1-27.5,53.1-44c1.8-2.1,3.4-4,4.9-6.1c1.5-2,3-4.1,4.4-6.2c2.8-4.2,5.4-8.7,7.7-13.2c4.6-9,8-18.5,10-27.7
			c2-9.3,2.7-18.3,1.9-26.6c-0.7-8.3-2.8-15.6-6.1-22.1L2427.5-234.1z"/>
	</g>
	<g>
		<path class="st2" d="M2497.5-93.2c-7.3-0.7-14.7,0.1-22.6,2.9c-7.9,2.7-16.2,7.5-24.1,13.9c-7.9,6.4-15.5,14.5-22.1,23.6
			s-12.4,19.2-16.9,29.6c-0.5,1.3-1.2,2.6-1.6,3.9l-0.8,2c-0.3,0.7-0.5,1.3-0.8,2.1l-3,8.8l-2.7,9.1l-2.4,9.4
			c-3.1,12.7-5.4,26-7.5,39.8c-4.1,27.6-6.8,57.3-11.7,88.1c-0.7,3.9-1.2,7.7-2,11.6c-0.7,3.9-1.4,7.8-2.2,11.7
			c-1.8,7.9-3.3,15.7-5.5,23.5l-1.5,5.8l-0.8,2.9l-0.9,2.9l-3.5,11.5c-0.6,1.9-1.2,3.8-1.9,5.7l-2,5.7l-2,5.7
			c-0.7,1.9-1.4,3.7-2.1,5.6l-4.3,11.1l-4.7,11c-0.8,1.8-1.5,3.7-2.4,5.5l-2.6,5.4l-2.6,5.4c-0.9,1.8-1.7,3.6-2.6,5.3l-5.5,10.5
			l-1.4,2.6l-1.5,2.6l-2.9,5.2c-3.8,6.9-8,13.6-12.1,20.3c-33.9,53.2-77.7,99.2-128.4,135.3l-9.6,6.7c-3.2,2.2-6.5,4.2-9.8,6.4
			l-4.9,3.2c-1.6,1-3.3,2-5,3l-10,5.9l-10.2,5.6c-1.7,0.9-3.4,1.9-5.1,2.8l-5.2,2.6l-5.2,2.6c-1.7,0.9-3.5,1.8-5.2,2.5l-10.6,4.8
			l-2.6,1.2l-2.7,1.1l-5.4,2.2c-3.6,1.5-7.1,3-10.8,4.3l-10.9,4c-3.7,1.3-7.3,2.4-11,3.7l-5.5,1.8l-5.6,1.6c-3.7,1-7.4,2.2-11.1,3.1
			c-7.5,1.8-15,3.8-22.5,5.3c-29.7,6.2-58.7,10.1-86.2,16.8c-13.8,3.3-27.1,7.4-39.7,12.7c-6.3,2.7-12.4,5.7-18.2,9
			c-5.8,3.4-11.3,7.2-16.5,11.4s-9.9,8.9-14.4,13.9c-4.4,5-8.4,10.6-12.2,16.4c-3.8,5.8-7.1,12-10.3,18.3c-3.2,6.3-6.1,12.9-9,19.5
			c-5.7,13.3-10.8,27.1-16.6,40.9c-5.8,13.8-12.2,27.5-20.2,40.5c-4,6.5-8.3,12.8-13.1,18.7c-4.9,5.9-10.2,11.5-16,16.5
			s-12.3,9.3-19,12.9c-3.5,1.8-7,3.3-10.7,4.5s-7.4,2.2-11.2,2.8c-7.5,1.3-15.2,1.6-22.8,0.9c-3.8-0.4-7.5-1-11.2-1.9
			s-7.3-2.1-10.7-3.5c-6.9-3-13.4-7-18.7-12.3c-2.6-2.7-5-5.5-7-8.7c-1.9-3.2-3.5-6.5-4.7-10c1.4,3.4,3.2,6.6,5.4,9.6
			c2.1,3,4.7,5.6,7.4,8c5.5,4.8,12,8.2,18.7,10.6c13.6,4.6,28.5,4.8,42.2,1.4c3.4-0.8,6.8-2,10-3.3s6.4-2.9,9.3-4.7
			c5.9-3.8,11.5-8.1,16.5-13.1s9.5-10.4,13.6-16.2s7.7-11.9,11-18.2c6.5-12.7,11.8-26.1,16.4-39.8s8.8-27.9,13.7-42.1
			c2.4-7.1,5-14.2,8-21.2c3-7.1,6.1-14.1,9.9-21s7.9-13.6,12.8-20s10.2-12.5,16.1-18s12.2-10.6,18.8-15.1
			c6.6-4.5,13.5-8.5,20.5-12.1c14.1-7.2,28.7-12.7,43.2-17.4c29.2-9.3,58.3-15.3,85.8-23.2c6.9-1.9,13.5-4.2,20.2-6.3
			c3.3-1.1,6.6-2.4,9.9-3.6l4.9-1.8l4.9-2c3.2-1.3,6.5-2.6,9.7-4l9.5-4.3c3.2-1.4,6.3-3,9.4-4.6l4.7-2.3l2.3-1.2l2.3-1.3l9.2-5
			c1.5-0.8,3-1.7,4.5-2.6l4.5-2.7l4.5-2.7c1.5-0.9,2.9-1.9,4.4-2.8l8.8-5.7l8.6-6c1.4-1,2.9-2,4.3-3l4.2-3.1
			c2.8-2.1,5.6-4.1,8.3-6.3l8.1-6.6c42.9-35.4,78.6-79,104.7-127.2c3.1-6.1,6.4-12.1,9.2-18.3l2.2-4.6l1.1-2.3l1-2.3l4.1-9.4
			c0.7-1.5,1.3-3.1,1.9-4.7l1.8-4.7l1.9-4.7c0.6-1.6,1.1-3.2,1.7-4.8l3.3-9.6l3-9.7c0.5-1.6,1-3.2,1.5-4.8l1.3-4.9l1.3-4.9
			c0.4-1.6,0.9-3.2,1.2-4.9l2.2-9.8l0.6-2.5l0.5-2.5l0.9-4.9c1.4-6.6,2.2-13.2,3.2-19.8c0.4-3.3,0.8-6.7,1.2-10.1
			c0.4-3.4,0.6-6.8,1-10.3c2.4-27.6,3-56.8,5.3-87.7c1.2-15.4,2.8-31.3,5.5-47.5l2.2-12.2l2.7-12.3l3.2-12.4c0.3-1,0.6-2.1,0.9-3.2
			l1-3.2c0.6-2.2,1.4-4.3,2.1-6.4c5.9-17,13.6-33.4,23.2-48.9c9.6-15.5,21.1-30.1,35.1-43.4c13.9-13.2,30.4-25.1,49.7-33.8
			c9.6-4.3,19.9-7.8,30.6-10.1c10.7-2.3,21.8-3.5,32.9-3.5L2497.5-93.2z"/>
	</g>
	<g>
		<path class="st2" d="M2551.3-110.3c-11.4,30.2-24.9,60.1-41.5,88.8c-4.1,7.2-8.5,14.3-13,21.3c-4.6,7-9.2,13.9-14.2,20.7
			c-9.8,13.6-20.5,26.6-32,39s-23.9,24-37,34.9c-13.1,10.8-27.1,20.6-41.6,29.4c-14.3,8.7-28.9,16.3-43.8,23.2
			c-14.8,6.9-29.8,12.9-44.9,18.2c-30.1,10.8-60.3,18.9-90.1,26.2c-29.8,7.2-59.3,13.5-88.2,20.3c-14.4,3.4-28.8,6.8-42.8,10.6
			s-27.9,7.9-41.6,12.4c-27.3,9.1-53.9,19.9-78.8,33.3c-24.9,13.4-48,29.4-67.9,48.7c-5,4.8-9.7,9.8-14.2,15s-8.8,10.6-12.8,16.2
			s-7.8,11.4-11.2,17.3c-3.5,6-6.7,12.2-9.7,18.6c-12.1,25.6-20.6,53.8-29.5,82.6c-4.5,14.4-9.1,29-14.3,43.5
			c-1.3,3.6-2.7,7.2-4.1,10.9s-2.9,7.3-4.5,10.9c-3.1,7.2-6.5,14.3-10.2,21.2c-7.3,13.9-15.8,27.2-25.8,39.6
			c-9.9,12.3-21.3,23.7-34.4,33c-13,9.3-27.8,16.5-43.4,20.4c-7.8,2-15.7,3-23.5,3.6s-15.5,0.6-23.1,0.5s-15.1-0.3-22.5-0.2
			c-3.7,0-7.4,0.1-11,0.3s-7.3,0.5-10.9,1c-7.2,0.9-14.3,2.4-21.1,4.7c-6.8,2.3-13.3,5.5-19.1,9.7c-2.9,2.1-5.6,4.4-8,7.1
			c-1.2,1.3-2.4,2.7-3.4,4.1c-1.1,1.4-2,2.9-2.9,4.4c-3.4,6.2-5,13.5-4.9,20.8s1.8,14.6,5.6,21c1.9,3.2,4.3,6,7.2,8.3
			c2.9,2.3,6.3,4,9.9,5c-3.7-0.7-7.2-2.2-10.4-4.4c-3.1-2.2-5.9-5-8-8.1c-4.4-6.3-6.8-13.9-7.4-21.7c-0.6-7.7,0.5-15.7,3.8-23
			c0.8-1.8,1.8-3.6,2.9-5.2c1.1-1.7,2.2-3.3,3.5-4.8c2.5-3.1,5.3-5.9,8.3-8.4c6.1-5.1,13-9,20.2-12s14.8-5.2,22.4-6.7
			c3.8-0.8,7.7-1.4,11.5-1.8c3.8-0.4,7.6-0.8,11.5-1.1c7.6-0.6,15.2-0.9,22.6-1.3c7.4-0.4,14.8-1,21.9-2s14.1-2.5,20.7-4.6
			c13.3-4.3,25.6-11.4,36.4-20.3c10.8-8.9,20.2-19.6,28.4-31.3c8.1-11.7,15-24.3,20.8-37.4c2.9-6.6,5.6-13.2,8-20
			c1.2-3.4,2.3-6.8,3.4-10.2c1.1-3.5,2.1-7,3.1-10.5c4-14.1,7.5-28.4,11-43s6.9-29.4,10.9-44.3s8.6-29.9,14.4-44.8
			c2.9-7.4,6.1-14.8,9.7-22.1c3.6-7.3,7.5-14.4,11.8-21.4c4.3-6.9,8.9-13.7,13.8-20.2s10.1-12.8,15.5-18.8
			c21.7-24.2,47.2-44.4,74.1-61.4c27-17,55.4-30.9,84.4-42.8c14.5-5.9,29.1-11.4,43.8-16.4c14.8-5.1,29.3-9.6,43.9-14.1
			c29.1-8.9,57.9-17.2,86-26.1c28-8.9,55.4-18.4,81.2-29.7c12.9-5.6,25.4-11.7,37.5-18.3l4.5-2.5l4.4-2.6c3-1.7,5.8-3.5,8.7-5.3
			s5.7-3.6,8.5-5.5l4.2-2.8c1.4-0.9,2.8-1.9,4.1-2.9c10.6-7.6,20.7-16,30.2-25c9.4-9.1,18.3-18.7,26.4-29.1
			c8.2-10.3,15.8-21.1,22.7-32.5c3.5-5.6,6.8-11.5,10-17.3c3.2-5.9,6.3-11.9,9.2-18c11.7-24.4,21.1-50.2,28.9-76.9L2551.3-110.3z"/>
	</g>
	<g>
		<path class="st2" d="M2375.7-239.7c-8.5,19.3-14.6,41.2-19.5,64.9s-8.7,49-13.3,75.4c-2.3,13.2-4.9,26.7-8,40.4
			s-6.8,27.6-11.5,41.5c-4.6,13.9-10.2,27.8-17.1,41.4c-3.4,6.8-7.1,13.4-11.2,20c-1.9,3.3-4.1,6.4-6.2,9.6
			c-2.1,3.2-4.4,6.2-6.6,9.2c-18.1,24.2-39.8,44.7-63.1,61.8c-11.7,8.5-23.8,16.3-36.2,23.2c-3.1,1.7-6.3,3.4-9.4,5.1
			c-3.1,1.7-6.3,3.2-9.5,4.8c-6.4,3.1-12.7,6-19.2,8.7c-25.7,10.9-52,19.2-78.3,25.8c-26.2,6.6-52.5,11.6-78.4,15.9
			c-25.8,4.3-51.2,8.2-75.9,13.2c-12.4,2.5-24.6,5.3-36.6,8.5s-23.7,6.9-35.2,11.3c-11.4,4.4-22.4,9.4-33,15.2
			c-10.5,5.9-20.5,12.5-29.8,20.1c-9.2,7.7-17.9,16-25.6,25.4c-7.8,9.3-14.9,19.4-21.3,30l-2.4,4c-0.8,1.3-1.6,2.7-2.3,4l-4.4,8.2
			l-4.2,8.4c-0.7,1.4-1.3,2.8-2,4.3l-1.9,4.3c-5.1,11.5-9.7,23.3-13.8,35.4c-4.1,12.1-7.8,24.3-11.2,36.7
			c-1.7,6.2-3.3,12.4-4.9,18.7c-1.5,6.3-3,12.5-4.4,18.8c-11.2,50.3-17.8,101.8-19.4,153.7c-2.6-51.8-0.3-104.1,7-155.9
			c0.9-6.5,1.9-12.9,2.9-19.4c1.1-6.4,2.2-12.9,3.4-19.3c2.4-12.9,5.2-25.8,8.4-38.6c3.3-12.8,7-25.5,11.5-38.2l1.7-4.7
			c0.6-1.6,1.1-3.2,1.8-4.7l3.7-9.4l4.1-9.3c0.7-1.6,1.4-3.1,2.2-4.6l2.2-4.6c6-12.1,13-24,20.9-35.3s17.2-21.8,27.2-31.6
			c10.1-9.7,21.1-18.4,32.7-26.1c11.6-7.7,23.7-14.4,36.1-20.4c12.4-5.9,25.1-11.1,37.8-15.6c12.7-4.6,25.6-8.6,38.4-12.3
			c25.6-7.3,51.2-13.4,76.1-19.7c24.9-6.2,49.2-13,72.7-21s46.2-17.3,67.4-28.4c5.3-2.8,10.5-5.7,15.6-8.7c2.5-1.5,5.1-3,7.5-4.6
			c2.5-1.6,4.9-3.2,7.4-4.8c9.7-6.5,19-13.6,27.7-21.1c17.4-15,32.4-32,43.9-50.4c1.4-2.3,2.9-4.6,4.1-7c1.3-2.4,2.7-4.7,3.8-7.1
			c2.4-4.7,4.7-9.6,6.6-14.6c4-10,7.3-20.5,10-31.5c5.4-21.9,8.3-45.7,10.6-70.6c2.3-25,4-51.2,7.4-78.8c1.7-13.8,3.9-27.8,6.8-42.2
			c3-14.3,6.8-28.9,11.8-43.5L2375.7-239.7z"/>
	</g>
	<g>
		<path class="st3" d="M2382.5-227.2c-12.2,21.7-24.7,43.7-38.2,65.6s-27.9,43.8-44.1,65c-16.2,21.2-34.1,41.7-54.5,60.4
			c-20.3,18.7-43.2,35.5-68.3,48.7c-6.2,3.3-12.7,6.4-19.1,9.2l-9.8,4.1c-1.6,0.7-3.3,1.3-4.9,1.9l-4.9,1.8l-4.9,1.8
			c-1.6,0.6-3.3,1-4.9,1.6c-3.3,1-6.6,2.1-9.8,3c-6.5,1.7-13.1,3.6-19.5,5.1l-4.9,1.1l-2.4,0.6l-2.4,0.5l-9.7,2
			c-3.2,0.6-6.4,1.2-9.6,1.8l-4.8,0.9l-4.7,0.8l-9.5,1.5l-9.4,1.4l-9.3,1.3l-9.2,1.3c-12.2,1.7-24.2,3.4-36.1,5.2
			c-5.8,1-11.8,1.9-17.5,3c-2.9,0.5-5.8,1-8.6,1.6l-8.5,1.8c-1.4,0.3-2.8,0.6-4.2,0.9l-4.2,1c-2.8,0.7-5.6,1.3-8.4,2.1l-8.4,2.2
			l-8.3,2.5c-1.4,0.4-2.8,0.8-4.1,1.3l-4.1,1.4c-2.7,0.9-5.5,1.8-8.2,2.8l-8.2,3l-2,0.8l-2,0.8l-4,1.6
			c-43.1,17.4-83.7,42.3-119.5,73.1s-67,67.6-91.3,108.9c-6.2,10.3-11.7,20.9-16.9,31.7c-5.2,10.8-9.8,22-14.6,33.4
			c-4.7,11.4-9.5,22.9-15,34.3s-11.7,22.6-19.1,33c-0.9,1.3-1.9,2.6-2.9,3.9s-1.9,2.6-3,3.8l-3.2,3.7c-1,1.2-2.1,2.4-3.2,3.6
			c-2.3,2.3-4.4,4.6-6.9,6.8c-1.2,1.1-2.5,2.1-3.7,3.2c-1.3,1-2.6,2-3.9,2.9c-10.6,7.5-22.5,12.8-35,15.6
			c-6.2,1.4-12.6,2.2-18.9,2.3c-6.3,0-12.7-0.6-18.8-2.2c-6.1-1.6-12-4.1-17.2-7.5c-5.2-3.5-9.7-7.9-13.3-12.9
			c4,4.7,8.8,8.6,14.2,11.5c5.3,2.9,11.1,4.8,17.1,5.8c11.9,2,24.1,0.6,35.4-3.1c11.3-3.6,21.9-9.5,30.8-17c1.1-0.9,2.2-1.9,3.3-2.9
			c1-1,2.1-2,3.1-3.1c2-2.1,3.8-4.4,5.7-6.7c1-1.1,1.8-2.3,2.7-3.5l2.6-3.6c0.8-1.2,1.6-2.5,2.4-3.7c0.8-1.3,1.6-2.4,2.3-3.8
			c6-10.2,10.9-21.1,15.2-32.3c4.3-11.2,7.9-22.8,11.7-34.6c3.7-11.7,7.5-23.7,12-35.5s9.4-23.5,14.9-34.9
			c21.9-45.8,51.8-88,87.7-124.6c35.9-36.6,78-67.8,124.4-91.4l4.4-2.2l2.2-1.1l2.2-1l8.9-4.2c3-1.4,6-2.6,9-3.9l4.5-2
			c1.5-0.6,3-1.2,4.6-1.8l9.1-3.6l9.2-3.4c3.1-1.2,6.2-2.2,9.3-3.2l4.7-1.5c1.6-0.5,3.1-1,4.7-1.5l9.4-2.8c3.1-0.9,6.2-1.7,9.3-2.6
			c6.2-1.8,12.4-3.2,18.6-4.8c12.3-3,24.5-5.8,36.5-8.5l8.9-2.1l8.9-2.1l8.8-2.1l8.6-2.2l4.3-1.1l4.2-1.1c2.8-0.8,5.7-1.5,8.4-2.3
			l8.3-2.4l2.1-0.6l2-0.7l4-1.3c5.4-1.7,10.6-3.7,15.8-5.6l7.6-3.1c1.3-0.5,2.5-1,3.8-1.6l3.7-1.7l3.7-1.7c1.2-0.6,2.5-1.1,3.6-1.7
			l7-3.7c4.6-2.5,9.1-5.2,13.5-8c17.6-11.4,33.7-25.4,48.3-41.4s27.8-33.9,40-53c12.1-19.1,23.2-39.4,33.8-60.5
			c10.6-21,20.6-42.8,30.7-65.1L2382.5-227.2z"/>
	</g>
	<g>
		<path class="st3" d="M2393.7-156c-1.5-0.4-2.9-0.6-4.5-0.6c-1.7,0-3.6,0.2-5.8,0.9c-4.4,1.3-9.9,4.4-15.3,9
			c-5.4,4.6-10.5,10.6-14.8,17.3c-2.1,3.3-4.1,6.8-5.7,10.4l-0.6,1.3c-0.2,0.4-0.4,0.9-0.6,1.4l-1.2,3.2c-0.9,2.1-1.6,4.4-2.3,6.6
			c-0.4,1.1-0.7,2.3-1.1,3.4l-1,3.5c-0.7,2.4-1.3,4.9-1.9,7.3c-0.6,2.5-1.2,5-1.7,7.6s-1.1,5.2-1.6,7.9c-2,10.8-3.7,22.2-5.5,34.3
			s-3.8,24.7-6.5,37.9c-0.7,3.3-1.4,6.6-2.2,9.9l-2.6,10c-1.6,6.7-3.9,13.1-6.1,19.6c-8.9,25.8-21,50.3-36,72.6
			c-14.9,22.4-32.4,42.8-52,60.8s-41.4,33.5-64.9,45.9c-3,1.5-6,2.9-8.9,4.4c-3,1.4-5.9,3-8.9,4.3s-6,2.6-9,3.8
			c-3,1.3-6,2.4-8.9,3.6c-11.8,4.6-23.4,8.5-34.6,12.5c-11.2,3.9-21.9,7.9-32.2,12.2c-2.5,1.1-5.1,2.2-7.5,3.4l-3.7,1.7l-3.6,1.8
			l-1.8,0.9c-0.6,0.3-1.1,0.6-1.7,0.9l-3.4,1.9c-1.1,0.6-2.2,1.3-3.4,2c-1.1,0.7-2.3,1.3-3.3,2.1c-2.2,1.4-4.4,2.8-6.4,4.4
			c-1,0.8-2.1,1.5-3.1,2.3l-3,2.4c-0.5,0.4-1,0.8-1.5,1.2l-1.4,1.3l-2.9,2.5l-2.7,2.7l-1.4,1.3c-0.5,0.4-0.8,0.9-1.3,1.4l-2.5,2.8
			c-0.8,0.9-1.6,1.9-2.4,2.9c-1.6,1.9-3,3.9-4.4,5.9c-0.4,0.5-0.7,1-1,1.5l-0.9,1.5l-1,1.5l-0.5,0.8l-0.4,0.8l-1.7,3.2l-0.4,0.8
			c-0.1,0.3-0.2,0.5-0.3,0.8l-0.7,1.6l-0.7,1.6c-0.2,0.5-0.5,1.1-0.6,1.6l-1.1,3.3c-0.4,1.1-0.6,2.2-0.9,3.4l-0.4,1.7
			c-0.1,0.6-0.3,1.1-0.4,1.7c-0.3,2.3-0.8,4.5-0.9,7c-0.1,1.2-0.1,2.5-0.2,3.7c0,1.3-0.1,2.5,0,3.9c0.1,10.5,1.7,22.1,3.1,34.4
			c0.6,6.2,1.2,12.6,1.4,19.3c0.1,6.7-0.1,13.8-1.6,21.2c-1.4,7.3-4.3,15-8.8,21.6l-1.7,2.4c-0.6,0.8-1.3,1.5-1.9,2.3
			c-1.2,1.6-2.7,2.9-4,4.3c-2.9,2.7-6,5.2-9.3,7.1c-3.3,2-6.6,3.6-10,4.9s-6.7,2.3-10,3.2c-6.6,1.7-12.9,2.6-19,3.5
			c-6.1,0.8-11.9,1.5-17.5,2.4c-5.5,0.9-10.9,2.1-15.6,3.9c-1.2,0.4-2.3,0.9-3.4,1.4c-1,0.6-2.2,1.1-3.1,1.7c-1,0.6-1.9,1.3-2.9,1.9
			c-0.8,0.8-1.8,1.4-2.5,2.3c-3.3,3.2-5.6,7.2-7.2,12.1c-1.6,4.8-2.3,10.3-2.9,16.1c-0.5,5.8-0.7,11.8-1.3,18
			c-0.6,6.2-1.5,12.7-3.7,19.1c-1.1,3.2-2.6,6.3-4.4,9.2l-1.5,2.1c-0.5,0.7-1.1,1.4-1.6,2c-0.5,0.7-1.2,1.3-1.8,1.9
			c-0.6,0.6-1.2,1.3-1.8,1.8c-1.3,1.1-2.6,2.2-4,3.1c-0.7,0.5-1.4,1-2.1,1.4l-2.2,1.2c-0.7,0.4-1.5,0.7-2.2,1.1
			c-0.7,0.3-1.5,0.7-2.2,1c-1.5,0.6-3,1.2-4.6,1.6c-6.1,1.9-12.2,2.9-18.2,3.7s-12,1.5-17.7,2.5c-5.7,1.1-11.2,3-16.4,5.8
			c-5.1,2.7-10,6.3-13.5,11c-1.7,2.4-3.1,5-3.9,7.8s-0.9,5.9-0.5,8.8c-0.7-2.9-0.9-6-0.3-9c0.5-3,1.8-5.9,3.4-8.5
			c3.3-5.2,8-9.5,13.2-12.8s10.9-5.9,16.9-7.6c6-1.6,11.9-2.8,17.7-4.1c5.8-1.3,11.5-2.8,16.7-5c5.2-2.1,9.9-5,13.4-8.8
			c0.5-0.4,0.8-1,1.3-1.5c0.4-0.5,0.8-1,1.2-1.5c0.3-0.5,0.7-1,1.1-1.6l0.9-1.7c1.2-2.3,2.1-4.7,2.7-7.3c1.3-5.1,1.6-10.7,1.6-16.5
			s-0.3-11.7-0.3-18c0-6.2,0.2-12.8,1.8-19.6c0.8-3.4,1.9-6.8,3.5-10.2c1.6-3.3,3.6-6.5,6-9.4c1.1-1.5,2.5-2.8,3.8-4.1
			c1.4-1.2,2.8-2.5,4.3-3.5c1.5-1.1,3-2.1,4.5-3c1.6-0.9,3.1-1.8,4.7-2.5c6.3-3.1,12.7-4.9,18.9-6.6c6.2-1.6,12.2-2.8,17.9-4.1
			c5.7-1.3,11.2-2.7,16.2-4.4c2.5-0.9,4.8-1.8,7-2.9s4.1-2.3,5.9-3.6c1.8-1.3,3.2-2.7,4.6-4.2c0.6-0.8,1.4-1.6,1.9-2.5
			c0.3-0.4,0.6-0.8,0.8-1.3l0.7-1.3c0.9-1.8,1.7-3.6,2.3-5.6l0.2-0.7l0.2-0.8c0.1-0.5,0.2-1,0.3-1.6c0.2-1.1,0.4-2.1,0.5-3.3
			c1-9-0.7-19.9-2.9-31.2c-2.2-11.4-5.1-23.5-6.5-37c-0.2-1.7-0.3-3.4-0.4-5.1c-0.1-1.8-0.2-3.5-0.2-5.3c-0.1-3.6,0.2-7.3,0.5-11
			c0-0.9,0.2-1.8,0.3-2.7l0.4-2.7c0.3-1.8,0.5-3.7,1-5.4l1.3-5.4c0.2-0.9,0.5-1.8,0.8-2.6l0.8-2.6l0.9-2.6l0.4-1.3l0.5-1.3l2.1-5
			l0.5-1.3l0.6-1.2l1.2-2.4l1.2-2.4c0.4-0.8,0.8-1.6,1.3-2.4c1.8-3.1,3.5-6.2,5.6-9.1c1-1.5,1.9-3,3-4.4l3.2-4.2
			c0.5-0.7,1.1-1.4,1.6-2.1l1.7-2l3.4-4l3.5-3.8l1.8-1.9c0.6-0.6,1.2-1.2,1.8-1.8l3.7-3.6c1.2-1.2,2.6-2.3,3.8-3.4
			c2.5-2.3,5.2-4.4,7.9-6.5c1.3-1.1,2.7-2.1,4.1-3.1s2.7-2,4.1-3l4.2-2.8c0.7-0.5,1.4-1,2.1-1.4l2.1-1.3l4.2-2.6l4.2-2.5
			c2.8-1.7,5.7-3.2,8.5-4.8c11.4-6.1,22.8-11.4,33.9-16.4c11.1-5,21.9-9.8,32.1-14.8c2.5-1.3,5.1-2.5,7.5-3.8
			c2.5-1.3,4.9-2.6,7.3-3.9c2.4-1.3,4.6-2.8,7-4.2c2.3-1.4,4.6-2.8,6.9-4.2c18.1-11.8,34.5-25.9,49-41.7
			c28.9-31.6,50.1-70.1,59.9-110.5c1.2-5.1,2.5-10.1,3.2-15.2l1.3-7.6c0.4-2.6,0.7-5.2,1-7.8c1.2-10.6,2-21.8,2.8-33.6
			c0.7-11.8,1.5-24.2,2.7-37.2c0.3-3.2,0.7-6.6,1.1-9.9c0.4-3.3,0.9-6.7,1.4-10.1c0.6-3.4,1.1-6.9,1.8-10.4l1-5.3
			c0.3-1.7,0.7-3.5,1.1-5.3c0.9-3.6,1.6-7.1,2.7-10.7l1.5-5.4c0.2-0.9,0.6-1.9,0.9-2.8l1-2.9c2.6-7.7,5.8-15.1,9.5-22.3
			c7.3-14.4,16.5-27.9,28.1-40.3c5.8-6.2,12.3-12.1,19.5-17.5s15.2-10.3,24-14.4c8.8-4.1,18.5-7.3,28.7-9.2
			c10.2-1.9,20.9-2.5,31.4-1.6L2393.7-156z"/>
	</g>
	<g>
		<path class="st3" d="M2364.6-268.4c-0.6,10.5-2.4,21-5.3,31.1c-2.9,10.1-6.8,19.6-11.5,28.5c-9.4,17.8-21.7,32.7-35,45.1
			c-13.4,12.4-28,22.4-43.1,30.5c-15.2,8.1-31,14.4-47.4,18.9c-2.1,0.5-4.1,1.1-6.2,1.6l-3.1,0.7c-1,0.2-2.1,0.5-3.1,0.7l-11.8,2.3
			l-11.7,1.8l-11.6,1.4c-15.4,1.6-30.3,2.1-44.8,2.3c-29,0.3-56.1-0.9-81.8-0.4c-3.2,0.1-6.4,0.1-9.6,0.3c-3.1,0.2-6.3,0.3-9.4,0.5
			c-6.2,0.5-12.3,0.9-18.5,1.7l-4.6,0.6l-2.3,0.3l-2.3,0.4l-9.2,1.5c-1.5,0.2-3.1,0.6-4.6,0.9l-4.6,0.9l-4.6,0.9
			c-1.5,0.3-3,0.7-4.6,1.1l-9.1,2.2l-9.1,2.5c-1.5,0.4-3,0.8-4.5,1.3l-4.5,1.4l-4.5,1.4c-1.5,0.5-3,0.9-4.5,1.5l-8.9,3.2l-2.2,0.8
			l-2.2,0.9l-4.4,1.8c-5.9,2.2-11.7,4.9-17.5,7.4c-46.1,21.2-88.6,51.6-124,89.2l-6.6,7.1c-2.2,2.4-4.2,4.9-6.3,7.3l-3.2,3.7
			c-1,1.2-2,2.5-3,3.8l-6.1,7.6l-5.8,7.8c-1,1.3-2,2.6-2.9,3.9l-2.7,4l-2.8,4c-0.9,1.3-1.9,2.7-2.7,4l-5.2,8.2L1730,82l-1.2,2.1
			l-2.5,4.2c-1.6,2.8-3.3,5.6-4.8,8.5l-4.6,8.6c-1.5,2.9-2.9,5.8-4.3,8.7l-2.1,4.4l-2,4.5c-1.3,3-2.7,5.9-3.9,8.9
			c-2.4,6.1-4.9,12-7,18.3c-8.9,25-16.3,51.8-26.7,78.4c-5.2,13.3-11.3,26.6-18.8,39.3c-3.8,6.4-8,12.5-12.6,18.5
			c-4.6,5.9-9.7,11.5-15.3,16.6c-5.5,5.2-11.5,9.8-17.8,14c-6.3,4.1-12.9,7.6-19.5,10.7s-13.4,5.7-20.2,8
			c-6.8,2.3-13.5,4.3-20.3,6.2c-13.5,3.7-26.9,6.7-40,10.2c-13,3.5-25.8,7.5-38,12.8c-6,2.7-12,5.7-17.6,9.1
			c-5.6,3.5-10.9,7.3-15.8,11.6c-4.9,4.3-9.2,9.3-13.1,14.5c-1.9,2.6-3.5,5.4-4.9,8.3s-2.7,6-3.7,9.1c-4,12.5-4.7,26.3-1.3,39.3
			c1.8,6.4,4.6,12.7,8.7,18c2,2.7,4.3,5.2,7,7.3c2.6,2.2,5.5,4,8.6,5.6c-3.2-1.3-6.2-3-9.1-4.9c-2.9-2-5.4-4.4-7.7-7
			c-4.7-5.2-8.1-11.5-10.5-18.1c-1.2-3.3-2-6.7-2.7-10.2s-1-7-1.2-10.5c-0.3-7.1,0.4-14.2,2.1-21.2c0.8-3.5,1.9-6.9,3.2-10.3
			c1.3-3.4,2.9-6.6,4.8-9.8c3.8-6.1,8.1-11.9,13.1-17.1c5-5.1,10.5-9.8,16.3-14s11.9-7.8,18.2-11.2c12.5-6.7,25.7-11.9,38.8-16.5
			c13.2-4.6,26.3-8.6,38.9-13.2c6.3-2.3,12.6-4.6,18.6-7.2s11.9-5.4,17.5-8.5c5.6-3.2,10.9-6.5,15.8-10.3s9.4-8,13.6-12.5
			s8-9.4,11.4-14.6s6.5-10.6,9.4-16.3c5.6-11.4,10.1-23.5,13.9-36.1c7.7-25.2,12.9-51.9,20.3-79.3c1.8-6.8,4.1-13.8,6.2-20.7
			c1.1-3.4,2.4-6.8,3.6-10.2l1.8-5.1l2-5c1.3-3.4,2.6-6.7,4-10.1l4.4-9.9c1.4-3.3,3-6.6,4.6-9.8l2.4-4.9l1.2-2.4l1.3-2.4l5.1-9.6
			c0.8-1.6,1.8-3.2,2.7-4.7l2.7-4.7l2.7-4.7c0.9-1.6,1.9-3.1,2.9-4.6l5.8-9.2l6.1-9c1-1.5,2-3,3.1-4.5l3.2-4.4
			c2.2-2.9,4.3-5.9,6.5-8.8l6.7-8.6c36.5-45.3,82-83.7,133.6-112.4c6.5-3.5,13-7.1,19.7-10.2l5-2.4l2.5-1.2l2.5-1.1l10.2-4.5
			c1.7-0.8,3.4-1.4,5.1-2.1l5.2-2.1l5.2-2.1c1.7-0.7,3.5-1.3,5.2-1.9l10.5-3.8l10.7-3.4c1.8-0.6,3.5-1.2,5.3-1.7l5.4-1.5l5.4-1.5
			c1.8-0.5,3.6-1,5.4-1.4l10.9-2.6l2.7-0.7l2.8-0.6l5.5-1.1c7.4-1.6,14.8-2.6,22.3-3.8c3.7-0.5,7.4-1,11.1-1.4
			c3.7-0.5,7.3-0.8,11-1.2c29.1-2.9,56.8-3.7,82.6-6c12.9-1.1,25.4-2.6,37.2-4.8l8.8-1.7l8.5-2l8.2-2.3c0.7-0.2,1.3-0.4,1.9-0.6
			l1.8-0.6c1.2-0.4,2.5-0.9,3.7-1.3c9.8-3.6,19.3-8.3,27.9-13.8c8.6-5.5,16.3-12,22.5-18.8s10.8-14,13.6-20.8
			c2.8-6.9,3.8-13.2,3.5-19.5L2364.6-268.4z"/>
	</g>
	<g>
		<path class="st1" d="M2399.5-221.1c-1.7,13.8-3.5,28.3-6.1,43.5s-5.9,31-11.1,47.1c-2.6,8.1-5.5,16-9.1,24.3
			c-3.6,8.1-7.8,16.1-12.5,23.8c-9.4,15.4-21.3,30.1-36.2,42.7c-1.9,1.5-3.7,3.1-5.7,4.6s-4,2.9-6,4.3c-2.1,1.4-4.2,2.7-6.3,4
			c-1,0.7-2.1,1.3-3.2,1.9l-3.3,1.8c-2.2,1.3-4.5,2.3-6.8,3.4l-3.4,1.6l-3.4,1.4l-3.5,1.4c-1.1,0.4-2.2,0.8-3.4,1.2l-3.4,1.1
			c-1.1,0.4-2.2,0.7-3.3,1c-8.7,2.6-16.7,4.3-23.9,5.7s-13.7,2.6-19.4,3.8S2219-0.1,2215,1.3c-0.9,0.4-1.9,0.7-2.8,1
			c-0.8,0.4-1.7,0.7-2.5,1.1s-1.6,0.9-2.4,1.3c-0.4,0.2-0.8,0.5-1.2,0.7l-1.2,0.8c-3.3,2.1-6.8,4.9-10.3,8.3s-7.1,7.5-10.7,12.1
			c-3.6,4.5-7.2,9.5-10.8,14.9c-3.6,5.3-7.3,11-11.2,16.9s-7.9,12-12.3,18.3c-4.4,6.3-9.2,12.7-14.7,19.2
			c-5.5,6.4-11.7,12.9-19.1,19c-7.3,6.1-16,11.6-25.5,15.8l-1.8,0.8l-1.8,0.7l-3.7,1.3c-2.4,0.9-5,1.6-7.5,2.2
			c-1.3,0.3-2.5,0.7-3.8,1l-3.8,0.7c-2.5,0.4-5.1,0.9-7.6,1.1c-5.1,0.5-10,0.6-14.5,0.4c-4.5-0.2-8.8-0.6-12.9-1.1
			s-7.9-1.1-11.5-1.7l-10.3-1.7c-6.4-1.1-12.2-1.9-16.8-2.2c-2.3-0.1-4.3-0.1-6,0s-2.9,0.3-4,0.6c-1,0.3-1.8,0.6-2.7,1
			c-0.5,0.2-0.8,0.5-1.2,0.7c-0.2,0.2-0.4,0.3-0.6,0.5s-0.4,0.4-0.7,0.6c-1.9,1.8-4.2,5.4-6.5,10.4s-4.6,11-7.3,18
			c-1.4,3.5-2.9,7.1-4.6,11c-1.8,3.9-3.8,8-6.5,12.2c-2.6,4.2-5.8,8.6-9.9,12.7c-4,4.1-8.9,8-14.3,10.9c-1.3,0.7-2.7,1.4-4.1,2
			s-2.8,1.1-4.2,1.7l-2.1,0.8c-0.7,0.2-1.4,0.4-2.1,0.6c-1.4,0.4-2.8,0.7-4.2,1c-1.4,0.2-2.7,0.4-4.1,0.6c-0.7,0.1-1.4,0.2-2,0.3
			l-1.9,0.1c-1.3,0.1-2.6,0.2-3.8,0.2h-3.5c-1.2,0-2.2-0.1-3.4-0.1c-1.1-0.1-2.2-0.1-3.2-0.2l-3-0.3c-1-0.1-1.9-0.2-2.8-0.3l-10-1.1
			l-2.1-0.2c-0.7-0.1-1.3-0.1-2-0.1c-1.4-0.1-2.4-0.1-3.5-0.1c-0.6,0-1,0-1.5,0h-0.7c-0.2,0-0.4,0-0.6,0.1c-0.4,0-0.8,0.1-1.2,0.1
			c-0.3,0.1-0.7,0.1-1,0.2l-0.5,0.1c-0.1,0.1-0.3,0.1-0.4,0.2c-0.3,0.1-0.6,0.2-0.9,0.2c-0.3,0.1-0.6,0.3-0.9,0.4
			c-0.3,0.1-0.6,0.2-0.9,0.4s-0.6,0.3-0.9,0.5c-0.3,0.1-0.6,0.4-0.9,0.6c-0.6,0.4-1.2,1-1.9,1.5c-2.5,2.3-4.9,6.1-6.9,10.5
			s-3.3,9.6-4.2,14.8c-0.3,1.3-0.3,2.6-0.5,4c-0.1,0.6-0.1,1.5-0.2,2.2c0,0.7-0.1,1.5-0.1,2.2c-0.1,3.1-0.2,6.2-0.2,9.5
			c0,6.5,0.2,13.5,0.2,20.9c0,3.7-0.1,7.5-0.3,11.4c-0.2,3.9-0.5,7.9-1.1,11.9c-0.5,4-1.4,8.2-2.4,12.3c-0.6,2-1.2,4.1-1.8,6.1
			c-0.7,2-1.4,4-2.2,5.9c-3.2,7.8-7.4,15.2-12.4,21.7c-4.9,6.6-10.5,12.4-16.4,17.6c-11.8,10.3-24.8,18.3-38.1,24.7
			c-13.2,6.5-26.8,11.6-40.3,16.1l-5.1,1.6l-5,1.6l-9.9,3c-6.6,2-13.1,4.1-19.5,6.3c-12.8,4.3-25.3,9.1-37.1,15.1
			c-11.7,6-22.6,13.2-31.7,22.2c-4.5,4.5-8.6,9.5-12,14.8c-3.5,5.4-6.2,11.2-8.5,17.3c-4.6,12.3-7.2,25.8-10,39.4
			c-1.4,6.8-2.9,13.7-4.8,20.5c-0.4,1.7-1,3.4-1.5,5.1l-0.8,2.5l-0.9,2.5c-1.1,3.3-2.5,6.8-4.1,10c-3.2,6.5-7.3,12.4-12,17.8
			c-4.7,5.3-10.1,10.1-16.2,13.8c-6,3.7-12.8,6.5-19.8,7.3c-7,0.9-14.2-0.4-20.4-3.5c6.4,2.7,13.5,3.3,20.2,2s12.9-4.4,18.3-8.4
			c5.5-4,10.2-8.8,14.3-14.2c4.1-5.3,7.4-11.2,9.9-17.4c1.3-3.1,2.3-6.2,3.1-9.5l0.7-2.4l0.6-2.5c0.4-1.6,0.8-3.3,1.1-5
			c1.3-6.7,2.3-13.4,3.2-20.2c1.8-13.7,3.4-27.7,7.4-41.7c2-7,4.7-14,8.3-20.6c3.5-6.6,7.9-12.7,12.7-18.4c9.8-11.3,21.6-20.4,34-28
			s25.4-13.7,38.4-19.3c6.5-2.8,13-5.4,19.5-8s13-5,19.1-7.6c12.4-5.1,24.4-10.8,35.6-17.4s21.4-14.1,29.8-22.7
			c4.2-4.3,7.8-8.9,10.9-13.6c3.1-4.8,5.3-9.8,7-14.9c0.5-1.3,0.7-2.6,1.1-3.9c0.3-1.3,0.6-2.6,0.9-3.9c0.4-2.7,0.8-5.3,0.9-8.2
			c0.2-2.8,0.2-5.8,0.1-8.8c-0.1-3.1-0.2-6.2-0.5-9.4c-0.5-6.5-1.2-13.3-1.8-20.6c-0.3-3.6-0.5-7.4-0.6-11.3c0-1,0-2,0-2.9
			c0-1,0-1.9,0-3c0.1-2.1,0.1-4.3,0.3-6.4l0.3-3.2l0.4-3.2c0.2-2.1,0.6-4.2,1-6.4c0.4-2.1,1-4.3,1.4-6.4c0.6-2.1,1.2-4.3,1.9-6.4
			c0.8-2.1,1.5-4.3,2.5-6.4c0.5-1.1,0.9-2.1,1.4-3.2l1.7-3.2l0.8-1.6c0.3-0.5,0.6-1,1-1.6l2-3.1c0.7-1,1.5-2.1,2.2-3.1
			c0.8-1,1.5-2,2.4-3c1.7-2,3.5-3.9,5.6-5.7c1-0.9,2-1.8,3.1-2.7c1.1-0.8,2.2-1.7,3.4-2.5c1.1-0.8,2.3-1.5,3.6-2.2
			c1.2-0.7,2.4-1.4,3.7-2c1.3-0.6,2.6-1.1,3.9-1.7l2-0.8l2-0.6c1.3-0.4,2.7-0.8,4-1.2c1.3-0.3,2.6-0.6,3.9-0.8
			c0.6-0.1,1.3-0.3,1.9-0.4l1.9-0.2c1.2-0.1,2.5-0.3,3.7-0.4c2.3-0.2,4.7-0.3,6.8-0.3c1.1,0,2.2-0.1,3.2,0h3l10.7,0.4
			c0.8,0,1.6,0.1,2.3,0.1h2.2c0.4,0,0.7,0,1,0h1c0.6,0,1.3,0,1.8-0.1l1.6-0.1c0.5,0,0.9-0.2,1.4-0.2l0.7-0.1c0.2,0,0.4-0.1,0.6-0.2
			c0.3-0.1,0.7-0.2,1.1-0.3c0.3-0.1,0.5-0.2,0.8-0.3c0.1-0.1,0.3-0.1,0.4-0.1c0.1-0.1,0.2-0.1,0.3-0.2c0.2-0.1,0.4-0.2,0.6-0.3
			s0.3-0.3,0.5-0.4c0.6-0.5,1.2-1.1,1.9-2c0.7-0.9,1.5-2.2,2.4-4s1.8-3.9,2.7-6.4c0.9-2.5,1.8-5.4,2.8-8.4
			c1.9-6.1,3.9-13.2,6.8-21.1c1.5-3.9,3.2-8.1,5.5-12.4c2.2-4.3,5-8.8,8.4-13.2c0.9-1.1,1.8-2.2,2.7-3.3c1-1.1,2-2.1,3-3.2
			c2.1-2.1,4.4-4.1,6.8-5.8c4.7-3.6,10.1-6.6,15.5-8.8c5.4-2.2,10.9-3.7,16.1-4.6s10.1-1.3,14.7-1.4c9.3-0.2,17.3,0.5,24.6,1.1
			l10.3,0.9c3.3,0.3,6.3,0.5,9.2,0.6c2.8,0.1,5.5,0.1,7.8,0c2.4-0.1,4.4-0.4,6.2-0.7c0.9-0.1,1.7-0.4,2.6-0.7
			c0.4-0.1,0.9-0.2,1.3-0.3l1.2-0.5c0.8-0.3,1.6-0.5,2.4-1c0.4-0.2,0.8-0.4,1.2-0.6l0.6-0.3l0.6-0.4c3-1.7,6-3.9,9.1-7
			c3.1-3,6.2-6.8,9.4-11.2c6.3-8.7,12.5-19.7,19.1-31.5c3.3-5.9,6.7-12.2,10.4-18.6s7.7-13,12.2-19.7s9.5-13.5,15.3-20.3
			c5.9-6.7,12.6-13.4,20.4-19.5l3-2.2c1-0.7,2-1.5,3.1-2.2c2.1-1.4,4.3-2.8,6.4-4.2c2.2-1.3,4.4-2.5,6.7-3.7
			c2.2-1.1,4.4-2.2,6.7-3.2c8.8-4,17.3-6.8,25-9c7.7-2.3,14.8-4.1,21-5.8c6.2-1.7,11.7-3.4,16.1-5.2c0.6-0.2,1.2-0.4,1.7-0.7
			l1.5-0.7c0.5-0.2,1-0.4,1.5-0.7l1.3-0.7l1.3-0.7l1.2-0.7c0.8-0.5,1.6-0.9,2.4-1.5l1.2-0.8c0.4-0.3,0.8-0.5,1.2-0.8
			c0.8-0.6,1.5-1.2,2.3-1.8c0.7-0.7,1.5-1.3,2.2-2s1.5-1.4,2.2-2.1c5.8-5.9,11.1-13.3,15.4-22c2.1-4.3,4.1-8.8,5.7-13.5
			c1.6-4.6,3-9.8,4.3-15c2.5-10.5,4.1-22,5.2-34.3c1.1-12.3,1.8-25.3,2.4-39.1L2399.5-221.1z"/>
	</g>
	<g>
		<path class="st4" d="M2603.2-62c-13.8,0.6-26.9,1.1-39.1,2.2c-12.2,1.1-23.8,2.6-34.3,5c-5.3,1.2-10.4,2.6-15,4.2
			c-4.7,1.6-9.2,3.5-13.5,5.6c-8.7,4.2-16.2,9.5-22.1,15.3c-0.7,0.7-1.5,1.4-2.1,2.2c-0.6,0.8-1.3,1.5-2,2.2
			c-0.6,0.8-1.2,1.5-1.8,2.3c-0.3,0.4-0.6,0.8-0.8,1.2l-0.8,1.2c-0.6,0.8-1,1.6-1.5,2.4l-0.7,1.2l-0.7,1.3l-0.7,1.3
			c-0.2,0.5-0.4,1-0.7,1.5l-0.7,1.5c-0.2,0.5-0.4,1.1-0.7,1.7c-1.8,4.4-3.5,9.9-5.3,16.1s-3.6,13.3-5.9,21
			c-2.3,7.7-5.1,16.1-9.2,24.9c-1.1,2.2-2.1,4.4-3.3,6.6c-1.2,2.2-2.5,4.5-3.8,6.7c-1.4,2.1-2.8,4.3-4.2,6.4c-0.7,1.1-1.5,2-2.2,3
			l-2.3,3c-6.1,7.8-12.8,14.5-19.6,20.3c-6.8,5.9-13.6,10.7-20.4,15.2c-6.7,4.5-13.4,8.4-19.8,12c-6.4,3.6-12.7,7.1-18.7,10.3
			c-11.9,6.5-22.9,12.6-31.6,18.9c-4.4,3.1-8.2,6.3-11.2,9.3c-3.1,3.1-5.3,6-7,9.1l-0.4,0.6l-0.3,0.6c-0.2,0.4-0.4,0.8-0.6,1.2
			c-0.5,0.7-0.7,1.6-1,2.4l-0.5,1.2c-0.1,0.4-0.2,0.9-0.3,1.3c-0.2,0.9-0.5,1.7-0.7,2.6c-0.4,1.8-0.6,3.8-0.8,6.2
			c-0.1,2.4-0.1,5,0,7.8s0.3,5.9,0.6,9.2l0.9,10.3c0.6,7.3,1.3,15.3,1,24.6c-0.2,4.6-0.6,9.5-1.5,14.7c-0.9,5.2-2.4,10.7-4.7,16.1
			s-5.3,10.7-8.9,15.4c-1.8,2.4-3.8,4.6-5.9,6.8c-1.1,1-2.1,2-3.2,3c-1.1,0.9-2.2,1.8-3.3,2.7c-4.4,3.4-8.9,6.2-13.3,8.4
			c-4.3,2.2-8.5,3.9-12.4,5.4c-7.9,2.9-15,4.8-21.1,6.7c-3.1,0.9-5.9,1.8-8.4,2.7c-2.5,0.9-4.7,1.8-6.4,2.7c-1.8,0.9-3.1,1.7-4,2.3
			c-0.9,0.7-1.5,1.2-2.1,1.9c-0.1,0.2-0.2,0.4-0.4,0.5c-0.1,0.2-0.2,0.4-0.3,0.6c-0.1,0.1-0.1,0.2-0.2,0.3c-0.1,0.1-0.1,0.3-0.1,0.4
			c-0.1,0.3-0.2,0.5-0.3,0.8c-0.1,0.4-0.2,0.7-0.3,1c0,0.2-0.1,0.3-0.2,0.6l-0.1,0.7c-0.1,0.5-0.2,0.9-0.2,1.4l-0.2,1.6
			c-0.1,0.5-0.1,1.2-0.1,1.8v1c0,0.3,0,0.6,0,1v2.2c0,0.7,0,1.6,0,2.3l0.3,10.7v3c0,1,0,2.2,0,3.2c0,2.1-0.2,4.5-0.4,6.8
			c-0.1,1.2-0.3,2.5-0.4,3.7l-0.3,1.9c-0.1,0.6-0.2,1.3-0.4,1.9c-0.3,1.3-0.5,2.6-0.8,3.9c-0.4,1.3-0.8,2.7-1.2,4l-0.6,2l-0.8,2
			c-0.6,1.3-1.1,2.6-1.7,3.9c-0.6,1.3-1.4,2.5-2.1,3.7c-0.7,1.2-1.4,2.4-2.3,3.5c-0.8,1.1-1.6,2.2-2.5,3.3c-0.8,1.1-1.8,2.1-2.7,3.1
			c-1.8,2.1-3.8,3.8-5.7,5.5c-1,0.9-2,1.6-3,2.4c-1,0.7-2,1.5-3.1,2.2l-3.1,2c-0.5,0.3-1,0.7-1.6,0.9l-1.6,0.8l-3.2,1.6
			c-1.1,0.5-2.1,0.9-3.2,1.4c-2.1,1-4.3,1.7-6.4,2.4c-2.1,0.7-4.3,1.3-6.4,1.9c-2.1,0.5-4.3,1-6.4,1.4c-2.1,0.4-4.3,0.8-6.4,1
			l-3.2,0.4l-3.2,0.2c-2.1,0.2-4.3,0.2-6.4,0.3c-1.1,0-2,0-3,0s-2,0-2.9-0.1c-3.9-0.1-7.7-0.4-11.3-0.7c-7.3-0.6-14.1-1.4-20.6-1.9
			c-3.3-0.3-6.3-0.4-9.4-0.6c-3-0.1-6-0.1-8.8,0.1c-2.9,0.1-5.5,0.5-8.2,0.9c-1.3,0.3-2.6,0.5-3.9,0.8c-1.3,0.4-2.6,0.6-3.9,1.1
			c-5.1,1.6-10.2,3.9-14.9,6.9c-4.8,3-9.4,6.6-13.7,10.8c-8.6,8.4-16.2,18.6-22.9,29.7c-6.6,11.1-12.4,23.1-17.6,35.5
			c-2.6,6.1-5.1,12.6-7.7,19.1s-5.3,13-8.1,19.5c-5.6,13-11.8,26-19.5,38.3c-7.6,12.4-16.8,24.1-28.2,33.9
			c-5.7,4.8-11.9,9.1-18.5,12.6c-6.6,3.6-13.6,6.2-20.6,8.1c-14.1,3.9-28.1,5.4-41.8,7.1c-6.8,0.9-13.6,1.8-20.3,3.1
			c-1.7,0.3-3.3,0.7-5,1l-2.5,0.5l-2.4,0.6c-3.3,0.8-6.4,1.8-9.5,3c-6.2,2.5-12,5.8-17.4,9.8s-10.3,8.8-14.3,14.2
			s-7.1,11.6-8.5,18.2c-1.4,6.6-0.8,13.7,1.8,20.2c-3.1-6.2-4.3-13.4-3.4-20.4s3.7-13.8,7.4-19.8c3.8-6,8.5-11.4,13.9-16.1
			c5.4-4.7,11.3-8.7,17.8-11.9c3.2-1.6,6.6-3,10-4.1l2.5-0.9l2.5-0.8c1.7-0.5,3.4-1,5.1-1.5c6.8-1.9,13.7-3.3,20.5-4.7
			c13.6-2.8,27.1-5.3,39.4-9.8c6.2-2.3,12-5,17.4-8.4s10.4-7.5,14.9-11.9c9.1-9.1,16.4-19.9,22.4-31.6c6.1-11.7,10.9-24.2,15.3-37
			c2.2-6.4,4.3-12.9,6.4-19.4l3.1-9.9l1.6-5l1.7-5.1c4.5-13.5,9.7-27,16.3-40.2c6.6-13.2,14.6-26.1,25-37.9
			c5.2-5.9,11.1-11.4,17.7-16.3s13.9-9.1,21.8-12.2c1.9-0.8,4-1.5,6-2.2s4.1-1.2,6.1-1.8c4.1-1,8.3-1.9,12.3-2.4
			c4.1-0.6,8-0.8,12-1.1c3.9-0.2,7.7-0.2,11.4-0.2c7.4,0,14.4,0.3,20.9,0.3c3.3,0,6.4,0,9.5-0.2c0.8,0,1.5-0.1,2.2-0.1
			c0.7-0.1,1.5-0.1,2.2-0.2c1.3-0.2,2.7-0.2,4-0.5c5.3-0.8,10.4-2.1,14.9-4.1c4.4-1.9,8.2-4.3,10.5-6.8c0.5-0.6,1.2-1.2,1.5-1.9
			c0.2-0.3,0.5-0.6,0.6-0.9c0.2-0.3,0.3-0.6,0.5-0.9s0.3-0.6,0.4-0.9c0.1-0.3,0.3-0.6,0.4-0.9c0.1-0.3,0.1-0.6,0.2-0.9
			c0-0.1,0.1-0.3,0.2-0.4l0.1-0.5c0-0.3,0.1-0.7,0.2-1c0-0.4,0.1-0.8,0.1-1.2c0-0.2,0.1-0.4,0.1-0.6v-0.7c0-0.5,0.1-0.9,0.1-1.5
			c0-1.1,0-2.2-0.1-3.5c0-0.7-0.1-1.2-0.1-2l-0.2-2.1l-1.1-10c-0.1-1-0.2-1.8-0.3-2.8l-0.2-3c-0.1-1-0.1-2.1-0.2-3.2
			c0-1.1-0.1-2.1-0.1-3.4v-3.5c0-1.2,0.2-2.5,0.2-3.8l0.2-1.9c0.1-0.6,0.2-1.3,0.3-2c0.2-1.4,0.4-2.7,0.7-4.1s0.7-2.8,1.1-4.2
			c0.2-0.7,0.4-1.4,0.6-2.1l0.8-2.1c0.5-1.4,1.1-2.9,1.7-4.2c0.7-1.4,1.3-2.7,2-4.1c2.9-5.3,6.8-10.2,11-14.2s8.6-7.2,12.8-9.8
			c4.2-2.6,8.3-4.6,12.2-6.4c3.9-1.7,7.5-3.2,11-4.6c6.9-2.7,13-4.9,18-7.2c5-2.3,8.5-4.6,10.4-6.5c0.2-0.2,0.4-0.5,0.6-0.7
			c0.2-0.2,0.3-0.4,0.5-0.6c0.3-0.4,0.5-0.8,0.7-1.2c0.5-0.9,0.8-1.7,1-2.7c0.3-1,0.5-2.3,0.6-3.9c0.1-1.7,0.1-3.7,0-6
			c-0.2-4.6-1-10.4-2.1-16.8l-1.7-10.3c-0.6-3.6-1.1-7.4-1.6-11.5s-0.8-8.3-1-12.9c-0.1-4.6,0-9.4,0.5-14.5c0.2-2.6,0.7-5.1,1.1-7.6
			l0.7-3.8c0.3-1.3,0.6-2.5,1-3.8c0.7-2.5,1.3-5,2.3-7.5l1.4-3.7l0.7-1.8l0.8-1.8c4.2-9.5,9.8-18.1,15.9-25.4
			c6.1-7.3,12.6-13.5,19.1-19s13-10.3,19.2-14.6c6.3-4.4,12.4-8.4,18.3-12.2c5.9-3.8,11.6-7.5,16.9-11.1c5.4-3.6,10.4-7.2,14.9-10.7
			c4.5-3.6,8.7-7.1,12.1-10.6c3.4-3.5,6.2-6.9,8.4-10.3l0.8-1.2c0.3-0.4,0.6-0.8,0.7-1.2c0.4-0.8,0.8-1.6,1.3-2.4
			c0.4-0.9,0.7-1.7,1.1-2.5c0.3-0.9,0.7-1.9,1.1-2.8c1.4-3.9,2.7-8.8,3.9-14.4c1.2-5.7,2.4-12.2,3.9-19.4s3.2-15.2,5.9-23.9
			c0.3-1.1,0.6-2.1,1-3.3l1.2-3.4c0.4-1.1,0.8-2.2,1.2-3.4l1.4-3.4l1.4-3.4l1.6-3.4c1.1-2.3,2.2-4.6,3.4-6.8l1.9-3.3
			c0.6-1.1,1.2-2.2,1.9-3.2c1.3-2.1,2.7-4.2,4.1-6.3c1.4-2,2.9-4,4.4-6s3.1-3.8,4.6-5.7c12.6-14.8,27.4-26.7,42.9-36
			c7.8-4.7,15.7-8.8,23.9-12.3c8.3-3.6,16.2-6.5,24.3-9c16.1-5.1,32-8.3,47.2-10.8s29.7-4.2,43.5-5.8L2603.2-62z"/>
	</g>
	<g>
		<path class="st1" d="M2505-169.4c2.2,14.2,4.3,28.3,6,42.7c0.9,7.1,1.6,14.4,2.4,21.6c0.4,3.6,0.6,7.2,1,10.9
			c0.3,3.6,0.7,7.2,0.9,10.9c0.4,7.3,1,14.6,1.2,21.9c0.1,3.7,0.3,7.3,0.4,11l0.1,11.1c0.1,3.7,0,7.4-0.1,11.1s-0.1,7.4-0.2,11.1
			L2516.1-6l-0.3,5.6l-0.4,5.6l-0.9,11.1l-1.3,11.2l-0.7,5.6c-0.3,1.9-0.6,3.7-0.8,5.6l-1.7,11.1c-0.7,3.7-1.4,7.4-2.2,11.1
			l-1.1,5.5c-0.3,1.8-0.9,3.7-1.3,5.5l-2.7,11c-0.4,1.8-1,3.7-1.5,5.5l-1.6,5.5c-1.1,3.6-2,7.3-3.3,10.9c-0.6,1.8-1.2,3.7-1.8,5.5
			l-2,5.4c-0.6,1.8-1.3,3.6-2,5.4l-2.1,5.4l-2.2,5.3c-0.7,1.8-1.5,3.5-2.3,5.3c-6.3,14-13.5,27.5-21.7,40.4c-4,6.5-8.4,12.8-12.9,19
			c-4.6,6.1-9.3,12.2-14.4,18c-10,11.7-21,22.5-32.9,32.4c-1.5,1.3-3,2.5-4.5,3.7s-3,2.4-4.6,3.6c-3.1,2.3-6.2,4.7-9.4,6.8l-4.8,3.3
			l-4.9,3.1l-2.5,1.5l-2.5,1.5l-5.1,2.9l-5.2,2.7l-2.6,1.4l-2.6,1.3l-5.3,2.5l-5.4,2.3l-2.7,1.2l-2.7,1.1l-5.5,2.1
			c-1.8,0.7-3.7,1.3-5.6,1.9c-1.9,0.6-3.7,1.3-5.6,1.8l-5.6,1.7c-1.9,0.5-3.8,1-5.7,1.5s-3.8,1-5.7,1.3c-1.9,0.4-3.8,0.8-5.7,1.2
			c-7.5,1.4-14.9,2.5-22.1,3.4c-14.4,1.8-28.3,2.9-41.4,4.5c-13.1,1.6-25.6,3.7-36.9,7.3c-5.7,1.8-11,4-16,6.5
			c-2.5,1.3-4.9,2.7-7.3,4.2l-3.4,2.4l-1.7,1.2c-0.6,0.4-1.1,0.9-1.6,1.3l-3.3,2.7c-1,1-2,2-3.1,3l-1.5,1.5c-0.5,0.5-1,1.1-1.4,1.6
			l-2.9,3.2l-2.7,3.5l-1.4,1.7l-1.3,1.8l-2.5,3.7l-2.4,3.9l-1.2,2l-1.1,2l-2.2,4.1l-2.1,4.3l-1,2.1l-1,2.2l-1.9,4.4l-1.8,4.5
			c-1.2,3-2.3,6.1-3.5,9.2c-8.9,25-15.3,52.2-24.7,79.4c-4.8,13.6-10.4,27.3-17.7,40.4l-2.9,4.9l-1.4,2.4l-1.6,2.4l-3.1,4.7
			l-3.4,4.6l-1.7,2.3l-1.9,2.2l-3.7,4.4c-1.3,1.4-2.7,2.8-4,4.1l-2,2.1c-0.7,0.7-1.4,1.3-2.1,2c-11.3,10.4-24.3,18.6-37.7,24.8
			c-13.5,6.2-27.3,10.6-41.1,14.1c-27.6,7.1-55.1,11.1-81.4,18.1l-4.9,1.3l-4.9,1.4c-3.2,1-6.4,2.1-9.6,3.2l-4.8,1.6
			c-1.6,0.6-3.1,1.3-4.7,1.9c-3.1,1.3-6.3,2.5-9.4,3.8l-9.2,4.4l-2.3,1.1c-0.8,0.4-1.5,0.7-2.3,1.2l-4.5,2.5l-4.5,2.5
			c-1.5,0.8-3,1.6-4.4,2.5l-8.7,5.4c-11.3,7.6-22.4,15.7-32.5,25l-3.9,3.4c-1.3,1.2-2.4,2.4-3.7,3.6l-7.3,7.2l-6.9,7.6
			c-1.1,1.3-2.4,2.5-3.4,3.9l-3.2,4c-8.9,10.6-16.6,22.1-23.6,33.9l-5.1,9.1c-0.9,1.5-1.6,3.1-2.3,4.6l-2.3,4.7l-2.3,4.7
			c-0.7,1.6-1.4,3.2-2,4.8l-4,9.6l3.4-9.8c0.6-1.6,1.1-3.3,1.8-4.9l2-4.8l2-4.8c0.7-1.6,1.3-3.2,2.1-4.8l4.6-9.4
			c6.4-12.4,13.5-24.5,21.9-35.7l3.1-4.3c1-1.4,2.2-2.7,3.3-4.1l6.6-8.2l7-7.8c1.2-1.3,2.3-2.6,3.6-3.9l3.7-3.7
			c9.8-10.1,20.7-19.2,32-27.7l8.7-6.1c1.4-1.1,2.9-2,4.4-2.9l4.5-2.8l4.5-2.8c0.7-0.5,1.5-0.9,2.3-1.3l2.3-1.3l9.3-5.1
			c3.2-1.6,6.4-3.1,9.6-4.6c1.6-0.8,3.2-1.5,4.8-2.3l5-2c3.3-1.3,6.6-2.7,9.9-4l5-1.8l5-1.7c26.9-8.8,54.4-14.5,80.1-22.8
			c12.9-4.2,25.4-9,36.8-15.1c11.5-6.1,21.8-13.6,30.4-22.6c0.5-0.6,1.1-1.1,1.6-1.7l1.5-1.8c1-1.2,2-2.3,3-3.5l2.8-3.7l1.4-1.9
			l1.3-2l2.6-3.9l2.4-4.1l1.2-2l1.1-2.1l2.2-4.2c5.5-11.5,9.8-23.9,13.5-36.8c7.3-25.8,12.1-53.1,20.1-81.1c1.1-3.5,2.1-7,3.3-10.5
			l1.8-5.3l2-5.3l1-2.6l1.1-2.6l2.2-5.3l2.4-5.2l1.2-2.6l1.4-2.6l2.8-5.2l3.1-5.1l1.5-2.5l1.7-2.5l3.4-4.9l3.8-4.8
			c0.6-0.8,1.3-1.6,1.9-2.4l2.1-2.3c1.4-1.5,2.8-3,4.2-4.5l4.5-4.2c0.8-0.7,1.5-1.4,2.3-2.1l2.4-2l4.8-3.9c3.4-2.4,6.8-4.8,10.4-6.9
			c7.1-4.2,14.5-7.7,21.9-10.6c14.9-5.7,29.8-9,44.1-11.6s28.1-4.5,41.1-6.9c6.5-1.2,12.8-2.5,18.9-4c1.5-0.4,3-0.8,4.5-1.2
			s2.9-0.9,4.4-1.3c1.4-0.5,2.9-0.9,4.3-1.4l4.3-1.5c1.4-0.5,2.8-1.1,4.2-1.6l4.2-1.7l4.1-1.9l2.1-0.9l2-1l4.1-2.1l4-2.2l2-1.1
			l2-1.2l3.9-2.4l3.8-2.5l1.9-1.3l1.9-1.3l3.7-2.7l3.6-2.8c2.5-1.8,4.8-3.9,7.1-5.8c1.2-1,2.3-2,3.5-3.1c1.1-1,2.3-2,3.4-3.1
			c9-8.4,17.3-17.6,24.8-27.6c3.8-4.9,7.3-10.1,10.8-15.2c3.3-5.3,6.6-10.6,9.6-16.1c6.1-10.9,11.3-22.3,15.7-34
			c0.6-1.4,1.1-2.9,1.6-4.4l1.6-4.4l1.4-4.4c0.5-1.5,1-3,1.4-4.5l1.3-4.5l1.2-4.5c0.8-3,1.5-6.1,2.2-9.2l1.1-4.6
			c0.3-1.5,0.7-3.1,1-4.6l1.7-9.4c0.3-1.6,0.6-3.1,0.8-4.7l0.6-4.7c0.4-3.2,0.9-6.3,1.3-9.4l0.9-9.5c0.1-1.6,0.3-3.2,0.4-4.8
			l0.3-4.8l0.6-9.6l0.2-9.7l0.1-4.8v-4.9l-0.1-9.7c-0.1-3.2-0.3-6.5-0.4-9.7c-0.1-3.2-0.2-6.5-0.5-9.7l-0.7-9.8
			c-0.2-3.3-0.6-6.5-0.9-9.8c-0.6-6.5-1.4-13.1-2.2-19.6c-3.4-26.2-8.4-52.4-14.1-78.8L2505-169.4z"/>
	</g>
	<g>
		<path class="st4" d="M2626-82.5c3.5,9.5,5.9,19.7,6.8,29.7c0.9,10,0.5,19.8-1,28.9c-1.4,9-3.8,17.3-6.7,24.9
			c-2.9,7.5-6.3,14.3-10,20.5c-7.4,12.3-15.9,22.3-24.9,31.1c-4.5,4.4-9.2,8.4-14.1,12.2c-2.5,1.9-5,3.7-7.5,5.5
			c-1.3,0.9-2.6,1.7-3.9,2.6c-0.7,0.5-1.2,0.8-1.8,1.1l-1.7,1c-9,5.4-17.5,9.6-25.1,13.1s-14.4,6.4-20.3,9c-5.9,2.6-10.9,4.9-15,7
			c-1.1,0.5-1.9,1-2.9,1.5s-1.7,1-2.6,1.4c-0.9,0.5-1.5,0.9-2.3,1.4l-0.6,0.3l-0.5,0.4l-1,0.7l-1.1,0.7c-0.4,0.2-0.7,0.6-1,0.8
			c-0.7,0.6-1.4,1.1-2,1.7c-0.6,0.7-1.3,1.3-2,2c-0.4,0.3-0.7,0.7-1,1.1l-1,1.1c-2.6,3.1-5.2,6.8-7.4,11.1
			c-2.2,4.3-4.4,9.1-6.1,14.5c-1.7,5.3-3.3,10.9-4.4,16.9c-1.2,6-2.1,12.1-2.7,18.5c-0.1,0.8-0.2,1.6-0.2,2.4l-0.2,2.5
			c-0.1,1.7-0.3,3.3-0.4,5.1l-0.3,5.2l-0.2,5.3c-0.5,14.2-0.5,29.3-0.8,45.2s-1.1,32.5-3.5,49.5c-1.2,8.5-2.9,17.1-5,25.6
			c-2.2,8.4-4.7,16.7-7.8,24.7c-12.1,32.1-30.9,60.6-54.3,83.7c-11.7,11.6-24.6,21.8-38.3,30.3c-1.7,1.1-3.4,2.2-5.1,3.2
			c-1.7,1-3.5,2-5.2,2.9c-3.5,1.9-6.9,3.7-10.4,5.5c-6.9,3.5-13.6,6.8-20.1,10.2c-6.5,3.4-12.9,7-18.8,11c-3,2-5.8,4.1-8.6,6.4
			c-2.7,2.3-5.4,4.7-7.9,7.3c-2.4,2.6-4.8,5.3-6.9,8.3c-1.1,1.4-2,3-3,4.5l-1.4,2.4l-0.7,1.2l-0.6,1.2c-1.7,3.2-2.9,6.7-4,10.3
			c-1,3.6-1.5,7.3-1.8,11.1c-0.5-3.7-0.8-7.6-0.5-11.4c0.3-3.8,0.9-7.7,1.9-11.5l0.4-1.4l0.4-1.4l0.9-2.8c0.7-1.8,1.4-3.7,2.2-5.5
			c1.6-3.6,3.5-7.1,5.6-10.5s4.4-6.6,6.9-9.7s5.2-6.1,8-8.9c5.6-5.7,11.5-10.8,17.5-15.8c12-9.8,24.3-18.6,34.3-28.4
			c10.2-9.7,19.2-20.5,26.9-32c15.3-23,25.3-48.9,29.4-74.9c1-6.5,1.7-13,1.9-19.4c0.2-6.5,0.2-12.8-0.2-19.3
			c-0.9-13.1-2.9-26.6-5.5-40.7c-2.6-14.2-5.7-29-8.3-44.9l-1-6l-0.9-6.1c-0.3-2-0.6-4.1-0.8-6.2l-0.4-3.1c-0.1-1-0.2-2.2-0.3-3.2
			c-1-8.7-1.5-17.5-1.6-26.6c-0.2-9.1,0.3-18.4,1.2-27.9s2.7-19.3,5.2-29.3c2.5-9.9,6.1-20.1,10.8-30.2l1.8-3.8
			c0.6-1.3,1.2-2.5,1.9-3.7c1.4-2.5,2.8-5,4.2-7.4c1.5-2.5,3.2-4.9,4.8-7.3c0.8-1.2,1.6-2.4,2.5-3.6l2.7-3.5l2.8-3.5l1.4-1.7
			l1.5-1.6c1.9-2.2,3.9-4.4,5.9-6.4s4-4.1,6-5.9s4.1-3.8,6-5.4c8-6.9,15.8-12.6,22.8-17.7c7.1-5,13.4-9.4,18.9-13.5
			c5.4-4,9.9-7.7,13.2-10.9l0.6-0.6c0.2-0.2,0.4-0.4,0.5-0.5c0.2-0.3,0.4-0.5,0.6-0.8c0.4-0.6,0.8-1.1,1.2-1.7
			c0.8-1.2,1.5-2.4,2-3.6c1.1-2.3,1.7-4.6,1.3-5.6c-0.2-0.5-0.6-0.6-1.1-0.3c-0.5,0.4-1.2,1.3-1.8,2.9c-0.6,1.6-1,3.8-1.1,6.3
			s0.3,5.4,1,7.9L2626-82.5z"/>
	</g>
	<g>
		<path class="st1" d="M2309.5-250.3c-0.6-0.3-1.2-0.6-1.9-0.8s-1.7-0.2-3.1,0c-2.7,0.4-6.8,2.3-11.1,5.6s-8.8,7.8-12.9,13.1
			c-2,2.6-3.9,5.5-5.7,8.4c-0.9,1.5-1.7,2.9-2.5,4.4c-0.4,0.7-0.8,1.5-1.1,2.3c-0.2,0.3-0.4,0.8-0.6,1.3l-0.6,1.4
			c-3.3,7.4-6.4,15.7-9.4,24.7s-6.1,18.8-9.5,29.1c-3.5,10.3-7.4,21.2-12.4,32.3c-1.2,2.8-2.6,5.6-4,8.3c-1.3,2.8-2.9,5.6-4.5,8.4
			c-3.1,5.6-6.7,11.1-10.5,16.3l-2.9,4c-1,1.3-2,2.5-3.1,3.8l-3.1,3.7l-1.6,1.8c-0.5,0.6-1,1.2-1.6,1.8l-6.7,6.9
			c-1.1,1.2-2.3,2.2-3.4,3.3l-3.5,3.2c-9.4,8.3-19.4,15.6-29.7,21.6c-10.3,6.1-20.8,11.4-31.4,15.7c-10.6,4.4-21.3,8.1-32,11.1
			s-21.4,5.7-32.1,7.6c-10.6,2-21.1,3.7-31.4,5.1c-20.7,2.8-40.8,4.8-60.3,7.4c-19.5,2.5-38.5,5.6-56.7,10.2
			c-9.1,2.4-17.9,5.2-26.7,8.4c-8.7,3.3-17.3,7.1-25.7,11.4c-33.5,17.1-63.8,41.9-87.8,72.2c-12,15.1-22.4,31.6-30.9,49.2
			c-1.1,2.2-2.1,4.4-3.2,6.6c-1,2.2-2,4.5-2.9,6.8c-1.9,4.5-3.7,9.2-5.5,13.9c-3.6,9.4-7.1,18.9-10.9,28.4c-1.9,4.8-3.9,9.5-6,14.2
			c-1,2.4-2.2,4.7-3.3,7c-1.2,2.3-2.3,4.6-3.6,6.9c-2.4,4.6-5.2,9-8,13.4c-1.5,2.1-2.9,4.3-4.6,6.3c-1.5,2.1-3.2,4.1-4.9,6.1
			c-3.4,3.9-7,7.7-10.9,11.1c-1.9,1.8-4,3.3-6,4.9l-3.1,2.2l-1.6,1.1l-1.6,1c-4.3,2.8-9,5.1-13.7,7l-3.6,1.3
			c-1.2,0.4-2.4,0.7-3.7,1.1l-1.8,0.5c-0.6,0.2-1.2,0.3-1.9,0.4l-3.7,0.7l3.6-1.1c0.6-0.2,1.2-0.3,1.8-0.6l1.8-0.7
			c1.2-0.5,2.4-0.9,3.5-1.4l3.4-1.6c4.4-2.3,8.7-5,12.5-8.1l1.5-1.1l1.4-1.2l2.8-2.5c1.7-1.8,3.6-3.4,5.2-5.3
			c3.4-3.6,6.4-7.5,9.2-11.6c11.3-16.2,17.9-34.9,23.4-54.1c2.7-9.6,5.2-19.4,7.8-29.2c1.3-4.9,2.7-9.9,4.2-14.8
			c0.7-2.5,1.5-5,2.3-7.4c0.8-2.5,1.8-4.9,2.6-7.4c7.1-19.7,16.4-38.7,27.8-56.5c22.7-35.6,53.2-66.7,89.4-90.3
			c9-5.9,18.5-11.3,28.2-16.2s19.8-9.3,29.9-13c20.3-7.5,40.9-13,61-17.8c20.2-4.8,40-8.9,59-13.5c9.5-2.3,18.8-4.8,27.8-7.5
			c8.9-2.7,17.6-5.8,26-9.2c8.4-3.3,16.5-7.2,24.1-11.4c7.7-4.1,14.8-8.8,21.4-13.7c6.7-4.9,12.5-10.3,17.7-16l1.9-2.1
			c0.6-0.7,1.3-1.4,1.8-2.2c1.1-1.5,2.3-3,3.4-4.4c0.3-0.4,0.6-0.7,0.8-1.1l0.8-1.2l1.5-2.3c0.5-0.8,1.1-1.5,1.5-2.3l1.3-2.4
			c1.8-3.1,3.4-6.3,4.8-9.7c0.7-1.8,1.5-3.4,2.1-5.3c0.7-1.8,1.4-3.6,2-5.6c2.5-7.6,4.6-16.1,6.7-25.2l6.3-29.3
			c2.3-10.4,5-21.5,8.8-33l0.7-2.2c0.2-0.7,0.5-1.4,0.8-2.2c0.6-1.6,1.1-3.2,1.7-4.7c1.2-3.1,2.5-6.2,3.9-9.3
			c2.7-6.1,5.8-12.1,9.3-17.9c6.9-11.7,15.2-22.9,25.7-33.3c5.3-5.2,11.1-10.2,17.7-14.8c6.6-4.6,13.8-8.8,21.9-12.2
			c8-3.4,16.9-6.1,26.2-7.5c9.3-1.5,18.9-1.7,28.3-0.6L2309.5-250.3z"/>
	</g>
	<g>
		<path class="st4" d="M2480.5-215.5c1.5,4.4,2.9,8.9,4.2,13.4c1,4.5,2.1,9,2.8,13.5c0.3,2.2,0.6,4.5,0.9,6.7l0.4,3.4
			c0.1,1.1,0.2,2.2,0.3,3.3c0.1,2.2,0.2,4.4,0.3,6.6c0,2.2,0.2,4.4,0.1,6.6c-0.3,17.4-3.5,33.6-8.4,48.4s-11.6,28.3-19.5,40.6
			c-2,3.1-4,6.1-6.2,9s-4.3,5.9-6.7,8.6c-2.3,2.8-4.6,5.6-7.2,8.2l-3.8,4c-0.6,0.7-1.3,1.3-1.9,1.9l-1.9,1.8
			C2424-30.1,2413.5-22,2403-15c-10.6,6.9-21.2,12.7-31.6,17.7c-20.9,10-41.1,16.9-59.9,22.9c-18.7,5.9-36.1,10.9-51.8,16.5
			c-7.9,2.8-15.3,5.7-22.3,8.8l-5.2,2.4l-5,2.5l-4.8,2.6l-4.7,2.9c-12.5,7.7-24.4,17.4-35.5,29c-11.1,11.5-21.4,25-31,39.5
			s-18.7,30.1-27.5,46.3s-17.4,33-26.2,49.9s-17.9,34.1-27.9,51c-9.9,16.9-20.7,33.6-32.9,49.4c-1.5,2-3.1,3.9-4.7,5.9l-4.7,5.8
			c-3.3,3.8-6.7,7.5-10,11.2c-3.6,3.6-7,7.2-10.6,10.7l-5.6,5.1l-2.8,2.5c-0.5,0.4-0.9,0.8-1.4,1.2l-1.5,1.2l-5.9,4.7l-2.9,2.4
			c-1,0.8-2,1.5-3,2.2l-6.1,4.3c-1,0.7-2,1.5-3.1,2.1l-3.1,2c-8.4,5.3-16.8,10-25.2,14.6c-16.8,9.1-33.4,17.4-48.5,28.1
			c-3.8,2.6-7.4,5.5-10.9,8.5s-6.8,6.2-9.9,9.6s-6,7.1-8.6,11c-2.5,3.9-4.8,8-6.7,12.4c1.2-4.6,2.8-9.1,4.7-13.5
			c1.9-4.4,4.3-8.6,6.9-12.7s5.5-8,8.7-11.7c3.1-3.7,6.5-7.3,9.9-10.7c13.9-13.6,29.6-24.9,44.4-36.4c7.4-5.7,14.7-11.5,21.4-17.5
			l2.5-2.3c0.8-0.8,1.6-1.6,2.4-2.4l4.8-4.7c0.8-0.8,1.6-1.5,2.3-2.4l2.2-2.5l4.4-5l1.1-1.2c0.4-0.4,0.7-0.9,1-1.3l2.1-2.6l4.1-5.2
			c2.7-3.6,5.2-7.2,7.8-10.8c2.4-3.8,4.8-7.5,7.2-11.3l3.3-5.8c1.1-1.9,2.3-3.8,3.3-5.8c8.5-15.7,15.8-32.3,22.4-49.3
			s12.5-34.5,18.4-52.3s11.7-35.9,18.1-54.3c6.4-18.3,13.4-36.9,21.8-55.6c8.4-18.6,18.2-37.3,30.5-55.4s27.1-35.5,44.5-50.7
			l6.6-5.7l6.9-5.4l6.9-5.1c2.3-1.6,4.7-3.3,7-4.8c9.4-6.3,18.8-11.9,28.1-17c18.6-10.2,36.5-18.7,52.8-26.9
			c8.1-4.1,15.7-8.1,22.9-12.2s13.8-8.3,19.8-12.5c6-4.3,11.4-8.6,15.9-13c4.6-4.4,8.3-8.7,11.4-13.1c0.9-1.1,1.3-2.1,1.9-3
			c0.6-0.9,1-1.9,1.6-2.9c0.6-0.9,0.9-2,1.4-3s0.8-2,1.2-3c1.4-4,2.3-8,2.4-11.4c0.2-3.4-0.4-6.1-1.2-7.6s-1.8-1.8-2.5-1.6
			L2480.5-215.5z"/>
	</g>
	<g>
		<path class="st2" d="M2301.8-258.2c-52.2,15.6-101.9,44.8-143.2,84.2c-20.7,19.7-39.3,41.8-55.1,66c-7.9,12.1-15.2,24.7-21.6,37.7
			c-1.6,3.3-3.2,6.5-4.7,9.9c-1.5,3.3-3,6.6-4.4,10c-2.9,6.7-5.5,13.6-8.2,20.9C2059.3-15.1,2054,0.4,2047,16
			c-6.9,15.5-15.8,31.4-27.8,45.1c-6,6.9-12.6,13-19.5,18.4s-14,10.2-21.3,14.4c-14.5,8.5-29.4,15.2-44,21.3s-29,11.8-42.8,18.4
			c-13.7,6.6-26.9,14-38.6,23.5c-11.6,9.3-21.6,21-28.6,34.5c-3.5,6.7-6.2,14-7.7,21.5c-1.6,7.5-2,15.4-0.9,23.2
			c-2.1-7.6-2.8-15.6-2.2-23.6c0.6-8,2.3-15.9,5-23.6c5.5-15.3,14.5-29.3,25.8-41.3c11.3-11.9,24.4-21.9,37.9-30.7
			s27.4-16.6,40.8-24.5c13.3-7.8,26.2-15.9,37.7-24.9c11.4-9,21.4-18.9,28.6-29.9s12.4-23.6,16.3-37.4c4-13.8,7-28.5,10.5-44.1
			c1.7-7.8,3.6-15.8,5.8-24c1-4.1,2.3-8.1,3.5-12.1s2.5-8,3.9-12c5.4-15.9,11.8-31.6,19-46.9c14.5-30.6,32.8-59.5,54.2-86.2
			s46-51.2,73.3-72.7s57.4-40.1,89.8-54.8L2301.8-258.2z"/>
	</g>
	<g>
		<path class="st3" d="M2531.9-45.8C2479.7-30.2,2430-1,2388.7,38.3c-20.7,19.7-39.3,41.8-55.1,66c-7.9,12.1-15.2,24.7-21.6,37.7
			c-1.6,3.3-3.2,6.5-4.7,9.9c-1.5,3.3-3,6.6-4.4,10c-2.9,6.7-5.5,13.6-8.2,20.9c-5.3,14.4-10.6,29.9-17.6,45.5
			c-6.9,15.5-15.8,31.4-27.8,45.1c-6,6.9-12.6,13-19.5,18.4s-14,10.2-21.3,14.4c-14.5,8.5-29.4,15.2-44,21.3
			c-14.6,6.1-29,11.8-42.8,18.4c-13.7,6.6-26.9,14-38.6,23.5c-11.6,9.3-21.6,21-28.6,34.5c-3.5,6.7-6.2,14-7.7,21.5
			c-1.6,7.5-2,15.4-0.9,23.2c-2.1-7.6-2.8-15.6-2.2-23.6c0.6-8,2.3-15.9,5-23.6c5.5-15.3,14.5-29.3,25.8-41.3
			c11.3-11.9,24.4-21.9,37.9-30.7c13.5-8.8,27.4-16.6,40.8-24.5c13.3-7.8,26.2-15.9,37.7-24.9c11.4-9,21.4-18.9,28.6-29.9
			c7.2-11,12.4-23.6,16.3-37.4c4-13.8,7-28.5,10.5-44.1c1.7-7.8,3.6-15.8,5.8-24c1-4.1,2.3-8.1,3.5-12.1s2.5-8,3.9-12
			c5.4-15.9,11.8-31.6,19-46.9c14.5-30.6,32.8-59.5,54.2-86.2s46-51.2,73.3-72.7s57.4-40.1,89.8-54.8L2531.9-45.8z"/>
	</g>
	<g>
		<path class="st1" d="M2460-130.1c-29.9,9.6-58.8,24.9-84.7,45c-25.8,20.1-48.6,44.9-66.8,72.9l-3.3,5.3l-1.7,2.7l-1.6,2.7
			l-3.2,5.4l-3,5.5c-0.5,0.9-1,1.8-1.5,2.8l-1.4,2.8c-0.9,1.9-1.9,3.7-2.8,5.6c-1.7,3.8-3.6,7.6-5.2,11.5
			c-3.4,7.7-6.2,15.6-8.8,23.6l-1.9,6c-0.6,2-1.1,4-1.7,6.1c-1.2,4-2.2,8.2-3.2,12.5c-4,17.2-7.1,35.7-11.1,54.9
			c-2.1,9.6-4.3,19.4-7.1,29.4c-1.4,5-3,10-4.7,15c-1.8,5-3.6,10-5.9,15c-1,2.5-2.3,5-3.4,7.4l-1.9,3.7l-0.9,1.8l-1,1.8
			c-2.6,4.9-5.7,9.6-8.9,14.2c-6.6,9.2-14.2,17.8-22.9,25c-8.6,7.3-17.8,13.2-27.1,18.1c-9.3,5-18.6,9-27.8,12.6s-18.3,6.7-27.1,9.8
			c-4.4,1.6-8.8,3.1-13,4.7s-8.4,3.2-12.5,4.9c-16.3,6.9-31.7,15.2-43.8,26.5c-6.1,5.6-11.2,12-15,19.1c-3.9,7-6.4,15.3-8.5,24.1
			c-2.1,8.8-3.8,18.1-6.1,27.6c-1.2,4.7-2.5,9.5-4.2,14.3s-3.8,9.5-6.5,14s-6.1,8.7-10,12.2s-8.5,6.4-13.2,8.4
			c-9.3,4.1-18.7,5.8-27.2,8.8c-1.1,0.4-2.1,0.8-3.2,1.2c-1.1,0.4-2.1,0.9-3.1,1.3s-2,1-3,1.5c-0.9,0.5-1.8,1.1-2.7,1.7
			c-3.4,2.6-6.3,6.1-8.4,10.1c-2,4-3.3,8.5-3,13c0.1,1.1,0.3,2.2,0.6,3.3c0.3,1.1,0.8,2.1,1.4,3.1c1.1,2,2.9,3.6,4.9,4.8
			c-2.1-1-4.1-2.4-5.6-4.4c-0.7-1-1.3-2-1.8-3.2c-0.4-1.1-0.8-2.3-1-3.5c-0.9-4.8-0.1-9.9,1.7-14.5c1.7-4.6,4.5-8.9,8.2-12.4
			c0.9-0.9,1.9-1.7,3-2.4c1-0.7,2-1.4,3.1-2s2.1-1.3,3.2-1.8c1.1-0.6,2.2-1.1,3.3-1.7c8.8-4.2,17.9-7,25.4-11.4
			c3.7-2.2,7-4.8,9.7-7.9s4.9-6.6,6.7-10.4c3.5-7.6,5.1-16.3,6.3-25.2c1.1-9,1.8-18.4,3-28.1c0.6-4.8,1.4-9.8,2.5-14.8
			c0.6-2.5,1.2-5,2-7.6c0.7-2.6,1.7-5,2.7-7.6c4-10,9.8-19.2,16.7-27.2c6.9-8,14.7-15,22.9-21.2c8.2-6.2,16.8-11.5,25.4-16.4
			c4.3-2.4,8.7-4.7,13.1-6.9c4.4-2.2,8.7-4.3,12.9-6.3c8.5-4.1,16.9-8.1,24.8-12.3c15.9-8.3,30.1-17.5,40.5-28.6
			c5.2-5.5,9.5-11.6,13.1-18.2c1.8-3.4,3.5-6.7,4.9-10.3l0.6-1.3l0.5-1.4l1-2.7c0.6-1.9,1.3-3.7,1.8-5.6c4.7-15.2,7-32.2,8.8-50.1
			c1.7-17.9,2.7-36.8,5-56.7c0.6-5,1.2-10,2.1-15.2c0.4-2.6,0.8-5.2,1.3-7.7l1.5-7.7c2.1-10.2,4.6-20.4,7.6-30.3
			c1.4-5,3.1-9.9,4.8-14.9c0.9-2.5,1.8-4.9,2.7-7.4l1.4-3.7c0.5-1.2,1-2.4,1.4-3.6l2.9-7.3l3.2-7.2l1.6-3.6l1.7-3.5
			c1.1-2.4,2.2-4.7,3.4-7.1c18.7-37.5,43.8-72,74.2-101.9c30.4-29.8,66.3-54.8,106.4-72.9L2460-130.1z"/>
	</g>
	<g>
		<path class="st2" d="M2581.1-110c2.3,5.7,3.2,11.1,3.5,15.7c0.3,4.7-0.1,8.7-0.6,12.3c-1.2,7.1-3,12.6-5,17.5s-4.2,9.1-6.4,13.2
			c-2.2,4-4.5,7.7-6.9,11.2c-4.7,7.1-9.6,13.5-14.7,19.7c-5.1,6.2-10.3,12.1-15.7,17.8s-11,11.2-17.1,16.7c-3,2.7-6.2,5.4-9.6,8.2
			c-1.8,1.4-3.6,2.8-5.7,4.3l-0.8,0.6l-0.7,0.5l-1.4,0.9c-0.9,0.6-1.8,1.1-2.7,1.7c-7.2,4.4-14.2,8.1-20.8,11.4
			c-6.6,3.3-12.8,6.3-18.4,9.4c-5.6,3-10.7,6-15,9.2c-2.2,1.6-4.2,3.2-6,4.9c-1.9,1.7-3.7,3.6-5.3,5.6c-6.8,7.9-12,18.2-15.6,29.8
			s-5.6,24.3-6.5,37.4c-0.2,3.3-0.4,6.5-0.4,9.9c-0.1,3.4-0.1,6.8-0.1,10.2c0.1,6.9,0.3,13.9,0.5,21c0.5,14.2,1.2,28.9,0.9,44
			c-0.2,7.5-0.6,15.1-1.4,22.8c-0.8,7.6-2.1,15.3-3.8,22.9c-6.9,30.1-20.8,57.9-39.9,81.2c-9.5,11.6-20.3,22.1-32.2,31.1
			c-5.9,4.5-12.1,8.6-18.4,12.4c-6.3,3.7-12.6,7.2-18.8,10.7s-12.2,7.1-18,11.2c-2.9,2-5.7,4.1-8.3,6.4s-5.2,4.7-7.5,7.2
			c-4.7,5.1-8.8,10.9-11.8,17.3s-4.8,13.4-4.8,20.6c-0.8-7.1,0.3-14.5,2.7-21.4s6.1-13.4,10.4-19.3c2.2-3,4.6-5.8,7.1-8.5
			c2.6-2.7,5.2-5.2,8-7.6c5.5-4.8,11.4-9.2,17.3-13.4c5.9-4.2,11.8-8.3,17.4-12.5c5.7-4.2,11-8.6,16-13.3
			c10.1-9.4,18.9-20.1,26.4-31.5c15-22.8,24.6-48.9,27.8-75.3c0.8-6.6,1.1-13.2,1.2-19.8c0-6.7-0.3-13.4-0.9-20.2
			c-1.1-13.6-3.2-27.5-5.2-41.8s-4-29-4.7-44.6c-0.6-15.5,0-31.5,3.3-47.8c1.6-8.1,3.9-16.3,7-24.5c1.6-4.1,3.4-8.1,5.4-12.1
			c2.1-4,4.4-7.9,6.9-11.7c5-7.6,11.4-14.8,18-20.8c6.6-6.1,13.5-11.1,20-15.6c6.6-4.5,12.9-8.4,18.8-12.2c5.9-3.8,11.2-7.4,15.9-11
			l1.7-1.3l1.5-1.2c0.8-0.6,1.7-1.5,2.7-2.4c2-1.8,4.2-4,6.3-6.2c4.3-4.5,8.6-9.3,12.8-14.3c8.2-9.9,16-20.5,21.8-30.7
			c1.4-2.5,2.8-5,3.9-7.4c1.1-2.3,2-4.6,2.6-6.4s0.8-3.2,0.6-3.2c-0.1,0-0.2,0.5-0.2,1.6s0.2,2.9,1.1,5.3L2581.1-110z"/>
	</g>
</g>
</svg>
