<?xml version="1.0" encoding="utf-8"?>
<!-- Generator: Adobe Illustrator 22.0.0, SVG Export Plug-In . SVG Version: 6.00 Build 0)  -->
<svg version="1.1" id="Layer_1" xmlns="http://www.w3.org/2000/svg" xmlns:xlink="http://www.w3.org/1999/xlink" x="0px" y="0px"
	 viewBox="0 0 2244.9 1362.3" style="enable-background:new 0 0 2244.9 1362.3;" xml:space="preserve">
<style type="text/css">
	.st0{opacity:0.46;}
	.st1{fill:#824737;}
	.st2{fill:#B55232;}
	.st3{fill:#ED7C31;}
	.st4{fill:#F09B36;}
</style>
<g>
	<g class="st0">
		<path class="st1" d="M3240-106.3c-7.8,47.8-20.4,96.9-39.6,145.8c-19.2,48.9-44.9,97.7-78.1,143.5c-16.6,22.9-35,45-55.2,66
			c-10.1,10.5-20.6,20.6-31.6,30.4c-10.9,9.8-22.3,19.2-34.1,28.1c-23.5,18-48.5,34.2-74.5,48.3c-13,7-26.3,13.6-39.7,19.5
			c-13.5,5.9-27.1,11.3-40.8,16.2c-13.7,4.8-27.6,9.1-41.5,12.7c-13.9,3.7-27.8,6.7-41.6,9.3c-13.8,2.5-27.6,4.5-41.3,5.9
			s-27.2,2.3-40.6,2.7c-13.4,0.4-26.6,0.3-39.6-0.3c-6.4-0.3-12.9-0.6-19.3-1.2l-4.8-0.4c-1.6-0.1-3.3-0.3-4.7-0.4l-8.7-1
			c-23.2-2.7-44.4-6.7-63.8-11.4c-19.4-4.6-37.1-9.9-53.4-15.4c-16.3-5.5-31.1-11.3-44.8-17.1c-13.7-5.8-26.3-11.7-38.1-17.4
			c-11.8-5.8-22.7-11.5-32.8-17s-19.6-10.9-28.4-16.1c-8.8-5.2-17-10.1-24.5-14.8c-7.5-4.7-14.5-9.1-20.8-13.3l-4.6-3.1l-4.4-3
			l-4.1-2.8c-1.2-0.9-2.2-1.7-3.2-2.5c-8.2-6.6-14.8-12.2-17.3-16.9c-1.3-2.4-1.4-4.5,0-6.8c1.5-2.3,4.5-4.6,9.8-7.8
			c2.6-1.6,5.9-3.4,9.6-5.7c3.7-2.2,8.1-4.8,12.7-8c4.7-3.2,9.8-6.9,15-11.2s10.4-9.3,15.4-14.6c2.5-2.7,4.8-5.5,7.1-8.4
			c1.1-1.4,2.2-2.9,3.3-4.3l1.5-2.1c0.5-0.7,0.9-1.4,1.4-2.1c3.6-5.5,6.5-11.1,8.6-16.1c4.3-10.2,5.5-18.2,5.1-23.2
			c-0.2-2.5-0.8-4.2-1.7-5.3c-0.8-1.1-1.9-1.5-3.1-1.4c-2.4,0.3-5.1,2.8-7.9,6.9c-2.7,4.1-5.5,9.6-8.1,16.2
			c-2.6,6.6-5.1,14.2-7.6,22.5c-4.9,16.7-9.3,36.2-14,57.9s-9.7,45.5-16.2,72.1c-3.3,13.2-7,27.2-11.6,42s-10,30.5-16.9,47.1
			c-7,16.6-15.5,34.3-26.7,52.4s-25.2,36.6-42.3,53.5l-6.9,6.7c-1.4,1.3-2.7,2.6-4.2,3.9c-1.4,1.3-2.9,2.6-4.4,3.9
			c-6,5.2-12.4,10.3-19.4,15.1c-13.9,9.6-29.9,18-46.4,24s-33.3,9.5-48.7,10.9c-15.5,1.4-29.5,0.9-42-0.5
			c-12.5-1.5-23.4-3.9-33.1-6.6c-9.7-2.7-18.3-5.8-26.1-9c-15.5-6.4-28.1-13.1-39.2-19.6s-20.8-12.9-29.7-19
			c-8.9-6.1-17-11.9-24.5-17.3c-7.5-5.4-14.5-10.5-21-15.1s-12.4-8.7-17.6-12.2l-13.5-8.9c-1.9-1.2-3.4-2.3-4.9-3.3
			c-2.5-1-5.2-1.9-7.9-2.7c-5.5-1.5-11.4-2.7-17.8-3.1c-6.4-0.5-13.2-0.4-20.3,0.3c-14.2,1.4-29.6,5.3-45.2,11.2
			c-15.6,6-31.5,14-47.1,23.5c-15.6,9.5-30.9,20.5-45.8,32.6c-14.8,12.1-29.2,25.4-43,39.5c-27.6,28.2-52.9,59.8-74.8,94.6
			c6.4-40.6,17.5-81.2,32.8-121.1c7.7-19.9,16.5-39.7,26.5-59.1c10.1-19.5,21.5-38.6,34.6-57.3c13.1-18.7,27.9-36.9,45.2-54.2
			c17.3-17.2,37-33.5,59.9-47.5c11.5-7,23.8-13.4,36.9-18.9s27-10.1,41.6-13.6c7.3-1.8,14.7-3.1,22.2-4.3c8.6-1.1,17.1-1.8,25.3-2
			c16.4-0.5,31.6,0.5,45.8,2.1c14.2,1.6,27.4,3.8,39.8,6.2c12.4,2.4,24.1,4.9,35.1,7.3s21.3,4.6,30.9,6.5s18.4,3.3,26.1,4.1
			c7.6,0.7,14.1,0.7,18-0.4c1.9-0.6,3.2-1.4,3.4-2.4c0.2-1-0.7-2.2-3.1-3.4c-2.4-1.1-6.4-2.1-11.9-2.3c-5.5-0.2-12.6,0.6-19.8,2.6
			c-7.3,2-14.6,5.2-20.6,8.6c-3,1.7-5.7,3.4-8.1,5.1l-1.7,1.2l-1.6,1.2l-0.8,0.6c-0.2,0.1-0.3,0.1-0.4,0.2c-0.3,0.1-0.5,0.2-0.8,0.3
			c-4.2,1.4-7.5,2.9-9.9,2.8c-2.5,0-4.2-1.4-5.8-4.1c-1.6-2.7-2.9-6.8-4.4-11.9s-3-11.1-4.7-17.9c-3.4-13.6-7.4-30-11.7-48.5
			c-4.3-18.6-8.8-39.3-12.7-62.8c-2-11.8-3.8-24.3-5.2-37.8c-1.4-13.5-2.5-28-2.8-44c-0.3-15.9,0.2-33.3,2.2-52.6
			c1-9.7,2.5-19.8,4.5-30.6c2.1-10.7,4.7-22,8.2-33.9c7-23.7,17.4-49.7,33.1-76.5c7.8-13.3,17-26.7,27.4-39.7l4-4.8l2-2.4l2.1-2.4
			c2.8-3.2,5.7-6.4,8.7-9.6c5.9-6.3,12.1-12.4,18.5-18.2c6.4-5.9,13-11.4,19.7-16.7c6.7-5.3,13.6-10.3,20.5-15
			c13.9-9.4,28-17.5,42-24.6c14-7,27.8-12.9,41.2-17.8c13.4-4.9,26.5-9,39-12.3c25.1-6.7,48.3-10.7,69.9-13.3
			c21.5-2.6,41.5-3.8,60.2-4.3c18.8-0.5,36.4-0.2,53.2,0.6c16.8,0.7,32.8,1.9,48.2,3.4l21.8,2.2l20,2.1l36.9,4.1
			c11.7,1.3,22.7,2.5,33,3.4c10.4,1,20.1,1.7,29.1,2.2c9.1,0.5,17.4,0.7,24.9,0.6c7.5-0.1,14.3-0.6,20.1-1.4
			c11.6-1.6,19.1-5,20.2-9.4c0.5-2.2-0.6-4.6-3.7-6.9c-0.4-0.3-0.8-0.6-1.2-0.8c-0.1-0.1-0.6-0.3-0.9-0.4l-1-0.4
			c-1.3-0.5-2.8-1.1-4.2-1.6c-2.9-1-6.1-1.9-9.5-2.6c-3.4-0.8-7-1.3-10.8-1.8c-3.8-0.4-7.8-0.7-11.9-0.7c-4.1-0.1-8.4,0.1-12.8,0.4
			c-4.4,0.3-8.9,0.9-13.4,1.7c-4.5,0.8-9.1,1.7-13.7,3c-4.6,1.2-9.2,2.6-13.8,4.2c-9.1,3.2-18,7.2-26.5,11.7
			c-17,9.1-31.9,20.5-44.1,31.9c-12.2,11.5-21.9,23-29.6,33.3c-7.7,10.4-13.7,19.5-18.6,27.2c15.7-230,214.8-403.8,444.8-388.1
			C3081.9-535.4,3255.7-336.3,3240-106.3z"/>
	</g>
	<g class="st0">
		<path class="st1" d="M2639,263.8c7.8-0.5,14.6-2.6,19.8-5.2c5.3-2.8,9-6,11.8-9.7c0.7-0.8,1.3-1.9,1.8-2.7c0.3-0.4,0.5-1,0.8-1.4
			c0.2-0.4,0.5-0.9,0.7-1.4c0.9-1.8,1.5-3.9,2-5.7c0.2-1,0.5-1.9,0.6-2.9c0.1-0.5,0.2-0.9,0.2-1.4l0.1-0.8l0.1-0.7
			c0.1-0.5,0.1-1,0.1-1.5c0.1-0.5,0.1-0.9,0.1-1.4s0-1,0.1-1.5c0-0.5,0-1,0-1.5c0.1-0.9,0-2,0-2.9v-0.8c0-0.3,0-0.5,0-0.7
			c0-0.5,0-1,0-1.5c0-1.9-0.2-4.1-0.3-6.1c0-0.3-0.1-0.5-0.1-0.8v-0.8c0-0.5-0.1-1-0.2-1.6c0-0.5,0-1-0.1-1.6c0-0.3-0.1-0.6-0.1-0.8
			c0-0.3,0-0.5,0-0.8c0-0.5-0.2-1.1-0.2-1.6s-0.1-1.1-0.2-1.6c0-0.7-0.4-0.8-0.7-1.1s-0.6-0.6-1-0.9c-3-2-8.5-1.4-15.8,2.6
			s-16.3,11.2-26.6,21.3s-21.9,22.9-35,38l-20.8,24.1l-11.4,13.1l-12.3,13.8c-17.9,20.2-37.6,40.6-60.5,60.9
			c-11.5,10.1-23.7,20.2-37,30.1s-27.6,19.6-43.1,28.8c-7.7,4.6-15.9,9.1-24.2,13.4c-4.3,2.1-8.5,4.3-12.9,6.3l-6.6,3l-3.3,1.5
			l-3.4,1.5c-18.1,7.7-37.5,14.5-57.8,19.5c-10.2,2.5-20.6,4.7-31.1,6.3l-7.9,1.2l-8,0.9c-5.4,0.6-10.5,1-15.8,1.4
			c-20.9,1.4-41.5,0.6-60.9-1.7c-19.5-2.3-37.7-6.2-54.3-10.9c-4.2-1.2-8.2-2.5-12.2-3.7c-2-0.6-3.9-1.3-5.9-2
			c-1.9-0.7-3.9-1.3-5.8-2c-7.5-2.8-14.8-5.7-21.6-8.6c-13.7-6-26.1-12.3-37.4-18.6c-11.3-6.3-21.5-12.7-30.9-18.9
			c-9.4-6.2-17.9-12.2-25.8-18.1c-7.9-5.8-15.2-11.4-22-16.7c-13.5-10.6-25-19.9-34.6-27.6c-9.6-7.8-17.2-13.9-22.5-18.6
			c-2.7-2.4-4.8-4.5-6.6-6.4c-1.8-1.9-3.2-3.6-4.8-5.3c-0.4-0.4-0.8-0.8-1.2-1.2c-0.4-0.3-0.9-0.7-1.4-1.1c-0.9-0.7-2-1.5-3.1-2
			c-2.3-1.2-5.2-2.1-8.7-2.4c-7.1-0.6-16.9,1-28.3,5.6c-5.7,2.2-11.8,5-18.1,8.4c-6.3,3.4-12.9,7.3-19.7,11.5
			c-13.6,8.6-28,18.6-43.2,29.4l-11.6,8.2l-12,8.4c-8.1,5.7-16.5,11.4-25.3,17l-1.6,1.1l-1.7,1.1l-3.4,2.1l-6.8,4.2
			c-4.6,2.7-9.1,5.4-13.7,8l-6.9,3.8l-3.5,1.9l-3.5,1.8l-7,3.6c-2.3,1.2-4.7,2.3-7.1,3.4c-18.8,9-38,16.6-57.3,22.9
			s-38.9,11.2-58.4,14.9c-39,7.5-78.1,9.7-116.1,7.3c-38-2.4-74.8-9.8-109.1-21.4c36.2-2.6,71.1-9.9,103.8-21.3
			c32.6-11.4,63.1-26.5,90.4-44.9c13.7-9.1,26.6-19,38.6-29.5s23.2-21.7,33.4-33.3c1.3-1.5,2.6-2.9,3.8-4.4l3.7-4.4l1.8-2.2l1.8-2.3
			l3.5-4.5c2.3-3,4.5-6.1,6.7-9.1l3.2-4.7l1.6-2.3l0.8-1.2l0.8-1.2c4.3-6.4,8.6-13.2,13-20.1l13.5-21.7c9.3-15,19.3-30.9,30.8-47.5
			c5.8-8.3,12-16.8,18.7-25.5c6.8-8.6,14.2-17.4,22.4-26.3l3.1-3.3l1.6-1.7l1.6-1.7l6.7-6.6l7.1-6.6c2.4-2.2,5-4.4,7.5-6.5
			c10.2-8.7,21.6-17.1,34.1-25c25.1-15.7,55.5-28.7,87.8-35.7c16.2-3.5,32.6-5.5,48.5-6.3c16-0.8,31.5-0.4,46.2,0.8
			c29.5,2.5,55.8,7.8,79.1,13.4c23.4,5.6,44,11.5,62.5,16.5c9.3,2.5,17.9,4.7,26,6.7c8.1,1.9,15.6,3.5,22.5,4.6
			c13.6,2.2,24.8,2.6,31.4,0.8c6.8-1.7,8.5-5.7,5-9.4c-1.7-1.9-4.4-3.5-7.7-4.9c-0.8-0.4-1.6-0.6-2.6-0.9c-0.5-0.1-1-0.3-1.4-0.4
			c-0.5-0.1-0.9-0.3-1.4-0.4c-1.9-0.4-3.8-0.9-5.5-1.2c-3.5-0.7-6.6-1.3-9.1-2l-0.5-0.1c-0.1,0-0.3-0.1-0.4-0.2
			c-0.3-0.1-0.6-0.2-0.8-0.3c-0.5-0.2-1-0.5-1.5-0.7c-0.9-0.5-1.7-1-2.3-1.7c-1.2-1.3-1.9-3.1-2.1-5.3c-0.2-2.2-0.1-4.9,0.3-8.1
			c0.8-6.2,2.5-14.3,4.4-23.6l0.1-0.4c0-0.1,0.1-0.3,0.1-0.5l0.3-1.1l0.6-2.2l1.2-4.3l2.8-9.5l1.5-5.1l1.6-5.3l0.8-2.6l0.9-2.9
			l1.8-5.7c5.1-15.6,11.3-33.5,19.4-53.9c8.2-20.3,18.3-43.1,31.8-68c13.5-24.8,30.5-51.9,52.4-79.4c2.8-3.4,5.6-6.9,8.5-10.3
			c2.9-3.4,5.6-6.8,8.9-10.4c3.2-3.5,6.4-7.1,9.7-10.6s6.6-6.9,10-10.3l5.1-5.1c1.7-1.7,3.4-3.3,5.1-4.9c3.4-3.3,6.9-6.5,10.4-9.7
			c3.5-3.1,7.1-6.3,10.7-9.4c1.8-1.5,3.6-3.1,5.4-4.6l5.5-4.5c14.6-12,29.8-23.1,45.4-33.5c3.9-2.6,7.8-5.1,11.8-7.6
			c2-1.3,4-2.5,6-3.7l6-3.6c8-4.8,16.2-9.3,24.4-13.7c4.1-2.2,8.3-4.3,12.4-6.4c4.2-2.1,8.4-4.2,12.6-6.1c4.2-2,8.5-3.9,12.7-5.8
			c4.3-1.9,8.6-3.7,12.9-5.5l6.5-2.7l6.5-2.5c4.4-1.7,8.7-3.3,13.1-4.9c8.8-3.1,17.6-6.2,26.6-8.8c17.9-5.6,36.1-10.1,54.7-14
			c4.6-0.9,9.3-1.8,14-2.7c4.7-0.9,9.4-1.6,14.1-2.4c9.4-1.6,18.9-2.7,28.5-3.8c4.8-0.5,9.6-0.9,14.4-1.3l7.2-0.6l7.3-0.4
			c4.9-0.3,9.7-0.5,14.6-0.7c4.9-0.1,9.8-0.2,14.7-0.3c2.5,0,4.9-0.1,7.4,0l7.4,0.1c5,0.1,9.9,0.2,14.9,0.4c10,0.5,20,1,30,2.1
			c40.2,3.7,81.2,11.9,122,24.7c175.8,72.5,259.6,273.9,187.1,449.7C3016.1,252.5,2814.8,336.3,2639,263.8z"/>
	</g>
	<g class="st0">
		<path class="st1" d="M2917.7-41.4c7.8-0.5,14.6-2.6,19.8-5.2c5.3-2.8,9-6,11.8-9.7c0.7-0.8,1.3-1.9,1.8-2.7c0.3-0.4,0.5-1,0.8-1.4
			c0.2-0.4,0.5-0.9,0.7-1.4c0.9-1.8,1.5-3.9,2-5.7c0.2-1,0.5-1.9,0.6-2.9c0.1-0.5,0.2-0.9,0.2-1.4l0.1-0.8l0.1-0.7
			c0.1-0.5,0.1-1,0.1-1.5c0.1-0.5,0.1-0.9,0.1-1.4s0-1,0.1-1.5c0-0.5,0-1,0-1.5c0.1-0.9,0-2,0-2.9v-0.8c0-0.3,0-0.5,0-0.7
			c0-0.5,0-1,0-1.5c0-1.9-0.2-4.1-0.3-6.1c0-0.3-0.1-0.5-0.1-0.8v-0.8c0-0.5-0.1-1-0.2-1.6c0-0.5,0-1-0.1-1.6c0-0.3-0.1-0.6-0.1-0.8
			c0-0.3,0-0.5,0-0.8c0-0.5-0.2-1.1-0.2-1.6s-0.1-1.1-0.2-1.6c0-0.7-0.4-0.8-0.7-1.1c-0.3-0.3-0.6-0.6-1-0.9c-3-2-8.5-1.4-15.8,2.6
			s-16.3,11.2-26.6,21.3s-21.9,22.9-35,38l-21,23.9l-11.4,13.1L2830.9,10c-17.9,20.2-37.6,40.6-60.5,60.9
			c-11.5,10.1-23.7,20.2-37,30.1s-27.6,19.6-43.1,28.8c-7.7,4.6-15.9,9.1-24.2,13.4c-4.3,2.1-8.5,4.3-12.9,6.3l-6.6,3l-3.3,1.5
			l-3.4,1.5c-18.1,7.7-37.5,14.5-57.8,19.5c-10.2,2.5-20.6,4.7-31.1,6.3l-7.9,1.2l-8,0.9c-5.4,0.6-10.5,1-15.8,1.4
			c-20.9,1.4-41.5,0.6-60.9-1.7c-19.5-2.3-37.7-6.2-54.3-10.9c-4.2-1.2-8.2-2.5-12.2-3.7c-2-0.6-3.9-1.3-5.9-2
			c-1.9-0.7-3.9-1.3-5.8-2c-7.5-2.8-14.8-5.7-21.6-8.6c-13.7-6-26.1-12.3-37.4-18.6c-11.3-6.3-21.5-12.7-30.9-18.9
			c-9.4-6.2-17.9-12.2-25.8-18.1c-7.9-5.8-15.2-11.4-22-16.7c-13.5-10.6-25-19.9-34.6-27.6c-9.6-7.8-17.2-13.9-22.5-18.6
			c-2.7-2.4-4.8-4.5-6.6-6.4s-3.2-3.6-4.8-5.3c-0.4-0.4-0.8-0.8-1.2-1.2c-0.4-0.3-0.9-0.7-1.4-1.1c-0.9-0.7-2-1.5-3.1-2
			c-2.3-1.2-5.2-2.1-8.7-2.4c-7.1-0.6-16.9,1-28.3,5.6c-5.7,2.2-11.8,5-18.1,8.4s-12.9,7.3-19.7,11.5c-13.6,8.6-28,18.6-43.2,29.4
			l-11.6,8.2l-12,8.4c-8.1,5.7-16.5,11.4-25.3,17l-1.6,1.1l-1.7,1.1l-3.4,2.1l-6.8,4.2c-4.6,2.7-9.1,5.4-13.7,8l-6.9,3.8l-3.5,1.9
			l-3.5,1.8l-7,3.6c-2.3,1.2-4.7,2.3-7.1,3.4c-18.8,9-38,16.6-57.3,22.9c-19.3,6.3-38.9,11.2-58.4,14.9c-39,7.5-78.1,9.7-116.1,7.3
			s-74.8-9.8-109.1-21.4c36.2-2.6,71.1-9.9,103.8-21.3c32.6-11.4,63.1-26.5,90.4-44.9c13.7-9.1,26.6-19,38.6-29.5
			s23.2-21.7,33.4-33.3c1.3-1.5,2.6-2.9,3.8-4.4l3.7-4.4l1.8-2.2l1.8-2.3l3.5-4.5c2.3-3,4.5-6.1,6.7-9.1l3.2-4.7l1.6-2.3l0.8-1.2
			l0.8-1.2c4.3-6.4,8.6-13.2,13-20.1l13.5-21.7c9.3-15,19.3-30.9,30.8-47.5c5.8-8.3,12-16.8,18.7-25.5c6.8-8.6,14.2-17.4,22.4-26.3
			l3.1-3.3l1.6-1.7l1.6-1.7l6.7-6.6l7.1-6.6c2.4-2.2,5-4.4,7.5-6.5c10.2-8.7,21.6-17.1,34.1-25c25.1-15.7,55.5-28.7,87.8-35.7
			c16.2-3.5,32.6-5.5,48.5-6.3c16-0.8,31.5-0.4,46.2,0.8c29.5,2.5,55.8,7.8,79.1,13.4c23.4,5.6,44,11.5,62.5,16.5
			c9.3,2.5,17.9,4.7,26,6.7c8.1,1.9,15.6,3.5,22.5,4.6c13.6,2.2,24.8,2.6,31.4,0.8c6.8-1.7,8.5-5.7,5-9.4c-1.7-1.9-4.4-3.5-7.7-4.9
			c-0.8-0.4-1.6-0.6-2.6-0.9c-0.5-0.1-1-0.3-1.4-0.4c-0.5-0.1-0.9-0.3-1.4-0.4c-1.9-0.4-3.8-0.9-5.5-1.2c-3.5-0.7-6.6-1.3-9.1-2
			l-0.5-0.1c-0.1,0-0.3-0.1-0.4-0.2c-0.3-0.1-0.6-0.2-0.8-0.3c-0.5-0.2-1-0.5-1.5-0.7c-0.9-0.5-1.7-1-2.3-1.7
			c-1.2-1.3-1.9-3.1-2.1-5.3c-0.2-2.2-0.1-4.9,0.3-8.1c0.8-6.2,2.5-14.3,4.4-23.6l0.1-0.4c0-0.1,0.1-0.3,0.1-0.5l0.3-1.1l0.6-2.2
			l1.2-4.3l2.8-9.5l1.5-5.1l1.6-5.3l0.8-2.6l0.9-2.9l1.8-5.7c5.1-15.6,11.3-33.5,19.4-53.9c8.2-20.3,18.3-43.1,31.8-68
			c13.5-24.8,30.5-51.9,52.4-79.4c2.8-3.4,5.6-6.9,8.5-10.3s5.6-6.8,8.9-10.4c3.2-3.5,6.4-7.1,9.7-10.6s6.6-6.9,10-10.3l5.1-5.1
			c1.7-1.7,3.4-3.3,5.1-4.9c3.4-3.3,6.9-6.5,10.4-9.7c3.5-3.1,7.1-6.3,10.7-9.4c1.8-1.5,3.6-3.1,5.4-4.6l5.5-4.5
			c14.6-12,29.8-23.1,45.4-33.5c3.9-2.6,7.8-5.1,11.8-7.6c2-1.3,4-2.5,6-3.7l6-3.6c8-4.8,16.2-9.3,24.4-13.7
			c4.1-2.2,8.3-4.3,12.4-6.4c4.2-2.1,8.4-4.2,12.6-6.1c4.2-2,8.5-3.9,12.7-5.8c4.3-1.9,8.6-3.7,12.9-5.5l6.5-2.7l6.5-2.5
			c4.4-1.7,8.7-3.3,13.1-4.9c8.8-3.1,17.6-6.2,26.6-8.8c17.9-5.6,36.1-10.1,54.7-14c4.6-0.9,9.3-1.8,14-2.7s9.4-1.6,14.1-2.4
			c9.4-1.6,18.9-2.7,28.5-3.8c4.8-0.5,9.6-0.9,14.4-1.3l7.2-0.6l7.3-0.4c4.9-0.3,9.7-0.5,14.6-0.7c4.9-0.1,9.8-0.2,14.7-0.3
			c2.5,0,4.9-0.1,7.4,0l7.4,0.1c5,0.1,9.9,0.2,14.9,0.4c10,0.5,20,1,30,2.1c40.2,3.7,81.2,11.9,122,24.7
			c175.8,72.5,259.6,273.9,187.1,449.7C3294.9-52.7,3093.6,31.1,2917.7-41.4z"/>
	</g>
	<g>
		<path class="st1" d="M2617,31.6c-6.8-5.9-15-10.6-24.7-14s-20.7-5.4-32.5-5.8c-11.7-0.4-24.1,0.8-36.4,3.6
			c-6.1,1.4-12.2,3.1-18.2,5.2c-3,1-5.9,2.2-8.8,3.4c-2.9,1.2-5.7,2.5-8.8,4c-24.1,11.8-47.1,29.2-69,50.3
			c-10.9,10.5-21.6,21.9-32.1,34c-10.5,12-20.8,24.6-31.1,37.7c-20.8,26.1-41.8,53.8-65.4,80.8c-11.8,13.5-24.3,26.9-37.6,39.7
			c-3.4,3.2-6.8,6.3-10.2,9.5c-3.5,3.1-7,6.2-10.6,9.3l-10.9,9c-3.7,2.9-7.5,5.7-11.2,8.5c-30.3,22.3-63.4,39.8-97.2,53.4
			s-68.4,23.3-102.9,30.8c-34.5,7.4-68.9,12.7-103,17.1s-68,7.9-101.6,11.7c-33.6,3.8-67,7.9-99.9,13.4s-65.5,12.4-97.2,22
			c-15.8,4.8-31.4,10.2-46.7,16.5c-15.3,6.3-30.2,13.4-44.6,21.4s-28.3,17-41.6,26.8c-13.3,9.9-26.3,20.7-39.1,31.7
			c-12.9,11-25.7,22.2-38.8,33.2c-6.6,5.5-13.3,10.8-20.1,16c-6.8,5.2-13.8,10.2-20.9,15s-14.5,9.2-22.1,13.3c-1.9,1-3.8,2-5.7,3
			l-5.8,2.8c-3.9,1.7-7.8,3.5-11.9,5l-3,1.2l-3,1l-3,1l-1.5,0.5l-1.5,0.4l-6.2,1.8l-6.2,1.5c-8.4,1.8-16.8,2.9-25.3,3.3
			c8.4-1.1,16.7-2.8,24.8-5.2l6-1.9l5.9-2.2l1.5-0.5l1.5-0.6l2.9-1.2l2.9-1.2l2.8-1.4c3.8-1.8,7.5-3.8,11.2-5.8l5.4-3.2
			c1.8-1,3.6-2.2,5.3-3.3c7-4.5,13.9-9.4,20.5-14.6c6.6-5.2,13-10.6,19.3-16.2c6.3-5.6,12.4-11.4,18.5-17.2
			c12.1-11.7,24-23.9,36-35.9c12.1-12,24.4-24,37.5-35.4c13.2-11.4,27.1-22,41.7-31.6s29.8-18.4,45.4-26.2
			c15.6-7.9,31.6-14.9,47.9-21.2c32.5-12.6,65.9-22.4,99.4-30.7c33.5-8.3,67.2-15.1,100.8-21.5c33.5-6.4,66.8-12.5,99.7-19.3
			c32.8-6.8,65.2-14.3,96.5-23.7c31.3-9.3,61.6-20.5,89.8-34.5c28.2-13.9,54.3-30.7,77.3-50.5l8.5-7.6l8.2-7.8l8-8.2l7.8-8.5
			c10.3-11.5,20.1-23.8,29.7-36.7c19.1-25.7,37.2-53.6,56.6-82.2c19.4-28.7,40.3-58.1,65.3-86.2c12.5-14,26-27.7,40.9-40.6
			s31.2-24.9,48.8-35.4c4.3-2.6,9.1-5.3,13.8-7.7c4.7-2.5,9.5-4.8,14.4-6.9c9.7-4.3,19.7-8.1,30-11.3c20.5-6.4,41.9-10.4,64.1-11.6
			c22.2-1.2,45.2,0.6,68.2,6.4c11.5,2.9,23,6.8,34.1,11.9c11.2,5,22,11.2,32.2,18.4L2617,31.6z"/>
	</g>
	<g>
		<path class="st2" d="M2665.9-168.6c-3.3,13.3-8.1,26.3-14.2,38.4c-6.1,12.1-13.4,23.4-21.5,33.7c-8.1,10.2-17,19.4-26.4,27.6
			s-19.2,15.4-29.3,21.7c-20.2,12.7-41.3,22.1-62.9,28.9c-21.5,6.8-43.5,11.1-65.7,12.9c-2.8,0.2-5.6,0.5-8.4,0.6l-4.2,0.2
			c-1.4,0.1-2.8,0.1-4.1,0.1c-5.3,0-10.6,0.1-15.8,0.1l-15.6-0.5c-5.1-0.3-10.2-0.7-15.4-1c-20.3-1.7-39.9-4.6-58.7-7.9
			c-37.8-6.6-73-14.9-106.9-20.4c-4.2-0.6-8.5-1.4-12.6-2c-4.2-0.5-8.3-1.2-12.5-1.7c-8.2-0.8-16.5-1.9-24.8-2.2l-6.2-0.4l-3.1-0.2
			l-3.1-0.1L2142-41c-2.1-0.1-4.2,0-6.3,0l-6.3,0.1l-6.3,0.1c-2.1,0-4.2,0.2-6.3,0.3l-12.6,0.6l-12.5,1.1c-2.1,0.2-4.2,0.3-6.3,0.6
			l-6.3,0.8l-6.3,0.8c-2.1,0.3-4.2,0.5-6.3,0.8l-12.5,2l-3.1,0.5l-3.1,0.6l-6.2,1.2c-8.3,1.5-16.5,3.6-24.8,5.5
			c-65.8,16.5-129,46.2-184.7,86.9l-10.3,7.7c-1.8,1.3-3.4,2.7-5.1,4l-5,4.1l-5,4.1c-1.7,1.4-3.3,2.8-4.9,4.2l-9.8,8.5l-9.5,8.8
			c-1.6,1.5-3.2,2.9-4.7,4.4l-4.6,4.6l-4.6,4.6c-1.5,1.5-3.1,3-4.5,4.6l-8.8,9.5l-2.2,2.4l-2.1,2.5l-4.2,4.9
			c-2.8,3.3-5.7,6.5-8.4,9.9l-8.1,10.1c-2.6,3.4-5.2,6.9-7.8,10.4l-3.9,5.2l-3.7,5.4c-2.4,3.6-4.9,7.1-7.3,10.8
			c-4.6,7.4-9.3,14.6-13.7,22.3c-17.8,30.6-33.9,63.8-54,95.9c-10,16.1-21.1,31.9-34,46.6c-6.5,7.3-13.4,14.4-20.8,20.9
			s-15.4,12.6-23.9,17.9c-8.4,5.4-17.3,10-26.5,13.8c-9.2,3.9-18.5,6.8-27.9,9.2c-9.4,2.4-18.8,4.1-28.2,5.5
			c-9.4,1.4-18.7,2.3-27.9,3.1c-18.5,1.6-36.8,2.2-54.7,3.6c-17.9,1.4-35.6,3.5-52.8,7.5c-8.6,2.1-17,4.5-25.3,7.6
			c-8.2,3.2-16.1,6.9-23.6,11.4s-14.4,9.9-20.7,15.9c-1.6,1.5-3,3.1-4.4,4.7c-1.4,1.7-2.8,3.3-4.1,5.1c-2.6,3.5-5,7.2-7,11
			c-4.2,7.7-7.3,16-9.2,24.7c-0.9,4.3-1.7,8.7-2,13.1c-0.3,4.4-0.3,8.9,0,13.3c0.8,8.9,2.9,17.7,7,25.7c2,4,4.4,7.9,7.4,11.3
			c2.9,3.5,6.2,6.6,9.9,9.4c-3.8-2.5-7.4-5.4-10.6-8.7s-6-7-8.3-11c-4.8-8-7.7-17-9.1-26.2c-0.7-4.6-1-9.3-1-14s0.4-9.4,1.1-14
			c1.4-9.3,4.1-18.4,8-27.1c1.9-4.3,4.2-8.5,6.8-12.6c1.3-2,2.7-4,4.1-5.9c1.5-1.9,2.9-3.8,4.6-5.6c6.5-7,13.5-13.4,21.4-18.9
			c7.8-5.5,16.1-10.2,24.7-14.2s17.5-7.2,26.5-10.1c18-5.6,36.4-9.1,54.7-11.9c18.3-2.7,36.4-4.7,54.1-7.5
			c8.9-1.4,17.6-2.9,26.2-4.8s17-4,25.1-6.8c8.1-2.7,16-5.8,23.4-9.6c7.4-3.8,14.4-8.1,21.1-13c6.6-4.9,12.9-10.4,18.7-16.3
			c5.8-5.9,11.3-12.3,16.4-19.1c10.2-13.5,19.2-28.3,27.4-43.8c16.4-31,29.9-64.6,46.4-98.4c4.1-8.5,8.7-16.9,13.2-25.3
			c2.3-4.2,4.8-8.3,7.2-12.4l3.6-6.2l3.8-6.1c2.6-4,5.1-8.1,7.7-12.1l8.2-11.8c2.7-4,5.6-7.8,8.5-11.6l4.3-5.8l2.2-2.9l2.2-2.8
			l9-11.2c1.5-1.9,3.1-3.7,4.6-5.5l4.7-5.4l4.7-5.4c1.6-1.8,3.3-3.5,4.9-5.3l9.8-10.5l10.2-10.2c1.7-1.7,3.4-3.4,5.1-5.1l5.3-4.9
			l5.3-4.9c1.8-1.6,3.5-3.3,5.3-4.9l10.9-9.5c58.8-49.8,127.4-88.5,201.6-112.9c9.3-2.9,18.6-5.9,28.1-8.4l7.1-1.9l3.5-1l3.6-0.8
			l14.3-3.4c2.4-0.6,4.8-1,7.2-1.5l7.2-1.4l7.2-1.4c2.4-0.5,4.9-0.8,7.3-1.2l14.6-2.3l14.7-1.8c2.5-0.3,4.9-0.6,7.4-0.8l7.4-0.6
			l7.4-0.6c2.5-0.2,4.9-0.5,7.4-0.5l14.9-0.7l3.7-0.2h3.7l7.4-0.1c9.9-0.2,19.9,0.3,29.9,0.5c5,0.2,9.8,0.6,14.7,0.9
			c4.9,0.3,9.7,0.8,14.5,1.2c38.5,3.5,74.9,9.3,109.4,12.8c17.2,1.8,33.9,2.9,50.1,3.1l12-0.1l11.7-0.5l11.5-0.9
			c1-0.1,1.8-0.2,2.7-0.3l2.6-0.3c1.7-0.2,3.5-0.5,5.2-0.8c14-2.2,27.8-6.1,40.7-11.2c12.9-5.2,24.9-11.8,35-19.3
			c10.2-7.5,18.4-16.1,24.1-24.7c5.7-8.7,9-17.3,10.3-26.3L2665.9-168.6z"/>
	</g>
	<g>
		<path class="st2" d="M2590.3-130.3c-34.4,1.2-68.3,4.7-101.2,11.3c-8.2,1.6-16.3,3.5-24.4,5.5c-8,2.1-16,4.2-23.9,6.8
			c-15.8,4.9-31.1,10.7-46,17.4c-14.9,6.7-29.2,14.4-43,22.9c-13.7,8.6-26.8,18.2-39.2,28.6c-1.6,1.3-3.1,2.7-4.7,4.1l-4.7,4.1
			c-3,2.9-6.2,5.6-9.2,8.6c-3,2.9-6,5.8-9,8.9l-4.4,4.5l-4.4,4.6c-11.6,12.4-22.7,25.6-33.4,39.4c-21.4,27.5-41.2,57.4-60.4,88.4
			s-38,63.1-57.6,95.3c-9.8,16.1-19.7,32.2-30.3,48.4c-10.5,16.1-21.5,32-33.1,47.6c-23.1,31.1-48.5,61.1-77.1,88.3
			s-60.7,51.6-96.4,70.3c-8.9,4.7-18,9-27.3,12.9s-18.8,7.4-28.4,10.4s-19.4,5.6-29.3,7.6c-9.8,2.1-19.7,3.7-29.5,4.9
			c-19.6,2.4-39,3.3-58.1,3.6s-37.9-0.1-56.5-0.4c-18.6-0.3-36.9-0.5-55,0l-6.8,0.2l-6.8,0.3c-4.4,0.2-8.9,0.6-13.3,1
			c-8.9,0.8-17.7,1.9-26.5,3.4c-17.5,3-34.8,7.4-51.3,13.6c-16.5,6.2-32.2,14.2-46.2,24.5s-26.2,22.9-35.4,37.5
			c-4.6,7.3-8.5,15.2-11.9,23.5s-6.3,16.9-9.1,25.7c-2.8,8.8-5.5,17.8-8.5,26.7c-1.5,4.5-3.1,9-4.8,13.4c-1.7,4.5-3.6,8.9-5.7,13.3
			c-4.2,8.7-9,17.1-14.8,24.8s-12.7,14.9-20.6,20.6c-4,2.8-8.2,5.4-12.6,7.4c-1.1,0.5-2.2,1-3.4,1.4c-1.1,0.5-2.3,0.9-3.4,1.3
			c-2.3,0.8-4.8,1.4-7.2,1.9c-9.7,1.7-19.7,0.7-28.7-2.4c-9.1-3.1-17.5-8.3-23.7-15.5c-3.1-3.6-5.6-7.7-7.3-12.1
			c-0.8-2.2-1.4-4.5-1.8-6.8c-0.3-2.3-0.5-4.7-0.3-7c0.1,4.7,1.1,9.3,3,13.4c1.9,4.2,4.6,8,7.8,11.2c6.4,6.5,14.8,10.8,23.4,13.1
			c8.7,2.3,17.9,2.6,26.4,0.4c2.1-0.5,4.2-1.2,6.2-2.1c1-0.4,2-0.9,3-1.4s2-1,3-1.5c3.9-2.1,7.5-4.6,10.9-7.4
			c6.8-5.7,12.6-12.5,17.4-20c4.9-7.5,8.8-15.6,12.1-23.9c1.6-4.2,3.1-8.4,4.5-12.7c1.3-4.4,2.6-8.7,3.7-13.2
			c2.3-8.9,4.4-17.9,6.6-27s4.6-18.3,7.7-27.5c3-9.2,6.8-18.4,11.5-27.2c9.4-17.6,22.6-33.1,37.7-45.9
			c15.2-12.9,32.3-23.1,50.1-31.3c17.9-8.2,36.5-14.3,55.4-18.9c9.5-2.3,19-4.2,28.6-5.7c4.8-0.8,9.6-1.5,14.4-2.1l7.2-0.8l7.1-0.8
			c19-1.9,37.9-3,56.6-3.9c37.3-1.9,73.8-3.6,108.2-10.3c8.6-1.7,17-3.6,25.3-6c8.2-2.3,16.3-5.1,24.2-8.2
			c7.9-3.1,15.7-6.6,23.4-10.4c7.6-3.8,15.1-8,22.4-12.5c29.2-18,55.5-40.9,79.1-66.7c23.7-25.8,44.8-54.4,64-84.4
			c9.6-15,18.8-30.5,27.6-46.1c8.7-15.6,17.3-31.9,25.7-48.2c16.9-32.6,33.4-66.1,51.2-99.7s36.8-67.3,58.9-100.2
			c11-16.4,22.8-32.6,35.6-48.3l4.8-5.9l4.9-5.8c3.3-3.9,6.7-7.7,10.1-11.5c3.4-3.8,7-7.5,10.5-11.3l5.4-5.5
			c1.8-1.8,3.6-3.7,5.5-5.5c15-14.7,31-28.5,48-41c17-12.4,34.7-23.8,53.1-33.8c18.4-10,37.3-18.9,56.6-26.5
			c9.6-3.9,19.4-7.4,29.1-10.7c9.8-3.2,19.6-6.3,29.5-9.1c39.5-11.1,79.5-18.2,119.3-22.7L2590.3-130.3z"/>
	</g>
	<g>
		<path class="st2" d="M2697,119.5c-19.1,1.5-37.7,1.6-55.8,0.8c-18.1-0.8-35.7-2.5-52.7-4.7c-34.1-4.3-66.1-10.3-96.8-15.1
			c-15.3-2.4-30.3-4.5-45-6.1s-29-2.6-43-2.7s-27.6,0.6-40.8,2.4c-6.6,0.9-13.1,2.1-19.6,3.5c-3.2,0.6-6.4,1.6-9.7,2.4
			c-3.2,0.8-6.4,1.9-9.6,2.9c-25.6,8.2-50.6,21-73.9,37.3c-11.7,8.1-23,17.1-33.8,26.8c-2.7,2.4-5.3,4.9-8,7.4s-5.2,5.1-7.8,7.7
			c-5.2,5.2-10.2,10.6-15.2,16.1c-19.8,22.1-37.9,46.5-54.7,72.3c-8.4,12.9-16.5,26.1-24.3,39.7c-7.9,13.5-15.4,27.2-23,41.3
			c-15.2,28-30.2,56.9-46.9,85.4c-8.3,14.3-17.1,28.4-26.4,42.4c-9.4,13.9-19.4,27.5-30.3,40.6s-22.7,25.6-35.5,37.2
			c-12.8,11.5-26.6,22.1-41.3,31.3c-14.8,9-30.3,17-46.3,23c-16,6.1-32.3,10.8-48.7,14.4l-6.2,1.3c-2.1,0.4-4.1,0.9-6.2,1.2l-12.4,2
			l-12.4,1.6c-2.1,0.3-4.1,0.5-6.2,0.7l-6.2,0.6c-16.5,1.5-32.9,2.1-49.3,2.1s-32.7-0.7-48.9-1.7c-8.1-0.5-16.2-1.1-24.3-1.8
			c-8.1-0.8-16.1-1.5-24.2-2.4c-64.4-7.1-127.9-20.3-189.4-39.2c62.8,13.9,126.7,21.7,190.5,23.6c8,0.3,15.9,0.3,23.9,0.4
			c8,0,15.9,0,23.9-0.2c15.9-0.3,31.8-1,47.5-2.2c15.7-1.3,31.3-3.2,46.7-5.8l5.8-1c1.9-0.3,3.8-0.7,5.7-1.1l11.4-2.4l11.2-2.8
			c1.9-0.4,3.7-1,5.6-1.5l5.5-1.6c14.7-4.4,29-9.9,42.5-16.4c13.6-6.4,26.3-14.3,38.3-23c11.9-8.8,22.9-18.9,33.2-29.7
			c10.2-10.9,19.6-22.6,28.3-35c8.7-12.4,16.7-25.4,24.3-38.8c7.5-13.4,14.6-27.2,21.3-41.3c13.5-28.2,25.9-57.5,39-87.2
			c13.1-29.8,27.1-59.8,43-89.3s33.9-58.5,54.9-86.1c5.2-6.9,10.7-13.7,16.3-20.4c2.9-3.3,5.7-6.7,8.6-10c3-3.2,5.9-6.5,8.9-9.7
			c12.1-12.8,25.1-25,38.9-36.4c27.6-22.8,58.8-42.6,93.4-57c4.3-1.8,8.6-3.6,13.1-5.1c4.4-1.5,8.8-3.3,13.4-4.6
			c9-2.8,18.2-5.3,27.4-7.3c18.4-4.1,36.8-6.5,54.9-7.9c18.1-1.4,35.9-1.5,53.3-1.1c17.4,0.4,34.4,1.5,50.9,2.7
			c33.1,2.5,64.7,5.7,94.7,7c29.9,1.3,58.1,0.7,83.9-3.6L2697,119.5z"/>
	</g>
	<g>
		<path class="st3" d="M2697,105.4c-29.8,5.3-59,10.8-87.5,17c-28.5,6.3-56.3,13.4-82.9,22.2c-26.6,8.8-52.1,19.1-75.8,31.8
			c-23.6,12.7-45.4,27.7-64.4,45.4c-4.8,4.4-9.4,9-13.8,13.8l-6.5,7.3c-1.1,1.2-2.1,2.5-3.2,3.8l-3.1,3.9l-3.2,3.9
			c-1,1.3-2,2.7-3,4.1l-6,8.2c-3.8,5.7-7.8,11.3-11.5,17.3l-2.8,4.4l-1.4,2.2l-1.4,2.3l-5.5,9.2c-1.8,3.1-3.6,6.3-5.4,9.4l-2.7,4.7
			l-2.6,4.8l-5.2,9.7l-5.2,9.9l-5.2,10l-5.2,10.1c-6.9,13.6-14,27.4-21.4,41.3l-5.7,10.4c-1,1.7-1.9,3.5-2.8,5.2l-3,5.2
			c-2,3.5-3.9,7-6,10.4l-6.2,10.4l-1.6,2.6l-1.6,2.6l-3.3,5.2c-2.2,3.4-4.3,6.9-6.7,10.2l-6.9,10.1l-7.1,9.9
			c-1.2,1.6-2.4,3.3-3.6,4.9l-3.7,4.8c-2.5,3.2-4.9,6.4-7.5,9.6l-7.7,9.4l-1.9,2.3l-2,2.3l-4,4.6c-42.5,48.6-92.7,89.6-147.7,121.5
			s-114.8,54.9-176.4,67.3c-15.4,3.2-30.9,5.5-46.5,7.3l-11.7,1.2c-3.9,0.4-7.8,0.6-11.6,1c-7.7,0.5-15.4,1-23,1.5
			c-15.2,0.9-30.3,1.8-45.1,3.5c-14.8,1.7-29.4,4.2-43.4,8.4l-1.3,0.4l-1.3,0.4l-2.6,0.9c-1.7,0.6-3.5,1.1-5.2,1.8l-5.1,2l-2.6,1
			c-0.9,0.3-1.7,0.8-2.5,1.1c-3.3,1.6-6.7,3-9.8,4.8c-1.6,0.9-3.1,1.8-4.6,2.7c-1.5,1-3,2-4.5,3c-11.7,8.4-22,19.3-29.8,31.8
			c-3.9,6.3-7.2,12.9-9.7,19.9s-4.2,14.3-4.8,21.7c-0.6,7.4-0.1,15,1.8,22.3s5.1,14.3,9.5,20.5c-4.9-5.9-8.8-12.6-11.4-19.9
			c-2.5-7.3-3.7-15.1-3.8-23c0-7.8,1.1-15.7,3.1-23.3s4.9-15,8.5-22c7.2-14.1,17.1-26.8,29.4-37.2c1.5-1.3,3.1-2.5,4.7-3.8
			c1.6-1.2,3.3-2.4,4.9-3.5c3.4-2.3,6.8-4.2,10.3-6.2c0.9-0.5,1.7-1,2.6-1.5l2.7-1.3l5.3-2.7c1.8-0.8,3.6-1.6,5.5-2.4l2.7-1.2
			l1.4-0.6l1.4-0.5c14.8-5.8,30.2-9.8,45.5-12.9c15.3-3.1,30.7-5.3,45.8-7.5c7.6-1.1,15.1-2.2,22.5-3.4c3.7-0.6,7.4-1.2,11.1-1.9
			l11-2.1c14.6-3,29-6.4,43.2-10.6c56.9-16.6,110.6-42.8,158.6-76.4c47.9-33.6,90.1-74.8,124.2-121.2l3.2-4.4l1.6-2.2l1.5-2.2
			l6.1-8.9c2-3,3.9-6,5.9-9l2.9-4.5c1-1.5,1.9-3.1,2.8-4.6l5.5-9.2l5.2-9.3c1.8-3.1,3.4-6.3,5.1-9.4l2.5-4.7l1.2-2.4l1.2-2.4
			l4.7-9.7c1.6-3.2,3-6.6,4.6-9.9l2.3-5c0.8-1.7,1.5-3.4,2.2-5l4.4-10.1c5.8-13.7,11.5-27.5,17.3-41.7l4.4-10.7l4.4-10.7l4.5-10.8
			l4.7-10.9l2.4-5.5l2.5-5.5c1.7-3.7,3.3-7.3,5-11l5.3-11l1.3-2.7l1.4-2.7l2.9-5.5c3.7-7.3,7.9-14.6,12-21.9
			c2.2-3.6,4.4-7.2,6.6-10.9c1.1-1.8,2.2-3.6,3.4-5.4l3.6-5.4l3.6-5.4c1.2-1.8,2.4-3.6,3.7-5.3l7.9-10.5c5.4-6.9,11-13.7,16.9-20.2
			c23.5-26.1,50.7-48.4,79.3-67.1c28.7-18.8,58.8-34,89.2-47s61.1-23.6,91.5-33.2c30.5-9.5,60.7-17.8,90.5-25.8L2697,105.4z"/>
	</g>
	<g>
		<path class="st3" d="M2711.5-34.6c-2.1,12.9-6.1,25.5-11.5,37.2c-5.4,11.6-12.2,22.3-19.8,31.6s-15.9,17.4-24.6,24.4
			c-8.7,7-17.7,13-26.9,18.1c-18.4,10.2-37.5,17.1-57,21.5c-9.7,2.2-19.6,3.7-29.6,4.6l-3.8,0.3c-1.3,0.1-2.5,0.2-3.7,0.2l-6.9,0.2
			c-4.7,0.2-9.1,0-13.7,0c-1.1,0-2.3,0-3.4-0.1l-3.3-0.2l-6.6-0.3c-4.4-0.3-8.6-0.7-13-1.1c-4.2-0.5-8.4-0.9-12.6-1.4l-6.1-0.8
			c-2-0.3-4.1-0.6-6.1-0.9c-16-2.5-31.2-5.4-45.6-8.1c-14.4-2.7-28.1-5.2-41.2-6.9c-3.2-0.4-6.5-0.8-9.7-1.1l-4.8-0.4
			c-1.6-0.2-3.2-0.3-4.8-0.4c-3.2-0.2-6.4-0.5-9.6-0.5l-4.8-0.2c-1.6-0.1-3.2,0-4.8,0c-51.5-0.3-104.2,13.1-151,38.2
			c-23.4,12.6-45.3,28.1-64.9,46.2l-7.2,6.9c-2.3,2.4-4.7,4.7-7,7.2s-4.6,4.9-6.9,7.5c-2.3,2.5-4.6,5.2-6.9,7.9
			c-9.1,10.7-18.2,22.2-27.6,34c-9.4,11.8-19.3,23.9-30.1,35.7l-4.1,4.4l-2.1,2.2l-2.1,2.2l-4.3,4.3l-4.4,4.3l-2.2,2.1l-2.3,2.1
			c-1.5,1.4-3.1,2.8-4.7,4.2c-3.2,2.8-6.4,5.4-9.8,8c-6.7,5.2-13.6,10-20.9,14.4s-14.9,8.4-22.8,11.9c-15.8,7-33.1,11.8-51.2,13.1
			c-9,0.6-18.2,0.3-27.3-1.1c-2.3-0.4-4.5-0.7-6.8-1.2c-2.3-0.4-4.4-1-6.6-1.6c-2.1-0.6-4.2-1.2-6.3-1.9c-2-0.7-4.1-1.3-6-2.1
			c-7.9-2.9-15.3-6.1-22.2-9.4c-7-3.3-13.7-6.6-20.2-9.7s-12.8-5.9-18.9-8.2c-6.1-2.3-12.1-4.1-17.6-4.8c-1.4-0.3-2.7-0.3-4.1-0.4
			c-0.7,0-1.3,0-2-0.1h-1h-1c-2.6,0-5,0.5-7.5,1l-1.8,0.5c-0.6,0.2-1.2,0.4-1.8,0.6c-1.2,0.4-2.3,1-3.5,1.5
			c-0.6,0.3-1.1,0.6-1.7,0.9s-1.1,0.6-1.6,1l-1.6,1.1l-1.6,1.2c-0.5,0.4-1,0.9-1.6,1.3c-0.5,0.5-1,0.9-1.5,1.4c-1,1-2,2-3,3.2
			c-1,1.1-1.9,2.4-2.9,3.6c-0.5,0.6-0.9,1.3-1.4,1.9s-0.9,1.3-1.4,2c-1.8,2.7-3.5,5.6-5.2,8.6c-1.7,3.1-3.3,6.2-5,9.4
			c-3.3,6.5-6.6,13.3-10.4,20.2c-3.8,6.9-8,14-13.6,20.6c-1.3,1.7-2.9,3.3-4.4,4.9c-1.6,1.5-3.2,3.1-5,4.5c-1.7,1.5-3.7,2.8-5.5,4.1
			c-2,1.2-3.9,2.4-6.1,3.3c-4.2,2-8.6,3.5-13.1,4.3c-4.5,0.9-8.9,1.2-13.2,1.1c-8.6-0.2-16.6-1.9-24.1-3.8s-14.6-4.1-21.5-5.8
			c-6.9-1.7-13.7-3-20.3-3c-3.3,0-6.5,0.3-9.5,1l-2.3,0.6c-0.8,0.2-1.5,0.5-2.2,0.8c-0.8,0.2-1.4,0.7-2.2,1l-1.1,0.5
			c-0.4,0.2-0.7,0.3-1.1,0.6c-1.4,0.8-2.8,1.6-4.1,2.6c-0.6,0.5-1.3,0.9-1.9,1.5l-1.9,1.7c-0.6,0.5-1.2,1.2-1.8,1.8
			c-0.6,0.6-1.2,1.2-1.7,1.9c-1.1,1.3-2.2,2.6-3.2,4c-2.1,2.8-4,5.8-5.8,8.9s-3.5,6.3-5.2,9.6c-3.4,6.6-6.6,13.3-10.3,20
			c-3.9,6.7-8.7,12.7-14.3,18c-5.6,5.2-12.1,9.6-19.4,11.9c-3.7,1.1-7.5,1.7-11.3,1.4c-3.8-0.2-7.5-1.4-10.7-3.1
			c3.4,1.4,7.1,2.3,10.8,2.2c3.7,0,7.2-0.9,10.6-2.3c6.7-2.8,12.4-7.5,17.3-12.9c4.8-5.4,8.9-11.5,11.9-17.9
			c3-6.6,5.6-13.6,8.4-20.5c2.8-7,5.9-14,10.1-20.7c1-1.7,2.2-3.3,3.3-5c0.6-0.8,1.2-1.6,1.9-2.4c0.7-0.8,1.2-1.6,2-2.3l2.1-2.3
			c0.7-0.8,1.5-1.4,2.3-2.1c1.5-1.4,3.3-2.6,5-3.9c0.4-0.3,0.9-0.6,1.3-0.9l1.4-0.8c0.9-0.5,1.8-1.1,2.8-1.5s1.9-0.9,2.9-1.3l3-1.1
			c4.1-1.4,8.3-2.1,12.4-2.5c8.3-0.7,16.4,0.2,24,1.4c7.6,1.2,15,2.8,22,3.9c7.1,1.1,13.9,1.9,20.2,1.5c6.3-0.4,11.8-2,16.7-4.9
			c1.2-0.6,2.3-1.6,3.5-2.4c1.1-0.9,2.2-1.8,3.2-2.9c1.1-1,2-2.1,3-3.2c0.9-1.2,1.9-2.3,2.8-3.7c3.6-5.1,6.6-11.1,9.4-17.5
			s5.4-13.2,8.3-20.3c1.4-3.5,2.9-7.1,4.5-10.7c1.7-3.6,3.4-7.3,5.4-11c0.5-0.9,1-1.8,1.6-2.8c0.5-0.9,1.1-1.8,1.6-2.8
			c1.2-1.8,2.3-3.7,3.7-5.5c1.3-1.8,2.7-3.6,4.1-5.4c0.7-0.9,1.5-1.7,2.3-2.6s1.6-1.7,2.5-2.5c3.3-3.4,7.3-6.4,11.4-9
			c2.1-1.2,4.1-2.5,6.4-3.5c1.1-0.5,2.2-1.1,3.4-1.6l3.5-1.3c4.7-1.6,9.5-2.9,14.4-3.4l1.8-0.2l1.8-0.1c1.2-0.1,2.4-0.2,3.6-0.2
			c2.4,0,4.8-0.1,7,0.1c9.3,0.4,17.9,2.3,25.9,4.5s15.5,4.9,22.8,7.6c14.4,5.3,27.8,10.8,40.4,14.2c1.6,0.5,3.1,0.8,4.6,1.1
			c1.5,0.3,3,0.6,4.5,0.9c1.5,0.2,3,0.5,4.4,0.6c1.4,0.2,2.8,0.3,4.3,0.4c5.7,0.4,11.5,0,17.2-0.9c11.5-1.9,23-6.1,33.9-12.2
			c5.5-3,10.8-6.4,15.9-10.2c5.1-3.8,10.1-7.9,14.8-12.3c2.4-2.2,4.7-4.5,6.9-6.8c1.1-1.2,2.2-2.3,3.3-3.5l1.6-1.8l1.6-1.9l3.3-3.8
			l3.2-3.9l1.6-2l1.6-2l3.2-4c8.3-11,16.3-22.7,24.5-34.9c8.2-12.2,16.4-24.9,25.6-37.7c2.3-3.2,4.6-6.4,7-9.6
			c2.3-3.2,4.9-6.4,7.4-9.6c2.5-3.2,5.2-6.3,7.8-9.5c2.7-3.1,5.4-6.2,8.1-9.3c22.1-24.4,47.3-45.8,74.9-64
			c27.6-18.1,57.5-32.9,88.9-43.9s64.4-18.2,98.1-21.1c2.1-0.2,4.2-0.4,6.3-0.5l6.3-0.4c4.2-0.3,8.5-0.3,12.7-0.5
			c2.1-0.1,4.3-0.1,6.4-0.1h6.4c4.2,0,8.4,0.2,12.6,0.4c16.6,0.7,32.4,2.2,47.5,3.7s29.4,3,42.9,3.8c1.7,0.1,3.4,0.2,5,0.3l5,0.2
			c3.3,0.1,6.5,0.2,9.7,0.3c3.1,0,6.3,0,9.3-0.1l4.5-0.2l2.3-0.1c0.8,0,1.5-0.1,2.2-0.2c2.9-0.3,5.9-0.4,8.6-0.8l4.2-0.5
			c0.7-0.1,1.3-0.2,1.9-0.3l1.8-0.3c4.7-0.9,9.5-2.1,14.2-3.7c9.3-3.1,18.1-7.4,25.3-12.4s12.5-10.7,15.5-15.6
			c1.5-2.5,2.3-4.7,2.9-6.7c0.5-2,0.7-3.8,0.6-5.7L2711.5-34.6z"/>
	</g>
	<g>
		<path class="st3" d="M2686.8,139.5c-7.5-2.3-15.4-3-24.5-1.7c-9,1.2-19.1,4.6-29.1,10c-10.1,5.4-20.1,12.6-29.4,21.3
			c-9.3,8.6-17.8,18.6-25.1,29.2c-0.9,1.3-1.8,2.7-2.7,4l-1.3,2c-0.4,0.7-0.9,1.3-1.3,2.1l-5.3,9.2l-5,9.6l-4.7,10
			c-6.2,13.5-11.7,28-17.1,43.2c-10.7,30.3-20.1,63.4-32.4,97.4c-1.6,4.3-3.1,8.5-4.8,12.8s-3.3,8.6-5.1,12.9
			c-3.7,8.6-7.3,17.2-11.4,25.6l-3,6.3l-1.5,3.1l-1.6,3.1l-6.5,12.3c-1.1,2.1-2.2,4.1-3.4,6.1l-3.5,6l-3.5,6c-1.2,2-2.4,3.9-3.6,5.9
			l-7.4,11.8l-7.8,11.5c-1.3,1.9-2.6,3.8-3.9,5.7l-4.1,5.6l-4.1,5.6c-1.4,1.8-2.7,3.7-4.1,5.5l-8.5,10.8l-2.1,2.7l-2.2,2.6l-4.5,5.2
			c-5.8,7.1-12.1,13.7-18.3,20.5c-50.2,53.2-110.2,96.1-175.7,126.1L2206,695c-2,0.9-4.2,1.7-6.2,2.6l-6.3,2.5l-6.3,2.5
			c-2.1,0.8-4.2,1.6-6.3,2.3l-12.7,4.6l-12.8,4.2c-2.1,0.7-4.3,1.4-6.4,2l-6.5,1.8l-6.5,1.8c-2.2,0.6-4.3,1.2-6.5,1.8l-13.1,3.2
			l-3.3,0.8l-3.3,0.7l-6.6,1.4c-4.4,0.9-8.8,1.9-13.2,2.5l-13.3,2.2c-4.4,0.6-8.9,1.2-13.3,1.8l-6.7,0.8l-6.7,0.6
			c-4.5,0.4-8.9,0.8-13.4,1.2c-8.9,0.4-17.9,1-26.7,1.1c-35.1,0.6-68.8-1.3-101.4,0.2c-16.3,0.8-32.2,2.4-47.6,5.7
			c-7.7,1.6-15.2,3.7-22.4,6.3c-7.3,2.6-14.3,5.7-21,9.3s-13.1,7.8-19.2,12.5s-11.8,10.1-17.2,15.8c-5.5,5.7-10.6,12-15.6,18.4
			s-9.7,13.2-14.4,20.1c-9.3,13.8-18.2,28.3-27.7,42.7c-9.6,14.4-19.9,28.6-31.7,41.6c-6,6.5-12.2,12.7-19,18.4
			s-14.1,10.8-21.8,15.3c-7.7,4.4-16,7.9-24.5,10.6c-2.2,0.7-4.4,1.2-6.5,1.7c-2.2,0.4-4.4,0.8-6.6,1.1c-4.4,0.6-8.9,0.9-13.3,0.8
			c-8.9-0.1-17.6-1.5-26.1-4c-4.2-1.3-8.3-2.8-12.3-4.6s-7.8-4-11.4-6.4c-7.2-4.9-13.7-10.9-18.5-18.1c-2.4-3.6-4.5-7.4-6-11.4
			s-2.6-8.2-3.2-12.4c0.9,4.2,2.3,8.2,4.1,12c1.8,3.8,4.1,7.4,6.7,10.6c5.2,6.6,11.8,11.8,19,15.9c14.5,8.1,31.3,11.4,47.5,10.5
			c4.1-0.2,8.1-0.8,12-1.6c2-0.4,3.9-0.9,5.9-1.4c1.9-0.6,3.8-1.2,5.7-1.9c7.5-3,14.7-6.7,21.4-11.3c6.7-4.6,12.9-9.8,18.8-15.4
			c5.8-5.7,11.2-11.9,16.3-18.3c10.1-13,18.8-27.1,27-41.7c8.1-14.6,15.9-29.8,24.4-44.9c4.3-7.5,8.7-15.1,13.6-22.5
			s10-14.7,15.7-21.8c5.8-7,11.9-13.8,18.8-20.1s14.3-12,22.2-17.1c7.9-5.1,16.1-9.5,24.6-13.3c8.5-3.7,17.2-6.9,26-9.5
			c17.6-5.2,35.4-8.4,52.9-10.6c35.1-4.4,69.6-5.1,102.3-8.1c8.2-0.7,16.1-1.9,24.1-2.9c4-0.6,8-1.3,11.9-2l5.9-1l5.9-1.2
			c3.9-0.8,7.9-1.6,11.8-2.5l11.7-2.9c3.9-0.9,7.8-2.1,11.6-3.2l5.8-1.7l2.9-0.8l2.9-0.9l11.4-3.8c1.9-0.6,3.8-1.3,5.7-2l5.6-2.1
			l5.6-2.1c1.9-0.7,3.7-1.5,5.6-2.2l11.1-4.6l10.9-5c1.8-0.8,3.7-1.6,5.5-2.5l5.4-2.7l5.4-2.7c1.8-0.9,3.6-1.7,5.3-2.7l10.6-5.7
			c55.9-31,105.4-72.8,144.9-121.7c4.8-6.2,9.8-12.3,14.3-18.7l3.4-4.8l1.7-2.4l1.6-2.4l6.5-9.7c1.1-1.6,2.1-3.3,3.1-4.9l3.1-5
			l3.1-5c1-1.7,1.9-3.4,2.9-5.1l5.8-10.1l5.4-10.3c0.9-1.7,1.8-3.4,2.7-5.2l2.5-5.2l2.5-5.2c0.8-1.7,1.7-3.5,2.4-5.3l4.6-10.6
			l1.1-2.7l1-2.7l2.1-5.4c2.9-7.1,5.2-14.4,7.7-21.7c1.2-3.7,2.3-7.4,3.5-11.1c1.1-3.7,2.2-7.6,3.3-11.4
			c8.5-30.7,15.3-63.7,24.5-98.3c4.6-17.3,9.9-35.1,16.4-53.1l5.2-13.5l5.7-13.5c2.1-4.5,4.2-9,6.4-13.5c0.5-1.1,1.1-2.3,1.8-3.5
			l1.8-3.5c1.2-2.4,2.5-4.6,3.8-6.9c10.5-18.3,22.8-35.4,37.2-51.2c14.4-15.7,30.8-30.2,49.8-42.5c9.5-6.1,19.6-11.7,30.4-16.6
			c10.8-4.8,22.3-8.8,34.4-11.8c12.1-2.9,24.8-4.7,37.7-5.1c12.9-0.4,26.1,0.7,38.9,3.2L2686.8,139.5z"/>
	</g>
	<g>
		<path class="st1" d="M2647.3,84.4c-16.7-3.4-32.6-6.6-47.7-9c-15-2.4-29.4-4-42.7-4.2c-6.7-0.1-13.3,0.1-19.3,0.5
			c-6.1,0.5-12.2,1.5-18,2.7c-5.8,1.3-11.4,2.9-16.6,4.9c-5.2,2-10,4.3-14.5,6.9c-1.1,0.7-2.2,1.3-3.2,2s-2,1.4-3.1,2.1
			c-0.9,0.7-1.9,1.5-2.8,2.2c-0.5,0.3-0.9,0.8-1.4,1.1l-1.3,1.2c-0.9,0.7-1.7,1.6-2.5,2.4l-1.2,1.2l-1.2,1.4l-1.2,1.4
			c-0.4,0.5-0.8,1.1-1.2,1.6l-1.3,1.6c-0.4,0.5-0.9,1.2-1.3,1.8c-3.5,4.8-7.1,10.8-11.1,17.8s-8.3,14.9-13.4,23.4
			c-5.1,8.6-11,17.9-18.5,27.2c-2,2.4-3.9,4.7-5.9,7c-2.1,2.3-4.3,4.6-6.5,6.9c-2.3,2.2-4.6,4.3-6.9,6.4c-1.2,1.1-2.4,2-3.6,3
			l-3.6,2.9c-9.7,7.5-19.7,13.6-29.6,18.6c-9.9,5-19.6,8.9-29,12.2c-4.7,1.7-9.3,3.2-13.9,4.6l-6.8,2c-2.3,0.7-4.4,1.3-6.7,1.9
			c-8.8,2.5-17.4,4.7-25.5,6.8c-16.2,4.3-31.3,8.4-43.7,13.3c-6.2,2.5-11.7,5.1-16.3,7.9s-8.2,5.7-11.2,8.8l-0.6,0.6l-0.5,0.6
			c-0.3,0.4-0.7,0.8-1,1.2c-0.8,0.8-1.3,1.7-1.9,2.6l-0.9,1.3c-0.3,0.5-0.5,1-0.8,1.5c-0.5,1-1.2,1.9-1.6,2.9c-1,2-1.9,4.4-2.7,7.2
			c-0.8,2.8-1.6,6-2.4,9.4c-0.7,3.4-1.4,7.2-2,11.2l-2,12.7c-1.5,9-3,18.8-6.2,29.8c-1.6,5.5-3.5,11.3-6.2,17.3
			c-2.6,5.9-6.1,12.1-10.4,17.9c-4.3,5.8-9.6,11.3-15.3,15.9c-2.8,2.3-6,4.4-9.1,6.4c-1.6,0.9-3.2,1.8-4.7,2.7
			c-1.6,0.8-3.2,1.5-4.8,2.3c-6.4,2.8-12.6,4.7-18.4,6.1c-5.9,1.4-11.4,2.2-16.6,2.8c-10.3,1.1-19.5,1.3-27.4,1.8
			c-4,0.2-7.6,0.4-11,0.8c-3.3,0.3-6.2,0.8-8.5,1.3c-2.4,0.5-4.2,1.1-5.5,1.6s-2.2,1-3,1.6c-0.2,0.2-0.4,0.4-0.6,0.5
			c-0.2,0.2-0.3,0.4-0.5,0.6c-0.1,0.1-0.2,0.2-0.3,0.3c-0.1,0.1-0.2,0.3-0.3,0.4c-0.2,0.3-0.4,0.5-0.6,0.8c-0.2,0.4-0.4,0.8-0.6,1.2
			c-0.1,0.2-0.2,0.4-0.4,0.6l-0.3,0.8l-0.3,0.8c-0.1,0.3-0.2,0.5-0.4,0.8l-0.7,1.9c-0.2,0.6-0.4,1.4-0.7,2.2l-0.3,1.1l-0.2,0.6
			l-0.2,0.6l-0.6,2.6l-0.2,0.7l-0.2,0.7l-0.3,1.4l-1.3,6.1l-0.7,3.4c-0.3,1.2-0.5,2.2-0.8,3.5l-0.9,3.7c-0.3,1.2-0.7,2.6-1,3.9
			c-0.6,2.5-1.6,5.4-2.5,8.1c-0.5,1.4-1.1,2.9-1.6,4.3l-0.9,2.1c-0.3,0.7-0.7,1.5-1,2.2c-0.7,1.5-1.4,3-2.2,4.4
			c-0.8,1.5-1.7,3-2.6,4.4c-3.6,5.9-8.3,11.4-13.5,15.9c-2.6,2.3-5.3,4.3-8.1,6.2c-2.8,1.8-5.7,3.5-8.6,4.9
			c-5.8,2.9-11.6,4.9-17.4,6.3c-5.8,1.5-11.4,2.3-17,2.7c-5.6,0.5-11,0.5-16.4,0.2s-10.6-0.9-15.8-1.9c-2.6-0.5-5.2-1-7.7-1.6
			c-0.7-0.1-1.3-0.3-1.8-0.5l-1.8-0.5c-1.2-0.3-2.4-0.6-3.5-0.9c-4.6-1.3-9.1-2.7-13.4-4.2c-8.6-2.9-16.6-5.9-24.2-8.4
			c-3.8-1.3-7.5-2.4-11.1-3.5c-3.6-1-7.2-1.9-10.6-2.5c-3.5-0.7-6.8-1.1-10.1-1.4c-1.7,0-3.3-0.2-5-0.2c-1.7,0.1-3.3,0-5,0.2
			c-6.7,0.4-13.4,1.7-20,3.9s-13.2,5.2-19.7,8.9c-12.9,7.5-25.1,17.5-36.3,28.9c-11.3,11.4-21.8,24.1-31.8,37.5l-3.7,5l-3.7,5.1
			l-7.5,10.5c-5.1,7-10.2,14.1-15.5,21c-10.6,13.9-22,27.7-34.9,40.3c-12.8,12.6-27.4,24-44,32.3c-8.3,4.1-17,7.4-26,9.6
			c-9,2.3-18.2,3.4-27.2,3.7c-18.1,0.6-35.4-1.9-52.4-3.9c-8.5-1-16.9-1.9-25.3-2.4c-2.1-0.2-4.2-0.2-6.3-0.2l-3.1-0.1h-3.1
			c-4.2,0-8.2,0.3-12.3,0.8c-8.1,1.1-16.2,3.4-23.9,6.6c-7.7,3.2-15,7.5-21.4,12.8s-12,11.8-15.6,19.4c-1.8,3.8-3.1,7.9-3.7,12
			c-0.7,4.2-0.7,8.5-0.1,12.8c-0.9-4.2-1.3-8.5-0.9-12.9c0.3-4.3,1.3-8.6,2.9-12.7c3.2-8.2,8.5-15.4,14.8-21.6
			c6.3-6.1,13.7-11.2,21.5-15.2c7.8-4.1,16.2-7.1,25-9c4.3-1,8.9-1.6,13.2-1.9l3.3-0.3l3.3-0.2c2.2-0.1,4.4-0.2,6.6-0.2
			c8.8-0.2,17.5,0.1,26.1,0.4c17.2,0.7,34.1,1.7,50.3,0c8.1-0.9,15.9-2.4,23.4-5c7.5-2.5,14.7-5.9,21.5-9.9
			c13.6-8.2,25.6-19.1,36.3-31.3c10.8-12.2,20.4-25.8,29.5-39.9c4.6-7,9-14.2,13.5-21.5l6.7-11l3.4-5.6l3.5-5.6
			c9.4-14.9,19.8-29.6,31.6-43.5c5.9-7,12.2-13.7,19.1-20.1c6.8-6.4,14.2-12.5,22.2-18s16.8-10.4,26.2-14.3
			c9.4-3.9,19.5-6.7,29.8-8.2c2.6-0.4,5.2-0.6,7.8-0.9c2.6-0.2,5.2-0.3,7.9-0.4c5.3,0,10.5,0.2,15.5,0.8c5.1,0.5,9.9,1.4,14.7,2.3
			c4.7,1,9.3,2,13.7,3.1c8.9,2.2,17.2,4.6,25,6.6c3.9,1,7.7,1.9,11.4,2.6c0.9,0.2,1.8,0.3,2.7,0.5l1.4,0.2c0.5,0.1,0.9,0.2,1.3,0.2
			c1.6,0.3,3.3,0.5,4.9,0.6c6.6,0.6,13.2,0.5,19.1-0.5s11.1-2.8,14.7-5.1c0.9-0.5,1.7-1.2,2.4-1.7c0.7-0.6,1.4-1.2,1.9-1.8
			c1.1-1.3,1.9-2.5,2.6-4c0.2-0.4,0.4-0.8,0.5-1.1c0.2-0.5,0.3-1,0.5-1.4c0.1-0.2,0.2-0.4,0.3-0.7l0.2-0.9c0.2-0.6,0.4-1.1,0.5-1.8
			c0.3-1.4,0.6-2.6,0.9-4.3l0.2-1.2c0.1-0.4,0.2-0.8,0.2-1.2l0.4-2.6l1.7-12.3l0.2-1.7l0.1-0.9l0.2-0.9l0.6-3.7l0.2-0.9l0.2-1l0.4-2
			c0.3-1.3,0.5-2.6,0.9-4.1l1.1-4.3c0.2-0.7,0.4-1.5,0.7-2.2l0.7-2.3l0.8-2.2c0.2-0.7,0.6-1.6,0.9-2.3c0.6-1.6,1.3-3.1,2-4.7
			c0.8-1.6,1.7-3.2,2.5-4.8c0.4-0.8,0.9-1.6,1.3-2.4l1.6-2.3c1.1-1.5,2.1-3.1,3.3-4.6c1.2-1.4,2.4-2.9,3.6-4.3
			c5.1-5.6,11.2-10.3,17.4-13.8c6.2-3.6,12.4-6.1,18.3-8s11.4-3.1,16.6-4c5.2-0.9,10-1.6,14.6-2.2c9.2-1.2,17.1-2,23.8-3.3
			c6.6-1.2,11.6-3,14.4-4.7c0.3-0.2,0.6-0.4,1-0.6c0.3-0.2,0.5-0.4,0.8-0.6c0.4-0.4,0.9-0.8,1.3-1.3c0.8-0.9,1.4-1.8,2.1-2.9
			c0.6-1.1,1.3-2.6,1.9-4.6c0.6-2,1.3-4.4,1.8-7.2c1.1-5.6,1.8-12.8,2.5-20.8l1-12.9c0.4-4.5,0.8-9.3,1.5-14.3s1.5-10.3,2.7-15.8
			s2.8-11.3,4.9-17.3c1-3,2.3-5.9,3.6-8.8l2-4.4c0.7-1.4,1.5-2.8,2.3-4.2c1.6-2.8,3.1-5.7,5-8.3l2.7-4l1.4-2l1.5-1.9
			c7.9-10.2,17.2-18.9,26.7-25.8c9.5-7,19.2-12.5,28.6-17.1c9.4-4.6,18.6-8.5,27.5-11.9s17.4-6.4,25.7-9.2s16.1-5.6,23.7-8.3
			c1.9-0.7,3.8-1.4,5.6-2.1l5.4-2.1c3.5-1.4,7-2.8,10.2-4.3c6.5-2.9,12.6-5.9,17.7-9.1c5.2-3.2,9.5-6.5,13.1-9.8l1.3-1.3
			c0.4-0.4,0.9-0.8,1.2-1.3c0.7-0.9,1.5-1.7,2.3-2.5c0.7-0.9,1.4-1.8,2.1-2.7c0.7-1,1.4-2.1,2.1-3.1c2.9-4.3,5.8-9.7,9-16.2
			c3.2-6.4,6.5-13.9,10.5-22.2c3.9-8.3,8.4-17.4,14.2-27c0.7-1.2,1.4-2.4,2.2-3.6l2.4-3.7c0.8-1.2,1.6-2.4,2.4-3.7l2.7-3.7l2.7-3.7
			l3-3.6c2-2.4,4-4.9,6.2-7.1l3.2-3.4c1.1-1.1,2.1-2.3,3.3-3.3c2.2-2.1,4.5-4.2,6.8-6.3c2.3-2,4.7-3.9,7.1-5.9
			c2.4-1.9,4.8-3.7,7.3-5.5c19.6-14,40.9-23.9,62.3-30.4c10.7-3.3,21.5-5.9,32.4-7.7c11-1.8,21.5-2.9,31.9-3.5
			c20.9-1.3,40.9-0.4,59.9,1.1s37,3.8,54.1,6L2647.3,84.4z"/>
	</g>
	<g>
		<path class="st4" d="M2657-291.8c-6.2,16.1-12.7,33-20.3,50.5c-7.7,17.5-16.4,35.5-27.4,53.3c-5.5,8.9-11.4,17.6-18.2,26.5
			c-6.8,8.7-14.1,17-22.1,24.9c-15.9,15.8-34.6,29.8-56.2,40.5c-2.7,1.3-5.4,2.6-8.2,3.8c-2.8,1.2-5.7,2.3-8.5,3.4
			c-2.9,1-5.8,2-8.8,3c-1.5,0.5-3,0.9-4.5,1.3l-4.5,1.2c-3,0.9-6.1,1.4-9.2,2.1l-4.6,0.9l-4.6,0.7l-4.6,0.6
			c-1.5,0.2-2.9,0.3-4.4,0.4l-4.4,0.4c-1.5,0.1-2.8,0.1-4.2,0.2c-11.2,0.5-21.4,0.2-30.5-0.2c-9.1-0.5-17.3-1-24.5-1.3
			s-13.4-0.2-18.5,0.3c-1.2,0.2-2.5,0.3-3.7,0.4c-1.1,0.2-2.2,0.4-3.4,0.6c-1.1,0.3-2.2,0.6-3.3,0.8c-0.6,0.1-1.1,0.3-1.7,0.5
			l-1.7,0.6c-4.6,1.6-9.6,3.9-14.9,6.9c-5.3,3-10.8,7-16.4,11.3c-2.8,2.1-5.7,4.6-8.6,7l-4.4,3.8c-1.5,1.3-3,2.6-4.4,3.9
			c-6,5.3-12.1,11-18.5,16.9s-13.1,12.1-20.3,18.3c-7.1,6.2-14.9,12.5-23.4,18.6s-18,12-28.6,17.1s-22.7,9.2-35.4,11.4l-2.4,0.4
			l-2.4,0.3l-4.8,0.5c-3.2,0.4-6.4,0.4-9.7,0.5c-1.6,0-3.2,0-4.8,0l-4.8-0.3c-3.2-0.2-6.3-0.5-9.5-1c-6.3-0.9-12.1-2.3-17.6-3.8
			c-5.4-1.6-10.4-3.3-15.2-5.1c-4.7-1.8-9.1-3.6-13.3-5.4l-11.8-5.2c-7.4-3.2-14.1-6-19.5-7.6c-2.7-0.8-5.1-1.4-7.2-1.8
			c-2-0.4-3.6-0.5-4.9-0.5c-1.3,0-2.4,0.1-3.6,0.4c-0.6,0.1-1.1,0.3-1.7,0.5c-0.3,0.2-0.6,0.3-0.9,0.4c-0.3,0.2-0.7,0.4-1,0.6
			c-2.8,1.7-6.7,5.2-10.9,10.5c-4.3,5.3-8.8,11.9-14.2,19.4c-2.7,3.8-5.6,7.7-8.8,11.8c-3.3,4.1-7,8.4-11.4,12.7s-9.6,8.6-15.7,12.4
			s-13.1,6.9-20.4,8.8c-1.8,0.4-3.7,0.8-5.5,1.2c-1.8,0.3-3.7,0.5-5.6,0.7l-2.8,0.3c-0.9,0.1-1.8,0.1-2.7,0.1c-1.8,0-3.6,0-5.4,0
			c-1.7-0.1-3.4-0.3-5.1-0.4c-0.8-0.1-1.7-0.2-2.5-0.3l-2.3-0.4l-2.3-0.4c-0.8-0.1-1.6-0.3-2.3-0.5l-4.3-1c-1.5-0.3-2.7-0.7-4-1.1
			l-1.9-0.6l-1-0.3l-0.9-0.3l-3.6-1.2l-0.9-0.3l-0.8-0.3l-1.6-0.6l-11.7-4.3l-2.5-0.9c-0.4-0.2-0.8-0.3-1.2-0.4l-1.1-0.4
			c-1.6-0.5-2.9-0.8-4.2-1.2c-0.7-0.2-1.2-0.2-1.8-0.4l-0.9-0.2c-0.3-0.1-0.5-0.1-0.8-0.1c-0.5-0.1-1-0.1-1.5-0.2
			c-0.4,0-0.8,0-1.3-0.1c-1.7-0.2-3.1,0-4.8,0.4c-0.8,0.2-1.6,0.5-2.5,0.8c-0.9,0.4-1.8,0.8-2.7,1.3c-3.7,2.1-7.8,5.8-11.4,10.6
			c-3.7,4.8-6.9,10.5-9.5,16.6c-0.6,1.5-1.2,3.1-1.8,4.6c-0.1,0.4-0.3,0.8-0.4,1.3l-0.4,1.3c-0.3,0.9-0.6,1.7-0.8,2.7
			c-1.1,3.6-2.1,7.4-3.1,11.3c-2,7.8-3.8,16.3-6,25.2c-1.1,4.4-2.4,9-3.7,13.6c-1.5,4.6-3,9.3-4.9,14c-1.8,4.7-4.1,9.4-6.6,14.1
			c-1.3,2.3-2.6,4.6-4,6.8c-1.5,2.2-2.8,4.4-4.5,6.5c-6.2,8.4-13.4,16-21.3,22.4s-16.3,11.8-24.9,16.3c-8.7,4.5-17.5,8.1-26.4,11.1
			s-17.8,5.4-26.8,7.3c-17.9,3.8-35.7,6-53.3,7.3l-6.6,0.4l-6.5,0.4l-12.8,0.7c-8.5,0.5-16.9,1-25.3,1.7
			c-16.7,1.4-33.2,3.4-49.1,7.2c-15.9,3.7-31.1,9.1-44.8,17.2c-6.8,4.1-13.1,8.8-18.9,14.3c-5.8,5.4-10.8,11.6-15.4,18.3
			c-9.2,13.4-16.3,28.9-23.8,44.4c-3.7,7.8-7.6,15.6-11.9,23.2c-1,1.9-2.2,3.8-3.3,5.7l-1.7,2.8l-1.8,2.8c-2.3,3.7-5.1,7.4-7.9,10.8
			c-5.8,6.8-12.5,12.8-19.7,17.8c-7.3,5-15.2,9.1-23.6,11.8c-8.4,2.7-17.3,4-26,2.9c-4.3-0.5-8.6-1.7-12.6-3.4
			c-4-1.7-7.6-4.1-10.9-6.9c3.5,2.5,7.3,4.6,11.3,6s8.2,2.2,12.4,2.4c8.4,0.4,16.8-1.5,24.5-4.6c7.8-3.1,14.9-7.6,21.4-12.8
			c6.5-5.2,12.3-11.3,17.1-17.9c2.4-3.3,4.6-6.7,6.6-10.5l1.5-2.7l1.4-2.8c0.9-1.9,1.9-3.7,2.8-5.7c3.6-7.6,6.7-15.4,9.9-23.4
			c6.2-15.9,12.3-32.3,21.3-48c4.5-7.8,9.8-15.4,16.1-22.3c6.2-6.8,13.2-13,20.8-18.3c15.1-10.7,32.1-18.1,49.3-23.5
			c17.2-5.4,34.7-8.9,52-11.7c8.7-1.4,17.3-2.6,25.9-3.7l12.8-1.7l6.3-0.8l6.2-0.9c16.5-2.4,32.6-5.7,48-10.3
			c15.4-4.5,30-10.6,42.6-18.4c6.3-3.9,12.1-8.3,17.1-13.2c5.1-4.8,9.3-10.2,12.9-15.8c0.9-1.4,1.7-2.9,2.5-4.3
			c0.8-1.5,1.5-3,2.2-4.5c1.3-3.1,2.5-6.2,3.6-9.6c1.1-3.3,1.9-6.9,2.8-10.5c0.8-3.7,1.5-7.5,2.2-11.5c1.4-7.9,2.5-16.3,4-25.3
			c0.7-4.4,1.6-9.1,2.6-13.8c0.2-1.2,0.6-2.4,0.8-3.6l0.4-1.8c0.1-0.6,0.3-1.2,0.5-1.8c0.7-2.5,1.4-5.1,2.2-7.6
			c1.6-5,3.6-9.9,5.8-14.8c2.3-4.9,4.9-9.7,7.9-14.4s6.4-9.3,10.5-13.7c4-4.4,8.5-8.6,13.8-12.4c2.6-1.9,5.4-3.6,8.4-5.2
			c3-1.6,6.1-3,9.3-4.2c6.5-2.4,13.5-4,20.4-4.4c1.7-0.1,3.5-0.2,5.2-0.2c1.6,0,3.3,0.1,4.9,0.2c0.8,0,1.7,0.1,2.4,0.1l2.3,0.3
			c1.5,0.2,3.1,0.3,4.6,0.6c2.8,0.5,5.8,1,8.3,1.6c1.3,0.3,2.7,0.6,3.9,0.9l3.6,1c1.3,0.3,2.3,0.6,3.4,1l3.3,0.9l6,1.7l1.4,0.4
			l0.7,0.2l0.7,0.2l2.6,0.7l0.6,0.2l0.6,0.1l1.2,0.2c0.8,0.1,1.6,0.4,2.2,0.4l2,0.3c0.4,0.1,0.6,0.1,0.9,0.1l0.8,0.1l0.8,0.1
			c0.3,0,0.5,0,0.7,0c0.5,0,0.9,0,1.3,0c0.4-0.1,0.7-0.1,1-0.2c0.2,0,0.4,0,0.5-0.1s0.3-0.1,0.4-0.2c0.3-0.1,0.5-0.1,0.8-0.2
			c0.2-0.1,0.5-0.2,0.8-0.3c0.9-0.5,1.7-1,2.9-1.9c1.1-0.9,2.5-2.2,4-4.1c1.6-1.8,3.3-4.2,5.2-6.9c1.8-2.8,3.8-5.9,5.8-9.3
			c4.1-6.8,8.6-14.7,14.5-23.3c2.9-4.3,6.3-8.8,10.3-13.3s8.6-9.1,14.1-13.4c1.4-1.1,2.8-2.1,4.3-3.1s3.1-2,4.6-2.9
			c3.2-1.8,6.5-3.6,9.9-5c6.8-2.9,14.1-4.9,21.3-6c7.2-1.1,14.3-1.2,20.7-0.7c6.5,0.5,12.5,1.5,18.1,2.7c11.2,2.5,20.6,5.7,29.2,8.7
			l12.1,4.2c3.8,1.3,7.5,2.5,10.8,3.5c3.4,1,6.5,1.8,9.4,2.4c2.9,0.6,5.4,0.9,7.7,1c1.1,0.1,2.2,0,3.3,0c0.6,0,1.1,0,1.7,0l1.6-0.2
			c1.1-0.1,2.1-0.2,3.1-0.5c0.5-0.1,1-0.2,1.6-0.3l0.8-0.1l0.8-0.3c4.1-1.1,8.4-2.9,13-5.7c4.6-2.7,9.5-6.3,14.6-10.6
			c10.2-8.5,20.9-19.9,32.4-32.2c5.7-6.2,11.7-12.7,18.1-19.3c1.6-1.7,3.2-3.3,4.8-5l5-5c3.5-3.4,6.9-6.7,10.7-10.1
			c7.4-6.7,15.4-13.5,24.5-19.8c9.1-6.4,19.2-12.3,30.4-17.3l4.3-1.8c1.4-0.6,2.8-1.2,4.3-1.7c3-1.1,6-2.1,9-3.1
			c3-0.9,6.1-1.7,9.1-2.5c3-0.7,6-1.3,9-1.9c11.8-2.2,22.8-3,32.7-3.4c10-0.4,19-0.5,27-0.7s15-0.6,20.9-1.4
			c0.7-0.1,1.5-0.2,2.2-0.3l2-0.4c0.7-0.1,1.4-0.2,2-0.4l1.8-0.4l1.8-0.4l1.6-0.5c1.1-0.3,2.2-0.6,3.3-1.1l1.6-0.6
			c0.5-0.2,1.1-0.4,1.6-0.7c1.1-0.5,2.2-1,3.3-1.5c1.1-0.6,2.2-1.2,3.3-1.7c1.1-0.6,2.2-1.3,3.3-1.9c4.4-2.7,8.7-5.8,12.9-9.5
			c4.2-3.6,8.3-7.8,12.1-12.3c3.9-4.5,7.5-9.4,10.9-14.5c3.3-5.1,6.6-10.8,9.6-16.8c6.1-11.9,11.5-25.3,16.5-39.7
			c5-14.4,9.7-29.9,14.6-46.3L2657-291.8z"/>
	</g>
	<g>
		<path class="st1" d="M2596.9-93.8l-11.2-5.5l-5.6-2.8l-5.6-2.7l-11.2-5.4l-11.3-5.2c-7.5-3.5-15.1-6.7-22.6-10
			c-3.8-1.7-7.6-3.2-11.4-4.7l-5.7-2.3l-2.8-1.2l-2.9-1.1c-7.6-2.9-15.2-6-22.9-8.6c-3.8-1.4-7.6-2.8-11.5-4.1l-11.5-3.8
			c-1.9-0.6-3.8-1.3-5.8-1.9l-5.8-1.7c-3.9-1.1-7.7-2.3-11.6-3.4l-11.6-3.1l-5.8-1.5l-5.8-1.3l-11.7-2.7l-11.7-2.3l-5.9-1.1
			c-2-0.3-3.9-0.6-5.9-0.9l-11.7-1.8c-3.9-0.5-7.8-0.9-11.7-1.4l-5.9-0.7c-2-0.3-3.9-0.3-5.9-0.5l-11.7-0.8c-2-0.2-3.9-0.2-5.9-0.2
			l-5.9-0.1c-3.9-0.1-7.9-0.3-11.7-0.2c-1.9,0-3.8,0-5.8,0.1l-5.8,0.2l-2.9,0.1l-2.9,0.2l-5.8,0.4l-5.8,0.5
			c-1.9,0.2-3.8,0.4-5.8,0.6c-15.4,1.8-30.6,4.5-45.6,8.5l-5.6,1.5l-5.6,1.6l-2.8,0.8l-2.8,0.9l-5.5,1.8c-7.3,2.6-14.5,5.2-21.6,8.3
			c-14.2,6-27.8,13.2-40.7,21.4c-1.6,1-3.2,2.1-4.8,3.1c-1.6,1.1-3.2,2.1-4.7,3.2c-3,2.3-6.2,4.4-9.1,6.8l-4.5,3.5l-4.3,3.7
			l-2.2,1.8l-2.1,1.9l-4.2,3.8l-4,4l-2,2l-1.9,2.1l-3.9,4.1l-3.7,4.3l-1.9,2.1l-1.8,2.2l-3.5,4.4l-3.4,4.5l-1.7,2.3
			c-0.6,0.8-1.1,1.5-1.6,2.3l-3.2,4.7c-1,1.6-2,3.2-3,4.8s-2,3.2-2.9,4.8l-1.4,2.5l-1.4,2.5c-3.7,6.8-7.2,14-10.6,21.4
			c-6.9,14.9-13.3,30.9-20.8,47.3c-3.8,8.2-7.7,16.5-12.2,24.8s-9.5,16.6-15.2,24.6c-5.7,8.1-12.1,15.9-19.4,23.1
			c-3.6,3.6-7.5,7-11.4,10.3l-6.1,4.6l-3.1,2.3c-1,0.7-2.1,1.4-3.2,2.1l-6.5,4.1c-2.2,1.3-4.5,2.4-6.7,3.6l-3.4,1.8
			c-1.1,0.6-2.3,1.1-3.4,1.6l-6.9,3.1l-7,2.6l-3.5,1.3l-3.5,1.1l-7,2.1l-7,1.7c-1.2,0.3-2.3,0.6-3.5,0.8l-3.5,0.7l-7,1.3l-7,1
			l-3.5,0.5l-3.5,0.4l-6.9,0.7l-6.9,0.5l-3.4,0.2l-3.4,0.2l-6.8,0.3c-18,0.6-35.6,0.2-52.8-0.2c-17.2-0.4-34.1-0.8-50.7-0.3
			c-16.5,0.5-32.7,1.9-48.3,5l-5.8,1.3c-1,0.2-1.9,0.4-2.9,0.7l-2.8,0.8l-5.6,1.6l-5.5,1.9l-2.8,1l-2.7,1.1l-5.3,2.2
			c-1.7,0.8-3.4,1.7-5.2,2.6l-2.6,1.3c-0.9,0.4-1.7,0.9-2.5,1.4c-13.4,7.6-25.6,17.8-36.4,29.7s-20.4,25.4-29.3,39.6
			c-17.9,28.4-33,59.6-51.9,89.3l-3.6,5.5l-3.7,5.5c-1.2,1.8-2.6,3.6-3.8,5.4c-1.3,1.8-2.6,3.6-3.9,5.4l-4,5.3l-4.1,5.2l-2.1,2.6
			l-2.2,2.5c-1.4,1.7-2.9,3.4-4.3,5c-5.9,6.6-11.9,12.9-18.3,19c-6.4,6-12.9,12-19.7,17.5c-27.1,22.2-57.5,40.2-89.8,53
			s-66.4,20.6-100.8,22.6c34.2-4,67.5-13.7,98.4-28.1s59.4-33.7,84.3-56.6c6.3-5.7,12.1-11.7,17.9-17.9c5.7-6.2,11.2-12.6,16.4-19.2
			c1.3-1.7,2.5-3.3,3.8-5l1.9-2.5l1.8-2.6l3.6-5.1l3.5-5.2c1.2-1.7,2.3-3.5,3.4-5.3s2.2-3.5,3.3-5.3l3.2-5.4l3.1-5.5
			c8.2-14.7,15.6-30.1,23.1-45.5c7.5-15.5,15-31.2,23.5-46.7s18-30.8,29.5-45.1c11.5-14.3,25.3-27.4,41.3-37.7c1-0.6,2-1.3,3-1.9
			l3.1-1.8c2.1-1.2,4.1-2.4,6.2-3.5l6.4-3.1l3.2-1.6l3.3-1.4l6.5-2.7l6.6-2.3l3.3-1.2c1.1-0.4,2.2-0.7,3.4-1l6.7-2
			c18-4.7,36.1-7.3,53.9-8.9c35.6-3,70.2-2.4,102.9-5.5l6.1-0.6c1-0.1,2-0.2,3-0.3l3-0.4l6-0.8l5.9-1l2.9-0.5l2.9-0.6l5.7-1.2
			l5.6-1.4l2.8-0.7c0.9-0.3,1.8-0.6,2.7-0.8l5.4-1.7l5.2-1.9l2.6-1l2.5-1.1l5-2.2l4.8-2.5c0.8-0.4,1.6-0.8,2.4-1.2l2.3-1.4
			c1.5-0.9,3-1.8,4.5-2.8l4.2-3.1c0.7-0.5,1.4-1,2.1-1.5l2-1.7l4-3.4c2.5-2.4,5-4.8,7.3-7.5c4.6-5.2,8.9-11,12.7-17.2
			c3.9-6.3,7.4-13,10.7-20c3.3-7.1,6.4-14.5,9.3-22.1c5.9-15.3,11.5-31.6,18-48.4c3.3-8.4,6.8-16.9,10.8-25.5l1.5-3.2l1.6-3.2
			c1-2.2,2.2-4.3,3.4-6.4c1.2-2.1,2.3-4.3,3.5-6.4l3.7-6.3c0.6-1,1.2-2.1,1.9-3.1l2-3.1c1.3-2,2.6-4.1,4-6.1l4.2-5.9l2.1-3l2.2-2.9
			l4.5-5.7l4.7-5.6l2.3-2.8l2.4-2.7l4.9-5.4l5.1-5.2l2.5-2.6l2.6-2.5l5.2-5c1.8-1.6,3.6-3.2,5.4-4.8c3.6-3.2,7.3-6.2,11-9.3
			c1.9-1.5,3.8-2.9,5.7-4.4s3.8-2.9,5.8-4.3c15.5-11.2,31.9-21.2,48.9-29.6c8.5-4.3,17.2-8.1,25.9-11.8l6.6-2.6l3.3-1.3l3.3-1.2
			l6.7-2.4c2.2-0.8,4.5-1.5,6.7-2.2c18-5.9,36.5-10.4,55.1-13.7c2.3-0.4,4.7-0.8,7-1.2l7-1.1l7.1-0.9l3.5-0.4l3.5-0.4l7.1-0.7
			c2.4-0.2,4.7-0.3,7.1-0.5c4.8-0.4,9.4-0.5,14.1-0.6l7-0.2c2.3-0.1,4.7-0.2,7-0.1l14,0.2c2.3,0.1,4.7,0,7,0.1l7,0.4
			c4.7,0.3,9.3,0.5,14,0.8l13.9,1.3c2.3,0.2,4.6,0.4,6.9,0.7l6.9,0.9l13.8,1.8l13.7,2.3l6.8,1.2l6.8,1.4l13.5,2.8
			c4.5,1,8.9,2.1,13.4,3.1l6.7,1.6c2.2,0.5,4.4,1.2,6.6,1.7l13.2,3.5c4.4,1.2,8.7,2.5,13.1,3.8c8.8,2.5,17.3,5.3,26,8.1l3.2,1
			l3.2,1.1l6.4,2.2c4.2,1.5,8.6,2.9,12.8,4.5c8.4,3.1,16.9,6.1,25.2,9.4l12.5,4.9l12.4,5l6.2,2.5l6.1,2.6l12.3,5.2L2596.9-93.8z"/>
	</g>
	<g>
		<path class="st4" d="M2461.2-207.9c2.8,1.5,6.1,2.9,9.2,3.6c3.1,0.7,5.9,0.9,7.9,0.7c2.1-0.2,3.4-0.7,4-1.2s0.5-1,0-1.4
			c-1.1-0.7-3.9-0.8-7.1-0.1c-1.6,0.3-3.3,0.8-4.9,1.4c-0.8,0.3-1.6,0.6-2.4,0.9c-0.4,0.2-0.8,0.3-1.2,0.5c-0.1,0.1-0.2,0-0.3,0.2
			l-0.5,0.3l-0.9,0.6c-4.9,3-10.7,7.2-17.2,12.5s-13.7,11.6-21.9,18.5s-17.5,14.5-28.2,22c-2.6,1.9-5.5,3.7-8.3,5.6
			c-2.8,1.8-5.9,3.7-8.9,5.4l-2.3,1.3c-0.8,0.4-1.6,0.9-2.4,1.3l-4.8,2.5l-2.4,1.2l-2.5,1.2l-5,2.3l-5,2.2c-1.7,0.7-3.4,1.3-5.1,1.9
			c-3.4,1.2-6.8,2.5-10.2,3.5s-6.8,1.9-10.2,2.8c-1.7,0.5-3.4,0.8-5.1,1.2l-5.1,1c-13.5,2.6-26.8,3.8-39.5,3.8s-25-0.9-36.7-2.7
			c-11.7-1.8-23.1-4.1-33.9-7.1c-10.8-2.9-21.4-6.3-31.5-10.1c-1.3-0.5-2.6-0.9-3.8-1.4l-3.6-1.4c-2.4-1-4.9-1.9-7.2-2.9l-7.1-2.9
			l-6.9-3c-18.2-8-35.1-16.3-51.3-23.7s-31.8-14.1-47.2-19.1c-7.7-2.5-15.3-4.5-23.2-6.2c-7.8-1.6-15.8-2.9-23.9-3.6
			c-32.4-3-66.6,1.1-98.9,12.5c-16.2,5.7-31.9,13.2-46.6,22.5c-14.8,9.1-29.1,21.1-44.5,32.5c-3.9,2.9-7.8,5.7-11.8,8.4
			c-2,1.4-4.1,2.7-6.1,4c-2.1,1.3-4.1,2.6-6.3,3.8c-4.2,2.5-8.7,4.8-13.2,6.9c-4.5,2-9.1,3.8-13.8,5.3c-4.7,1.5-9.4,2.8-14.3,3.5
			c-2.4,0.5-4.8,0.7-7.3,1l-3.7,0.3l-1.8,0.1h-1.8c-4.8,0.1-9.7-0.4-14.4-1.2l-3.5-0.7c-1.2-0.3-2.3-0.6-3.4-1l-1.7-0.5
			c-0.6-0.2-1.1-0.4-1.7-0.6l-3.3-1.3l3.5,0.6c0.6,0.1,1.1,0.2,1.7,0.3l1.7,0.1c1.2,0.1,2.3,0.2,3.5,0.2h3.5
			c4.6-0.2,9.1-0.6,13.5-1.6l1.7-0.3l1.6-0.4l3.3-0.9c2.1-0.8,4.3-1.4,6.3-2.3c4.2-1.6,8.2-3.6,12.1-5.8c3.9-2.2,7.6-4.6,11.2-7.2
			c3.6-2.7,7-5.4,10.3-8.4c1.7-1.4,3.3-3,4.9-4.5c1.6-1.6,3.2-3.1,4.8-4.8c3.2-3.2,6.2-6.6,9.3-9.9c6.1-6.8,12.1-13.9,18.4-21.1
			c3.2-3.6,6.4-7.2,9.7-10.8c1.7-1.8,3.4-3.6,5.1-5.4c1.8-1.8,3.6-3.5,5.4-5.2c14.5-13.9,30.6-26.2,48.1-36.7
			c34.9-21,74.9-34.9,117.1-39.7c10.5-1.2,21.2-1.8,32-1.8c1.3,0,2.7,0,4,0l4,0.2l8.1,0.3c1.3,0.1,2.7,0.1,4.1,0.2l4,0.3
			c2.7,0.2,5.4,0.4,8,0.8c21.2,2.3,41.4,6.5,60.6,10.9c19.2,4.4,37.3,9.1,54.5,12.8l6.4,1.3l6.3,1.2c2.1,0.4,4.1,0.7,6.2,1.1
			l3.1,0.5c1,0.2,2,0.3,3,0.4c7.9,1.2,15.6,1.9,23.1,2.4s14.8,0.3,21.6-0.1c6.9-0.4,13.3-1.5,19.2-2.9c5.9-1.3,11.1-3.3,15.6-5.4
			l1.7-0.8c0.6-0.3,1.1-0.5,1.6-0.8c1-0.6,2-1.2,3-1.8s1.8-1.3,2.7-1.9c0.4-0.3,0.9-0.6,1.3-0.9l1.2-1.1c0.4-0.3,0.8-0.7,1.2-1
			c0.2-0.2,0.4-0.3,0.6-0.5l0.6-0.6l1.1-1.1c0.2-0.2,0.4-0.3,0.6-0.6l0.6-0.7c0.8-0.9,1.6-1.6,2.5-2.7c0.9-1,1.7-1.8,2.7-3
			c3.7-4.3,8-9.6,13-15.9c4.9-6.3,10.5-13.6,17-21.7c6.6-8.1,14.1-16.9,23.4-26.1l1.7-1.7l0.9-0.9c0.3-0.3,0.7-0.6,1-1
			c1.4-1.3,2.8-2.6,4.3-3.9c2.9-2.5,5.8-5,8.8-7.4c6-4.7,12.3-9.1,18.9-13.3c13.3-8.2,27.8-15.3,44.9-20.4
			c8.5-2.6,17.7-4.6,27.6-5.8c9.9-1.2,20.6-1.5,31.9-0.5c11.3,1,23.2,3.5,34.9,7.6c11.8,4.1,23.3,10,33.6,17.2L2461.2-207.9z"/>
	</g>
	<g>
		<path class="st1" d="M2799.5,91.8c-1.6,11.6-4.8,23.1-9.4,33.8c-4.6,10.7-10.4,20.5-17,29.1s-13.8,16.1-21.3,22.6
			s-15.3,12-23.1,16.7c-15.7,9.5-31.7,16-47.8,20.7c-8.1,2.4-16.2,4.2-24.4,5.7c-4.1,0.7-8.2,1.3-12.3,1.8c-2.1,0.3-4.2,0.4-6.2,0.6
			c-1.1,0.1-2,0.2-2.9,0.2l-2.8,0.2c-15,1-29.1,0.8-42.3,0.4c-13.2-0.4-25.6-1-37.1-1.4c-11.6-0.3-22.3-0.3-32.3,0.3
			c-2.6,0.1-4.9,0.4-7.3,0.6c-2.5,0.2-4.7,0.6-7,0.9l-1.7,0.2c-0.6,0.1-1.1,0.2-1.7,0.3l-3.3,0.7l-1.7,0.3l-1.6,0.4
			c-1.1,0.3-2.2,0.5-3.2,0.8c-17.1,4.6-34.1,13.7-50,26.5c-15.9,12.8-30.7,29-44,47.1c-6.7,9-13,18.6-18.9,28.4
			c-5.9,10-11.8,20.4-17.5,31.1c-11.4,21.4-22.3,43.9-34.2,66.7c-11.9,22.7-24.7,45.8-40,67.8c-7.6,11-16,21.7-24.8,31.9
			s-18.2,19.8-28,28.9c-39.3,36.3-86,63.4-135.7,79.8c-24.8,8.2-50.5,13.6-76.3,16.1c-3.2,0.3-6.4,0.7-9.7,0.9
			c-3.2,0.2-6.4,0.4-9.6,0.5c-6.4,0.3-12.8,0.4-19.1,0.5c-12.6,0.2-25.1,0.1-37.4,0.5c-24.7,0.7-49.1,2.9-72.1,11.5
			c-5.7,2.2-11.3,4.6-16.7,7.5c-2.7,1.4-5.3,3.1-7.9,4.6l-3.8,2.6c-0.6,0.4-1.3,0.9-1.9,1.3l-1.8,1.4c-4.9,3.7-9.4,8-13.5,12.6
			l-3,3.6c-1,1.2-1.8,2.5-2.8,3.8l-1.4,1.9c-0.4,0.6-0.8,1.3-1.2,2l-2.4,4l2-4.3c0.3-0.7,0.6-1.4,1-2.1l1.2-2
			c0.8-1.4,1.5-2.8,2.4-4.1l2.7-3.9c3.7-5.1,7.8-10,12.5-14.3l1.7-1.7c0.6-0.5,1.2-1,1.8-1.6l3.7-3.1c2.6-1.9,5.1-3.9,7.8-5.6
			c5.3-3.7,10.9-6.8,16.6-9.7l4.3-2.1c1.4-0.7,2.9-1.3,4.4-1.9c2.9-1.3,6-2.4,9-3.5c6.1-2.1,12.3-4.1,18.5-5.6l2.3-0.6l2.3-0.5
			l4.7-1c3.1-0.6,6.3-1.3,9.4-1.8c6.3-1.1,12.6-2,18.9-2.9c12.6-1.7,25.1-2.9,37.4-4.4c6.2-0.7,12.3-1.5,18.3-2.4c3-0.4,6-0.9,9-1.4
			c3-0.6,5.9-1.2,8.9-1.8c23.7-4.8,46.7-12.3,68.5-22.1c43.6-19.6,82.6-48.4,113.4-83.5c7.7-8.7,14.9-17.9,21.5-27.4
			s12.7-19.2,18.3-29.5c11.2-20.4,20.6-42.3,29.6-65s17.5-46.3,27.2-70.2c4.8-12,10-24,15.6-36.2c5.7-12.2,12-24.3,19-36.3
			c13.9-23.8,30.6-47,51.6-68c10.5-10.5,22.1-20.3,35-29.1c6.4-4.4,13.1-8.5,20.1-12.3c7-3.7,14.3-7.2,21.8-10.2
			c1.9-0.8,3.8-1.4,5.7-2.1l2.9-1l2.9-0.9l5.7-1.8c1-0.3,1.9-0.6,2.9-0.9l2.9-0.8c3.8-1,7.7-2.1,11.4-2.8c3.8-0.8,7.6-1.7,11.2-2.3
			c14.9-2.7,29.1-4.1,42.5-5.1s26.1-1.7,37.9-2.6c11.8-0.9,22.7-2,32.6-3.7l1.9-0.3c0.6-0.1,1.3-0.2,1.7-0.3c1-0.2,2-0.4,3.1-0.7
			c2-0.5,4.1-1,6.1-1.6c4-1.2,8-2.6,11.8-4.2c7.6-3.2,14.5-7.2,19.7-11.4c5.3-4.2,8.7-8.5,10-11.6c0.7-1.5,0.9-2.7,1-3.7
			c0-0.9-0.1-1.6-0.4-2.5L2799.5,91.8z"/>
	</g>
	<g>
		<path class="st4" d="M2577,7.8c0.5-0.8,0.5-2-1.1-3.5c-1.5-1.4-4.6-2.9-8.7-3.7c-4.1-0.9-9.2-1.1-14.5-0.6c-2.6,0.2-5.3,0.7-8,1.2
			c-1.3,0.3-2.7,0.6-4,1c-0.7,0.2-1.3,0.4-1.9,0.6l-0.5,0.1c-0.2,0.1-0.4,0.1-0.6,0.2l-1.1,0.5c-6.1,2.3-12.5,5.5-19.2,9.6
			c-6.6,4.1-13.5,9.2-20.4,15.2c-6.9,5.9-14,12.6-21.1,20c-1.8,1.8-3.6,3.7-5.3,5.6c-1.8,1.9-3.6,3.9-5.4,5.8
			c-3.6,4-7.2,8-10.9,12.3c-14.9,17-30.5,36-48.4,55.1c-9,9.6-18.6,19.2-29,28.5c-2.6,2.3-5.3,4.6-7.9,6.9c-2.7,2.3-5.5,4.5-8.3,6.8
			l-8.6,6.6c-2.9,2.1-5.8,4.2-8.8,6.3c-23.7,16.3-49.1,28.7-74.5,37.9c-25.5,9.2-50.9,15.4-75.8,19.8c-24.9,4.4-49.4,7.1-73.4,9.2
			c-24,2.1-47.5,3.5-70.7,5.2c-23.2,1.6-46,3.4-68.5,6.1c-22.4,2.7-44.5,6.4-66,11.8c-10.7,2.7-21.3,5.9-31.7,9.6
			c-10.4,3.7-20.5,8-30.4,12.9s-19.4,10.4-28.7,16.6c-9.3,6.2-18.4,13.2-27.6,20.4c-18.3,14.3-36.7,29.7-57.3,42.2
			c-5.1,3.1-10.4,6-15.8,8.7c-5.4,2.6-11,5-16.7,6.9s-11.5,3.5-17.3,4.4c-5.9,1-11.8,1.5-17.6,1.5c5.8-1,11.4-2.4,16.9-4.3
			c5.5-1.8,10.7-4.3,15.8-6.9c5.1-2.7,9.9-5.7,14.6-9s9.2-6.8,13.5-10.5c17.4-14.9,32.5-32.3,48.5-49.7c8-8.7,16.3-17.4,25.2-25.8
			c9-8.4,18.6-16.4,28.7-23.6c10.1-7.3,20.7-13.9,31.5-19.9c10.9-6,22.1-11.4,33.4-16.4c22.7-9.9,46-17.7,69.4-24.5
			c23.3-6.8,46.7-12.5,69.7-17.9c23-5.4,45.8-10.6,67.9-16.2c22.1-5.6,43.6-11.7,64-18.8s39.6-15.4,56.9-25.2
			c17.3-9.7,32.6-21,45.7-33.7l4.8-4.8l4.6-5l4.5-5.2l4.5-5.5c5.9-7.4,11.7-15.5,17.4-24.1c11.5-17.2,22.8-36.5,35.6-57.1
			c3.2-5.1,6.5-10.5,10-15.8c1.7-2.7,3.5-5.4,5.3-8.1s3.6-5.4,5.5-8.1c7.5-10.9,15.7-21.9,24.9-32.9s19.4-22,30.9-32.5
			s24.5-20.7,38.8-29.6l2.7-1.7c0.5-0.3,0.9-0.6,1.4-0.8l1.5-0.9c2-1.1,3.9-2.3,5.9-3.3c4-2.2,8-4.2,12.1-6.1
			c8.2-3.9,16.5-7.2,25.1-10.1c17.2-5.8,35.4-9.7,54.7-11.1c19.2-1.4,39.7-0.3,60.6,4.7c10.5,2.5,21,5.9,31.4,10.4
			s20.6,10.1,30.2,16.7L2577,7.8z"/>
	</g>
	<g>
		<path class="st2" d="M2784.4,161.8c-27.6,34.4-59,64.9-93.2,91.1c-34.2,26.2-71.1,48.3-109.7,65.8
			c-38.6,17.5-78.9,30.6-120.1,38.8c-20.6,4.1-41.3,7-62.1,8.6c-5.2,0.4-10.4,0.8-15.6,1c-5.2,0.2-10.4,0.5-15.6,0.5
			c-10.5,0.2-20.7,0-30.5-0.3c-19.8-0.6-38.4-1.5-56.2-0.9s-34.4,2.9-49.8,8.2c-15.4,5.3-30.4,14.2-44.7,25.2s-27.9,24-41.4,37.6
			c-13.5,13.7-27.1,28-41.9,41.5c-14.7,13.5-30.7,26.2-48.4,36.1c-17.8,9.9-37.4,16.5-57.4,18.3c-10,0.9-20.1,0.6-29.8-1.1
			c-9.8-1.8-19.2-5.1-27.6-9.8c9,3.6,18.6,5.5,28.1,6c9.5,0.4,19-0.6,28.2-2.7c18.3-4.3,35.4-12.7,50.2-23.8
			c14.9-11.2,27.9-24.7,40-39.2s23.3-30.1,35.1-45.7c11.8-15.7,24.4-31.5,39-46.4c7.3-7.4,15.2-14.6,23.8-21.2s17.9-12.7,28-17.8
			c20.2-10.2,41.9-16.2,62.7-19.6c20.8-3.6,41-5.2,60-7.2c9.5-1,18.7-2,27.5-3.4c4.5-0.6,8.9-1.4,13.4-2.2c4.4-0.7,8.9-1.7,13.3-2.6
			c17.6-3.8,35-8.6,51.9-14.5c33.9-11.6,66.2-27.2,96.1-46.1c59.8-37.6,110.1-88.4,144.8-146.3L2784.4,161.8z"/>
	</g>
	<g>
		<path class="st3" d="M2599.5-179.2c-27.6,34.4-59,64.9-93.2,91.1s-71.1,48.3-109.7,65.8c-38.6,17.5-78.9,30.6-120.1,38.8
			c-20.6,4.1-41.3,7-62.1,8.6c-5.2,0.4-10.4,0.8-15.6,1c-5.2,0.2-10.4,0.5-15.6,0.5c-10.5,0.2-20.7,0-30.5-0.3
			c-19.8-0.6-38.4-1.5-56.2-0.9s-34.4,2.9-49.8,8.2c-15.4,5.3-30.4,14.2-44.7,25.2c-14.3,11-27.9,24-41.4,37.6
			c-13.5,13.7-27.1,28-41.9,41.5c-14.7,13.5-30.7,26.2-48.4,36.1c-17.8,9.9-37.4,16.5-57.4,18.3c-10,0.9-20.1,0.6-29.8-1.1
			c-9.8-1.8-19.2-5.1-27.6-9.8c9,3.6,18.6,5.5,28.1,6c9.5,0.4,19-0.6,28.2-2.7c18.3-4.3,35.4-12.7,50.2-23.8
			c14.9-11.2,27.9-24.7,40-39.2s23.3-30.1,35.1-45.7c11.8-15.7,24.4-31.5,39-46.4c7.3-7.4,15.2-14.6,23.8-21.2
			c8.6-6.6,17.9-12.7,28-17.8c20.2-10.2,41.9-16.2,62.7-19.6c20.8-3.6,41-5.2,60-7.2c9.5-1,18.7-2,27.5-3.4
			c4.5-0.6,8.9-1.4,13.4-2.2c4.4-0.7,8.9-1.7,13.3-2.6c17.6-3.8,35-8.6,51.9-14.5c33.9-11.6,66.2-27.2,96.1-46.1
			c59.8-37.6,110.1-88.4,144.8-146.3L2599.5-179.2z"/>
	</g>
	<g>
		<path class="st1" d="M2678.3-66.5c-33.9,42.6-74.9,78-120,105.5c-45.1,27.4-94.2,47-144.9,58c-3.2,0.7-6.4,1.3-9.5,1.9l-4.8,0.9
			l-4.8,0.8l-9.6,1.6l-9.6,1.3c-1.6,0.2-3.2,0.4-4.8,0.6l-4.8,0.5c-3.2,0.3-6.4,0.7-9.7,1c-6.5,0.4-12.9,1-19.4,1.2
			c-12.9,0.6-25.9,0.4-38.7-0.1l-9.7-0.6c-3.2-0.2-6.4-0.6-9.6-0.8c-6.5-0.5-12.7-1.3-18.9-2.2c-24.6-3.4-47.6-7.9-69.6-11.3
			c-11-1.7-21.8-3.2-32.3-4c-5.3-0.5-10.4-0.7-15.5-0.9c-5.1-0.1-10.1-0.1-15,0.2c-2.5,0.1-4.9,0.3-7.3,0.5l-3.6,0.4l-1.8,0.2
			l-1.8,0.3c-4.8,0.6-9.3,1.6-13.9,2.7c-9,2.4-17.7,5.6-25.8,10.2c-8.2,4.5-16.2,10.4-24,17.1c-7.8,6.8-15.3,14.5-22.7,22.7
			c-7.4,8.3-14.8,17-22.3,26c-3.8,4.5-7.6,9-11.6,13.6s-8.1,9.2-12.3,13.6c-8.5,9-17.5,17.6-27.4,25.6c-9.9,7.9-20.6,15.2-32.4,21
			c-11.7,5.8-24.6,10-37.8,11.7c-3.3,0.4-6.6,0.8-9.9,0.9c-3.3,0.1-6.5,0.1-9.7,0c-6.4-0.2-12.5-0.8-18.5-1.6
			c-12-1.5-23.4-3.6-34.6-5c-11.1-1.3-22-2-32.2-0.1c-5.1,0.9-9.9,2.5-14.5,4.9c-4.5,2.4-8.6,5.5-12.4,9.3s-7.2,8.2-10.7,12.9
			c-3.5,4.6-6.9,9.5-10.8,14.1c-1,1.2-1.9,2.3-3,3.4c-1,1.1-2.1,2.2-3.2,3.3c-1.1,1.1-2.3,2.1-3.4,3.1c-0.6,0.5-1.2,1-1.9,1.5
			c-0.7,0.5-1.3,0.9-2,1.4c-5.4,3.4-11.4,5.4-17.4,6c-3,0.3-6.1,0.4-9.1,0s-6-1.1-8.8-2.4c-1.4-0.6-2.7-1.4-3.9-2.3
			c-1.2-0.9-2.3-2-3.2-3.1c-1.9-2.3-3-5.2-3.5-8c0.8,2.8,2.2,5.4,4.3,7.4c1,1,2.1,1.8,3.3,2.6c1.2,0.7,2.5,1.3,3.8,1.7
			c5.3,1.8,11.1,1.6,16.5,0.4s10.5-3.6,14.7-7c0.5-0.4,1-0.9,1.5-1.3c0.5-0.5,0.9-0.9,1.4-1.4c0.9-1.1,1.9-2,2.7-3.1
			c0.9-1.1,1.7-2.2,2.5-3.3c0.8-1.1,1.6-2.3,2.4-3.5c3.1-4.7,5.9-9.7,8.9-14.8c3-5.1,6.1-10.3,10-15.2c3.9-4.9,8.7-9.6,14.1-13.2
			c5.5-3.7,11.5-6.4,17.7-8.3c6.2-1.9,12.6-2.9,18.8-3.5c6.2-0.6,12.4-0.7,18.5-0.7c12.1,0.1,23.8,1,35,1.1s21.9-0.4,31.5-2.9
			c9.7-2.4,19-6.6,27.5-12.2c8.6-5.5,16.6-12.3,24.1-19.9c7.5-7.6,14.5-15.9,21.1-24.6c3.3-4.4,6.5-8.9,9.7-13.5s6.4-9.4,9.6-14.2
			c6.4-9.6,13-19.6,20.1-29.5s14.8-19.9,23.6-29.5c8.8-9.6,18.7-18.9,30-27c11.4-8.2,24-14.8,37-19.9c6.5-2.4,13.2-4.7,19.8-6.3
			l2.5-0.7l2.5-0.6l5-1.1c3.3-0.6,6.7-1.4,10-1.8c6.7-1.1,13.2-1.8,19.8-2.5c6.5-0.5,13-0.9,19.4-1.1c12.8-0.4,25.3-0.1,37.5,0.4
			c24.3,1,47.5,2.9,69.4,3.4c5.4,0.1,10.8,0.2,16,0c2.6-0.1,5.2-0.1,7.8-0.2l7.8-0.4c10.4-0.7,20.8-1.7,31-3.4
			c5.1-0.7,10.2-1.8,15.4-2.7c2.5-0.5,5.1-1.1,7.6-1.6l3.8-0.8c1.3-0.3,2.5-0.6,3.8-0.9l7.5-1.9l7.5-2.1l3.7-1.1l3.7-1.2l7.4-2.4
			c39.2-13.3,75.9-33.2,107.9-58c32-24.9,59.2-54.9,79.9-87.9L2678.3-66.5z"/>
	</g>
	<g>
		<path class="st2" d="M2539.8-224.7c2.5,1.8,4.7,2.6,6,3s1.9,0.3,1.9,0.2c0-0.2-1.8-0.4-4.1-0.2c-2.3,0.1-5.3,0.5-8.4,1.1
			c-3.2,0.6-6.5,1.4-10,2.4c-7,1.9-14.3,4.4-21.6,7.3c-7.3,2.9-14.7,6.1-21.9,9.5s-14.4,7.1-21,11c-3.3,1.9-6.5,3.9-9.4,5.7
			c-1.4,0.9-2.7,1.8-3.7,2.5l-1.9,1.4c-0.7,0.5-1.4,1.1-2.1,1.6c-5.7,4.5-11.7,9.8-18,15.7s-13,12.3-20.4,18.9
			c-7.4,6.5-15.5,13.2-24.8,19.3c-9.2,6.1-19.8,11.5-30.4,15.2c-5.3,1.9-10.7,3.5-16.1,4.7c-5.4,1.2-10.8,2.2-16.1,2.8
			c-10.7,1.3-21.3,1.5-31.5,1c-20.6-1.1-40-5.2-58.4-10.7c-2.3-0.7-4.6-1.4-6.9-2.1l-3.4-1.1l-3.3-1.2c-4.5-1.5-8.8-3.1-13.2-4.7
			c-8.6-3.3-17.1-6.7-25.3-10.1c-16.6-6.8-32.6-13.5-48.5-19c-8-2.7-16-5.2-24-7.3c-8-2-16-3.6-24.2-4.6
			c-32.6-4.2-66.8-0.6-98.8,10.5c-16,5.5-31.5,12.9-45.9,22.1c-7.2,4.6-14.1,9.6-20.9,15.1s-13.5,11.3-20.3,17.1
			c-6.9,5.8-13.9,11.5-21.4,16.7c-1.9,1.3-3.8,2.6-5.7,3.8c-1.9,1.2-3.9,2.4-5.9,3.5c-4,2.2-8.1,4.2-12.3,6
			c-8.4,3.5-17.3,5.9-26.4,6.7c-9,0.8-18.2-0.2-26.5-3.3c8.6,2.2,17.6,2.2,26.2,0.6c8.6-1.6,16.8-4.8,24.4-8.9
			c3.8-2.1,7.5-4.3,11-6.8c1.8-1.3,3.5-2.5,5.2-3.9c1.7-1.3,3.4-2.7,5-4.1c6.6-5.7,12.8-11.8,18.9-18.2c6.1-6.3,12.2-12.9,18.6-19.3
			c6.4-6.4,13.3-12.6,20.5-18.4c14.4-11.5,30.3-21.3,47.2-29.2c33.7-15.8,71.4-24,109.7-23.1c9.5,0.2,19.2,1.1,28.6,2.4
			c9.4,1.4,18.7,3.2,27.8,5.3c18.2,4.2,35.6,9.5,52.6,14.5c8.5,2.5,16.8,4.9,25.1,7.1c4.1,1,8.2,2.1,12.3,3l3.1,0.7l3,0.6
			c2,0.4,4,0.8,6,1.2c16,3,31.9,4.5,46.9,3.7s28.9-3.9,40.5-9.7c2.9-1.4,5.7-3,8.3-4.7s5.2-3.6,7.8-5.8c5.2-4.3,10.3-9.4,15.6-15.2
			s10.8-12.3,16.8-19.2s12.5-14.2,20.1-21.5c1-0.9,1.9-1.8,2.9-2.7l1.5-1.4l0.8-0.7l0.9-0.8c2.4-2.1,4.7-3.8,6.9-5.5
			c4.4-3.3,8.6-6.3,12.8-9.1c8.4-5.6,16.7-10.6,25.2-15.4c8.5-4.8,17.2-9.3,26.1-13.5c9-4.2,18.2-8.1,28.2-11.6
			c5-1.7,10.1-3.4,15.6-4.9s11.3-2.8,17.7-3.7c3.2-0.4,6.6-0.8,10.4-1c3.7-0.2,7.7-0.1,12.1,0.3c4.4,0.4,9.4,1.2,14.9,3
			c5.5,1.7,11.7,4.5,17.8,9L2539.8-224.7z"/>
	</g>
</g>
</svg>
