<?xml version="1.0" encoding="utf-8"?>
<!-- Generator: Adobe Illustrator 21.1.0, SVG Export Plug-In . SVG Version: 6.00 Build 0)  -->
<svg version="1.1" id="Layer_1" xmlns="http://www.w3.org/2000/svg" xmlns:xlink="http://www.w3.org/1999/xlink" x="0px" y="0px"
	 viewBox="0 0 1205.1 199.3" style="enable-background:new 0 0 1205.1 199.3;" xml:space="preserve">
<style type="text/css">
	.st0{fill:#C4E9FF;}
	.st1{fill:#92CBF7;}
</style>
<g>
	<path class="st0" d="M28.6,12.1c10-0.4,19.9-1,29.9-1.2c19.8-0.4,39.6-0.5,59.3-0.9c10.2-0.2,19.8,1.5,28.4,7.6
		c18,12.8,38,21.7,58.3,30.3c13.9,5.9,28.5,7.6,43.2,8.4c32.1,1.8,64.3,2.9,96.4,4.7c36.2,2.1,72.5,4.5,108.7,6.9
		c28,1.8,56,3.7,84,5.5C593,77.2,649.2,81,705.4,84.7c43.4,2.8,86.8,5.5,130.3,8.2c55.6,3.3,111.2,6.7,166.8,9.7
		c53,2.8,106,5.3,159,7.8c29.5,1.4,59.1,2.5,88.7,3.7c1.4,0.1,2.9,0.3,4.9,0.6c-0.8,2.3-1.3,4.1-2.1,5.8
		c-12.8,28.1-25.8,56.1-38.3,84.2c-2,4.4-4.4,5-8.5,4.6c-32-3.3-64-6.6-96-9.7c-39.6-3.8-79.2-7.5-118.8-11.2
		c-39.4-3.7-78.8-7.6-118.2-11.3c-34-3.2-68-6.2-101.9-9.4c-35.3-3.3-70.6-6.7-105.8-10c-39.6-3.7-79.2-7.2-118.8-11
		c-32.5-3.1-64.9-6.1-97.3-9.6c-35.9-3.9-71.7-8.1-107.5-12.6c-29.7-3.8-59.4-8.2-89.1-12.3c-6-0.8-12.1-1.3-18.2-1.8
		c-8.2-0.6-15.3,1.2-22.4,6.4c-16,11.8-36.8,10.9-53-0.8c-1.6-1.1-3.2-2.1-3.3-2.2c-6.2,4.3-11.3,10.2-17.2,11.3
		c-6.4,1.2-13.8-1.7-20.5-3.8c-2.6-0.8-4.3-4.6-6.5-6.8c-1.5-1.5-3-3.4-4.9-4c-6.1-1.9-10.4-5.6-10.5-11.8
		c-0.1-7.5-4.8-11.1-9.6-15.1c-2.5-2.1-5.3-3.9-7.4-6.4C72,68.7,73,60.6,81.4,53.4c4-3.4,7.6-7.4,11.9-11.5
		c-15.7-3.1-30.1-6.3-44.6-8.5C41,32.3,33.1,33.1,25.3,33c-8.3-0.2-15-5.5-15.3-12.9c-0.1-2.3,1.9-4.6,2.9-7
		c1.1,3.8-0.3,9.1,6.2,9.4C26.9,23,28.7,21.1,28.6,12.1z"/>
	<path class="st1" d="M28.6,12.1c0.1,9-1.7,10.9-9.4,10.5c-6.6-0.3-5.1-5.6-6.2-9.4C18.2,12.8,23.4,12.5,28.6,12.1z"/>
</g>
</svg>
