<?xml version="1.0" encoding="utf-8"?>
<!-- Generator: Adobe Illustrator 21.1.0, SVG Export Plug-In . SVG Version: 6.00 Build 0)  -->
<svg version="1.1" id="Layer_1" xmlns="http://www.w3.org/2000/svg" xmlns:xlink="http://www.w3.org/1999/xlink" x="0px" y="0px"
	 viewBox="0 0 1035.9 488.4" style="enable-background:new 0 0 1035.9 488.4;" xml:space="preserve">
<style type="text/css">
	.st0{fill:#006C70;}
	.st1{fill:#008E79;}
</style>
<g>
	<path class="st0" d="M1020.1,165.9c3.7-4,3.6-7.4-0.8-10.2c-2.9-1.8-6.3-3.4-9.6-3.9c-10.5-1.4-21.1-2.8-31.7-3
		c-18.8-0.4-31.2-10.1-39.7-25.8c-1.8-3.4-2.9-13.9,0.2-19.8c3.1-5.8,10.2-11.3,13.1-12.7c5.1-2.4,9.9-5.3,14.6-8.5
		c2.8-1.9,5.3-2.9,8.7-2.4c10,1.4,20.1,2.8,30.1,3.7c4.4,0.4,8.9-0.3,13.4-0.8c1.4-0.1,2.9-1,4-1.8c2.3-1.8,2-3.6-0.7-4.8
		c-4.6-2-9.1-4.1-13.9-5.4c-9.9-2.7-20-4.9-30-7.3c-1.3-0.3-2.5-1.2-3.8-1.8c1.1-0.7,2.2-1.4,3.3-2c5.9-3.1,11.8-6.2,16.4-11.2
		c0.8-0.9,2.6-1,4-1.3c3.2-0.8,6.7-0.9,9.5-2.3c2.3-1.2,4.5-3.6,5.4-6.1c1.8-4.7,0.1-6.8-5-6.6c-4.3,0.1-8.6,0.6-12.9,0.8
		c-1.3,0.1-2.6-0.1-4-0.2c1-0.7,2-1.6,3.1-2.2c3.2-1.7,6.5-3.4,9.8-5c4.9-2.4,6.7-6.6,7.1-11.8c0.2-2-0.3-3.3-2.7-2.9
		c-1.1,0.2-2.3,0.2-3.4,0.6c-17.1,5.5-34,11.4-50.1,19.5c-6.7,3.4-12.2,6.9-16.8,13.1c-4.4,6-8.9,12-13,18.2c-3,4.7-6.9,9-11.1,12.7
		c-6.6,5.7-11.2,12.5-14.9,20.3c-4.5,9.4-9.7,18.5-14.6,27.8c-5.3,9.9-13.8,16.4-23.3,22c-11.6,6.8-24.4,10.5-37.3,13.8
		C778,170.1-11.7,346.7-9.2,350c-38.5,19.2-81.2,154.9,10.9,131.9c134.7-33.7,773.9-253.2,814.1-267.8c13.1-4.8,26.3-9.4,39.4-14.3
		c11.8-4.5,24-6.7,36.5-6.9c11.5-0.2,21.8-4.3,31.6-9.8c2-1.1,4.1-2.3,6-3.6c12.5-8.5,26.2-12,41.2-10.6c11.8,1.1,23.6,1.3,35.4-0.4
		c0.1-1.8,0-3.6,0.2-5.5c0.3-3.4,3-5.3,7.2-5.2c4.1,0.1,5.4,1.3,5.9,5C1019.2,163.9,1019.7,164.9,1020.1,165.9z"/>
	<path class="st1" d="M1020.1,165.9c-0.4-1-0.9-2-1-3.1c-0.5-3.7-1.8-4.9-5.9-5c-4.2-0.1-6.8,1.8-7.2,5.2c-0.2,1.8-0.1,3.6-0.2,5.5
		C1010.7,168.7,1015.7,168.8,1020.1,165.9z"/>
</g>
</svg>
