<?xml version="1.0" encoding="utf-8"?>
<!-- Generator: Adobe Illustrator 21.1.0, SVG Export Plug-In . SVG Version: 6.00 Build 0)  -->
<svg version="1.1" id="Layer_1" xmlns="http://www.w3.org/2000/svg" xmlns:xlink="http://www.w3.org/1999/xlink" x="0px" y="0px"
	 viewBox="0 0 342.9 1142.5" style="enable-background:new 0 0 342.9 1142.5;" xml:space="preserve">
<style type="text/css">
	.st0{fill:#5E5D98;}
	.st1{fill:#6769D1;}
</style>
<g>
	<g>
		<path class="st0" d="M240.7,47.6c-1.4,9.2-3.1,19.7-4.5,30.2c-0.3,1.8-1,5,0.7,5.5c1.7,0.5,3.3-2.3,4-4
			c5.4-12.4,10.6-24.7,15.8-37.2c2.8-6.8,3.7-10.2,6.7-16.9c2.7-6,8.7-9.8,13.3-8.2c4.6,1.5,6.1,8.7,3.9,15.2
			c-6.2,18.2-11.4,32.4-17.6,50.6c-0.8,2.3-3.9,9-1.7,10.3c1.3,0.8,2.9-0.4,3.3-1.3c3-5.4,5.8-10.8,8.6-16.3
			c4.4-8.7,8.6-17.6,13-26.4c1.2-2.5,5.8-13.2,13.1-9.8c4.3,2,3.8,5.2,3.5,7.7c-0.4,4.8-2.2,9.5-4,14c-6.2,15.1-12.7,30.1-19,45.3
			c-0.8,1.9-2.2,5-0.7,6.7c1.5,1.5,5.4-1.2,7.4-2.8c6.3-5.3,12.1-10.9,18.3-16.4c2.2-1.9,12.1-9,16.8-4.5c3.3,3.2,2.9,7.4-0.4,10.8
			c-8.9,9.1-17.8,18.2-26.9,27.1c-10.8,10.7-22.2,21.1-28.2,35.3c-4.7,11.2-8.8,22.9-11.3,34.7c-5.2,25.6-9.3,51.5-13.6,77.4
			c-1.3,7.5-1.7,15.2-2.6,22.9c-3.3,25.6-6.6,51.2-10.1,76.8c-4.4,32-8.9,64.2-13.6,96.2c-3.6,23.9-7.6,47.7-11.3,71.6
			c-4.4,29.1-8.7,58.4-13.2,87.6c-4,26.3-8.2,52.6-12.1,78.9c-6.5,44.2-12.9,88.4-19.4,132.6c-2.3,15.9-4.5,31.6-6.6,47.5
			c-5.8,44.4-11.8,88.7-17.2,133.1c-4.8,39.5-9.2,79.1-13.4,118.7c-2.5,23.5-4.3,47.1-6.4,70.6c-0.9,9.7-1,10-10.2,8.3
			c-28.3-4.8-56.4-9.9-84.7-14.6c-5.1-0.9-5.9-3.2-5.1-7.5c2.8-16.9,5.5-33.9,8.5-50.8c2-10.9,4.7-21.6,6.7-32.4
			c6.4-34.6,12.9-69.2,19.2-103.8c3.6-20.2,7.1-40.3,10.8-60.5c5.9-31.8,12.1-63.5,18-95.2c3.9-21.3,7.4-42.8,11.4-64.1
			c5.8-30.9,11.8-61.8,17.8-92.8c3.5-18.5,6.8-37,10.2-55.5c4.7-25,9.4-49.9,14-74.8c4-21.7,7.5-43.6,11.4-65.3
			c4.2-22.5,8.7-44.9,12.9-67.4c1.9-9.7,3.6-19.4,5.2-28.9c4.1-24.2,7.7-48.5,12.1-72.7c3.7-20.6,8.7-40.8,12-61.4
			c3.9-24.6,7.5-49.5,9.6-74.3c1.2-14.7-3.6-29.1-9.2-42.9c-8.3-20.5-17.3-47.4-19.2-58s-5.6-24.4,2.9-29
			c9.7-5.1,14.4,13.3,16.6,18.5c2.2,5.2,4.7,12.8,8.5,19c3.6,5.8,7.8,5.6,11.5-0.1c2.6-4.1,4.8-8.7,5.9-13.4
			c2.2-9.1,3.8-18.4,5.3-27.7c2.2-13.4,4.2-26.7,6.4-40.1c1.1-6.9,4.8-10.6,9.9-10.5c5.3,0.1,9.2,5.1,8.9,12.6
			C242.3,32.3,241.4,39.3,240.7,47.6z"/>
	</g>
	<path class="st1" d="M171,81.4c1.5,0.2,4.2,0.3,5.9-1.2c1.7-1.4,2-4.1,0.9-6.6c-1.2-2.8-2.9-3.5-5.7-2.8c-2.6,0.7-4.7,2.2-4.4,5
		C168.1,78.6,169.4,81.2,171,81.4z"/>
	<path class="st1" d="M238.4,23c0.1-1.6,0.1-3.4-1-4.7c-0.5-0.5-1-0.9-1.7-1.1c-0.2-0.1-0.4-0.2-0.7-0.4c-1.7-0.6-3.4-0.2-4.7,0.9
		c-1.4,1.1-2,2.8-2.2,4.5c-0.3,1.9-0.2,3.9,1.9,4.7c0.9,0.3,1.9,0.3,2.8,0.4c0.9,0.1,1.9,0.3,2.8,0.2C237.9,27,238.2,24.8,238.4,23z
		"/>
	<path class="st1" d="M277.2,23.1c-1.4-2.5-3.9-2.7-6-1.7c-2.1,0.9-3.8,2.8-4.3,4.9c-0.2,0.7,0.4,3.6,3.3,4.5
		c3.3,0.9,4.9,1.2,5.9-0.2C277.1,29.6,278.3,25.1,277.2,23.1z"/>
	<path class="st1" d="M300.1,46.4c0.1-2.7-2.4-3.7-4.6-3c-1.1,0.3-4.2,2.6-4.5,3.4c-0.8,1.3-0.4,3.1,1.1,3.6
		c0.9,0.3,1.8,0.6,2.6,0.8c0.9,0.2,1.9,0.6,2.8,0.4C299.9,51.1,300,48.4,300.1,46.4z"/>
	<path class="st1" d="M321.6,93.4c-0.3-1.4-1.4-2.2-2.6-2.4c-1.9-0.3-4.3,0.6-5.6,2.3c-0.7,0.5-1,1.2-1.1,2.2
		c-0.1,1.3,0.4,2.6,1.4,3.3c2.2,1.7,4.9,0.2,6.7-1.5C321.4,96.3,322,95,321.6,93.4z"/>
</g>
</svg>
