<?xml version="1.0" encoding="utf-8"?>
<!-- Generator: Adobe Illustrator 22.0.0, SVG Export Plug-In . SVG Version: 6.00 Build 0)  -->
<svg version="1.1" id="Layer_1" xmlns="http://www.w3.org/2000/svg" xmlns:xlink="http://www.w3.org/1999/xlink" x="0px" y="0px"
	 viewBox="0 0 20.5 26.5" style="enable-background:new 0 0 20.5 26.5;" xml:space="preserve">
<style type="text/css">
	.st0{opacity:0.9;fill:#004E28;enable-background:new    ;}
</style>
<path class="st0" d="M10.1,26.5c-0.1,0-0.1,0-0.2,0c-0.3,0-0.6,0-0.9,0c0,0-0.1,0-0.1,0C9,26.3,9,26.2,9,26.1
	c0.1-0.9,0.2-1.7,0.2-2.6c0-0.2,0-0.2-0.1-0.3c0,0.1-0.1,0.1-0.1,0.2c0,0-0.1,0.1-0.1,0.1c0,0.1-0.1,0.2-0.2,0.3c0,0-0.1,0-0.1,0
	c0,0,0,0,0,0c0,0.1-0.1,0.2-0.2,0.2c-0.1,0-0.2,0.1-0.3,0.1c-0.1,0-0.1,0-0.2,0.1c0,0-0.1,0-0.1,0c0-0.1,0-0.1,0-0.2c0,0,0,0,0,0
	c0,0,0,0.1-0.1,0.1c-0.1,0.1-0.2,0.2-0.3,0.1c-0.1,0-0.1,0-0.2,0c0,0-0.1,0-0.2-0.1c0,0,0,0,0-0.1c0,0,0-0.1,0-0.1
	c0-0.2,0-0.3-0.1-0.4c0,0,0,0,0,0c0,0,0,0.1,0,0.1c0,0.1,0,0.2,0,0.3c0,0,0,0.1,0,0.1c0,0.1,0,0.1-0.1,0.1c0,0,0,0,0,0
	c0,0,0,0.1-0.1,0.1c0,0,0,0-0.1,0c-0.2,0-0.2-0.1-0.2-0.2c0-0.1,0-0.1,0-0.2c0,0,0,0,0,0c0,0,0,0.1,0,0.1c0-0.1-0.1-0.1,0-0.2
	c0-0.2,0-0.3,0-0.5c0,0,0,0,0,0c0,0,0,0,0,0c0,0.1-0.1,0.2-0.1,0.2c-0.1-0.1,0-0.2,0-0.3c0,0,0-0.1,0-0.1c0,0,0,0.1,0,0.1
	c0,0.1,0,0.2,0,0.3c0,0,0,0,0,0.1c-0.2-0.1-0.3-0.2-0.5-0.3c0,0-0.1,0-0.1-0.1c0,0,0,0,0-0.1c0,0,0,0,0,0c-0.1,0.1-0.2,0.1-0.2,0
	c0,0,0-0.1,0-0.1c0,0,0-0.1,0-0.1c0,0,0.1,0,0.1,0c0,0,0-0.1,0-0.1c0,0,0-0.1-0.1-0.1c0,0-0.1,0-0.1,0c0,0.1,0,0.2,0,0.3
	c0,0,0,0.1,0,0.1c0,0-0.1,0.1-0.1,0.1c-0.1,0.1-0.2,0.3-0.2,0.4c0,0.1-0.1,0.1-0.1,0.2c-0.1,0-0.1,0-0.1-0.1c0-0.1,0-0.2,0-0.2
	c0.1-0.1,0-0.2-0.1-0.2c0,0,0,0-0.1,0.1c0,0-0.1,0-0.1,0c0,0,0,0,0-0.1c0,0,0,0,0.1,0c0,0,0.1,0,0.1,0c0.1,0,0.1,0,0.1-0.1
	c0-0.1,0-0.1,0-0.2c0-0.1,0-0.2,0-0.3c-0.1,0-0.1,0-0.1,0.1c0,0.1,0,0.2,0,0.2c0,0,0,0.1-0.1,0.1c0,0-0.1,0-0.1,0c0,0,0-0.1,0-0.1
	c0-0.1,0-0.2,0.1-0.3c0,0,0,0,0,0c0-0.1,0.1-0.3,0.1-0.4c0,0,0,0,0,0c0,0,0-0.1-0.1-0.1c0,0-0.1,0.1-0.1,0.1c0,0.1-0.1,0.3-0.1,0.4
	c0,0,0,0.1,0,0.1c-0.1-0.1-0.2-0.2-0.1-0.3c0-0.1,0-0.1,0-0.2c-0.1,0-0.1,0.1-0.1,0.2c0,0,0,0,0,0.1c0,0,0,0,0,0c0,0,0,0-0.1,0
	c0,0-0.1,0-0.1,0c-0.1,0-0.1,0-0.1,0c0,0.1,0,0.1,0,0.2c0,0,0,0.1-0.1,0.1c0-0.1-0.1-0.1-0.1-0.2c0,0,0-0.1,0-0.1
	c0-0.1,0-0.1-0.1-0.1c-0.1,0-0.1-0.1-0.1-0.2c0,0,0-0.1,0-0.1c0,0-0.1-0.1-0.2-0.1c0,0-0.1,0-0.1,0c-0.1,0-0.1,0-0.1,0.1
	c0,0.1,0,0.1,0,0.2c0,0.1,0,0.1-0.1,0.2c0,0-0.1,0-0.1,0c-0.1-0.1-0.1-0.3-0.1-0.4c0-0.1,0-0.1,0-0.2c-0.1,0-0.1,0-0.1,0.1
	c-0.1,0-0.1,0-0.2,0.2c0,0.1,0,0.2-0.1,0.2c0,0,0,0.1-0.1,0.1c0,0,0,0,0,0c0,0,0,0,0,0c0,0,0-0.1,0-0.1c0,0,0-0.1,0-0.1
	c0,0,0-0.1-0.1-0.1c-0.1,0-0.1,0-0.1-0.1c0-0.1,0-0.2,0-0.3c0,0,0-0.1,0-0.1c0,0-0.1,0-0.1,0c0,0-0.1,0-0.1,0c0,0-0.1,0-0.1,0
	c0,0,0,0,0,0c0,0,0,0,0-0.1c0,0,0-0.1,0-0.1c0,0,0-0.1,0-0.1c0,0,0,0,0,0c0,0-0.1,0-0.1,0c0,0.1-0.1,0.1-0.1,0.1c0,0,0,0.1,0,0.1
	c0,0.1,0,0.2-0.1,0.2c0,0,0,0-0.1,0.1c0,0-0.1-0.1-0.1-0.1c0-0.1,0-0.1,0.1-0.2c0,0,0.1-0.1,0.1-0.1c0,0,0-0.1,0-0.1
	c0-0.1-0.1-0.2-0.2-0.4c0,0.1,0,0.1-0.1,0.2c-0.1-0.1,0-0.2-0.1-0.3c-0.1,0.1-0.2,0.1-0.3,0.1c-0.1,0-0.1,0.1-0.1,0.1
	c0-0.1,0-0.2,0.1-0.3C0.9,21,1,21,1,20.9c0,0,0,0,0-0.1c0,0-0.1,0-0.1,0c0,0,0,0-0.1,0.1c-0.1,0.1-0.1,0.2-0.2,0.3c0,0-0.1,0-0.1,0
	c0,0,0-0.1,0-0.1c0-0.1,0.1-0.2,0.1-0.4c0,0,0-0.1,0-0.1c-0.1,0-0.1,0.1-0.1,0.2c-0.1,0-0.1-0.1-0.1-0.2c0-0.2,0-0.2-0.1-0.1
	c0,0,0,0,0,0c-0.1,0-0.1-0.1-0.2-0.1c0,0,0-0.1,0-0.1c0,0,0,0,0,0c0-0.1,0-0.1,0-0.1C0,20.2,0,20.1,0,20c0,0,0-0.1,0-0.1
	c0,0,0,0,0-0.1c0,0,0,0,0.1,0c0,0.1,0.1,0.1,0.1,0.2c0,0.1,0.1,0.2,0.2,0.3c0.1,0.1,0.2,0.2,0.4,0.2c0.1,0.1,0.3,0.1,0.4,0.2
	c0.1,0,0.1,0,0.2,0.1c0.1,0.1,0.3,0.1,0.5,0.1c0.1,0,0.2,0,0.3,0.1c0.1,0,0.1,0.1,0.2,0.1c0.2,0,0.4,0.1,0.6,0.1c0,0,0.1,0,0.1,0
	c0.1,0,0.3,0.1,0.4,0c0.1,0,0.1,0,0.2,0.1c0,0,0.1,0,0.1,0c0-0.1,0-0.1,0.1-0.2c0-0.1,0-0.1-0.1-0.1c0,0,0,0-0.1-0.1
	c0,0,0-0.1,0-0.1c0,0,0,0-0.1,0c0,0,0,0,0,0.1c0,0.1,0,0.1-0.1,0.2c0,0,0,0-0.1,0c0,0,0,0,0-0.1c0,0,0-0.1,0-0.1c0,0,0-0.1-0.1-0.1
	c0,0-0.1,0-0.1,0.1c0,0,0,0,0,0.1c-0.1-0.1-0.1-0.2-0.1-0.3c0,0,0,0,0,0c0,0,0,0,0,0.1c0,0.1-0.1,0.1-0.1,0.1
	c-0.1,0-0.1-0.1-0.1-0.1c0,0,0-0.1,0-0.1c0,0,0-0.1,0-0.1c0,0-0.1,0-0.1,0c-0.1,0.1-0.1,0.1-0.2,0.2c0,0-0.1,0-0.1,0
	c0,0,0-0.1-0.1-0.1c-0.1,0-0.1-0.1-0.1-0.2c0,0,0,0,0,0c-0.1-0.1-0.1-0.2-0.1-0.3c0-0.1,0.1-0.1,0.1-0.2c0-0.1,0-0.1,0-0.2
	c0-0.1,0-0.1,0-0.2c0,0,0,0,0,0c0,0-0.1,0.1-0.1,0.1c0,0-0.1,0.1-0.1,0c0,0,0-0.1,0-0.1c0,0,0,0,0,0c0,0,0,0,0-0.1c0,0,0,0-0.1,0
	c-0.1,0-0.1,0-0.2-0.1c0-0.1,0-0.2-0.1-0.2c0,0,0,0,0-0.1c0,0,0,0,0,0c0,0.1-0.1,0.3-0.1,0.4c0,0,0,0,0,0c0,0,0-0.1,0-0.1
	c0-0.1-0.1-0.2-0.1-0.2c0-0.1-0.1-0.1-0.2-0.1c0,0-0.1,0-0.1,0c0-0.1-0.1-0.2,0-0.2c0,0,0-0.1,0-0.1c0,0-0.1,0-0.1,0
	c0,0,0,0-0.1,0.1c0,0-0.1,0-0.1,0.1C1,19,0.9,19,1,18.9c0-0.2,0-0.2-0.1-0.3c-0.1,0-0.1-0.1,0-0.1c0,0,0.1-0.1,0.1-0.1
	c0,0.1,0,0.1,0.1,0.2c0,0.1,0,0.1,0.1,0.1c0,0,0.1,0,0.1,0c0.1,0.1,0.2,0.1,0.3,0.2c0,0,0,0,0.1,0c0.2,0,0.4,0.1,0.5,0.2
	c0,0,0.1,0,0.1,0c0,0,0.1,0,0.1,0.1c0,0,0,0,0,0c0,0,0,0,0-0.1c0,0,0-0.1,0-0.1c0,0,0.1,0,0.1-0.1c0,0,0,0,0,0.1
	c0,0.1,0,0.1,0.1,0.2c0.1,0.1,0.2,0,0.3,0c0-0.1,0-0.2-0.1-0.3c0-0.1,0-0.3,0-0.4c0-0.1,0-0.2-0.1-0.3c0,0,0,0-0.1-0.1
	c0,0,0,0.1,0,0.1c0,0.1,0,0.1,0,0.2c0,0,0,0.1,0,0.1c-0.1-0.1-0.1-0.2-0.2-0.2c0,0.1,0,0.1-0.1,0.2c0,0,0,0,0,0c0,0,0-0.1,0-0.1
	c0,0,0-0.1,0-0.1c0,0,0,0.1,0,0.1c0,0.1,0,0.2-0.1,0.3c0,0,0,0.1,0,0.1C2,19,2,18.9,2,18.8c0.1-0.1,0-0.2,0-0.2
	c-0.1-0.1-0.1-0.1-0.1-0.2c0,0,0,0,0-0.1c0,0,0,0,0,0c0,0-0.1,0-0.1,0.1c0,0,0-0.1,0-0.1c0-0.1,0-0.2,0-0.3c0,0,0-0.1,0-0.1
	c0,0,0,0,0,0c0,0,0,0,0,0c0,0.1-0.1,0.2-0.1,0.3c0,0,0,0-0.1,0.1c0-0.1,0-0.1-0.1-0.2c-0.1,0.1,0,0.2-0.2,0.2c0,0,0-0.1,0-0.1
	c0-0.1,0-0.1,0-0.2c0,0,0,0,0,0c-0.1-0.1-0.1-0.2-0.1-0.4c0,0,0,0,0,0c0,0-0.1,0-0.1,0c-0.1,0-0.2,0-0.3-0.1c0,0,0,0-0.1,0
	c0,0,0,0-0.1,0c0-0.1,0-0.2,0.1-0.2c0,0,0.1,0,0.1,0c0-0.1-0.1-0.2-0.1-0.2c-0.1-0.1-0.1-0.1,0-0.1c0,0,0.1-0.1,0.1-0.1
	c0-0.1,0.1-0.1,0.1,0c0,0.1,0.1,0.1,0.1,0.2c0,0.1,0.1,0.2,0.2,0.2c0.1,0,0.1,0.1,0.2,0.2c0.1,0.1,0.2,0.1,0.3,0.2
	c0.1,0,0.1,0.1,0.2,0.1c0.2,0.2,0.5,0.3,0.7,0.4c0,0,0.1,0,0.1,0c0,0,0,0,0,0c0-0.1,0-0.1,0-0.2c0-0.1,0-0.1,0-0.1
	c0.1-0.1,0.1-0.2,0.2-0.3c0,0,0,0,0-0.1c0,0,0,0,0-0.1c0,0,0,0,0,0c0,0,0,0,0,0c0,0,0,0.1-0.1,0c0,0,0,0,0,0c0,0.1,0,0.3-0.2,0.4
	c0-0.1,0-0.2,0-0.3c0,0,0-0.1,0-0.1c0,0,0-0.1,0-0.1c0,0-0.1,0-0.1,0c-0.1,0.1-0.2,0-0.2-0.1c0-0.1,0-0.1,0-0.2c0,0,0.1-0.1,0.1-0.2
	C2.1,17,2,17,1.9,17c-0.1,0-0.1,0-0.1,0c0-0.1,0-0.1,0-0.2c0,0,0-0.1,0-0.1c0,0,0.1,0,0.1,0c0,0,0.1,0.1,0.1,0.1
	C2.2,16.9,2.3,17,2.4,17c0,0,0.1,0,0.1,0.1c0.1,0.1,0.3,0.3,0.4,0.4c0.1,0.1,0.1,0.1,0.2,0.1c0.2,0,0.3,0.1,0.3,0.3
	C3.6,18,3.7,18,3.7,18c0.1,0.1,0.2,0.1,0.3,0.2c0.2,0.1,0.4,0.2,0.6,0.2c0,0,0-0.1,0-0.1c0-0.1,0-0.1,0-0.2c0-0.1,0.1-0.2,0.1-0.3
	c0-0.1-0.1-0.1-0.1-0.2c0,0,0,0,0,0c0,0,0,0.1,0,0.1c0,0.1,0,0.1,0,0.2c0,0,0,0.1,0,0.1c0,0,0,0-0.1,0c0,0,0,0,0,0
	c0-0.1,0-0.2,0-0.3c0-0.1,0.1-0.1,0.1-0.2c-0.1,0-0.1,0-0.2,0c0.1-0.1,0.1-0.1,0-0.2c0-0.1,0-0.1,0.1-0.1c0,0,0,0,0,0c0,0,0,0,0-0.1
	c0,0,0,0-0.1,0c0,0-0.1,0-0.1,0c0.1-0.1,0-0.2-0.1-0.3c0,0.1-0.1,0.2-0.1,0.3c0,0,0,0,0,0.1c0,0,0,0.1-0.1,0.1c0,0,0,0-0.1-0.1
	c0,0,0-0.1,0-0.1c0-0.1,0-0.2,0.1-0.3c0,0,0,0,0,0c0,0,0,0,0,0c-0.1,0-0.1,0-0.1,0c0,0,0,0-0.1,0c0,0,0-0.1,0-0.1c0-0.1,0-0.1,0-0.2
	c0-0.1,0-0.1-0.1-0.1c-0.1,0-0.1,0-0.1-0.1c0-0.1,0-0.1,0-0.2c0,0,0-0.1,0-0.1c-0.1-0.1-0.1-0.1,0-0.2c0,0,0-0.1,0.1-0.1
	C3.9,16,4,16.2,4.1,16.3c0.1,0.1,0.2,0.2,0.4,0.3c0,0,0-0.1,0-0.1c0-0.1,0-0.1,0.1-0.1c0,0,0.1,0,0.1-0.1c0,0-0.1,0-0.1,0
	c0,0,0,0-0.1,0c0,0,0,0,0,0c0,0,0.1,0,0.1-0.1c0,0-0.1,0-0.1,0c0,0,0,0-0.1,0c0,0,0,0-0.1-0.1c0,0,0,0,0,0c0.1,0,0.1-0.1,0.1-0.1
	c0-0.1-0.1-0.1-0.1-0.2c0.1,0,0.1,0,0.1,0.1c0,0,0,0.1,0,0.1c0.1,0.1,0.1,0.2,0.2,0.3c0.1,0.1,0.2,0.2,0.3,0.3c0,0.1,0.1,0.1,0.2,0
	c0,0,0.1,0,0.1,0c0,0,0,0,0-0.1c0,0,0.1,0,0.1,0.1c0,0.1,0,0.1,0,0.2c0,0,0,0,0,0.1c0,0,0,0,0-0.1c0,0,0-0.1,0-0.1c0,0,0,0,0-0.1
	c0,0,0,0,0,0.1c0,0,0,0,0,0.1c0,0,0,0.1,0,0.1c0.1,0.1,0.1,0.1,0.2,0.1c0,0,0,0,0,0c0.1,0,0.1,0,0.2,0.1c0.1,0.1,0.2,0.2,0.3,0.2
	c0.1,0.1,0.3,0,0.3-0.1c0,0,0-0.1,0-0.1c0,0-0.1,0-0.1,0c0,0-0.1,0.1-0.1,0.1c0,0,0,0-0.1,0c0,0-0.1,0-0.1-0.1c0-0.1,0-0.1,0.1-0.2
	c0,0,0-0.1,0-0.1c0,0-0.1-0.1-0.1-0.1c0,0,0,0,0,0c0,0,0,0,0,0.1c0,0,0,0-0.1-0.1c0,0,0-0.1,0-0.1c0,0,0,0,0,0c0,0,0,0.1,0,0.1
	c0,0,0,0,0,0c0,0,0,0,0-0.1c0-0.1,0-0.1,0-0.2c0,0,0,0,0-0.1c0,0-0.1,0-0.1,0c0,0,0,0.1,0,0.2c0,0.1,0,0.1,0,0.2
	c-0.1,0-0.1-0.1-0.1-0.2c0-0.1,0-0.2-0.1-0.3c0-0.1-0.1-0.1-0.2,0c0,0.1-0.1,0.1-0.1,0c-0.1,0-0.2-0.1-0.2-0.2c0,0,0-0.1,0-0.1
	c0,0,0,0,0,0c0,0,0,0-0.1,0.1c-0.1,0.1-0.2,0.1-0.3,0.1c0.1-0.1,0-0.2,0-0.4c0,0,0-0.1,0-0.1c0,0,0-0.1,0.1-0.1c0,0,0,0,0,0
	c0,0-0.1,0-0.1,0c0,0-0.1,0-0.1,0c0,0,0-0.1,0-0.1c0,0,0-0.1,0-0.1c0,0,0-0.1,0-0.1c-0.1-0.1-0.1-0.2,0-0.3c0.1,0,0.1,0.1,0.1,0.1
	c0,0,0,0.1,0,0.2c0.2,0,0.5,0,0.7,0c0,0,0,0,0,0c0,0-0.1,0-0.1-0.1c0,0,0-0.1-0.1-0.1c0,0-0.1,0-0.1,0c-0.1,0-0.1,0-0.1-0.1
	c0,0,0.1-0.1,0.1-0.1c0,0,0.1,0,0.1-0.1c0.1-0.1,0.1-0.1,0-0.1c0,0-0.1,0-0.1-0.1c0,0-0.1,0-0.1,0c0,0,0,0.1,0.1,0.1c0,0,0,0,0,0
	c-0.1,0-0.2,0-0.2-0.1c-0.1,0-0.2-0.2-0.1-0.3c0,0,0-0.1,0-0.1c0,0,0-0.1,0.1-0.1c0,0,0-0.1,0-0.1c0,0-0.1,0-0.1,0
	c0,0.1-0.1,0.1-0.1,0.2c0,0,0,0.1,0,0.1c0,0-0.1-0.1-0.1-0.1c-0.1,0-0.2-0.1-0.2-0.2c0,0,0-0.1-0.1-0.1c-0.1-0.1-0.1-0.1-0.2-0.2
	c0,0,0,0-0.1,0c0,0,0,0.1,0,0.1c0,0,0-0.1-0.1-0.1c-0.1,0.1-0.1,0.1-0.2,0.2c0,0,0,0.1-0.1,0.1c0,0-0.1,0-0.1,0c0,0,0-0.1,0-0.1
	c0,0,0-0.1,0-0.1c0-0.1,0-0.1-0.1-0.2c0,0,0,0-0.1,0c-0.1-0.1-0.1-0.1,0-0.1c0.1,0,0.1-0.1,0.2-0.1c0.1,0,0.1-0.1,0.1-0.1
	c0-0.1,0-0.1-0.1-0.1c-0.1,0-0.1-0.1-0.2-0.2c0.1,0,0.2,0,0.3,0.1c0,0,0.1,0.1,0.1,0.1c0,0,0,0,0,0.1c0,0.1,0,0.2,0.1,0.1
	c0.2,0,0.3,0.1,0.4,0.2c0.1,0,0.1,0.1,0.2,0.1c0,0,0.1,0,0.1,0c0.1,0,0.2,0.1,0.3,0.1c0.1,0,0.1,0,0.2,0.1c0,0,0.1,0,0.1,0
	c0,0,0-0.1,0.1-0.1c0,0,0,0-0.1,0c-0.2,0-0.2,0-0.2-0.2c0,0,0,0,0,0c0,0,0-0.1-0.1-0.1c0,0-0.1,0-0.1,0.1c0,0,0,0,0,0.1
	c-0.1-0.1-0.1-0.1-0.1-0.2c0,0,0,0,0,0c0,0-0.1-0.1,0-0.1c0,0,0,0,0-0.1c0,0-0.1,0-0.1-0.1c0,0,0-0.1,0-0.1c0,0,0-0.1,0-0.1
	c0,0,0,0,0-0.1c0,0,0,0,0,0c0,0,0,0,0,0C4.7,13,4.8,13,4.9,13.1c0,0,0,0,0,0c0,0,0-0.1,0-0.1c0-0.1-0.1-0.2-0.1-0.2
	c0-0.1,0-0.1,0-0.2c0,0,0,0,0-0.1c0-0.1,0-0.1-0.1,0c0,0-0.1,0-0.1,0c0,0,0-0.1,0-0.1c0,0,0-0.1,0-0.1c0,0,0-0.1,0-0.1
	c0-0.1,0-0.1,0-0.2c0,0,0,0,0-0.1c0,0.1,0.1,0.1,0.1,0.2c0,0,0,0,0.1,0c0,0,0,0,0,0c0,0,0,0,0-0.1c-0.1,0-0.1-0.1-0.1-0.2
	c0-0.1,0-0.1-0.1-0.2c-0.1-0.1,0-0.1,0-0.2c0.1,0,0.2-0.1,0.3-0.1c0,0,0.1-0.1,0.1-0.1c0,0,0,0,0,0c0,0-0.1,0-0.1,0
	c0,0-0.1-0.1-0.1-0.2c0,0,0,0,0-0.1c0,0,0,0,0,0c0,0,0.1,0.1,0.1,0.1c0.1,0,0.3,0.1,0.3,0.2c0,0,0.1,0,0.1,0c0,0,0.1-0.1,0.1-0.1
	c0-0.1,0-0.2,0-0.2c-0.1,0-0.1,0-0.2,0c-0.1,0-0.1,0-0.1-0.1c0-0.1,0-0.2,0-0.3c0,0,0-0.1-0.1-0.1c-0.1,0-0.1,0-0.2-0.1
	c-0.1-0.1-0.1-0.1-0.2-0.2c0,0-0.1-0.1-0.2-0.1c-0.1,0-0.3,0-0.4-0.1c0,0,0,0,0,0c0.1,0,0.1-0.1,0-0.1c0,0,0-0.1,0-0.1
	c0,0,0-0.1,0-0.1c-0.1-0.1-0.1-0.1,0-0.2c0,0,0.1,0.1,0.1,0.1c0,0,0.1,0.1,0.1,0.1c0,0,0,0,0,0.1c0,0.1,0.1,0.2,0.2,0.2
	c0,0,0,0,0.1,0c0.1,0,0.1,0,0.2,0.1c0,0,0.1,0.1,0.1,0.1c0,0,0.1,0,0.1-0.1c0,0,0,0,0,0c0,0,0,0.1,0,0.1c0,0.1,0,0.1,0.1,0.1
	c0.1,0.1,0.3,0.1,0.4,0.2c0.1,0,0.1,0,0.1-0.1c0-0.1,0-0.1,0-0.1c0,0,0-0.1,0-0.1c0,0,0,0,0,0c0,0,0.1,0,0.1,0.1
	c0,0.1,0.1,0.1,0.1,0.2c0,0,0,0.1,0.1,0.1c0.1,0.1,0.1,0.1,0.2,0.2c0,0,0.1,0,0.1,0c0,0,0-0.1,0-0.1c0,0,0-0.1,0-0.1
	c0,0,0-0.1,0-0.1c0-0.1,0-0.2,0.1-0.3c0.1,0,0.1-0.1,0.1-0.2c0-0.1,0-0.1,0-0.2C6.4,9.6,6.4,9.7,6.3,9.7c0,0-0.1,0.1-0.1,0.1
	c0,0-0.1,0-0.1,0c0,0,0,0,0-0.1c0,0,0-0.1,0.1-0.1c0,0,0-0.1,0-0.1c0,0,0,0.1,0,0.1c0,0.1,0,0.1-0.1,0.1c0,0-0.1,0-0.1,0.1
	c0,0,0,0,0,0c0,0-0.1-0.1-0.1-0.1c0,0,0-0.1,0.1-0.1c0,0,0.1,0,0.1-0.1c0,0,0-0.1,0-0.1c0,0-0.1,0-0.1,0c0,0-0.1,0-0.1,0.1
	c-0.1,0-0.1,0-0.1,0c0,0,0,0,0-0.1c0,0-0.1,0-0.1,0c0-0.1,0-0.1,0-0.2c0,0,0,0,0-0.1c0,0,0,0,0-0.1c0,0,0,0-0.1,0c0,0,0,0-0.1,0
	C5.5,9.1,5.6,9,5.6,8.9c0,0-0.1,0-0.1,0c0-0.1,0.1-0.1,0-0.2c0,0,0,0-0.1,0.1c0,0-0.1,0-0.1,0c0-0.1,0-0.2-0.1-0.3c0,0,0,0,0,0
	c0,0,0-0.1,0-0.1c0.1,0,0.1,0,0.1,0.1c0,0,0,0.1,0.1,0.1c0,0,0.1,0,0.1,0c0,0,0-0.1,0-0.1c0,0,0-0.1-0.1-0.1c0,0,0-0.1,0-0.1
	c0,0,0.1,0,0.1,0c0,0,0,0,0,0c0,0.1,0,0.1,0.1,0.2c0,0,0,0,0,0.1c0,0.1,0.1,0.2,0.3,0.2c0.2,0,0.3,0,0.4,0c0.1,0,0.1,0,0.2-0.1
	c0,0,0.1,0,0.1,0C6.9,8.8,7,8.9,7.2,8.9c0.1,0,0.1,0,0.2,0c0.1,0,0.2,0,0.3,0c0.1,0,0.1,0,0.1-0.1c0-0.1,0-0.1,0-0.2
	c0,0,0-0.1,0-0.1c0,0-0.1,0-0.1,0c-0.1,0.1-0.1,0.1-0.2,0C7.4,8.6,7.3,8.6,7.2,8.6c0,0-0.1,0-0.1-0.1c0,0,0,0,0,0c0.1,0,0.1,0,0.2,0
	c0.1,0,0.1,0,0.1-0.1c0,0,0-0.1,0-0.1c0-0.1,0-0.1,0.1-0.1c0.1,0,0.1,0,0.2,0.1c0.1,0,0.1,0.1,0.2,0.1c0,0,0.1,0,0.1,0
	c0,0,0,0,0-0.1c0,0,0-0.1-0.1-0.1c0-0.1-0.1-0.2-0.1-0.3c0,0,0,0,0,0c0,0,0,0,0,0.1c0,0,0,0.1,0,0.1c0,0.1-0.2,0.2-0.3,0.1
	c0,0,0-0.1-0.1-0.1c0,0,0,0,0-0.1c0,0,0,0,0,0C7,7.9,7,8,7,8C7,8,7,8,7,8c-0.1,0-0.1,0-0.1,0.1c0,0.1,0,0.1-0.1,0.2
	C6.8,8.2,6.7,8.1,6.8,8.1c0-0.1,0.1-0.2,0.1-0.3c0,0,0,0,0-0.1c0,0,0,0,0,0c0,0-0.1,0-0.1,0.1C6.7,7.9,6.6,8,6.6,8.2
	c0,0,0,0.1-0.1,0.1c-0.1,0-0.1,0-0.1-0.1c0-0.1,0-0.2,0.1-0.3c0,0,0-0.1,0.1-0.1c0,0-0.1,0-0.1,0c0,0-0.1,0-0.1,0
	c-0.1,0-0.1,0-0.1-0.1c0,0,0-0.1,0-0.1c0-0.1,0-0.1-0.1-0.1c-0.1,0-0.1,0-0.1-0.1c0,0,0-0.1,0-0.1c0,0,0,0,0,0
	c-0.1,0-0.1-0.1-0.1-0.2c0,0,0-0.1,0.1-0.2c0,0,0,0,0.1,0c0.1,0.1,0.2,0.2,0.3,0.3c0.1,0.1,0.1,0.1,0.2,0.1c0.1,0,0.3,0.1,0.4,0.1
	c0.1,0,0.2,0.1,0.3,0c0,0,0,0,0,0c0.1,0,0.1,0.1,0.2,0.1c0,0,0,0,0.1,0c0,0,0,0,0-0.1c0,0,0-0.1,0-0.1c0,0,0,0,0,0
	c0,0-0.1-0.1-0.1-0.1c-0.1,0-0.1-0.1,0-0.1c0,0,0.1-0.1,0.1-0.2c0,0,0-0.1,0-0.1c0,0-0.1,0-0.1,0c0,0.1-0.1,0.1-0.2,0.1
	c0,0,0,0-0.1,0.1c0,0.1-0.1,0.1-0.1,0c0,0,0-0.1,0-0.1c0,0,0-0.1-0.1-0.1C7.2,7.2,7.1,7.2,7.1,7.3c0,0-0.1,0-0.1,0
	c0-0.1,0-0.2,0.1-0.2c0,0,0-0.1,0-0.1c0,0,0-0.1,0-0.1C7,6.9,7,6.9,7,7C6.9,7,6.9,7.1,6.8,7c0,0,0,0-0.1,0c0,0.1,0,0.1,0.1,0.1
	c0,0,0,0,0,0c0,0,0,0,0,0c0,0,0,0-0.1,0c0,0-0.1,0-0.1,0c-0.1,0-0.1,0,0-0.1c0.1-0.1,0.1-0.3,0.1-0.4c0-0.1,0-0.1-0.1-0.1
	c-0.1,0-0.1,0-0.2,0c0,0-0.1,0-0.1-0.1c0,0,0-0.1,0-0.1c0,0,0,0,0.1,0c0.1,0,0.1-0.1,0-0.1c-0.1,0-0.1,0-0.1-0.2c0-0.1,0-0.2,0-0.2
	c0,0,0,0,0-0.1c0,0,0,0,0.1,0.1c0,0,0,0.1,0,0.1c0,0,0,0.1,0,0.1c0,0,0,0.1,0,0.1c0,0.1,0,0.1,0.1,0.2c0.1,0,0.2,0.1,0.2,0.2
	c0,0,0,0,0,0c0.1,0.1,0.2,0.1,0.3,0.2c0,0,0.1,0,0.2,0.1c0.1,0,0.2,0.1,0.4,0.1c0.1,0,0.2,0.1,0.4,0.1c0,0,0-0.1,0-0.1
	c0-0.1-0.1-0.1-0.1-0.2c0,0,0-0.1,0-0.1c0.1,0,0.1,0.1,0.2,0.2c0,0.1,0.1,0.1,0.1,0c0-0.1,0.1-0.2,0.1-0.3c0,0,0,0-0.1,0
	c0,0-0.1,0-0.1,0.1c-0.1,0-0.1-0.1-0.1-0.2c0-0.1,0-0.1-0.1-0.2c0,0,0-0.1,0-0.1c0.1-0.1,0.1-0.2,0-0.3c0,0,0,0-0.1,0
	c0.1-0.1,0.1-0.2,0.1-0.3c0-0.1,0-0.1-0.1-0.1C8,5.6,7.9,5.6,7.8,5.7c0,0-0.1,0-0.1,0c-0.1,0-0.1,0-0.2,0c0,0-0.1,0-0.1,0
	c0,0,0-0.1,0-0.1c0,0,0,0,0,0c0,0,0,0,0-0.1c0,0,0,0-0.1,0c0,0,0,0,0,0.1c0,0.1,0,0.2-0.1,0.2c0,0,0,0,0,0.1C7.2,5.8,7.2,5.9,7.2,6
	c0,0,0,0,0,0.1c0,0,0,0-0.1,0c0,0-0.1-0.1-0.1-0.1C7,5.9,6.9,5.8,7,5.8c0,0,0.1-0.1,0.1-0.1c0,0,0,0,0-0.1c0,0-0.1,0-0.1,0
	c0,0.1-0.1,0.1-0.2,0.1c0,0-0.1,0-0.1,0c0,0,0-0.1,0-0.1c0,0,0-0.1,0.1-0.1c0-0.1,0.1-0.1,0.1-0.2c0,0,0-0.1,0-0.1
	c-0.1,0-0.1,0-0.2,0.1c0,0-0.1,0-0.1,0c0,0,0-0.1,0-0.1c0,0,0-0.1,0-0.1c0-0.1,0-0.1-0.1-0.1c0,0-0.1,0-0.1,0c-0.1,0-0.1,0-0.1-0.1
	c0,0,0-0.1,0.1-0.1c0,0,0,0,0.1-0.1c-0.1,0-0.1,0-0.1,0c-0.1,0-0.1,0-0.1-0.1c0-0.1,0-0.1-0.1-0.2c0,0,0,0,0-0.1c0,0,0.1,0,0.2,0
	c0,0,0,0,0,0c0.1,0.1,0.2,0.2,0.3,0.3C6.6,4.9,6.7,4.9,6.8,5c0,0,0.1,0.1,0.1,0.1c0,0,0,0,0.1,0c0.1,0,0.2,0.1,0.3,0.1
	c0,0,0,0,0.1,0c0.1,0,0.1,0,0.2,0.1c0.1,0.1,0.1,0,0.2-0.1c0,0,0-0.1,0-0.1c0,0,0,0,0,0c-0.1,0.1-0.1,0.1-0.1,0c0,0,0,0,0-0.1
	c0,0,0-0.1-0.1-0.1c0,0,0,0,0,0c0,0,0,0,0.1,0c0,0,0,0,0.1,0c0,0,0.1,0,0.1,0c0-0.1,0-0.2,0-0.2c0,0,0,0-0.1,0c-0.1,0-0.1,0-0.2,0.1
	c0,0-0.1,0-0.1,0c0,0,0-0.1,0-0.1c0,0,0-0.1,0-0.1c0,0,0-0.1,0-0.1c-0.1,0-0.1,0-0.2,0c0,0,0,0,0,0c0,0,0,0,0,0c0,0,0-0.1,0.1-0.1
	c-0.1,0-0.2,0-0.3,0c0,0,0,0,0,0c0,0,0,0,0,0C7,4.3,7,4.2,7,4.1C7,4,7,3.9,7.1,3.9c0.1-0.1,0.1,0,0.1,0.1c0,0,0,0.1,0,0.1
	c0,0.1,0.1,0.1,0.1,0.1c0.1,0,0.2,0.1,0.3,0.1c0,0,0.1,0,0.1,0C7.7,4.2,7.6,4.1,7.6,4c0.1-0.1,0.1,0,0.2,0c0-0.1,0-0.1,0-0.2
	c0,0,0-0.1,0-0.1c0,0,0-0.1,0-0.1c0,0,0.1,0,0.1,0.1c0,0,0,0.1,0,0.1c0,0.1,0,0.1,0.1,0.1c0,0,0,0,0.1,0c0,0,0,0,0,0.1
	c0,0,0,0,0,0.1c0,0,0,0.1,0.1,0.1c0.1,0.1,0.3,0.2,0.4,0.3c0,0,0.1,0,0.2,0.1c0,0,0,0,0.1,0C8.5,4.4,8.4,4.3,8.5,4.2c0,0,0,0,0,0
	c0,0,0,0.1-0.1,0.1c0,0-0.1,0.1-0.1,0.1c0,0-0.1,0-0.1-0.1c0,0,0-0.1-0.1-0.1c0,0,0-0.1,0-0.1c0,0,0,0,0,0c0,0,0.1,0.1,0.1,0.1
	c0,0,0,0,0.1,0C8.3,4,8.4,4,8.4,3.9c0,0,0,0,0-0.1c0-0.1,0-0.2,0-0.3c0,0,0-0.1,0-0.1c0,0,0,0-0.1,0c-0.1,0-0.1,0-0.1,0.1
	c0,0,0,0.1-0.1,0.1c-0.1,0-0.1,0-0.1,0.1c0,0,0,0,0,0c0,0,0,0,0,0c0,0,0-0.1,0-0.1c0,0,0,0,0,0c0-0.1,0-0.2,0.1-0.3
	c0,0,0-0.1-0.1-0.1c0,0-0.1,0-0.1,0C8,3.4,8,3.4,7.9,3.5c0-0.1-0.1-0.1-0.1-0.2c0,0,0-0.1,0.1-0.1c-0.1,0-0.1-0.1,0-0.2c0,0,0,0,0,0
	c0-0.1,0-0.1-0.1-0.1c-0.1,0-0.3-0.1-0.3-0.3c0,0,0,0,0,0c0,0,0,0,0,0c0,0,0,0,0.1,0.1c0,0,0.1,0.1,0.1,0.1c0.1,0,0-0.1,0-0.1
	c0,0-0.1-0.1-0.1-0.1c0-0.1,0-0.1,0-0.2c0,0,0.1,0,0.1,0c0,0,0,0,0,0c0,0.1,0,0.1,0.1,0.1c0,0,0,0,0.1,0c-0.1,0.1-0.1,0.1,0,0.1
	c0,0,0,0.1,0,0.1c0,0,0,0.1,0.1,0.1c0.1,0,0.1,0.1,0.2,0.1c0-0.1,0-0.1,0.1-0.1c0,0,0,0,0-0.1c0,0,0,0,0-0.1c0,0-0.1,0-0.1,0
	c0,0-0.1,0-0.1-0.1c0,0,0,0,0-0.1c0-0.1,0-0.1-0.1-0.1c-0.1,0-0.1,0-0.1-0.1c0-0.1,0-0.1,0-0.1c0,0,0,0,0.1,0c0,0,0.1,0,0-0.1
	c0,0,0,0,0-0.1c0,0,0,0,0,0c0,0,0,0,0,0c0.1,0.1,0.1,0,0.1,0c0-0.1,0.1-0.1,0.1-0.1c0.1-0.1,0-0.1,0-0.2C8.1,1.6,8.1,1.5,8,1.4
	c0.1,0,0.2,0,0.3,0.1c0,0,0,0,0,0.1c0,0,0,0,0,0.1c0,0,0.1,0,0.1,0c0,0,0-0.1,0-0.1c0,0,0,0,0,0c0,0,0,0,0,0c0,0,0,0.1,0,0.1
	c0,0.1,0,0.1,0,0.1c0,0,0,0,0.1,0c0,0,0-0.1,0-0.1c0,0,0,0,0-0.1c0.1-0.1,0-0.1,0-0.1c0,0-0.1-0.1-0.1-0.1c0,0-0.1-0.1-0.1-0.1
	c0,0,0-0.1,0-0.1c0,0,0.1,0,0.1,0c0,0,0.1,0,0.1,0.1c0,0,0.1,0.1,0.1,0.1C8.8,1.4,8.9,1.5,9,1.6c0,0,0,0,0.1,0.1
	c0.1-0.1,0.1-0.1,0.2-0.2c0,0,0,0,0,0c0,0-0.1,0-0.1,0C9,1.4,8.9,1.3,8.9,1.2c0.1,0,0.1,0,0.2,0.1c0,0,0,0,0,0c0,0,0-0.1,0-0.1
	C9,1.1,9,1,8.9,0.9c0,0-0.1-0.1,0-0.1c0,0,0.1,0,0.1,0c0,0,0,0,0,0C9.1,1,9.2,1,9.3,1.1c0,0,0,0,0.1,0c0,0,0,0,0,0c0,0,0.1,0,0.1,0
	c0,0,0-0.1-0.1-0.1C9.4,1,9.4,1,9.3,1c0,0-0.1,0-0.1,0c0,0,0,0-0.1,0c0-0.1,0.1-0.1,0.1-0.2c-0.2,0-0.1-0.1-0.2-0.2
	c0,0,0-0.1,0.1-0.1c0,0,0,0,0,0c0,0,0.1,0,0.1,0c0,0,0,0.1,0.1,0.1c0,0,0.1,0,0.1,0.1c0,0,0,0,0,0c0,0,0,0,0-0.1
	c0-0.1-0.1-0.1-0.1-0.2c-0.1-0.1-0.1-0.1,0-0.2c0,0,0.1-0.1,0.1-0.1c0,0,0,0.1,0,0.1c0,0.1,0,0.1,0,0.2c0,0,0.1,0.1,0.1,0.1
	c0,0,0,0,0.1,0c0,0,0,0,0-0.1c0,0,0,0,0,0C9.4,0.3,9.4,0.2,9.4,0.1c0,0,0-0.1,0-0.1c0,0,0.1,0,0.1,0c0,0.1,0.1,0.1,0.2,0.1
	c0.1,0,0.1,0,0.1,0.1c0,0.1,0,0.2,0,0.3c0,0,0,0,0,0.1c0,0,0,0,0,0c0,0,0,0,0,0c0-0.1,0-0.2,0-0.2c0,0,0,0,0,0c-0.1,0-0.1-0.1,0-0.1
	c0-0.1,0.1-0.1,0.1-0.2c0,0,0,0,0,0c0,0.1,0,0.1,0,0.1c0,0.1,0,0.1,0.1,0.2c0,0,0,0.1,0,0.1c0,0.1,0,0.1,0,0.2c0,0,0,0,0,0.1
	c0,0,0,0,0,0c0-0.1,0-0.1,0.1-0.2c0-0.1,0.1-0.1,0.1-0.2c0,0.1,0.1,0.2,0.1,0.3c0,0.1,0,0.1,0.1,0.2c0,0,0,0,0.1,0c0,0,0,0,0-0.1
	c0-0.1,0.1-0.1,0.1-0.2c0,0.1,0,0.1,0,0.1c0,0.1-0.2,0.2-0.1,0.3c0,0,0,0.1,0,0.1c-0.1,0-0.1,0-0.1,0c0,0,0,0,0,0c0,0,0,0.1,0,0.1
	c0,0,0,0,0.1,0c0,0,0.1,0,0.1,0c0,0,0,0.1,0,0.1c-0.1,0-0.2,0.1-0.2,0.1c-0.1,0-0.1,0-0.1,0.1c0,0.1,0.1,0.1,0.1,0.2
	c0,0.1,0,0.1-0.1,0.1c0,0,0,0.1-0.1,0.1c0,0,0,0.1-0.1,0.1c0,0,0,0,0,0.1c0,0,0,0,0.1,0c0,0,0,0,0,0c0,0,0.1-0.1,0.1-0.1
	c0,0,0.1-0.1,0.1-0.1c0-0.1,0-0.2,0-0.3c0,0,0,0,0-0.1c0,0,0,0,0-0.1c0,0,0,0,0.1,0c0,0,0.1,0,0.1,0.1c0,0,0,0,0.1,0
	c0,0,0-0.1,0-0.1c0,0,0,0-0.1-0.1c0,0,0.1,0,0.1,0c0,0,0.1,0,0.1-0.1c0,0,0.1,0,0.1,0c0,0,0,0,0,0.1c0,0,0,0,0,0.1
	c0.1-0.1,0.1-0.1,0.2-0.2c0,0,0-0.1,0.1-0.1c0.1,0,0.1,0,0.1,0.1c0,0,0,0.1,0.1,0.1c0,0,0,0,0,0.1c0,0,0,0,0,0c0,0,0-0.1,0-0.1
	c0-0.1,0-0.1,0.1-0.1c0.1,0,0.1,0,0.1,0.1c0,0.1,0,0.1,0,0.2c0,0,0,0-0.1,0c0,0,0,0,0-0.1c0-0.1,0-0.1,0-0.2c0,0,0,0,0,0
	c-0.1,0.1-0.1,0.1-0.1,0.2c0,0.1,0,0.1,0.1,0.2c0,0-0.1,0-0.1,0c0,0,0,0.1,0,0.1c0,0.1,0,0.1,0,0.2c0,0,0,0.1,0,0.1c0,0,0,0,0,0.1
	c0,0,0,0,0,0.1c0,0,0,0-0.1,0c0,0,0,0,0,0c0,0,0,0,0,0c0,0,0,0,0.1,0c0,0,0.1,0,0.1,0c0,0,0.1,0,0.1,0c0,0,0,0.1-0.1,0.1
	c0,0-0.1,0-0.1,0.1c0,0,0,0,0,0.1c0.1,0,0.1,0,0.2,0c0.1-0.1,0.1-0.1,0.1,0c-0.1,0-0.1,0.1-0.2,0.2c0,0,0,0.1,0.1,0.1
	c0,0,0.1,0,0.1,0c0,0,0,0,0,0c-0.1,0-0.1,0-0.2,0c0,0-0.1,0-0.1,0.1c0,0,0,0.1,0,0.1c0,0,0,0,0,0c0,0,0,0.1,0,0.1c0,0-0.1,0-0.1-0.1
	c0,0,0-0.1,0-0.1c0,0,0-0.1-0.1-0.1c0,0,0,0,0,0.1c0,0.1,0,0.1,0.1,0.2c0,0,0,0.1,0,0.1c0,0,0,0.1,0,0.1c0,0,0,0.1-0.1,0.1
	c0,0,0,0,0,0.1c0,0.1,0,0.1,0,0.2c0,0,0,0.1,0,0.1c0,0.1,0,0.1-0.1,0.1c-0.1,0-0.1,0-0.1,0.1c0,0.1,0,0.1,0,0.2c0,0,0,0,0,0
	c0,0,0.1,0,0.1,0c0.1,0,0.1,0,0.2,0c0,0,0,0,0,0c0-0.1,0-0.1-0.1-0.1c-0.1-0.1-0.1-0.1,0-0.1c0,0,0,0,0,0c0,0.1,0.1,0.1,0.1,0.2
	c0,0,0,0,0.1,0c0.1,0,0.1,0,0.2,0c0,0,0,0,0,0c0-0.1,0.1-0.1,0.1-0.2c0-0.1,0-0.1,0.1-0.2c0,0,0.1-0.1,0.1-0.1c0,0,0-0.1-0.1-0.1
	c0,0,0,0,0,0c0,0,0,0,0-0.1c0,0,0,0,0.1,0c0.1,0,0.1,0,0.2,0c0,0,0-0.1,0.1,0c0.1,0,0.1,0,0,0.1c0,0,0,0-0.1,0.1c0,0,0,0,0,0
	c0.1,0.1,0.2,0,0.2,0c0-0.1,0.1-0.1,0.1,0c0,0,0,0.1,0,0.1c-0.1,0-0.1,0-0.2,0.1c-0.1,0-0.1,0.1-0.2,0.2c0,0,0,0,0,0.1
	c0,0,0,0,0.1,0c0,0,0-0.1,0.1-0.1c0.1,0,0.1,0,0.2,0c0,0,0,0,0,0c-0.1,0-0.1,0-0.2,0.1c0.1,0.1,0.3,0.1,0.3,0c0-0.1,0.1-0.1,0.1-0.2
	c0,0,0,0,0.1-0.1c0,0,0,0.1,0.1,0.1c0,0,0,0.1,0,0.1c0,0,0,0.1,0.1,0.1c0,0,0,0,0.1,0.1C13,3.9,13,4,13.1,4.2c0,0,0,0.1,0,0.1
	c0,0-0.1,0-0.1,0c-0.2-0.1-0.3-0.1-0.4,0c0,0-0.1,0-0.1,0.1c0,0,0,0,0,0c0,0,0,0,0.1-0.1c0,0,0,0,0-0.1c0,0-0.1,0-0.1-0.1
	c0,0,0-0.1-0.1-0.1c0,0,0,0,0,0c0,0,0,0.1,0,0.1c0,0.1,0,0.2,0.1,0.2c0,0,0.1,0.1,0.1,0.1c0,0,0,0,0.1,0c0,0,0,0-0.1,0
	c0,0,0,0-0.1,0c-0.1,0-0.1,0-0.1,0.1c0,0,0,0,0,0c0,0.1-0.1,0.1,0.1,0.2c-0.1,0-0.1,0-0.1,0c0,0-0.1,0-0.1,0.1c0,0,0,0.1,0,0.1
	c0,0.1,0,0.1,0,0.1c-0.1,0.1-0.1,0.1-0.1,0.2c0,0.1-0.1,0.1-0.2,0c0,0,0,0-0.1,0c0,0.1,0.1,0.2,0.1,0.2c0.1-0.1,0.1-0.1,0.2-0.1
	c0,0,0.1-0.1,0.1-0.1c0,0,0.1-0.1,0.1-0.1c0,0,0.1,0,0-0.1c0-0.1,0-0.2,0.1-0.2c0.1,0,0.1-0.1,0.1-0.2c0,0,0-0.1,0.1-0.1
	c0-0.1,0.1-0.1,0.1-0.2c0,0,0-0.1,0.1,0c0.1,0.1,0.1,0.1,0,0.2c0,0,0,0.1,0,0.1c0,0,0,0.1,0,0.1c0,0-0.1,0.1-0.1,0.1
	c0,0-0.1,0-0.1,0c0.1,0,0.1,0.1,0.2,0.1c0,0,0,0,0.1,0C13,5.1,13,5.1,13,5.2c0,0,0,0.1,0,0.1c0.1,0.1,0.1,0.2,0.1,0.3
	c0,0,0,0.1,0,0.1c0,0,0,0,0-0.1c0,0,0-0.1,0-0.1c0,0,0,0-0.1,0c0,0,0,0.1,0,0.1c0,0,0,0.1,0.1,0.1c0,0,0,0.1,0,0.1
	C12.9,5.9,12.8,6,12.7,6c0,0-0.1,0-0.1,0c0,0.1-0.1,0.1-0.1,0.1c-0.1,0-0.1,0-0.1,0.1c0,0.1-0.1,0.1-0.1,0.2c0,0,0,0.1,0,0.1
	c0,0-0.1,0-0.1,0c0,0,0-0.1-0.1-0.1c0,0,0,0.1-0.1,0.1c0,0.1,0,0.1,0,0.2c0,0.1,0,0.1-0.1,0.1c0,0,0,0-0.1,0c0,0,0,0,0,0.1
	c-0.1,0-0.1,0-0.2,0.1c-0.1,0-0.1,0-0.1-0.1c0-0.1,0-0.1,0-0.2c-0.1,0-0.1,0.1-0.1,0.1c0,0-0.1,0-0.1,0c0-0.1-0.1,0-0.2,0
	c0,0,0,0-0.1,0.1c0,0,0,0,0,0.1c0,0,0,0.1,0,0.1c-0.1,0-0.1-0.1-0.1-0.1c0-0.1,0-0.1-0.1-0.1c0,0,0,0.1,0,0.1c0,0.1,0,0.1-0.1,0.1
	c0,0,0,0,0,0c0,0.1-0.1,0.1-0.1,0.2c0,0,0,0.1,0,0.1c0,0,0,0.1,0.1,0.2c-0.1,0-0.1,0-0.1,0.1c0,0-0.1,0-0.1,0c0,0,0,0.1,0,0.1
	c0,0,0,0,0,0c0.1,0,0.2,0,0.2-0.1c0-0.1,0.1-0.1,0.1-0.2c0,0,0.1,0,0.1,0c0,0,0,0,0,0.1C11,7.4,11,7.4,11,7.5c0,0,0,0.1,0,0.1
	c0.1,0,0.2,0,0.3,0c0.1-0.1,0.3-0.1,0.4-0.2c0,0,0,0,0.1,0c0.1-0.1,0.2-0.2,0.3-0.2c0,0,0.1,0,0.1-0.1c0.1-0.1,0.2-0.2,0.3-0.2
	c0,0,0,0,0,0c0,0-0.1-0.1-0.1-0.1c0-0.1,0.1-0.1,0.2-0.1c0,0,0.1,0,0.1,0c0,0,0.1,0,0,0.1c0,0-0.1,0.1-0.1,0.1c0,0,0,0,0,0.1
	c0,0,0,0,0.1,0c0,0,0.1,0,0.1-0.1c0.1-0.1,0.1-0.2,0.1-0.4c0.1,0,0.2,0.1,0.3,0.1c0,0,0,0,0,0c0,0-0.1,0-0.1,0
	c-0.1,0-0.1,0.1-0.1,0.1c0,0,0,0.1,0.1,0c0.1-0.1,0.2-0.1,0.2-0.2c0-0.1,0.1-0.1,0.1-0.1c0,0,0,0,0.1,0c0,0-0.1-0.1-0.1-0.1
	c0,0,0,0,0,0c0,0,0,0,0.1,0c0,0,0.1,0,0.1,0c0,0,0.1,0,0.1,0c0.1-0.1,0.1-0.2,0.2-0.3c0,0,0,0,0,0c0,0,0.1-0.1,0-0.1c0,0,0,0,0-0.1
	c0,0,0-0.1,0-0.2c0,0,0,0,0-0.1c0,0,0,0,0.1,0c0,0,0.1,0.1,0.2,0.1c0,0,0,0-0.1,0.1c-0.1,0-0.1,0.1,0,0.1C14,5.9,14,5.9,14,6
	c0.1,0.1,0,0.1,0,0.2c-0.1,0-0.1,0.1-0.1,0.2c0,0,0,0.1-0.1,0.1c0,0,0,0-0.1,0c-0.1,0-0.1,0.1,0,0.1c0,0.1,0.1,0.1,0.2,0.1
	c-0.1,0.1-0.1,0.1-0.2,0.1c0,0,0,0-0.1,0.1c0,0,0,0,0,0.1c0,0,0,0,0,0c0,0,0,0,0,0c0,0,0-0.1,0-0.1c-0.1,0.1-0.1,0.1-0.2,0.2
	c0,0,0,0.1,0,0.1c0,0.1-0.1,0.1-0.1,0.1c0,0-0.1,0-0.1-0.1c0,0,0-0.1-0.1-0.1c0,0-0.1,0-0.1,0c0,0,0,0,0,0c0,0.1,0.1,0.2,0.2,0.2
	c0,0,0,0,0,0c0,0,0,0-0.1,0c0,0-0.1,0-0.1-0.1c0,0,0,0-0.1,0c0,0,0,0,0,0.1c0,0,0,0.1,0,0.1c0,0,0,0.1-0.1,0.1
	c-0.1,0-0.1,0.1-0.2,0.1c0,0,0,0,0,0c0,0,0.1,0,0.1,0c0.2,0,0.3-0.1,0.4-0.2c0.1,0,0.1-0.1,0.2-0.1c0.1,0,0.1-0.1,0.1-0.1
	c0,0,0,0,0,0c0.2,0,0.2-0.2,0.3-0.3c0,0,0-0.1,0-0.1c0-0.1,0-0.1,0.1,0c0.1,0.1,0.1,0.1,0,0.2c0,0,0,0.1,0,0.1C14.1,7,14.1,7,14,7
	c0,0,0,0,0,0c0,0,0,0.1,0,0.1c0,0,0.1,0.1,0.1,0.1c0,0.1,0,0.1,0,0.1c0,0-0.1,0.1-0.1,0.1c-0.1,0-0.1,0.1-0.1,0.1c0,0.1,0,0.1,0,0.2
	c0.1,0,0.1,0,0.2,0.1c-0.1,0.1-0.1,0.1-0.2,0c0,0,0,0,0,0c-0.1-0.1-0.1-0.1-0.2,0.1c0,0-0.1,0-0.1,0c-0.1,0.1-0.1,0.1-0.2,0
	c0,0-0.1-0.1-0.1-0.1c0,0,0,0-0.1,0c0,0,0,0,0,0.1c0,0,0,0,0,0c0,0,0,0.1,0,0.1c-0.1,0-0.1,0-0.1-0.1c0-0.1-0.1-0.1-0.1-0.1
	C12.9,7.9,13,8,13,8.1c0,0,0,0.1,0,0.1c0,0-0.1,0.1-0.1,0.1c0,0,0,0.1-0.1,0.1c0,0,0,0.1,0,0.1c0,0-0.1,0-0.1,0c0,0,0,0,0-0.1
	c0,0.1,0,0.1-0.1,0.2c0,0,0,0,0,0.1c0,0,0,0,0,0c0,0,0,0,0-0.1c0-0.1,0-0.2,0-0.3c0,0,0,0,0-0.1c0,0,0,0.1,0,0.1c0,0,0,0.1,0,0.1
	c0,0.1,0,0.1-0.1,0.1c0,0,0,0.1-0.1,0.1c0,0,0.1,0,0.1,0c0.1,0,0.2,0,0.3-0.1c0,0,0,0,0.1,0c0.2,0,0.3,0,0.5-0.1c0,0,0.1,0,0.1,0
	c0.1-0.1,0.2-0.1,0.2-0.1c0.1,0,0.2,0,0.3,0c0.1,0,0.1-0.1,0.1-0.1c0,0,0,0,0-0.1c0,0,0.1,0,0.1,0c0,0,0,0.1,0.1,0.1
	c0.1-0.1,0.1-0.2,0.2-0.2c0,0-0.1,0-0.1-0.1c0,0,0,0,0-0.1c0,0,0,0,0.1,0c0.1,0,0.1,0,0.1-0.1c0-0.1,0-0.1,0-0.2c0,0,0-0.1,0-0.1
	c0,0,0.1,0,0.1,0.1c0,0,0,0.1,0,0.1c0,0.1,0,0.1,0.1,0.2c0,0,0.1,0.1,0.1,0.1c0,0,0,0.1,0,0.1c0,0,0,0,0,0.1c0,0,0,0.1,0,0.1
	c0,0.1-0.1,0.1-0.1,0.1c-0.1,0-0.1,0.1-0.1,0.1c0,0.1,0,0.1,0,0.2c0,0.1,0,0.1-0.1,0.1c0,0,0,0-0.1,0c0,0.1,0,0.2,0,0.3
	C14.1,9,14,8.9,14.1,8.8c0,0,0-0.1,0-0.1c0,0-0.1,0-0.1,0c0,0,0,0.1-0.1,0.1c0,0.1,0,0.2,0,0.2c0,0,0,0.1,0,0.1c0,0,0.1,0.1,0.1,0.1
	c0,0.1,0,0.1,0,0.2c0,0-0.1,0.1-0.1,0.1c0,0,0.1,0,0.1,0c0,0,0,0,0.1,0c0,0-0.1,0-0.1,0.1c0,0,0,0,0,0c0.1,0.1,0.1,0.1,0,0.2
	c-0.1,0-0.1,0.1-0.2,0.1c0,0,0,0.1-0.1,0.1c0,0,0,0,0,0c0.3-0.1,0.5-0.3,0.8-0.4c0.2-0.1,0.3-0.2,0.3-0.4c0-0.1,0.1-0.2,0.2-0.1
	c0,0,0,0,0.1,0c0,0,0,0,0,0c0,0-0.1,0-0.1,0c-0.1,0-0.1,0-0.1,0.1c0,0.1,0,0.1,0,0.2c0,0.1,0,0.2-0.1,0.2c0,0,0,0.1,0,0.1
	c0,0.1,0,0.1,0,0.2c0,0,0,0,0,0c0,0,0,0,0,0c0-0.1,0-0.1-0.1-0.2c0,0,0,0,0-0.1c0,0,0,0,0,0c0,0,0,0.1,0,0.1c0,0.1,0,0.1,0,0.2
	c0,0.1,0,0.1-0.1,0.1c-0.1,0-0.1,0-0.1,0.1c0,0.1-0.1,0.1-0.2,0.2c0-0.1,0-0.1,0-0.2c0,0,0-0.1-0.1-0.1c0,0-0.1,0-0.1,0.1
	c0,0,0,0.1,0,0.1c-0.1,0-0.1-0.1-0.2-0.1c0,0.1,0,0.2,0.1,0.2c0,0,0,0.1,0,0.1c0,0,0,0.1,0,0.1c0,0,0,0.1,0,0.1c0,0,0,0,0-0.1
	c0-0.1,0-0.1-0.1-0.1c0,0,0,0,0,0c0,0,0,0,0,0c0,0,0.1,0,0.1,0c-0.1-0.1-0.3,0-0.3,0.1c0,0.1,0,0.1,0,0.2c0,0,0,0,0,0.1
	c0,0,0,0.1-0.1,0.1c0,0-0.1-0.1-0.1-0.1c0,0,0-0.1,0-0.1c0,0,0,0,0-0.1c0,0,0,0-0.1,0c0,0-0.1,0.1-0.1,0.1c0,0,0,0.1-0.1,0.1
	c0,0,0,0,0,0c0,0,0,0,0,0c0,0,0-0.1,0-0.1c-0.1,0.1-0.1,0.1-0.2,0.2c0,0,0,0.1,0,0.1c0,0,0,0.1,0.1,0.1c0,0.1,0,0.1,0.1,0.2
	c0.1,0,0.1,0.1,0.1,0.1c0,0.1,0,0.1,0,0.2c0,0,0,0.1,0.1,0c0,0,0.1,0,0.1-0.1c0.1,0,0.1,0,0.2,0c0.1,0,0.1,0,0.1-0.1
	c0-0.1,0-0.1,0.1-0.1c0,0,0.1,0,0.1,0c0,0,0.1,0,0.1,0c0.1,0,0.2,0,0.2,0c0.1,0,0.3,0,0.4,0c0.1,0,0.2,0,0.3-0.1c0,0,0.1,0,0.1,0
	c0.1,0,0.1,0,0.2,0c0,0,0.1,0,0.1,0c0,0,0.1,0,0.1,0c0,0,0,0,0.1,0c0.1-0.1,0.2-0.2,0.3-0.2c0,0,0.1,0,0.1,0c0,0,0,0.1,0,0.1
	c-0.1,0.1-0.1,0.1,0,0.1c0,0,0,0,0,0.1c-0.1,0-0.2,0-0.3,0c0,0.1,0,0.1,0,0.1c0.1,0.1,0,0.2,0,0.3c0,0-0.1,0-0.1,0c0,0,0,0-0.1,0
	c0,0-0.1,0-0.1-0.1c0,0,0,0.1,0,0.1c0,0,0,0.1-0.1,0.1c-0.1,0-0.2,0-0.2,0.2c0,0.1,0,0.1-0.1,0.1c0,0-0.1,0-0.1,0
	c0-0.1-0.1-0.2-0.1-0.3c0,0,0,0,0,0c0,0,0,0,0,0c0,0,0,0.1,0,0.1c0,0.1,0,0.2,0,0.4c-0.1-0.1-0.1-0.1-0.1-0.2c0-0.1,0-0.2-0.1-0.2
	c0,0,0,0,0,0c0,0,0,0,0,0c0,0.1,0,0.1-0.1,0.1c0,0,0,0,0,0c0,0,0,0,0,0c0,0,0.1,0,0.1,0c0,0,0,0.1,0,0.1c0,0.1-0.1,0.1-0.2,0.1
	c0,0-0.1,0-0.1,0c0.1,0.1,0.1,0.1,0.2,0.2c0,0,0.1,0.1,0,0.1c0,0,0,0.1,0,0.1c0,0,0,0,0,0.1c0,0.1,0,0.2-0.1,0.3
	c0,0-0.1,0.1-0.1,0.1c0,0-0.1,0.1-0.1,0.1c0,0-0.1,0-0.1,0.1c0,0.1,0,0.2-0.1,0.2c0,0.1-0.1,0.1-0.1,0.2c0,0.1-0.1,0.2-0.2,0.2
	c-0.1,0-0.1,0-0.1,0.1c0,0.1,0,0.1,0,0.2c0,0,0,0.1,0.1,0.1c0.1,0,0.2,0,0.3-0.1c0.1-0.1,0.2-0.1,0.3-0.1c0,0,0,0,0.1-0.1
	c0-0.1,0.1-0.1,0.2,0c0,0,0,0,0,0c0,0,0,0,0,0.1c0,0,0.1,0,0.1,0c0.1,0,0.3,0,0.4,0c0,0,0.1,0,0.1-0.1c0.1,0,0.1-0.1,0.2-0.1
	c0,0,0.1,0,0.1,0c0,0.1,0.1,0,0.1,0c0.1,0,0.1-0.1,0.2-0.1c0.1-0.1,0.3-0.1,0.4-0.2c0,0,0,0,0.1,0c0.3,0,0.5-0.1,0.7-0.3
	c0,0,0.1-0.1,0.2-0.1c0.1,0,0.2-0.1,0.2-0.2c0-0.1,0.1-0.1,0.1-0.2c0,0,0,0,0,0c0,0,0,0,0,0c0,0.1,0,0.1,0,0.2c0,0.1,0,0.1,0,0.2
	c0,0-0.1,0-0.1,0c0,0,0,0-0.1,0c0,0,0,0,0,0.1c0,0,0.1,0.1,0.1,0.1c0,0,0,0,0.1,0.1c0,0-0.1,0-0.1,0c0,0-0.1,0-0.1,0
	c-0.1,0.1-0.2,0.1-0.3,0.1c0,0,0-0.1,0-0.1c0,0,0-0.1,0-0.1c0,0-0.1,0.1-0.1,0.1c0,0,0,0.1,0,0.1c0.1,0,0.1,0.1,0,0.1
	c0,0-0.1,0-0.1,0c0,0-0.1-0.1-0.1-0.1c0,0,0,0.1,0,0.1c0,0.1,0,0.1,0.1,0.1c0,0,0,0.1,0,0.1c-0.1,0.1-0.2,0.2-0.3,0.3c0,0,0,0,0,0
	c0,0-0.1,0-0.1-0.1c0,0,0-0.1,0-0.1c0,0,0-0.1,0-0.1c0,0,0,0,0,0c0,0,0,0,0,0.1c0,0,0,0.1,0,0.2c0,0.1-0.1,0.1-0.1,0.1
	c0,0-0.1,0-0.1,0c0,0-0.1,0.1-0.1,0.2c0.1-0.1,0.1-0.1,0.2,0c0,0.1-0.1,0.1-0.2,0.1c0,0-0.1,0-0.1,0.1c0,0,0,0.1,0,0.1
	c0,0,0,0.1,0,0.1c0,0-0.1,0-0.1-0.1c0,0,0-0.1,0-0.1c0,0,0-0.1,0-0.1c-0.1,0-0.1,0-0.1,0c0,0-0.1,0-0.1,0c0,0-0.1,0.1-0.1,0.1
	c0,0,0,0.1,0.1,0.1c0.1,0,0.1,0.1,0.2,0.1c0,0,0,0,0,0c-0.1,0-0.2,0.1-0.1,0.2c0,0.1,0,0.1,0,0.2c0,0.1,0,0.2,0,0.2
	c0,0.1,0,0.2,0,0.2c0.1,0,0.1,0.1,0.1,0.2c0,0,0.1,0,0.1,0c0,0,0.1-0.1,0.1-0.1c0-0.1,0.1-0.2,0.1-0.3c0.1-0.1,0-0.1,0-0.2
	c0,0,0,0,0-0.1c0,0,0,0,0,0c0.1-0.1,0.1-0.1,0-0.1c-0.1-0.1-0.1-0.1,0-0.1c0.1-0.1,0.2-0.1,0.2,0c0.1,0,0.2,0.1,0.3,0.1
	c0-0.1,0-0.1,0-0.1c0,0,0-0.1,0.1-0.1c0,0,0.1,0.1,0.1,0.1c0,0.1,0,0.2,0,0.4c0,0.1,0,0.2,0,0.3c0,0,0,0,0,0.1c0,0,0,0.1,0,0.1
	c0,0-0.1,0.1,0,0.1c0.1,0,0,0.1,0,0.1c0.1,0,0.1,0,0.2-0.2c0,0,0,0,0,0c0,0,0.1,0,0.1,0c0.1,0,0.1-0.1,0.2-0.1c0,0,0.1,0,0.1-0.1
	c0,0,0,0,0,0c0,0.1-0.1,0.1-0.1,0.2c0.1,0,0.3,0,0.4-0.1c0-0.1,0.1-0.1,0.1-0.2c0,0,0-0.1,0.1-0.1c0.1,0,0.1,0,0.2,0
	c0,0,0.1,0,0.1-0.1c0,0,0-0.1,0-0.1c0-0.1,0-0.2,0.1-0.3c0,0,0-0.1,0-0.1c0,0,0.1,0,0.1,0c0,0.1,0.1,0.1,0,0.2c0,0,0,0.1,0,0.1
	c0,0.1,0,0.1,0.1,0.1c0,0,0,0,0.1,0c0,0,0,0,0,0.1c0,0-0.1,0.1-0.1,0.1c0,0,0,0-0.1,0c-0.1,0-0.2,0.1-0.1,0.2c0,0,0.1,0.1,0.1,0.2
	c0,0,0,0.1,0,0.1c0,0,0,0,0,0c0,0-0.1,0-0.1,0.1c0,0.1,0,0.1-0.1,0.1c0,0,0,0,0,0c0,0,0,0,0,0.1c0.1,0.1,0.2,0.1,0.4,0.1
	c0.1,0,0.1,0,0.1-0.1c0.1,0,0.1,0,0.2,0c0.1,0,0.1,0,0.2,0c0,0,0.1,0,0.1,0c0,0,0,0,0.1,0c0.1,0,0.1-0.1,0.2-0.1
	c0.1,0,0.1-0.1,0.2-0.1c0.1,0,0.1-0.1,0.1-0.1c0-0.1,0-0.1,0.1-0.2c0.1,0,0.1-0.1,0.1-0.2c0,0,0,0,0-0.1c0,0,0.1,0,0.1,0.1
	c0,0,0,0.1,0,0.1c0,0.1,0,0.1,0.1,0.1c0,0,0.1,0,0.1,0c0,0,0,0,0,0c0,0-0.1,0-0.1,0c0,0-0.1,0-0.1,0.1c0,0,0,0.1-0.1,0
	c0,0-0.1,0-0.1,0c0,0,0,0.1,0,0.1c0,0,0.1,0.1,0.1,0.1c0.1,0.1,0.1,0.1,0,0.2c-0.1,0-0.1,0.1-0.2,0.1c-0.1,0-0.1,0-0.2-0.1
	c0,0,0,0,0-0.1c0,0,0,0-0.1,0c0,0,0,0,0,0.1c0,0.1,0,0.1,0,0.2c0,0,0,0,0,0.1c-0.1,0.1-0.1,0.1-0.2,0c0,0,0,0,0,0c0,0,0,0,0,0
	c0,0.1,0,0.2,0,0.3c0,0,0,0.1,0,0.1c0,0,0,0.1-0.1,0c-0.1-0.1-0.2-0.3-0.3-0.4c0,0,0-0.1-0.1-0.1c0,0.1,0,0.4,0.1,0.5
	c-0.1,0-0.1,0-0.1,0.1c0,0.1,0,0.1-0.1,0.2c0,0,0,0-0.1,0c0,0,0,0-0.1-0.1c0-0.1-0.1-0.2,0-0.2c0-0.1,0-0.1,0-0.2c0,0,0,0-0.1-0.1
	c0,0,0,0,0,0c0,0.1,0,0.1,0,0.2c0,0,0,0.1,0,0.1c0,0,0,0-0.1-0.1c0,0,0,0,0,0c0,0.1-0.1,0.2,0,0.3c0,0.1,0,0.1-0.1,0.1
	c-0.1,0-0.1,0.1-0.1,0.1c0,0.1-0.1,0.2-0.2,0.3c0,0,0,0,0,0c-0.1,0-0.1,0.1-0.1,0.1c0,0,0,0.1-0.1,0.1c0,0-0.1-0.1-0.1-0.1
	c0-0.1,0-0.1,0-0.2c0,0,0-0.1-0.1-0.1c0,0,0,0,0,0.1c0,0,0,0,0,0.1c0,0,0,0.1,0,0.1c-0.1,0-0.1,0.1-0.1,0.1c-0.1-0.2,0-0.4,0-0.6
	c-0.1,0-0.2,0.1-0.2,0.2c0,0.1,0,0.3,0.1,0.4c0,0,0,0,0,0c0,0,0,0.1,0,0.1c0,0-0.1,0-0.1,0c-0.1,0-0.1,0-0.2,0c0,0,0,0,0,0
	c0,0.1,0,0.2-0.1,0.3c0,0,0,0-0.1,0c-0.1,0-0.1,0-0.1,0.1c0,0,0,0-0.1,0c0,0-0.1,0-0.2-0.1c0,0,0,0,0,0.1c0,0.1,0.1,0.2,0.1,0.3
	c0,0,0,0.1-0.1,0.1c-0.1,0-0.1,0-0.1,0.1c0,0,0,0.1,0,0.2c0,0-0.1,0-0.1-0.1c0,0,0,0-0.1,0c0,0,0,0,0,0c0,0.1,0,0.2-0.1,0.3
	c0,0,0,0.1,0,0.1c0,0,0.1,0,0.1,0c0,0,0.1-0.1,0.1-0.1c0,0,0.1,0,0.1-0.1c0.1-0.1,0.2-0.1,0.3-0.1c0.1,0,0.1-0.1,0-0.2
	c0,0,0-0.1,0-0.1c0,0,0.1,0,0.1,0.1c0,0,0-0.1,0-0.1c0,0,0,0,0,0c0,0,0,0,0,0c0,0.1,0,0.1,0.1,0c0.1,0,0.1-0.1,0.2-0.1
	c0,0,0,0,0-0.1c0,0,0-0.1,0-0.1c0,0,0,0,0,0c0,0,0.1,0.1,0.1,0.2c0,0-0.1,0.1-0.1,0.1c0,0,0,0.1,0,0.1c0,0,0.1,0.1,0,0.1
	c0,0-0.1,0-0.1,0c0,0-0.1,0-0.1,0c0,0,0,0,0,0c0,0,0,0.1,0,0.1c0,0.1,0,0.1,0,0.2c0,0,0,0,0,0.1c-0.1,0.1-0.1,0.1,0,0.2
	c0.1,0.1,0.1,0.2,0.1,0.3c-0.1,0.2-0.1,0.3,0,0.5c0,0,0,0.1,0.1,0.1c0,0,0.1,0,0.1,0c0,0,0-0.1,0-0.1c0,0,0-0.1,0-0.1
	c0.1,0,0.2,0.1,0.2,0.1c0.1,0.1,0.1,0.1,0.2,0.1c0.1,0,0.1,0,0.1-0.1c0,0,0,0,0.1-0.1c0,0,0.1,0,0.1,0c0,0,0,0.1,0,0.1c0,0,0,0,0,0
	c0,0,0,0.1,0,0.1c0,0,0.1,0,0.1,0c0.2,0,0.4-0.1,0.6-0.2c0.1,0,0.2-0.1,0.3-0.1c0.1,0,0.1,0,0.2,0c0.1,0,0.2,0,0.2-0.1c0,0,0,0,0,0
	c0.2,0,0.3-0.1,0.4-0.2c0.2-0.1,0.3-0.1,0.5-0.1c0.1,0,0.2,0,0.2-0.1c0,0,0.1-0.1,0.2,0c0.1,0.1,0.3,0.1,0.4,0c0,0,0.1-0.1,0.1-0.1
	c0.1-0.1,0.1,0,0.1,0c0,0,0,0,0,0.1c0,0,0,0.1,0,0.1c0,0.1-0.1,0.1-0.2,0.1c0,0.1,0,0.1,0,0.2c0,0,0,0.1,0,0.1c0,0-0.1,0-0.2,0
	c-0.1,0-0.2-0.1-0.2-0.2c0,0-0.1,0-0.1,0c-0.1,0-0.1,0-0.1,0.1c0,0.1,0,0.2,0,0.2c0,0.1,0,0.1-0.1,0.1c-0.1,0-0.2,0-0.2-0.1
	c0,0.1,0,0.1,0,0.1c0,0.1-0.2,0.2-0.3,0.1c0,0-0.1-0.1-0.1-0.1c0,0.1,0,0.1,0,0.1c0,0.1,0,0.1-0.1,0.1c0,0-0.1,0-0.1,0c0,0,0,0,0,0
	c0,0,0,0.1,0,0.1c0,0-0.1,0-0.1,0c0,0,0,0-0.1,0c0,0-0.1,0-0.1,0c0,0,0,0,0,0c0,0,0,0-0.1,0.1c0,0,0,0,0-0.1c0-0.1,0-0.2,0-0.3
	c0,0,0-0.1,0-0.1c0,0-0.1-0.1-0.1-0.1c-0.1,0.1,0.1,0.2,0,0.3c0,0,0,0,0,0c0-0.1-0.1-0.1-0.1,0c0,0.1-0.1,0.1-0.1,0.2
	c0,0.1-0.1,0.1-0.1,0.2c0,0.1,0,0.1-0.1,0.1c0,0-0.1,0-0.1,0c0,0.2,0,0.3,0,0.4c0,0,0-0.1,0-0.1c0,0,0-0.1,0-0.1
	c-0.1,0-0.1-0.1-0.2-0.1c0,0,0-0.1-0.1-0.1c0,0,0,0,0,0c0,0.1,0,0.1,0,0.2c0,0.1,0,0.1,0.1,0.1c0.1,0,0.1,0,0.1,0.1c0,0,0,0.1,0,0.1
	c0,0,0,0.1-0.1,0.1c0,0-0.1,0-0.1,0c0,0,0,0,0-0.1c0,0-0.1-0.1-0.1-0.1c0,0-0.1,0-0.1,0.1c0,0,0,0.1,0,0.1c0,0.1,0.1,0.1,0.1,0.1
	c0.1-0.1,0.2,0,0.3,0c0,0,0.1,0,0.1,0.1c0.1,0,0.1,0,0.2,0c0.1,0,0.1,0,0.2,0c0,0,0.1,0,0.1,0c0.1-0.1,0.1,0,0.2,0.1
	c0,0.1,0.1,0.1,0.1,0.1c0.1,0,0.1,0,0.1-0.1c0.1-0.1,0.2-0.1,0.3-0.1c0,0,0.1,0,0.1,0c0,0-0.1,0.1-0.1,0.1c0,0,0,0,0,0
	c-0.1,0-0.1,0-0.1,0.1c0,0,0,0,0,0.1c0,0.1-0.1,0.1-0.2,0c0,0-0.1,0-0.1-0.1c0,0,0,0.1,0,0.1c0,0,0,0.1,0,0.1c0,0,0,0.1,0,0.1
	c0,0-0.1,0-0.1,0c0,0-0.1,0-0.1,0c-0.1,0.1-0.1,0-0.2,0c0,0-0.1,0-0.1,0c-0.1,0.1-0.1,0.1-0.1,0.2c0,0.1,0,0.1-0.1,0.1
	c-0.1,0-0.2-0.1-0.3-0.1c-0.1,0-0.2-0.1-0.2-0.2c0-0.1-0.1-0.1-0.1-0.2c0,0.1,0,0.2-0.1,0.2c-0.1,0-0.2,0-0.2-0.1c0,0,0,0.1,0,0.1
	c0,0,0,0.1,0,0.1c-0.1,0.1-0.3,0.2-0.4,0.3c0,0-0.1-0.1-0.1-0.1c0,0.1,0,0.1,0.1,0.2c0.1,0.1,0.1,0.1,0.1,0.2
	c-0.1,0.2-0.1,0.2-0.2,0.1c-0.1-0.1-0.1-0.1-0.2-0.1c0,0-0.1,0-0.1,0c0,0,0,0-0.1,0c0,0-0.1,0-0.1,0c-0.1,0-0.1,0-0.2,0c0,0,0,0,0,0
	c0,0,0,0.1-0.1,0.1c0,0-0.1,0-0.1-0.1c0,0,0-0.1-0.1-0.1c0,0,0,0,0,0c0,0,0,0,0,0.1c0,0,0,0,0,0c0,0,0,0,0,0c0-0.1,0-0.1,0-0.2
	c0-0.1,0-0.1-0.1-0.2c0,0,0,0.1,0,0.1c0,0.1,0,0.1,0,0.2c0,0,0,0.1-0.1,0.1c-0.1,0-0.1,0.1-0.1,0.1c-0.1,0-0.1,0-0.1,0
	c-0.1,0-0.2,0-0.4,0c-0.1,0-0.1,0-0.1,0.1c0.1,0.1,0.1,0.3,0.1,0.4c0,0,0,0.1,0,0.1c0,0,0,0,0,0c0,0,0,0,0,0c0,0-0.1-0.1-0.1-0.1
	c-0.1,0.1,0,0.1,0,0.2c-0.1,0-0.1,0-0.1,0c-0.1,0-0.1,0-0.1-0.1c0-0.1,0-0.2,0-0.3c0-0.1,0-0.3,0-0.4c0,0,0-0.1,0-0.1
	c0,0-0.1,0-0.1,0c0,0,0,0-0.1,0c-0.1,0.1-0.1,0.1,0,0.2c0,0.1,0.1,0.2,0.1,0.3c0,0,0,0,0,0.1c0,0,0,0-0.1,0c0,0,0,0-0.1-0.1
	c0-0.1,0-0.1-0.1-0.2c0-0.1-0.1-0.2-0.1-0.3c0,0,0-0.1-0.1-0.1c-0.1,0-0.2-0.1-0.3-0.1c-0.1,0-0.1-0.1-0.1-0.1c0-0.1,0-0.1,0-0.2
	c0,0,0,0,0-0.1c0,0,0,0,0,0c0,0.2-0.1,0.2-0.2,0.3c0,0,0,0-0.1,0c-0.1,0-0.1,0-0.2,0.1c-0.1,0-0.1,0-0.2,0c-0.1,0-0.1,0-0.1,0.1
	c-0.1,0.1-0.1,0.1-0.2,0c-0.1,0-0.1,0-0.2,0c0,0-0.1,0.1-0.1,0.1c0,0-0.1,0.1-0.1,0.1c-0.1,0-0.1,0.1-0.2,0.1
	c-0.1,0.1-0.2,0.3-0.3,0.5c0,0,0,0,0,0.1c0,0,0-0.1,0-0.1c0-0.1,0-0.2,0-0.2c0-0.1,0-0.1-0.1-0.1c-0.1,0-0.2,0-0.3,0
	c-0.1,0-0.2-0.1-0.3-0.2c0,0,0,0,0-0.1c0-0.1,0-0.2-0.1-0.2c0,0-0.1,0-0.1,0c-0.1,0-0.2,0-0.2,0c-0.1-0.1-0.1,0-0.2,0c0,0,0,0,0,0
	c0,0,0,0,0,0c0-0.1-0.1-0.2-0.2-0.3c0-0.1-0.1-0.1-0.1,0c0,0.1-0.1,0.2-0.1,0.2c0,0.1,0,0.2-0.1,0.3c0,0,0-0.1,0-0.1
	c-0.1-0.1-0.1-0.3-0.1-0.4c0,0,0,0,0-0.1c0,0,0,0,0,0c0,0,0,0,0,0.1c0,0.1,0,0.2-0.1,0.2c0,0-0.1,0.1-0.1,0.2c0,0.1,0,0.3,0,0.4
	c0,0.5,0,1.1,0,1.6c0,0.2,0,0.4,0.1,0.7C10.1,26.3,10.1,26.4,10.1,26.5C10.2,26.5,10.2,26.5,10.1,26.5z M13.1,15.1
	C13.1,15.1,13.1,15.1,13.1,15.1c-0.1,0.1-0.2,0.1-0.2,0.2c0,0,0,0,0,0c0,0-0.1,0-0.1,0.1c0,0,0,0.1-0.1,0.1c0,0,0,0.1,0,0.1
	c0.1,0.1,0.2,0.1,0.3,0.2c0,0,0,0,0.1,0c0.2,0,0.3,0,0.5-0.1c0.1,0,0.2,0,0.3-0.1c0.1-0.1,0.2-0.1,0.3-0.1c0.1,0,0.2,0,0.3-0.1
	c0,0,0.1,0,0.1-0.1c0.1,0,0.1,0,0.2-0.1c0.1,0,0.2-0.1,0.3-0.1c0,0,0,0,0,0c0,0,0.1-0.1,0.1-0.1c0,0,0,0,0-0.1c0,0,0,0,0-0.1
	c-0.1,0-0.1-0.1,0-0.1c0.1-0.1,0.1-0.2,0-0.3c0,0,0-0.1,0-0.1c0,0,0,0,0,0c0,0,0,0,0,0c0,0.1,0,0.1,0,0.2c0,0.1,0,0.1,0,0.2
	c0,0,0,0,0,0c0,0,0-0.1-0.1-0.1c0,0.1-0.1,0.2,0,0.2c0,0,0,0.1,0,0.1c0,0,0,0.1-0.1,0.1c0,0,0,0,0,0c0,0,0,0,0,0
	c0-0.1-0.1-0.1-0.1-0.2c0-0.1-0.1-0.1-0.1-0.2c0,0,0-0.1,0-0.1c0,0,0,0,0,0c0,0.1,0,0.1,0,0.2c0,0,0,0.1,0,0.1
	c-0.1,0.1-0.1,0.1-0.2,0.2c0,0-0.1,0.1-0.1,0.1c0,0-0.1-0.1-0.1-0.1c0,0,0-0.1,0,0c0,0,0,0-0.1,0c0,0,0,0,0,0.1c0-0.1-0.1-0.1,0-0.2
	c0-0.1,0-0.2,0-0.3c-0.1,0.1-0.2,0.2-0.3,0.3c-0.1,0-0.1-0.1-0.1,0c-0.1,0.1,0,0.1,0,0.2c0,0,0,0-0.1,0c-0.1,0-0.1,0.1-0.1,0.1
	c0.1,0.1,0.1,0.1,0,0.2c0,0,0,0-0.1,0.1c0,0-0.1,0-0.1,0c0,0,0-0.1,0-0.1c0,0,0-0.1,0-0.1c0,0,0,0,0-0.1c0.1,0,0.1-0.1,0.1-0.2
	c0,0,0-0.1,0-0.1c0,0-0.1,0-0.1,0c0,0,0,0,0,0.1c0,0.1,0,0.1-0.1,0.1c0,0,0,0-0.1,0C13.1,15.3,13.1,15.2,13.1,15.1
	C13.1,15.2,13.1,15.1,13.1,15.1z M11.9,9.6C11.9,9.6,11.9,9.6,11.9,9.6c-0.1,0.2-0.1,0.3-0.1,0.4c0,0.1-0.1,0.1-0.1,0
	c-0.1,0-0.1-0.1,0-0.1c0-0.1,0-0.1,0-0.2c0,0,0,0,0,0c0,0,0,0,0,0c0,0,0,0.1-0.1,0.1c-0.1,0-0.1,0-0.1,0.1c0,0.1,0,0.2,0,0.2
	c0,0.1,0,0.1-0.1,0.2c0,0,0,0,0,0.1c0,0.1,0,0.1,0,0.2c0,0,0,0.1,0,0.1c0,0,0.1,0.1,0.1,0.1c0,0,0.1,0,0.1-0.1
	c0-0.1,0.1-0.1,0.1-0.2c0,0,0.1-0.1,0.1-0.1c0,0,0.1,0,0.1,0c-0.1,0.1-0.1,0.1-0.1,0.2c0,0,0,0,0,0c0,0.1,0,0.1,0,0.1
	c0,0-0.1,0-0.1,0c0,0,0,0-0.1,0c0.1,0,0.1,0,0.2,0c0.1,0,0.3-0.1,0.4-0.1c0.3,0,0.6-0.2,0.7-0.5c0,0,0,0,0,0c0.1-0.1,0.1-0.3,0-0.4
	c0,0,0,0,0,0c0,0,0-0.1,0-0.1c0,0,0.1-0.1,0-0.1c0,0,0,0,0,0.1c0,0.1-0.1,0.2-0.1,0.2c0,0,0,0,0,0.1c0,0-0.1,0.1-0.1,0.1
	c-0.1,0.1-0.1,0.2-0.3,0.2c0,0-0.1,0-0.1,0c0,0,0,0-0.1,0c0-0.1,0-0.2,0.1-0.3c-0.1,0-0.1,0-0.2,0.1c0,0.1-0.1,0.1-0.2,0.1
	c0,0-0.1,0-0.1,0c0,0,0,0,0-0.1c0,0,0,0,0-0.1c0-0.1,0.1-0.2,0.1-0.2C11.9,9.7,12,9.6,11.9,9.6z M7.5,10.7
	C7.5,10.7,7.5,10.7,7.5,10.7c0.1,0.1,0.2,0.1,0.2,0.1c0,0,0-0.1,0-0.1c0,0,0-0.1,0-0.1c0.1-0.1,0.1-0.2,0.1-0.2
	c0.1-0.1,0.1-0.1,0-0.2c0,0,0,0,0,0c0,0,0,0,0,0c0,0,0,0,0-0.1c0,0,0,0-0.1,0c0,0,0,0,0,0c0,0.1-0.1,0.1-0.1,0.3c0,0,0,0,0,0
	c0,0,0,0-0.1-0.1c0,0,0-0.1-0.1-0.1c0,0-0.1,0-0.1,0c0,0,0,0-0.1,0c0,0,0,0,0,0c0-0.1-0.1-0.1-0.1,0c0,0-0.1,0.1-0.1,0.1
	c-0.1,0-0.1,0-0.1-0.1c0-0.1,0-0.2,0-0.3c0-0.1,0-0.1-0.1-0.1c-0.1,0-0.2,0-0.2,0.1c0,0,0,0.1,0,0.1c0,0,0,0.1-0.1,0
	c-0.1,0-0.1,0-0.1,0.1c0,0,0,0.1,0,0.1c0,0.2,0,0.3-0.2,0.3c0,0,0,0,0,0c0.1,0.1,0.2,0.1,0.3,0.1c0.1,0,0.2,0,0.3,0c0,0,0.1,0,0.1,0
	c0.1,0,0.1-0.1,0.2-0.1c0,0,0,0,0.1-0.1c0,0,0,0.1,0,0.1C7.3,10.7,7.3,10.8,7.5,10.7C7.4,10.8,7.5,10.8,7.5,10.7z M8.2,12.2
	c0.1,0,0.1,0,0.1,0c0.1,0.1,0.1,0.1,0.2,0.1c0,0,0.1,0,0.1,0c0,0,0,0,0.1,0c0,0,0,0,0-0.1c0,0,0,0-0.1,0c0,0-0.1,0-0.1,0
	c0,0,0,0-0.1,0c0,0,0,0,0-0.1c0,0,0,0,0,0c-0.1-0.1-0.1-0.1-0.1-0.2c0,0,0,0,0-0.1c0,0,0,0,0,0c0,0,0,0,0,0c0,0,0,0.1,0,0.1
	c0,0,0,0,0,0c-0.1-0.1-0.1-0.1-0.2,0.1c0,0,0,0.1-0.1,0.1c-0.1,0-0.1,0-0.1-0.1c0,0,0-0.1,0-0.1c0,0,0,0,0-0.1c0,0,0-0.1-0.1-0.1
	c-0.1,0-0.1-0.1-0.1-0.2c0,0,0,0,0-0.1c-0.1,0-0.1,0-0.1,0c0-0.1,0-0.2,0-0.3c-0.1,0-0.2,0-0.3,0.1c0,0,0,0,0,0c0,0-0.1,0-0.1,0
	c0,0,0-0.1,0-0.1c0,0,0-0.1,0-0.1c0,0,0,0,0,0c0,0,0,0.1,0,0.1c0,0.1,0.1,0.2,0.1,0.3c0,0,0,0,0.1,0c0.1-0.1,0.3,0,0.4,0
	c0,0,0,0.1,0.1,0.1c0,0-0.1,0-0.1,0c0,0-0.1,0-0.1,0.1c-0.1,0.1-0.1,0.1-0.2,0.1c-0.1,0-0.1,0-0.1,0.1c0,0.1,0,0.1,0,0.2
	c0.2,0.1,0.3,0.1,0.5,0.1c0,0,0.1,0,0.1-0.1c0,0,0-0.1,0.1-0.1c0,0,0,0.1,0,0.1c0,0,0,0.1,0.1,0.1c0.1,0,0.2,0,0.2,0c0,0,0,0,0,0
	C8.2,12.3,8.2,12.2,8.2,12.2z M13.4,9.6C13.4,9.5,13.4,9.5,13.4,9.6c0-0.1,0.1-0.2,0.1-0.2c0,0,0-0.1,0-0.1c-0.1,0,0,0.1-0.1,0.1
	c-0.1,0.2-0.1,0.3-0.3,0.3c0,0-0.1,0-0.1,0c0,0,0,0.1,0,0.1c0,0,0.1,0,0.1,0c0,0,0,0.1,0,0.1c0,0-0.1,0-0.1,0c0,0,0,0,0,0
	c0,0-0.1,0,0,0.1c0,0,0.1,0.1,0.1,0.1c0,0,0.1,0.1,0,0.2c0,0.1-0.1,0.1-0.2,0.1c0,0.1,0,0.1-0.1,0.1c0,0,0,0,0,0c0,0,0,0.1,0,0.1
	c0,0,0.1,0,0.1,0c0,0,0,0,0,0c0.1-0.1,0.3-0.2,0.4-0.4c0,0,0,0,0.1-0.1c0.1-0.1,0.1-0.2,0.2-0.2c0,0,0.1-0.1,0.1-0.1
	c0-0.1,0-0.2,0-0.2c0,0,0,0,0,0c-0.1,0-0.1,0.1-0.2,0.1C13.5,9.6,13.5,9.6,13.4,9.6z M17.4,21.9C17.4,21.9,17.4,21.9,17.4,21.9
	c0,0-0.1,0.1-0.1,0.1c0,0-0.1,0-0.1,0c0-0.1-0.1-0.2-0.2-0.2c0,0-0.1,0,0-0.1c0,0,0-0.1,0-0.1c0,0,0,0-0.1,0c0,0-0.1,0-0.1,0
	c0,0,0,0.1,0,0.1c0,0.1,0,0.1-0.1,0.2c-0.1,0.1-0.1,0.2-0.2,0.3c0,0,0,0,0,0c0,0,0,0.1,0,0.1c0,0,0,0.1,0,0.1c0.1,0,0.2,0.1,0.2,0
	c0.1,0,0.1-0.1,0.2,0c0,0,0,0,0.1,0c0,0,0.1,0,0.1,0c0,0,0.1,0,0.1,0c0.1,0,0.1,0,0.1-0.1C17.4,22,17.4,21.9,17.4,21.9z M11.7,4.4
	C11.7,4.4,11.7,4.4,11.7,4.4c0,0,0,0.1,0,0.1c0,0,0,0.1,0,0.1c0,0-0.1,0.1-0.1,0.1c0,0,0,0.1,0,0.1c0,0.1,0,0.1-0.1,0.1
	c0,0-0.1,0-0.1,0.1c0,0.1-0.1,0.1-0.1,0.2c0,0,0,0.1,0,0.1c0,0,0.1,0,0.1,0c0,0,0,0,0.1,0c0,0,0,0,0,0c0.1-0.1,0.2-0.2,0.3-0.3
	c0,0,0-0.1,0.1-0.1c0-0.1,0-0.1,0.1-0.1c0,0,0,0,0.1-0.1c0,0,0,0,0-0.1c0-0.1,0.1-0.1,0.1-0.2c0,0,0-0.1,0-0.1c0,0-0.1-0.1-0.1-0.1
	c0,0-0.1,0-0.1,0c0,0,0,0.1,0,0.1c0,0.1,0,0.1-0.1,0.1c0,0-0.1,0-0.1,0C11.8,4.5,11.8,4.5,11.7,4.4C11.8,4.4,11.7,4.4,11.7,4.4z
	 M6.4,12.6c0,0-0.1,0-0.1,0c0,0,0-0.1,0-0.1c0,0,0-0.1,0-0.1c0,0-0.1,0-0.1-0.1c0,0,0,0,0,0C6,12.2,6,12.1,6,12.1C6,12,6,12,6,11.9
	c0,0,0-0.1-0.1-0.1c0,0,0,0.1,0,0.1c0,0.1,0,0.2,0,0.3c0,0.1,0,0.1,0,0.2c-0.1,0.1,0,0.2,0.1,0.2c0.1,0,0.1,0,0.2,0.1c0,0,0,0,0,0.1
	c0.1,0.1,0.2,0.2,0.4,0.2c0,0,0.1,0,0.1,0c0,0,0,0,0-0.1C6.5,12.8,6.5,12.7,6.4,12.6C6.4,12.6,6.4,12.6,6.4,12.6z M5,11.6
	C5,11.6,5,11.6,5,11.6C5,11.6,5,11.6,5,11.6c-0.1,0.2-0.1,0.2-0.2,0.2c0,0,0,0,0,0c0.1,0.1,0.1,0.1,0.2,0.2C5,12,5,12,5,12
	c0.2,0,0.3,0.1,0.4,0.2c0,0,0,0,0.1,0.1c0.1,0,0.1,0,0.1-0.1c0,0,0,0,0-0.1c0-0.1,0-0.1,0.1-0.2c0,0,0,0,0,0c0,0,0,0,0,0
	c0,0-0.1,0-0.1,0c-0.1,0-0.2,0-0.3,0c0-0.1,0-0.1,0-0.2c0,0,0,0,0,0c0,0,0,0.1-0.1,0.1c0,0.1-0.1,0.1-0.1,0.1
	c-0.1,0-0.1-0.1-0.1-0.1C5,11.6,5,11.6,5,11.6z M4.4,20.5C4.3,20.5,4.3,20.4,4.4,20.5c-0.1-0.1-0.1-0.1-0.2-0.1c0,0,0,0,0,0
	c0,0,0,0,0,0c0.1,0,0.1,0,0.1,0.1c0,0.1,0,0.1,0,0.2c0,0,0,0.1,0,0.1C4.2,21,4.2,21,4.4,21.1c0,0,0.1,0,0.1,0.1c0,0,0,0.1,0,0.1
	c0,0,0,0,0,0c0,0,0,0,0,0c0,0,0-0.1,0.1-0.1c0-0.1,0-0.1,0.1-0.2c0.1-0.2,0.1-0.3,0.1-0.5c0,0,0,0,0-0.1c0,0,0,0,0,0
	c-0.1,0.1-0.1,0.2-0.2,0.2c0,0,0,0,0,0c0,0,0-0.1,0-0.1C4.5,20.5,4.5,20.5,4.4,20.5C4.4,20.4,4.4,20.5,4.4,20.5z M6.1,11.4
	C6.1,11.4,6.1,11.4,6.1,11.4c0,0.1,0,0.1,0,0.1c0.1,0,0.1,0.1,0.1,0.1c0,0.2,0,0.2,0.2,0.1c0,0,0,0,0,0c0,0,0,0,0.1,0c0,0,0,0,0-0.1
	c0,0-0.1-0.1-0.1-0.1c0,0,0,0,0-0.1c0,0,0-0.1-0.1-0.1C6.3,11.3,6.2,11.3,6.1,11.4c0-0.2,0-0.2,0-0.3c0,0,0,0,0-0.1c0,0,0,0,0-0.1
	c0,0,0,0,0,0c0,0,0,0,0,0c0,0,0,0.1-0.1,0.1c0,0,0,0.1,0,0.1c0,0.1-0.1,0.1-0.1,0c0,0,0-0.1,0-0.1c0-0.1,0-0.1,0-0.2
	c0,0-0.1,0-0.1,0c-0.1,0-0.1,0.1-0.1,0.1c0.1,0.1,0.2,0.3,0.2,0.4c0,0,0,0.1,0.1,0.1c0,0,0,0,0.1,0.1c0-0.1,0-0.2,0-0.3
	C6,11.4,6.1,11.4,6.1,11.4z M8.5,10.7C8.5,10.7,8.5,10.7,8.5,10.7c0.1-0.1,0.1-0.2,0-0.2c0,0-0.1,0-0.1,0c0,0,0,0-0.1,0c0,0,0,0,0,0
	c0-0.1,0-0.1-0.1-0.1c0,0,0,0,0,0c0,0-0.1-0.1-0.1,0c0,0-0.1,0-0.1,0.1c0,0.2-0.1,0.3-0.2,0.4c0,0,0,0,0,0c0,0,0.1,0,0.1,0
	c0.2,0,0.4,0,0.5,0.1c0,0,0.1,0,0.1,0c0,0,0.1-0.1,0-0.1C8.6,10.8,8.5,10.8,8.5,10.7z M12.5,12.9C12.5,12.9,12.5,12.9,12.5,12.9
	c-0.1,0-0.1,0-0.1-0.1c0-0.1,0-0.1,0-0.2c0,0,0-0.1-0.1-0.1c0,0,0,0.1,0,0.1c0,0.1,0,0.2-0.1,0.4c0,0-0.1,0.1-0.1,0c0,0,0,0-0.1,0
	c0,0-0.1,0-0.1,0c0,0.1-0.1,0.1-0.1,0c0,0-0.1-0.1-0.1-0.1c0,0-0.1-0.1-0.1-0.1c0,0,0,0,0,0c0,0,0,0,0,0.1c0.1,0.1,0.1,0.2,0.2,0.2
	c0,0,0,0,0,0c0,0-0.1,0-0.1,0.1c0,0,0,0,0,0c0.1,0,0.1,0,0.2,0c0.1,0,0.1-0.1,0.2-0.1c0,0,0,0,0,0c0.1-0.1,0.1-0.1,0.2-0.1
	c0,0,0.1,0,0.1,0C12.5,13,12.5,13,12.5,12.9z M8.7,10.8c0.1,0,0.1,0,0.2-0.1c0,0,0,0,0.1,0c0-0.1,0.1-0.1,0.2,0
	c0,0.1,0.1,0.1,0.1,0.2c0,0,0,0.1,0.1,0.1c0,0,0.1,0,0.1,0c0.1-0.1,0.1-0.2,0.2-0.2c0,0,0-0.1,0-0.1c0-0.1-0.2-0.1-0.2-0.1
	c0,0,0,0,0,0c0,0,0,0.1,0.1,0.1c0,0-0.1,0.1-0.1,0.1c0-0.1-0.1-0.2-0.1-0.2c0,0-0.1,0-0.1-0.1c0,0,0,0.1-0.1,0.1
	c0,0.1,0,0.1-0.1,0.1c0,0-0.1,0-0.1,0C8.7,10.6,8.7,10.7,8.7,10.8z M6,15.1c0-0.1,0.1-0.2,0.2-0.2c0,0,0,0,0,0
	c0.1,0.1,0.2,0.2,0.3,0.2c0,0,0,0,0.1,0c0,0,0,0,0,0c0,0-0.1,0-0.1,0c-0.1,0-0.1-0.1-0.1-0.2c0,0,0-0.1,0-0.1c0,0-0.1,0-0.1,0
	c0,0-0.1,0-0.1,0.1C6,14.8,5.9,14.9,5.9,15c0,0,0,0.1,0,0.1C5.9,15.1,6,15.1,6,15.1c0.1,0.2,0.1,0.2,0.2,0.3c0.1,0,0.1,0,0.1,0
	c0-0.1,0-0.1,0-0.1c0,0,0,0,0-0.1c0-0.1-0.1-0.1-0.1,0c0,0,0,0-0.1,0.1C6.1,15.2,6.1,15.2,6,15.1C6,15.2,6,15.1,6,15.1z M5.1,21.5
	c0.1,0,0.2-0.1,0.3-0.1c0,0-0.1,0-0.1-0.1c0,0-0.1,0-0.1,0c-0.1,0.1-0.1,0.1-0.2,0c-0.1-0.1-0.1-0.1-0.2-0.2c0,0.1-0.1,0.1-0.1,0.2
	c0,0,0,0,0,0.1c0,0,0,0,0.1,0.1c0.1,0.1,0.2,0.1,0.3,0.2c0,0,0,0,0,0c0.1,0,0.2,0,0.2,0.1c0,0,0.1,0,0.2,0c0-0.1,0-0.1,0-0.2
	c-0.1,0.1-0.1,0.1-0.2,0.1C5.2,21.6,5.2,21.6,5.1,21.5z M6.9,11.7C6.9,11.6,7,11.6,6.9,11.7c0.1-0.1,0.1-0.1,0.1-0.2c0,0,0,0-0.1,0
	c0,0,0,0,0,0c0-0.1-0.1-0.2-0.1-0.2c0,0,0,0-0.1,0c0,0,0,0,0,0.1c0,0.1,0,0.1-0.1,0.1c0,0,0,0,0,0c0,0,0,0,0,0.1c0,0,0,0.1,0,0.1
	c0,0,0,0.1,0,0.1c0,0,0,0.1,0.1,0.1c0,0,0.1,0,0.1,0c0,0.1,0.1,0.1,0.2,0.1c0,0,0.1,0,0.1,0C7,11.8,6.9,11.7,6.9,11.7
	C6.9,11.7,6.9,11.7,6.9,11.7z M3,20C3,20,3,20,3,20c0,0.1,0,0.1-0.1,0.1c0,0,0,0,0-0.1c0-0.1,0-0.1-0.1-0.1c0,0,0,0,0,0.1
	c0,0,0,0.1-0.1,0.1c0,0,0,0-0.1-0.1c0,0,0,0,0,0c0,0,0,0,0,0.1c0,0,0,0,0,0c0,0,0,0,0,0c0,0,0,0,0-0.1c0,0,0-0.1,0-0.1c0,0,0,0,0,0
	c0,0.1,0,0.2,0,0.3c0,0,0,0,0.1,0.1c0,0,0.1,0.1,0.1,0.1c0,0,0.1,0,0.1,0c0,0,0.1,0,0.1,0c0.1,0,0.1,0,0.1-0.1c0,0,0-0.1,0-0.1
	C3.1,20.1,3.1,20,3,20z M9.9,8.9c0,0,0,0.1,0,0.1c0,0,0,0.1,0.1,0c0.1,0,0.2,0,0.2-0.2c0,0,0,0,0,0c0,0,0,0,0.1,0
	c0.1-0.1,0.2-0.2,0.2-0.4c0-0.1,0-0.1-0.1,0c0,0-0.1,0-0.1,0.1c-0.1,0-0.1,0.1-0.2,0c0,0-0.1,0-0.1,0c0,0,0,0.1,0.1,0.1
	c0.1,0,0.1,0,0.1-0.1c0,0,0,0,0.1,0c0,0,0.1,0,0.1,0c0,0,0,0.1,0,0.1c0,0-0.1,0.1-0.1,0.1c0,0.1-0.1,0.1-0.2,0c0,0,0,0-0.1-0.1
	c0,0-0.1,0-0.1,0C9.9,8.9,9.9,8.9,9.9,8.9z M11.4,4.4c-0.1,0-0.1,0-0.2,0c0,0-0.1,0-0.1,0c0,0-0.1,0-0.1,0c0,0-0.1,0-0.1,0.1
	c0,0-0.1,0-0.1,0c0-0.1-0.1-0.1-0.1-0.1c0,0-0.1,0-0.1,0c0,0,0.1,0,0.1,0.1c0,0,0.1,0.1,0.1,0.1c0,0.1,0.2,0.1,0.3,0.1c0,0,0,0,0,0
	c0-0.1,0-0.1,0.1-0.1c0.1,0,0.2-0.1,0.2-0.1c0,0,0,0,0,0C11.3,4.5,11.3,4.5,11.4,4.4z M5.2,13.1c0,0-0.1-0.1-0.1-0.1c0,0,0,0-0.1,0
	c0,0,0,0,0,0.1c0,0,0,0.1,0.1,0.1c0.1,0.1,0.2,0.2,0.3,0.3c0.1,0.1,0.1,0,0.2-0.1c0,0,0,0,0-0.1c0-0.1,0-0.1-0.1-0.1
	c-0.1,0-0.2-0.1-0.2-0.3c0,0,0-0.1,0-0.1C5.2,12.8,5.2,12.8,5.2,13.1z M11.7,11.2C11.7,11.2,11.7,11.2,11.7,11.2
	C11.7,11.2,11.7,11.2,11.7,11.2c0,0.2-0.1,0.2-0.1,0.3c-0.1,0-0.1,0-0.1-0.1c0-0.1-0.1-0.1-0.1-0.2c0,0,0,0,0,0c0,0,0,0,0,0
	c0,0.1-0.1,0.1-0.1,0.2c-0.1,0,0,0.1,0,0.1c0,0,0,0,0.1,0.1c0,0,0,0.1,0.1,0.1c0.1,0,0.2,0,0.2,0c0,0,0,0,0.1,0
	c0.1,0,0.2-0.1,0.3-0.2C11.8,11.2,11.8,11.2,11.7,11.2z M7.4,24C7.4,24,7.5,24,7.4,24c0.1-0.1,0.1-0.1,0.2-0.2c0,0,0-0.1,0-0.1
	c0,0,0-0.1,0-0.1c0-0.1,0-0.2,0-0.2c0,0,0,0,0-0.1c0,0,0-0.1,0-0.1c0,0-0.1,0-0.1,0c0,0.1-0.1,0.1-0.1,0.2c0,0,0,0.1,0,0.1
	c0,0,0,0.1,0,0.1c0,0.1,0,0.1,0,0.2C7.4,23.9,7.4,24,7.4,24z M10.5,0.6c-0.1,0.1-0.1,0.1-0.1,0.2c0,0.1,0,0.1,0,0.2c0,0,0,0,0,0
	c0,0,0,0,0-0.1c0,0,0,0,0,0c0,0,0,0,0,0.1c0,0.1,0,0.1,0,0.1c0,0,0,0.1,0,0.1c0,0-0.1,0-0.1,0c0,0-0.1,0.1-0.1,0.1
	c0,0.1,0,0.1,0,0.2c0,0,0,0,0.1,0.1c0,0,0-0.1,0-0.1c0-0.1,0-0.1,0-0.2c0-0.1,0-0.1,0.1,0c0,0,0,0,0.1,0c0,0,0,0,0-0.1
	c0-0.1,0.1-0.2,0.1-0.3c0-0.1,0-0.1,0-0.2C10.5,0.7,10.5,0.7,10.5,0.6z M10.1,16.1c0.1,0,0.1,0,0.2,0c0,0,0.1,0,0.1,0
	c0-0.1,0-0.1,0.1-0.1c0,0,0,0,0,0c0,0,0,0,0,0c0,0,0,0,0,0c-0.1,0-0.2,0-0.3,0c0,0-0.1,0-0.1,0c0,0.1,0,0.2,0,0.3c0,0.1,0,0.1,0.1,0
	C10.2,16.3,10.2,16.2,10.1,16.1C10.2,16.2,10.2,16.2,10.1,16.1z M11.1,6.1C11.2,6,11.4,6,11.5,5.9c0.1,0,0.1-0.1,0.1-0.1
	c0,0,0.1-0.1,0.1-0.1c0.1,0,0.1,0,0.1-0.1c0,0-0.1,0-0.1,0c-0.1,0.1-0.1,0.1-0.2,0c0,0,0,0,0,0c0,0.1,0,0.1-0.1,0.2
	c0,0.1-0.1,0.1-0.1,0c0,0,0-0.1-0.1-0.1c0,0,0,0,0,0.1c0,0,0,0.1,0,0.1c0,0,0,0,0,0.1c0,0,0,0-0.1-0.1c0,0,0-0.1,0-0.1c0,0,0,0,0,0
	c0,0,0,0,0,0.1C11.1,5.9,11.1,6,11.1,6.1z M2.9,18.3c0,0,0.1-0.1,0.1-0.1c0,0,0,0,0.1,0c0,0,0,0,0,0.1c0,0,0,0.1,0,0.1
	c0,0,0.1,0,0.1,0c0-0.1,0-0.1,0.1-0.2c0,0,0-0.1,0-0.1c0,0-0.1,0.1-0.1,0c0,0-0.1,0-0.1,0c0,0-0.1,0-0.1,0c-0.1,0.1-0.1,0.1-0.2,0
	c0,0,0,0,0,0c0,0,0,0,0,0c0,0,0,0,0,0.1c0,0,0,0.1,0,0.1C2.8,18.2,2.9,18.2,2.9,18.3z M8.6,9.7c0,0,0-0.1,0-0.1c0-0.1,0-0.1,0-0.2
	c0,0,0,0,0-0.1c-0.1,0-0.2,0-0.3,0.1c0,0.1,0,0.1-0.1,0.2c0,0.1,0,0.1,0,0.1c0,0,0.1,0,0.1,0C8.5,9.7,8.6,9.7,8.6,9.7z M16.1,22.3
	c0.1,0.1,0.1,0.1,0.2,0c0.1,0,0.1-0.1,0.1-0.1c0-0.1,0-0.1,0-0.2c0-0.1-0.2-0.2-0.3-0.1c0,0,0,0,0,0c0,0,0,0.1,0,0.1c0,0,0,0,0.1,0
	c0,0,0,0,0,0c0,0,0,0,0,0.1C16.2,22.2,16.1,22.2,16.1,22.3z M15.2,16.1c0-0.1,0-0.1,0-0.2c0,0-0.1-0.1-0.1-0.1c0,0-0.1,0-0.1,0
	c0,0.1-0.1,0.3-0.1,0.4c0,0,0,0.1,0,0.1c0,0,0.1,0,0.1,0C15,16.3,15.1,16.2,15.2,16.1C15.2,16.2,15.2,16.2,15.2,16.1z M9.5,5.7
	C9.5,5.6,9.5,5.6,9.5,5.7c0-0.2,0.1-0.2,0.1-0.3c0,0,0-0.1,0-0.1c0-0.1,0-0.1,0-0.2c0,0,0-0.1,0-0.1c0,0-0.1,0-0.1,0
	c0,0-0.1,0.1-0.1,0.1c0,0,0,0-0.1,0c0.1,0,0.1,0,0.2,0c0,0.1,0,0.2-0.1,0.2c0,0,0,0,0,0.1c0,0.1,0,0.1-0.1,0.1c-0.1,0-0.1,0-0.1-0.1
	c0-0.1,0-0.1,0-0.2C9.2,5.5,9.3,5.6,9.5,5.7z M8.8,2.7c0,0,0.1-0.1,0.1-0.2c0-0.1,0-0.1-0.1-0.1c0,0,0,0-0.1,0c-0.1,0-0.2,0-0.3,0
	c-0.1,0-0.1,0.1,0,0.2c0.1-0.1,0.2-0.1,0.3-0.1c0,0,0.1,0,0,0.1C8.7,2.6,8.7,2.6,8.8,2.7c-0.1-0.1-0.1-0.1-0.1,0c0,0,0,0.1,0,0.1
	c0.1,0,0.1,0.1,0.2,0.1c0,0,0.1,0,0.1,0c0,0,0,0,0.1,0c0,0,0,0-0.1,0C8.9,2.8,8.8,2.8,8.8,2.7C8.8,2.8,8.8,2.8,8.8,2.7z M5.7,18.2
	c0.1,0,0.1,0,0.1-0.1c0-0.1,0-0.2-0.1-0.2c-0.1,0-0.1,0-0.1-0.2c0,0,0-0.1,0-0.1c0,0,0,0-0.1,0c0,0,0,0,0,0.1c0,0,0,0.1,0,0.1
	c0,0,0,0,0,0.1c0,0,0,0-0.1,0c-0.1,0-0.1,0,0,0.1C5.5,18.1,5.6,18.2,5.7,18.2z M6.8,24C6.8,24,6.9,24,6.8,24C6.9,24,6.9,24,6.8,24
	c0.1-0.3,0.1-0.5,0.1-0.7c0,0,0,0,0,0c-0.1,0-0.1,0.1-0.1,0.1c0,0.2,0,0.3,0,0.5C6.8,23.9,6.8,24,6.8,24z M8.7,6.2c0,0,0-0.2,0-0.2
	C8.7,6,8.6,6,8.6,6c0,0,0,0,0,0c0,0,0,0,0.1,0c0,0,0.1,0,0.1,0c0-0.1,0-0.1,0-0.2c0,0,0,0,0,0c0,0,0,0,0,0c0,0,0,0,0,0.1
	c0,0,0,0.1,0,0.1c0,0,0,0-0.1,0c0,0-0.1,0-0.1,0c0-0.1,0-0.1,0-0.2c0,0,0,0,0-0.1c0,0,0,0,0,0c0,0,0,0.1,0,0.1c0,0,0,0.1,0,0.1
	c0,0.1,0,0.1,0,0.1c0,0.1,0.1,0.1,0.1,0.1C8.6,6.2,8.6,6.2,8.7,6.2z M12.9,5.1C12.8,5.1,12.8,5.1,12.9,5.1c-0.1,0-0.1,0-0.1,0.1
	c-0.1,0.1-0.1,0.1-0.1,0c0,0,0,0,0,0c0,0.1,0,0.1,0,0.2c0,0,0,0.1,0,0.1c-0.1,0.1-0.1,0.1,0,0.1c0,0.1,0.1,0.1,0,0.2c0,0,0,0,0,0
	c0,0,0,0,0,0c0-0.1,0.1-0.2,0.1-0.2c0,0,0,0,0-0.1c0-0.1,0-0.1,0-0.1C12.8,5.3,12.8,5.3,12.9,5.1C12.8,5.2,12.8,5.2,12.9,5.1z
	 M12.6,11.4C12.6,11.4,12.6,11.4,12.6,11.4c-0.1,0.1-0.1,0.2-0.1,0.3c0,0.1,0,0.1,0,0.1c0,0,0,0.1,0,0.1c0.1,0,0.1,0,0.2,0
	c0,0,0-0.1,0-0.1c0,0,0,0,0,0c0,0,0-0.1,0-0.1c0,0,0-0.1,0-0.1c0,0,0,0-0.1,0c-0.1,0-0.1,0-0.1-0.1C12.6,11.5,12.6,11.4,12.6,11.4z
	 M15,18.6c0,0.1-0.1,0.1-0.1,0.2c0,0.1-0.1,0.1,0,0.2c0.1,0.1,0.1,0.2,0,0.3c0,0,0,0,0,0.1c0,0,0,0,0,0.1C15,19.3,15.1,18.8,15,18.6
	z M4.3,19.7c0-0.1,0-0.1,0-0.1c0,0-0.1-0.1-0.1-0.1c-0.1,0-0.1-0.1,0-0.2c0,0,0-0.1,0-0.1c0,0,0,0,0,0c0,0,0,0.1-0.1,0.1
	c0,0.1,0,0.2,0,0.3c0,0,0,0.1,0,0.1C4.2,19.6,4.3,19.7,4.3,19.7z M3.1,19.4c0-0.1-0.1-0.3-0.1-0.4c0,0,0,0-0.1-0.1c0,0,0,0,0,0.1
	c0,0.1,0,0.2,0,0.3C2.9,19.4,3,19.4,3.1,19.4C3.1,19.5,3.1,19.5,3.1,19.4z M9.6,13.4C9.6,13.4,9.6,13.4,9.6,13.4
	C9.6,13.4,9.6,13.4,9.6,13.4c0-0.2,0-0.3,0-0.4c0-0.1,0-0.1,0-0.2c0,0,0,0,0,0c0,0,0,0,0,0C9.4,13,9.5,13.2,9.6,13.4
	C9.5,13.4,9.5,13.4,9.6,13.4z M14.6,16C14.6,16.1,14.6,16.1,14.6,16c0,0.2-0.1,0.3-0.1,0.3c0,0,0,0.1,0.1,0.1c0,0,0.1,0,0.1-0.1
	c0-0.1,0.1-0.1,0.1-0.2c0,0,0-0.1,0-0.1c0,0,0-0.1-0.1,0C14.7,16.1,14.6,16.1,14.6,16z M13.7,11.9c0,0-0.1,0.1-0.1,0.1
	c0,0.1,0,0.3,0,0.4c0.1,0,0.2-0.1,0.1-0.2c0,0,0-0.1,0-0.1c0,0,0,0,0-0.1C13.8,12,13.8,11.9,13.7,11.9z M16,15.3
	C15.9,15.3,15.9,15.3,16,15.3c0,0.2,0,0.3-0.1,0.3c0,0,0,0,0,0.1c0,0,0,0.1,0.1,0.1c0.1,0,0.1,0,0.1-0.1c0-0.1,0-0.1,0-0.2
	C16.1,15.4,16.1,15.3,16,15.3z M8.3,14.1c0.1,0,0.1,0.1,0.2,0.1c0.1,0,0.1,0,0.2,0c0,0,0-0.1,0-0.1c-0.1,0-0.1-0.1-0.1-0.1
	c0,0,0-0.1,0-0.1C8.4,14,8.4,14,8.3,14.1z M5.8,14.8C5.8,14.8,5.8,14.8,5.8,14.8c0-0.1,0-0.1,0-0.2c0,0,0,0,0-0.1c0,0,0,0,0,0
	c-0.1,0-0.1,0.1-0.1,0.2c0,0.1,0.1,0.1,0.1,0.2C5.8,14.9,5.8,14.9,5.8,14.8c0.1,0.1,0.1,0.1,0.1,0c0,0,0-0.1,0-0.1
	C5.9,14.7,5.8,14.7,5.8,14.8C5.8,14.8,5.8,14.8,5.8,14.8z M12.9,17C12.9,17,12.9,17,12.9,17C12.9,17,12.9,17,12.9,17
	c0-0.1,0-0.1,0-0.1C12.9,16.9,12.8,16.9,12.9,17c-0.1,0-0.2,0-0.2,0.1c0,0,0,0.1,0,0.1c0.1,0,0.1,0,0.2,0c0,0,0,0,0-0.1
	C12.9,17.1,12.9,17,12.9,17z M8.5,2C8.3,2,8.2,2,8.1,2.1C8.1,2.1,8,2.2,8,2.2c0,0,0,0,0,0.1c0,0,0.1,0,0.1,0c0,0,0.1,0,0.1-0.1
	C8.2,2.2,8.3,2.1,8.5,2C8.4,2.1,8.4,2.1,8.5,2z M9.3,21.3C9.3,21.3,9.3,21.3,9.3,21.3c-0.1,0-0.1,0.1-0.1,0.1c-0.1,0.1,0,0.2,0,0.3
	c0,0,0.1,0,0.1,0c0,0,0,0,0-0.1c0,0,0-0.1,0-0.1c0,0,0-0.1,0-0.1C9.3,21.3,9.3,21.3,9.3,21.3z M7,17C7,17,7,17,7,17
	C6.9,17,6.9,17,7,17c-0.1,0.1-0.2,0.1-0.3,0.2c0,0,0,0.1,0,0.1c0,0,0.1,0.1,0.1,0.1c0,0,0,0,0,0c0,0,0.1-0.1,0.1-0.2
	C6.9,17.1,6.9,17.1,7,17z M13.2,12.8c0.1,0,0.3-0.1,0.4-0.2c0,0,0-0.1,0-0.1c-0.1,0-0.1,0-0.1,0.1c-0.1,0.1-0.1,0.1-0.2,0.1
	c0,0,0,0,0,0C13.2,12.7,13.2,12.7,13.2,12.8z M7.7,17.4C7.7,17.4,7.6,17.4,7.7,17.4c-0.1,0.1-0.1,0.1-0.1,0.1c0.1,0,0.2,0.1,0.2,0.1
	c0,0,0.1,0,0.1-0.1c0,0,0,0,0,0C7.8,17.5,7.8,17.4,7.7,17.4z M3.5,19.5C3.5,19.5,3.5,19.5,3.5,19.5c0.1-0.1,0-0.3-0.1-0.4
	c0,0-0.1,0-0.1,0c0,0.1,0,0.2-0.1,0.3c0,0,0,0,0,0.1c0-0.1,0.1-0.1,0.1-0.1C3.4,19.4,3.4,19.5,3.5,19.5z M8.9,1.8
	C8.9,1.8,8.9,1.7,8.9,1.8c-0.1,0-0.1,0-0.2,0c-0.1,0-0.1,0-0.1,0.1c0,0.1,0,0.1,0.1,0.1c0,0,0.1,0,0.1,0c0,0,0-0.1,0-0.1
	C8.7,1.8,8.7,1.8,8.9,1.8C8.8,1.8,8.9,1.8,8.9,1.8z M7.3,17.2c0,0.1,0,0.2,0,0.2c0,0,0,0,0,0c0.1,0,0.2,0,0.1-0.1
	C7.5,17.2,7.5,17.2,7.3,17.2C7.4,17.2,7.4,17.2,7.3,17.2z M7.1,17.4C7.1,17.4,7.1,17.4,7.1,17.4C7.1,17.3,7.1,17.3,7.1,17.4
	c0.1-0.1,0.1-0.2,0.1-0.3c0-0.1,0-0.2-0.1-0.2C7.1,17,7.1,17.2,7.1,17.4z M10.9,1.9C10.9,1.9,10.9,1.9,10.9,1.9C10.9,2,11,2,11,2
	c0,0.1,0.1,0.1,0.1,0.2c0,0,0,0,0,0c0,0,0,0,0.1,0c0-0.1,0-0.2,0-0.2c0,0,0,0,0,0C11.1,2,11,2,10.9,1.9C11,1.9,11,1.9,10.9,1.9z
	 M6.1,15.7C6.1,15.7,6.1,15.7,6.1,15.7c-0.1-0.1-0.1,0-0.1,0c0,0-0.1,0.1-0.1,0.1c0,0-0.1,0.1,0,0.1c0,0,0.1,0,0.1,0.1c0,0,0,0,0,0
	C6,15.9,6.1,15.8,6.1,15.7z M9.5,18.4c0,0,0-0.1,0-0.2c0,0,0,0,0,0c0,0,0,0,0,0C9.4,18.2,9.4,18.3,9.5,18.4c-0.1,0-0.1,0.1-0.1,0.2
	c0,0,0,0,0,0c0,0,0.1,0,0.1,0C9.5,18.5,9.5,18.5,9.5,18.4z M11.4,8.2c0.1,0,0.2,0,0.3-0.1c0,0-0.1,0-0.1,0c-0.1,0-0.1,0-0.1-0.1
	c0,0,0-0.1,0-0.1c0,0,0,0,0,0c0,0,0,0,0,0c0,0,0,0,0,0C11.5,8,11.4,8,11.4,8.2C11.4,8.1,11.4,8.1,11.4,8.2z M8.9,6c0,0,0-0.1,0-0.1
	c0,0,0,0-0.1-0.1c0,0,0,0,0,0.1c0,0.1,0,0.1,0,0.2c0,0.1,0,0.1,0.1,0.1c0,0,0.1,0,0.1,0C8.9,6.1,8.9,6,8.9,6z M8.4,8.8
	c-0.1,0-0.1,0-0.2,0c0,0-0.1,0-0.1,0.1C8.2,9,8.2,9,8.2,9c0.1,0,0.1,0,0.2,0c0,0,0.1,0,0.1,0C8.5,8.9,8.4,8.9,8.4,8.8z M13.1,14.4
	C13,14.3,13,14.3,13.1,14.4c-0.2-0.1-0.2,0-0.3,0c-0.1,0-0.1,0,0,0.1c0,0,0,0,0,0c0,0,0,0,0,0C12.9,14.5,13,14.4,13.1,14.4
	C13,14.4,13,14.4,13.1,14.4z M9,10c0,0.1,0.1,0.3,0.2,0.3c0-0.1,0-0.1,0-0.2c0,0,0,0,0,0C9.1,10,9.1,10,9,10z M10.4,8.4
	c0.1-0.1,0.1-0.1,0.1-0.2c0,0,0-0.1,0-0.1c0,0,0,0,0-0.1c0,0-0.1,0-0.1,0c0,0,0,0.1,0,0.1C10.3,8.2,10.3,8.2,10.4,8.4z M12.8,12.7
	C12.7,12.7,12.7,12.7,12.8,12.7c-0.1-0.1-0.2-0.1-0.1-0.1c0,0,0-0.1,0.1-0.2c-0.1,0-0.2,0-0.2,0.1c0,0.1,0,0.1,0.1,0.2
	C12.6,12.8,12.7,12.8,12.8,12.7z M9,9.4C9,9.4,8.9,9.4,9,9.4C8.9,9.4,8.9,9.5,9,9.4C8.9,9.5,8.9,9.6,8.9,9.7c0,0.1,0.1,0.1,0.1,0.1
	c0,0,0,0,0-0.1C9,9.6,9,9.5,9,9.4z M10.6,10.8c0,0-0.1-0.1-0.1-0.1c0,0-0.1-0.1-0.1,0c0,0.1,0.1,0.1,0.1,0.2c0,0.1-0.1,0.1-0.1,0.1
	c0.1,0.1,0.1,0,0.2,0C10.5,10.9,10.6,10.9,10.6,10.8z M8.2,11.1C8.2,11.1,8.2,11,8.2,11.1c-0.1-0.1-0.2-0.1-0.3-0.1c0,0-0.1,0-0.1,0
	c0,0,0,0,0.1,0.1c0,0,0,0,0,0C7.9,11,8,11.1,8.2,11.1C8.1,11.1,8.2,11.1,8.2,11.1z M12.9,3.8C12.8,3.8,12.8,3.8,12.9,3.8
	c-0.1,0-0.2,0-0.2,0c0,0-0.1,0,0,0.1c0,0,0.1,0.1,0.1,0.1c0,0,0.1,0,0.1,0c0,0,0,0,0-0.1C12.8,3.9,12.8,3.9,12.9,3.8
	C12.8,3.8,12.8,3.8,12.9,3.8z M10.9,6.1C10.9,6.1,10.9,6.1,10.9,6.1C10.9,6.1,10.9,6.1,10.9,6.1c-0.1,0.1-0.1,0.2-0.2,0.2
	c0,0,0,0,0,0c0,0,0,0.1,0,0.1c0,0,0.1,0,0.1,0c0.1,0,0.1-0.1,0.2-0.1C11,6.2,11,6.2,10.9,6.1C10.9,6.1,10.9,6.1,10.9,6.1z M10.9,1.6
	C10.9,1.6,10.9,1.6,10.9,1.6c-0.1,0.1-0.2,0.2-0.2,0.3c0,0,0,0.1-0.1,0.1c0,0,0,0,0,0C10.9,1.9,10.9,1.7,10.9,1.6z M15.9,21.7
	c-0.1,0-0.1,0-0.1,0.1c0,0.1,0,0.2,0,0.3c0,0,0,0,0,0c0,0,0,0,0,0c0-0.1,0-0.1,0-0.2C15.8,21.8,15.8,21.7,15.9,21.7z M11.4,1.7
	c0-0.1,0-0.1-0.1-0.1c0,0-0.1,0-0.1,0.1c0,0,0,0,0,0.1C11.2,1.7,11.2,1.8,11.4,1.7C11.3,1.8,11.4,1.7,11.4,1.7z M15.3,15.9
	c0-0.1,0-0.2-0.1-0.2c0,0-0.1,0-0.1,0C15.1,15.8,15.1,15.9,15.3,15.9z M9,7.2c0-0.1,0-0.1,0-0.1C9,7,8.9,7,8.9,7c0,0,0,0,0,0
	C8.9,7,8.8,7,8.8,7c0,0,0,0.1,0,0.1C8.9,7.1,9,7.2,9,7.2z M9.5,9.4C9.4,9.4,9.4,9.4,9.5,9.4C9.4,9.5,9.4,9.5,9.4,9.6
	c0,0.1,0,0.1-0.1,0.2c0,0,0,0,0,0c0,0,0,0,0.1,0c0,0,0,0,0.1,0C9.5,9.6,9.5,9.5,9.5,9.4z M7.1,15.1c-0.1,0.1,0,0.3,0.1,0.3
	c0,0,0.1,0,0.1,0c0,0,0,0,0,0c0,0,0,0,0,0c-0.1,0-0.1-0.1-0.1-0.1C7.2,15.3,7.2,15.2,7.1,15.1z M15,22.2C15,22.2,15.1,22.2,15,22.2
	c0.1-0.1,0.1-0.1,0.1-0.1c0,0,0,0,0,0c0,0,0,0,0,0c0,0,0,0,0,0c0,0,0,0,0,0c0,0,0-0.1-0.1-0.1c0,0-0.1,0-0.2,0
	C15,22.1,15,22.2,15,22.2z M8.8,11.1c0-0.1-0.3-0.1-0.4-0.1c0.1,0,0.1,0.1,0.2,0.1c0,0,0,0,0.1,0c0,0,0,0,0.1,0
	C8.7,11.1,8.8,11.2,8.8,11.1z M11.9,21C11.9,21,11.9,21,11.9,21c0,0-0.1,0.1-0.1,0.1c0,0.1,0,0.2,0,0.3c0,0,0,0,0,0.1c0,0,0,0,0-0.1
	C11.9,21.2,11.9,21.1,11.9,21z M9.3,8.3C9.3,8.3,9.3,8.3,9.3,8.3C9.2,8.3,9.2,8.2,9.2,8.2c0,0,0-0.1,0-0.1c0,0,0,0,0,0c0,0,0,0,0,0
	c0,0.1,0,0.1,0,0.2C9.1,8.4,9.2,8.4,9.3,8.3z M15.7,19.5c0,0.1,0,0.2,0,0.3c0,0,0.1,0,0.1,0c0,0,0,0,0,0
	C15.8,19.7,15.7,19.6,15.7,19.5z M3.9,20.5c0.1-0.1,0.2-0.1,0.2-0.3c0,0,0-0.1,0-0.1C4,20.3,3.9,20.4,3.9,20.5z M14.5,16.2
	C14.5,16.2,14.4,16.2,14.5,16.2c-0.1-0.1-0.2-0.1-0.2-0.1c0,0,0,0,0,0c0,0,0,0.1,0,0.1c0,0,0.1,0,0.1,0
	C14.4,16.2,14.4,16.2,14.5,16.2z M10.7,2.4c0,0.1,0.1,0.1,0.2,0.1c0,0,0,0,0.1,0c0,0,0,0,0,0c0,0,0,0,0,0c0,0,0,0,0,0c0,0,0,0,0.1,0
	c0,0,0,0,0.1,0c0,0,0,0,0,0C10.9,2.3,10.8,2.4,10.7,2.4z M12.9,9.1C12.9,9,13,9,13,8.9c0,0,0-0.1,0-0.1c0,0,0,0,0,0
	C12.9,8.8,12.9,9,12.9,9.1z M6.6,16C6.6,16,6.6,15.9,6.6,16c-0.1-0.1-0.1-0.1-0.1,0c0,0,0,0.1,0,0.1c0,0,0,0.1,0.1,0.1
	C6.5,16.1,6.6,16.1,6.6,16z M4.6,14.2C4.6,14.2,4.6,14.2,4.6,14.2C4.6,14.2,4.6,14.2,4.6,14.2c0.1-0.1,0.1-0.2,0.2-0.3c0,0,0,0,0,0
	c0,0-0.1,0-0.1,0C4.6,14,4.6,14.1,4.6,14.2z M16.5,23.1C16.4,23.1,16.4,23.1,16.5,23.1C16.4,23.1,16.4,23.1,16.5,23.1
	c-0.1,0.1-0.1,0.2,0,0.3c0,0,0,0,0,0c0,0,0,0,0-0.1C16.5,23.2,16.5,23.2,16.5,23.1z M11.5,14.9C11.5,14.9,11.5,14.9,11.5,14.9
	c0,0.1,0,0.2-0.1,0.3c0,0,0,0,0,0.1c0,0,0.1,0,0.1-0.1C11.6,15.1,11.6,15,11.5,14.9C11.6,14.9,11.6,14.9,11.5,14.9z M9.4,2.2
	C9.4,2.2,9.4,2.2,9.4,2.2C9.4,2.2,9.4,2.2,9.4,2.2c-0.1,0-0.2,0.1-0.2,0.1c0,0,0,0,0,0.1c0,0,0,0,0,0C9.4,2.4,9.4,2.3,9.4,2.2z
	 M4.8,16.8c0,0,0-0.1,0-0.1c0-0.1,0-0.1-0.1-0.1c0,0-0.1,0-0.1,0c0,0,0,0.1,0,0.1C4.7,16.7,4.7,16.7,4.8,16.8z M4.2,20.8
	C4.2,20.8,4.2,20.7,4.2,20.8c0-0.1,0-0.2-0.1-0.2c0,0-0.1,0-0.1,0C4,20.7,4.1,20.8,4.2,20.8z M11.3,6.2C11.3,6.2,11.3,6.2,11.3,6.2
	c0.1,0,0.2,0,0.2-0.1c0,0,0-0.1,0-0.1C11.5,6,11.3,6.1,11.3,6.2z M14.3,22C14.2,22,14.2,22.1,14.3,22c-0.1,0.1-0.1,0-0.2,0
	c0,0.1,0,0.1,0,0.1c0.1,0,0.1,0,0.2,0C14.3,22.1,14.3,22.1,14.3,22z M5.3,17.7c0.1-0.1,0.1-0.1,0.2-0.2C5.3,17.4,5.2,17.5,5.3,17.7z
	 M10.9,9.9C10.9,9.9,10.9,9.9,10.9,9.9c-0.1,0-0.1,0.1-0.2,0.1c0,0,0.1,0.1,0.1,0.1c0,0,0.1,0,0.1,0C11,10,11,10,10.9,9.9
	C11,9.9,11,9.9,10.9,9.9z M12.5,14.7c-0.1-0.1-0.1-0.1-0.2-0.1C12.3,14.7,12.4,14.7,12.5,14.7z M5.4,12.5c0,0.1,0.1,0.1,0.1,0.2
	c0-0.1,0.1-0.1,0.1-0.2c0,0,0,0,0,0C5.6,12.4,5.5,12.4,5.4,12.5z M5,14.5C5,14.5,5.1,14.5,5,14.5c0.1-0.1,0-0.1,0-0.1
	C4.9,14.4,4.9,14.4,5,14.5C4.9,14.5,4.9,14.5,5,14.5z M7.9,9.5C7.9,9.5,8,9.5,7.9,9.5c0-0.1,0-0.1-0.1-0.2c0,0,0,0.1,0,0.1
	C7.8,9.5,7.8,9.5,7.9,9.5z M10.3,5.3c0,0,0-0.1,0.1-0.1c0,0,0,0,0,0c0,0-0.2-0.1-0.2,0C10.2,5.2,10.3,5.2,10.3,5.3z M3.6,19.4
	c0,0-0.1,0.1-0.1,0.1c0.1,0,0.2,0,0.2,0C3.8,19.5,3.7,19.4,3.6,19.4C3.7,19.4,3.6,19.4,3.6,19.4z M6.6,9.2C6.6,9.2,6.6,9.2,6.6,9.2
	c-0.1,0-0.1-0.1-0.1-0.1c0,0-0.1,0-0.1,0c0,0,0,0-0.1,0c0,0,0,0.1,0.1,0.1C6.4,9.2,6.5,9.2,6.6,9.2z M6.4,16.3
	C6.4,16.3,6.4,16.3,6.4,16.3c-0.1,0.1-0.1,0.1-0.1,0.2c0,0,0,0.1,0,0.1c0,0,0.1,0,0.1-0.1C6.4,16.5,6.4,16.4,6.4,16.3z M15.6,18.4
	c0.1,0,0.1-0.1,0.1-0.2c-0.1,0-0.1,0-0.2,0C15.6,18.3,15.6,18.4,15.6,18.4z M9,14c0,0,0-0.1-0.1-0.1c0,0-0.1,0.1-0.1,0.1
	C8.8,14,8.9,14,9,14C8.9,14,9,14,9,14z M17.4,21.3c0,0.1,0,0.2,0.1,0.3C17.5,21.4,17.5,21.3,17.4,21.3z M7.3,10.1
	C7.3,10,7.4,10,7.5,9.8C7.4,9.8,7.3,10,7.3,10.1z M8.4,2.3C8.3,2.3,8.3,2.3,8.4,2.3c-0.1,0-0.2,0-0.2,0c0,0.1,0,0.1,0.1,0.1
	C8.3,2.4,8.3,2.4,8.4,2.3z M9.4,7.2C9.4,7.2,9.4,7.2,9.4,7.2C9.4,7.2,9.4,7.2,9.4,7.2c0-0.1-0.1-0.1-0.1-0.1c0,0,0,0-0.1,0
	c0,0,0,0,0,0.1C9.3,7.2,9.3,7.2,9.4,7.2z M10.7,4.1c0,0.1,0,0.1,0,0.2c0,0,0.1,0,0.1,0c0,0,0-0.1,0-0.1C10.8,4.2,10.7,4.2,10.7,4.1z
	 M9,2.1C9,2.1,9,2.1,9,2.1c0.1,0,0.1,0.1,0.2,0.1c0,0,0,0,0,0c0,0,0.1-0.1,0.1-0.1C9.2,2,9.1,2.1,9,2.1z M5.6,10.9
	c0.1-0.2,0-0.2-0.1-0.2c0,0-0.1,0,0,0C5.5,10.8,5.5,10.9,5.6,10.9z M18.7,20.7C18.7,20.7,18.7,20.7,18.7,20.7
	c-0.1,0.1-0.1,0.2,0,0.2c0,0,0,0,0,0c0,0,0.1-0.1,0.1-0.1C18.8,20.8,18.8,20.7,18.7,20.7z M9.6,10.3c-0.1-0.1-0.2-0.1-0.3,0
	C9.4,10.4,9.5,10.4,9.6,10.3z M9,2.6C9,2.6,9,2.7,9,2.6c0,0.1,0,0.1,0,0.1c0,0,0.1,0,0.1-0.1C9.1,2.7,9.1,2.6,9,2.6z M5.2,22.3
	c0,0,0,0.1,0,0.1c0,0,0,0.1,0,0.1c0,0,0.1,0,0.1,0C5.3,22.4,5.2,22.3,5.2,22.3z M11,8.2C11,8.2,11,8.2,11,8.2c0.1,0,0.1,0,0.2,0
	c0,0,0,0,0-0.1c0,0,0,0-0.1,0C11.1,8.1,11.1,8.2,11,8.2z M7.6,19.1c0,0.1,0,0.1,0.1,0.1c0,0,0.1,0,0.1-0.1
	C7.7,19.2,7.6,19.1,7.6,19.1C7.6,19.1,7.6,19.1,7.6,19.1z M9.2,6.3C9.1,6.2,9,6.2,8.9,6.3C9,6.3,9.1,6.3,9.2,6.3z M9.6,6.2
	c0,0.1,0.1,0.2,0.1,0.3c0-0.1,0-0.1,0-0.2C9.7,6.2,9.7,6.2,9.6,6.2z M6.2,17.5c0,0-0.1-0.1-0.1,0c0,0,0,0.1,0,0.1c0,0,0,0.1,0.1,0
	C6.2,17.5,6.2,17.5,6.2,17.5z M16.3,18c0.1-0.1,0.1-0.1,0.1-0.2c0,0,0,0,0,0c0,0,0,0,0,0C16.3,17.8,16.3,17.9,16.3,18z M11.4,8.4
	c-0.1,0-0.1,0-0.1,0c0,0,0,0-0.1,0c0,0,0,0.1,0,0.1C11.3,8.5,11.4,8.5,11.4,8.4C11.4,8.5,11.4,8.4,11.4,8.4z M4,22.2
	C3.9,22.1,3.9,22.1,4,22.2c-0.1-0.1-0.1,0-0.1,0c0,0,0,0,0,0c0,0,0,0.1,0,0.1c0,0,0,0,0,0C3.9,22.2,3.9,22.2,4,22.2z M11.9,6
	c0-0.1-0.1-0.1-0.1-0.1c0,0,0,0-0.1,0c0,0,0,0.1,0,0.1C11.8,6,11.8,6,11.9,6z M16,18.3c0.2,0,0.2,0,0.1-0.2
	C16.1,18.1,16.1,18.2,16,18.3z M8.1,7.4C8.1,7.4,8.2,7.4,8.1,7.4c0.1-0.1,0-0.2,0-0.2C8.1,7.3,8,7.3,8.1,7.4C8,7.4,8.1,7.4,8.1,7.4z
	 M8.2,11.8c0-0.1,0-0.1,0.1-0.1c0,0,0-0.1,0-0.1c0,0-0.1,0-0.1,0C8.2,11.7,8.2,11.7,8.2,11.8z M10,13.3c0-0.1,0.1-0.2,0-0.3
	C9.9,13,9.9,13.1,10,13.3z M9.4,8.8C9.4,8.8,9.4,8.9,9.4,8.8c0.1,0,0.1,0,0.1-0.1C9.5,8.8,9.5,8.7,9.4,8.8C9.4,8.7,9.4,8.8,9.4,8.8z
	 M13.7,14.4C13.7,14.4,13.6,14.4,13.7,14.4c-0.1,0-0.1,0-0.1,0C13.6,14.4,13.6,14.5,13.7,14.4C13.6,14.5,13.7,14.5,13.7,14.4z
	 M7.2,13C7.2,12.9,7.2,12.9,7.2,13c-0.1-0.1-0.1-0.1-0.1-0.1C7,13,7.1,13,7.2,13C7.2,13,7.2,13,7.2,13z M14.6,22.2
	C14.6,22.2,14.6,22.2,14.6,22.2c0.1-0.1,0-0.1,0-0.2C14.5,22.1,14.5,22.1,14.6,22.2C14.5,22.2,14.5,22.2,14.6,22.2z M8,8.8
	C7.9,8.8,7.9,8.8,8,8.8C7.9,8.9,7.9,8.9,8,9C8,8.9,8,8.9,8,8.8C8,8.9,8,8.8,8,8.8z M6.7,18c-0.1,0-0.1,0.1-0.1,0.1
	c0,0.1,0,0.1,0.1,0.1C6.8,18.1,6.8,18.1,6.7,18z M12.8,14.2C12.7,14.2,12.7,14.1,12.8,14.2c-0.1,0-0.1,0-0.1,0.1c0,0,0,0,0,0
	C12.7,14.3,12.8,14.2,12.8,14.2z M10.6,22.1c-0.1,0-0.1,0-0.1,0.1c0,0,0,0,0,0.1c0,0,0,0,0.1,0C10.6,22.2,10.6,22.2,10.6,22.1z
	 M10.3,4.7c0-0.1-0.1-0.1-0.1-0.1c0,0,0,0,0,0.1C10.1,4.7,10.2,4.8,10.3,4.7z M4.9,17.4C4.9,17.4,4.9,17.4,4.9,17.4
	C4.9,17.4,4.8,17.4,4.9,17.4c-0.1,0-0.1,0-0.1,0c0,0,0,0,0,0.1C4.9,17.5,4.9,17.5,4.9,17.4C4.9,17.5,4.9,17.5,4.9,17.4z M15.9,18.1
	c0.1,0,0.1,0,0.1-0.1c0,0,0,0,0-0.1c0,0,0,0-0.1,0C15.9,18,15.9,18,15.9,18.1C15.8,18.1,15.8,18.1,15.9,18.1
	C15.8,18.1,15.9,18.1,15.9,18.1z M7,9.6c0,0.1,0,0.1,0,0.1c0,0,0,0,0,0c0,0,0,0,0-0.1C7.1,9.7,7.1,9.7,7,9.6z M5,18.5
	c0,0,0-0.1,0-0.1c0,0-0.1,0-0.1,0C4.9,18.5,4.9,18.5,5,18.5z M19.2,20.6C19.2,20.6,19.2,20.6,19.2,20.6c0.1,0,0.1-0.1,0.1-0.2
	C19.2,20.5,19.2,20.5,19.2,20.6z M10.4,2C10.4,2,10.4,2,10.4,2c-0.1,0-0.1,0.1-0.1,0.1c0,0,0,0,0,0c0,0,0,0,0,0
	C10.3,2.1,10.4,2,10.4,2z M13.4,19.1c0,0-0.1-0.1-0.1-0.1c0,0,0,0,0,0.1C13.2,19.1,13.2,19.1,13.4,19.1
	C13.3,19.1,13.3,19.1,13.4,19.1z M9.3,11.2C9.3,11.1,9.3,11.1,9.3,11.2C9.2,11.1,9.2,11.1,9.3,11.2c-0.1-0.1-0.1,0-0.1,0
	C9.1,11.2,9.2,11.2,9.3,11.2C9.2,11.2,9.2,11.2,9.3,11.2z M11.4,20.4c0,0-0.1,0.1-0.1,0.1c0,0,0,0,0,0c0,0,0,0,0,0
	C11.4,20.6,11.4,20.5,11.4,20.4z M4.5,19.6C4.6,19.6,4.6,19.7,4.5,19.6c0.1,0.1,0.1,0,0.1,0C4.6,19.6,4.6,19.6,4.5,19.6
	C4.6,19.6,4.6,19.6,4.5,19.6z M10.2,4.5c0,0,0.1,0,0.1,0c0-0.1,0-0.1-0.1-0.2C10.2,4.3,10.3,4.4,10.2,4.5z M13.7,9.2
	C13.6,9.2,13.6,9.2,13.7,9.2c-0.1,0.1,0,0.1,0,0.1C13.7,9.3,13.7,9.3,13.7,9.2C13.7,9.3,13.7,9.2,13.7,9.2z M8.2,9.9
	c0,0.2,0,0.2,0.1,0.2C8.3,10,8.3,10,8.2,9.9z M14,12.7C14.1,12.7,14.1,12.6,14,12.7c0.1-0.1,0.1-0.1,0-0.1C14,12.6,14,12.6,14,12.7
	C14,12.6,14,12.7,14,12.7z M10.2,17.5C10.2,17.5,10.2,17.5,10.2,17.5c0-0.1,0.1-0.1,0.1-0.2C10.1,17.3,10.1,17.3,10.2,17.5z
	 M10.8,16c0,0,0,0.1,0.1,0.1c0,0,0.1-0.1,0-0.1C10.9,16,10.8,15.9,10.8,16C10.8,15.9,10.8,15.9,10.8,16z M8.7,4.4
	c0,0.1,0.1,0.1,0.1,0.1c0,0,0,0,0-0.1c0,0,0,0,0,0C8.8,4.4,8.7,4.4,8.7,4.4z M3.2,21.9c0.1,0,0.1-0.1,0.1-0.1c0,0,0,0,0,0
	c0,0,0,0,0,0C3.2,21.9,3.2,21.9,3.2,21.9z M12.1,9.2C12.1,9.2,12.1,9.2,12.1,9.2c0,0.1,0,0.1,0,0.1c0,0,0,0,0,0.1c0,0,0.1-0.1,0-0.1
	C12.1,9.3,12.1,9.2,12.1,9.2z M5,12.2C5,12.2,4.9,12.2,5,12.2c-0.1,0-0.1,0-0.1,0.1c0,0,0,0,0,0.1c0,0,0,0,0,0
	C4.9,12.3,4.9,12.3,5,12.2z M8.6,3.9C8.7,3.8,8.7,3.8,8.6,3.9c0.1-0.1,0-0.1,0-0.1C8.6,3.7,8.6,3.8,8.6,3.9C8.6,3.8,8.6,3.8,8.6,3.9
	z M11.6,6.5C11.5,6.5,11.5,6.5,11.6,6.5c-0.1,0.1,0,0.1,0,0.1C11.6,6.6,11.6,6.6,11.6,6.5C11.6,6.5,11.6,6.5,11.6,6.5z M13.6,17.2
	C13.5,17.2,13.5,17.1,13.6,17.2c-0.1,0-0.1,0-0.1,0C13.4,17.2,13.5,17.3,13.6,17.2C13.5,17.3,13.5,17.2,13.6,17.2z M11.2,9
	c0.1,0,0.1-0.2,0-0.2C11.2,8.8,11.1,8.9,11.2,9z M15.5,22.2C15.5,22.2,15.5,22.2,15.5,22.2c-0.1,0-0.1,0-0.1,0.1c0,0,0,0,0,0
	c0,0,0,0,0.1,0C15.5,22.3,15.5,22.2,15.5,22.2z M8.8,13.4C8.8,13.4,8.8,13.4,8.8,13.4c0-0.1-0.1-0.1-0.1-0.1c0,0,0,0,0,0
	c0,0,0,0,0,0C8.7,13.4,8.7,13.4,8.8,13.4z M3.4,20.3C3.4,20.3,3.4,20.3,3.4,20.3C3.4,20.3,3.3,20.2,3.4,20.3
	c-0.1-0.1-0.1-0.1-0.1-0.1C3.2,20.3,3.3,20.3,3.4,20.3C3.3,20.3,3.3,20.3,3.4,20.3z M10.1,2.1C10.1,2,10,2,10,2C10,2,10,2,10,2
	C10,2.1,10,2.1,10.1,2.1z M13.8,13.5c0,0.1-0.1,0.1-0.1,0.1C13.8,13.7,13.8,13.6,13.8,13.5z M15.4,23.2
	C15.5,23.2,15.5,23.3,15.4,23.2c0.1,0,0.1,0,0.1,0C15.5,23.2,15.5,23.2,15.4,23.2C15.5,23.2,15.5,23.2,15.4,23.2z M16.8,20.7
	c0,0-0.1-0.1-0.1-0.1c0,0,0,0.1,0,0.1C16.7,20.7,16.7,20.7,16.8,20.7z M16.6,16.8C16.6,16.8,16.6,16.8,16.6,16.8
	c0.1,0,0.1,0,0.2-0.1C16.7,16.7,16.6,16.7,16.6,16.8C16.6,16.7,16.6,16.8,16.6,16.8z M8.5,18.9C8.5,18.9,8.5,18.9,8.5,18.9
	c0.1,0.1,0.1,0,0.1,0C8.6,18.9,8.5,18.8,8.5,18.9C8.5,18.8,8.5,18.8,8.5,18.9z M12.5,5.8c-0.1,0-0.1,0-0.1,0c0,0,0,0,0,0
	c0,0,0,0,0,0C12.4,5.9,12.5,5.9,12.5,5.8z M10.8,3.7C10.7,3.6,10.7,3.6,10.8,3.7c-0.1,0-0.1,0-0.1,0C10.7,3.7,10.7,3.7,10.8,3.7
	C10.7,3.7,10.7,3.7,10.8,3.7z M10.1,8C10.1,8.1,10.1,8.1,10.1,8c-0.1,0.1,0,0.1,0,0.1C10.1,8.1,10.1,8.1,10.1,8
	C10.1,8.1,10.1,8.1,10.1,8z M11.7,15C11.7,15,11.7,15,11.7,15C11.7,15,11.8,15,11.7,15c0.1-0.1,0.1-0.1,0.1-0.2
	C11.7,14.9,11.7,15,11.7,15z M6.9,12.7C6.9,12.7,6.9,12.7,6.9,12.7c0,0,0,0.1,0,0.1c0,0,0,0,0,0c0,0,0,0,0,0
	C6.9,12.8,6.9,12.7,6.9,12.7z M5.3,17.9c0.1,0,0.1,0,0.1-0.1c0,0,0,0-0.1,0C5.3,17.8,5.3,17.8,5.3,17.9z M14.3,22.4
	C14.3,22.5,14.3,22.5,14.3,22.4c0.1,0.1,0.1,0,0.1,0C14.4,22.4,14.4,22.4,14.3,22.4C14.3,22.4,14.3,22.4,14.3,22.4z M7.9,7.3
	c0-0.1,0-0.1,0-0.1c0,0-0.1,0-0.1,0C7.7,7.2,7.8,7.3,7.9,7.3z M6.2,16c0.1,0,0.1-0.1,0.1-0.2C6.2,15.9,6.2,16,6.2,16z M10.1,5
	C10.1,5,10.1,5,10.1,5c-0.1,0-0.1,0-0.1,0C10,5,10.1,5.1,10.1,5C10.1,5.1,10.1,5,10.1,5z M9.6,6C9.6,5.9,9.6,5.9,9.6,6
	c-0.1-0.1-0.1,0-0.1,0C9.5,6,9.5,6,9.6,6C9.6,6,9.6,6,9.6,6z M4.8,18.7c0,0,0-0.1,0-0.1C4.8,18.5,4.7,18.6,4.8,18.7
	C4.7,18.6,4.8,18.6,4.8,18.7z M8,9.1c0,0.1,0.1,0.1,0.1,0.1c0,0,0,0,0-0.1C8.1,9.2,8.1,9.2,8,9.1z M3,19.9C3.1,19.9,3.1,19.9,3,19.9
	c0,0,0.1-0.1,0.1-0.1c0,0,0,0,0,0c0,0,0,0,0,0C3,19.8,3,19.9,3,19.9z M16.2,23.3c0.1-0.1,0-0.1,0-0.2C16.2,23.2,16.2,23.2,16.2,23.3
	z M7.4,16.9c0,0.1,0,0.1,0,0.2C7.5,17,7.5,16.9,7.4,16.9z M5.1,21C5.1,21,5.1,21,5.1,21C5.1,21,5.1,21,5.1,21C5,21,5,21,5,21
	c0,0,0,0,0,0C5,21,5.1,21,5.1,21z M10.2,1.5C10.1,1.6,10.1,1.6,10.2,1.5c-0.1,0.1,0,0.1,0,0.1C10.2,1.7,10.2,1.6,10.2,1.5
	C10.2,1.6,10.2,1.6,10.2,1.5z M15.9,14.3C15.9,14.3,15.9,14.3,15.9,14.3C15.8,14.3,15.8,14.3,15.9,14.3c-0.1,0-0.1,0.1-0.1,0.1
	c0,0,0,0,0,0C15.8,14.4,15.8,14.4,15.9,14.3z M12.9,8.2C12.8,8.1,12.8,8.1,12.9,8.2c-0.1-0.1-0.1,0-0.1,0
	C12.8,8.2,12.8,8.2,12.9,8.2z M5.1,15.3C5.1,15.4,5.1,15.4,5.1,15.3c0,0.1,0,0.1,0,0.1C5.1,15.4,5.2,15.4,5.1,15.3
	C5.2,15.4,5.1,15.4,5.1,15.3z M12.1,8.7C12.1,8.7,12.1,8.7,12.1,8.7c0,0-0.1,0.1-0.1,0.1c0,0,0,0,0,0C12.1,8.8,12.1,8.8,12.1,8.7
	C12.2,8.8,12.1,8.7,12.1,8.7z M16.5,20.9C16.6,20.9,16.6,20.8,16.5,20.9c0.1-0.1,0-0.1,0-0.1C16.5,20.8,16.5,20.8,16.5,20.9
	C16.5,20.8,16.5,20.9,16.5,20.9z M12.3,5.9C12.2,5.9,12.2,5.9,12.3,5.9c-0.1,0-0.1,0-0.1,0C12.1,5.9,12.2,5.9,12.3,5.9
	C12.2,5.9,12.2,5.9,12.3,5.9z M13.9,16.4c-0.1,0-0.1,0-0.1,0.1C13.9,16.5,13.9,16.4,13.9,16.4z M6.8,15.1
	C6.8,15.1,6.8,15.1,6.8,15.1C6.8,15.1,6.8,15.1,6.8,15.1c0.1-0.1,0-0.1,0-0.1C6.8,15,6.7,15,6.8,15.1C6.7,15.1,6.8,15.1,6.8,15.1z
	 M10.5,4.8c0-0.1-0.1-0.1-0.1-0.1C10.5,4.8,10.5,4.8,10.5,4.8z M10.1,15.4C10.1,15.4,10.1,15.4,10.1,15.4c0,0,0,0.1,0,0.1
	c0,0,0,0,0.1,0C10.1,15.5,10.1,15.5,10.1,15.4C10.1,15.5,10.1,15.5,10.1,15.4z M12.4,9.2c-0.1,0-0.1,0.1-0.1,0.1
	C12.4,9.3,12.4,9.3,12.4,9.2z M8.3,7.3c-0.1,0-0.1,0.1,0,0.1c0,0,0,0,0,0c0,0,0,0,0,0C8.3,7.4,8.3,7.3,8.3,7.3z M3.8,19.1
	c0.1-0.1,0.1-0.1,0-0.2C3.8,18.9,3.8,19,3.8,19.1z M7.4,13.2C7.5,13.2,7.5,13.2,7.4,13.2C7.5,13.1,7.5,13.1,7.4,13.2
	c0.1-0.1,0-0.1,0-0.1C7.5,13,7.4,13,7.4,13.2C7.4,13.1,7.4,13.1,7.4,13.2z M5.9,13.9C5.8,14,5.8,14,5.9,13.9c0,0.1,0,0.1,0,0.1
	C5.9,14,5.9,14,5.9,13.9C5.9,14,5.9,14,5.9,13.9z M1.7,19.2C1.6,19.2,1.6,19.2,1.7,19.2c0,0,0,0.1-0.1,0.1c0,0,0,0,0.1,0
	C1.7,19.3,1.7,19.3,1.7,19.2z M10.8,10.5C10.8,10.6,10.8,10.6,10.8,10.5c0,0.1,0,0.1,0,0.1C10.9,10.7,10.9,10.6,10.8,10.5
	C10.9,10.6,10.9,10.6,10.8,10.5z M3,17.8c-0.1,0.1-0.1,0.1,0,0.2C3,17.9,3,17.9,3,17.8z M10.3,16.4c-0.1,0-0.1,0-0.2,0
	C10.2,16.5,10.3,16.5,10.3,16.4z M6.6,14.8C6.6,14.8,6.6,14.8,6.6,14.8c0,0,0,0.1,0,0.1c0,0,0,0,0,0C6.6,14.9,6.7,14.8,6.6,14.8
	C6.6,14.8,6.6,14.8,6.6,14.8z M17.5,16.9C17.5,16.9,17.4,16.9,17.5,16.9c0,0.1,0,0.1,0,0.2c0,0,0,0,0,0C17.5,17.1,17.5,17,17.5,16.9
	z M11,6.3c0,0,0.1,0.1,0.1,0c0,0,0,0,0,0C11.1,6.2,11.1,6.2,11,6.3z M11,8.5C11,8.5,11.1,8.5,11,8.5C11.1,8.4,11,8.4,11,8.5
	C11,8.4,11,8.4,11,8.5C11,8.4,11,8.5,11,8.5z M4.6,18.9c0,0.1,0,0.1,0.1,0.1C4.7,18.9,4.6,18.9,4.6,18.9z M17.3,17.2
	c-0.1,0-0.1,0.1-0.1,0.1C17.3,17.3,17.3,17.3,17.3,17.2z M10.3,2.6c0-0.1,0-0.1,0-0.2C10.2,2.5,10.2,2.5,10.3,2.6z M11.7,13.4
	C11.7,13.3,11.7,13.3,11.7,13.4C11.7,13.3,11.7,13.3,11.7,13.4C11.6,13.3,11.6,13.3,11.7,13.4C11.6,13.3,11.7,13.3,11.7,13.4z
	 M14.7,19.5C14.7,19.5,14.7,19.5,14.7,19.5c-0.1,0-0.1,0-0.1,0C14.6,19.5,14.6,19.5,14.7,19.5C14.7,19.5,14.7,19.5,14.7,19.5z
	 M11.3,6.5C11.3,6.5,11.3,6.5,11.3,6.5c0-0.1,0-0.1,0-0.1C11.2,6.5,11.2,6.5,11.3,6.5z M10,6.6c0-0.1,0-0.1,0.1-0.2
	C9.9,6.4,9.9,6.5,10,6.6z M10.1,4C10.2,4,10.2,4,10.1,4C10.2,3.9,10.2,3.9,10.1,4C10.1,3.9,10.1,4,10.1,4C10.1,4,10.1,4,10.1,4z
	 M11.4,4.4c0,0,0.1-0.1,0.1-0.1c0,0,0,0,0,0C11.4,4.3,11.4,4.3,11.4,4.4z M5.7,10.4C5.7,10.4,5.7,10.4,5.7,10.4c0,0,0.1,0.1,0.1,0.1
	c0,0,0,0,0,0C5.8,10.4,5.8,10.4,5.7,10.4z M4,21.5C4,21.4,4,21.4,4,21.5C4,21.4,3.9,21.4,4,21.5C3.9,21.5,4,21.5,4,21.5
	C4,21.5,4,21.5,4,21.5z M11.9,7.9C12,7.9,12,7.9,11.9,7.9C11.9,7.8,11.9,7.8,11.9,7.9C11.9,7.9,11.9,7.9,11.9,7.9z M8.4,8.2
	c-0.1,0-0.1,0.1-0.1,0.1c0,0,0,0,0,0C8.3,8.3,8.4,8.2,8.4,8.2z M7.8,5.5c-0.1,0-0.1,0-0.1,0.1C7.7,5.5,7.8,5.5,7.8,5.5z M9.4,10.2
	C9.4,10.2,9.4,10.2,9.4,10.2c0.1,0,0.1,0,0.1-0.1C9.5,10.2,9.4,10.2,9.4,10.2z M12,12.9C12,12.9,12,12.9,12,12.9
	C12,12.8,12,12.8,12,12.9C12,12.8,11.9,12.8,12,12.9C11.9,12.9,11.9,12.9,12,12.9z M9.2,15.6C9.2,15.6,9.2,15.6,9.2,15.6
	C9.2,15.6,9.3,15.6,9.2,15.6c0.1,0,0.1,0,0.1,0C9.3,15.6,9.2,15.6,9.2,15.6z M10.7,10.1c0,0,0,0.1,0,0.1
	C10.7,10.2,10.7,10.2,10.7,10.1C10.8,10.2,10.8,10.2,10.7,10.1z M7,15.3C7,15.2,7,15.2,7,15.3C6.9,15.2,6.9,15.2,7,15.3
	C6.9,15.2,6.9,15.2,7,15.3C6.9,15.3,6.9,15.3,7,15.3z M7.4,15.3C7.4,15.3,7.4,15.3,7.4,15.3C7.5,15.3,7.5,15.3,7.4,15.3
	C7.5,15.3,7.5,15.2,7.4,15.3C7.4,15.2,7.4,15.3,7.4,15.3z M11.1,11.6C11.1,11.7,11,11.7,11.1,11.6c0,0.1,0,0.1,0,0.1
	C11.1,11.7,11.1,11.7,11.1,11.6C11.1,11.7,11.1,11.7,11.1,11.6z M11.3,2c0,0,0-0.1,0-0.1C11.3,1.9,11.3,2,11.3,2z M14.4,18.4
	C14.5,18.4,14.5,18.4,14.4,18.4C14.5,18.4,14.5,18.3,14.4,18.4C14.4,18.3,14.4,18.4,14.4,18.4C14.4,18.4,14.4,18.4,14.4,18.4z
	 M9,14.4C9,14.4,9.1,14.4,9,14.4C9,14.3,9,14.3,9,14.4C9,14.3,9,14.4,9,14.4z M10.9,6c0-0.1,0-0.1,0-0.2C10.9,5.9,10.9,6,10.9,6z
	 M10.5,4.3c-0.1,0.1-0.1,0.1,0,0.1C10.5,4.3,10.5,4.3,10.5,4.3z M13.7,14.8c0-0.1,0-0.1-0.1-0.1C13.7,14.7,13.7,14.7,13.7,14.8z
	 M6.9,14.4C6.9,14.4,6.9,14.3,6.9,14.4c0-0.1,0-0.1,0-0.1C6.8,14.3,6.8,14.3,6.9,14.4C6.8,14.3,6.8,14.4,6.9,14.4z M16.2,22.5
	c0,0,0.1,0,0.1,0C16.3,22.5,16.3,22.5,16.2,22.5z M6.6,11.8C6.6,11.8,6.6,11.8,6.6,11.8C6.6,11.8,6.6,11.8,6.6,11.8
	C6.6,11.7,6.6,11.7,6.6,11.8C6.6,11.7,6.6,11.8,6.6,11.8z M9.2,1.8C9.2,1.8,9.2,1.8,9.2,1.8C9.2,1.8,9.2,1.7,9.2,1.8
	C9.1,1.7,9.1,1.8,9.2,1.8C9.1,1.8,9.2,1.8,9.2,1.8z M11.7,17.1C11.7,17.1,11.7,17.1,11.7,17.1c0-0.1-0.1-0.1-0.1-0.1c0,0,0,0,0,0
	C11.6,17.1,11.6,17.1,11.7,17.1z M4.8,19c-0.1,0.1-0.1,0.1,0,0.1C4.8,19,4.8,19,4.8,19z M16.2,21.7C16.3,21.7,16.3,21.7,16.2,21.7
	c0,0,0-0.1,0-0.1c0,0,0,0,0,0C16.2,21.6,16.2,21.7,16.2,21.7z M8.4,6.8C8.4,6.9,8.4,6.9,8.4,6.8c0,0.1,0,0.1,0,0.1
	C8.4,6.9,8.5,6.9,8.4,6.8C8.5,6.9,8.4,6.9,8.4,6.8z M8,17.8C7.9,17.8,7.9,17.7,8,17.8C7.9,17.8,7.9,17.8,8,17.8
	C7.9,17.8,7.9,17.8,8,17.8C7.9,17.8,7.9,17.8,8,17.8z M12.7,17.7C12.7,17.7,12.7,17.7,12.7,17.7c0,0-0.1,0.1,0,0.1
	C12.7,17.7,12.7,17.7,12.7,17.7z M10.5,7.1c0,0,0,0.1,0,0.1C10.6,7.2,10.6,7.2,10.5,7.1z M8.4,7.7c0,0.1,0.1,0.1,0.1,0
	C8.5,7.7,8.4,7.7,8.4,7.7z M12.4,9.5C12.4,9.5,12.4,9.5,12.4,9.5c0,0-0.1,0-0.1,0c0,0,0,0,0,0C12.3,9.5,12.4,9.5,12.4,9.5z
	 M12.1,7.7C12.1,7.8,12,7.8,12.1,7.7C12,7.8,12,7.9,12,7.9C12.1,7.8,12.1,7.8,12.1,7.7z M15.9,19.6C15.9,19.6,15.9,19.6,15.9,19.6
	C15.9,19.6,15.9,19.6,15.9,19.6c0,0.1,0,0.1,0,0.1c0,0,0,0,0,0C15.9,19.6,15.9,19.6,15.9,19.6z M16.4,20.6
	C16.3,20.6,16.3,20.5,16.4,20.6c-0.1,0-0.1,0-0.1,0C16.3,20.6,16.3,20.6,16.4,20.6C16.3,20.6,16.3,20.6,16.4,20.6z M11.3,9.9
	C11.3,9.9,11.3,9.8,11.3,9.9c-0.1,0-0.1,0-0.1,0C11.2,9.9,11.2,9.9,11.3,9.9C11.3,9.9,11.3,9.9,11.3,9.9z M9.2,2.5
	C9.2,2.5,9.2,2.5,9.2,2.5c-0.1,0-0.1,0-0.1,0C9.1,2.5,9.1,2.6,9.2,2.5C9.2,2.6,9.2,2.5,9.2,2.5z M2.9,17.7
	C2.9,17.7,2.9,17.7,2.9,17.7c0,0,0-0.1,0-0.1c0,0,0,0,0,0C2.8,17.6,2.9,17.7,2.9,17.7z M13.3,12.5C13.3,12.5,13.3,12.4,13.3,12.5
	C13.3,12.5,13.2,12.5,13.3,12.5C13.2,12.5,13.3,12.5,13.3,12.5C13.3,12.5,13.3,12.5,13.3,12.5z M10.5,6.7
	C10.5,6.7,10.5,6.7,10.5,6.7C10.5,6.7,10.5,6.7,10.5,6.7C10.5,6.7,10.6,6.7,10.5,6.7C10.6,6.7,10.6,6.7,10.5,6.7z M10.3,7.7
	C10.3,7.7,10.3,7.7,10.3,7.7C10.3,7.7,10.3,7.7,10.3,7.7C10.3,7.6,10.3,7.6,10.3,7.7C10.3,7.6,10.3,7.7,10.3,7.7z M6.5,11
	c0,0-0.1,0.1-0.1,0.1C6.5,11.1,6.5,11.1,6.5,11z M5.2,11.4C5.2,11.4,5.2,11.4,5.2,11.4C5.2,11.4,5.2,11.4,5.2,11.4
	C5.1,11.4,5.1,11.4,5.2,11.4C5.1,11.4,5.2,11.4,5.2,11.4z M9.9,5.6C9.9,5.6,9.9,5.6,9.9,5.6C9.9,5.6,9.9,5.6,9.9,5.6
	C10,5.6,9.9,5.5,9.9,5.6C9.9,5.5,9.9,5.6,9.9,5.6z M8.2,9.8c0.1,0.1,0.1,0.1,0.1,0C8.2,9.8,8.2,9.8,8.2,9.8z M5.6,11.6
	C5.6,11.6,5.6,11.6,5.6,11.6c0,0,0,0.1,0,0.1C5.6,11.7,5.6,11.6,5.6,11.6z M15.5,14.3C15.5,14.2,15.5,14.2,15.5,14.3
	C15.4,14.2,15.4,14.2,15.5,14.3C15.4,14.3,15.4,14.3,15.5,14.3C15.5,14.3,15.5,14.3,15.5,14.3z M15.4,16.3
	C15.4,16.3,15.4,16.2,15.4,16.3C15.4,16.2,15.4,16.2,15.4,16.3C15.3,16.2,15.3,16.2,15.4,16.3C15.3,16.2,15.3,16.2,15.4,16.3z
	 M11.5,1.9C11.5,1.9,11.5,1.9,11.5,1.9C11.5,1.9,11.5,1.9,11.5,1.9c0-0.1,0-0.1,0-0.1C11.5,1.8,11.5,1.8,11.5,1.9
	C11.5,1.9,11.5,1.9,11.5,1.9z M3.1,17.8C3.1,17.8,3.1,17.8,3.1,17.8c0,0,0,0.1,0,0.1C3.1,17.9,3.1,17.9,3.1,17.8
	C3.1,17.9,3.1,17.8,3.1,17.8z M9.4,3.8c0,0,0,0.1,0,0.1C9.5,3.9,9.5,3.8,9.4,3.8z M15.4,18.7C15.4,18.7,15.4,18.7,15.4,18.7
	C15.4,18.7,15.4,18.7,15.4,18.7C15.4,18.6,15.4,18.6,15.4,18.7C15.4,18.7,15.4,18.7,15.4,18.7z M8.5,18C8.6,17.9,8.6,17.9,8.5,18
	C8.5,17.9,8.5,17.9,8.5,18z M7.9,5C7.9,5,7.9,5,7.9,5C7.9,5,7.9,5,7.9,5C8,4.9,7.9,4.9,7.9,5C7.9,4.9,7.9,4.9,7.9,5z M8.7,19.1
	C8.7,19.1,8.7,19.1,8.7,19.1C8.6,19,8.6,19,8.7,19.1C8.6,19,8.6,19,8.7,19.1C8.6,19.1,8.6,19.1,8.7,19.1z M5.5,13.6
	C5.5,13.6,5.5,13.6,5.5,13.6c0,0,0,0.1,0,0.1c0,0,0,0,0,0C5.5,13.7,5.5,13.6,5.5,13.6z"/>
</svg>
