<?xml version="1.0" encoding="utf-8"?>
<!-- Generator: Adobe Illustrator 22.0.0, SVG Export Plug-In . SVG Version: 6.00 Build 0)  -->
<svg version="1.1" id="Layer_1" xmlns="http://www.w3.org/2000/svg" xmlns:xlink="http://www.w3.org/1999/xlink" x="0px" y="0px"
	 viewBox="0 0 469.6 428" style="enable-background:new 0 0 469.6 428;" xml:space="preserve">
<style type="text/css">
	.st0{opacity:0.9;}
	.st1{fill:#82AD63;}
</style>
<g class="st0">
	<path class="st1" d="M436.9,129.1c5.5,2.9,11,5.9,16.5,8.8c3.4,1.7,4.2,6.1,1.1,8.3c-4.6,3.3-9.5,6.2-14.8,9.7c0.3,0.3,1,1.6,2,1.8
		c3,0.7,6.1,1.1,9.2,1.4c7.5,1,7.6,1,6.6,8.4c0.8,0.1,1.6,0.5,2.3,0.4c6.4-0.7,10.5,2.5,9.7,8.6c-0.7,5.2-0.7,10.9-4.9,15.1
		c-0.7,0.7-1.1,2.1-1.8,2.2c-5.9,0.4-4.3,6.4-7,9.2c-0.2,0.2-0.2,1,0,1.2c5.6,4.5,1.1,13.2,8.7,17c-3,1-4.6,1.5-6.4,2.2
		c0.2,1.1,0.5,1.9,0.5,2.7c0,2.1,0,4.2-0.1,6.3c-1.9-0.6-4-0.8-5.6-1.7c-5.1-3-10.1-4.7-15.6-1c0,5.9,1.9,8.4,9.3,12.5
		c-0.8,2.4-1.7,4.8-2.4,7.3c-1.6,5.8-0.1,7.4,5.9,6.4c0.8-0.1,1.6,0,2.4,0c2.2,6.2,2.1,5,12,8.3c-1.4,2.9-2.7,5.8-4.2,8.9
		c-1.9-0.2-3.7-0.5-5.6-0.7c-0.2,4-1.4,7.7,2.6,10.4c2.1,1.4,1.5,3.6-0.5,5.3c-3.1,2.7-6.6,5-6.8,9.9c0,0.8-1.6,1.9-2.6,2.2
		c-4.7,1.7-9.6,3.2-14.8,4.8c1.4,3,2.4,5.4,3.7,8.2c-4.2-0.4-7.8-0.7-11.4-1.1c-0.8-0.1-1.9-0.5-2.4-0.1c-6.7,5-12.1-0.3-18.4-1.9
		c2-4.4,2.8-8.4-2.2-11.1c-0.4-0.2-0.5-1.1-0.8-1.7c-4-6.8-4-6.8-9.2-2.7c-3.7-2.4-7.4-4.4-10.5-7.2c-1.3-1.2-1.2-3.9-1.6-5.5
		c-3.6-1.9-7.1-3.9-10.7-5.6c-0.9-0.4-2.2-0.1-3.3-0.1c0.3,1.1,0.5,2.1,0.9,3.7c-1.7-0.7-3.2-1.3-4.8-2c-0.6,0.4-1.2,0.7-1.5,1.1
		c-0.6,1-0.9,2.9-1.6,3c-8.7,2-17,8-26.6,2.5c-1.5-0.9-4.2-0.5-6.1,0c-12.9,3.6-25.8,7.4-38.7,11.2c-0.6,0.2-1.2,0.5-1.6,0.9
		c-8,7.5-16.1,14.9-23.8,22.7c-1.6,1.6-1.6,4.8-2.4,7.3c0.4,0.3,0.8,0.6,1.2,0.9c3.5-1.9,7.1-3.9,10.6-5.8c0.3,0.4,0.5,0.8,0.8,1.1
		c-2.9,3.2-5.5,6.6-8.7,9.4c-11,9.5-17.9,20.4-16.1,35.7c1.6,13.6,2.6,27.2,6.2,40.4c0.9,3.4,2.3,6.7,3.5,10c1,2.9,0,4.9-2.8,5.9
		c-2.7,0.9-5.5,2.3-8.3,2.4c-11.7,0.5-23.5,0.6-35.2,0.8c-5.1,0.1-10,1.1-15.2-1.3c-7.1-3.2-9.3-7.3-4.1-13.5
		c7.6-9,10.5-19.6,13-30.6c0.3-1.4,0.7-3,0.3-4.3c-3.2-10.1-3.1-20.5-2.2-30.9c1-12.2-4.9-21.7-14.4-27.9
		c-11.2-7.4-20.6-16-27.7-27.3c-1.1-1.8-3.8-3.3-5.9-3.8c-6.2-1.5-12.4-2.5-19-0.6c-2.5,0.7-5.9-1.6-8.9-2.6
		c0.1-0.4,0.2-0.9,0.3-1.3c2.3,0,4.7,0,7,0c0.2-0.4,0.4-0.8,0.5-1.2c-4.8-4.5-9.7-10.2-16.4-10.4c-4.1-0.1-11.1,1-13.1,4.3
		c-2.5,3.8-5.4,4.1-8.5,5.4c-4.6,1.8-5.2,3.4-3.7,8.6c0.3,0.9,0.5,2.4,0,2.8c-3.4,2.8-2.4,6.5-2.2,10.6c-1.8-0.7-3-1.5-4.2-1.6
		c-7.1-0.2-9-2-8.9-8.8c0-2.4,1.1-5.5-2.6-6c-3.5-0.5-4.5,2-5,5.1c-0.3,1.9-1.4,3.6-2.2,5.6c-6.1-4.3-6.7-7.3-2.5-12.1
		c1.8-2.1,1.3-3.3-1.2-3.9c-3.9-0.9-11.2,3.2-12.9,7.5c-3.4-2.1-6.2-1.6-7.8,2.5c-2.4-2-4.6-3.8-5.9-4.9c-0.8-4.5-1.5-8.4-2.2-12.5
		c-2.8,0.3-4.5,0.4-7.1,0.7c-3.1-5.6-6.4-11.3-9.6-17c6.8-7.7,15.5-9.7,25.1-11.6c-0.2-2.4-0.4-4.6-0.6-7.7
		c-3.3,2.1-5.7,3.5-8.7,5.4c0-3.4,0-6,0-9.8c-2.5,1.2-4.2,2.1-6.4,3.1c-1.2-0.9-2.8-2.1-4.9-3.6c3.1-3.4,5.9-6.6,9.2-10.3
		c-5.9-1.1-11.1-2.1-16.4-3.1c-1.1-3.7-1.9-7.6-3.4-11.2c-0.9-2.1-2.9-3.7-4.7-5.3c-0.9-0.8-2.4-0.7-3.4-1.3
		c-2.2-1.2-5.3-2.5-3.7-5.4c1.3-2.3,2.6-6.2,7-4.7c0.7,0.3,2.2,0.2,2.3-0.1c2.1-5.3,7.2-2.4,11.6-4.3c-0.4-2.3-0.7-4.8-1.1-7.3
		c-0.6-3.5,1.2-5.2,4-3.3c3.3,2.2,8.8-0.4,10.3,4.9c1.8-0.6,3.5-1.2,5.3-1.8c-0.1-0.4-0.2-0.9-0.4-1.3c1.5,1.1,3.1,2.2,5.6,4.1
		c0.6-3.2,0.9-5.4,1.4-8.2c-12-0.9-20.5-6.6-26.2-16.8c1.2-1.9,2.7-4.3,4.5-7.2c2.8,0.3,5.9,1.1,8.9,0.8c2.1-0.2,4.8-1.4,5.9-3
		c0.7-1-0.7-4-1.9-5.6c-2.4-3.1-6-5.4-7.8-8.8c-1.4-2.5-0.7-6.1-1-10.3c6.1,0.4,12.1,0.8,18.1,1.2c0.2-0.4,0.4-0.7,0.7-1.1
		c-1.7-1.2-3.4-2.3-6.2-4.3c3-2.8,5.8-5.4,8.7-8.1c1,0.7,1.5,1,2,1.3c1.6,1.3,3.2,2.6,4.8,3.9c1.4-2.1,4.1-4.2,4.1-6.4
		c0-5.7-1.1-11.5-1.8-17.2c-0.2-1.4-1.2-2.9-1-4.2c0.2-1.4,1-3.1,2-3.9c0.5-0.4,2.6,0.6,3.5,1.4c1.5,1.3,2.5,3,4.6,5.5
		c1-4,1.7-6.7,2.4-9.4c0.4-0.2,0.9-0.4,1.3-0.6c1.1,1.6,2.1,3.3,3.4,4.8c0.9,1,2.1,2,3.3,2.2c0.6,0.1,2-1.5,2.2-2.5
		c0.5-2.8,0.4-5.6,0.1-8.5c3.2-5.4,6,5,10.2,0.3c-1.6-2.5,0.9-6.7-3.9-8.5c-0.8-0.3-0.9-3.8-0.5-5.7c0.4-1.9,1.4-4,2.8-5.4
		c1-1.1,3.6-2.1,4.6-1.5c3.8,2.1,6.3,0.7,8.7-2.9c3.4,4.2,6.1,3.6,8.8-1.2c0.5,3,1.1,6.1,1.7,9.5c6.5,0,13.1,0,19.5,0
		c1.4-7.8,0.3-9.6-5.8-11.9c-1.6-0.6-3.1-2.2-4-3.7c-1.3-2.4,0.3-4.2,2.3-5.6c1.7-1.2,3.6-2.3,4.9-3.8c2.2-2.6,4.7-5.2-0.8-7.4
		c-1.5-0.6-2.3-4.1-2.5-6.4c-0.1-0.9,2.2-2.1,3.6-3c1.2-0.8,2.6-1.3,3.8-2c5.9,4.5,5.9,4.3,12.3-0.8c2.5-2,5.8-2,8.7,0.2
		c1.7,1.4,3.5,2.7,5.3,3.9c5.3,3.7,5.3,3.7,12.3,4.5c2.7-7.5,5.4-15,8.3-22.8c3.9,2.4,5.6-1.1,8.1-4.5c0.7,2.6,1.1,4.3,1.6,6.2
		c5-0.6,8.5,0.7,12,4.7c4.7,5.5,12.1,4.6,17.6-1.2c2-2.1,3.3-3.3,6.6-1.5c3.2,1.8,4.6-1.1,5-4.2c0.2-1.4,1.1-2.8,1.7-4.1
		c1.1,1,2.3,1.9,3.3,3c1.2,1.5,2.3,3.1,3.4,4.7c1.7-1.8,3.4-3.5,5.1-5.3c3.6-2.3,6.9-0.5,8.8,3.1c2.9,5.6,7.4,6.4,13.1,5.8
		c0.5-1.6,0.9-3.1,1.4-4.8c1.2,0.2,2.3,0.1,2.7,0.5c6.2,7.4,14.6,3.6,22,4.3c1.6,0.2,3.5-0.5,4.7,0.2c3.8,2.1,6.3,0.5,8.9-2.3
		c6.9,3.7,4,11.4,8.1,17.2c3.9,3.1,9.3,1,13.9-0.4c3.4-1.1,5.8-5.2,9.6-9c0.8,3.8,1.6,6.7,1.9,9.5c0.9,7.3,2.6,9.3,9.7,10.3
		c1.6,0.2,3,0.9,4.7,1.4c-0.4,4.5-2.6,8.8,2.1,12.4c1.3-3.3,3.2-4.8,6.7-2.5c1.1,0.7,3.3-0.6,4.8-0.2c1.4,0.3,2.5,1.5,3.8,2.3
		c-1,0.8-1.9,1.8-2.9,2.5c-0.6,0.4-1.5,0.6-3.1,1.2c1.4,1.5,2.2,3,3.5,3.7c2.5,1.4,6.1,1.5,6.2,5.8c0,0.7,2.3,1.4,3.5,2
		c2.3,1,4.6,1.9,6.9,2.9c4,1.6,7.7,2.4,9.7-2.9c0.2-0.6,1.2-0.9,2.7-2c1.3,4.2,3.9,8.1,3.3,11.5c-0.8,5.4,2.7,7.3,5.6,8.9
		c3.8,2.2,4.2,4.1,2.2,7.4c-0.2,0.4-0.3,0.8-0.5,1.1c-3,6.6-2,10.8,4,14.8c1.1,0.7,4,0.1,5.3-0.9c2.6-2.1,5-1.9,6.3,0.6
		c1.7,3.2,3.3,2.3,5.9,1.4c3.3-1,6.9-1.1,8.8,1.4c-1,7.1-1.9,13.3-2.7,19.6c-2.6-0.4-5.3-0.9-7.9-1.2c-3.6-0.4-4.9,1.6-4.8,4.9
		c0.1,3.4,2.3,4,5.2,3.9C434.7,136.5,436.2,134.9,436.9,129.1z M197.3,309.8c-0.9-12.7-6.4-22.2-15.6-29.4
		c-3.7-2.9-7.4-5.3-10.4-9.2c-2.2-2.9-5.5-7.5-11.4-4.8C168.1,284.6,178.2,300.5,197.3,309.8z M254.2,258.3
		c-7.2-0.6-12.7,1.5-17.9,4.5c-2.4,1.4-3.5,3.5-3.7,6.6c-0.6,8.1,3.8,14.2,7.8,20.4c1.7,2.7,4.1,1.9,5.3-0.7
		C250.2,279.6,253.7,269.7,254.2,258.3z M263.4,296.6c0.4,0.5,0.7,1,1.1,1.5c1.2-0.7,2.5-1.3,3.7-2.1c2.1-1.3,4-3,6.1-4.1
		c5.1-2.7,10.8-4.4,15.4-7.8c4.6-3.4,8.8-3.3,13.9-2.3c4.9,1,10,0.3,14.1-3.1c0.9-0.7,1-2.3,1.7-4.2c-3.4,1-5.5,2.2-7.6,2.2
		c-5.4,0-10.7-0.5-16.1-0.7c-1.1,0-3,0-3.3,0.7c-3.1,5.5-6.7,2.4-10.8,0.2C275.6,283.4,269.5,290,263.4,296.6z M415.3,265.2
		c-0.3,2-0.7,4.6-1.1,7c18.8,7.4,22,7.9,27.5,4.9c-4.1-4.6-8.4-8.6-15.2-8.8C423.2,268.2,420.1,266.5,415.3,265.2z M190.6,280.2
		c-1.2-5.1-2.1-9.3-3.3-13.4c-1.7-5.8-5.2-7.6-11-5.9c-4.2,1.2-4.5,2.3-2.7,6.3C176.9,274.1,183.3,276.8,190.6,280.2z M226.8,297.8
		c-8.2,11.4-8.9,14.4,0.5,25.1C233.2,314.6,231.5,306.6,226.8,297.8z M209.9,293.9c0.6,0,1.2,0,1.8,0c2.5-5,6-10.1,3.2-16
		c-1.3-2.8-1.6-7.9-7.9-7C208,278.7,209,286.3,209.9,293.9z M279.1,260.1c-3.3,0-7.7-0.6-7.9,0.1c-1.9,5.7-6,11.1-4.2,18.5
		C272,273.1,277.2,268.7,279.1,260.1z M123,112c0.4-5.3-1.7-9.1-5.2-11c-4-2.1-8.6-4-14.8-1.6C110.1,103.9,116,107.6,123,112z
		 M132.8,269.8c2,7.1,10.9,11,18.9,8.8C148.6,274.5,140.7,270.7,132.8,269.8z M407.7,257c-5,0.9-8.9,1.5-12.7,2.5
		c-0.9,0.2-2,1.8-2,2.6c0.1,0.9,1.2,2.1,2.2,2.5C400.8,267.1,405,264.9,407.7,257z M290.6,174.1c-3.5,2.4-6.1,4-8.4,5.9
		c-1.2,1-1.8,2.6-2.6,3.9c1.6,0.2,3.5,1.1,4.8,0.6c3-1.2,5.7-3,9-4.9C292.5,177.7,291.4,175.6,290.6,174.1z M383.7,111.8
		c-1.3,4.7-2.4,8.3-3.8,13.1c3.9-1.1,7.4-2,11.2-3.1C388.5,118.3,386.4,115.4,383.7,111.8z M343.6,275.6c-4.3,1.2-8.5,2.5-12.8,3.7
		c0.1,0.6,0.1,1.1,0.2,1.7c4.5,1,8.9,2,13.1,3C344,280.8,343.8,278.6,343.6,275.6z M414,229.5c-5.6,0.5-9.9,0.9-14.6,1.4
		C403,236.4,407.2,236.1,414,229.5z"/>
</g>
</svg>
