<?xml version="1.0" encoding="utf-8"?>
<!-- Generator: Adobe Illustrator 22.0.0, SVG Export Plug-In . SVG Version: 6.00 Build 0)  -->
<svg version="1.1" id="Layer_1" xmlns="http://www.w3.org/2000/svg" xmlns:xlink="http://www.w3.org/1999/xlink" x="0px" y="0px"
	 viewBox="0 0 1805.2 1041.7" style="enable-background:new 0 0 1805.2 1041.7;" xml:space="preserve">
<style type="text/css">
	.st0{opacity:0.52;}
	.st1{fill:#E0EFFF;}
	.st2{opacity:0.7;fill:#B9DCFF;}
	.st3{fill:#0076B9;}
</style>
<g class="st0">
	<path class="st1" d="M-59.4,236.8c1.7-13.5,15.3-23.7,21.5-35.3c6.2-11.6,6.4-28.1,15.9-37.6c9.3-9.2,26.1-9.4,37.6-16.2
		c11.4-6.7,19.6-21.2,32.2-25.3c12.7-4.1,27.8,3,40.9,1.8c13.4-1.2,26.6-11.1,39.9-10.1c13.3,1,25,12.9,38.2,15.6
		c13,2.7,28.4-3.6,41.2,0.3c12.7,3.9,22.2,17.7,34.7,22.2c12.6,4.6,28.6,0,40.9,4.8c12.4,4.8,21.3,19,33.8,23.6
		c12.5,4.6,28.3-0.4,41,3.5c12.8,4,23.1,17.2,36,20c13.1,2.9,27.8-4.8,41-3.6c13.2,1.2,26.4,11.5,39.8,10.6
		c26.2-1.8,50.2-17.7,75.8-26.3c24.9-8.3,53.2-9.5,77.6-20.1c24.7-10.7,45.5-30.9,69.9-39.8c25.8-9.4,53.7-7,79.4-9.6
		c26.2-2.7,53.5-10.2,79.7-0.6c15.7,5.8,26.4,23,41.2,32.5c14.3,9.2,33.9,11.3,47.7,21.4c14.1,10.4,22.6,28.8,36.8,37.5
		c15.3,9.4,34.6,7.8,50.6,11.8c16.3,4.1,33.3,14.2,51,9.2c10.3-3,15.4-16.5,23.9-22.3c8.5-5.8,22.7-5.4,29.8-13.2
		c6.9-7.6,5.4-22.1,11.4-30.8c5.9-8.5,19.8-12,25.2-20.9c5.5-9,2.3-23.2,7.7-31.9c5.3-8.5,19.5-11.2,26.3-19.3
		c6.7-8,6.9-22.5,14.7-29.1c8.1-6.9,22.2-4.6,31.1-9.2c9.5-4.9,16.6-17.5,26.7-18.6c10.1-1.1,19.1,9.6,29.3,13.4
		c14,5.2,30.7,6.6,40.1,18.2c8.8,10.8,7.9,29.1,14.8,42.5c6.7,13,21.8,21.8,28.6,34.3c7.3,13.6,7.2,32,16.8,41.7
		c10.3,10.4,26.6,9,42.4,10.7c12.9,1.4,26.3,8,37.3,2.6c10.5-5.2,14.9-20.9,24.6-29.3c9.1-7.9,24.7-9.1,33.8-17.4
		c9.3-8.4,12.8-24.4,22.9-30.7c10.6-6.6,25.1-2.2,37.4-3.7c9.1-1.1,18.5-10.2,27-8c8.5,2.1,12.9,14.9,20.8,19.3
		c7.6,4.2,20.4,1,27.5,6.5c7,5.4,7.5,18.9,14.2,24.7c6.8,5.9,20,4.2,26.6,9.8c6.5,5.5,8.1,18.8,15.9,23.2c7.6,4.4,19.9-0.9,28,1.9
		c8.6,3,15.3,14.7,23.7,15.3c9.1,0.7,16.6-9.9,24.6-12.9c8-2.9,11.9-3,17.8-10.4c3.1,85.1,10,85,10,170.2c0,85.2-10,85.2-10,170.4
		c0,85.2,10,85.2,10,170.4c0,85.2-10,85.2-10,170.4s84.8,140,7.1,175c-172.9,77.7-191.6-9.6-381.1-9.6c-189.5,0-189.5,10-379.1,10
		c-189.5,0-189.5-10-379.1-10c-189.5,0-189.5,10-379.1,10s-202.5,64-377.1-9.6c-73.6-31-6.9-75.3-6.9-155.2c0-79.9,10-79.9,10-159.8
		c0-79.9-10-79.9-10-159.8c0-79.9,11.9-80,10-159.9C-51.4,316.5-60.2,316.7-59.4,236.8z"/>
</g>
<path class="st2" d="M-54.4,296.8c8.4-66.1,76.3-111.7,142.7-117.6c66.4-5.9,131.4,18.3,193.5,42.5s126.7,49,193.2,44.6
	c132.7-8.9,256.2-132.4,381.1-86.7c80.7,29.6,145,126.6,227.6,102.9c50.1-14.4,76-67.5,103.6-111.6c27.6-44.2,76.9-88.3,125.7-70.1
	c68.4,25.5,67.7,149.2,140.3,157.1c61.1,6.6,95-81,156-88.4c44.1-5.4,79.6,32.5,113.5,61.1s90.7,48,118.2,13.2v852.1H-54.4V296.8z"
	/>
<path class="st3" d="M-54.4,336.8c8.4-66.1,76.3-111.7,142.7-117.6c66.4-5.9,131.4,18.3,193.5,42.5s126.7,49,193.2,44.6
	c132.7-8.9,256.2-132.4,381.1-86.7c80.7,29.6,145,126.6,227.6,102.9c50.1-14.4,76-67.5,103.6-111.6c27.6-44.2,76.9-88.3,125.7-70.1
	c68.4,25.5,67.7,149.2,140.3,157.1c61.1,6.6,95-81,156-88.4c44.1-5.4,79.6,32.5,113.5,61.1s90.7,48,118.2,13.2v852.1H-54.4V336.8z"
	/>
</svg>
