<svg id="Layer_1" data-name="Layer 1" xmlns="http://www.w3.org/2000/svg" viewBox="0 0 700 700"><defs><style>.cls-1{fill:#fff;}</style></defs><title>alphabet</title><path d="M241.67,206.22V134H458.33v72.22H440.19v36.16h-18.1v36.16h-18v36.15H386v36H367.91v36.16h-18v54.21h-18.1v36H314.16V513H422.27V477.06h36.06v72.22H241.67V495.11h18.14V459h18.11V422.79h18V386.62H314v-36h18.11V314.42h18V260.2h18.1v-36h18v-36H403.9V170.29H277.74v35.93Z"/><path class="cls-1" d="M241.67,549.28H458.33a15.58,15.58,0,0,1-3.25.69q-100.74,0-201.5,0c-3.61,0-7.22,0-10.83,0C242.39,550,242,549.52,241.67,549.28Z"/></svg>