<svg id="Layer_1" data-name="Layer 1" xmlns="http://www.w3.org/2000/svg" viewBox="0 0 700 700"><title>alphabet</title><path d="M484.59,278c0,6.28-2.86,12-7.42,17.68L383.65,400.61l93,107.78a27,27,0,0,1,6.27,17.68c0,14.83-12,27.37-26.23,27.37a25.43,25.43,0,0,1-20.53-9.69L350,442.24,263.32,543.75c-5.7,6.27-12.55,9.69-19.39,9.69-14.83,0-26.8-12.54-26.8-27.37,0-6.27,2.28-12,6.27-17.68l94.09-107.78L222.26,295.68c-4.56-5.7-6.85-11.4-6.85-17.68,0-14.25,12-26.23,27.38-26.23,6.84,0,13.68,2.85,19.39,9.13L350,363.54,437.82,260.9c4.56-6.28,12-9.13,20-9.13C472.61,251.77,484.59,263.75,484.59,278Z"/></svg>