<svg id="Layer_1" data-name="Layer 1" xmlns="http://www.w3.org/2000/svg" viewBox="0 0 700 700"><title>alphabet</title><path d="M503.51,671a192.61,192.61,0,0,1-89.63-21.58c-30.51-16.56-52.75-33.69-114.41-90.26C242.26,545.8,220,535,190.14,506.37c-42.58-40-66.1-96.58-66.1-160.81C124,217.83,204.76,132,324.26,132c57.84,0,101.06,17.13,137.93,54.65,38.77,40.06,61,97.87,61,158.89,0,64.23-23.52,123.34-65.47,163.39-28.61,26.66-47.66,35.56-96.61,43.84l92.16,61c42.58,28.62,57.2,35.61,78.82,35.61,8.89,0,22.25-3.21,39.4-8.9L576,653.87C543.55,667.84,529.57,671,503.51,671ZM312.81,158.05c-73.09,0-122.67,71.84-122.67,177.37,0,111.84,61.65,195.12,144.29,195.12,24.8,0,62.93-15.27,79.45-32.4,26.06-28,43.86-85.81,43.86-145.59C457.74,241.33,395.45,158.05,312.81,158.05Z"/></svg>