<svg id="Layer_1" data-name="Layer 1" xmlns="http://www.w3.org/2000/svg" viewBox="0 0 700 700"><title>alphabet</title><path d="M238.24,352q0-47.26,34.56-74.75t94.36-27.48H489v45.65H429.2q17.37,17.67,24.11,32.15t6.76,33.11q0,23.15-13.18,45.49T413,440.44q-20.75,11.9-68,19-33.11,4.81-33.11,22.82,0,10.29,12.38,16.88t44.85,13.66q54.33,11.9,69.92,18.65a90.33,90.33,0,0,1,28.13,19.29q21.21,21.21,21.22,53.36,0,42.12-37.46,67.2T350.76,696.34q-63.33,0-101.11-25.24t-37.77-67.67q0-60.12,74.26-77.48-29.58-19-29.58-37.61,0-14.14,12.7-25.72t34.24-17Q238.24,416.65,238.24,352Zm96.12,207.36q-29.57,0-48.38,12.54t-18.81,32.14q0,45.66,82.3,45.66,38.91,0,60.28-11.42T431.13,606q0-20.57-27-33.59T334.36,559.39Zm13.83-258.8q-23.79,0-40.51,16.07T291,355.24q0,22.83,16.4,37.78t41.47,15q24.75,0,41.31-15.27t16.56-38.1q0-23.14-16.72-38.58T348.19,300.59Z"/></svg>