<svg id="Layer_1" data-name="Layer 1" xmlns="http://www.w3.org/2000/svg" viewBox="0 0 700 700"><title>alphabet</title><path d="M286.47,333.38q0,20.89,17.69,31.91t64.69,14.51q50.47,4.05,76.87,24.07t26.4,58.31v3.48q0,20.88-8.42,37.42a83.5,83.5,0,0,1-23.2,28.13q-14.81,11.63-36,17.7A166.47,166.47,0,0,1,358.4,555q-33.64,0-57.72-9t-40-23.79a98.86,98.86,0,0,1-24.08-33.65,112.5,112.5,0,0,1-9.28-38l42.93-10.44q2.89,33.08,25.53,53.08t60.33,20q31.91,0,51.35-12.47t19.43-35.1q0-24.37-19.14-34.81t-62.08-13.34q-49.9-3.5-76.58-23.21t-26.69-57.44v-3.48q0-20.29,8.71-35.68a78.89,78.89,0,0,1,23.49-25.81,107.81,107.81,0,0,1,33.36-15.67A142.88,142.88,0,0,1,346.8,251q28.43,0,49.9,7.83t36,20.31A88.32,88.32,0,0,1,455,307.85a111,111,0,0,1,10.15,32.49l-42.93,10.45q-2.91-27.85-22.33-43.51t-50.77-15.67a104.14,104.14,0,0,0-23.49,2.61,68.56,68.56,0,0,0-20,7.83,43,43,0,0,0-13.92,13.06A32.16,32.16,0,0,0,286.47,333.38Z"/></svg>