<svg id="Layer_1" data-name="Layer 1" xmlns="http://www.w3.org/2000/svg" viewBox="0 0 700 700"><title>alphabet</title><path d="M487.41,460.08a148.3,148.3,0,0,1-30.78,48.69,141.22,141.22,0,0,1-46.81,32.36q-27,11.63-59.06,11.62-35.81,0-65.34-9.74t-49.63-26.7h-3.14l-15.08,33.93h-4.4V158.83q-5.65-3.78-15.7-9.43t-20.74-11.31v-3.77L261.55,96h5l-1.9,223.66,1.27.63a94.36,94.36,0,0,1,16.91-25.76,153.64,153.64,0,0,1,26-22.93A134.38,134.38,0,0,1,341.13,255a103.71,103.71,0,0,1,35.1-6.28q29.44,0,52,12.56a120.08,120.08,0,0,1,38.21,33.62,153.83,153.83,0,0,1,23.82,48.37,198.05,198.05,0,0,1,8.15,56.86A162.64,162.64,0,0,1,487.41,460.08Zm-52.75-96.75A116.47,116.47,0,0,0,416.5,325a91.44,91.44,0,0,0-31-26.7q-18.78-10-44.45-10.05-19.4,0-33.48,6.28T284.41,309a68.72,68.72,0,0,0-13.77,16.34q-4.69,8.18-4.69,11.93-.63,7.54-.63,22V407q0,11.94.63,23.88A196.7,196.7,0,0,0,271.58,472a118.7,118.7,0,0,0,15.34,36.44,80.3,80.3,0,0,0,26.61,25.76Q329.81,544,353,544a66.08,66.08,0,0,0,36-10.05q16-10,27.55-28.27t17.83-43a219.25,219.25,0,0,0,6.27-53.71A171.58,171.58,0,0,0,434.66,363.33Z"/></svg>