<svg id="Layer_1" data-name="Layer 1" xmlns="http://www.w3.org/2000/svg" viewBox="0 0 844.9 246.2"><title>alphabet</title><path d="M57.4,112v-8.4h9.3V96.5c0-13,7.4-21.5,20.2-21.5,10.4,0,16.3,4.7,19.1,13.9l-7.9,2.8c-1.5-4.7-5-8.4-10.6-8.4-6.4,0-9.3,4.6-9.3,11.8v8.4H95.3v8.4H78.2v52.5H66.8V112Z"/><path d="M144.8,103.6h11.6v60.9H144.8V153.8c-2.9,7.2-10.7,12.4-19.9,12.4-15.9,0-21.7-10.4-21.7-24.7V103.6h11.6v36.8c0,10.2,4.5,16.7,14.1,16.7,9.1,0,16-7.2,16-18.5v-35Z"/><path d="M183.4,164.5H171.8V103.6h11.6v10.9c2.9-7.4,11.1-12.5,20.2-12.5,15.9,0,22.3,10.6,22.3,24.8v37.8H214.3V127.8c0-10.2-4.9-16.6-14.5-16.6-9.2,0-16.4,7.2-16.4,18.4Z"/><path d="M267.8,102c17.8,0,27.4,12,28.7,26.6l-10.2.7c-1-10.7-7.4-18-18.7-18s-19.2,8.8-19.2,22.8,7.8,22.8,19.2,22.8,17.7-7.7,18.7-18.4l10.2,1c-1.3,14.8-10.9,26.6-28.7,26.6-18.4,0-31.2-12.7-31.2-32S249.4,102,267.8,102Z"/><path d="M310,112h-9.2v-6.3l3.9-.7c5.7-1.1,7-3.9,8.4-9.8l1.8-8.5h6.5v16.9h17.1V112H321.4v36.9c0,5.4,2.2,7.9,7.5,7.9,3.9,0,7.9-1.7,11.4-3.6V161a24.22,24.22,0,0,1-15.6,5.2c-8.6,0-14.8-4-14.8-15.9V112Z"/><path d="M349.9,76.8h12V89.9h-12Zm11.8,26.8v60.9H350.1V103.6Z"/><path d="M404,166.2c-17.8,0-30.9-13.1-30.9-32S386.2,102,404,102c18,0,31.2,13.2,31.2,32.2S422,166.2,404,166.2Zm0-8.9c12.4,0,19.4-9.6,19.4-23.1,0-13.7-7-23.1-19.4-23.1s-19.1,9.5-19.1,23.1S391.8,157.3,404,157.3Z"/><path d="M458.4,164.5H446.8V103.6h11.6v10.9c2.9-7.4,11.1-12.5,20.2-12.5,15.9,0,22.3,10.6,22.3,24.8v37.8H489.3V127.8c0-10.2-4.9-16.6-14.5-16.6-9.2,0-16.4,7.2-16.4,18.4Z"/><path d="M564.5,152.5c0,3.2,1.8,4.7,4.7,4.7a11.36,11.36,0,0,0,5.3-1.4v6.3c-2.1,2.1-4.6,3.6-9.3,3.6-6.3,0-10.7-4.7-11.4-12-3.3,7.1-12,12.4-21.9,12.4-11.8,0-19.5-6.4-19.5-16.9,0-11.6,9.9-16.3,24.5-19.2l16.4-3.3v-2.4c0-8.4-4.9-13.5-13.4-13.5-8.8,0-13.5,5.2-15.3,12.3l-10.3-1.4c2.4-11.4,11.4-19.8,25.8-19.8,15.3,0,24.4,7.8,24.4,23.3Zm-11.1-18.1-13.7,2.9c-9.6,2.1-15.7,3.9-15.7,11.3,0,5.2,3.5,9.1,10.4,9.1,10.7,0,18.9-8.1,18.9-20.3v-3Z"/><path d="M594.8,76.8v87.8H583.2V76.8Z"/><path d="M609.8,76.8h12V89.9h-12Zm11.9,26.8v60.9H610.1V103.6Z"/><path d="M642.3,143.3c1.1,9.3,7.7,14.3,18.1,14.3,8.1,0,14.1-2.9,14.1-9.1,0-5.7-4-7.7-11.6-9.1l-10.3-1.8c-11.4-1.8-18.2-6.7-18.2-17.1,0-11.1,9.3-18.7,23.4-18.7,16.2,0,25.6,7.5,26.7,21.6l-9.3.6c-1.4-9.3-7.1-13.7-17.4-13.7-7.7,0-12.7,3.5-12.7,9.1,0,4.9,3.1,7.4,9.3,8.5l11.4,1.8c12.3,2.1,19.5,6.7,19.5,17.7,0,12.1-10.7,18.7-24.9,18.7-15.2,0-26.7-7.1-27.9-22.2Z"/><path d="M699,112h-9.2v-6.3l3.9-.7c5.7-1.1,7-3.9,8.4-9.8l1.8-8.5h6.5v16.9h17.1V112H710.4v36.9c0,5.4,2.2,7.9,7.5,7.9,3.9,0,7.9-1.7,11.4-3.6V161a24.22,24.22,0,0,1-15.6,5.2c-8.6,0-14.8-4-14.8-15.9V112Z"/><path d="M744.4,143.3c1.1,9.3,7.7,14.3,18.1,14.3,8.1,0,14.1-2.9,14.1-9.1,0-5.7-4-7.7-11.6-9.1l-10.3-1.8c-11.4-1.8-18.2-6.7-18.2-17.1,0-11.1,9.3-18.7,23.4-18.7,16.2,0,25.6,7.5,26.7,21.6l-9.3.6c-1.4-9.3-7.1-13.7-17.4-13.7-7.7,0-12.7,3.5-12.7,9.1,0,4.9,3.1,7.4,9.3,8.5l11.4,1.8c12.3,2.1,19.5,6.7,19.5,17.7,0,12.1-10.7,18.7-24.9,18.7-15.2,0-26.7-7.1-27.9-22.2Z"/></svg>