<svg id="Layer_1" data-name="Layer 1" xmlns="http://www.w3.org/2000/svg" viewBox="0 0 700 700"><title>alphabet</title><path d="M300.9,487.35q0,22.17,4.61,32.25t16.7,13.83q12.09,3.74,38.3,4.6v11.81q-30.52-1.73-86.68-1.73-50.7,0-75.46,1.73V538q21.32-.85,31-4.6a22.07,22.07,0,0,0,13.25-13.83q3.6-10.08,3.6-32.25V194.75q0-22.18-3.6-32.26a22,22,0,0,0-13.25-13.82q-9.65-3.75-31-4.61V132.25q24.48,1.73,72,1.73,23,0,50.83-.58t38.16-.57q46.36,0,78.33,14.54t47.95,40.75q16,26.2,16,61.06a141.89,141.89,0,0,1-14.4,62.2q-14.4,30-49.1,49.83T346.4,381.08H300.9ZM420.41,338.46q22.18-30.82,22.18-82.95,0-38-9.79-62.49T401.55,156.3q-21.45-12.24-56.88-12.24-18.44,0-27.65,4.18t-12.67,14.83q-3.45,10.65-3.45,31.68V369.27h39.74Q398.24,369.27,420.41,338.46Z"/></svg>