<?xml version="1.0" encoding="utf-8"?>
<!-- Generator: Adobe Illustrator 22.0.1, SVG Export Plug-In . SVG Version: 6.00 Build 0)  -->
<svg version="1.1" id="Layer_1" xmlns="http://www.w3.org/2000/svg" xmlns:xlink="http://www.w3.org/1999/xlink" x="0px" y="0px"
	 viewBox="0 0 700 700" style="enable-background:new 0 0 700 700;" xml:space="preserve">
<g>
	<path d="M424.3,514.4c-18.7,15.9-36.8,27.2-54.1,33.7c-17.3,6.6-35.9,9.8-55.8,9.8c-32.8,0-58-8-75.6-24s-26.4-36.5-26.4-61.4
		c0-14.6,3.3-28,10-40.1c6.7-12.1,15.4-21.8,26.1-29.1c10.8-7.3,22.9-12.8,36.4-16.6c9.9-2.6,24.9-5.2,45-7.6
		c40.9-4.9,70.9-10.7,90.2-17.4c0.2-6.9,0.3-11.3,0.3-13.2c0-20.6-4.8-35.1-14.3-43.6c-12.9-11.4-32.1-17.1-57.6-17.1
		c-23.8,0-41.4,4.2-52.7,12.5c-11.3,8.3-19.7,23.1-25.2,44.3l-49.5-6.7c4.5-21.2,11.9-38.3,22.2-51.3s25.2-23,44.7-30.1
		c19.5-7,42.1-10.5,67.7-10.5c25.5,0,46.2,3,62.1,9c15.9,6,27.6,13.5,35.1,22.6c7.5,9.1,12.7,20.6,15.7,34.4
		c1.7,8.6,2.5,24.2,2.5,46.7v67.5c0,47,1.1,76.8,3.2,89.2c2.2,12.5,6.4,24.4,12.8,35.8h-52.8C429.2,540.8,425.8,528.5,424.3,514.4z
		 M420.1,401.4c-18.4,7.5-45.9,13.9-82.6,19.1c-20.8,3-35.5,6.4-44.1,10.1c-8.6,3.7-15.3,9.2-20,16.4c-4.7,7.2-7,15.2-7,24
		c0,13.5,5.1,24.7,15.3,33.7c10.2,9,25.2,13.5,44.8,13.5c19.5,0,36.8-4.3,52-12.8c15.2-8.5,26.3-20.2,33.4-35
		c5.4-11.4,8.2-28.3,8.2-50.6V401.4z"/>
</g>
</svg>
