<?xml version="1.0" encoding="utf-8"?>
<!-- Generator: Adobe Illustrator 22.0.1, SVG Export Plug-In . SVG Version: 6.00 Build 0)  -->
<svg version="1.1" id="Layer_1" xmlns="http://www.w3.org/2000/svg" xmlns:xlink="http://www.w3.org/1999/xlink" x="0px" y="0px"
	 viewBox="0 0 700 700" style="enable-background:new 0 0 700 700;" xml:space="preserve">
<g>
	<path d="M462.3,463.5c-14.2,39.1-59.3,86.3-117.3,86.3c-72.8,0-129.4-69.4-129.4-151.7c0-82.9,53.9-148.3,130.1-148.3
		c74.2,0,113.3,60,113.9,111.2H276.2c-8.1,103.8,49.2,144.9,95.1,144.9c35.1,0,58.7-19.6,79.6-49.2L462.3,463.5z M373.3,344.8
		c20.2,0,22.9-10.1,22.9-20.2c0-30.3-22.9-59.3-54.6-59.3c-47.2,0-60.7,51.9-64,79.6H373.3z"/>
</g>
</svg>
