<?xml version="1.0" encoding="utf-8"?>
<!-- Generator: Adobe Illustrator 22.0.1, SVG Export Plug-In . SVG Version: 6.00 Build 0)  -->
<svg version="1.1" id="Layer_1" xmlns="http://www.w3.org/2000/svg" xmlns:xlink="http://www.w3.org/1999/xlink" x="0px" y="0px"
	 viewBox="0 0 700 700" style="enable-background:new 0 0 700 700;" xml:space="preserve">
<g>
	<path d="M351.2,683v-16.6c47.3-8.9,56.8-19.2,59.4-67.7l4.5-83c-33.2,28.1-58.7,39.6-91.3,39.6c-65.1,0-111.7-57.5-111.7-139.2
		c0-99.6,60.7-169.2,146.9-169.2c12.8,0,23.6,1.9,31.9,4.5c20.4,7,32.6,10.9,35.8,10.9c6.4,0,14.7-4.5,31.3-15.3l14,9.6l-8.9,118.1
		v224.8c0,49.8,7,60.7,44.1,67V683H351.2z M415.1,348.4c0-47.2-19.2-70.9-57.5-70.9c-54.3,0-92.6,48.5-92.6,117.5
		s40.9,118.1,97.7,118.1c19.2,0,30-2.6,52.4-15.3V348.4z"/>
</g>
</svg>
