<?xml version="1.0" encoding="utf-8"?>
<!-- Generator: Adobe Illustrator 22.0.1, SVG Export Plug-In . SVG Version: 6.00 Build 0)  -->
<svg version="1.1" id="Layer_1" xmlns="http://www.w3.org/2000/svg" xmlns:xlink="http://www.w3.org/1999/xlink" x="0px" y="0px"
	 viewBox="0 0 700 700" style="enable-background:new 0 0 700 700;" xml:space="preserve">
<g>
	<path d="M238.2,352c0-31.5,11.5-56.4,34.6-74.7s54.5-27.5,94.4-27.5H489v45.7h-59.8c11.6,11.8,19.6,22.5,24.1,32.1
		s6.8,20.7,6.8,33.1c0,15.4-4.4,30.6-13.2,45.5c-8.8,14.9-20.1,26.3-33.9,34.2c-13.8,7.9-36.5,14.3-68,19
		c-22.1,3.2-33.1,10.8-33.1,22.8c0,6.9,4.1,12.5,12.4,16.9c8.3,4.4,23.2,8.9,44.8,13.7c36.2,7.9,59.5,14.1,69.9,18.6
		c10.4,4.5,19.8,10.9,28.1,19.3c14.1,14.1,21.2,31.9,21.2,53.4c0,28.1-12.5,50.5-37.5,67.2c-25,16.7-58.4,25.1-100.1,25.1
		c-42.2,0-75.9-8.4-101.1-25.2s-37.8-39.4-37.8-67.7c0-40.1,24.8-65.9,74.3-77.5c-19.7-12.6-29.6-25.2-29.6-37.6
		c0-9.4,4.2-18,12.7-25.7c8.5-7.7,19.9-13.4,34.2-17C260,426.3,238.2,395.1,238.2,352z M334.4,559.4c-19.7,0-35.8,4.2-48.4,12.5
		c-12.5,8.4-18.8,19.1-18.8,32.1c0,30.4,27.4,45.7,82.3,45.7c25.9,0,46-3.8,60.3-11.4c14.3-7.6,21.4-18.4,21.4-32.3
		c0-13.7-9-24.9-27-33.6C386.1,563.7,362.9,559.4,334.4,559.4z M348.2,300.6c-15.9,0-29.4,5.4-40.5,16.1
		c-11.1,10.7-16.7,23.6-16.7,38.6c0,15.2,5.5,27.8,16.4,37.8c10.9,10,24.8,14.9,41.5,14.9c16.5,0,30.3-5.1,41.3-15.3
		c11-10.2,16.6-22.9,16.6-38.1c0-15.4-5.6-28.3-16.7-38.6C378.8,305.7,364.9,300.6,348.2,300.6z"/>
</g>
</svg>
