<?xml version="1.0" encoding="utf-8"?>
<!-- Generator: Adobe Illustrator 22.0.1, SVG Export Plug-In . SVG Version: 6.00 Build 0)  -->
<svg version="1.1" id="Layer_1" xmlns="http://www.w3.org/2000/svg" xmlns:xlink="http://www.w3.org/1999/xlink" x="0px" y="0px"
	 viewBox="0 0 700 700" style="enable-background:new 0 0 700 700;" xml:space="preserve">
<g>
	<path d="M429.7,152.1c0-35.8-8.8-54.7-39-67.3v-1.3H485V486c0,35.8,8.8,54.7,39,67.3v1.3h-94.3v-84.9
		c-12.6,48.4-54.7,91.2-113.8,91.2c-77.3,0-140.2-57.8-140.2-156.6c0-98.1,62.9-161.6,140.2-161.6c59.1,0,101.2,42.8,113.8,91.2
		V152.1z M429.7,425v-45.9c0-68.5-50.3-109.4-95.6-109.4c-59.7,0-97.5,53.4-97.5,134.6c0,80.5,37.7,129.5,97.5,129.5
		C379.4,533.7,429.7,493.5,429.7,425z"/>
</g>
</svg>
