<svg id="Layer_1" data-name="Layer 1" xmlns="http://www.w3.org/2000/svg" viewBox="0 0 700 700"><title>alphabet</title><path d="M351.2,683V666.4c47.26-8.94,56.83-19.16,59.39-67.69l4.47-83c-33.21,28.1-58.75,39.59-91.32,39.59-65.13,0-111.74-57.47-111.74-139.2,0-99.61,60.66-169.21,146.87-169.21a109.37,109.37,0,0,1,31.92,4.47c20.43,7,32.57,10.85,35.76,10.85,6.39,0,14.69-4.47,31.29-15.32l14.05,9.58L463,374.58V599.35c0,49.81,7,60.67,44.06,67V683Zm63.86-334.6q0-70.87-57.47-70.87C303.31,277.53,265,326.06,265,395s40.87,118.13,97.7,118.13c19.15,0,30-2.56,52.36-15.33Z"/></svg>