<?xml version="1.0" encoding="utf-8"?>
<!-- Generator: Adobe Illustrator 22.0.1, SVG Export Plug-In . SVG Version: 6.00 Build 0)  -->
<svg version="1.1" id="Layer_1" xmlns="http://www.w3.org/2000/svg" xmlns:xlink="http://www.w3.org/1999/xlink" x="0px" y="0px"
	 viewBox="0 0 844.9 246.2" style="enable-background:new 0 0 844.9 246.2;" xml:space="preserve">
<g>
	<path d="M63.3,108.7c7.4,0,13.9,1.8,19.5,5.5c5.3,3.5,8,7.9,8,13.1c0,3.6-1.2,6.5-3.7,8.7c-2.3,2.1-5.1,3.2-8.4,3.2
		c-3.4,0-6-1.2-7.8-3.7c-0.5-0.8-1.3-2.8-2.4-6c-1.1-3.5-3.2-5.2-6.4-5.2c-2.3,0-4.2,1-5.7,3c-1.6,2-2.3,4.4-2.3,7.3
		c0,5,1.8,9.4,5.3,13.2c2.9,3.1,6.5,4.7,10.9,4.7c2.1,0,3.8-0.2,5.2-0.5c1.4-0.4,3.2-1.1,5.5-2.1c0.6-0.3,1.2-0.4,1.9-0.4
		c1.4,0,2.6,0.7,3.7,2c1.1,1.3,1.6,2.9,1.6,4.7c0,1.9-0.8,3.8-2.3,5.9c-1.5,2-3.5,3.8-6,5.4c-5.4,3.3-11.7,5-19,5
		c-8.5,0-15.8-2.5-21.8-7.4c-7.7-6.3-11.5-14.3-11.5-24c0-9.3,3.6-17.1,10.7-23.2C45.3,111.7,53.6,108.7,63.3,108.7z"/>
	<path d="M129.9,108.7c7.2,0,13.3,1.8,18.3,5.5c2.6,1.9,4.5,4.2,5.6,6.7c1.1,2.5,1.6,5.9,1.6,10.3l-0.1,9.2c0,6.4,0.5,10.6,1.4,12.5
		c0.5,0.9,0.9,1.5,1.3,1.7c0.4,0.2,1.3,0.5,2.6,0.7c1.3,0.2,2,1.1,2,2.6c0,2-0.8,4.1-2.4,6.2c-1.6,2.2-3.6,3.9-6.2,5.4
		c-3.1,1.8-6.3,2.7-9.7,2.7c-4.3,0-7.8-1.5-10.3-4.5c-0.9-1.1-1.7-1.6-2.4-1.6c-0.8,0-1.9,0.5-3.3,1.6c-4.1,3-8.8,4.5-14.1,4.5
		c-5.4,0-9.8-1.2-13.1-3.5c-2.2-1.5-3.9-3.5-5.2-6c-1.3-2.5-1.9-5-1.9-7.7c0-4.3,1.7-8.1,5.2-11.4c5.4-5.2,13.5-7.8,24.3-7.9
		c2.4,0,3.9-0.2,4.5-0.7c0.6-0.5,0.9-1.6,0.9-3.3c0-4.4-0.5-7.6-1.4-9.5c-0.9-2-2.4-2.9-4.5-2.9c-1.2,0-2.3,0.4-3.3,1.1
		c-1,0.7-2.2,2.1-3.6,4.1c-3.7,5.3-7.5,7.9-11.5,7.9c-2,0-3.7-0.6-5-1.8c-1.3-1.2-1.9-2.8-1.9-4.7c0-2,0.8-4,2.4-6
		c1.6-2,3.8-3.7,6.5-5.2C113.9,110.7,121.7,108.7,129.9,108.7z M125.7,144.6c-1.8,0-3.4,0.7-4.7,2.2c-1.3,1.5-2,3.3-2,5.3
		c0,2,0.5,3.6,1.4,4.8c1,1.2,2.2,1.8,3.8,1.8c3.3,0,5-2.8,5-8.4c0-2.3-0.2-3.8-0.7-4.6C127.9,145,127,144.6,125.7,144.6z"/>
	<path d="M196.5,109.1c2.5,0,4.1,0.2,4.7,0.7c0.6,0.4,0.9,1.5,0.9,3.3c0,1.5,0.5,2.3,1.5,2.3c0.4,0,1.8-0.8,4.2-2.4
		c1.8-1.2,4-2.2,6.8-3c2.7-0.8,5.2-1.2,7.5-1.2c5.3,0,9.9,1.8,14.1,5.5c3.1,2.8,5.6,6.3,7.3,10.5c1.8,4.4,2.7,9.1,2.7,14
		c0,10.4-3.5,19-10.5,25.7c-5.4,5.3-11.6,7.9-18.5,7.9c-3.5,0-7.1-0.8-10.9-2.5c-0.7-0.3-1.3-0.5-1.8-0.5c-1.2,0-1.9,1.2-1.9,3.7
		c0,3.3,1.1,5.6,3.3,7.1c2,1.4,3.2,2.3,3.6,2.8c0.4,0.5,0.6,1.3,0.6,2.4c0,2.5-1.4,4.4-4.2,5.7c-2.8,1.3-6.7,2-11.7,2
		c-9,0-16.8-1.8-23.6-5.4c-3.4-1.8-5.1-4.1-5.1-6.8c0-1.2,0.3-2.2,0.8-2.8c0.5-0.6,1.5-1.3,3-2c2.1-1,3.5-2.8,3.9-5.4
		c0.5-2.6,0.8-10.1,1.1-22.5c-0.3-10.2-0.7-15.9-1.1-17.1c-0.2-0.4-0.4-0.7-0.7-0.8c-0.3-0.1-1.3-0.4-3.1-0.7
		c-1.3-0.2-2.4-0.9-3.2-1.8c-0.8-1-1.2-2.1-1.2-3.5c0-1.7,0.6-3.1,1.7-4.4c1.2-1.3,3-2.5,5.6-3.7
		C182.5,111.5,190.5,109.1,196.5,109.1z M202.6,132.5l-0.9,17.1c0,0.7-0.1,1.4-0.1,2c0,1.3,0.6,2.3,1.7,3.1c1.1,0.8,2.6,1.2,4.5,1.2
		c5.7,0,8.6-4.7,8.6-14.1c0-6.1-1.2-10.4-3.6-12.8c-1.5-1.5-3.3-2.3-5.3-2.3C204.5,126.7,202.9,128.6,202.6,132.5z"/>
	<path d="M279.2,109.1c2.2,0,3.5,0.3,4,0.9c0.5,0.6,0.9,2.6,1.3,6c0.2,1.8,0.8,2.7,1.9,2.7c0.8,0,1.6-0.6,2.4-1.8
		c3.3-5.2,7.6-7.8,13-7.8c3.8,0,6.8,1.2,9.2,3.7c1.2,1.2,2.1,2.7,2.9,4.6c0.7,1.9,1.1,3.7,1.1,5.4c0,1.9-0.5,3.9-1.4,6
		c-0.9,2-2.1,3.7-3.5,5.1c-2.6,2.5-5.9,3.8-9.7,3.8c-2.1,0-3.9-0.4-5.3-1.1c-1.4-0.7-3.3-2.3-5.6-4.5c-0.9-0.9-1.7-1.3-2.4-1.3
		c-1.2,0-1.9,0.7-2.3,2c-0.4,1.3-0.5,4-0.5,8.2c0,6.2,0.2,10.5,0.7,12.8c0.3,1.2,0.7,2.1,1.2,2.6c0.5,0.5,1.6,1,3.3,1.5
		c3.7,1.1,5.6,3.1,5.6,5.8c0,1.7-0.6,3.2-1.8,4.4c-1.2,1.3-2.8,2.1-4.8,2.5c-4,0.8-9.8,1.2-17.5,1.2c-7.3,0-12.9-0.6-16.7-1.9
		c-3.4-1.2-5.1-3.2-5.1-6c0-2.1,1.2-4.1,3.7-5.8c1.2-0.8,2-1.5,2.5-2.1c0.5-0.6,0.8-1.5,0.9-2.6c0.7-3.8,1-10.7,1-20.9
		c0-1.9-0.2-3.2-0.6-4c-0.4-0.8-1.2-1.5-2.5-2c-2.9-1.2-4.4-2.8-4.4-5c0-2,1-3.7,3-5.1c2-1.4,5.4-2.8,10.2-4.2
		C269.3,110.1,274.7,109.2,279.2,109.1z"/>
	<path d="M353.1,113v36c0,2.9,0.3,4.9,0.8,6.3c0.5,1.3,1.6,2.5,3.1,3.7c1.3,0.9,2.1,1.7,2.6,2.3c0.4,0.6,0.7,1.5,0.7,2.4
		c0,5.3-6.8,8-20.3,8c-7.3,0-13-0.6-17.3-1.7c-1.4-0.4-2.6-1.1-3.5-2.2c-0.9-1-1.3-2.2-1.3-3.5c0-1.1,0.2-2,0.7-2.6
		c0.5-0.6,1.6-1.6,3.5-3c1.3-1,2.2-2.5,2.7-4.7c0.5-2.1,0.8-5.4,0.8-9.6c0-1.4-0.1-3.9-0.3-7.7c-0.2-3.7-0.3-5.9-0.4-6.5
		c-0.2-1.7-1.4-3-3.5-3.9c-2.6-1.1-3.8-2.8-3.8-5c0-2.6,1.7-4.5,5-5.8c4.6-1.8,9.6-3.3,14.9-4.5c5.3-1.2,9.4-1.9,12.3-1.9
		C352,109.2,353.1,110.5,353.1,113z M340.8,85.9c3.6,0,6.4,0.7,8.6,2c2.1,1.3,3.2,3.2,3.2,5.4c0,3.2-1.6,5.7-4.8,7.6
		c-5,2.9-11.1,4.4-18.3,4.4c-3,0-5.4-0.6-7.2-1.7c-2.4-1.5-3.6-3.6-3.6-6.2c0-3.6,2.5-6.3,7.6-8.4C331.5,86.9,336.3,85.9,340.8,85.9
		z"/>
	<path d="M398.9,108.7c7.4,0,13.9,1.8,19.5,5.5c5.3,3.5,8,7.9,8,13.1c0,3.6-1.2,6.5-3.7,8.7c-2.3,2.1-5.1,3.2-8.4,3.2
		c-3.4,0-6-1.2-7.8-3.7c-0.5-0.8-1.3-2.8-2.4-6c-1.1-3.5-3.2-5.2-6.4-5.2c-2.3,0-4.2,1-5.7,3c-1.6,2-2.3,4.4-2.3,7.3
		c0,5,1.8,9.4,5.3,13.2c2.9,3.1,6.5,4.7,10.9,4.7c2.1,0,3.8-0.2,5.2-0.5c1.4-0.4,3.2-1.1,5.5-2.1c0.6-0.3,1.2-0.4,1.9-0.4
		c1.4,0,2.6,0.7,3.7,2c1.1,1.3,1.6,2.9,1.6,4.7c0,1.9-0.8,3.8-2.3,5.9c-1.5,2-3.5,3.8-6,5.4c-5.4,3.3-11.7,5-19,5
		c-8.5,0-15.8-2.5-21.8-7.4c-7.7-6.3-11.5-14.3-11.5-24c0-9.3,3.6-17.1,10.7-23.2C380.8,111.7,389.1,108.7,398.9,108.7z"/>
	<path d="M464.5,113v36c0,2.9,0.3,4.9,0.8,6.3c0.5,1.3,1.6,2.5,3.1,3.7c1.3,0.9,2.1,1.7,2.6,2.3c0.4,0.6,0.7,1.5,0.7,2.4
		c0,5.3-6.8,8-20.3,8c-7.3,0-13-0.6-17.3-1.7c-1.4-0.4-2.6-1.1-3.5-2.2c-0.9-1-1.3-2.2-1.3-3.5c0-1.1,0.2-2,0.7-2.6
		c0.5-0.6,1.6-1.6,3.5-3c1.3-1,2.2-2.5,2.7-4.7c0.5-2.1,0.8-5.4,0.8-9.6c0-1.4-0.1-3.9-0.3-7.7c-0.2-3.7-0.3-5.9-0.4-6.5
		c-0.2-1.7-1.4-3-3.5-3.9c-2.6-1.1-3.8-2.8-3.8-5c0-2.6,1.7-4.5,5-5.8c4.6-1.8,9.6-3.3,14.9-4.5c5.3-1.2,9.4-1.9,12.3-1.9
		C463.3,109.2,464.5,110.5,464.5,113z M452.2,85.9c3.6,0,6.4,0.7,8.6,2c2.1,1.3,3.2,3.2,3.2,5.4c0,3.2-1.6,5.7-4.8,7.6
		c-5,2.9-11.1,4.4-18.3,4.4c-3,0-5.4-0.6-7.2-1.7c-2.4-1.5-3.6-3.6-3.6-6.2c0-3.6,2.5-6.3,7.6-8.4C442.9,86.9,447.7,85.9,452.2,85.9
		z"/>
	<path d="M513.3,108.7c7.6,0,14.2,2,19.9,5.9c4.1,2.8,7.4,6.5,9.9,11c2.6,4.7,3.8,9.6,3.8,14.8c0,9-4.1,16.6-12.3,22.9
		c-7.9,6-16.8,9-27,9c-9.9,0-17.9-2.8-24-8.4c-6-5.5-8.9-12.6-8.9-21.3c0-9.8,3.6-17.7,10.9-23.9C493.2,112,502.4,108.7,513.3,108.7
		z M508.3,123c-1.8,0-3.3,0.7-4.4,2c-1.1,1.3-1.6,3.1-1.6,5.4c0,2.5,0.5,5.9,1.4,10.1c0.9,4.3,2,8.1,3.3,11.4
		c1.3,3.4,3.4,5.1,6.3,5.1c3.7,0,5.5-2.3,5.5-7c0-3.5-0.5-7.4-1.4-11.8c-0.9-4.4-2.1-8-3.4-10.8C512.7,124.5,510.8,123.1,508.3,123z
		"/>
	<path d="M585,112.3v33.6c0,7.2,2.4,10.8,7.1,10.8c1.2,0,2.4-0.3,3.5-1c1.2-0.7,2-1.5,2.4-2.5c0.9-2,1.4-6.4,1.4-13.3
		c0-6.8-0.2-11.4-0.7-13.9c-0.2-1-0.5-1.8-0.9-2.3c-0.4-0.5-1.2-1-2.4-1.6c-2.4-1.2-3.5-2.8-3.5-4.7c0-2.6,2-4.3,6.1-5.3
		c7.7-1.9,15.3-2.9,22.8-2.9c4.2,0,6.3,2.2,6.3,6.6c0,0.5,0,1.4-0.1,2.8c-0.1,2-0.1,4.4-0.2,7.3v27.4c0,1.4,1.2,2.7,3.6,3.8
		c2,1,3,2.4,3,4.3c0,3.7-4.4,6.6-13.2,8.6c-5.2,1.2-10.2,1.8-15,1.8c-2,0-3.3-0.2-4.1-0.7c-0.7-0.5-1.1-1.3-1.3-2.7
		c-0.2-2.6-1-3.8-2.4-3.8c-0.5,0-1,0.1-1.4,0.3c-0.4,0.2-1.7,1.1-3.8,2.5c-4.2,2.9-8.7,4.3-13.5,4.3c-7.9,0-13.5-2.3-16.8-6.9
		c-2.8-3.8-4.2-10.3-4.2-19.4c0-3.4,0-6.3,0.1-8.7c0-1.4,0-2.4,0-2.9c0-3.6-0.3-6.2-1-7.8c-0.6-1.7-1.8-3-3.5-3.9
		c-1.6-0.8-2.6-1.5-3.1-2c-0.4-0.5-0.7-1.2-0.7-2c0-3.1,2.4-5.2,7.1-6.3c8.1-1.8,16.2-2.7,24.3-2.7C583.7,109.2,585,110.2,585,112.3
		z"/>
	<path d="M661.5,108.7c2.1,0,5.4,0.5,10.1,1.4c1,0.2,1.7,0.2,2.4,0.2c0.7,0,2.1-0.4,4.1-1.1c1-0.4,1.8-0.6,2.4-0.6
		c1.9,0,3.8,1.2,5.8,3.7c1.6,1.9,2.9,4.1,3.8,6.4c1,2.3,1.5,4.3,1.5,6c0,1.7-0.6,3-1.7,4.1c-1.2,1.1-2.6,1.6-4.3,1.6
		c-1.4,0-2.7-0.4-3.9-1.1c-1.1-0.7-3-2.3-5.5-4.7c-2.6-2.6-4.8-3.8-6.6-3.8c-1.2,0-2.2,0.4-3,1.3c-0.8,0.8-1.3,1.9-1.3,3
		c0,2,1.9,3.9,5.8,5.7c7,3.1,12.3,6.6,16.1,10.3c3.1,3.1,4.7,7,4.7,11.5c0,5.7-2.5,10.5-7.6,14.4c-4.3,3.3-9.7,5-15.9,5
		c-1.6,0-4.5-0.3-8.8-0.8c-4-0.5-6.3-0.7-6.8-0.7c-0.5,0-1.2,0.1-1.9,0.2c-1.2,0.2-2.1,0.2-2.6,0.2c-1.9,0-3.5-0.5-4.6-1.5
		c-1.7-1.5-3.3-3.9-4.7-7.2c-1.4-3.3-2.2-6.1-2.2-8.5c0-3.8,1.5-5.7,4.5-5.7c1.2,0,2.2,0.4,3.2,1.1c1,0.8,3,2.8,6.1,6.1
		c1.7,1.8,3.1,3.1,4.2,3.8c1.1,0.7,2.3,1,3.6,1c1.4,0,2.5-0.4,3.3-1.1c0.8-0.7,1.2-1.7,1.2-2.9c0-1.9-1.6-3.6-4.8-5.1
		c-6.7-3.3-11.5-6.6-14.4-10.1c-3-3.5-4.4-7.5-4.4-12c0-4.9,1.5-9.2,4.5-12.7C648.2,111.3,654.1,108.7,661.5,108.7z"/>
	<path d="M732.2,121.3v19.9c0,8.8,0.1,13.9,0.4,15.4c0.3,1.4,1.3,2.6,3.1,3.3c1.5,0.7,2.6,1.3,3.1,1.9c0.5,0.6,0.8,1.4,0.8,2.5
		c0,1.4-0.5,2.6-1.5,3.7c-1,1.1-2.3,1.9-3.9,2.4c-3,0.9-8,1.4-15.1,1.4c-8,0-13.6-0.6-16.8-1.8c-1.5-0.5-2.7-1.4-3.7-2.5
		c-1-1.1-1.4-2.3-1.4-3.6c0-1,0.3-1.8,0.8-2.3c0.5-0.5,1.6-1.2,3.4-1.9c1.6-0.7,2.6-2.6,3-5.8c0.7-5.4,1-13,1-22.9
		c0-10.1-0.3-16.6-0.9-19.5c-0.6-2.9-2-5-4.3-6.4c-1.7-1-2.9-1.9-3.6-2.8c-0.6-0.9-1-2-1-3.3c0-2,1-3.8,2.9-5.3
		c1.9-1.5,5-2.9,9.3-4.2c2.9-0.9,6.6-1.7,11.1-2.5c4.5-0.8,7.9-1.2,9.9-1.2c3.3,0,4.9,2,4.9,6.1c0,1.3-0.2,4.4-0.6,9.1
		C732.6,108.4,732.3,115.2,732.2,121.3z"/>
	<path d="M800,139.3l-8.2,22.5c-2,5.6-4.1,10.1-6.1,13.7c-2,3.5-4.4,6.5-7,9c-5.4,5.1-11.8,7.7-19.4,7.7c-6.1,0-11.1-1.6-14.9-4.8
		c-2.9-2.5-4.4-5.6-4.4-9.5c0-3.2,1-5.9,3.1-8c2-2.2,4.6-3.3,7.5-3.3c3,0,5.4,1,7.2,3c0.9,0.9,1.4,1.7,1.7,2.4
		c0.3,0.7,0.7,2.3,1.3,4.7c0.5,1.8,1.5,2.7,3.1,2.7c1.3,0,2.4-0.6,3.2-1.7c0.9-1.1,1.3-2.5,1.3-4.2c0-1.9-1.1-5.2-3.2-9.7
		l-14.9-31.8c-1.6-3.3-2.8-5.4-3.5-6.2c-0.8-0.8-2.5-1.8-5.2-3c-0.8-0.3-1.5-1-2.1-2c-0.6-1-0.9-1.9-0.9-2.8c0-3.7,3.7-6.2,11-7.5
		c4.9-0.9,10.4-1.3,16.7-1.3c4.4,0,7.8,0.5,10.4,1.4c3.4,1.2,5.1,3.2,5.1,6.1c0,1-0.5,2.3-1.4,3.7c-0.9,1.3-1.4,2.5-1.4,3.5
		c0,1,0.2,2,0.7,3.1c0.4,1.1,1.4,2.9,2.8,5.5c1.6,2.9,3,4.3,4.2,4.3c1.3,0,2.6-1.3,4-3.8s2-5,2-7.3c0-1.9-0.5-3.5-1.6-4.7
		c-1.6-1.9-2.4-3.5-2.4-4.8c0-2.1,1.4-3.8,4.2-5.1c2.8-1.3,6.6-1.9,11.3-1.9c8.8,0,13.1,2.1,13.1,6.3c0,1.5-0.4,2.8-1.3,3.7
		c-0.9,0.9-2.5,1.8-4.9,2.6c-2,0.7-3.6,2-4.7,3.7C804.4,128.3,802.3,132.9,800,139.3z"/>
</g>
</svg>
