<svg id="Layer_1" data-name="Layer 1" xmlns="http://www.w3.org/2000/svg" viewBox="0 0 700 700"><title>alphabet</title><path d="M48.26,419a105.58,105.58,0,0,0,6.64-8.76q3.81-5.44,8.54-12.08,20.85-26,40.53-46.64t37.22-36.7q9-8.52,21.81-22t29.87-31q17.07-6.63,37.47-15.15,12.78,0,18.94,8.29t6.15,23.91a209.69,209.69,0,0,1-2.13,28.65q-2.13,15.39-5.92,31.49-4.26,12.78-7.1,24.62a7.49,7.49,0,0,0,1.42,5c1,1.11,2.53,1.65,4.74,1.65q7.09-3.3,27.46-23.67t53.51-56.83q28.41-31.25,49.72-46.64t34.1-15.39q13.71,0,20.1,10.18T437.72,268a353.41,353.41,0,0,1-4.26,55.64A219.86,219.86,0,0,1,418.79,375a36.93,36.93,0,0,0-2.37,8,44.54,44.54,0,0,0-.47,6.16q0,3.31,5.68,6.15a76.51,76.51,0,0,0,8.75-9.47q5-6.15,11.6-15.63l21.76-18q10.88-9,23.65-18.47a108.78,108.78,0,0,1,27-15.86,72.77,72.77,0,0,1,27-5.45,9.1,9.1,0,0,1,4.72,1.42,44,44,0,0,1,4.74,3.32,218,218,0,0,1,18,17.28q7.1,7.81,9.93,13.5,18.45,37.89,32.89,56.59t25.3,18.7a10.5,10.5,0,0,0,4.73-1.18,27.38,27.38,0,0,0,4.73-3.08q10.89,23.21,18.47,43.56-17,13.26-30.28,20.13t-23.19,6.87q-32.65,0-67.44-42.39t-53.22-42.38q-24.63,0-81.87,72.69t-71.45,72.69a166.65,166.65,0,0,1-18.95-1.42,10,10,0,0,1-5.68-5.92,27.41,27.41,0,0,1-1.89-10.66q0-7.1,2.84-18.7t7.58-27.23q6.15-19.89,9.94-31.73T335.46,438q1.43-6.15,4-24.15T346.35,366c0-3.47-.94-6.15-2.84-8.05a9.09,9.09,0,0,0-6.63-2.84,16,16,0,0,0-7.34,2.13,47.78,47.78,0,0,0-9.23,6.87q-5.69,6.15-12.55,12.31t-22,17.52q-16.58,18.94-33.86,38.59T216.6,472.06q-28.41,33.13-45.22,49t-21.55,15.86q-14.24,0-21.61-3.31t-7.35-10q0-15.63,16.85-65.11t16.85-69.85a7.29,7.29,0,0,0-7.59-7.57q-5.7,0-13.52,6.39t-17.81,20.12q-6.68,7.58-16.16,17.52T76.22,448.38a34.64,34.64,0,0,1-3.8,7.34,67.82,67.82,0,0,1-5.22,6.86,116.76,116.76,0,0,0-6.63-17.52Q55.83,434.65,48.26,419Z"/></svg>