<?xml version="1.0" encoding="utf-8"?>
<!-- Generator: Adobe Illustrator 22.0.1, SVG Export Plug-In . SVG Version: 6.00 Build 0)  -->
<svg version="1.1" id="Layer_1" xmlns="http://www.w3.org/2000/svg" xmlns:xlink="http://www.w3.org/1999/xlink" x="0px" y="0px"
	 viewBox="0 0 844.9 246.2" style="enable-background:new 0 0 844.9 246.2;" xml:space="preserve">
<g>
	<path d="M70.5,130.5c0-6.5,2.4-11.6,7.1-15.4c4.8-3.8,11.2-5.7,19.5-5.7h25.2v9.4H110c2.4,2.4,4,4.6,5,6.6c0.9,2,1.4,4.3,1.4,6.8
		c0,3.2-0.9,6.3-2.7,9.4c-1.8,3.1-4.1,5.4-7,7.1c-2.9,1.6-7.5,2.9-14,3.9c-4.6,0.7-6.8,2.2-6.8,4.7c0,1.4,0.9,2.6,2.6,3.5
		c1.7,0.9,4.8,1.8,9.3,2.8c7.5,1.6,12.3,2.9,14.4,3.8c2.1,0.9,4.1,2.3,5.8,4c2.9,2.9,4.4,6.6,4.4,11c0,5.8-2.6,10.4-7.7,13.9
		c-5.2,3.5-12,5.2-20.7,5.2c-8.7,0-15.7-1.7-20.9-5.2c-5.2-3.5-7.8-8.1-7.8-14c0-8.3,5.1-13.6,15.3-16c-4.1-2.6-6.1-5.2-6.1-7.8
		c0-1.9,0.9-3.7,2.6-5.3c1.7-1.6,4.1-2.8,7.1-3.5C75,145.8,70.5,139.4,70.5,130.5z M90.4,173.3c-4.1,0-7.4,0.9-10,2.6
		s-3.9,3.9-3.9,6.6c0,6.3,5.7,9.4,17,9.4c5.4,0,9.5-0.8,12.4-2.4c2.9-1.6,4.4-3.8,4.4-6.7c0-2.8-1.9-5.1-5.6-6.9
		S96.3,173.3,90.4,173.3z M93.2,119.9c-3.3,0-6.1,1.1-8.4,3.3c-2.3,2.2-3.5,4.9-3.5,8c0,3.1,1.1,5.7,3.4,7.8
		c2.3,2.1,5.1,3.1,8.6,3.1c3.4,0,6.2-1.1,8.5-3.2c2.3-2.1,3.4-4.7,3.4-7.9c0-3.2-1.2-5.8-3.5-8C99.6,120.9,96.7,119.9,93.2,119.9z"
		/>
	<path d="M144.2,109.4v14l0.7-1.1c5.8-9.4,11.7-14.1,17.5-14.1c4.6,0,9.3,2.3,14.3,6.9l-6.4,10.6c-4.2-4-8.1-6-11.7-6
		c-3.9,0-7.3,1.9-10.1,5.6c-2.9,3.7-4.3,8.1-4.3,13.2v31.9H132v-61.1H144.2z"/>
	<path d="M223,133.7v26c0,2.1,0.7,3.1,2.1,3.1c1.5,0,3.7-1.1,6.8-3.3v7.4c-2.7,1.8-4.9,3-6.6,3.6c-1.7,0.6-3.4,1-5.2,1
		c-5.2,0-8.2-2-9.2-6.1c-5.1,4-10.6,6-16.4,6c-4.2,0-7.8-1.4-10.6-4.2c-2.8-2.8-4.2-6.3-4.2-10.6c0-3.8,1.4-7.3,4.1-10.3
		c2.8-3,6.7-5.4,11.8-7.2l15.5-5.3v-3.3c0-7.3-3.7-11-11-11c-6.6,0-13,3.4-19.2,10.2v-13.2c4.7-5.5,11.4-8.3,20.2-8.3
		c6.6,0,11.9,1.7,15.9,5.2c1.3,1.1,2.5,2.6,3.6,4.4c1.1,1.8,1.7,3.7,2,5.5C222.9,125.1,223,128.6,223,133.7z M211.1,158.4v-18.1
		l-8.1,3.1c-4.1,1.6-7,3.3-8.7,4.9c-1.7,1.7-2.6,3.7-2.6,6.2c0,2.5,0.8,4.6,2.4,6.2c1.6,1.6,3.7,2.4,6.3,2.4
		C204.3,163.1,207.9,161.5,211.1,158.4z"/>
	<path d="M239.3,166.1v-13c3.4,2.4,6.9,4.3,10.5,5.8c3.6,1.5,6.6,2.2,9,2.2c2.5,0,4.7-0.6,6.5-1.9c1.8-1.2,2.7-2.7,2.7-4.4
		c0-1.8-0.6-3.2-1.8-4.4c-1.2-1.2-3.7-2.9-7.6-5.1c-7.8-4.3-12.9-8-15.3-11.1c-2.4-3.1-3.6-6.4-3.6-10.1c0-4.7,1.8-8.5,5.5-11.5
		c3.7-3,8.4-4.4,14.1-4.4c6,0,12.1,1.7,18.4,5v11.9c-7.2-4.3-13-6.5-17.6-6.5c-2.3,0-4.2,0.5-5.7,1.5c-1.4,1-2.2,2.3-2.2,4
		c0,1.4,0.7,2.8,2,4.1c1.3,1.3,3.6,2.8,6.9,4.6l4.3,2.5c10.2,5.8,15.3,12.1,15.3,19.1c0,5-2,9.1-5.9,12.3c-3.9,3.2-8.9,4.8-15.1,4.8
		c-3.6,0-6.9-0.4-9.7-1.2C247.1,169.6,243.6,168.1,239.3,166.1z"/>
	<path d="M291.2,166.1v-13c3.4,2.4,6.9,4.3,10.5,5.8c3.6,1.5,6.6,2.2,9,2.2c2.5,0,4.7-0.6,6.5-1.9c1.8-1.2,2.7-2.7,2.7-4.4
		c0-1.8-0.6-3.2-1.8-4.4c-1.2-1.2-3.7-2.9-7.6-5.1c-7.8-4.3-12.9-8-15.3-11.1c-2.4-3.1-3.6-6.4-3.6-10.1c0-4.7,1.8-8.5,5.5-11.5
		c3.7-3,8.4-4.4,14.1-4.4c6,0,12.1,1.7,18.4,5v11.9c-7.2-4.3-13-6.5-17.6-6.5c-2.3,0-4.2,0.5-5.7,1.5c-1.4,1-2.2,2.3-2.2,4
		c0,1.4,0.7,2.8,2,4.1c1.3,1.3,3.6,2.8,6.9,4.6l4.3,2.5c10.2,5.8,15.3,12.1,15.3,19.1c0,5-2,9.1-5.9,12.3c-3.9,3.2-8.9,4.8-15.1,4.8
		c-3.6,0-6.9-0.4-9.7-1.2C299,169.6,295.5,168.1,291.2,166.1z"/>
	<path d="M345.8,77.7h12.1v39.7c5-6.1,11.3-9.2,18.8-9.2c4.1,0,7.7,1,11,3.1c3.2,2,5.6,4.8,7.2,8.4c1.6,3.6,2.4,8.9,2.4,16v34.8
		h-12.1v-37.8c0-4.5-1.1-8.1-3.3-10.8c-2.2-2.7-5.1-4.1-8.7-4.1c-2.7,0-5.2,0.7-7.5,2.1c-2.3,1.4-4.9,3.7-7.8,6.8v43.7h-12.1V77.7z"
		/>
	<path d="M442.8,109.2c9.3,0,17,3,23.2,9c6.1,6,9.2,13.5,9.2,22.6c0,8.8-3.1,16.1-9.4,21.9c-6.2,5.8-14.1,8.7-23.6,8.7
		c-9.2,0-16.8-3-23-8.9c-6.2-5.9-9.2-13.3-9.2-22.1c0-8.9,3.1-16.4,9.3-22.3C425.6,112.2,433.4,109.2,442.8,109.2z M442.1,120.1
		c-5.8,0-10.6,1.9-14.3,5.7c-3.7,3.8-5.6,8.7-5.6,14.5c0,5.8,1.9,10.6,5.7,14.3c3.8,3.7,8.7,5.5,14.7,5.5c5.9,0,10.8-1.9,14.6-5.6
		c3.8-3.7,5.7-8.5,5.7-14.4c0-5.8-2-10.6-5.9-14.4C453.1,122,448.1,120.1,442.1,120.1z"/>
	<path d="M487.4,201.6v-92.2h21.1c10.8,0,19.3,2.7,25.3,8.1c6,5.4,9,12.9,9,22.6c0,9.2-2.8,16.7-8.5,22.6
		c-5.7,5.9-12.9,8.8-21.7,8.8c-3.9,0-8.2-0.9-12.9-2.6v32.7H487.4z M508.3,120.7h-8.5v37.6c3.7,1.9,7.6,2.9,11.7,2.9
		c5.7,0,10.3-2,13.9-5.9c3.6-3.9,5.4-9,5.4-15.2c0-4-0.9-7.5-2.6-10.6c-1.7-3.1-4-5.3-7-6.7C518.2,121.4,513.9,120.7,508.3,120.7z"
		/>
	<path d="M555,201.6v-92.2h21.1c10.8,0,19.3,2.7,25.3,8.1c6,5.4,9,12.9,9,22.6c0,9.2-2.8,16.7-8.5,22.6c-5.7,5.9-12.9,8.8-21.7,8.8
		c-3.9,0-8.2-0.9-12.9-2.6v32.7H555z M575.8,120.7h-8.5v37.6c3.7,1.9,7.6,2.9,11.7,2.9c5.7,0,10.3-2,13.9-5.9
		c3.6-3.9,5.4-9,5.4-15.2c0-4-0.9-7.5-2.6-10.6c-1.7-3.1-4-5.3-7-6.7C585.8,121.4,581.5,120.7,575.8,120.7z"/>
	<path d="M675.3,141h-42.9c0.3,5.8,2.3,10.5,5.9,13.9c3.6,3.5,8.3,5.2,14,5.2c8,0,15.3-2.5,22-7.4v11.8c-3.7,2.5-7.4,4.2-11.1,5.3
		s-7.9,1.6-12.8,1.6c-6.7,0-12.2-1.4-16.3-4.2c-4.2-2.8-7.5-6.5-10-11.2c-2.5-4.7-3.8-10.2-3.8-16.4c0-9.3,2.6-16.8,7.9-22.7
		c5.3-5.8,12.1-8.7,20.5-8.7c8.1,0,14.6,2.8,19.4,8.5c4.8,5.7,7.2,13.3,7.2,22.8V141z M632.7,133.7h30.7c-0.3-4.8-1.7-8.5-4.3-11.1
		c-2.6-2.6-6-3.9-10.4-3.9c-4.3,0-7.9,1.3-10.7,3.9C635.3,125.2,633.5,128.9,632.7,133.7z"/>
	<path d="M701,109.4v14l0.7-1.1c5.8-9.4,11.7-14.1,17.5-14.1c4.6,0,9.3,2.3,14.3,6.9l-6.4,10.6c-4.2-4-8.1-6-11.7-6
		c-3.9,0-7.3,1.9-10.1,5.6c-2.9,3.7-4.3,8.1-4.3,13.2v31.9h-12.1v-61.1H701z"/>
	<path d="M738.4,166.1v-13c3.4,2.4,6.9,4.3,10.5,5.8c3.6,1.5,6.6,2.2,9,2.2c2.5,0,4.7-0.6,6.5-1.9c1.8-1.2,2.7-2.7,2.7-4.4
		c0-1.8-0.6-3.2-1.8-4.4c-1.2-1.2-3.7-2.9-7.6-5.1c-7.8-4.3-12.9-8-15.3-11.1c-2.4-3.1-3.6-6.4-3.6-10.1c0-4.7,1.8-8.5,5.5-11.5
		c3.7-3,8.4-4.4,14.1-4.4c6,0,12.1,1.7,18.4,5v11.9c-7.2-4.3-13-6.5-17.6-6.5c-2.3,0-4.2,0.5-5.7,1.5c-1.4,1-2.2,2.3-2.2,4
		c0,1.4,0.7,2.8,2,4.1c1.3,1.3,3.6,2.8,6.9,4.6l4.3,2.5c10.2,5.8,15.3,12.1,15.3,19.1c0,5-2,9.1-5.9,12.3c-3.9,3.2-8.9,4.8-15.1,4.8
		c-3.6,0-6.9-0.4-9.7-1.2C746.3,169.6,742.7,168.1,738.4,166.1z"/>
</g>
</svg>
