<?xml version="1.0" encoding="utf-8"?>
<!-- Generator: Adobe Illustrator 22.0.1, SVG Export Plug-In . SVG Version: 6.00 Build 0)  -->
<svg version="1.1" id="Layer_1" xmlns="http://www.w3.org/2000/svg" xmlns:xlink="http://www.w3.org/1999/xlink" x="0px" y="0px"
	 viewBox="0 0 844.9 246.2" style="enable-background:new 0 0 844.9 246.2;" xml:space="preserve">
<g>
	<path d="M57.4,118v-8.4h9.3v-7.1c0-13,7.4-21.5,20.2-21.5c10.4,0,16.3,4.7,19.1,13.9l-7.9,2.8c-1.5-4.7-5-8.4-10.6-8.4
		c-6.4,0-9.3,4.6-9.3,11.8v8.4h17.1v8.4H78.2v52.5H66.8V118H57.4z"/>
	<path d="M144.8,109.6h11.6v60.9h-11.6v-10.7c-2.9,7.2-10.7,12.4-19.9,12.4c-15.9,0-21.7-10.4-21.7-24.7v-37.9h11.6v36.8
		c0,10.2,4.5,16.7,14.1,16.7c9.1,0,16-7.2,16-18.5V109.6z"/>
	<path d="M183.4,170.5h-11.6v-60.9h11.6v10.9c2.9-7.4,11.1-12.5,20.2-12.5c15.9,0,22.3,10.6,22.3,24.8v37.8h-11.6v-36.8
		c0-10.2-4.9-16.6-14.5-16.6c-9.2,0-16.4,7.2-16.4,18.4V170.5z"/>
	<path d="M267.8,108c17.8,0,27.4,12,28.7,26.6l-10.2,0.7c-1-10.7-7.4-18-18.7-18c-11.4,0-19.2,8.8-19.2,22.8
		c0,14.1,7.8,22.8,19.2,22.8c11.3,0,17.7-7.7,18.7-18.4l10.2,1c-1.3,14.8-10.9,26.6-28.7,26.6c-18.4,0-31.2-12.7-31.2-32
		C236.6,120.8,249.4,108,267.8,108z"/>
	<path d="M310,118h-9.2v-6.3l3.9-0.7c5.7-1.1,7-3.9,8.4-9.8l1.8-8.5h6.5v16.9h17.1v8.4h-17.1v36.9c0,5.4,2.2,7.9,7.5,7.9
		c3.9,0,7.9-1.7,11.4-3.6v7.8c-4.5,3.3-8.9,5.2-15.6,5.2c-8.6,0-14.8-4-14.8-15.9V118z"/>
	<path d="M349.9,82.8h12v13.1h-12V82.8z M361.7,109.6v60.9h-11.6v-60.9H361.7z"/>
	<path d="M404,172.2c-17.8,0-30.9-13.1-30.9-32c0-18.9,13.1-32.2,30.9-32.2c18,0,31.2,13.2,31.2,32.2
		C435.3,159.1,422,172.2,404,172.2z M404,163.3c12.4,0,19.4-9.6,19.4-23.1c0-13.7-7-23.1-19.4-23.1c-12.3,0-19.1,9.5-19.1,23.1
		C385,153.7,391.8,163.3,404,163.3z"/>
	<path d="M458.4,170.5h-11.6v-60.9h11.6v10.9c2.9-7.4,11.1-12.5,20.2-12.5c15.9,0,22.3,10.6,22.3,24.8v37.8h-11.6v-36.8
		c0-10.2-4.9-16.6-14.5-16.6c-9.2,0-16.4,7.2-16.4,18.4V170.5z"/>
	<path d="M564.5,158.5c0,3.2,1.8,4.7,4.7,4.7c1.4,0,3.6-0.4,5.3-1.4v6.3c-2.1,2.1-4.6,3.6-9.3,3.6c-6.3,0-10.7-4.7-11.4-12
		c-3.3,7.1-12,12.4-21.9,12.4c-11.8,0-19.5-6.4-19.5-16.9c0-11.6,9.9-16.3,24.5-19.2l16.4-3.3v-2.4c0-8.4-4.9-13.5-13.4-13.5
		c-8.8,0-13.5,5.2-15.3,12.3l-10.3-1.4c2.4-11.4,11.4-19.8,25.8-19.8c15.3,0,24.4,7.8,24.4,23.3V158.5z M553.4,140.4l-13.7,2.9
		c-9.6,2.1-15.7,3.9-15.7,11.3c0,5.2,3.5,9.1,10.4,9.1c10.7,0,18.9-8.1,18.9-20.3V140.4z"/>
	<path d="M594.8,82.8v87.8h-11.6V82.8H594.8z"/>
	<path d="M609.8,82.8h12v13.1h-12V82.8z M621.7,109.6v60.9h-11.6v-60.9H621.7z"/>
	<path d="M642.3,149.3c1.1,9.3,7.7,14.3,18.1,14.3c8.1,0,14.1-2.9,14.1-9.1c0-5.7-4-7.7-11.6-9.1l-10.3-1.8
		c-11.4-1.8-18.2-6.7-18.2-17.1c0-11.1,9.3-18.7,23.4-18.7c16.2,0,25.6,7.5,26.7,21.6l-9.3,0.6c-1.4-9.3-7.1-13.7-17.4-13.7
		c-7.7,0-12.7,3.5-12.7,9.1c0,4.9,3.1,7.4,9.3,8.5l11.4,1.8c12.3,2.1,19.5,6.7,19.5,17.7c0,12.1-10.7,18.7-24.9,18.7
		c-15.2,0-26.7-7.1-27.9-22.2L642.3,149.3z"/>
	<path d="M699,118h-9.2v-6.3l3.9-0.7c5.7-1.1,7-3.9,8.4-9.8l1.8-8.5h6.5v16.9h17.1v8.4h-17.1v36.9c0,5.4,2.2,7.9,7.5,7.9
		c3.9,0,7.9-1.7,11.4-3.6v7.8c-4.5,3.3-8.9,5.2-15.6,5.2c-8.6,0-14.8-4-14.8-15.9V118z"/>
	<path d="M744.4,149.3c1.1,9.3,7.7,14.3,18.1,14.3c8.1,0,14.1-2.9,14.1-9.1c0-5.7-4-7.7-11.6-9.1l-10.3-1.8
		c-11.4-1.8-18.2-6.7-18.2-17.1c0-11.1,9.3-18.7,23.4-18.7c16.2,0,25.6,7.5,26.7,21.6l-9.3,0.6c-1.4-9.3-7.1-13.7-17.4-13.7
		c-7.7,0-12.7,3.5-12.7,9.1c0,4.9,3.1,7.4,9.3,8.5l11.4,1.8c12.3,2.1,19.5,6.7,19.5,17.7c0,12.1-10.7,18.7-24.9,18.7
		c-15.2,0-26.7-7.1-27.9-22.2L744.4,149.3z"/>
</g>
</svg>
