<?xml version="1.0" encoding="utf-8"?>
<!-- Generator: Adobe Illustrator 22.0.1, SVG Export Plug-In . SVG Version: 6.00 Build 0)  -->
<svg version="1.1" id="Layer_1" xmlns="http://www.w3.org/2000/svg" xmlns:xlink="http://www.w3.org/1999/xlink" x="0px" y="0px"
	 viewBox="0 0 844.9 246.2" style="enable-background:new 0 0 844.9 246.2;" xml:space="preserve">
<g>
	<path d="M60.4,163.7c-3.8,3.2-7.4,5.5-10.9,6.8c-3.5,1.3-7.2,2-11.2,2c-6.6,0-11.6-1.6-15.2-4.8c-3.5-3.2-5.3-7.3-5.3-12.3
		c0-2.9,0.7-5.6,2-8c1.3-2.4,3.1-4.4,5.2-5.8c2.2-1.5,4.6-2.6,7.3-3.3c2-0.5,5-1,9-1.5c8.2-1,14.2-2.1,18.1-3.5
		c0-1.4,0.1-2.3,0.1-2.7c0-4.1-1-7.1-2.9-8.7c-2.6-2.3-6.5-3.4-11.6-3.4c-4.8,0-8.3,0.8-10.6,2.5c-2.3,1.7-4,4.6-5.1,8.9l-9.9-1.4
		c0.9-4.3,2.4-7.7,4.5-10.3c2.1-2.6,5.1-4.6,9-6c3.9-1.4,8.4-2.1,13.6-2.1c5.1,0,9.3,0.6,12.5,1.8c3.2,1.2,5.6,2.7,7.1,4.5
		c1.5,1.8,2.6,4.1,3.2,6.9c0.3,1.7,0.5,4.9,0.5,9.4V146c0,9.4,0.2,15.4,0.6,17.9c0.4,2.5,1.3,4.9,2.6,7.2H62.4
		C61.4,169,60.7,166.5,60.4,163.7z M59.6,141c-3.7,1.5-9.2,2.8-16.6,3.8c-4.2,0.6-7.1,1.3-8.9,2c-1.7,0.8-3.1,1.9-4,3.3
		c-0.9,1.4-1.4,3.1-1.4,4.8c0,2.7,1,5,3.1,6.8c2.1,1.8,5.1,2.7,9,2.7c3.9,0,7.4-0.9,10.4-2.6c3-1.7,5.3-4.1,6.7-7
		c1.1-2.3,1.6-5.7,1.6-10.2V141z"/>
	<path d="M124.5,171.1v-8.8c-4.7,6.8-11,10.2-19,10.2c-3.5,0-6.8-0.7-9.9-2c-3.1-1.4-5.3-3.1-6.8-5.1c-1.5-2.1-2.5-4.6-3.1-7.5
		c-0.4-2-0.6-5.2-0.6-9.5v-37.1h10.2v33.2c0,5.3,0.2,8.9,0.6,10.7c0.6,2.7,2,4.8,4.1,6.3c2.1,1.5,4.6,2.3,7.7,2.3s5.9-0.8,8.6-2.3
		c2.7-1.6,4.6-3.7,5.7-6.4c1.1-2.7,1.7-6.6,1.7-11.7v-32.1h10.2v59.9H124.5z"/>
	<path d="M171.4,162l1.5,9c-2.9,0.6-5.4,0.9-7.7,0.9c-3.7,0-6.5-0.6-8.6-1.8c-2-1.2-3.5-2.7-4.3-4.6c-0.8-1.9-1.2-5.9-1.2-12v-34.5
		h-7.5v-7.9h7.5V96.3l10.1-6.1v20.9h10.2v7.9h-10.2v35.1c0,2.9,0.2,4.8,0.5,5.6c0.4,0.8,0.9,1.5,1.7,2c0.8,0.5,2,0.7,3.5,0.7
		C168,162.4,169.5,162.3,171.4,162z"/>
	<path d="M177.2,141.1c0-11.1,3.1-19.3,9.3-24.7c5.2-4.4,11.4-6.7,18.9-6.7c8.2,0,15,2.7,20.2,8.1c5.2,5.4,7.8,12.9,7.8,22.4
		c0,7.7-1.2,13.8-3.5,18.2c-2.3,4.4-5.7,7.9-10.1,10.3c-4.4,2.4-9.2,3.7-14.5,3.7c-8.4,0-15.2-2.7-20.3-8.1
		C179.7,159,177.2,151.3,177.2,141.1z M187.6,141.1c0,7.7,1.7,13.4,5,17.2c3.3,3.8,7.6,5.7,12.6,5.7c5,0,9.2-1.9,12.6-5.8
		c3.3-3.8,5-9.7,5-17.6c0-7.4-1.7-13-5.1-16.8c-3.4-3.8-7.6-5.7-12.6-5.7c-5.1,0-9.3,1.9-12.6,5.7
		C189.3,127.7,187.6,133.5,187.6,141.1z"/>
	<path d="M254.3,171.1h-9.4V88.4H255v29.5c4.3-5.4,9.8-8.1,16.4-8.1c3.7,0,7.2,0.7,10.5,2.2c3.3,1.5,6,3.6,8.1,6.3
		c2.1,2.7,3.8,5.9,5,9.7c1.2,3.8,1.8,7.9,1.8,12.2c0,10.3-2.5,18.2-7.6,23.8c-5.1,5.6-11.2,8.4-18.3,8.4c-7.1,0-12.6-3-16.7-8.9
		V171.1z M254.1,140.7c0,7.2,1,12.4,2.9,15.6c3.2,5.2,7.5,7.8,13,7.8c4.4,0,8.3-1.9,11.5-5.8c3.2-3.9,4.9-9.6,4.9-17.2
		c0-7.8-1.6-13.6-4.7-17.3c-3.1-3.7-6.9-5.6-11.3-5.6c-4.4,0-8.3,1.9-11.5,5.8C255.8,127.8,254.1,133.4,254.1,140.7z"/>
	<path d="M308.9,100V88.4H319V100H308.9z M308.9,171.1v-59.9H319v59.9H308.9z"/>
	<path d="M330.4,141.1c0-11.1,3.1-19.3,9.3-24.7c5.2-4.4,11.4-6.7,18.9-6.7c8.2,0,15,2.7,20.2,8.1c5.2,5.4,7.8,12.9,7.8,22.4
		c0,7.7-1.2,13.8-3.5,18.2c-2.3,4.4-5.7,7.9-10.1,10.3c-4.4,2.4-9.2,3.7-14.5,3.7c-8.4,0-15.2-2.7-20.3-8.1
		C333,159,330.4,151.3,330.4,141.1z M340.8,141.1c0,7.7,1.7,13.4,5,17.2c3.3,3.8,7.6,5.7,12.6,5.7c5,0,9.2-1.9,12.6-5.8
		c3.3-3.8,5-9.7,5-17.6c0-7.4-1.7-13-5.1-16.8c-3.4-3.8-7.6-5.7-12.6-5.7c-5.1,0-9.3,1.9-12.6,5.7
		C342.5,127.7,340.8,133.5,340.8,141.1z"/>
	<path d="M396.2,176.1l9.9,1.5c0.4,3,1.6,5.3,3.4,6.7c2.5,1.9,6,2.8,10.3,2.8c4.7,0,8.3-0.9,10.9-2.8c2.6-1.9,4.3-4.5,5.2-7.9
		c0.5-2.1,0.8-6.4,0.7-13c-4.4,5.2-10,7.8-16.6,7.8c-8.2,0-14.6-3-19.1-8.9c-4.5-5.9-6.8-13.1-6.8-21.4c0-5.7,1-11,3.1-15.8
		c2.1-4.8,5.1-8.6,9-11.2c3.9-2.6,8.6-4,13.9-4c7.1,0,12.9,2.9,17.5,8.6v-7.2h9.4V163c0,9.3-1,15.9-2.9,19.8c-1.9,3.9-4.9,7-9,9.2
		c-4.1,2.3-9.2,3.4-15.2,3.4c-7.1,0-12.9-1.6-17.3-4.8C398.2,187.4,396.1,182.5,396.2,176.1z M404.7,140.1c0,7.9,1.6,13.6,4.7,17.2
		c3.1,3.6,7,5.4,11.7,5.4c4.7,0,8.6-1.8,11.7-5.4c3.2-3.6,4.7-9.2,4.7-16.9c0-7.3-1.6-12.9-4.9-16.6c-3.3-3.7-7.2-5.6-11.8-5.6
		c-4.5,0-8.4,1.8-11.5,5.5C406.2,127.4,404.7,132.8,404.7,140.1z"/>
	<path d="M461.9,171.1v-59.9h9.1v9.1c2.3-4.3,4.5-7.1,6.5-8.4c2-1.4,4.1-2,6.5-2c3.4,0,6.9,1.1,10.4,3.3l-3.5,9.4
		c-2.5-1.5-5-2.2-7.5-2.2c-2.2,0-4.2,0.7-6,2c-1.8,1.3-3,3.2-3.8,5.6c-1.1,3.6-1.7,7.6-1.7,11.9v31.4H461.9z"/>
	<path d="M539.3,163.7c-3.8,3.2-7.4,5.5-10.9,6.8c-3.5,1.3-7.2,2-11.2,2c-6.6,0-11.6-1.6-15.2-4.8c-3.5-3.2-5.3-7.3-5.3-12.3
		c0-2.9,0.7-5.6,2-8c1.3-2.4,3.1-4.4,5.2-5.8c2.2-1.5,4.6-2.6,7.3-3.3c2-0.5,5-1,9-1.5c8.2-1,14.2-2.1,18.1-3.5
		c0-1.4,0.1-2.3,0.1-2.7c0-4.1-1-7.1-2.9-8.7c-2.6-2.3-6.5-3.4-11.6-3.4c-4.8,0-8.3,0.8-10.6,2.5c-2.3,1.7-4,4.6-5.1,8.9l-9.9-1.4
		c0.9-4.3,2.4-7.7,4.5-10.3c2.1-2.6,5.1-4.6,9-6c3.9-1.4,8.4-2.1,13.6-2.1c5.1,0,9.3,0.6,12.5,1.8c3.2,1.2,5.5,2.7,7.1,4.5
		c1.5,1.8,2.6,4.1,3.2,6.9c0.3,1.7,0.5,4.9,0.5,9.4V146c0,9.4,0.2,15.4,0.6,17.9c0.4,2.5,1.3,4.9,2.6,7.2h-10.6
		C540.3,169,539.6,166.5,539.3,163.7z M538.5,141c-3.7,1.5-9.2,2.8-16.6,3.8c-4.2,0.6-7.1,1.3-8.9,2c-1.7,0.8-3.1,1.9-4,3.3
		c-0.9,1.4-1.4,3.1-1.4,4.8c0,2.7,1,5,3.1,6.8c2.1,1.8,5.1,2.7,9,2.7c3.9,0,7.4-0.9,10.4-2.6c3-1.7,5.3-4.1,6.7-7
		c1.1-2.3,1.6-5.7,1.6-10.2V141z"/>
	<path d="M564.1,194.1v-82.9h9.3v7.8c2.2-3,4.6-5.3,7.4-6.9c2.7-1.5,6.1-2.3,10-2.3c5.1,0,9.6,1.3,13.5,4c3.9,2.6,6.9,6.4,8.9,11.1
		c2,4.8,3,10.1,3,15.8c0,6.1-1.1,11.7-3.3,16.6c-2.2,4.9-5.4,8.7-9.6,11.3c-4.2,2.6-8.6,3.9-13.2,3.9c-3.4,0-6.4-0.7-9.1-2.1
		c-2.7-1.4-4.9-3.2-6.6-5.4v29.2H564.1z M573.3,141.5c0,7.7,1.6,13.4,4.7,17.1c3.1,3.7,6.9,5.5,11.3,5.5c4.5,0,8.4-1.9,11.6-5.7
		c3.2-3.8,4.8-9.7,4.8-17.8c0-7.6-1.6-13.4-4.7-17.2c-3.1-3.8-6.9-5.7-11.3-5.7c-4.3,0-8.2,2-11.5,6.1
		C575,127.9,573.3,133.8,573.3,141.5z"/>
	<path d="M628.1,171.1V88.4h10.2v29.7c4.7-5.5,10.7-8.2,17.9-8.2c4.4,0,8.3,0.9,11.6,2.6c3.3,1.7,5.6,4.2,7,7.3
		c1.4,3.1,2.1,7.6,2.1,13.4v38h-10.2v-38c0-5.1-1.1-8.8-3.3-11.1c-2.2-2.3-5.3-3.5-9.3-3.5c-3,0-5.8,0.8-8.5,2.3
		c-2.7,1.6-4.5,3.7-5.7,6.4c-1.1,2.7-1.7,6.4-1.7,11.1v32.8H628.1z"/>
	<path d="M692.1,100V88.4h10.2V100H692.1z M692.1,171.1v-59.9h10.2v59.9H692.1z"/>
	<path d="M758.4,151.8l10.5,1.3c-1.7,6.1-4.7,10.9-9.2,14.3c-4.5,3.4-10.2,5.1-17.2,5.1c-8.8,0-15.7-2.7-20.9-8.1
		c-5.1-5.4-7.7-13-7.7-22.7c0-10.1,2.6-17.9,7.8-23.5c5.2-5.6,11.9-8.4,20.2-8.4c8,0,14.6,2.7,19.6,8.2c5.1,5.5,7.6,13.1,7.6,23
		c0,0.6,0,1.5-0.1,2.7h-44.7c0.4,6.6,2.2,11.6,5.6,15.1c3.3,3.5,7.5,5.2,12.5,5.2c3.7,0,6.9-1,9.5-2.9
		C754.8,159.2,756.9,156.1,758.4,151.8z M725,135.4h33.5c-0.5-5-1.7-8.8-3.8-11.3c-3.2-3.9-7.4-5.9-12.6-5.9
		c-4.7,0-8.6,1.6-11.8,4.7C727.1,126,725.4,130.2,725,135.4z"/>
	<path d="M777.3,153.2l10-1.6c0.6,4,2.1,7.1,4.7,9.3c2.6,2.1,6.2,3.2,10.8,3.2c4.7,0,8.1-0.9,10.4-2.9c2.3-1.9,3.4-4.1,3.4-6.7
		c0-2.3-1-4.1-3-5.4c-1.4-0.9-4.9-2.1-10.4-3.4c-7.5-1.9-12.6-3.5-15.5-4.9c-2.9-1.4-5.1-3.3-6.5-5.7c-1.5-2.4-2.2-5.1-2.2-8
		c0-2.7,0.6-5.1,1.8-7.4c1.2-2.3,2.9-4.2,5-5.7c1.6-1.2,3.7-2.2,6.5-3c2.7-0.8,5.7-1.2,8.8-1.2c4.7,0,8.8,0.7,12.4,2
		c3.6,1.4,6.2,3.2,7.9,5.5c1.7,2.3,2.9,5.4,3.5,9.3l-9.9,1.4c-0.5-3.1-1.8-5.5-3.9-7.2c-2.2-1.7-5.2-2.6-9.2-2.6
		c-4.7,0-8,0.8-10,2.3c-2,1.5-3,3.3-3,5.4c0,1.3,0.4,2.5,1.2,3.6c0.8,1.1,2.1,2,3.9,2.7c1,0.4,4,1.2,9,2.6c7.2,1.9,12.2,3.5,15,4.7
		c2.8,1.2,5.1,3,6.7,5.3c1.6,2.3,2.4,5.2,2.4,8.7c0,3.4-1,6.6-3,9.6c-2,3-4.8,5.3-8.6,6.9c-3.7,1.6-7.9,2.5-12.6,2.5
		c-7.8,0-13.7-1.6-17.8-4.9C781,164.4,778.4,159.6,777.3,153.2z"/>
</g>
</svg>
