<?xml version="1.0" encoding="utf-8"?>
<!-- Generator: Adobe Illustrator 22.0.1, SVG Export Plug-In . SVG Version: 6.00 Build 0)  -->
<svg version="1.1" id="Layer_1" xmlns="http://www.w3.org/2000/svg" xmlns:xlink="http://www.w3.org/1999/xlink" x="0px" y="0px"
	 viewBox="0 0 700 700" style="enable-background:new 0 0 700 700;" xml:space="preserve">
<g>
	<path d="M343.8,263.1c15.9-10.7,34.1-16.1,54.4-16.1c20.2,0,38.3,5.5,54.3,16.4c16,10.9,28.6,27,37.8,48.3S504,358.4,504,388
		c0,29.1-4.6,56.3-13.9,81.8c-9.3,25.4-23.6,46.1-43.2,62c-19.5,15.9-43.9,23.9-73.2,23.9c-14.4,0-27.5-2.8-39.3-8.5
		c-11.8-5.6-20.9-13.1-27.3-22.3v72.7c0,15.4,4.5,26.1,13.6,32.1c9.1,6,22.8,9,41.1,9v11.9c-4.8-0.2-15.6-0.6-32.3-1.4
		c-16.8-0.7-33.3-1.1-49.6-1.1c-12,0-24.4,0.4-37.2,1.1c-12.8,0.7-20.8,1.2-24.2,1.4v-11.9c13.9,0,23.6-2.5,29.2-7.6
		c5.6-5.1,8.3-14.3,8.3-27.6V317c0-17.6-3.2-30.4-9.6-38.3c-6.4-8-17.6-11.9-33.7-11.9v-11.9c11.8,1.1,23.6,1.7,35.3,1.7
		c24.1,0,43.8-2.6,59.1-7.8v60C315.7,289,327.9,273.8,343.8,263.1z M330.8,532.8c10.2,6.6,22.4,9.9,36.6,9.9
		c54.2,0,81.3-49,81.3-146.9c0-87.9-22-131.9-66.1-131.9c-17.2,0-32.6,6.2-46.2,18.5c-13.6,12.3-23.4,30.1-29.3,53.4V506
		C312.7,517.3,320.6,526.2,330.8,532.8z"/>
</g>
</svg>
