<?xml version="1.0" encoding="utf-8"?>
<!-- Generator: Adobe Illustrator 22.0.1, SVG Export Plug-In . SVG Version: 6.00 Build 0)  -->
<svg version="1.1" id="Layer_1" xmlns="http://www.w3.org/2000/svg" xmlns:xlink="http://www.w3.org/1999/xlink" x="0px" y="0px"
	 viewBox="0 0 700 700" style="enable-background:new 0 0 700 700;" xml:space="preserve">
<g>
	<path d="M487.4,460.1c-7.3,18.6-17.6,34.9-30.8,48.7s-28.8,24.6-46.8,32.4c-18,7.8-37.7,11.6-59.1,11.6c-23.9,0-45.7-3.2-65.3-9.7
		c-19.7-6.5-36.2-15.4-49.6-26.7h-3.1l-15.1,33.9h-4.4V158.8c-3.8-2.5-9-5.7-15.7-9.4c-6.7-3.8-13.6-7.5-20.7-11.3v-3.8L261.5,96h5
		l-1.9,223.7l1.3,0.6c3.7-8.8,9.4-17.4,16.9-25.8c7.5-8.4,16.2-16,26-22.9s20.6-12.5,32.3-16.6c11.7-4.2,23.4-6.3,35.1-6.3
		c19.6,0,37,4.2,52,12.6c15,8.4,27.8,19.6,38.2,33.6c10.4,14,18.4,30.2,23.8,48.4c5.4,18.2,8.1,37.2,8.1,56.9
		C498.4,421.4,494.7,441.4,487.4,460.1z M434.7,363.3c-4-14.5-10-27.2-18.2-38.3c-8.1-11.1-18.5-20-31-26.7
		c-12.5-6.7-27.3-10.1-44.4-10.1c-12.9,0-24.1,2.1-33.5,6.3c-9.4,4.2-17.1,9-23.2,14.5c-6,5.4-10.6,10.9-13.8,16.3
		c-3.1,5.4-4.7,9.4-4.7,11.9c-0.4,5-0.6,12.4-0.6,22c0,9.2,0,16.8,0,22.6c0,8.4,0,16.8,0,25.1c0,8,0.2,15.9,0.6,23.9
		c0.4,13.8,2.3,27.5,5.6,41.2c3.3,13.6,8.4,25.8,15.3,36.4c6.9,10.7,15.8,19.3,26.6,25.8c10.8,6.5,24,9.7,39.4,9.7
		c13.4,0,25.4-3.3,36-10.1c10.6-6.7,19.8-16.1,27.5-28.3c7.7-12.1,13.7-26.5,17.8-43c4.2-16.5,6.3-34.4,6.3-53.7
		C440.6,393,438.6,377.8,434.7,363.3z"/>
</g>
</svg>
