<?xml version="1.0" encoding="utf-8"?>
<!-- Generator: Adobe Illustrator 22.0.1, SVG Export Plug-In . SVG Version: 6.00 Build 0)  -->
<svg version="1.1" id="Layer_1" xmlns="http://www.w3.org/2000/svg" xmlns:xlink="http://www.w3.org/1999/xlink" x="0px" y="0px"
	 viewBox="0 0 844.9 246.2" style="enable-background:new 0 0 844.9 246.2;" xml:space="preserve">
<g>
	<path d="M85.7,101.1c-4.3,0-7.9-3.5-7.9-7.7c0-4.3,3.5-7.9,7.9-7.9c4.2,0,7.7,3.5,7.7,7.9C93.4,97.6,89.9,101.1,85.7,101.1z
		 M79.6,170.7v-61.6h12.1v61.6H79.6z"/>
	<path d="M147.1,170.7v-34.8c0-12.4-4.7-16.9-12.7-16.9c-8.1,0-12.7,5.7-12.7,15.7v36h-12.1v-61.6h12.1v5.9c3-4.5,9.1-7.2,15.5-7.2
		c14.3,0,21.9,9.4,21.9,27.6v35.3H147.1z"/>
	<path d="M205.1,169.1c-2.9,1.6-7,2.8-11.8,2.8c-8.6,0-13.8-5.3-13.8-16.3v-35.5h-8.8v-11h8.8V91.5l11.8-6.3v23.9h15.2v11h-15.2
		v33.4c0,5.7,1.9,7.4,6.3,7.4c3.2,0,6.7-1.2,8.9-2.5L205.1,169.1z"/>
	<path d="M269.8,144.2h-40.7c1.3,11.8,8,16.9,15.5,16.9c5.2,0,9.3-1.9,13.4-4.9l7.2,7.7c-5.4,5.2-11.8,8.1-21.2,8.1
		c-14.4,0-26.6-11.6-26.6-32c0-20.9,11-32.1,27-32.1c17.5,0,25.9,14.2,25.9,30.8C270.1,140.9,269.9,142.9,269.8,144.2z M243.4,118.7
		c-8.1,0-13,5.6-14.1,15.5h28.6C257.3,125.8,253.4,118.7,243.4,118.7z"/>
	<path d="M318.2,121.9c-2.6-1.4-5.3-2.2-9.3-2.2c-7.6,0-12.1,5.4-12.1,15.8v35.2h-12.1v-61.6h12.1v5.9c2.8-4.1,8-7.2,14.1-7.2
		c4.9,0,8,0.9,10.4,2.6L318.2,121.9z"/>
	<path d="M364.1,169.1c-2.9,1.6-7,2.8-11.8,2.8c-8.6,0-13.8-5.3-13.8-16.3v-35.5h-8.8v-11h8.8V91.5l11.8-6.3v23.9h15.2v11h-15.2
		v33.4c0,5.7,1.9,7.4,6.3,7.4c3.2,0,6.7-1.2,8.9-2.5L364.1,169.1z"/>
	<path d="M428.8,144.2h-40.7c1.3,11.8,8,16.9,15.5,16.9c5.2,0,9.3-1.9,13.4-4.9l7.2,7.7c-5.4,5.2-11.8,8.1-21.2,8.1
		c-14.4,0-26.6-11.6-26.6-32c0-20.9,11-32.1,27-32.1c17.5,0,25.9,14.2,25.9,30.8C429.1,140.9,428.9,142.9,428.8,144.2z M402.4,118.7
		c-8.1,0-13,5.6-14.1,15.5h28.6C416.3,125.8,412.4,118.7,402.4,118.7z"/>
	<path d="M477.2,121.9c-2.6-1.4-5.3-2.2-9.3-2.2c-7.6,0-12.1,5.4-12.1,15.8v35.2h-12.1v-61.6h12.1v5.9c2.8-4.1,8-7.2,14.1-7.2
		c4.9,0,8,0.9,10.4,2.6L477.2,121.9z"/>
	<path d="M564,170.7v-34.8c0-12.4-3.9-16.9-11.8-16.9c-8.1,0-11.8,5.7-11.8,15.7v36h-12.1v-34.8c0-12.4-3.9-16.9-11.8-16.9
		c-8.1,0-11.8,5.7-11.8,15.7v36h-12.1v-61.6h12.1v5.9c3-4.5,8.3-7.2,14.7-7.2c8.3,0,13.6,3.2,16.9,9c4.5-5.5,9.3-9,18.9-9
		c14.3,0,21.1,9.4,21.1,27.6v35.3H564z"/>
	<path d="M599.7,101.1c-4.3,0-7.9-3.5-7.9-7.7c0-4.3,3.5-7.9,7.9-7.9c4.2,0,7.7,3.5,7.7,7.9C607.5,97.6,604,101.1,599.7,101.1z
		 M593.6,170.7v-61.6h12.1v61.6H593.6z"/>
	<path d="M661.2,170.7v-34.8c0-12.4-4.7-16.9-12.7-16.9c-8.1,0-12.7,5.7-12.7,15.7v36h-12.1v-61.6h12.1v5.9c3-4.5,9.1-7.2,15.5-7.2
		c14.3,0,21.9,9.4,21.9,27.6v35.3H661.2z"/>
	<path d="M725.6,170.7v-6.1c-4.2,4.2-10.2,7.4-16.9,7.4c-10,0-21.3-5.6-21.3-20.8c0-13.7,10.6-19.9,24.5-19.9
		c5.7,0,10.3,0.8,13.7,2.3V129c0-6.7-4.1-10.4-11.6-10.4c-6.3,0-11.3,1.2-16.1,3.9l-4.7-9.1c5.9-3.6,12.4-5.5,21.1-5.5
		c13.7,0,23.1,6.7,23.1,20.6v42.2H725.6z M725.6,144.4c-3.3-1.6-7.5-2.7-14.1-2.7c-7.7,0-12.7,3.5-12.7,9.1
		c0,6.1,3.9,10.2,11.8,10.2c6.4,0,12.1-4,14.9-7.9V144.4z"/>
	<path d="M755,170.7V91.5l12.1-6.3v85.5H755z"/>
</g>
</svg>
