<?xml version="1.0" encoding="utf-8"?>
<!-- Generator: Adobe Illustrator 22.0.1, SVG Export Plug-In . SVG Version: 6.00 Build 0)  -->
<svg version="1.1" id="Layer_1" xmlns="http://www.w3.org/2000/svg" xmlns:xlink="http://www.w3.org/1999/xlink" x="0px" y="0px"
	 viewBox="0 0 700 700" style="enable-background:new 0 0 700 700;" xml:space="preserve">
<g>
	<path d="M270,553c0-11.9,0-23.8,0-35.6c5.9,0,11.8,0,17.9,0c0-18.1,0-35.6,0-53.5c6,0,11.8,0,17.9,0c0-12.1,0-23.8,0-35.7
		c6,0,11.7,0,17.8,0c0-11.9,0-23.6,0-35.7c6.1,0,11.9,0,17.9,0c0-17.9,0-35.5,0-53.4c6,0,11.8,0,17.9,0c0-12.1,0-23.8,0-35.7
		c6.1,0,11.7,0,17.4,0c0-6,0-11.8,0-17.5c-23.7,0-47.2,0-71.1,0c0,11.8,0,23.5,0,35.5c-12.1,0-23.9,0-35.6,0c0-23.7,0-47.5,0-71.3
		c53.5,0,106.9,0,160.4,0c0,17.8,0,35.5,0,53.6c-6.2,0-11.8,0-17.9,0c0,17.9,0,35.5,0,53.5c-6.1,0-11.9,0-17.9,0c0,12,0,23.6,0,35.6
		c-6,0-11.7,0-17.9,0c0,18,0,35.6,0,53.5c-6,0-11.7,0-17.7,0c0,11.9,0,23.6,0,35.7c-6.1,0-11.9,0-17.6,0c0,12,0,23.6,0,35.3
		c17.8,0,35.4,0,53.4,0c0-11.9,0-23.6,0-35.2c12,0,23.6,0,35.3,0c0,23.7,0,47.3,0,71.1C376.6,553,323.3,553,270,553z"/>
</g>
</svg>
