<?xml version="1.0" encoding="utf-8"?>
<!-- Generator: Adobe Illustrator 22.0.1, SVG Export Plug-In . SVG Version: 6.00 Build 0)  -->
<svg version="1.1" id="Layer_1" xmlns="http://www.w3.org/2000/svg" xmlns:xlink="http://www.w3.org/1999/xlink" x="0px" y="0px"
	 viewBox="0 0 700 700" style="enable-background:new 0 0 700 700;" xml:space="preserve">
<g>
	<path d="M48.3,419c1.9-2.2,4.1-5.1,6.6-8.8c2.5-3.6,5.4-7.6,8.5-12.1c13.9-17.4,27.4-32.9,40.5-46.6s25.5-26,37.2-36.7
		c6-5.7,13.3-13,21.8-22c8.5-9,18.5-19.3,29.9-31c11.4-4.4,23.9-9.5,37.5-15.2c8.5,0,14.8,2.8,18.9,8.3c4.1,5.5,6.2,13.5,6.2,23.9
		c0,8.8-0.7,18.4-2.1,28.6c-1.4,10.3-3.4,20.8-5.9,31.5c-2.8,8.5-5.2,16.7-7.1,24.6c0,2.2,0.5,3.9,1.4,5c0.9,1.1,2.5,1.7,4.7,1.7
		c4.7-2.2,13.9-10.1,27.5-23.7c13.6-13.6,31.4-32.5,53.5-56.8c18.9-20.8,35.5-36.4,49.7-46.6c14.2-10.3,25.6-15.4,34.1-15.4
		c9.1,0,15.8,3.4,20.1,10.2c4.3,6.8,6.4,16.8,6.4,30.1c0,19.3-1.4,37.8-4.3,55.6c-2.8,17.8-7.7,35-14.7,51.4
		c-1.3,3.2-2.1,5.8-2.4,8.1c-0.3,2.2-0.5,4.3-0.5,6.2c0,2.2,1.9,4.3,5.7,6.2c2.5-2.2,5.4-5.4,8.7-9.5c3.3-4.1,7.2-9.3,11.6-15.6
		c7.2-6,14.5-12,21.8-18c7.2-6,15.1-12.1,23.7-18.5c8.8-6.9,17.8-12.2,27-15.9c9.1-3.6,18.1-5.4,27-5.4c1.6,0,3.2,0.5,4.7,1.4
		c1.6,0.9,3.2,2.1,4.7,3.3c7.3,6.3,13.2,12.1,18,17.3c4.7,5.2,8,9.7,9.9,13.5c12.3,25.3,23.3,44.1,32.9,56.6
		c9.6,12.5,18,18.7,25.3,18.7c1.6,0,3.1-0.4,4.7-1.2c1.6-0.8,3.2-1.8,4.7-3.1c7.3,15.5,13.4,30,18.5,43.6
		c-11.4,8.8-21.5,15.6-30.3,20.1c-8.8,4.6-16.6,6.9-23.2,6.9c-21.8,0-44.2-14.1-67.4-42.4c-23.2-28.2-40.9-42.4-53.2-42.4
		c-16.4,0-43.7,24.2-81.9,72.7c-38.2,48.5-62,72.7-71.5,72.7c-4.7,0-11-0.5-18.9-1.4c-2.5-0.9-4.4-2.9-5.7-5.9
		c-1.3-3-1.9-6.6-1.9-10.7c0-4.7,0.9-11,2.8-18.7c1.9-7.7,4.4-16.8,7.6-27.2c4.1-13.3,7.4-23.8,9.9-31.7c2.5-7.9,3.9-13.4,4.3-16.6
		c0.9-4.1,2.3-12.1,4-24.2c1.7-12,4-27.9,6.9-47.8c0-3.5-0.9-6.2-2.8-8.1s-4.1-2.8-6.6-2.8c-2.2,0-4.7,0.7-7.3,2.1
		c-2.7,1.4-5.8,3.7-9.2,6.9c-3.8,4.1-8,8.2-12.5,12.3c-4.6,4.1-11.9,9.9-22,17.5c-11,12.6-22.3,25.5-33.9,38.6
		c-11.5,13.1-23.3,26.3-35.3,39.5c-18.9,22.1-34,38.4-45.2,49c-11.2,10.6-18.4,15.9-21.5,15.9c-9.5,0-16.7-1.1-21.6-3.3
		c-4.9-2.2-7.4-5.5-7.4-9.9c0-10.4,5.6-32.1,16.9-65.1c11.2-33,16.9-56.3,16.9-69.8c0-2.2-0.7-4-2.1-5.4c-1.4-1.4-3.2-2.1-5.5-2.1
		c-3.8,0-8.3,2.1-13.5,6.4c-5.2,4.3-11.2,11-17.8,20.1c-4.4,5.1-9.8,10.9-16.2,17.5c-6.3,6.6-14.1,14.4-23.3,23.2
		c-0.9,2.5-2.2,5-3.8,7.3c-1.6,2.4-3.3,4.7-5.2,6.9c-1.3-4.7-3.5-10.6-6.6-17.5C57.4,438.1,53.3,429.4,48.3,419z"/>
</g>
</svg>
