<?xml version="1.0" encoding="utf-8"?>
<!-- Generator: Adobe Illustrator 22.0.1, SVG Export Plug-In . SVG Version: 6.00 Build 0)  -->
<svg version="1.1" id="Layer_1" xmlns="http://www.w3.org/2000/svg" xmlns:xlink="http://www.w3.org/1999/xlink" x="0px" y="0px"
	 viewBox="0 0 700 700" style="enable-background:new 0 0 700 700;" xml:space="preserve">
<path d="M207.8,284.5c17-12.3,33.2-26.2,47.3-42.9c31.7,43.5,64.9,85.3,101.6,124.8c19-19.6,36.5-40.1,53.5-60.9
	c17-20.8,33.6-41.9,48.9-64.6c14.2,16.6,30.2,30.8,48.1,43.4c-43,35.3-84.1,72-122.5,112.2c38.7,43.3,79.1,84.7,122,124.4
	c-18.9,10.9-34.7,25.1-48.3,41.2c-17.1-22.7-33.7-45.4-50.9-67.6c-17.1-22.2-35.6-43.3-55.4-63.6c-40.1,41-77.4,84.1-111.5,130.5
	c-14.1-16.3-29-31.5-47.4-43.3c46.9-36.1,89-76.8,129.1-120.6c-18.9-19.3-37.3-38.8-56.4-57.6C246.9,321.2,227.3,303.1,207.8,284.5z
	"/>
</svg>
