<?xml version="1.0" encoding="utf-8"?>
<!-- Generator: Adobe Illustrator 22.0.1, SVG Export Plug-In . SVG Version: 6.00 Build 0)  -->
<svg version="1.1" id="Layer_1" xmlns="http://www.w3.org/2000/svg" xmlns:xlink="http://www.w3.org/1999/xlink" x="0px" y="0px"
	 viewBox="0 0 700 700" style="enable-background:new 0 0 700 700;" xml:space="preserve">
<g>
	<path d="M286.5,333.4c0,13.9,5.9,24.6,17.7,31.9c11.8,7.4,33.4,12.2,64.7,14.5c33.6,2.7,59.3,10.7,76.9,24.1
		c17.6,13.3,26.4,32.8,26.4,58.3v3.5c0,13.9-2.8,26.4-8.4,37.4c-5.6,11-13.3,20.4-23.2,28.1c-9.9,7.7-21.9,13.6-36,17.7
		c-14.1,4.1-29.5,6.1-46.1,6.1c-22.4,0-41.7-3-57.7-9c-16.1-6-29.4-13.9-40-23.8c-10.6-9.9-18.7-21.1-24.1-33.6
		c-5.4-12.6-8.5-25.2-9.3-38l42.9-10.4c1.9,22,10.4,39.7,25.5,53.1c15.1,13.3,35.2,20,60.3,20c21.3,0,38.4-4.2,51.3-12.5
		c13-8.3,19.4-20,19.4-35.1c0-16.2-6.4-27.8-19.1-34.8c-12.8-7-33.5-11.4-62.1-13.3c-33.3-2.3-58.8-10.1-76.6-23.2
		c-17.8-13.1-26.7-32.3-26.7-57.4v-3.5c0-13.5,2.9-25.4,8.7-35.7c5.8-10.2,13.6-18.9,23.5-25.8c9.9-7,21-12.2,33.4-15.7
		c12.4-3.5,25.3-5.2,38.9-5.2c18.9,0,35.6,2.6,49.9,7.8c14.3,5.2,26.3,12,36,20.3c9.7,8.3,17.1,17.9,22.3,28.7
		c5.2,10.8,8.6,21.7,10.2,32.5l-42.9,10.4c-1.9-18.6-9.4-33.1-22.3-43.5c-13-10.4-29.9-15.7-50.8-15.7c-8.1,0-16,0.9-23.5,2.6
		c-7.5,1.7-14.2,4.4-20,7.8c-5.8,3.5-10.4,7.8-13.9,13.1C288.2,320.3,286.5,326.4,286.5,333.4z"/>
</g>
</svg>
