<?xml version="1.0" encoding="utf-8"?>
<!-- Generator: Adobe Illustrator 22.0.1, SVG Export Plug-In . SVG Version: 6.00 Build 0)  -->
<svg version="1.1" id="Layer_1" xmlns="http://www.w3.org/2000/svg" xmlns:xlink="http://www.w3.org/1999/xlink" x="0px" y="0px"
	 viewBox="0 0 844.9 246.2" style="enable-background:new 0 0 844.9 246.2;" xml:space="preserve">
<g>
	<path d="M120.1,138.4l-8.3,6.7v25.9h-10.2V83.2h10.2v51.1l29.8-24.9h14.2l-28.4,23.1l29.8,38.6h-12.5L120.1,138.4z"/>
	<path d="M176.9,94.8c-2.1,0-3.7-0.6-4.8-1.7s-1.7-2.7-1.7-4.6s0.6-3.5,1.7-4.6c1.2-1.2,2.8-1.7,4.8-1.7c2.1,0,3.7,0.6,5,1.7
		c1.2,1.2,1.9,2.7,1.9,4.6s-0.6,3.5-1.9,4.6C180.6,94.3,178.9,94.8,176.9,94.8z M171.9,109.3H182v61.8h-10.2V109.3z"/>
	<path d="M216.4,121.3c4-8.9,11-13.4,20.8-13.4c7.3,0,13,2.4,17.1,7.2c4.1,4.8,6.1,11.4,6.1,19.7v36.2h-10.1v-36.2
		c0-5.9-1.4-10.4-4.2-13.4c-2.8-3-6.8-4.5-11.9-4.5s-9.3,2.1-12.5,6.3c-3.2,4.2-4.9,10.1-5,17.5v30.3h-10.2v-61.7h8.8L216.4,121.3z"
		/>
	<path d="M302.4,164.2c8.5,0,13.4-3.7,14.6-11.2h10.4c-0.9,6.2-3.7,11-8.2,14.4c-4.5,3.4-10.1,5.1-16.8,5.1c-8.3,0-15-2.9-20.1-8.8
		c-5.2-5.9-7.7-13.7-7.7-23.5s2.6-17.6,7.8-23.5c5.2-5.8,12.1-8.8,20.8-8.8s15.1,3.4,19.4,10.1s5.7,14.9,4.5,24.5h-42.2
		c0,6.4,1.5,11.6,4.6,15.7C292.5,162.2,296.8,164.2,302.4,164.2z M309.9,117.5c-2-1-4.4-1.5-7.2-1.5c-5.2,0-9.4,1.8-12.4,5.4
		c-3.1,3.6-4.8,8-5.4,13.4h32.9C317.8,126.1,315.1,120.4,309.9,117.5z"/>
	<path d="M376.6,169.3c-7.4,3.4-14.1,4.2-20.3,2.2c-4.4-1.4-7.5-4.3-9.3-8.6c-0.9-2.1-1.4-4.7-1.4-7.7v-37.9h-9.9v-7.7h9.9V92.3
		h10.1v17.2H375v7.7h-19.4v37.8c0,6.3,2.9,9.4,8.8,9.4c3.2,0,6.8-0.8,10.7-2.3L376.6,169.3z"/>
	<path d="M411.8,107.9c8.6,0,15.5,2.8,20.8,8.4c5.3,5.6,7.9,13.6,7.9,24c0,10.3-2.6,18.3-7.9,23.9c-5.3,5.6-12.2,8.4-20.8,8.4
		c-8.6,0-15.5-2.8-20.8-8.4c-5.3-5.6-7.9-13.5-7.9-23.9c0-10.4,2.6-18.4,7.9-24C396.3,110.7,403.2,107.9,411.8,107.9z M430.2,140.2
		c0-7.4-1.5-13.1-4.6-17.3c-3.1-4.2-7.6-6.3-13.6-6.3c-6,0-10.6,2.1-13.7,6.3c-3.2,4.2-4.8,9.9-4.8,17.3c0,7.4,1.5,13.1,4.5,17.3
		c3,4.2,7.5,6.3,13.5,6.3c6,0,10.6-2.1,13.9-6.3C428.6,153.3,430.2,147.5,430.2,140.2z"/>
	<path d="M460.1,112.4c4.3-3,10.2-4.5,17.6-4.5c7.4,0,13.2,1.5,17.4,4.6c4.2,3.1,6.3,7,6.5,11.7h-9.9c-0.8-5.6-5.5-8.4-14.2-8.4
		c-4.2,0-7.5,0.9-9.7,2.8c-2.3,1.9-3.4,3.9-3.4,6.1c0,2.2,0.9,4,2.6,5.5c1.7,1.5,4.5,2.8,8.3,3.9l12.4,4.1c5.2,1.6,9.3,3.7,12.1,6.3
		c2.8,2.5,4.2,6,4.2,10.4c0,4.4-2.3,8.4-6.8,12c-4.6,3.6-10.9,5.4-19.1,5.4c-8.2,0-14.5-1.8-19.1-5.5c-4.6-3.7-7-8.4-7.2-14.1h9.8
		c0.2,3.9,1.7,6.8,4.7,8.7s6.7,2.9,11.2,2.9c4.5,0,8.2-0.9,11.1-2.8c2.9-1.9,4.4-4.1,4.4-6.8c0-2.6-0.9-4.6-2.6-6
		c-1.7-1.4-4.5-2.6-8.4-3.6l-12-4c-10.8-3.2-16.1-8.8-16.1-16.8C453.6,119.4,455.8,115.4,460.1,112.4z"/>
	<path d="M543.6,107.9c8.6,0,15.5,2.8,20.8,8.4c5.3,5.6,7.9,13.6,7.9,24c0,10.3-2.6,18.3-7.9,23.9c-5.3,5.6-12.2,8.4-20.8,8.4
		c-8.6,0-15.5-2.8-20.8-8.4c-5.3-5.6-7.9-13.5-7.9-23.9c0-10.4,2.6-18.4,7.9-24C528.1,110.7,535,107.9,543.6,107.9z M562.1,140.2
		c0-7.4-1.5-13.1-4.6-17.3c-3.1-4.2-7.6-6.3-13.6-6.3c-6,0-10.6,2.1-13.7,6.3c-3.2,4.2-4.8,9.9-4.8,17.3c0,7.4,1.5,13.1,4.5,17.3
		c3,4.2,7.5,6.3,13.5,6.3c6,0,10.6-2.1,13.9-6.3C560.4,153.3,562.1,147.5,562.1,140.2z"/>
	<path d="M598.5,121.3c4-8.9,11-13.4,20.8-13.4c5.3,0,9.8,1.3,13.4,3.9c3.6,2.6,6.2,6.3,7.9,10.9c3.9-9.9,11-14.8,21.5-14.8
		c7.4,0,13.1,2.4,17.2,7.2c4,4.8,6.1,11.4,6.1,19.7v36.2h-10.1v-36.2c0-5.9-1.4-10.4-4.2-13.4c-2.8-3-6.8-4.5-12.1-4.5
		c-5.2,0-9.3,2.2-12.2,6.5c-2.9,4.3-4.3,10.2-4.3,17.8v29.9h-10.1v-36.2c0-5.9-1.4-10.4-4.2-13.4c-2.8-3-6.8-4.5-11.9-4.5
		s-9.3,2.1-12.5,6.3c-3.2,4.2-4.9,10.1-5,17.5v30.3h-10.2v-61.7h8.8L598.5,121.3z"/>
	<path d="M727.3,164.2c8.5,0,13.4-3.7,14.6-11.2h10.4c-0.9,6.2-3.7,11-8.2,14.4c-4.5,3.4-10.1,5.1-16.8,5.1c-8.3,0-15-2.9-20.1-8.8
		c-5.2-5.9-7.7-13.7-7.7-23.5s2.6-17.6,7.8-23.5c5.2-5.8,12.1-8.8,20.8-8.8s15.1,3.4,19.4,10.1s5.7,14.9,4.5,24.5h-42.2
		c0,6.4,1.5,11.6,4.6,15.7C717.4,162.2,721.7,164.2,727.3,164.2z M734.8,117.5c-2-1-4.4-1.5-7.2-1.5c-5.2,0-9.4,1.8-12.4,5.4
		c-3.1,3.6-4.8,8-5.4,13.4h32.9C742.7,126.1,740.1,120.4,734.8,117.5z"/>
</g>
</svg>
