<?xml version="1.0" encoding="utf-8"?>
<!-- Generator: Adobe Illustrator 22.0.1, SVG Export Plug-In . SVG Version: 6.00 Build 0)  -->
<svg version="1.1" id="Layer_1" xmlns="http://www.w3.org/2000/svg" xmlns:xlink="http://www.w3.org/1999/xlink" x="0px" y="0px"
	 viewBox="0 0 844.9 246.2" style="enable-background:new 0 0 844.9 246.2;" xml:space="preserve">
<g>
	<path d="M88.8,88.5c0-7.3-1.8-11.2-8-13.7v-0.3h19.2v82.1c0,7.3,1.8,11.2,8,13.7v0.3H88.8v-17.3c-2.6,9.9-11.2,18.6-23.2,18.6
		C49.8,171.9,37,160.1,37,140c0-20,12.8-33,28.6-33c12.1,0,20.7,8.7,23.2,18.6V88.5z M88.8,144.2v-9.4c0-14-10.3-22.3-19.5-22.3
		c-12.2,0-19.9,10.9-19.9,27.5c0,16.4,7.7,26.4,19.9,26.4C78.6,166.4,88.8,158.2,88.8,144.2z"/>
	<path d="M171.4,136.9h-44.9c0,17.1,8.6,29.1,23,29.1c9.6,0,17.8-5.1,21.6-15.8l0.8,0.3c-2.4,13.7-12.4,21.4-26.6,21.4
		c-16.4,0-30.3-11.9-30.3-32.5c0-19.2,13.7-32.5,29.9-32.5C163.4,107,171.4,119.3,171.4,136.9z M159.3,134.2
		c0-13.1-2.3-24.6-14.5-24.6c-9.1,0-17.3,9.5-18,24.6H159.3z"/>
	<path d="M193.1,138.7c0,17.3,9.4,27.5,21.3,27.5c10.1,0,18.2-5.3,21.9-15.9l0.8,0.3c-2.4,13.7-12.6,21.4-26.4,21.4
		c-14.9,0-30-11-30-31.3c0-20.9,15.1-33.6,32.5-33.6c13.9,0,22.6,7.4,22.6,15.8c0,5.9-4.2,9.6-9.5,9.6c-4.5,0-7.8-2.8-7.8-5.9
		c0.8,0.3,1.7,0.4,2.3,0.4c3.6,0,5.9-2.6,5.9-6.9c0-5.6-4-10.4-13.5-10.4C201.1,109.6,193.1,121.9,193.1,138.7z"/>
	<path d="M307.7,166.3c-2.2,3.1-6.3,5.4-11.5,5.4c-6.9,0-10.8-4.5-11.4-11.3c0-0.5-0.3-4.7-0.3-6.2c-1.4,9-10.6,17.3-21.4,17.3
		c-10.1,0-18.2-5.1-18.2-15.9c0-13.7,14.5-16.9,29.8-19.8l9.8-1.8v-7.3c0-9.4-4.4-17.3-14.9-17.3c-9.5,0-13.1,4.9-13.1,10.5
		c0,4,2.3,6.8,5.9,6.8c0.5,0,1.2-0.1,1.7-0.4c-0.6,3.8-3.6,5.8-7.3,5.8c-5.3,0-9.4-3.5-9.4-9.4c0-8.3,9-15.8,22.2-15.8
		c16.7,0,26.7,6.4,26.7,21.7c0,11.4-0.4,19.9-0.4,27.7c0,7.1,2.7,10.6,8.1,10.6c1.4,0,2.8-0.4,3.8-1V166.3z M275.7,138.2
		c-12.7,2.4-18.9,7.1-18.9,16.2c0,8.5,4.7,11.5,10.9,11.5c8.1,0,16-6.8,16.3-18.7l0.3-10.6L275.7,138.2z"/>
	<path d="M328.2,185.5c0,8.5,1.2,11.2,7.3,13.7v0.3h-25.9v-0.3c6.2-2.6,7.3-5.3,7.3-13.7v-63.2c0-7.3-1.8-11.2-8-13.7v-0.3h19.2
		v17.3c2.6-9.9,11.2-18.6,23.2-18.6c15.8,0,28.6,11.8,28.6,31.9c0,20-12.8,33-28.6,33c-12.1,0-20.7-8.7-23.2-18.6V185.5z
		 M328.2,134.7v9.4c0,14,10.3,22.3,19.5,22.3c12.2,0,19.9-10.9,19.9-27.5c0-16.4-7.7-26.4-19.9-26.4
		C338.5,112.5,328.2,120.7,328.2,134.7z"/>
	<path d="M406.6,156.6c0,8.5,1.2,11.2,7.3,13.7v0.3H388v-0.3c6.2-2.6,7.3-5.3,7.3-13.7v-34.4c0-7.3-1.8-11.2-8-13.7v-0.3h19.2V156.6
		z M400.2,78.4c4.6,0,8.1,3.5,8.1,8c0,4.5-3.5,8-8.1,8s-8.1-3.5-8.1-8C392.1,81.8,395.6,78.4,400.2,78.4z"/>
	<path d="M460.2,150.5c-1,12.3-5.6,21.4-17.2,21.4c-10,0-16.3-6.3-16.3-18.7v-41.6h-9v-0.8c10.8-2.2,17.4-11.9,19.2-24.6h1v22.1h20
		l-0.6,3.3H438v41.2c0,8.3,3.1,12.6,8.9,12.6c6.3,0,10.6-5.3,12.3-14.9H460.2z"/>
	<path d="M530.3,166.3c-2.2,3.1-6.3,5.4-11.5,5.4c-6.9,0-10.8-4.5-11.4-11.3c0-0.5-0.3-4.7-0.3-6.2c-1.4,9-10.6,17.3-21.4,17.3
		c-10.1,0-18.2-5.1-18.2-15.9c0-13.7,14.5-16.9,29.8-19.8l9.8-1.8v-7.3c0-9.4-4.4-17.3-14.9-17.3c-9.5,0-13.1,4.9-13.1,10.5
		c0,4,2.3,6.8,5.9,6.8c0.5,0,1.2-0.1,1.7-0.4c-0.6,3.8-3.6,5.8-7.3,5.8c-5.3,0-9.4-3.5-9.4-9.4c0-8.3,9-15.8,22.2-15.8
		c16.7,0,26.7,6.4,26.7,21.7c0,11.4-0.4,19.9-0.4,27.7c0,7.1,2.7,10.6,8.1,10.6c1.4,0,2.8-0.4,3.8-1V166.3z M498.3,138.2
		c-12.7,2.4-18.9,7.1-18.9,16.2c0,8.5,4.7,11.5,10.9,11.5c8.1,0,16-6.8,16.3-18.7l0.3-10.6L498.3,138.2z"/>
	<path d="M572,150.5c-1,12.3-5.6,21.4-17.2,21.4c-10,0-16.3-6.3-16.3-18.7v-41.6h-9v-0.8c10.8-2.2,17.4-11.9,19.2-24.6h1v22.1h20
		l-0.6,3.3h-19.4v41.2c0,8.3,3.1,12.6,8.9,12.6c6.3,0,10.6-5.3,12.3-14.9H572z"/>
	<path d="M597.1,156.6c0,8.5,1.2,11.2,7.3,13.7v0.3h-25.9v-0.3c6.2-2.6,7.3-5.3,7.3-13.7v-34.4c0-7.3-1.8-11.2-8-13.7v-0.3h19.2
		V156.6z M590.7,78.4c4.6,0,8.1,3.5,8.1,8c0,4.5-3.5,8-8.1,8s-8.1-3.5-8.1-8C582.6,81.8,586.1,78.4,590.7,78.4z"/>
	<path d="M611.3,139.5c0-18.7,13.1-32.5,31.4-32.5s31.4,13.7,31.4,32.5c0,18.7-13.1,32.5-31.4,32.5S611.3,158.2,611.3,139.5z
		 M661.5,139.5c0-16.7-6.9-29.9-18.7-29.9S624,122.8,624,139.5c0,16.7,6.9,29.9,18.7,29.9S661.5,156.1,661.5,139.5z"/>
	<path d="M700.8,108.3v17.8c3.5-12.1,11.5-19.1,22.6-19.1c11.8,0,20,7.6,20,22.3v27.3c0,8.5,1.2,11.2,7.3,13.7v0.3h-25.9v-0.3
		c6.2-2.6,7.3-5.3,7.3-13.7v-26.3c0-9.1-3.5-16.9-13.6-16.9c-10.3,0-17.7,9.8-17.7,24.4v18.9c0,8.5,1.2,11.2,7.3,13.7v0.3h-25.9
		v-0.3c6.2-2.6,7.3-5.3,7.3-13.7v-34.4c0-7.3-1.8-11.2-8-13.7v-0.3H700.8z"/>
	<path d="M768.6,120.6c0,6.3,2.4,9.4,15.5,12.4c17.1,4,23,9.8,23,20c0,12.7-11.3,18.9-23.2,18.9c-8.9,0-14.2-3.3-18.2-3.3
		c-2.4,0-4,1.5-5.5,3.3l-1.4-24.4h0.3c5.5,13.3,13.1,21.8,24.9,21.8c7.7,0,14-4.7,14-12.8c0-7.6-6.9-10.3-18.1-12.8
		c-14.8-3.5-20-9.6-20-19.2c0-11.3,10-17.4,21-17.4c8,0,11.9,3.5,16.3,3.5c2.4,0,4.2-1.5,6.4-3.5v21.2h-0.3
		c-4.6-10.3-12.2-18.6-22.5-18.6C772.9,109.6,768.6,114.7,768.6,120.6z"/>
</g>
</svg>
