<?xml version="1.0" encoding="utf-8"?>
<!-- Generator: Adobe Illustrator 22.0.1, SVG Export Plug-In . SVG Version: 6.00 Build 0)  -->
<svg version="1.1" id="Layer_1" xmlns="http://www.w3.org/2000/svg" xmlns:xlink="http://www.w3.org/1999/xlink" x="0px" y="0px"
	 viewBox="0 0 844.9 246.2" style="enable-background:new 0 0 844.9 246.2;" xml:space="preserve">
<g>
	<path d="M342.3,157.3c-1.9,3.6-4.3,6.7-7.5,9c-1.8,1.3-3.8,2.2-5.9,2.9c-3.9,1.4-7.9,1.7-12,1.4c-2-0.2-4.1-0.7-6-1.3
		c-4.6-1.4-8.5-4-11.7-7.6c-1.7-1.9-3.1-4.1-4.2-6.5c-1.4-2.9-2.2-6-2.8-9.1c-0.2-0.9-0.3-1.7-0.3-2.6c0-2-0.5-3.9-0.1-5.9
		c0.1-0.3,0-0.5,0-0.8c0-2.2,0.3-4.5,0.9-6.6c0.8-3.2,2-6.2,3.6-9c2.1-3.4,4.7-6.4,7.9-8.7c1.7-1.2,3.5-2.3,5.5-3.1
		c2.3-0.9,4.6-1.6,7.1-2c2.5-0.4,4.9-0.4,7.4-0.2c1.4,0.1,2.9,0.5,4.3,1c1.3,0.5,2.5,1,3.7,1.6c2.4,1.2,4.4,2.9,6.2,4.8
		c1.2,1.3,2.3,2.6,3.3,4.1c0.1,0.1,0.2,0.2,0.5,0.5c0.3-1.3,0.1-2.4,0.1-3.5c0-1.1,0-2.2,0-3.3c0-1.1,0-2.3,0-3.4
		c1-0.2,6.9-0.3,9.5-0.1c0.3,0.4,0.1,0.9,0.1,1.4c0,8.2,0,16.5,0,24.7c0,10.7,0,21.3,0,32c0,2.2-0.3,4.3-0.6,6.4
		c-0.3,2.4-1,4.6-1.9,6.8c-0.9,2.2-2,4.3-3.5,6.2c-0.9,1-1.8,2.1-2.8,3c-1.9,1.8-4.2,3.2-6.6,4.3c-2.7,1.2-5.5,1.9-8.4,2.4
		c-3.9,0.7-7.9,0.7-11.9,0.5c-3.9-0.3-7.6-1.2-11.1-2.9c-3.9-2-7.1-4.7-9.1-8.7c-1.3-2.5-2-5.1-2.3-7.9c-0.1-0.4,0.1-0.7,0.6-0.7
		c0,0,0.1,0,0.1,0c3-0.1,6-0.2,9-0.3c0.2,0,0.4,0,0.7,0.1c0.2,0.9,0.5,1.8,0.7,2.7c1.4,4.6,4.6,7.4,9.2,8.6c1.8,0.5,3.7,0.8,5.6,0.8
		c3.5,0,6.9-0.3,10.2-1.5c4.1-1.5,7.3-4.2,9.4-8.1c1.2-2.2,1.9-4.6,2.4-7.1c0.6-2.9,0.8-5.9,0.8-8.9c0-1.5,0-2.9,0-4.4
		C342.4,157.9,342.3,157.6,342.3,157.3z M342.4,137.1c-0.1-1-0.2-3.1-0.6-5.1c-0.4-2-1.1-3.9-2.1-5.8c-2.2-4.1-5.3-7.2-9.6-8.9
		c-3.5-1.4-7.2-1.8-11-1.3c-1.6,0.2-3.3,0.6-4.8,1.2c-4.7,1.8-7.9,5.1-10,9.5c-1.1,2.3-1.6,4.7-2,7.2c-0.2,1.4-0.3,2.8-0.3,4.2
		c0,1,0.1,2.1,0.2,3.2c0.2,3.9,1.1,7.7,2.8,11.3c1.9,3.9,4.9,6.6,8.9,8.1c1.5,0.6,3,0.9,4.6,1.1c2.9,0.4,5.8,0.3,8.6-0.5
		c3.8-1.1,7-3.1,9.6-6.2c1.8-2.1,3.1-4.4,4-7C341.9,144.9,342.4,141.6,342.4,137.1z"/>
	<path d="M449.3,119.3c1.1-1.3,2.1-2.7,3.2-3.9c1.9-2.2,4.2-3.7,6.7-5c2.4-1.2,5-1.9,7.7-2.3c1.3-0.2,2.7-0.1,4.1-0.2
		c2.5-0.1,4.9,0.2,7.3,0.8c2.9,0.8,5.6,2,8.1,3.6c3.8,2.4,6.8,5.7,9.1,9.6c1.4,2.4,2.4,5.1,3,7.8c0.4,1.8,0.6,3.6,1,5.4
		c0.1,0.3,0,0.6,0.1,0.9c0,2.3,0.2,4.7,0,7c-0.1,1.5-0.4,3-0.6,4.5c-0.2,1.6-0.7,3.1-1.2,4.6c-0.9,2.9-2.3,5.6-4.1,8.1
		c-2.5,3.5-5.6,6.4-9.3,8.5c-2.3,1.3-4.7,2.1-7.2,2.8c-3.5,1-7.1,0.9-10.6,0.7c-1.8-0.1-3.6-0.6-5.4-1.3c-5.1-1.9-8.7-5.6-11.4-10.1
		c-0.1-0.2-0.3-0.4-0.4-0.7c0,0-0.1,0-0.2-0.1c-0.3,0.2-0.2,0.6-0.2,0.9c0,2.7,0,5.5,0,8.2c0,0.4,0,0.9,0,1.4c-3.2,0-6.3,0-9.4,0
		c-0.1,0-0.1-0.1-0.1-0.1c0,0,0-0.1,0-0.1c0-30.7,0-61.4,0-92.1c0-0.1,0-0.3,0-0.4c0-0.1,0.1-0.1,0.2-0.3c3,0.1,6.1-0.1,9.4,0.1
		c0,14,0,27.8,0,41.6C449.2,119.3,449.3,119.3,449.3,119.3z M489.3,139.9c0.2-2.5-0.1-5-0.7-7.4c-0.9-3.8-2.3-7.4-5.2-10.2
		c-1.1-1-2.2-2.1-3.4-2.9c-2.2-1.3-4.5-2.2-7.1-2.6c-2.8-0.5-5.6-0.4-8.4,0.2c-3.9,1-7.3,2.9-10,6c-2.4,2.7-3.9,5.9-4.7,9.3
		c-0.7,2.8-1,5.6-0.9,8.5c0.1,3.5,0.7,6.9,2,10.1c1.9,4.7,5,8.4,9.6,10.7c2.5,1.3,5.2,1.8,8,2c1.4,0.1,2.9,0,4.3-0.2
		c3.5-0.6,6.5-1.9,9.2-4.3c3.6-3.3,5.5-7.5,6.6-12.2C489.2,144.8,489.5,142.4,489.3,139.9z"/>
	<path d="M243.1,151.8c3.3,0.5,6.5,0.9,9.7,1.5c-0.3,1.2-0.9,2.1-1.4,3.1c-1.8,3.3-4.1,6.4-6.9,8.9c-2.1,1.9-4.5,3.4-7,4.6
		c-2.7,1.2-5.5,1.8-8.3,2.3c-1,0.2-2,0.1-3,0.1c-1.3,0-2.6,0-4,0c-1.6-0.1-3.2-0.4-4.8-0.7c-1.7-0.4-3.4-1-5-1.6
		c-2.9-1.2-5.4-2.9-7.6-5c-3.3-3-5.5-6.7-7.1-10.8c-0.9-2.2-1.4-4.5-1.7-6.9c-0.5-3.3-0.4-6.7-0.2-10c0.2-2.6,0.7-5.1,1.4-7.6
		c0.7-2.4,1.5-4.8,2.6-7c2.5-5.1,6.2-9.1,11.1-12c2.4-1.4,5-2.3,7.7-2.9c3.3-0.8,6.7-0.8,10.1-0.5c3.8,0.3,7.5,1.3,11,3
		c4.5,2.3,8,5.6,10.6,10c1.7,3,2.8,6.2,3.6,9.6c0.3,1.2,0.4,2.5,0.6,3.8c0.4,2.5,0.3,5,0.3,7.5c0,0.8-0.1,0.9-0.9,0.9
		c-0.3,0-0.6,0-0.9,0c-15.1,0-30.2,0-45.2,0c-0.5,0-1,0-1.5,0c-0.4,1-0.2,1.9-0.1,2.8c0.1,1.3,0.2,2.5,0.5,3.8
		c0.4,1.7,0.9,3.4,1.7,4.9c1,2.1,2.4,3.9,4.1,5.5c2.1,1.9,4.5,3.2,7.2,4c2.2,0.7,4.5,0.9,6.8,0.8c4-0.3,7.7-1.3,10.9-3.9
		c2.3-1.8,4-4.1,5.3-6.7C242.6,152.8,242.8,152.4,243.1,151.8z M244,134.1c0-0.7,0-1.2-0.1-1.7c-0.6-3-1.5-5.9-3.1-8.6
		c-2.1-3.3-4.8-5.6-8.5-6.9c-2.9-1-5.8-1.4-8.8-1.1c-2,0.2-3.9,0.5-5.7,1.3c-4.1,1.7-7.1,4.6-9.2,8.5c-1.1,2-1.8,4.2-2.2,6.4
		c-0.3,2.1-0.4,2.1,1.7,2.1c11.5,0,23,0,34.5,0C242.9,134.1,243.4,134.1,244,134.1z"/>
	<path d="M420.8,170.7c-3.2,0-6.3,0-9.5,0c0-0.5,0-1,0-1.5c0-11.4,0-22.8,0-34.1c0-1.9-0.1-3.9-0.3-5.8c-0.3-3.3-1.4-6.3-3.7-8.9
		c-1.6-1.8-3.7-3-6.1-3.4c-1.2-0.3-2.4-0.5-3.7-0.5c-5.1,0.1-9.4,2-12.7,5.9c-2.2,2.6-3.5,5.7-4.1,9.1c-0.4,2.1-0.4,4.3-0.4,6.4
		c0,10.4,0,20.7,0,31.1c0,0.5,0,1,0,1.4c-1.1,0.3-6.7,0.3-9.4,0.1c0,0-0.1-0.1-0.1-0.1c0,0-0.1-0.1-0.1-0.1c0-0.2,0-0.4,0-0.7
		c0-30.6,0-61.2,0-91.8c0-0.1,0.1-0.2,0.1-0.3c0.1,0,0.3-0.1,0.5-0.1c2.6,0,5.3,0,7.9,0c1,0,1,0.1,1,1.1c0,4.7,0,9.4,0,14
		c0,8.4,0,16.8,0,25.1c0,0.5-0.1,1,0.2,1.4c0.8-1.2,1.6-2.4,2.4-3.5c2.1-2.8,4.7-4.8,7.9-6.1c2.2-0.9,4.6-1.5,7-1.6
		c1.3,0,2.6-0.1,3.8,0c4.9,0.2,9.3,1.9,13,5.2c2.7,2.4,4.3,5.4,5.3,8.8c0.6,2.2,0.8,4.4,0.8,6.6c0,13.7,0,27.4,0,41.1
		C420.8,170,420.8,170.3,420.8,170.7z"/>
	<path d="M543.4,172.3c-0.5,0-1.1,0-1.6,0c-3.9,0-7.7-0.8-11.4-2.2c-4-1.5-7.4-3.8-10.3-6.9c-2.3-2.5-4.1-5.3-5.5-8.5
		c-0.8-1.8-1.5-3.7-1.8-5.6c-0.4-2.1-0.8-4.2-1-6.4c-0.2-1.7-0.1-3.5,0-5.3c0.1-1.5,0.2-3,0.5-4.4c0.4-2.1,1-4.2,1.8-6.2
		c1.8-4.5,4.4-8.5,7.9-11.8c2.6-2.4,5.7-4.3,9-5.6c2.8-1.1,5.7-1.7,8.6-2.2c1.5-0.2,3-0.1,4.5-0.1c2.3-0.1,4.6,0.2,6.8,0.6
		c2.9,0.5,5.8,1.5,8.4,2.8c2.9,1.5,5.5,3.4,7.7,5.8c2,2.2,3.6,4.6,4.9,7.3c1.3,2.7,2.2,5.5,2.8,8.5c0.6,3.1,0.9,6.2,0.7,9.3
		c-0.2,2.1-0.4,4.2-0.9,6.2c-1,4.6-2.8,8.7-5.5,12.4c-4.1,5.6-9.6,9.3-16.3,11.1C549.2,172.2,547,172.4,543.4,172.3z M522.1,139.9
		c0,2.6,0.2,5.2,1.1,8.2c1.3,4.7,3.7,8.8,7.7,11.8c3.3,2.5,7.1,3.7,11.2,4c1.6,0.1,3.2,0,4.7-0.2c2.1-0.3,4.2-0.8,6.2-1.8
		c3-1.4,5.5-3.5,7.5-6.1c1-1.4,1.9-2.9,2.5-4.6c0.6-1.7,1.3-3.3,1.5-5.2c0.2-1.7,0.5-3.4,0.6-5.1c0.2-3.4-0.3-6.7-1.3-10
		c-0.6-2-1.4-3.9-2.5-5.6c-1.2-1.9-2.6-3.5-4.3-4.9c-1.6-1.3-3.2-2.3-5.1-3c-3.3-1.2-6.7-1.8-10.2-1.4c-1.9,0.2-3.7,0.5-5.5,1.1
		c-5.9,2-9.8,6.2-12.2,11.8C522.6,132.3,522.1,136,522.1,139.9z"/>
	<path d="M130,108.9c0.4,0,0.7-0.1,1-0.1c2.5,0,4.9,0,7.4,0c0.3,0,0.5,0,0.8,0c0.2,0.1,0.4,0.3,0.4,0.4c0.1,0.3,0,0.6,0,0.9
		c0,2.6,0,5.1,0,7.7c0,0.4,0,0.9,0,1.3c0.1,0,0.1,0.1,0.2,0.1c0.3-0.5,0.7-1,1-1.6c2.7-4.4,6.5-7.4,11.5-8.9c2.9-0.9,5.8-1,8.7-0.9
		c3.9,0.1,7.4,1.3,10.7,3.4c4,2.6,6.4,6.2,7.6,10.7c0.7,2.5,0.9,5.1,0.9,7.7c0,10.5,0,20.9,0,31.4c0,2.7,0,5.4,0,8.1
		c0,0.4,0,0.9,0,1.4c-0.3,0-0.5,0.1-0.8,0.1c-2.6,0-5.2,0-7.8,0c-0.2,0-0.4,0-0.5,0c-0.4,0-0.6-0.2-0.6-0.6c0-0.4,0-0.7,0-1.1
		c0-11.6,0-23.1,0-34.7c0-1.4,0-2.7-0.1-4.1c-0.2-2.9-0.9-5.7-2.5-8.2c-1.8-2.8-4.3-4.5-7.6-5.2c-5.1-1.1-9.7,0.1-13.8,3.3
		c-2.6,2-4.5,4.7-5.5,7.9c-0.9,2.7-1.3,5.5-1.3,8.4c0,10.9,0,21.8,0,32.7c0,0.5,0,1,0,1.4c-1,0.2-7.3,0.3-9.5,0.1
		c0,0-0.1-0.1-0.1-0.1c0,0-0.1-0.1-0.1-0.1c0-20.2,0-40.5,0-60.7C130,109.5,130,109.3,130,108.9z"/>
	<path d="M655.3,109c1.1-0.3,9.2-0.3,10.9-0.1c6.3,17,12.6,34,18.9,51c0.4-0.1,0.5-0.5,0.7-0.9c1.3-3.7,2.7-7.3,4-11
		c1.2-3.3,2.5-6.6,3.7-10c1.2-3.2,2.4-6.3,3.5-9.5c2-5.3,3.9-10.5,5.9-15.8c0.4-1,0.7-2.1,1.1-3.1c0.1-0.3,0.3-0.6,0.5-0.9
		c3.5,0,6.9,0,10.5,0c-0.2,0.5-0.3,0.8-0.4,1.2c-1.2,2.9-2.3,5.8-3.5,8.6c-1.2,3-2.5,5.9-3.7,8.9c-1.7,4.1-3.3,8.1-5,12.2
		c-1.1,2.7-2.2,5.3-3.3,8c-1.1,2.6-2.2,5.3-3.2,7.9c-1,2.5-2.1,5-3.1,7.5c-0.9,2.2-1.7,4.3-2.6,6.5c-1,2.4-2,4.8-3.1,7.3
		c-1.1,2.7-2.3,5.5-3.4,8.3c-1.1,2.6-2.1,5.2-3.2,7.8c-0.4,1-0.8,2-1.2,3.1c-0.2,0.5-0.5,0.7-1,0.7c-3.2,0-6.3,0-9.7,0
		c0.1-0.4,0.2-0.8,0.3-1.1c1.6-3.7,3.3-7.5,4.9-11.2c1.2-2.7,2.3-5.5,3.5-8.2c0.8-1.9,1.7-3.8,2.5-5.6c0.3-0.7,0.3-1.3,0-2
		c-2.6-6.2-5.2-12.5-7.8-18.7c-1.4-3.4-2.8-6.8-4.2-10.2c-1.4-3.4-2.8-6.7-4.2-10.1c-1.2-2.8-2.3-5.6-3.4-8.4
		c-1.1-2.7-2.3-5.4-3.4-8.1C656.3,111.7,655.8,110.4,655.3,109z"/>
	<path d="M634.8,77.7c0.1,0,0.3-0.1,0.5-0.1c2.6,0,5.3,0,7.9,0c1,0,1,0.1,1.1,1c0,0.3,0,0.5,0,0.8c0,29.9,0,59.7,0,89.6
		c0,0.5,0,1,0,1.5c-1.1,0.2-7.7,0.3-9.4,0.1c0,0-0.1-0.1-0.1-0.1c0,0,0-0.1,0-0.1c0-30.5,0-61,0-91.5c0-0.3,0-0.6,0-0.9
		C634.6,77.9,634.7,77.8,634.8,77.7z"/>
	<path d="M621.6,108c0,3.4,0,6.6,0,9.9c-0.4,0-0.7,0.1-1,0.1c-1.1,0-2.2,0-3.3,0c-2.1,0.1-4.2,0.5-6.2,1.2c-2.8,1.1-5,2.9-6.7,5.3
		c-1.7,2.5-2.6,5.2-3.2,8.1c-0.6,2.9-0.8,5.7-0.8,8.6c0,9.3,0,18.5,0,27.8c0,0.5,0,1,0,1.6c-3.3,0-6.4,0-9.5,0
		c-0.2-1.1-0.3-60-0.1-61.7c0.2,0,0.5-0.1,0.7-0.1c2.6,0,5.1,0,7.7,0c0.9,0,1,0.1,1,1c0,3.5,0,7.1,0,10.6c0,0.6,0,1.1,0,1.9
		c0.6-0.5,0.7-1,0.9-1.5c0.9-2.1,2-4,3.3-5.8c2.6-3.6,6.1-6,10.6-6.8c1.8-0.3,3.8-0.1,5.7-0.2C620.9,107.9,621.2,108,621.6,108z"/>
	<path d="M276.8,170.7c-3.3,0-6.4,0-9.7,0c0-0.5-0.1-1-0.1-1.4c0-5.6,0-11.1,0-16.7c0-14,0-28,0-42.1c0-1.9-0.1-1.7,1.7-1.7
		c2.6,0,5.2,0,7.7,0c0.1,0.1,0.1,0.1,0.2,0.1c0,0,0.1,0.1,0.1,0.1c0,0.2,0,0.4,0,0.7C276.8,130,276.8,150.3,276.8,170.7z"/>
	<path d="M279.2,85c-0.1,4.2-3.1,7.3-7.4,7.3c-4.3-0.1-7.2-3.3-7.2-7.4c0-3.7,2.6-7.2,7.3-7.2C276.2,77.7,279.2,81,279.2,85z"/>
</g>
</svg>
