<svg id="Layer_1" data-name="Layer 1" xmlns="http://www.w3.org/2000/svg" viewBox="0 0 700 700"><title>alphabet</title><path d="M419.7,550c-26.65,0-34.71-15.5-42.15-44-36.57,32.23-59.5,44-86.78,44-38.43,0-66.94-27.27-66.94-68.18,0-45.25,35.95-81.2,119-112.19l34.09-13v-18c0-50.83-7.44-70.66-44-70.66-21.07,0-41.53,11.15-41.53,28.51,0,2.48,1.86,17.35,1.86,24.17,0,18-11.15,29.13-28.51,29.13-14.88,0-28.51-9.29-28.51-31.61,0-39.05,49.59-68.18,100.41-68.18,32.85,0,60.13,9.92,76.86,27.27s19.22,36,19.22,71.9V464.46c0,34.71,0,47.11,17.35,47.11,6.2,0,12.4-1.86,26.65-11.16v19.22C461.23,537,440.15,550,419.7,550ZM376.93,377.69l-30.37,12.39c-44.63,18.6-64.46,42.77-64.46,71.9,0,27.9,16.73,47.11,40.29,47.11,21.07,0,36.57-9.3,54.54-27.27Z"/></svg>