<?xml version="1.0" encoding="utf-8"?>
<!-- Generator: Adobe Illustrator 22.0.1, SVG Export Plug-In . SVG Version: 6.00 Build 0)  -->
<svg version="1.1" id="Layer_1" xmlns="http://www.w3.org/2000/svg" xmlns:xlink="http://www.w3.org/1999/xlink" x="0px" y="0px"
	 viewBox="0 0 700 700" style="enable-background:new 0 0 700 700;" xml:space="preserve">
<g>
	<path d="M368.2,250.2c85.7,0,130.9,47.4,130.9,87.4c0,32-24,56.6-56,56.6c-61.7,0-33.1-70.9-78.3-70.9c-25.1,0-38.9,25.7-38.9,48.6
		c0,42.3,31.4,85.1,76.6,85.1c36,0,48-14.9,60-14.9c15.4,0,25.7,17.1,25.7,30.9c0,33.7-51.4,77.1-131.4,77.1
		c-86.3,0-156-63.4-156-150.9C200.8,317.1,272.2,250.2,368.2,250.2z"/>
</g>
</svg>
