<?xml version="1.0" encoding="utf-8"?>
<!-- Generator: Adobe Illustrator 22.0.1, SVG Export Plug-In . SVG Version: 6.00 Build 0)  -->
<svg version="1.1" id="Layer_1" xmlns="http://www.w3.org/2000/svg" xmlns:xlink="http://www.w3.org/1999/xlink" x="0px" y="0px"
	 viewBox="0 0 844.9 246.2" style="enable-background:new 0 0 844.9 246.2;" xml:space="preserve">
<g>
	<path d="M66.6,85.9h10.3v31.2c2.4-3.1,4.6-5.2,6.6-6.5c3.3-2.2,7.4-3.2,12.4-3.2c8.9,0,14.9,3.1,18,9.3c1.7,3.4,2.6,8.1,2.6,14.1
		v39.2h-10.5v-38.5c0-4.5-0.6-7.8-1.7-9.9c-1.9-3.3-5.4-5-10.5-5c-4.3,0-8.1,1.5-11.6,4.4c-3.5,2.9-5.2,8.5-5.2,16.6v32.4H66.6V85.9
		z"/>
	<path d="M163.9,133c2.4-0.3,3.9-1.3,4.7-3c0.5-0.9,0.7-2.2,0.7-3.9c0-3.5-1.2-6.1-3.7-7.6c-2.5-1.6-6-2.4-10.7-2.4
		c-5.3,0-9.1,1.5-11.4,4.4c-1.3,1.6-2.1,4-2.4,7.2h-9.6c0.2-7.5,2.6-12.8,7.3-15.8c4.7-3,10.1-4.4,16.3-4.4c7.2,0,13,1.4,17.5,4.1
		c4.4,2.7,6.7,7,6.7,12.8v35.2c0,1.1,0.2,1.9,0.7,2.6c0.4,0.6,1.4,1,2.8,1c0.5,0,1,0,1.5-0.1s1.2-0.1,1.8-0.3v7.6
		c-1.6,0.5-2.8,0.7-3.6,0.9c-0.8,0.1-2,0.2-3.4,0.2c-3.5,0-6.1-1.3-7.7-3.8c-0.8-1.3-1.4-3.2-1.8-5.6c-2.1,2.7-5.1,5.1-9,7.1
		c-3.9,2-8.2,3-12.9,3c-5.7,0-10.3-1.7-13.9-5.2c-3.6-3.4-5.4-7.7-5.4-12.9c0-5.7,1.8-10,5.3-13.2c3.5-3.1,8.2-5,13.9-5.8L163.9,133
		z M142.3,160.7c2.2,1.7,4.7,2.6,7.7,2.6c3.6,0,7.1-0.8,10.5-2.5c5.7-2.8,8.6-7.3,8.6-13.6v-8.3c-1.3,0.8-2.9,1.5-4.8,2
		c-2,0.5-3.9,0.9-5.8,1.1l-6.2,0.8c-3.7,0.5-6.5,1.3-8.4,2.3c-3.2,1.8-4.8,4.6-4.8,8.5C139.1,156.7,140.2,159,142.3,160.7z"/>
	<path d="M195.8,108.9h9.7v8.7c2.9-3.6,5.9-6.1,9.2-7.7c3.2-1.6,6.8-2.3,10.8-2.3c8.7,0,14.5,3,17.6,9.1c1.7,3.3,2.5,8,2.5,14.2
		v39.2h-10.4v-38.5c0-3.7-0.6-6.7-1.7-9c-1.8-3.8-5.1-5.7-9.9-5.7c-2.4,0-4.4,0.2-6,0.7c-2.8,0.8-5.3,2.5-7.4,5
		c-1.7,2-2.8,4.1-3.3,6.2c-0.5,2.1-0.8,5.2-0.8,9.2v32h-10.3V108.9z"/>
	<path d="M293.9,110.8c1.8,1.1,3.9,3.1,6.2,6V85.9h9.9v84h-9.2v-8.5c-2.4,3.8-5.2,6.5-8.5,8.2c-3.3,1.7-7,2.5-11.2,2.5
		c-6.8,0-12.6-2.9-17.6-8.6c-5-5.7-7.4-13.3-7.4-22.8c0-8.9,2.3-16.6,6.8-23.1c4.5-6.5,11-9.8,19.4-9.8
		C286.9,107.8,290.8,108.8,293.9,110.8z M271,156.6c2.8,4.4,7.2,6.6,13.3,6.6c4.7,0,8.6-2,11.7-6.1c3-4.1,4.6-9.9,4.6-17.6
		c0-7.7-1.6-13.4-4.7-17.1c-3.1-3.7-7-5.6-11.6-5.6c-5.1,0-9.3,2-12.5,5.9c-3.2,4-4.8,9.8-4.8,17.4
		C266.9,146.7,268.3,152.1,271,156.6z"/>
	<path d="M324.7,86.2h9.9v48.6l26.3-25.9H374l-23.5,22.7l24.8,38.4h-13.1L343,138.9l-8.4,8.2v22.9h-9.9V86.2z"/>
	<path d="M420.7,110.6c4,2,7.1,4.7,9.2,7.9c2,3.1,3.4,6.7,4.1,10.8c0.6,2.8,0.9,7.3,0.9,13.5h-44.4c0.2,6.2,1.6,11.2,4.4,15
		c2.7,3.8,6.9,5.6,12.6,5.6c5.3,0,9.6-1.8,12.7-5.3c1.8-2.1,3-4.4,3.8-7.2h10.1c-0.3,2.2-1.1,4.7-2.7,7.5c-1.5,2.8-3.2,5-5,6.8
		c-3.1,3-6.9,5.1-11.5,6.2c-2.5,0.6-5.2,0.9-8.3,0.9c-7.6,0-14-2.8-19.2-8.3c-5.3-5.5-7.9-13.3-7.9-23.2c0-9.8,2.6-17.8,7.9-23.9
		c5.3-6.1,12.2-9.2,20.7-9.2C412.5,107.5,416.7,108.5,420.7,110.6z M424.4,134.5c-0.4-4.4-1.4-8-2.9-10.7c-2.8-4.9-7.4-7.4-14-7.4
		c-4.7,0-8.6,1.7-11.8,5.1c-3.2,3.4-4.8,7.7-5,13H424.4z"/>
	<path d="M447.9,108.9h9.7v10.5c0.8-2.1,2.8-4.6,5.9-7.5c3.1-2.9,6.7-4.4,10.8-4.4c0.2,0,0.5,0,1,0.1c0.5,0,1.2,0.1,2.3,0.2v10.8
		c-0.6-0.1-1.2-0.2-1.7-0.2c-0.5,0-1.1-0.1-1.7-0.1c-5.2,0-9.1,1.7-11.9,5c-2.8,3.3-4.2,7.2-4.2,11.5v35.1h-10.3V108.9z"/>
	<path d="M526.5,112.1c4.3,3.3,6.9,9.1,7.8,17.3h-10c-0.6-3.8-2-6.9-4.2-9.4c-2.2-2.5-5.6-3.7-10.4-3.7c-6.5,0-11.2,3.2-14,9.6
		c-1.8,4.1-2.7,9.2-2.7,15.3c0,6.1,1.3,11.3,3.9,15.4c2.6,4.2,6.7,6.3,12.2,6.3c4.3,0,7.6-1.3,10.1-3.9c2.5-2.6,4.2-6.1,5.2-10.6h10
		c-1.1,8.1-4,14-8.6,17.8c-4.6,3.7-10.4,5.6-17.5,5.6c-8,0-14.3-2.9-19.1-8.8c-4.8-5.8-7.1-13.1-7.1-21.9c0-10.7,2.6-19.1,7.8-25
		c5.2-6,11.8-9,19.9-9C516.5,107.1,522.1,108.8,526.5,112.1z"/>
	<path d="M544.1,85.9h10.3v31.2c2.4-3.1,4.6-5.2,6.6-6.5c3.3-2.2,7.4-3.2,12.4-3.2c8.9,0,14.9,3.1,18,9.3c1.7,3.4,2.6,8.1,2.6,14.1
		v39.2h-10.5v-38.5c0-4.5-0.6-7.8-1.7-9.9c-1.9-3.3-5.4-5-10.5-5c-4.3,0-8.1,1.5-11.6,4.4c-3.5,2.9-5.2,8.5-5.2,16.6v32.4h-10.3
		V85.9z"/>
	<path d="M608.7,86.2h10.4v11.6h-10.4V86.2z M608.7,109.2h10.4v60.8h-10.4V109.2z"/>
	<path d="M672,110.6c4,2,7.1,4.7,9.2,7.9c2,3.1,3.4,6.7,4.1,10.8c0.6,2.8,0.9,7.3,0.9,13.5h-44.4c0.2,6.2,1.6,11.2,4.4,15
		c2.7,3.8,6.9,5.6,12.6,5.6c5.3,0,9.6-1.8,12.7-5.3c1.8-2.1,3-4.4,3.8-7.2h10.1c-0.3,2.2-1.1,4.7-2.7,7.5c-1.5,2.8-3.2,5-5,6.8
		c-3.1,3-6.9,5.1-11.5,6.2c-2.5,0.6-5.2,0.9-8.3,0.9c-7.6,0-14-2.8-19.2-8.3c-5.3-5.5-7.9-13.3-7.9-23.2c0-9.8,2.6-17.8,7.9-23.9
		c5.3-6.1,12.2-9.2,20.7-9.2C663.8,107.5,668,108.5,672,110.6z M675.7,134.5c-0.4-4.4-1.4-8-2.9-10.7c-2.8-4.9-7.4-7.4-14-7.4
		c-4.7,0-8.6,1.7-11.8,5.1c-3.2,3.4-4.8,7.7-5,13H675.7z"/>
	<path d="M703.7,90.2c2.4-3.5,7-5.2,13.9-5.2c0.6,0,1.3,0,2,0.1c0.7,0,1.5,0.1,2.3,0.2v9.4c-1.1-0.1-1.9-0.1-2.3-0.1
		c-0.5,0-0.9,0-1.4,0c-3.2,0-5,0.8-5.7,2.4c-0.6,1.6-0.9,5.7-0.9,12.3h10.3v8.1h-10.3v52.7h-10.1v-52.7H693v-8.1h8.5v-9.6
		C701.6,95.3,702.4,92.2,703.7,90.2z"/>
	<path d="M737.1,150.8c0.3,3.4,1.2,6,2.6,7.9c2.6,3.3,7.2,5,13.7,5c3.9,0,7.3-0.8,10.2-2.5c2.9-1.7,4.4-4.2,4.4-7.7
		c0-2.6-1.2-4.6-3.5-6c-1.5-0.8-4.5-1.8-8.9-2.9l-8.3-2.1c-5.3-1.3-9.2-2.7-11.7-4.3c-4.5-2.8-6.7-6.6-6.7-11.5
		c0-5.8,2.1-10.5,6.3-14c4.2-3.6,9.9-5.4,17-5.4c9.3,0,16,2.7,20.2,8.1c2.6,3.4,3.8,7.1,3.8,11.1h-9.7c-0.2-2.3-1-4.4-2.5-6.3
		c-2.4-2.7-6.6-4-12.5-4c-4,0-7,0.7-9,2.2c-2,1.5-3.1,3.4-3.1,5.9c0,2.7,1.3,4.8,4,6.4c1.5,0.9,3.8,1.8,6.9,2.5l6.9,1.7
		c7.5,1.8,12.5,3.5,15.1,5.2c4,2.6,6,6.7,6,12.4c0,5.4-2.1,10.1-6.3,14.1c-4.2,4-10.5,5.9-19.1,5.9c-9.2,0-15.7-2.1-19.5-6.2
		c-3.8-4.1-5.9-9.2-6.1-15.3H737.1z"/>
</g>
</svg>
