<?xml version="1.0" encoding="utf-8"?>
<!-- Generator: Adobe Illustrator 22.0.1, SVG Export Plug-In . SVG Version: 6.00 Build 0)  -->
<svg version="1.1" id="Layer_1" xmlns="http://www.w3.org/2000/svg" xmlns:xlink="http://www.w3.org/1999/xlink" x="0px" y="0px"
	 viewBox="0 0 700 700" style="enable-background:new 0 0 700 700;" xml:space="preserve">
<path d="M465.8,549.5v-17.6c39.9-4.1,47.3-6.8,47.3-54.7V364.4c0-48-16.9-78.4-59.4-78.4c-24.3,0-50,13.5-75.7,35.1
	c1.3,8.1,2,15.5,2,28.4v131.7c0,42.6,6.1,46.6,43.2,50.7v17.6H278.7v-17.6c41.9-4.1,48-7.4,48-52V363.7c0-50-17.6-77.7-58.8-77.7
	c-27,0-53.4,18.2-73.6,35.1v158.7c0,43.9,5.4,48,38.5,52v17.6H90.3v-17.6c44.6-4.1,50.7-8.1,50.7-52V340.1c0-43.2-2-46.6-41.2-52.7
	v-15.5c29.7-5.4,64.2-14.2,93.9-27.7v54.7c14.2-9.5,29-21.6,49.3-34.4c17.6-10.8,33.8-18.2,55.4-18.2c32.4,0,61.5,20.3,75,55.4
	c19.6-14.9,39.2-27.7,56.1-37.8c14.2-9.5,31.7-17.6,50.7-17.6c52.7,0,85.8,37.1,85.8,103.3v130.4c0,45.3,5.4,48,43.9,52v17.6H465.8z
	"/>
</svg>
