<?xml version="1.0" encoding="utf-8"?>
<!-- Generator: Adobe Illustrator 22.0.1, SVG Export Plug-In . SVG Version: 6.00 Build 0)  -->
<svg version="1.1" id="Layer_1" xmlns="http://www.w3.org/2000/svg" xmlns:xlink="http://www.w3.org/1999/xlink" x="0px" y="0px"
	 viewBox="0 0 700 700" style="enable-background:new 0 0 700 700;" xml:space="preserve">
<g>
	<path d="M317.9,608.5c-1.1,1.1-4.4,6.5-9.9,16.3c-5.5,9.8-11.4,19.7-17.6,29.8c-6.3,10-14,19.6-23.1,28.7c-9.2,9.1-16.8,14-23,14.7
		c-6.2,0.8-10.1,1.1-11.8,1.1c-19.9,0-29.8-10-29.8-30.1c0-23.5,12.2-51,36.6-82.6c9.3-11.9,20.9-24.7,35-38.4
		c14-13.7,21.7-21.5,23-23.3c1.3-1.8,17.5-32.1,48.6-90.8c-20.7,22.7-39.9,41.1-57.6,55.2c-17.7,14.1-34.8,22.1-51.2,23.8h-2.3
		c-8.4,0-16.7-2.8-24.9-8.3c-8.2-5.5-12.3-15.2-12.3-29c0-20.5,5.5-40.4,16.5-59.6c3.9-6.7,10.6-18,20.2-34
		c9.6-16,18.5-31.4,26.7-46.3c7.8-11.9,15.8-25.7,24-41.4c8.2-15.8,14.5-27,18.8-33.8c4.3-6.8,8.4-10.2,12.3-10.2s8.9,2.4,15.1,7.3
		c6.2,4.9,9.2,10.6,9.2,17.3c0,6.7-14.1,35.7-42.4,87.1c-28.3,51.4-42.4,80.6-42.4,87.7c0,1.7,0.9,2.6,2.6,2.6
		c5.8,0,18.7-8.3,38.7-24.8c20-16.5,42-37.7,66.2-63.6c27-28.7,48.1-54.9,63.5-78.7c1.9-3,3.5-5.3,4.7-7c1.2-1.6,2.7-3.8,4.5-6.5
		c1.8-2.7,3.3-4.8,4.5-6.3c1.2-1.5,2.6-3.3,4.2-5.3c1.6-2,3.1-3.6,4.4-4.7c1.3-1.1,2.7-2.2,4.2-3.2c2.4-2.2,5-3.2,7.9-3.2
		s7.3,0.6,13.3,1.9c5.9,1.3,9.5,2.7,10.7,4.2c1.2,1.5,2.4,2.9,3.7,4.2c2.2,2.4,3.2,4.6,3.2,6.6c0,2.1-0.9,4.7-2.6,8.1
		c-1.7,3.3-11.8,20.5-30.1,51.3c-54,91.1-91.1,157.6-111.4,199.4c32.8-27.6,79-68.5,138.6-122.7c2.4-1.9,4.7-2.9,7.1-2.9
		c6.7,0,10,10.3,10,30.8c0,6-1.1,10-3.2,12C435.6,491.7,374.9,547.2,317.9,608.5z"/>
</g>
</svg>
