<svg id="Layer_1" data-name="Layer 1" xmlns="http://www.w3.org/2000/svg" viewBox="0 0 700 700"><title>alphabet</title><path d="M476.53,162.09a27.71,27.71,0,0,1-4,14.15l-92.84,150.6L493.5,510.25a24.13,24.13,0,0,1,4,14.15,26.94,26.94,0,0,1-26.6,26.6c-10.18,0-16.41-3.41-22.08-12.45L350.28,375,251.22,538.55c-5.07,7.93-12.45,12.45-22.08,12.45a26.94,26.94,0,0,1-26.6-26.6c0-5.67,1.11-9.63,4.52-14.15L321.42,326.84l-94-150.6a27.71,27.71,0,0,1-4-14.15c0-14.75,12.44-26.6,27.19-26.6,9.64,0,16.41,4.52,21.48,12.45l78.14,131.32,77.58-131.32c5.07-7.93,11.89-12.45,21.52-12.45C464.64,135.49,476.53,147.34,476.53,162.09Z"/></svg>