<svg id="Layer_1" data-name="Layer 1" xmlns="http://www.w3.org/2000/svg" viewBox="0 0 700 700"><title>alphabet</title><path d="M450.23,550.8H260.85V523.93l50.81-9.49c4.6-.71,8.07-2.36,10.55-5s3.71-6.19,3.71-10.79V393L207.63,187.08a25.56,25.56,0,0,0-6.84-7.89,26.14,26.14,0,0,0-9.72-4.19l-33.18-8.19V139.4h160.9v27.41l-48.45,9.72,96.37,174.11,89-174.34-49.22-9.49V139.4H542.11v27.41l-32.41,7.37a30.53,30.53,0,0,0-10,4.06,20.36,20.36,0,0,0-6.9,8.08l-107.68,207V498.64q0,6.9,3.53,10.79c2.36,2.65,6,4.3,10.67,5l50.87,9.49Z"/></svg>